<svg xmlns="http://www.w3.org/2000/svg" width="25.805" height="25.802" viewBox="0 0 25.805 25.802">
  <g id="Group_162468" data-name="Group 162468" transform="translate(-93 -216.769)">
    <path id="Path_83476" data-name="Path 83476" d="M196.095,280.124c-.091-.127-.116-.171-.15-.208q-1.2-1.308-2.406-2.615c-.552-.6-1.1-1.2-1.658-1.8a.969.969,0,0,0-1.433-.057.993.993,0,0,0,.05,1.422q2.345,2.551,4.694,5.1a1.009,1.009,0,0,0,1.664.032l12.115-12.085a2.33,2.33,0,0,0,.221-.241.963.963,0,0,0-.592-1.529,1.074,1.074,0,0,0-1,.394q-5.653,5.645-11.309,11.287A1.844,1.844,0,0,0,196.095,280.124Z" transform="translate(-91.037 -48.115)" fill="#d4000f"/>
    <path id="Path_83477" data-name="Path 83477" d="M93,228.911c.066-.489.112-.981.2-1.465a12.74,12.74,0,0,1,5.575-8.522,12.657,12.657,0,0,1,7.12-2.155.952.952,0,0,1,.97.9.935.935,0,0,1-.858,1.024c-.542.059-1.09.062-1.63.134a10.952,10.952,0,0,0-9.064,8.061,10.661,10.661,0,0,0,2.449,10.083,10.4,10.4,0,0,0,6.4,3.509,10.655,10.655,0,0,0,8.92-2.559,10.436,10.436,0,0,0,3.4-5.47,23.081,23.081,0,0,0,.359-2.408c.02-.141.007-.286.023-.427a.951.951,0,0,1,1.032-.91.965.965,0,0,1,.9,1.018,11.583,11.583,0,0,1-.463,3.356,12.748,12.748,0,0,1-9.331,9.1,19.691,19.691,0,0,1-2.132.349c-.074.012-.147.029-.22.044h-1.512a1.387,1.387,0,0,0-.195-.042,12.278,12.278,0,0,1-5.63-1.776,12.736,12.736,0,0,1-6.122-8.866c-.09-.484-.135-.976-.2-1.464Z" transform="translate(0)" fill="#d4000f"/>
    <path id="Path_83478" data-name="Path 83478" d="M196.095,280.124a1.844,1.844,0,0,1,.191-.3q5.653-5.645,11.309-11.287a1.074,1.074,0,0,1,1-.394.963.963,0,0,1,.592,1.529,2.33,2.33,0,0,1-.221.241L196.855,282a1.009,1.009,0,0,1-1.664-.032q-2.348-2.548-4.694-5.1a.993.993,0,0,1-.05-1.422.969.969,0,0,1,1.433.057c.559.592,1.106,1.2,1.658,1.8q1.2,1.307,2.406,2.615C195.978,279.952,196,280,196.095,280.124Z" transform="translate(-91.037 -48.115)" fill="#d4000f"/>
  </g>
</svg>
