<svg xmlns="http://www.w3.org/2000/svg" width="28.592" height="28.563" viewBox="0 0 28.592 28.563">
  <path id="Path_83468" data-name="Path 83468" d="M214.43,34.342H200.972c-.1-.132-.26-.252-.3-.4-.06-.25.163-.432.483-.435.5,0,1,0,1.5,0,.016-.128.028-.218.039-.309.088-.718.165-1.438.265-2.155a1.831,1.831,0,0,1,1.187-1.559c.578-.22,1.191-.349,1.785-.53.114-.035.28-.111.3-.2a.41.41,0,0,0-.191-.516,2.965,2.965,0,0,1-1.367-1.859.5.5,0,0,0-.354-.4,1.252,1.252,0,0,1-.57-2,.408.408,0,0,0,.106-.216c.038-.5.064-1,.094-1.5l-.351.442c-.5.635-.907.677-1.516.156-.01-.008-.034,0-.075,0q0,.789,0,1.58c0,.56-.115.764-.428.761s-.41-.2-.41-.742V22.819a1.243,1.243,0,0,0-.124.076.864.864,0,0,1-1.441-.139c-.349-.447-.7-.889-1.044-1.342a.265.265,0,0,0-.328-.115c-.386.1-.778.183-1.162.292a2.228,2.228,0,0,0-1.8,2.043c-.069.72-.154,1.439-.233,2.159-.045.411-.092.822-.141,1.249l2.131.224c.01-.174.018-.321.025-.467.019-.38.032-.761.06-1.14a.424.424,0,0,1,.424-.43.415.415,0,0,1,.409.437c0,.092,0,.186-.006.278q-.156,2.879-.312,5.757c-.032.591-.057,1.182-.087,1.8.492,0,.954,0,1.417,0,.24,0,.458.036.541.292s-.066.421-.269.548h-4.077a7.154,7.154,0,0,1-.971-.45,1.948,1.948,0,0,1-.7-1.223v-.78a.91.91,0,0,0,.047-.158c.3-2.7.6-5.407.906-8.11a3.145,3.145,0,0,1,.665-1.77,3.817,3.817,0,0,1,2.139-1.164,8.691,8.691,0,0,0,1.825-.582c.336-.164.484-.336.436-.707-.025-.2-.014-.351-.231-.478a4.51,4.51,0,0,1-2.306-3.663.453.453,0,0,0-.345-.467,1.4,1.4,0,0,1-.909-1.8,2.453,2.453,0,0,0,.168-1.023c0-.251-.005-.5.009-.752a5.471,5.471,0,0,1,1.365-3.4,5.608,5.608,0,0,1,5.009-1.962,5.752,5.752,0,0,1,4.855,4.213,10.206,10.206,0,0,1,.18,2.3.692.692,0,0,0,.06.348,1.431,1.431,0,0,1-.853,2.109.37.37,0,0,0-.284.394,4.342,4.342,0,0,1-2.029,3.53.889.889,0,0,0-.485.976c0,.009,0,.021,0,.028.042.072.068.176.131.209.287.152.583.287.879.422a.516.516,0,0,0,.626-.1,3.053,3.053,0,0,1,1.507-.746c.5-.088,1.008-.1,1.461-.145-.044-.62-.095-1.293-.137-1.965-.092-1.455-.186-2.911-.266-4.366A8.691,8.691,0,0,1,208.28,9.7a3.181,3.181,0,0,1,1.955-2.142c.1-.034.166-.138.249-.208a8.637,8.637,0,0,1,1.108-.918,5.127,5.127,0,0,1,3.893-.471A5.727,5.727,0,0,1,219.2,8.817a5.563,5.563,0,0,1,.673,1.877c.05.3-.068.514-.311.564s-.43-.1-.506-.4c-.018-.072-.031-.145-.048-.217a5.29,5.29,0,0,0-2.751-3.538,4.714,4.714,0,0,0-3.045-.389,3.222,3.222,0,0,0-2.224,1.353.77.77,0,0,1-.386.246,2.182,2.182,0,0,0-1.309,1.138,5.558,5.558,0,0,0-.549,2.618c0,.826.061,1.652.106,2.477q.115,2.087.246,4.172c.026.411.077.448.5.448h2.01c.084,0,.167-.009.258-.014-.015-.064-.013-.091-.024-.1-.107-.072-.217-.14-.325-.211a4.465,4.465,0,0,1-2.156-3.522c-.069-.934-.039-1.875-.037-2.813a.767.767,0,0,1,.693-.839,3.345,3.345,0,0,0,1.592-.927.727.727,0,0,1,1.245.059,6.208,6.208,0,0,0,1.647,1.359,7.2,7.2,0,0,0,3.292.94.8.8,0,0,1,.839.872q.007.46,0,.92a4.592,4.592,0,0,1-2.346,4.048c-.073.044-.141.1-.232.158.063.039.086.065.108.065.782,0,1.564.005,2.345,0,.185,0,.282-.112.292-.3.023-.427.056-.853.08-1.279.086-1.53.173-3.06.251-4.59.02-.391.157-.6.43-.6s.414.211.407.61c0,.037,0,.074,0,.111q-.163,2.852-.326,5.7a1.121,1.121,0,0,1-1.27,1.193c-.67,0-1.34,0-2.01,0-.091,0-.183.014-.274.021l-.006.082c.084.026.167.057.251.079.916.24,1.845.441,2.747.728a2.716,2.716,0,0,1,1.94,2.077,13.009,13.009,0,0,1,.2,1.376c.22,1.918.432,3.838.651,5.757.067.588.148,1.174.222,1.761v.78a7.052,7.052,0,0,1-.385.881,1.882,1.882,0,0,1-1.29.791h-4.3c-.171-.148-.345-.295-.241-.559s.316-.286.551-.278c.112,0,.223,0,.335,0h1.289c-.116-2.189-.229-4.34-.343-6.49-.023-.436-.058-.871-.072-1.307a.425.425,0,0,1,.4-.479c.241-.01.407.16.434.445.005.055.007.111.011.167.028.469.056.938.085,1.428l2.112-.23c-.132-1.184-.266-2.327-.386-3.471a2.22,2.22,0,0,0-2.072-2.009c-.088.446-.148.9-.271,1.333a1.738,1.738,0,0,1-1.08,1.294,1.8,1.8,0,0,1-1.435-.138c-.509-.26-.988-.579-1.5-.882-.274.189-.574.426-.9.614s-.681.323-1.024.482a3.027,3.027,0,0,1,.086.392,1.305,1.305,0,0,1-.922,1.368c-.092.04-.222.11-.24.189a3.335,3.335,0,0,1-1.49,2.1c-.1.065-.1.309-.1.472,0,.05.136.126.221.149.511.138,1.033.24,1.537.4a2,2,0,0,1,1.5,1.628c.076.438.113.883.167,1.325.049.4.1.8.149,1.217.432,0,.831,0,1.23,0,.239,0,.455.03.549.284S214.616,34.2,214.43,34.342Zm-9.019-20.3c0-.418.008-.836-.006-1.253a.408.408,0,0,0-.127-.278,2.161,2.161,0,0,1-.831-1.607c-.02-.25-.118-.323-.354-.285a17.434,17.434,0,0,1-4.975,0c-.3-.038-.35.009-.381.319a2.152,2.152,0,0,1-.791,1.54.471.471,0,0,0-.161.315c-.011.752-.016,1.5,0,2.256a3.8,3.8,0,0,0,3.141,3.612,3.842,3.842,0,0,0,4.179-2.263A5.713,5.713,0,0,0,205.412,14.043Zm6.787-2.705a4.01,4.01,0,0,1-1.883,1.116c-.163.042-.167.143-.167.269,0,.65-.023,1.3-.013,1.95a4.018,4.018,0,0,0,1.554,3.269,3.9,3.9,0,0,0,4.792-.16,4.252,4.252,0,0,0,1.278-3.84,8.215,8.215,0,0,1-3.037-.72A7.422,7.422,0,0,1,212.2,11.338Zm-5.744.636a4.885,4.885,0,0,0-7.489-4.559,4.908,4.908,0,0,0-2.233,4.64,4.194,4.194,0,0,0,.786-.331,1.116,1.116,0,0,0,.388-.888,1.014,1.014,0,0,1,1.224-1.042c.426.034.85.09,1.276.134a16.555,16.555,0,0,0,3.561-.128,1.026,1.026,0,0,1,1.309,1.054C205.356,11.592,205.677,11.9,206.455,11.975Zm5.6,21.514c-.1-.791-.183-1.564-.285-2.334a1.193,1.193,0,0,0-.915-1.013c-.309-.1-.629-.164-.941-.255a.36.36,0,0,0-.392.1,2.436,2.436,0,0,1-3.191.213,1.2,1.2,0,0,0-1.172-.2,1.56,1.56,0,0,0-1.436,1.569c-.03.636-.136,1.268-.21,1.918h1.122c.017-.273.027-.532.052-.789.034-.342.187-.5.454-.48s.4.219.379.572c-.014.229-.022.458-.034.694h4.573c0-.3-.009-.577,0-.855a.394.394,0,0,1,.627-.34.741.741,0,0,1,.2.429,6.91,6.91,0,0,1,.045.77Zm-6.633-9.277c0,.531-.022,1.031,0,1.529a2.36,2.36,0,0,0,4.708-.014c.026-.519.013-1.04.008-1.56a.294.294,0,0,0-.093-.2c-.329-.26-.667-.508-1.013-.769A3.725,3.725,0,0,1,205.424,24.212Zm5.408-.84a3.035,3.035,0,0,0-1.427-2.659,2.952,2.952,0,0,0-3.223,0,2.922,2.922,0,0,0-1.468,2.656c.289,0,.558-.006.825,0,.11,0,.218.047.329.058a2.6,2.6,0,0,0,2.73-1.082.586.586,0,0,1,1.032.071A2.02,2.02,0,0,0,210.831,23.371ZM196.7,33.5l.271-5.4-2.155-.224c-.061.528-.121,1.033-.176,1.539-.1.931-.213,1.862-.3,2.795a1.074,1.074,0,0,0,1.006,1.282C195.779,33.518,196.217,33.5,196.7,33.5Zm21.9-5.4c.095,1.811.189,3.6.283,5.391.484,0,.94.025,1.393-.007a.964.964,0,0,0,.927-.853,2.058,2.058,0,0,0,.03-.58c-.1-1.016-.221-2.03-.335-3.044-.042-.374-.09-.747-.136-1.133Zm-3.365-8.727a4.842,4.842,0,0,1-2.539,0c.022.786.157,1.608-.991,1.632A2.881,2.881,0,0,0,216.222,21C215.078,20.984,215.235,20.152,215.23,19.376Zm-13.635,1.8c.347-.326.646-.65.989-.916a.8.8,0,0,0,.254-.882,4.96,4.96,0,0,1-2.536-.008c.045.269.009.55.133.692C200.78,20.462,201.191,20.8,201.595,21.179Zm13.414,1.626-.017.086a10.678,10.678,0,0,0,1.05.481.7.7,0,0,0,1-.472,15.31,15.31,0,0,0,.355-1.555l-.092-.07c-.081.027-.195.029-.237.085A4.034,4.034,0,0,1,215.009,22.806Zm-6.582,5.926h-1.282l-.227.864a1.551,1.551,0,0,0,1.729,0Zm-5.618-6.359,1.126-1.437c-.163-.079-.3-.157-.446-.213a.227.227,0,0,0-.194.019c-.369.334-.729.678-1.094,1.021Zm-1.839-.588a.238.238,0,0,0-.03-.06c-.241-.231-.481-.462-.724-.691-.419-.394-.42-.393-.946-.081l1.1,1.409Zm10.766,1.693,1.219-.6-1.424-.748Zm.128-3.366-.021-.085h-1.892a.813.813,0,0,0,1.056.324,3.528,3.528,0,0,1,.535-.141C211.65,20.179,211.756,20.143,211.864,20.11ZM196.924,14V12.858a.591.591,0,0,0-.457.553A.6.6,0,0,0,196.924,14Zm9.357-1.136V14c.285-.136.458-.318.437-.61A.582.582,0,0,0,206.281,12.867ZM211,25.15c.34-.271.332-.522,0-.717Zm-6.457-.738c-.33.265-.322.517,0,.714Z" transform="translate(-193.489 -5.779)" fill="#b61f29"/>
</svg>
