<?xml version="1.0" encoding="utf-8"?>
<!-- Generator: Adobe Illustrator 25.4.1, SVG Export Plug-In . SVG Version: 6.00 Build 0)  -->
<svg version="1.1" id="Ebene_1" xmlns="http://www.w3.org/2000/svg" xmlns:xlink="http://www.w3.org/1999/xlink" x="0px" y="0px"
	 viewBox="0 0 181.4 105.75" style="enable-background:new 0 0 181.4 105.75;" xml:space="preserve">
<style type="text/css">
	.st0{fill:#FFFFFF;}
	.st1{fill:#3A9E52;}
</style>
<g id="Gruppe_162626" transform="translate(43.71 99.656)">
	<path id="Pfad_83498" class="st0" d="M4.71,0.07v0.69H2.77v5.34H1.95V0.75H0V0.07H4.71z"/>
	<path id="Pfad_83499" class="st0" d="M10.45,6.09H9.64V3.35H6.39v2.74H5.57V0.07h0.82v2.69h3.24V0.07h0.82V6.09z"/>
	<path id="Pfad_83500" class="st0" d="M15.64,0.07v0.66h-2.89v2h2.34v0.64h-2.34v2.06h2.89v0.66h-3.71V0.07L15.64,0.07z"/>
	<path id="Pfad_83501" class="st0" d="M19.24,5.41h2.6v0.68h-3.42V0.07h0.82L19.24,5.41z"/>
	<path id="Pfad_83502" class="st0" d="M27.7,6.09h-0.63c-0.06,0-0.13-0.02-0.18-0.06C26.85,6,26.82,5.95,26.8,5.89l-0.56-1.45h-2.7
		l-0.56,1.45c-0.02,0.05-0.06,0.1-0.1,0.14c-0.05,0.04-0.11,0.06-0.18,0.06h-0.63l2.41-6.02h0.83L27.7,6.09z M23.76,3.85H26
		L25.06,1.4c-0.07-0.18-0.13-0.37-0.18-0.57c-0.03,0.12-0.06,0.22-0.09,0.32c-0.03,0.1-0.06,0.18-0.09,0.25L23.76,3.85z"/>
	<path id="Pfad_83503" class="st0" d="M28.46,6.09V0.07h1.92c0.32-0.01,0.64,0.03,0.96,0.11C31.58,0.24,31.8,0.34,32,0.49
		c0.17,0.13,0.3,0.3,0.38,0.49c0.09,0.21,0.13,0.43,0.12,0.66c0,0.15-0.02,0.29-0.07,0.43c-0.05,0.14-0.12,0.27-0.21,0.38
		c-0.1,0.12-0.22,0.23-0.35,0.31c-0.16,0.1-0.32,0.17-0.5,0.23c0.37,0.05,0.72,0.22,1,0.47c0.23,0.24,0.35,0.57,0.34,0.91
		c0,0.24-0.04,0.48-0.14,0.7c-0.09,0.21-0.24,0.4-0.41,0.54c-0.2,0.16-0.42,0.28-0.66,0.35c-0.29,0.09-0.6,0.13-0.9,0.12L28.46,6.09
		z M29.28,2.77h1.08c0.2,0,0.4-0.02,0.6-0.07c0.15-0.04,0.29-0.11,0.42-0.21c0.11-0.09,0.19-0.2,0.24-0.33
		c0.05-0.13,0.08-0.27,0.08-0.42c0.02-0.3-0.09-0.58-0.32-0.78c-0.3-0.19-0.64-0.27-0.99-0.25h-1.1L29.28,2.77z M29.28,3.34v2.1h1.3
		c0.2,0,0.41-0.02,0.6-0.08c0.15-0.04,0.29-0.12,0.41-0.22c0.11-0.09,0.19-0.21,0.24-0.34c0.05-0.14,0.08-0.29,0.08-0.44
		c0.01-0.28-0.11-0.56-0.33-0.74c-0.29-0.2-0.65-0.3-1-0.27L29.28,3.34z"/>
	<path id="Pfad_83504" class="st0" d="M37.61,0.07v0.66h-2.89v2h2.34v0.64h-2.34v2.06h2.89v0.66H33.9V0.07L37.61,0.07z"/>
	<path id="Pfad_83505" class="st0" d="M39.6,5.41h2.6v0.68h-3.42V0.07h0.82L39.6,5.41z"/>
	<path id="Pfad_83506" class="st0" d="M43.92,5.41h2.6v0.68H43.1V0.07h0.81L43.92,5.41z"/>
	<path id="Pfad_83507" class="st0" d="M48.39,6.09h-0.81V0.07h0.81V6.09z"/>
	<path id="Pfad_83508" class="st0" d="M50.58,0.09c0.05,0.03,0.09,0.07,0.12,0.11l3.49,4.54c-0.01-0.07-0.01-0.14-0.02-0.21
		s0-0.14,0-0.2V0.07h0.71v6.02h-0.41c-0.06,0-0.11-0.01-0.16-0.03c-0.05-0.03-0.09-0.07-0.13-0.11L50.7,1.41
		c0.01,0.07,0.01,0.14,0.01,0.2s0,0.13,0,0.19v4.29H50V0.07h0.42C50.48,0.06,50.53,0.07,50.58,0.09z"/>
	<path id="Pfad_83509" class="st0" d="M59.04,5.5c0.15,0,0.3-0.01,0.45-0.02c0.13-0.01,0.26-0.04,0.39-0.07
		c0.12-0.03,0.23-0.07,0.34-0.11c0.11-0.04,0.21-0.09,0.32-0.15V3.81H59.6c-0.05,0-0.09-0.01-0.13-0.05
		c-0.03-0.03-0.05-0.07-0.05-0.11V3.19h1.85V5.5c-0.15,0.11-0.31,0.2-0.47,0.29c-0.17,0.08-0.34,0.15-0.53,0.2
		c-0.2,0.06-0.4,0.1-0.6,0.12c-0.23,0.03-0.46,0.04-0.69,0.04c-0.41,0-0.82-0.07-1.2-0.22c-0.35-0.14-0.67-0.36-0.94-0.63
		c-0.27-0.28-0.48-0.61-0.62-0.97C56.07,3.92,55.99,3.5,56,3.07c-0.01-0.43,0.07-0.85,0.22-1.26c0.27-0.74,0.85-1.32,1.59-1.6
		c0.41-0.15,0.84-0.23,1.28-0.22c0.22,0,0.44,0.02,0.66,0.05c0.19,0.03,0.39,0.08,0.57,0.15c0.17,0.06,0.33,0.14,0.48,0.24
		c0.15,0.09,0.29,0.2,0.42,0.32l-0.23,0.37c-0.04,0.07-0.11,0.11-0.19,0.11c-0.05,0-0.1-0.02-0.15-0.05
		c-0.07-0.04-0.15-0.09-0.24-0.14c-0.1-0.06-0.21-0.12-0.32-0.16c-0.14-0.06-0.29-0.1-0.44-0.13c-0.2-0.04-0.4-0.06-0.6-0.05
		c-0.31,0-0.63,0.05-0.92,0.17c-0.27,0.1-0.5,0.27-0.7,0.47c-0.2,0.22-0.35,0.47-0.45,0.75c-0.11,0.32-0.16,0.65-0.16,0.98
		C56.83,3.43,56.88,3.77,57,4.1c0.1,0.28,0.25,0.54,0.46,0.76c0.2,0.21,0.43,0.37,0.7,0.47C58.43,5.44,58.73,5.5,59.04,5.5z"/>
	<path id="Pfad_83510" class="st0" d="M67.85,0.07v0.66h-2.89v2.11h2.47V3.5h-2.47v2.59h-0.82V0.07L67.85,0.07z"/>
	<path id="Pfad_83511" class="st0" d="M73.3,6.09h-0.63c-0.06,0-0.13-0.02-0.18-0.06c-0.04-0.04-0.08-0.08-0.1-0.14l-0.56-1.45h-2.7
		l-0.56,1.45c-0.02,0.05-0.06,0.1-0.1,0.14c-0.05,0.04-0.11,0.06-0.18,0.06h-0.63l2.41-6.02h0.83L73.3,6.09z M69.35,3.85h2.25
		L70.66,1.4c-0.07-0.18-0.13-0.37-0.18-0.57c-0.03,0.12-0.06,0.22-0.09,0.32c-0.03,0.1-0.06,0.18-0.09,0.25L69.35,3.85z"/>
	<path id="Pfad_83512" class="st0" d="M77.12,4.12c0.03,0.07,0.06,0.15,0.09,0.22c0.03-0.08,0.06-0.15,0.09-0.22s0.07-0.14,0.1-0.22
		l2.04-3.7c0.02-0.05,0.06-0.09,0.11-0.12c0.05-0.02,0.11-0.02,0.17-0.02h0.6v6.02h-0.71V1.66c0-0.06,0-0.12,0-0.19
		s0.01-0.14,0.01-0.21l-2.06,3.76c-0.05,0.11-0.17,0.19-0.29,0.19h-0.12c-0.13,0-0.24-0.07-0.29-0.19l-2.11-3.78
		c0.01,0.07,0.02,0.14,0.02,0.21s0.01,0.13,0.01,0.19v4.43h-0.71V0.07h0.6c0.06,0,0.11,0.01,0.17,0.02
		c0.05,0.03,0.09,0.07,0.11,0.12l2.08,3.71C77.06,3.98,77.09,4.05,77.12,4.12z"/>
	<path id="Pfad_83513" class="st0" d="M82.76,6.09h-0.81V0.07h0.81V6.09z"/>
	<path id="Pfad_83514" class="st0" d="M85.19,5.41h2.6v0.68h-3.42V0.07h0.81L85.19,5.41z"/>
	<path id="Pfad_83515" class="st0" d="M90.12,3.69v2.4h-0.81v-2.4L87.1,0.07h0.71c0.06,0,0.12,0.02,0.17,0.06
		c0.04,0.04,0.08,0.08,0.11,0.13l1.38,2.34c0.05,0.09,0.1,0.18,0.14,0.28c0.04,0.09,0.07,0.17,0.1,0.26
		c0.03-0.09,0.06-0.17,0.1-0.26c0.04-0.09,0.09-0.19,0.14-0.27l1.37-2.34c0.03-0.05,0.06-0.09,0.1-0.13
		c0.05-0.04,0.11-0.06,0.17-0.06h0.72L90.12,3.69z"/>
</g>
<g id="Gruppe_162628" transform="translate(0 69.457)">
	<g id="Gruppe_162627">
		<path id="Pfad_83516" class="st0" d="M0,0.37h5.06v17.73h10.96v4.12H0V0.37z"/>
		<path id="Pfad_83517" class="st0" d="M33.97,1.19c1.49,0.79,2.71,2.01,3.5,3.5c0.88,1.73,1.3,3.65,1.25,5.59v11.96h-5.06v-5.24
			h-9.99v5.24h-5V10.27c-0.06-1.94,0.37-3.86,1.25-5.59c0.78-1.49,2.01-2.72,3.5-3.5C26.75-0.4,30.63-0.4,33.97,1.19L33.97,1.19z
			 M33.66,12.93V9.8c0.11-1.49-0.37-2.96-1.34-4.1c-2.09-1.85-5.23-1.85-7.32,0c-0.96,1.14-1.43,2.61-1.33,4.1v3.12H33.66z"/>
		<path id="Pfad_83518" class="st0" d="M61.38,2.45c1.46,1.63,2.18,3.96,2.18,6.98v12.8h-5.06V9.58c0.11-1.42-0.33-2.84-1.23-3.95
			c-0.89-0.91-2.14-1.4-3.42-1.33c-1.38-0.06-2.72,0.45-3.7,1.42c-1,1.16-1.5,2.67-1.39,4.2v12.3h-5.06V0.37h4.9v2.66
			c0.73-0.98,1.7-1.76,2.81-2.26c1.22-0.53,2.54-0.79,3.87-0.77C57.59-0.13,59.82,0.77,61.38,2.45z"/>
		<path id="Pfad_83519" class="st0" d="M83.33,10.95h4.62v11.27h-3.81v-1.31c-1.72,1.18-3.78,1.78-5.87,1.68
			c-1.93,0.02-3.84-0.43-5.56-1.31c-1.68-0.87-3.07-2.19-4.03-3.82c-2.01-3.72-2-8.22,0.05-11.93c1.03-1.73,2.51-3.14,4.29-4.08
			c1.91-0.99,4.03-1.5,6.18-1.47c1.78-0.02,3.56,0.3,5.21,0.97c1.51,0.61,2.86,1.58,3.93,2.81l-3.24,3
			c-2.42-2.56-6.24-3.2-9.37-1.58c-1.07,0.58-1.94,1.45-2.53,2.51c-1.2,2.36-1.21,5.16-0.02,7.52c0.55,1,1.38,1.82,2.39,2.36
			c1.01,0.53,2.14,0.81,3.28,0.8c1.62,0.05,3.2-0.48,4.46-1.5L83.33,10.95z"/>
		<path id="Pfad_83520" class="st0" d="M107.4,10.95h4.62v11.27h-3.81v-1.31c-1.72,1.18-3.78,1.78-5.87,1.68
			c-1.93,0.02-3.84-0.43-5.56-1.31c-1.68-0.87-3.08-2.19-4.03-3.82c-2.02-3.72-2-8.22,0.05-11.93c1.03-1.73,2.51-3.14,4.29-4.08
			c1.91-0.99,4.03-1.5,6.18-1.47c1.78-0.02,3.56,0.3,5.21,0.97c1.51,0.61,2.86,1.58,3.93,2.81l-3.24,3
			c-2.42-2.56-6.24-3.2-9.37-1.58c-1.07,0.58-1.95,1.45-2.53,2.51c-1.2,2.36-1.21,5.16-0.02,7.52c0.55,1,1.38,1.82,2.39,2.36
			c1.01,0.53,2.14,0.81,3.28,0.8c1.62,0.05,3.2-0.48,4.46-1.5L107.4,10.95z"/>
		<path id="Pfad_83521" class="st0" d="M136.25,0.37v21.86h-4.9v-2.65c-1.56,2.05-4.05,3.18-6.62,3.03
			c-2.28,0.13-4.49-0.77-6.04-2.45c-1.45-1.63-2.17-3.96-2.17-6.98V0.37h5.06v12.65c-0.11,1.42,0.33,2.84,1.23,3.95
			c0.87,0.91,2.1,1.39,3.36,1.33c1.36,0.06,2.69-0.45,3.65-1.42c0.99-1.16,1.49-2.67,1.38-4.2V0.38L136.25,0.37z"/>
		<path id="Pfad_83522" class="st0" d="M181.4,0.37v21.86h-5.06v-8.96h-9.93v8.96h-5.06V0.37h5.06v8.62h9.93V0.37H181.4z"/>
	</g>
	<path id="Pfad_83523" class="st0" d="M157.72,0.38h-17.83v5.06h6.39v16.79h5.06V5.44h6.39L157.72,0.38z"/>
</g>
<path id="Pfad_83524" class="st1" d="M104.97,30.22h-4.37V12.96C100.6,5.81,94.8,0.01,87.64,0H65.89c-1.34,0-2.42,1.09-2.42,2.42
	v40.76c0.01,7.16,5.81,12.95,12.96,12.96h28.54c7.16,0,12.96-5.81,12.96-12.97C117.93,36.03,112.13,30.22,104.97,30.22L104.97,30.22
	z M68.31,43.19V4.85h19.33c4.48,0,8.11,3.63,8.11,8.11v17.26H77.36c-1.34,0-2.42,1.09-2.42,2.42c0,1.34,1.09,2.42,2.42,2.42
	c4.48,0,8.11,3.63,8.11,8.11s-3.63,8.11-8.11,8.11h-0.94C71.95,51.3,68.32,47.67,68.31,43.19z M104.97,51.3h-17.5
	c0.13-0.16,0.22-0.35,0.35-0.51c0.18-0.25,0.35-0.5,0.51-0.76c0.26-0.42,0.5-0.85,0.71-1.3c0.13-0.27,0.26-0.53,0.37-0.81
	c0.19-0.51,0.35-1.02,0.48-1.55c0.06-0.25,0.15-0.49,0.2-0.75c0.74-3.73-0.21-7.61-2.61-10.56h17.5c4.48,0,8.11,3.63,8.11,8.11
	S109.45,51.3,104.97,51.3L104.97,51.3z"/>
</svg>
