<?xml version="1.0" encoding="utf-8"?>
<!-- Generator: Adobe Illustrator 25.4.1, SVG Export Plug-In . SVG Version: 6.00 Build 0)  -->
<svg version="1.1" id="Ebene_1" xmlns="http://www.w3.org/2000/svg" xmlns:xlink="http://www.w3.org/1999/xlink" x="0px" y="0px"
	 viewBox="0 0 465.75 102.55" style="enable-background:new 0 0 465.75 102.55;" xml:space="preserve">
<style type="text/css">
	.st0{fill:#0D121A;}
	.st1{fill:#3A9E52;}
</style>
<g id="Gruppe_164837" transform="translate(-1233 -615.793)">
	<g id="Gruppe_162626" transform="translate(1338.183 691.906)">
		<path id="Pfad_83498" class="st0" d="M11.82,0.17v1.72H6.95v13.38H4.9V1.89H0V0.17H11.82z"/>
		<path id="Pfad_83499" class="st0" d="M26.22,15.27h-2.05V8.4h-8.14v6.87h-2.05V0.17h2.05V6.9h8.14V0.17h2.05V15.27z"/>
		<path id="Pfad_83500" class="st0" d="M39.22,0.17v1.66h-7.25v5.02h5.87v1.6h-5.87v5.15h7.25v1.67h-9.31V0.17L39.22,0.17z"/>
		<path id="Pfad_83501" class="st0" d="M48.27,13.55h6.53v1.72h-8.58V0.17h2.04L48.27,13.55z"/>
		<path id="Pfad_83502" class="st0" d="M69.48,15.27H67.9c-0.16,0.01-0.32-0.04-0.44-0.14c-0.11-0.09-0.2-0.21-0.25-0.35l-1.41-3.65
			h-6.78l-1.41,3.65c-0.05,0.13-0.14,0.25-0.25,0.34c-0.13,0.1-0.28,0.15-0.44,0.15h-1.58l6.04-15.1h2.08L69.48,15.27z M59.58,9.66
			h5.64l-2.37-6.14c-0.18-0.46-0.33-0.94-0.45-1.42c-0.08,0.29-0.15,0.56-0.23,0.8c-0.07,0.24-0.15,0.45-0.22,0.64L59.58,9.66z"/>
		<path id="Pfad_83503" class="st0" d="M71.39,15.27V0.17h4.82c0.81-0.01,1.62,0.08,2.4,0.27c0.6,0.15,1.16,0.41,1.65,0.78
			c0.42,0.32,0.75,0.75,0.96,1.24c0.21,0.52,0.32,1.08,0.31,1.65c0,0.36-0.06,0.73-0.17,1.07c-0.12,0.35-0.3,0.67-0.53,0.96
			c-0.25,0.31-0.55,0.58-0.89,0.79c-0.39,0.25-0.81,0.44-1.25,0.57c0.93,0.13,1.81,0.55,2.5,1.19c0.58,0.61,0.88,1.43,0.84,2.28
			c0.01,0.6-0.11,1.2-0.35,1.75c-0.24,0.53-0.59,0.99-1.03,1.36c-0.49,0.4-1.06,0.7-1.67,0.88c-0.73,0.22-1.49,0.32-2.25,0.31
			L71.39,15.27z M73.43,6.93h2.7c0.5,0.01,1.01-0.05,1.49-0.19c0.38-0.11,0.74-0.29,1.05-0.53c0.27-0.22,0.48-0.5,0.61-0.82
			c0.14-0.33,0.2-0.69,0.2-1.05c0.06-0.74-0.24-1.47-0.8-1.95c-0.74-0.47-1.61-0.69-2.49-0.62h-2.77L73.43,6.93z M73.43,8.39v5.26
			h3.27c0.51,0.01,1.01-0.06,1.5-0.2c0.38-0.11,0.73-0.3,1.03-0.56c0.27-0.23,0.47-0.53,0.6-0.86c0.13-0.35,0.19-0.72,0.19-1.1
			c0.03-0.71-0.28-1.4-0.83-1.85c-0.73-0.51-1.61-0.75-2.5-0.68L73.43,8.39z"/>
		<path id="Pfad_83504" class="st0" d="M94.33,0.17v1.66h-7.25v5.02h5.87v1.6h-5.87v5.15h7.25v1.67h-9.31V0.17L94.33,0.17z"/>
		<path id="Pfad_83505" class="st0" d="M99.31,13.55h6.53v1.72h-8.58V0.17h2.05V13.55z"/>
		<path id="Pfad_83506" class="st0" d="M110.14,13.55h6.53v1.72h-8.58V0.17h2.05V13.55z"/>
		<path id="Pfad_83507" class="st0" d="M121.36,15.27h-2.05V0.17h2.05V15.27z"/>
		<path id="Pfad_83508" class="st0" d="M126.87,0.24c0.12,0.07,0.22,0.17,0.3,0.28l8.75,11.38c-0.02-0.18-0.04-0.36-0.04-0.53
			s-0.01-0.34-0.01-0.5V0.16h1.79v15.1h-1.03c-0.14,0-0.28-0.02-0.41-0.08c-0.13-0.07-0.24-0.17-0.32-0.29l-8.73-11.37
			c0.01,0.18,0.02,0.35,0.03,0.52s0.01,0.32,0.01,0.46v10.76h-1.79V0.16h1.05C126.6,0.16,126.74,0.18,126.87,0.24z"/>
		<path id="Pfad_83509" class="st0" d="M148.07,13.79c0.37,0,0.75-0.02,1.12-0.06c0.33-0.04,0.65-0.09,0.96-0.17
			c0.29-0.07,0.58-0.17,0.85-0.28c0.27-0.11,0.53-0.23,0.8-0.37V9.57h-2.34c-0.12,0.01-0.23-0.03-0.32-0.11
			c-0.08-0.07-0.12-0.18-0.12-0.28V8.01h4.64v5.8c-0.38,0.27-0.77,0.51-1.19,0.72c-0.42,0.21-0.86,0.38-1.32,0.51
			c-0.49,0.14-0.99,0.24-1.5,0.3c-0.58,0.07-1.16,0.1-1.74,0.1c-1.03,0.01-2.05-0.18-3.01-0.56c-0.89-0.36-1.69-0.9-2.36-1.58
			c-0.68-0.7-1.2-1.53-1.55-2.44c-0.38-1-0.56-2.06-0.55-3.13c-0.01-1.07,0.17-2.14,0.54-3.15c0.68-1.86,2.13-3.32,3.98-4.02
			c1.02-0.38,2.11-0.57,3.2-0.56c0.56,0,1.11,0.04,1.66,0.13c0.49,0.08,0.97,0.21,1.43,0.38c0.43,0.16,0.83,0.36,1.22,0.6
			c0.37,0.23,0.72,0.5,1.05,0.8l-0.58,0.93c-0.09,0.17-0.27,0.28-0.46,0.29c-0.13-0.01-0.26-0.05-0.37-0.12
			c-0.18-0.1-0.37-0.22-0.59-0.36c-0.25-0.16-0.52-0.29-0.8-0.41c-0.36-0.14-0.73-0.26-1.11-0.33c-0.5-0.1-1-0.14-1.51-0.14
			c-0.79-0.01-1.57,0.13-2.31,0.42c-0.67,0.26-1.27,0.67-1.76,1.19c-0.5,0.54-0.88,1.18-1.12,1.88c-0.27,0.8-0.4,1.63-0.39,2.47
			c-0.01,0.87,0.12,1.73,0.41,2.56c0.25,0.71,0.64,1.35,1.14,1.9c0.49,0.52,1.09,0.92,1.75,1.19
			C146.55,13.65,147.31,13.8,148.07,13.79z"/>
		<path id="Pfad_83510" class="st0" d="M170.18,0.17v1.66h-7.25v5.28h6.2v1.66h-6.2v6.49h-2.06V0.17L170.18,0.17z"/>
		<path id="Pfad_83511" class="st0" d="M183.84,15.27h-1.58c-0.16,0.01-0.32-0.04-0.44-0.14c-0.11-0.09-0.2-0.21-0.25-0.35
			l-1.41-3.65h-6.78l-1.41,3.65c-0.05,0.13-0.14,0.25-0.26,0.34c-0.13,0.1-0.28,0.15-0.44,0.15h-1.58l6.04-15.1h2.08L183.84,15.27z
			 M173.95,9.66h5.64l-2.37-6.14c-0.18-0.46-0.33-0.94-0.45-1.42c-0.08,0.29-0.15,0.56-0.23,0.8s-0.14,0.45-0.21,0.64L173.95,9.66z"
			/>
		<path id="Pfad_83512" class="st0" d="M193.44,10.34c0.07,0.19,0.15,0.37,0.22,0.56c0.07-0.2,0.14-0.38,0.22-0.56
			s0.17-0.36,0.27-0.54l5.11-9.28c0.06-0.13,0.16-0.23,0.28-0.3c0.14-0.04,0.28-0.06,0.42-0.05h1.51v15.1h-1.79V4.17
			c0-0.15,0-0.3,0.01-0.47s0.02-0.34,0.03-0.52l-5.17,9.44c-0.13,0.29-0.42,0.47-0.74,0.47h-0.29c-0.32,0-0.61-0.18-0.74-0.47
			l-5.29-9.47c0.02,0.18,0.04,0.36,0.05,0.54s0.02,0.34,0.02,0.48v11.1h-1.79V0.17h1.51c0.14-0.01,0.29,0.01,0.42,0.05
			c0.13,0.06,0.23,0.17,0.28,0.3l5.22,9.3C193.28,9.98,193.36,10.16,193.44,10.34z"/>
		<path id="Pfad_83513" class="st0" d="M207.56,15.27h-2.04V0.17h2.04L207.56,15.27z"/>
		<path id="Pfad_83514" class="st0" d="M213.65,13.55h6.53v1.72h-8.58V0.17h2.05L213.65,13.55z"/>
		<path id="Pfad_83515" class="st0" d="M226.03,9.26v6.01h-2.04V9.26l-5.53-9.1h1.79c0.16-0.01,0.31,0.04,0.43,0.14
			c0.11,0.1,0.2,0.21,0.27,0.34l3.46,5.87c0.13,0.23,0.25,0.46,0.35,0.7c0.1,0.22,0.18,0.43,0.26,0.64
			c0.08-0.22,0.16-0.43,0.25-0.65c0.1-0.24,0.22-0.47,0.35-0.69l3.44-5.87c0.07-0.12,0.16-0.23,0.26-0.32
			c0.12-0.11,0.27-0.16,0.43-0.15h1.81L226.03,9.26z"/>
	</g>
	<g id="Gruppe_162628" transform="translate(1233 637.021)">
		<g id="Gruppe_162627" transform="translate(0 -0.002)">
			<path id="Pfad_83516" class="st0" d="M0,0.69h9.39v32.92h20.34v7.65H0V0.69z"/>
			<path id="Pfad_83517" class="st0" d="M63.06,2.2c2.77,1.46,5.04,3.72,6.5,6.49c1.62,3.21,2.42,6.78,2.32,10.38v22.2h-9.39v-9.73
				H43.93v9.73h-9.27v-22.2c-0.11-3.6,0.69-7.17,2.32-10.38c1.46-2.77,3.72-5.04,6.49-6.49C49.67-0.73,56.86-0.73,63.06,2.2
				L63.06,2.2z M62.48,23.99v-5.8c0-3.36-0.83-5.9-2.49-7.62c-3.88-3.44-9.72-3.44-13.59,0c-1.64,1.72-2.46,4.26-2.46,7.62v5.8
				H62.48z"/>
			<path id="Pfad_83518" class="st0" d="M113.95,4.55c2.7,3.03,4.05,7.35,4.06,12.95v23.76h-9.39V17.79c0-3.24-0.76-5.69-2.29-7.33
				c-1.66-1.7-3.97-2.59-6.34-2.46c-2.56-0.12-5.05,0.84-6.87,2.64c-1.72,1.76-2.58,4.36-2.58,7.8v22.83h-9.39V0.69h9.1v4.93
				c1.35-1.82,3.15-3.27,5.22-4.2c2.27-0.98,4.72-1.47,7.19-1.42C107.48,0,111.25,1.52,113.95,4.55z"/>
			<path id="Pfad_83519" class="st0" d="M154.69,20.34h8.58v20.92h-7.07v-2.43c-2.82,2.09-6.45,3.13-10.9,3.13
				c-3.59,0.04-7.13-0.8-10.32-2.43c-3.12-1.61-5.71-4.07-7.48-7.1c-3.74-6.91-3.71-15.26,0.09-22.14c1.9-3.21,4.66-5.83,7.97-7.57
				c3.54-1.85,7.48-2.78,11.47-2.72c3.31-0.04,6.6,0.57,9.68,1.8c2.81,1.14,5.31,2.92,7.3,5.22L158,12.58
				c-4.49-4.75-11.59-5.94-17.39-2.92c-1.98,1.07-3.61,2.69-4.69,4.66c-2.24,4.39-2.25,9.57-0.03,13.97
				c1.02,1.86,2.56,3.38,4.43,4.38c1.87,0.99,3.97,1.5,6.09,1.48c3.01,0.09,5.95-0.89,8.29-2.78V20.34z"/>
			<path id="Pfad_83520" class="st0" d="M199.38,20.34h8.58v20.92h-7.07v-2.43c-2.82,2.09-6.45,3.13-10.9,3.13
				c-3.59,0.04-7.13-0.8-10.32-2.43c-3.12-1.61-5.71-4.07-7.48-7.1c-3.74-6.91-3.71-15.26,0.08-22.14c1.9-3.21,4.66-5.83,7.97-7.57
				c3.54-1.85,7.48-2.78,11.48-2.72c3.31-0.04,6.6,0.57,9.68,1.8c2.81,1.14,5.31,2.92,7.3,5.22l-6.02,5.56
				c-4.49-4.75-11.59-5.94-17.39-2.92c-1.98,1.07-3.61,2.69-4.69,4.66c-2.24,4.38-2.25,9.57-0.03,13.97
				c1.02,1.86,2.56,3.38,4.43,4.38c1.87,0.99,3.97,1.5,6.08,1.48c3.01,0.09,5.95-0.89,8.29-2.78L199.38,20.34z"/>
			<path id="Pfad_83521" class="st0" d="M252.94,0.69v40.57h-9.1v-4.92c-2.78,3.75-6.88,5.62-12.29,5.62
				c-4.79,0-8.53-1.52-11.22-4.55c-2.69-3.03-4.03-7.35-4.03-12.96V0.69h9.39v23.48c0,3.25,0.76,5.69,2.29,7.33
				c1.62,1.69,3.89,2.59,6.23,2.47c2.53,0.11,4.99-0.84,6.78-2.64c1.7-1.76,2.55-4.36,2.55-7.8V0.69H252.94z"/>
			<path id="Pfad_83522" class="st0" d="M336.75,0.69v40.57h-9.39V24.63h-18.43v16.64h-9.39V0.69h9.39v16h18.43v-16H336.75z"/>
		</g>
		<path id="Pfad_83523" class="st0" d="M292.79,0.7h-33.1v9.39h11.85v31.17h9.39V10.09h11.85L292.79,0.7z"/>
	</g>
	<path id="Pfad_83524" class="st1" d="M1675.08,670.99h-7.97v-31.53c-0.01-13.07-10.6-23.66-23.67-23.67h-39.73
		c-2.45,0-4.43,1.98-4.43,4.43v74.45c0.01,13.07,10.6,23.66,23.67,23.67h52.13c13.08,0,23.68-10.6,23.68-23.68
		C1698.75,681.59,1688.15,670.99,1675.08,670.99L1675.08,670.99z M1608.13,694.67v-70.02h35.3c8.18,0.01,14.81,6.64,14.82,14.82
		v31.53h-33.59c-2.45,0-4.43,1.98-4.43,4.43c0,2.44,1.98,4.42,4.43,4.43c8.18,0,14.82,6.64,14.82,14.82
		c0,8.18-6.64,14.82-14.82,14.82l0,0h-1.71C1614.77,709.48,1608.14,702.85,1608.13,694.67z M1675.08,709.49h-31.97
		c0.24-0.29,0.41-0.63,0.63-0.93c0.33-0.45,0.64-0.91,0.94-1.38c0.47-0.76,0.9-1.56,1.29-2.37c0.23-0.49,0.47-0.97,0.67-1.47
		c0.35-0.92,0.65-1.87,0.88-2.83c0.12-0.46,0.27-0.9,0.36-1.36c1.36-6.82-0.39-13.89-4.77-19.29h31.97
		c8.18,0,14.82,6.64,14.82,14.82S1683.26,709.49,1675.08,709.49L1675.08,709.49z"/>
</g>
</svg>
