<svg xmlns="http://www.w3.org/2000/svg" width="29.008" height="29.114" viewBox="0 0 29.008 29.114">
  <g id="Group_162441" data-name="Group 162441" transform="translate(-82.082 106.194)">
    <path id="Path_83430" data-name="Path 83430" d="M94.992-77.081c-.175-.123-.348-.25-.526-.368a.534.534,0,0,0-.171-.057,3.292,3.292,0,0,1-.835-.2c-3.6-2.006-7.2-4.03-10.795-6.045a1.114,1.114,0,0,1-.582-1.083c.006-2.388,0-4.777,0-7.165q0-5.189,0-10.378a1.717,1.717,0,0,1,.063-.532,1,1,0,0,1,1.348-.576c.12.054.235.12.33.169.433-.417.867-.814,1.273-1.237a.647.647,0,0,1,.739-.2c.684.22,1.371.428,2.1.653,0-.448,0-.888,0-1.328,0-.114-.007-.228,0-.341a.421.421,0,0,1,.608-.383,13.4,13.4,0,0,1,7.93,7.455c.021.053.041.106.064.158.007.014.026.023.059.05.022-.043.044-.079.059-.118a12.821,12.821,0,0,1,5.977-6.611c.612-.339,1.26-.615,1.9-.9.433-.192.7,0,.7.479,0,.509,0,1.019,0,1.545.641-.2,1.253-.4,1.865-.59.117-.037.239-.062.357-.1a.51.51,0,0,1,.54.156c.438.433.884.858,1.344,1.3.07-.037.168-.091.268-.141a1,1,0,0,1,1.466.815c.008.094.008.189.008.284q0,6.213,0,12.425a1.887,1.887,0,0,1-.019.34.385.385,0,0,1-.4.338.39.39,0,0,1-.421-.344,2.082,2.082,0,0,1-.018-.368q0-6.1,0-12.2c0-.076,0-.152,0-.227-.005-.357-.068-.4-.377-.222q-2.592,1.454-5.183,2.911c-1.777,1-3.549,2.006-5.337,2.985a.707.707,0,0,0-.416.732q.019,8.587.01,17.174c0,.047,0,.095,0,.142,0,.358.068.4.375.228q2.148-1.2,4.293-2.4,3.175-1.782,6.35-3.562a.478.478,0,0,0,.288-.489c-.015-.663-.009-1.327,0-1.99.006-.374.308-.59.6-.419a.532.532,0,0,1,.235.376c.02.776.017,1.554,0,2.331a1.019,1.019,0,0,1-.621.883q-2.881,1.609-5.755,3.229-2.443,1.371-4.886,2.742a1.259,1.259,0,0,1-.964.244.18.18,0,0,0-.124.038c-.184.127-.364.259-.545.39Zm-.748-10.351h0c0-2.9,0-5.8.006-8.7a.527.527,0,0,0-.311-.535q-4.63-2.585-9.251-5.189c-.471-.265-.942-.529-1.415-.791-.26-.144-.326-.1-.335.2,0,.038,0,.076,0,.114q0,8.7-.006,17.4a.525.525,0,0,0,.315.529q5.3,2.962,10.59,5.939c.336.189.4.148.4-.242Q94.244-83.068,94.243-87.432Zm-9.661-15.462.387.22c3.133,1.759,6.271,3.51,9.394,5.285a2.688,2.688,0,0,0,1.53.21c-.061-.1-.1-.164-.14-.225a13.8,13.8,0,0,0-3.23-3.257c-.314-.232-.375-.455-.2-.686s.4-.248.714.01c.636.525,1.257,1.068,1.883,1.6.052.044.1.09.2.181a12.542,12.542,0,0,0-6.332-5.549c0,.376.012.742,0,1.107a.341.341,0,0,0,.246.379c.5.223,1,.464,1.486.714a.391.391,0,0,1,.168.557.407.407,0,0,1-.553.193c-.1-.04-.189-.089-.282-.136a22.182,22.182,0,0,0-3.934-1.553.422.422,0,0,0-.331.025C85.254-103.535,84.942-103.229,84.582-102.894Zm10.543,10.47v10.6h2.929v-10.6Zm13.468-10.47c-.332-.307-.639-.572-.923-.861a.346.346,0,0,0-.4-.1,21.9,21.9,0,0,0-5.685,2.555,14.446,14.446,0,0,0-4.136,3.853c-.055.078-.1.163-.147.238a2.464,2.464,0,0,0,1.867-.385c2.392-1.373,4.8-2.71,7.208-4.061Zm-4.209-2.209c-2.241.693-5.866,3.885-6.263,5.451.594-.5,1.2-1.056,1.856-1.558a20.065,20.065,0,0,1,4.169-2.42.405.405,0,0,0,.227-.259C104.4-104.284,104.384-104.682,104.384-105.1ZM95.1-95.2h2.973c0-.321.011-.623-.009-.922a.263.263,0,0,0-.183-.18q-1.292-.018-2.585,0c-.067,0-.182.128-.188.2C95.087-95.8,95.1-95.511,95.1-95.2Zm0,16.144c0,.323-.011.633.009.941a.267.267,0,0,0,.2.169q1.279.017,2.558,0a.267.267,0,0,0,.2-.169c.021-.308.009-.618.009-.941Zm2.96-15.253H95.117v1h2.944Zm0,13.368H95.119v1h2.944Z" fill="#b61f29"/>
    <path id="Path_83431" data-name="Path 83431" d="M320.133-2.516c0-.417.008-.834,0-1.25a.537.537,0,0,1,.3-.532q3.916-2.228,7.829-4.461a.435.435,0,0,1,.706.393c.008.871,0,1.743,0,2.614a.516.516,0,0,1-.288.483q-3.914,2.23-7.828,4.463c-.4.227-.712.034-.716-.431C320.13-1.663,320.133-2.09,320.133-2.516Zm7.977-5.132a.373.373,0,0,0-.076.006q-3.459,1.966-6.916,3.936c-.052.029-.121.09-.122.137-.009.551-.005,1.1-.005,1.7l1.085-.62q2.9-1.653,5.8-3.31c.094-.054.218-.162.222-.249C328.12-6.576,328.11-7.1,328.11-7.648Z" transform="translate(-219.962 -89.951)" fill="#b61f29"/>
    <path id="Path_83432" data-name="Path 83432" d="M267.327,108.824c0-.786,0-1.571,0-2.357,0-.113-.024-.26.035-.331a.694.694,0,0,1,.4-.277c.125-.005.264.16.384.264.033.028.03.108.03.164,0,1.685,0,3.37,0,5.055a.427.427,0,0,1-.433.462.436.436,0,0,1-.415-.453c-.006-.075,0-.151,0-.227Q267.326,109.974,267.327,108.824Z" transform="translate(-171.167 -195.942)" fill="#b61f29"/>
  </g>
</svg>
