<svg version="1.2" xmlns="http://www.w3.org/2000/svg" viewBox="0 0 16 8" width="16" height="8"><defs><clipPath clipPathUnits="userSpaceOnUse" id="cp1"><path d="m16 8h-15.52v-7.79h15.52z"/></clipPath></defs><style>.a{fill:#0d0d0c}</style><g clip-path="url(#cp1)"><path class="a" d="m16 4.2c-0.1 0.2-0.3 0.3-0.5 0.3q-6.8 0-13.6 0h-0.2q0.1 0.1 0.1 0.1l2.7 2.7q0.1 0 0.1 0.1 0.1 0.1 0.1 0.2 0 0.2-0.1 0.3-0.1 0.1-0.2 0.1-0.2 0-0.3-0.1 0-0.1-0.1-0.1l-3.3-3.4c-0.3-0.2-0.3-0.4 0-0.6l3.4-3.4q0-0.1 0.1-0.1 0-0.1 0.1-0.1 0.1 0 0.2 0 0 0.1 0.1 0.1 0.1 0 0.1 0.1 0 0.1 0 0.1 0 0.1 0 0.1 0 0.1 0 0.2-0.1 0-0.1 0 0 0 0 0 0 0.1 0 0.1-0.1 0-0.1 0l-2.7 2.7q0 0-0.1 0.1h0.2q6.8 0 13.6 0 0.1 0 0.2 0.1 0 0 0.1 0 0.1 0 0.1 0.1 0.1 0 0.1 0.1z"/></g></svg>