<svg xmlns="http://www.w3.org/2000/svg" xmlns:xlink="http://www.w3.org/1999/xlink" width="298.687" height="5.875" viewBox="0 0 298.687 5.875">
  <defs>
    <clipPath id="clip-path">
      <rect id="Rectangle_150598" data-name="Rectangle 150598" width="5.875" height="298.687" fill="#0047cc"/>
    </clipPath>
  </defs>
  <g id="Group_179001" data-name="Group 179001" transform="translate(298.687) rotate(90)">
    <g id="Group_179000" data-name="Group 179000" clip-path="url(#clip-path)">
      <path id="Path_120662" data-name="Path 120662" d="M1.992,7.828l1.92,6.457a1,1,0,0,0,1.24.665.97.97,0,0,0,.68-1.213L4.082,7.828,1.962.706A1,1,0,0,0,.722.041a.971.971,0,0,0-.68,1.213Zm0,19.565,1.92,6.457a1,1,0,0,0,1.24.665.97.97,0,0,0,.68-1.213l-1.75-5.909-2.12-7.121a1,1,0,0,0-1.24-.666.971.971,0,0,0-.68,1.213Zm-.031-16.9a1,1,0,0,0-1.24-.666A.975.975,0,0,0,.04,11.034L3.915,24.069a1,1,0,0,0,1.24.666.979.979,0,0,0,.681-1.213Zm.031,36.47,1.92,6.457a1,1,0,0,0,1.24.665.969.969,0,0,0,.68-1.213l-1.75-5.909-2.12-7.121a1,1,0,0,0-1.24-.665.97.97,0,0,0-.68,1.213ZM1.961,30.053a1,1,0,0,0-1.24-.666A.976.976,0,0,0,.04,30.6L3.915,43.634a1,1,0,0,0,1.24.666.978.978,0,0,0,.681-1.213Zm.031,36.471,1.92,6.456a1,1,0,0,0,1.24.666.97.97,0,0,0,.68-1.214l-1.75-5.908L1.962,59.4a1,1,0,0,0-1.24-.665.971.971,0,0,0-.68,1.213ZM1.961,49.618a1,1,0,0,0-1.24-.666A.976.976,0,0,0,.04,50.165L3.915,63.2a1,1,0,0,0,1.24.666.978.978,0,0,0,.681-1.213Zm.031,36.471,1.92,6.456a1,1,0,0,0,1.24.666A.97.97,0,0,0,5.832,92l-1.75-5.909-2.12-7.122A1,1,0,0,0,.722,78.3a.971.971,0,0,0-.68,1.213Zm-.031-16.9a1,1,0,0,0-1.24-.667A.977.977,0,0,0,.04,69.73L3.915,82.764a1,1,0,0,0,1.24.666.977.977,0,0,0,.681-1.212Zm0,19.565a1,1,0,0,0-1.24-.666A.975.975,0,0,0,.04,89.295l3.875,13.034a1,1,0,0,0,1.24.667.979.979,0,0,0,.681-1.213Zm.031,16.9,1.92,6.457a1,1,0,0,0,1.24.665.97.97,0,0,0,.68-1.213l-1.75-5.909-2.12-7.122a1,1,0,0,0-1.24-.665.971.971,0,0,0-.68,1.213Zm0,19.565,1.92,6.457a1,1,0,0,0,1.24.665.97.97,0,0,0,.68-1.213l-1.75-5.909L1.962,118.1a1,1,0,0,0-1.24-.666.972.972,0,0,0-.68,1.214Zm-.031-16.9a1,1,0,0,0-1.24-.666.976.976,0,0,0-.681,1.213l3.875,13.034a1,1,0,0,0,1.24.666.979.979,0,0,0,.681-1.213Zm.031,36.471,1.92,6.456a1,1,0,0,0,1.24.665.969.969,0,0,0,.68-1.213l-1.75-5.908-2.12-7.122A1,1,0,0,0,.722,137a.971.971,0,0,0-.68,1.213Zm-.031-16.906a1,1,0,0,0-1.24-.666.976.976,0,0,0-.681,1.213L3.915,141.46a1,1,0,0,0,1.24.666.978.978,0,0,0,.681-1.213Zm0,19.566a1,1,0,0,0-1.24-.667.977.977,0,0,0-.681,1.213l3.875,13.034a1,1,0,0,0,1.24.666.978.978,0,0,0,.681-1.212Zm.031,16.9,1.92,6.456a1,1,0,0,0,1.24.665.969.969,0,0,0,.68-1.213l-1.75-5.908-2.12-7.122a1,1,0,0,0-1.24-.665.971.971,0,0,0-.68,1.213Zm-.031,2.66a1,1,0,0,0-1.24-.667.977.977,0,0,0-.681,1.213L3.915,180.59a1,1,0,0,0,1.24.667.979.979,0,0,0,.681-1.213Zm.031,16.9,1.92,6.456a1,1,0,0,0,1.24.666.97.97,0,0,0,.68-1.213l-1.75-5.909-2.12-7.122a1,1,0,0,0-1.24-.665.971.971,0,0,0-.68,1.213Zm0,19.565,1.92,6.457a1,1,0,0,0,1.24.665.97.97,0,0,0,.68-1.213l-1.75-5.909-2.12-7.122a1,1,0,0,0-1.24-.665.971.971,0,0,0-.68,1.213Zm-.031-16.9a1,1,0,0,0-1.24-.666.975.975,0,0,0-.681,1.212l3.875,13.035a1,1,0,0,0,1.24.666.979.979,0,0,0,.681-1.213Zm.031,36.47,1.92,6.457a1,1,0,0,0,1.24.665.969.969,0,0,0,.68-1.213l-1.75-5.909-2.12-7.121a1,1,0,0,0-1.24-.666.971.971,0,0,0-.68,1.213Zm-.031-16.9a1,1,0,0,0-1.24-.666.976.976,0,0,0-.681,1.213l3.875,13.034a1,1,0,0,0,1.24.666.978.978,0,0,0,.681-1.213Zm0,19.565a1,1,0,0,0-1.24-.666.976.976,0,0,0-.681,1.213l3.875,13.034a1,1,0,0,0,1.24.666.978.978,0,0,0,.681-1.212Zm.031,16.906,1.92,6.456a1,1,0,0,0,1.24.665.969.969,0,0,0,.68-1.213l-1.75-5.908-2.12-7.122a1,1,0,0,0-1.24-.665.971.971,0,0,0-.68,1.213Zm-.031,2.66a1,1,0,0,0-1.24-.667.977.977,0,0,0-.681,1.213l3.875,13.034a1,1,0,0,0,1.24.667.979.979,0,0,0,.681-1.213Zm.031,16.9,1.92,6.456a1,1,0,0,0,1.24.666.97.97,0,0,0,.68-1.213l-1.75-5.909-2.12-7.122a1,1,0,0,0-1.24-.665.971.971,0,0,0-.68,1.213Zm-.031,2.66a1,1,0,0,0-1.24-.667.977.977,0,0,0-.681,1.213l3.875,13.034a1,1,0,0,0,1.24.667.979.979,0,0,0,.681-1.213Zm.031,16.9,1.92,6.457a1,1,0,0,0,1.24.665.97.97,0,0,0,.68-1.213l-1.75-5.909-2.12-7.122a1,1,0,0,0-1.24-.665.971.971,0,0,0-.68,1.213Zm-.031,2.66a1,1,0,0,0-1.24-.666.975.975,0,0,0-.681,1.212l3.875,13.035a1,1,0,0,0,1.24.666.978.978,0,0,0,.681-1.213Z" fill="#0047cc"/>
    </g>
  </g>
</svg>
