<svg id="Group_7287" data-name="Group 7287" xmlns="http://www.w3.org/2000/svg" width="21.123" height="21.154" viewBox="0 0 21.123 21.154">
  <path id="Path_65022" data-name="Path 65022" d="M17.047,39.286a2.081,2.081,0,0,0-1.509-.692,2.151,2.151,0,0,0-1.527.688L12.6,40.688c-.116-.062-.232-.121-.344-.179-.161-.08-.313-.156-.442-.237A15.334,15.334,0,0,1,8.14,36.925a9.046,9.046,0,0,1-1.205-1.9C7.3,34.688,7.64,34.34,7.971,34c.125-.125.25-.254.375-.379a2.048,2.048,0,0,0,0-3.09L7.127,29.317c-.138-.138-.281-.281-.415-.424-.268-.277-.549-.563-.839-.83a2.113,2.113,0,0,0-1.5-.656,2.187,2.187,0,0,0-1.518.656l-.009.009L1.332,29.6a3.266,3.266,0,0,0-.969,2.076,7.826,7.826,0,0,0,.571,3.313,19.223,19.223,0,0,0,3.415,5.7,21.01,21.01,0,0,0,7,5.478,10.9,10.9,0,0,0,3.929,1.161c.094,0,.192.009.281.009a3.364,3.364,0,0,0,2.576-1.107c0-.009.013-.013.018-.022a10.147,10.147,0,0,1,.781-.808c.192-.183.388-.375.58-.576a2.227,2.227,0,0,0,.674-1.545,2.146,2.146,0,0,0-.688-1.531Zm1.6,4.7s0,0,0,0c-.174.188-.353.357-.545.545a11.74,11.74,0,0,0-.862.893,2.152,2.152,0,0,1-1.679.71c-.067,0-.138,0-.205,0a9.683,9.683,0,0,1-3.482-1.045,19.832,19.832,0,0,1-6.59-5.161,18.125,18.125,0,0,1-3.215-5.353,6.375,6.375,0,0,1-.5-2.795,2.049,2.049,0,0,1,.616-1.326l1.522-1.522a1.015,1.015,0,0,1,.679-.317.955.955,0,0,1,.652.313l.013.013c.272.254.531.518.8.8.138.143.281.286.424.433L7.5,31.388a.852.852,0,0,1,0,1.384c-.129.129-.254.259-.384.384-.375.384-.732.741-1.121,1.089-.009.009-.018.013-.022.022a.911.911,0,0,0-.232,1.013l.013.04a9.785,9.785,0,0,0,1.442,2.353l0,0a16.387,16.387,0,0,0,3.965,3.607,6.1,6.1,0,0,0,.549.3c.161.08.313.156.442.237.018.009.036.022.054.031a.968.968,0,0,0,.442.112.955.955,0,0,0,.679-.308l1.527-1.527a1.01,1.01,0,0,1,.674-.335.909.909,0,0,1,.643.326l.009.009,2.46,2.46A.883.883,0,0,1,18.645,43.988Z" transform="translate(-0.345 -26.182)" fill="#fff"/>
  <path id="Path_65023" data-name="Path 65023" d="M245.44,87.121a5.746,5.746,0,0,1,4.679,4.679.6.6,0,0,0,.594.5.8.8,0,0,0,.1-.009.6.6,0,0,0,.5-.7,6.948,6.948,0,0,0-5.661-5.661.606.606,0,0,0-.7.491A.6.6,0,0,0,245.44,87.121Z" transform="translate(-234.023 -82.089)" fill="#fff"/>
  <path id="Path_65024" data-name="Path 65024" d="M258.8,9.331A11.44,11.44,0,0,0,249.475.009a.6.6,0,1,0-.2,1.188,10.219,10.219,0,0,1,8.331,8.331.6.6,0,0,0,.594.5.8.8,0,0,0,.1-.009A.592.592,0,0,0,258.8,9.331Z" transform="translate(-237.684 0)" fill="#fff"/>
</svg>
