<svg xmlns="http://www.w3.org/2000/svg" width="31.235" height="31.171" viewBox="0 0 31.235 31.171">
  <g id="Group_162444" data-name="Group 162444" transform="translate(-81 106.202)">
    <path id="Path_83443" data-name="Path 83443" d="M81-91.593c.08-.581.136-1.166.243-1.741a15.335,15.335,0,0,1,6.715-10.247,14.954,14.954,0,0,1,9.007-2.614,15.292,15.292,0,0,1,11.368,5.295,15.23,15.23,0,0,1,3.764,8.2c.052.369.093.741.139,1.111v1.948a1.741,1.741,0,0,0-.05.235,15,15,0,0,1-2.531,7.361,15.408,15.408,0,0,1-10.316,6.775c-.576.107-1.162.162-1.744.242H95.642a1.779,1.779,0,0,0-.234-.05,15.219,15.219,0,0,1-8.364-3.235,15.313,15.313,0,0,1-5.81-9.646c-.1-.557-.157-1.121-.233-1.682Zm15.622-13.576A14.578,14.578,0,0,0,82.04-90.641,14.58,14.58,0,0,0,96.609-76.069,14.6,14.6,0,0,0,111.2-90.631,14.577,14.577,0,0,0,96.622-105.169Z" fill="#fff"/>
    <path id="Path_83444" data-name="Path 83444" d="M115.8-67.644c.287.166.552.314.812.469a.529.529,0,0,1,.256.765.523.523,0,0,1-.771.138c-.133-.073-.264-.151-.4-.227l-.368-.209a10.831,10.831,0,0,0-1.365,4.97c.338,0,.68-.014,1.02,0a.486.486,0,0,1,.486.487.493.493,0,0,1-.442.528,2.3,2.3,0,0,1-.334.016c-.242,0-.483,0-.759,0a11.794,11.794,0,0,0,1.345,4.988c.285-.163.546-.314.809-.461a.525.525,0,0,1,.773.131.532.532,0,0,1-.25.767c-.252.152-.507.3-.76.448-.008,0-.012.016-.032.045a11.98,11.98,0,0,0,3.643,3.629c.166-.286.32-.559.482-.826a.524.524,0,0,1,.748-.235.512.512,0,0,1,.157.742c-.149.274-.309.543-.479.84a11.913,11.913,0,0,0,5,1.348c0-.322,0-.613,0-.9.007-.415.2-.639.533-.633s.5.223.509.626c.005.292,0,.583,0,.905a11.9,11.9,0,0,0,5-1.338c-.165-.289-.317-.55-.463-.814a.522.522,0,0,1,.162-.785.53.53,0,0,1,.739.269c.156.26.3.524.468.8a12.04,12.04,0,0,0,3.663-3.654c-.29-.168-.563-.321-.832-.483a.521.521,0,0,1-.231-.747.513.513,0,0,1,.744-.153c.274.149.543.308.812.461a11.191,11.191,0,0,0,1.363-4.973c-.317,0-.636,0-.956,0a.51.51,0,0,1-.559-.414.507.507,0,0,1,.53-.621c.322-.014.644,0,1,0a11.892,11.892,0,0,0-1.341-4.989c-.272.154-.531.3-.792.449-.345.192-.634.145-.8-.127s-.068-.568.287-.777c.252-.149.507-.294.776-.45a12.007,12.007,0,0,0-3.66-3.654c-.17.29-.323.564-.486.831a.522.522,0,0,1-.749.226.511.511,0,0,1-.149-.744c.145-.267.3-.53.445-.8,0-.007,0-.019-.009-.062a11.858,11.858,0,0,0-4.959-1.324c0,.332,0,.651,0,.97a.508.508,0,0,1-.418.555.5.5,0,0,1-.617-.5c-.018-.323,0-.647,0-1.014a11.946,11.946,0,0,0-5.005,1.328c.16.281.311.54.457.8.191.341.138.633-.139.792s-.564.061-.761-.272c-.15-.252-.3-.507-.465-.8-.3.211-.583.416-.873.612a.505.505,0,0,1-.648-.016.466.466,0,0,1-.143-.577.835.835,0,0,1,.277-.311A12.8,12.8,0,0,1,126-74.2a13,13,0,0,1,12.685,10.583,13.03,13.03,0,0,1-9.627,14.995,13,13,0,0,1-15.945-10.192,12.677,12.677,0,0,1,2.555-10.425.543.543,0,0,1,.789-.19c.262.192.273.5.032.83C116.26-68.291,116.036-67.978,115.8-67.644Z" transform="translate(-29.274 -29.395)" fill="#fff"/>
    <path id="Path_83445" data-name="Path 83445" d="M210.135,23.748c-.042.03-.073.042-.088.065a7.815,7.815,0,0,1-4.605,3.081.5.5,0,0,0-.446.457,2.56,2.56,0,0,1-2.566,2.083,2.6,2.6,0,0,1-2.53-2.248.36.36,0,0,0-.172-.235c-.413-.192-.85-.337-1.252-.549s-.771-.485-1.206-.764c0,.2,0,.378,0,.561-.008.4-.219.644-.542.633s-.5-.236-.5-.636c0-.619-.005-1.238,0-1.857,0-.427.191-.613.614-.616q.961-.006,1.921,0a.528.528,0,0,1,.583.524.538.538,0,0,1-.573.51c-.259.008-.519,0-.864,0a5.848,5.848,0,0,0,2.108,1.18,2.619,2.619,0,0,1,4.91.022,6.914,6.914,0,0,0,4.451-3.04c-.355.088-.647.161-.941.232-.4.1-.666-.038-.746-.364-.075-.307.107-.548.487-.642q.916-.229,1.832-.457c.469-.116.693.017.81.479q.234.928.463,1.858a.532.532,0,0,1-.374.714c-.293.071-.537-.107-.634-.463C210.229,24.106,210.184,23.934,210.135,23.748Zm-7.672,1.526a1.56,1.56,0,1,0,1.57,1.537A1.569,1.569,0,0,0,202.463,25.274Z" transform="translate(-105.853 -117.453)" fill="#fff"/>
    <path id="Path_83446" data-name="Path 83446" d="M207.9,146.5a7.232,7.232,0,0,1-3.257-.889,4.875,4.875,0,0,1-1.731-1.631,2.39,2.39,0,0,1-.208-.4.5.5,0,0,1,.261-.661.5.5,0,0,1,.658.211,4.715,4.715,0,0,0,4.069,2.308c.242.024.488.013.729.039a.5.5,0,0,1,.478.528.51.51,0,0,1-.512.5C208.225,146.505,208.062,146.5,207.9,146.5Z" transform="translate(-111.768 -228.805)" fill="#fff"/>
    <path id="Path_83447" data-name="Path 83447" d="M247.427-15.207c0-.334-.006-.667,0-1a.507.507,0,0,1,.493-.543.507.507,0,0,1,.539.53c.01.677.01,1.355,0,2.032a.522.522,0,0,1-.527.548.525.525,0,0,1-.507-.566C247.422-14.54,247.427-14.874,247.427-15.207Z" transform="translate(-152.888 -82.175)" fill="#fff"/>
    <path id="Path_83448" data-name="Path 83448" d="M286.781-15.195c0,.334.006.667,0,1a.522.522,0,0,1-.524.549.519.519,0,0,1-.509-.537q-.014-1.016,0-2.032a.511.511,0,0,1,.527-.543.513.513,0,0,1,.507.561C286.786-15.862,286.781-15.529,286.781-15.195Z" transform="translate(-188.085 -82.17)" fill="#fff"/>
  </g>
</svg>
