<svg id="Group_8059" data-name="Group 8059" xmlns="http://www.w3.org/2000/svg" width="24.654" height="16.436" viewBox="0 0 24.654 16.436">
  <path id="Path_65025" data-name="Path 65025" d="M23.39,85.333H1.264A1.268,1.268,0,0,0,0,86.6V100.5a1.268,1.268,0,0,0,1.264,1.264H23.39a1.268,1.268,0,0,0,1.264-1.264V86.6A1.268,1.268,0,0,0,23.39,85.333Zm-.474.948-9.861,7.4a1.322,1.322,0,0,1-1.455,0l-9.861-7.4Zm-5.267,7.884,5.373,6.638c.005.007.012.012.018.018H1.615c.006-.006.012-.011.018-.018l5.373-6.638a.474.474,0,0,0-.737-.6L.948,100.142V86.874l10.083,7.562a2.263,2.263,0,0,0,2.592,0l10.083-7.562v13.268l-5.321-6.573a.474.474,0,0,0-.737.6Z" transform="translate(0 -85.333)" fill="#fff"/>
</svg>
