<svg xmlns="http://www.w3.org/2000/svg" xmlns:xlink="http://www.w3.org/1999/xlink" width="392" height="451" viewBox="0 0 392 451">
  <defs>
    <clipPath id="clip-path">
      <rect id="Rectangle_149526" data-name="Rectangle 149526" width="392" height="451" transform="translate(0 1500)" fill="rgba(255,255,255,0)"/>
    </clipPath>
  </defs>
  <g id="Mask_Group_6" data-name="Mask Group 6" transform="translate(0 -1500)" clip-path="url(#clip-path)">
    <g id="Group_162605" data-name="Group 162605" transform="translate(-693.174 1497.193)" opacity="0.295">
      <g id="Group_162604" data-name="Group 162604" transform="translate(53.387 3.307)">
        <circle id="Ellipse_9621" data-name="Ellipse 9621" cx="10.389" cy="10.389" r="10.389" transform="matrix(0.973, -0.23, 0.23, 0.973, 47.034, 4.774)" fill="#8c8b8b"/>
        <circle id="Ellipse_9622" data-name="Ellipse 9622" cx="16.804" cy="16.804" r="16.804" transform="translate(0 54.157)" fill="#8c8b8b"/>
        <circle id="Ellipse_9623" data-name="Ellipse 9623" cx="12.897" cy="12.897" r="12.897" transform="matrix(0.383, -0.924, 0.924, 0.383, 50.258, 126.507)" fill="#8c8b8b"/>
        <circle id="Ellipse_9624" data-name="Ellipse 9624" cx="16.336" cy="16.336" r="16.336" transform="translate(19.249 159.792)" fill="#8c8b8b"/>
        <circle id="Ellipse_9625" data-name="Ellipse 9625" cx="18.668" cy="18.668" r="18.668" transform="translate(62.203 223.414) rotate(-45)" fill="#8c8b8b"/>
        <circle id="Ellipse_9626" data-name="Ellipse 9626" cx="16.482" cy="16.482" r="16.482" transform="translate(138.991 212.664)" fill="#8c8b8b"/>
        <circle id="Ellipse_9627" data-name="Ellipse 9627" cx="14.364" cy="14.364" r="14.364" transform="translate(168.813 158.66)" fill="#8c8b8b"/>
        <circle id="Ellipse_9628" data-name="Ellipse 9628" cx="10.813" cy="10.813" r="10.813" transform="translate(165.915 273.978)" fill="#8c8b8b"/>
        <circle id="Ellipse_9629" data-name="Ellipse 9629" cx="5.392" cy="5.392" r="5.392" transform="translate(222.921 188.451)" fill="#8c8b8b"/>
        <circle id="Ellipse_9630" data-name="Ellipse 9630" cx="3.973" cy="3.973" r="3.973" transform="translate(252.886 156.732) rotate(-9.217)" fill="#8c8b8b"/>
        <circle id="Ellipse_9631" data-name="Ellipse 9631" cx="3.973" cy="3.973" r="3.973" transform="translate(246.11 224.055) rotate(-9.217)" fill="#8c8b8b"/>
        <circle id="Ellipse_9632" data-name="Ellipse 9632" cx="16.141" cy="16.141" r="16.141" transform="translate(220.712 278.12) rotate(-9.217)" fill="#8c8b8b"/>
        <circle id="Ellipse_9633" data-name="Ellipse 9633" cx="13.867" cy="13.867" r="13.867" transform="translate(316.102 208.835) rotate(-45)" fill="#8c8b8b"/>
        <circle id="Ellipse_9634" data-name="Ellipse 9634" cx="8.044" cy="8.044" r="8.044" transform="translate(301.16 246.883)" fill="#8c8b8b"/>
        <circle id="Ellipse_9635" data-name="Ellipse 9635" cx="14.823" cy="14.823" r="14.823" transform="matrix(0.973, -0.23, 0.23, 0.973, 295.194, 138.348)" fill="#8c8b8b"/>
        <circle id="Ellipse_9636" data-name="Ellipse 9636" cx="18.224" cy="18.224" r="18.224" transform="translate(386.986 188.223)" fill="#8c8b8b"/>
        <circle id="Ellipse_9637" data-name="Ellipse 9637" cx="13.685" cy="13.685" r="13.685" transform="translate(433.622 108.531) rotate(-45)" fill="#8c8b8b"/>
        <circle id="Ellipse_9638" data-name="Ellipse 9638" cx="9.006" cy="9.006" r="9.006" transform="translate(375.188 27.401)" fill="#8c8b8b"/>
        <circle id="Ellipse_9639" data-name="Ellipse 9639" cx="5.74" cy="5.74" r="5.74" transform="matrix(0.973, -0.23, 0.23, 0.973, 390.902, 75.604)" fill="#8c8b8b"/>
        <circle id="Ellipse_9640" data-name="Ellipse 9640" cx="4.091" cy="4.091" r="4.091" transform="translate(436.148 145.541) rotate(-45)" fill="#8c8b8b"/>
        <circle id="Ellipse_9641" data-name="Ellipse 9641" cx="10.057" cy="10.057" r="10.057" transform="translate(439.214 184.717) rotate(-13.283)" fill="#8c8b8b"/>
        <circle id="Ellipse_9642" data-name="Ellipse 9642" cx="12.134" cy="12.134" r="12.134" transform="matrix(0.383, -0.924, 0.924, 0.383, 475.819, 64.066)" fill="#8c8b8b"/>
        <circle id="Ellipse_9643" data-name="Ellipse 9643" cx="16.025" cy="16.025" r="16.025" transform="translate(506.216 99.746)" fill="#8c8b8b"/>
        <circle id="Ellipse_9644" data-name="Ellipse 9644" cx="16.025" cy="16.025" r="16.025" transform="translate(558.757 164.228)" fill="#8c8b8b"/>
        <circle id="Ellipse_9645" data-name="Ellipse 9645" cx="18.147" cy="18.147" r="18.147" transform="translate(502.662 196.974)" fill="#8c8b8b"/>
        <circle id="Ellipse_9646" data-name="Ellipse 9646" cx="6.953" cy="6.953" r="6.953" transform="translate(560.665 140.104)" fill="#8c8b8b"/>
        <circle id="Ellipse_9647" data-name="Ellipse 9647" cx="9.919" cy="9.919" r="9.919" transform="matrix(0.973, -0.23, 0.23, 0.973, 572.163, 236.882)" fill="#8c8b8b"/>
        <circle id="Ellipse_9648" data-name="Ellipse 9648" cx="9.919" cy="9.919" r="9.919" transform="translate(626.69 166.261) rotate(-67.5)" fill="#8c8b8b"/>
        <circle id="Ellipse_9649" data-name="Ellipse 9649" cx="9.919" cy="9.919" r="9.919" transform="translate(652.102 109.88) rotate(-45)" fill="#8c8b8b"/>
        <circle id="Ellipse_9650" data-name="Ellipse 9650" cx="9.919" cy="9.919" r="9.919" transform="translate(672.172 188.273) rotate(-45)" fill="#8c8b8b"/>
        <circle id="Ellipse_9651" data-name="Ellipse 9651" cx="14.018" cy="14.018" r="14.018" transform="translate(634.928 66.419) rotate(-67.5)" fill="#8c8b8b"/>
        <circle id="Ellipse_9652" data-name="Ellipse 9652" cx="15.75" cy="15.75" r="15.75" transform="translate(754.515 238.915)" fill="#8c8b8b"/>
        <circle id="Ellipse_9653" data-name="Ellipse 9653" cx="15.75" cy="15.75" r="15.75" transform="translate(784.845 93.474)" fill="#8c8b8b"/>
        <circle id="Ellipse_9654" data-name="Ellipse 9654" cx="9.588" cy="9.588" r="9.588" transform="translate(744.437 137.369)" fill="#8c8b8b"/>
        <circle id="Ellipse_9655" data-name="Ellipse 9655" cx="7.847" cy="7.847" r="7.847" transform="translate(731.611 186.875)" fill="#8c8b8b"/>
        <circle id="Ellipse_9656" data-name="Ellipse 9656" cx="8.64" cy="8.64" r="8.64" transform="translate(793.628 225.01)" fill="#8c8b8b"/>
        <circle id="Ellipse_9657" data-name="Ellipse 9657" cx="7.306" cy="7.306" r="7.306" transform="translate(889.413 310.956) rotate(-9.217)" fill="#8c8b8b"/>
        <circle id="Ellipse_9658" data-name="Ellipse 9658" cx="7.306" cy="7.306" r="7.306" transform="translate(849.412 337.872)" fill="#8c8b8b"/>
        <circle id="Ellipse_9659" data-name="Ellipse 9659" cx="10.672" cy="10.672" r="10.672" transform="translate(905.136 211.587)" fill="#8c8b8b"/>
        <circle id="Ellipse_9660" data-name="Ellipse 9660" cx="9.999" cy="9.999" r="9.999" transform="translate(715.848 285.37)" fill="#8c8b8b"/>
        <circle id="Ellipse_9661" data-name="Ellipse 9661" cx="16.117" cy="16.117" r="16.117" transform="translate(763.226 305.283)" fill="#8c8b8b"/>
        <circle id="Ellipse_9662" data-name="Ellipse 9662" cx="14.172" cy="14.172" r="14.172" transform="translate(839.433 233.008) rotate(-13.283)" fill="#8c8b8b"/>
        <circle id="Ellipse_9663" data-name="Ellipse 9663" cx="14.172" cy="14.172" r="14.172" transform="translate(894.362 298.501) rotate(-76.718)" fill="#8c8b8b"/>
        <circle id="Ellipse_9664" data-name="Ellipse 9664" cx="10.625" cy="10.625" r="10.625" transform="translate(962.879 287.371)" fill="#8c8b8b"/>
        <circle id="Ellipse_9665" data-name="Ellipse 9665" cx="9.877" cy="9.877" r="9.877" transform="translate(1005.976 276.846) rotate(-67.5)" fill="#8c8b8b"/>
        <circle id="Ellipse_9666" data-name="Ellipse 9666" cx="7.263" cy="7.263" r="7.263" transform="translate(990.601 345.197)" fill="#8c8b8b"/>
        <circle id="Ellipse_9667" data-name="Ellipse 9667" cx="14.574" cy="14.574" r="14.574" transform="translate(973.739 389.233)" fill="#8c8b8b"/>
        <circle id="Ellipse_9668" data-name="Ellipse 9668" cx="17.014" cy="17.014" r="17.014" transform="translate(919.952 415.451)" fill="#8c8b8b"/>
        <circle id="Ellipse_9669" data-name="Ellipse 9669" cx="18.785" cy="18.785" r="18.785" transform="matrix(0.973, -0.23, 0.23, 0.973, 857.767, 378.855)" fill="#8c8b8b"/>
        <circle id="Ellipse_9670" data-name="Ellipse 9670" cx="9.159" cy="9.159" r="9.159" transform="translate(332.138 91.772) rotate(-9.217)" fill="#8c8b8b"/>
      </g>
      <path id="Path_83665" data-name="Path 83665" d="M127,38.461,93.8,84.315l4.06,14.329,38.689,37.017-2.388,11.7L110.04,186.052s4.777,19.822,5.493,19.584,36.062,31.285,36.062,31.285l23.166,6.687,40.122,2.627,18.15-10.747,15.046-32.718,15.762-9.314L297.514,212.8l3.582-.239,26.509-31.524" transform="translate(-18.496 -16.089)" fill="none" stroke="#8c8b8b" stroke-miterlimit="10" stroke-width="3"/>
      <line id="Line_663" data-name="Line 663" x2="21.455" y2="31.786" transform="translate(282.6 198.86)" fill="none" stroke="#8c8b8b" stroke-miterlimit="10" stroke-width="3"/>
      <path id="Path_83666" data-name="Path 83666" d="M350.094,277.845l10.986,36.778,12.18,8.6L418.4,326.8l23.643-5.732,56.348-30.423,21.985-39.074-2.149-16.956-17.673-44.9,6.687-16.24,22.927-39.167,55.645-18.867v-4.3L574.824,74.131" transform="translate(-135.796 -32.415)" fill="none" stroke="#8c8b8b" stroke-miterlimit="10" stroke-width="3"/>
      <line id="Line_664" data-name="Line 664" y1="1.433" x2="49.436" transform="translate(396.04 210.562)" fill="none" stroke="#8c8b8b" stroke-miterlimit="10" stroke-width="3"/>
      <path id="Path_83667" data-name="Path 83667" d="M791.34,132.4l42.988,22.688,14.807-5.254,32-41.794" transform="translate(-337.745 -47.934)" fill="none" stroke="#8c8b8b" stroke-miterlimit="10" stroke-width="3"/>
      <path id="Path_83668" data-name="Path 83668" d="M873.382,222.094l-4.537,24.36,6.687,43.7" transform="translate(-373.217 -100.134)" fill="none" stroke="#8c8b8b" stroke-miterlimit="10" stroke-width="3"/>
      <path id="Path_83669" data-name="Path 83669" d="M907.157,202.718c.716,0,59.943,7.642,59.943,7.642l6.687,3.582,36.062,24.359,4.06,7.165,1.433,18.628-5.731,15.523-37.017,25.315" transform="translate(-390.751 -91.266)" fill="none" stroke="#8c8b8b" stroke-miterlimit="10" stroke-width="3"/>
      <line id="Line_665" data-name="Line 665" x2="7.403" y2="50.391" transform="translate(629.368 195.278)" fill="none" stroke="#8c8b8b" stroke-miterlimit="10" stroke-width="3"/>
      <path id="Path_83670" data-name="Path 83670" d="M1137.028,232.391l48.481-13.135,7.165-7.165,23.643-41.794-11.7-47.286" transform="translate(-495.958 -54.786)" fill="none" stroke="#8c8b8b" stroke-miterlimit="10" stroke-width="3"/>
      <path id="Path_83671" data-name="Path 83671" d="M1242.716,261.8l40.122,22.21,49.2,8.836,7.4-4.776,10.031-37.495,4.06-9.553,41.316-28.181" transform="translate(-544.329 -95.901)" fill="none" stroke="#8c8b8b" stroke-miterlimit="10" stroke-width="3"/>
      <path id="Path_83672" data-name="Path 83672" d="M1410.419,371.818l27.225,46.57-11.7,14.09-28.659,32.48" transform="translate(-615.071 -168.659)" fill="none" stroke="#8c8b8b" stroke-miterlimit="10" stroke-width="3"/>
      <line id="Line_666" data-name="Line 666" x2="4.06" y2="43.227" transform="translate(826.633 270.506)" fill="none" stroke="#8c8b8b" stroke-miterlimit="10" stroke-width="3"/>
      <path id="Path_83673" data-name="Path 83673" d="M1487.118,446.291l21.972-10.747,7.165-1.194,42.032,7.642,14.807,7.165,41.077,32.241v16.717l-4.3,15.046-5.254,6.687L1568.8,543.73" transform="translate(-656.186 -197.279)" fill="none" stroke="#8c8b8b" stroke-miterlimit="10" stroke-width="3"/>
      <line id="Line_667" data-name="Line 667" y1="52.063" x2="6.926" transform="translate(962.761 227.519)" fill="none" stroke="#8c8b8b" stroke-miterlimit="10" stroke-width="3"/>
      <path id="Path_83674" data-name="Path 83674" d="M1755.3,520.683l46.332,6.448,7.881-1.672,44.659-21.972" transform="translate(-778.927 -228.922)" fill="none" stroke="#8c8b8b" stroke-miterlimit="10" stroke-width="3"/>
      <path id="Path_83675" data-name="Path 83675" d="M1772.587,567.341l23.643,44.421-7.4,44.182L1777.6,671.706l-32.48,19.344-18.867-1.194-45.376-32.718" transform="translate(-744.867 -258.146)" fill="none" stroke="#8c8b8b" stroke-miterlimit="10" stroke-width="3"/>
    </g>
  </g>
</svg>
