<svg xmlns="http://www.w3.org/2000/svg" xmlns:xlink="http://www.w3.org/1999/xlink" width="163.134" height="99.943" viewBox="0 0 163.134 99.943">
  <defs>
    <clipPath id="clip-path">
      <path id="Clip_10" data-name="Clip 10" d="M0,99.943H163.134V0H0Z" fill="none"/>
    </clipPath>
  </defs>
  <g id="logo_1" transform="translate(0 -1)">
    <g id="logo" transform="translate(0 1)">
      <path id="Fill_1" data-name="Fill 1" d="M4.793,8.777a6.474,6.474,0,0,1,.878-3.832A3.322,3.322,0,0,1,8.506,3.781a2.616,2.616,0,0,1,2.4,1.063,6.123,6.123,0,0,1,.675,3.224v9.857h4.794V7.19a14.091,14.091,0,0,0-.287-2.954,5.632,5.632,0,0,0-1-2.262A4.681,4.681,0,0,0,13.148.524,8.142,8.142,0,0,0,9.992,0,6.844,6.844,0,0,0,7.021.692,5.5,5.5,0,0,0,4.658,2.9h-.1V.473H0V17.925H4.793Z" transform="translate(69.508 33.453)" fill="#b4b4b4"/>
      <path id="Fill_3" data-name="Fill 3" d="M8.912,18.365A10,10,0,0,1,5.2,17.706a7.739,7.739,0,0,1-2.8-1.873,8.468,8.468,0,0,1-1.773-2.9A10.663,10.663,0,0,1,0,9.217,10.229,10.229,0,0,1,.642,5.57,8.444,8.444,0,0,1,5.283.709,9.089,9.089,0,0,1,8.912,0a8.338,8.338,0,0,1,3.883.861,7.779,7.779,0,0,1,2.717,2.312,9.587,9.587,0,0,1,1.537,3.308,12.431,12.431,0,0,1,.337,3.882H4.793a4.866,4.866,0,0,0,1.183,3.376,4.3,4.3,0,0,0,3.106,1.047,4.283,4.283,0,0,0,2.5-.726,3.018,3.018,0,0,0,1.282-1.535h4.219a8.045,8.045,0,0,1-3.105,4.489A9.182,9.182,0,0,1,8.912,18.365ZM8.778,3.612A4.2,4.2,0,0,0,6.87,4a3.663,3.663,0,0,0-1.215.962,3.544,3.544,0,0,0-.642,1.215,5.446,5.446,0,0,0-.22,1.148h7.8a5.578,5.578,0,0,0-1.2-2.767A3.385,3.385,0,0,0,8.778,3.612Z" transform="translate(86.487 33.453)" fill="#b4b4b4"/>
      <path id="Fill_5" data-name="Fill 5" d="M27.074,0H22.146L18.939,11.815h-.068L15.9,0H11.242l-2.9,11.849H8.271L5.064,0H0L5.537,17.452H10.5L13.47,5.739h.067l3.106,11.713h4.929Z" transform="translate(102.892 33.926)" fill="#b4b4b4"/>
      <path id="Fill_7" data-name="Fill 7" d="M.878,7.545A4.082,4.082,0,0,0,2.127,8.861,6.931,6.931,0,0,0,3.9,9.705q1,.322,2.043.557a28.686,28.686,0,0,1,4,1.08q1.434.54,1.434,1.62a1.773,1.773,0,0,1-.3,1.064,2.3,2.3,0,0,1-.76.675,3.6,3.6,0,0,1-1.013.371,5.1,5.1,0,0,1-1.063.118,5.475,5.475,0,0,1-1.368-.168A3.559,3.559,0,0,1,5.7,14.5a2.8,2.8,0,0,1-.827-.911,2.625,2.625,0,0,1-.32-1.333H0a5.861,5.861,0,0,0,.793,2.92A5.8,5.8,0,0,0,2.65,17.048,7.826,7.826,0,0,0,5.232,18.06a14.408,14.408,0,0,0,2.971.3,14.877,14.877,0,0,0,2.92-.287,7.41,7.41,0,0,0,2.548-1,5.3,5.3,0,0,0,2.5-4.76,4.068,4.068,0,0,0-.473-2.043,4.345,4.345,0,0,0-1.249-1.384A6.78,6.78,0,0,0,12.676,8a20.471,20.471,0,0,0-2.043-.573q-1.012-.236-1.992-.439A15.453,15.453,0,0,1,6.9,6.532a3.636,3.636,0,0,1-1.232-.658A1.314,1.314,0,0,1,5.2,4.827a1.3,1.3,0,0,1,.27-.861,1.776,1.776,0,0,1,.658-.489,2.942,2.942,0,0,1,.861-.22,8.263,8.263,0,0,1,.878-.05,4.8,4.8,0,0,1,2.228.489A2.1,2.1,0,0,1,11.14,5.57H15.7a5.742,5.742,0,0,0-.827-2.684,5.472,5.472,0,0,0-1.738-1.7A7.3,7.3,0,0,0,10.752.27,13.815,13.815,0,0,0,8,0,15.033,15.033,0,0,0,5.232.253,7.625,7.625,0,0,0,2.8,1.131,4.856,4.856,0,0,0,1.064,2.836,5.253,5.253,0,0,0,.405,5.6,3.726,3.726,0,0,0,.878,7.545" transform="translate(128.954 33.453)" fill="#b4b4b4"/>
      <path id="Clip_10-2" data-name="Clip 10" d="M0,99.943H163.134V0H0Z" transform="translate(0 0)" fill="none"/>
      <g id="logo-2" data-name="logo" transform="translate(0 0)" clip-path="url(#clip-path)">
        <path id="Fill_9" data-name="Fill 9" d="M0,2.362H2.408V0H0Z" transform="translate(66.319 67.502)" fill="#b4b4b4"/>
        <path id="Fill_11" data-name="Fill 11" d="M8.527,10.315a2.62,2.62,0,0,1-1.977.718,2.523,2.523,0,0,1-1.411-.378,2.8,2.8,0,0,1-.919-.969,4.419,4.419,0,0,1-.491-1.322,7.041,7.041,0,0,1-.152-1.436,7.343,7.343,0,0,1,.152-1.474,4.358,4.358,0,0,1,.515-1.361,3.107,3.107,0,0,1,.945-1.008,2.514,2.514,0,0,1,1.436-.39A2.4,2.4,0,0,1,9.27,4.937h3.5a4.894,4.894,0,0,0-.6-2.178,4.93,4.93,0,0,0-1.373-1.537A5.961,5.961,0,0,0,8.88.3,8.172,8.172,0,0,0,6.65,0,7.1,7.1,0,0,0,3.829.529,5.93,5.93,0,0,0,1.738,2a6.3,6.3,0,0,0-1.3,2.242A8.664,8.664,0,0,0,0,7.053,7.3,7.3,0,0,0,.478,9.736a6.24,6.24,0,0,0,1.336,2.1,5.96,5.96,0,0,0,2.078,1.373,7.143,7.143,0,0,0,2.683.49,6.506,6.506,0,0,0,4.257-1.36,5.9,5.9,0,0,0,2.015-3.954H9.4a3.393,3.393,0,0,1-.869,1.926" transform="translate(68.727 56.73)" fill="#b4b4b4"/>
        <path id="Fill_12" data-name="Fill 12" d="M6.726,13.7a7.666,7.666,0,0,1-2.772-.478,5.969,5.969,0,0,1-2.115-1.373A6.145,6.145,0,0,1,.478,9.7,7.949,7.949,0,0,1,0,6.876,8.038,8.038,0,0,1,.478,4.043,5.959,5.959,0,0,1,3.954.491,7.478,7.478,0,0,1,6.726,0,7.572,7.572,0,0,1,9.509.491,5.932,5.932,0,0,1,13,4.043a8.037,8.037,0,0,1,.479,2.833A7.948,7.948,0,0,1,13,9.7a6.155,6.155,0,0,1-1.361,2.153,5.95,5.95,0,0,1-2.128,1.373A7.763,7.763,0,0,1,6.726,13.7Zm0-11.008a2.9,2.9,0,0,0-1.511.365,2.926,2.926,0,0,0-.971.945A3.942,3.942,0,0,0,3.729,5.34a7.784,7.784,0,0,0-.151,1.536A7.593,7.593,0,0,0,3.729,8.4a4.082,4.082,0,0,0,.515,1.335,2.763,2.763,0,0,0,.971.945,2.976,2.976,0,0,0,1.511.353,3.05,3.05,0,0,0,1.524-.353,2.732,2.732,0,0,0,.983-.945A4.085,4.085,0,0,0,9.749,8.4,7.658,7.658,0,0,0,9.9,6.876a7.851,7.851,0,0,0-.15-1.536,3.945,3.945,0,0,0-.517-1.335,2.889,2.889,0,0,0-.983-.945A2.968,2.968,0,0,0,6.726,2.695Z" transform="translate(81.548 56.73)" fill="#b4b4b4"/>
        <path id="Fill_13" data-name="Fill 13" d="M18.565,1.058A3.865,3.865,0,0,0,17.054.252,6.992,6.992,0,0,0,15.139,0a4.186,4.186,0,0,0-2.355.655A5.553,5.553,0,0,0,11.21,2.166,3.172,3.172,0,0,0,9.66.478,5.252,5.252,0,0,0,7.405,0,4.61,4.61,0,0,0,5.126.554a5.087,5.087,0,0,0-1.7,1.562h-.05V.353H0V13.375H3.577V5.819a3.685,3.685,0,0,1,.276-1.55,2.512,2.512,0,0,1,.668-.907,2.214,2.214,0,0,1,.807-.428A2.687,2.687,0,0,1,6,2.822a2.371,2.371,0,0,1,1.3.29,1.6,1.6,0,0,1,.63.768,3.24,3.24,0,0,1,.214,1.045q.024.568.025,1.146v7.3h3.577V6.121a7.97,7.97,0,0,1,.089-1.2,3,3,0,0,1,.353-1.057,2.084,2.084,0,0,1,.73-.755,2.284,2.284,0,0,1,1.222-.29,2.414,2.414,0,0,1,1.2.252,1.683,1.683,0,0,1,.668.68,2.618,2.618,0,0,1,.276,1.008q.051.58.05,1.235v7.38H19.9V4.66a5.894,5.894,0,0,0-.353-2.154,3.708,3.708,0,0,0-.982-1.448" transform="translate(95.806 56.73)" fill="#b4b4b4"/>
        <path id="Fill_14" data-name="Fill 14" d="M0,2.335H2.38V0H0Z" transform="translate(116.636 67.769)" fill="#b4b4b4"/>
        <path id="Fill_15" data-name="Fill 15" d="M4.433,13.7a6.436,6.436,0,0,1-1.739-.227,4,4,0,0,1-1.41-.706,3.278,3.278,0,0,1-.944-1.21A4.1,4.1,0,0,1,0,9.824,3.8,3.8,0,0,1,.391,8,3.285,3.285,0,0,1,1.4,6.852a4.582,4.582,0,0,1,1.411-.643,15.177,15.177,0,0,1,1.6-.339c.527-.083,1.061-.151,1.588-.2A9.7,9.7,0,0,0,7.38,5.441,2.44,2.44,0,0,0,8.338,5a.972.972,0,0,0,.328-.843,1.907,1.907,0,0,0-.189-.92,1.407,1.407,0,0,0-.5-.53,1.99,1.99,0,0,0-.73-.25,5.977,5.977,0,0,0-.9-.063,2.727,2.727,0,0,0-1.662.453,2.028,2.028,0,0,0-.7,1.511H.4a4.17,4.17,0,0,1,.631-2.091A4.325,4.325,0,0,1,2.443.932,6.219,6.219,0,0,1,4.37.214,10.975,10.975,0,0,1,6.523,0,14.8,14.8,0,0,1,8.515.139,6.147,6.147,0,0,1,10.353.68a3.627,3.627,0,0,1,1.36,1.12,3.143,3.143,0,0,1,.529,1.9v6.775a13.788,13.788,0,0,0,.1,1.688,3.04,3.04,0,0,0,.353,1.208H9.068a4.914,4.914,0,0,1-.164-.616,5.389,5.389,0,0,1-.089-.642A4.676,4.676,0,0,1,6.8,13.351,8.127,8.127,0,0,1,4.433,13.7ZM8.665,7a1.576,1.576,0,0,1-.568.314,5.412,5.412,0,0,1-.73.189c-.27.052-.546.1-.818.127s-.565.075-.856.126a6.466,6.466,0,0,0-.794.2,2.373,2.373,0,0,0-.68.34,1.634,1.634,0,0,0-.466.542,1.759,1.759,0,0,0-.176.832,1.692,1.692,0,0,0,.176.806A1.36,1.36,0,0,0,4.232,11a2.034,2.034,0,0,0,.7.265,4.6,4.6,0,0,0,.832.075,3.174,3.174,0,0,0,1.637-.353,2.369,2.369,0,0,0,.856-.843,2.72,2.72,0,0,0,.34-.994,6.948,6.948,0,0,0,.063-.807Z" transform="translate(119.604 56.729)" fill="#b4b4b4"/>
        <path id="Fill_16" data-name="Fill 16" d="M8.639,0V6.827a4.836,4.836,0,0,1-.655,2.859,2.48,2.48,0,0,1-2.117.869A1.951,1.951,0,0,1,4.08,9.761a4.557,4.557,0,0,1-.5-2.405V0H0V8.01a10.5,10.5,0,0,0,.213,2.2A4.2,4.2,0,0,0,.956,11.9,3.407,3.407,0,0,0,2.4,12.973a6.265,6.265,0,0,0,2.355.378,5.209,5.209,0,0,0,2.217-.5A4.021,4.021,0,0,0,8.739,11.21h.076v1.813h3.4V0Z" transform="translate(132.98 57.082)" fill="#b4b4b4"/>
        <path id="Fill_17" data-name="Fill 17" d="M6.168,0H1.218A1.221,1.221,0,0,0,0,1.217v5.31A1.221,1.221,0,0,0,1.218,7.744h4.95A1.22,1.22,0,0,0,7.385,6.527V1.217A1.22,1.22,0,0,0,6.168,0" transform="translate(35.141 29.075)" fill="#b4b4b4"/>
        <path id="Fill_18" data-name="Fill 18" d="M6.168,0H1.218A1.221,1.221,0,0,0,0,1.217v5.31A1.221,1.221,0,0,0,1.218,7.744h4.95A1.22,1.22,0,0,0,7.385,6.527V1.217A1.22,1.22,0,0,0,6.168,0" transform="translate(35.141 63.123)" fill="#b4b4b4"/>
        <path id="Fill_19" data-name="Fill 19" d="M7.744,6.168V1.217A1.221,1.221,0,0,0,6.527,0H1.217A1.221,1.221,0,0,0,0,1.217v4.95A1.221,1.221,0,0,0,1.217,7.385h5.31A1.221,1.221,0,0,0,7.744,6.168" transform="translate(17.937 47.677)" fill="#b4b4b4"/>
        <path id="Fill_20" data-name="Fill 20" d="M6.527,0H1.218A1.221,1.221,0,0,0,0,1.217v4.95A1.221,1.221,0,0,0,1.218,7.385H6.527A1.22,1.22,0,0,0,7.744,6.168V1.217A1.22,1.22,0,0,0,6.527,0" transform="translate(51.985 47.676)" fill="#b4b4b4"/>
        <path id="Fill_21" data-name="Fill 21" d="M5.831.355a1.221,1.221,0,0,0-1.722,0L.355,4.109a1.221,1.221,0,0,0,0,1.722l3.5,3.5a1.222,1.222,0,0,0,1.722,0L9.331,5.577a1.221,1.221,0,0,0,0-1.722Z" transform="translate(21.952 57.865)" fill="#b4b4b4"/>
        <path id="Fill_22" data-name="Fill 22" d="M3.855,9.331a1.22,1.22,0,0,0,1.722,0L9.331,5.577a1.22,1.22,0,0,0,0-1.722l-3.5-3.5a1.222,1.222,0,0,0-1.722,0L.355,4.109a1.221,1.221,0,0,0,0,1.722Z" transform="translate(46.028 33.789)" fill="#b4b4b4"/>
        <path id="Fill_23" data-name="Fill 23" d="M5.577.355a1.221,1.221,0,0,0-1.722,0l-3.5,3.5a1.221,1.221,0,0,0,0,1.722L4.108,9.331a1.221,1.221,0,0,0,1.722,0l3.5-3.5a1.22,1.22,0,0,0,0-1.722Z" transform="translate(46.028 57.865)" fill="#b4b4b4"/>
        <path id="Fill_24" data-name="Fill 24" d="M5.577.355a1.221,1.221,0,0,0-1.722,0l-3.5,3.5a1.221,1.221,0,0,0,0,1.721L4.108,9.331a1.22,1.22,0,0,0,1.722,0l3.5-3.5a1.221,1.221,0,0,0,0-1.722Z" transform="translate(21.953 33.789)" fill="#b4b4b4"/>
        <path id="Stroke_25" data-name="Stroke 25" d="M0,99.306H162.5V0H0Z" transform="translate(0.318 0.318)" fill="none"/>
      </g>
    </g>
  </g>
</svg>
