<svg xmlns="http://www.w3.org/2000/svg" width="27.723" height="32.675" viewBox="0 0 27.723 32.675">
  <g id="Group_177535" data-name="Group 177535" transform="translate(752.596 -1661.242)">
    <path id="Path_117596" data-name="Path 117596" d="M-693.181,1692.063a.559.559,0,0,1-.555-.56v-4.379a.56.56,0,0,1,.555-.56.561.561,0,0,1,.563.56v4.379A.561.561,0,0,1-693.181,1692.063Z" transform="translate(-33.247 -14.303)" fill="#527e53" fill-rule="evenodd"/>
    <path id="Path_117597" data-name="Path 117597" d="M-706.234,1693.071a.577.577,0,0,1-.569-.554l-.047-4.532a.556.556,0,0,1,.55-.56h0a.554.554,0,0,1,.568.55l.047,4.531a.559.559,0,0,1-.55.564Z" transform="translate(-25.84 -14.789)" fill="#527e53" fill-rule="evenodd"/>
    <path id="Path_117598" data-name="Path 117598" d="M-718.51,1691.833a.558.558,0,0,1-.55-.555v-4.436a.558.558,0,0,1,.55-.56.561.561,0,0,1,.564.56v4.436A.561.561,0,0,1-718.51,1691.833Z" transform="translate(-18.943 -14.144)" fill="#527e53" fill-rule="evenodd"/>
    <path id="Path_117599" data-name="Path 117599" d="M-729.584,1688.363a.561.561,0,0,1-.564-.559v-4.251a.561.561,0,0,1,.564-.56.559.559,0,0,1,.55.56v4.251A.559.559,0,0,1-729.584,1688.363Z" transform="translate(-12.68 -12.286)" fill="#527e53" fill-rule="evenodd"/>
    <path id="Path_117600" data-name="Path 117600" d="M-737.158,1682.857a.558.558,0,0,1-.55-.559v-4.247a.559.559,0,0,1,.55-.559.563.563,0,0,1,.569.559v4.247A.562.562,0,0,1-737.158,1682.857Z" transform="translate(-8.41 -9.179)" fill="#527e53" fill-rule="evenodd"/>
    <path id="Path_117601" data-name="Path 117601" d="M-693.181,1681.646a.555.555,0,0,1-.555-.554v-4.38a.559.559,0,0,1,.555-.559.561.561,0,0,1,.563.559v4.38A.557.557,0,0,1-693.181,1681.646Z" transform="translate(-33.247 -8.422)" fill="#527e53" fill-rule="evenodd"/>
    <path id="Path_117602" data-name="Path 117602" d="M-706.234,1682.653a.577.577,0,0,1-.569-.555l-.047-4.526a.563.563,0,0,1,.55-.568h0a.558.558,0,0,1,.568.554l.047,4.531a.556.556,0,0,1-.55.564Z" transform="translate(-25.84 -8.902)" fill="#527e53" fill-rule="evenodd"/>
    <path id="Path_117603" data-name="Path 117603" d="M-718.51,1681.42a.554.554,0,0,1-.55-.554v-4.436a.558.558,0,0,1,.55-.559.561.561,0,0,1,.564.559v4.436A.557.557,0,0,1-718.51,1681.42Z" transform="translate(-18.943 -8.262)" fill="#527e53" fill-rule="evenodd"/>
    <path id="Path_117604" data-name="Path 117604" d="M-729.584,1677.95a.561.561,0,0,1-.564-.56v-4.252a.561.561,0,0,1,.564-.56.559.559,0,0,1,.55.56v4.252A.559.559,0,0,1-729.584,1677.95Z" transform="translate(-12.68 -6.403)" fill="#527e53" fill-rule="evenodd"/>
    <path id="Path_117605" data-name="Path 117605" d="M-706.234,1672.245a.576.576,0,0,1-.569-.55l-.047-4.531a.553.553,0,0,1,.55-.564h0a.557.557,0,0,1,.568.55l.047,4.531a.556.556,0,0,1-.55.564Z" transform="translate(-25.84 -3.026)" fill="#527e53" fill-rule="evenodd"/>
    <path id="Path_117606" data-name="Path 117606" d="M-718.51,1671.007a.554.554,0,0,1-.55-.555v-4.436a.558.558,0,0,1,.55-.559.561.561,0,0,1,.564.559v4.436A.557.557,0,0,1-718.51,1671.007Z" transform="translate(-18.943 -2.381)" fill="#527e53" fill-rule="evenodd"/>
    <path id="Path_117607" data-name="Path 117607" d="M-744.706,1709.1a.554.554,0,0,1-.55-.554v-4.285a.558.558,0,0,1,.55-.559.562.562,0,0,1,.564.559v4.285A.557.557,0,0,1-744.706,1709.1Z" transform="translate(-4.146 -23.982)" fill="#527e53" fill-rule="evenodd"/>
    <path id="Path_117608" data-name="Path 117608" d="M-737.362,1693.505a.561.561,0,0,1-.564-.555v-4.289a.561.561,0,0,1,.564-.559.559.559,0,0,1,.554.559v4.289A.559.559,0,0,1-737.362,1693.505Z" transform="translate(-8.287 -15.172)" fill="#527e53" fill-rule="evenodd"/>
    <path id="Path_117609" data-name="Path 117609" d="M-745.326,1698.94a.557.557,0,0,1-.55-.555v-4.072a.555.555,0,0,1,.55-.559.559.559,0,0,1,.569.559v4.072A.562.562,0,0,1-745.326,1698.94Z" transform="translate(-3.796 -18.365)" fill="#527e53" fill-rule="evenodd"/>
    <path id="Path_117610" data-name="Path 117610" d="M-742.261,1688.976c0-7.224,5.081-16,11.323-19.614s11.338-.687,11.338,6.536-5.081,16.006-11.338,19.614S-742.261,1696.2-742.261,1688.976Z" transform="translate(-5.838 -3.712)" fill="#c1edc2" fill-rule="evenodd"/>
    <path id="Path_117611" data-name="Path 117611" d="M-726.59,1667.636a9.837,9.837,0,0,0-4.782,1.474c-6.081,3.517-11.039,12.1-11.039,19.135,0,3.289,1.071,5.716,3.039,6.849,1.948,1.128,4.607.848,7.451-.792,6.086-3.517,11.039-12.1,11.039-19.135,0-3.285-1.085-5.716-3.033-6.849a5.3,5.3,0,0,0-2.674-.682Zm-10.11,29.254a6.455,6.455,0,0,1-3.241-.83c-2.309-1.337-3.584-4.114-3.584-7.815,0-7.39,5.2-16.4,11.6-20.1,3.194-1.848,6.243-2.133,8.556-.8s3.6,4.114,3.6,7.816c0,7.389-5.2,16.4-11.608,20.1A10.784,10.784,0,0,1-736.7,1696.89Z" transform="translate(-5.124 -2.982)" fill="#527e53" fill-rule="evenodd"/>
    <path id="Path_117612" data-name="Path 117612" d="M-744.051,1693.33c-4.418-2.55-7.532-3.489-7.234-10.29.475-11.1,12-23.77,19.325-19.741l3.934,2.275c-6.731-3.526-14.675,5.74-17.41,11.987C-747.416,1682.082-749.08,1690.135-744.051,1693.33Z" transform="translate(-0.73 -0.729)" fill="#c1edc2" fill-rule="evenodd"/>
    <path id="Path_117613" data-name="Path 117613" d="M-735.723,1662.36a9.45,9.45,0,0,0-4.484,1.342c-5.91,3.327-10.958,11.683-11.256,18.631-.2,4.778,1.289,6.442,3.9,8.034-2.171-4.091-.658-10.2.9-13.76,2.157-4.929,6.935-10.834,11.887-12.574a8.811,8.811,0,0,1,2.611-.521l-.8-.459a5.564,5.564,0,0,0-2.754-.693Zm-9.058,30.794a.5.5,0,0,1-.265-.07c-.455-.261-.9-.5-1.323-.739-3.758-2.1-6.479-3.612-6.209-10.058.313-7.414,5.517-16,11.821-19.557,3.08-1.731,5.962-1.958,8.337-.65l3.943,2.28a.532.532,0,0,1,.2.748.545.545,0,0,1-.734.228,6.523,6.523,0,0,0-5.394-.256c-4.626,1.626-9.248,7.38-11.247,11.973-1.821,4.166-3.631,12.03,1.166,15.077a.565.565,0,0,1,.189.758A.582.582,0,0,1-744.781,1693.154Z" fill="#527e53" fill-rule="evenodd"/>
    <path id="Path_117614" data-name="Path 117614" d="M-721.24,1676.82c0-3.091-1.081-5.261-2.825-6.276-1.764-1.014-4.185-.867-6.859.678a19.8,19.8,0,0,0-6.853,7.237,19.717,19.717,0,0,0-2.849,9.551c0,3.1,1.085,5.265,2.849,6.275,1.744,1.014,4.18.867,6.853-.678a19.9,19.9,0,0,0,6.859-7.238,19.881,19.881,0,0,0,2.825-9.55Zm-21.021,12.139c0-7.224,5.081-16.016,11.337-19.628s11.338-.682,11.338,6.541-5.081,16.016-11.338,19.633-11.337.682-11.337-6.545Z" transform="translate(-5.838 -3.695)" fill="#c1edc2" fill-rule="evenodd"/>
    <path id="Path_117615" data-name="Path 117615" d="M-727.315,1669.723a8.361,8.361,0,0,0-4.057,1.252,19.115,19.115,0,0,0-6.636,7.033,19.036,19.036,0,0,0-2.763,9.271c0,2.787.909,4.844,2.559,5.8s3.887.711,6.29-.683a18.973,18.973,0,0,0,6.65-7.029,19.221,19.221,0,0,0,2.768-9.275c0-2.782-.91-4.84-2.56-5.793a4.424,4.424,0,0,0-2.251-.574Zm-8.664,25.041a5.54,5.54,0,0,1-2.8-.725c-2.015-1.161-3.114-3.56-3.114-6.759a20.316,20.316,0,0,1,2.91-9.83,20.378,20.378,0,0,1,7.058-7.442c2.768-1.593,5.408-1.834,7.408-.677s3.128,3.56,3.128,6.759a20.194,20.194,0,0,1-2.925,9.83,20.148,20.148,0,0,1-7.062,7.441,9.335,9.335,0,0,1-4.607,1.4Zm9.4-27.159a5.327,5.327,0,0,1,2.674.682c1.948,1.133,3.033,3.569,3.033,6.854,0,7.039-4.952,15.627-11.053,19.149-2.844,1.645-5.489,1.925-7.451.792s-3.039-3.564-3.039-6.853c0-7.039,4.958-15.628,11.039-19.144a9.841,9.841,0,0,1,4.8-1.479Zm-10.124,29.277a6.463,6.463,0,0,1-3.241-.834c-2.309-1.342-3.584-4.119-3.584-7.821,0-7.395,5.2-16.414,11.6-20.111,3.209-1.849,6.261-2.134,8.569-.792,2.327,1.336,3.6,4.114,3.6,7.815,0,7.395-5.2,16.414-11.622,20.111A10.8,10.8,0,0,1-736.7,1696.882Z" transform="translate(-5.124 -2.964)" fill="#527e53" fill-rule="evenodd"/>
    <path id="Path_117616" data-name="Path 117616" d="M-742.261,1688.958c0-7.224,5.081-16.016,11.337-19.628s11.338-.682,11.338,6.541-5.081,16.016-11.338,19.633S-742.261,1696.186-742.261,1688.958Z" transform="translate(-5.838 -3.695)" fill="#fff" fill-rule="evenodd"/>
    <path id="Path_117617" data-name="Path 117617" d="M-726.575,1667.6a9.841,9.841,0,0,0-4.8,1.479c-6.081,3.516-11.039,12.105-11.039,19.144,0,3.289,1.071,5.721,3.039,6.853s4.607.853,7.451-.792c6.1-3.522,11.053-12.11,11.053-19.149,0-3.284-1.085-5.721-3.033-6.854a5.327,5.327,0,0,0-2.674-.682Zm-10.124,29.277a6.463,6.463,0,0,1-3.241-.834c-2.309-1.342-3.584-4.119-3.584-7.821,0-7.395,5.2-16.414,11.6-20.111,3.209-1.849,6.261-2.134,8.569-.792,2.327,1.336,3.6,4.114,3.6,7.815,0,7.395-5.2,16.419-11.622,20.111A10.8,10.8,0,0,1-736.7,1696.882Z" transform="translate(-5.124 -2.964)" fill="#527e53" fill-rule="evenodd"/>
    <path id="Path_117618" data-name="Path 117618" d="M-721.24,1676.82c0-3.091-1.081-5.261-2.825-6.276-1.764-1.014-4.185-.867-6.859.678a19.8,19.8,0,0,0-6.853,7.237,19.717,19.717,0,0,0-2.849,9.551c0,3.1,1.085,5.265,2.849,6.275,1.744,1.014,4.18.867,6.853-.678a19.9,19.9,0,0,0,6.859-7.238,19.881,19.881,0,0,0,2.825-9.55Zm-21.021,12.139c0-7.224,5.081-16.016,11.337-19.628s11.338-.682,11.338,6.541-5.081,16.016-11.338,19.633-11.337.682-11.337-6.545Z" transform="translate(-5.838 -3.695)" fill="#c1edc2" fill-rule="evenodd"/>
    <path id="Path_117619" data-name="Path 117619" d="M-727.315,1669.723a8.361,8.361,0,0,0-4.057,1.252,19.115,19.115,0,0,0-6.636,7.033,19.036,19.036,0,0,0-2.763,9.271c0,2.787.909,4.844,2.559,5.8s3.887.711,6.29-.683a18.973,18.973,0,0,0,6.65-7.029,19.221,19.221,0,0,0,2.768-9.275c0-2.782-.91-4.84-2.56-5.793a4.424,4.424,0,0,0-2.251-.574Zm-8.664,25.041a5.54,5.54,0,0,1-2.8-.725c-2.015-1.161-3.114-3.56-3.114-6.759a20.316,20.316,0,0,1,2.91-9.83,20.378,20.378,0,0,1,7.058-7.442c2.768-1.593,5.408-1.834,7.408-.677s3.128,3.56,3.128,6.759a20.194,20.194,0,0,1-2.925,9.83,20.148,20.148,0,0,1-7.062,7.441,9.335,9.335,0,0,1-4.607,1.4Zm9.4-27.159a5.327,5.327,0,0,1,2.674.682c1.948,1.133,3.033,3.569,3.033,6.854,0,7.039-4.952,15.627-11.053,19.149-2.844,1.645-5.489,1.925-7.451.792s-3.039-3.564-3.039-6.853c0-7.039,4.958-15.628,11.039-19.144a9.841,9.841,0,0,1,4.8-1.479Zm-10.124,29.277a6.463,6.463,0,0,1-3.241-.834c-2.309-1.342-3.584-4.119-3.584-7.821,0-7.395,5.2-16.414,11.6-20.111,3.209-1.849,6.261-2.134,8.569-.792,2.327,1.336,3.6,4.114,3.6,7.815,0,7.395-5.2,16.414-11.622,20.111A10.8,10.8,0,0,1-736.7,1696.882Z" transform="translate(-5.124 -2.964)" fill="#527e53" fill-rule="evenodd"/>
    <path id="Path_117620" data-name="Path 117620" d="M-747.716,1719.809a.5.5,0,0,1-.27-.076l-3.711-2.142a.552.552,0,0,1-.2-.759.544.544,0,0,1,.754-.2l3.711,2.143a.55.55,0,0,1,.208.758A.586.586,0,0,1-747.716,1719.809Z" transform="translate(-0.35 -31.243)" fill="#527e53" fill-rule="evenodd"/>
    <path id="Path_117621" data-name="Path 117621" d="M-748.392,1710.236a.638.638,0,0,1-.284-.076l-3.522-2.038a.556.556,0,0,1-.2-.763.569.569,0,0,1,.768-.2l3.522,2.038a.55.55,0,0,1,.2.763A.565.565,0,0,1-748.392,1710.236Z" transform="translate(-0.067 -25.892)" fill="#527e53" fill-rule="evenodd"/>
    <path id="Path_117622" data-name="Path 117622" d="M-745.742,1698.963a.582.582,0,0,1-.285-.076l-3.787-2.19a.55.55,0,0,1-.2-.759.544.544,0,0,1,.754-.2l3.792,2.19a.553.553,0,0,1,.2.758A.536.536,0,0,1-745.742,1698.963Z" transform="translate(-1.413 -19.44)" fill="#527e53" fill-rule="evenodd"/>
    <path id="Path_117623" data-name="Path 117623" d="M-740.128,1687.14a.63.63,0,0,1-.28-.071l-3.949-2.218a.547.547,0,0,1-.2-.758.548.548,0,0,1,.754-.214l3.948,2.219a.568.568,0,0,1,.218.758A.576.576,0,0,1-740.128,1687.14Z" transform="translate(-4.496 -12.745)" fill="#527e53" fill-rule="evenodd"/>
    <path id="Path_117624" data-name="Path 117624" d="M-732.905,1677.121a.579.579,0,0,1-.28-.076l-3.839-2.214a.559.559,0,0,1-.2-.763.568.568,0,0,1,.772-.2l3.835,2.218a.553.553,0,0,1,.2.759A.573.573,0,0,1-732.905,1677.121Z" transform="translate(-8.638 -7.087)" fill="#527e53" fill-rule="evenodd"/>
    <path id="Path_117625" data-name="Path 117625" d="M-724.308,1669.294a.469.469,0,0,1-.266-.076l-3.7-2.127a.573.573,0,0,1-.2-.763.574.574,0,0,1,.773-.2l3.678,2.128a.559.559,0,0,1,.2.763A.573.573,0,0,1-724.308,1669.294Z" transform="translate(-13.586 -2.716)" fill="#527e53" fill-rule="evenodd"/>
    <path id="Path_117626" data-name="Path 117626" d="M-715.754,1665.507a.525.525,0,0,1-.28-.076l-3.683-2.123a.56.56,0,0,1-.2-.763.549.549,0,0,1,.754-.2l3.683,2.123a.557.557,0,0,1,.2.763A.543.543,0,0,1-715.754,1665.507Z" transform="translate(-18.414 -0.577)" fill="#527e53" fill-rule="evenodd"/>
    <path id="Path_117627" data-name="Path 117627" d="M-725.161,1699.039a.563.563,0,0,1-.474-.261.567.567,0,0,1,.175-.767c1.868-1.181,3.943-2.37,5.958-3.518a1.982,1.982,0,0,0,.943-1.4v-3.545a.369.369,0,0,0-.393,0c-1.9,1.086-3.508,2.038-4.892,2.91a1.22,1.22,0,0,1-1.289.128,1.261,1.261,0,0,1-.583-1.2v-3.549a3.057,3.057,0,0,1,1.275-2.238c1.574-.972,3.337-2.01,5.55-3.28a.561.561,0,0,1,.758.208.55.55,0,0,1-.208.758c-2.2,1.261-3.962,2.3-5.5,3.261a1.988,1.988,0,0,0-.754,1.289v3.549a.776.776,0,0,0,.014.214c.019-.019.081-.043.142-.09,1.417-.877,3.019-1.834,4.939-2.929a1.461,1.461,0,0,1,1.465-.033,1.152,1.152,0,0,1,.592,1v3.545a3.044,3.044,0,0,1-1.507,2.365c-2,1.142-4.072,2.323-5.911,3.489A.527.527,0,0,1-725.161,1699.039Z" transform="translate(-15.183 -11.866)" fill="#527e53" fill-rule="evenodd"/>
    <path id="Path_117628" data-name="Path 117628" d="M-717.171,1698.667a.559.559,0,0,1-.55-.559v-17.258a.559.559,0,0,1,.55-.56.562.562,0,0,1,.563.56v17.258A.561.561,0,0,1-717.171,1698.667Z" transform="translate(-19.699 -10.76)" fill="#527e53" fill-rule="evenodd"/>
  </g>
</svg>
