<svg xmlns="http://www.w3.org/2000/svg" width="467.882" height="208.722" viewBox="0 0 467.882 208.722">
  <g id="Group_177700" data-name="Group 177700" transform="translate(-20.42 -6265.278)">
    <path id="Path_117892" data-name="Path 117892" d="M0,417.443V286.293a77.569,77.569,0,0,0,77.571-77.571A77.568,77.568,0,0,0,0,131.151V0C115.276,0,208.722,93.446,208.722,208.722S115.276,417.443,0,417.443Z" transform="translate(20.42 6474) rotate(-90)" fill="#3cdc82"/>
    <g id="Group_177602" data-name="Group 177602" transform="translate(264.342 6330.405) rotate(-90)">
      <path id="Path_114737" data-name="Path 114737" d="M12.344,6.172A6.172,6.172,0,1,1,6.172,0,6.172,6.172,0,0,1,12.344,6.172Z" transform="translate(33.604 172.603)" fill="#1e1e1e"/>
      <path id="Path_114738" data-name="Path 114738" d="M12.344,6.172A6.172,6.172,0,1,1,6.172,0,6.172,6.172,0,0,1,12.344,6.172Z" transform="translate(33.604 138.083)" fill="#1e1e1e"/>
      <path id="Path_114739" data-name="Path 114739" d="M12.344,6.172A6.172,6.172,0,1,1,6.172,0,6.172,6.172,0,0,1,12.344,6.172Z" transform="translate(33.604 103.562)" fill="#1e1e1e"/>
      <path id="Path_114740" data-name="Path 114740" d="M12.344,6.171A6.172,6.172,0,1,1,6.172,0,6.172,6.172,0,0,1,12.344,6.171Z" transform="translate(33.604 69.042)" fill="#1e1e1e"/>
      <path id="Path_114741" data-name="Path 114741" d="M12.344,6.172A6.172,6.172,0,1,1,6.172,0,6.172,6.172,0,0,1,12.344,6.172Z" transform="translate(33.604 34.521)" fill="#1e1e1e"/>
      <path id="Path_114742" data-name="Path 114742" d="M0,6.172a6.172,6.172,0,1,1,6.172,6.172A6.172,6.172,0,0,1,0,6.172Z" transform="translate(33.604)" fill="#1e1e1e"/>
      <path id="Path_114743" data-name="Path 114743" d="M12.344,6.172A6.172,6.172,0,1,1,6.172,0,6.172,6.172,0,0,1,12.344,6.172Z" transform="translate(0 172.603)" fill="#1e1e1e"/>
      <path id="Path_114744" data-name="Path 114744" d="M12.344,6.172A6.172,6.172,0,1,1,6.172,0,6.172,6.172,0,0,1,12.344,6.172Z" transform="translate(0 138.083)" fill="#1e1e1e"/>
      <path id="Path_114745" data-name="Path 114745" d="M12.344,6.172A6.172,6.172,0,1,1,6.172,0,6.172,6.172,0,0,1,12.344,6.172Z" transform="translate(0 103.562)" fill="#1e1e1e"/>
      <path id="Path_114746" data-name="Path 114746" d="M12.344,6.171A6.172,6.172,0,1,1,6.172,0,6.172,6.172,0,0,1,12.344,6.171Z" transform="translate(0 69.042)" fill="#1e1e1e"/>
      <path id="Path_114747" data-name="Path 114747" d="M12.344,6.172A6.172,6.172,0,1,1,6.172,0,6.173,6.173,0,0,1,12.344,6.172Z" transform="translate(0 34.521)" fill="#1e1e1e"/>
      <path id="Path_114748" data-name="Path 114748" d="M12.344,6.172A6.172,6.172,0,1,1,6.172,0,6.172,6.172,0,0,1,12.344,6.172Z" fill="#1e1e1e"/>
    </g>
    <rect id="Rectangle_149822" data-name="Rectangle 149822" width="18.07" height="103.137" transform="translate(385.164 6379.243) rotate(-90)" fill="#1e1e1e"/>
  </g>
</svg>
