<svg xmlns="http://www.w3.org/2000/svg" width="75.316" height="75.652" viewBox="0 0 75.316 75.652">
  <g id="Group_177547" data-name="Group 177547" transform="translate(1641.647 -843.591)">
    <path id="Path_116708" data-name="Path 116708" d="M-1534.146,852.927l-12.7-7.35c-5.584-2.63-12.744,2.238-16.514,6.233a36.581,36.581,0,0,0-8.591,16.123l-.478,2.238,12.743,7.35c1.241-5.837,3.007-10.634,6.635-15.478,3.58-4.778,10.357-10.639,16.705-9.756Z" transform="translate(-37.961 -0.681)" fill="#3cdc82" fill-rule="evenodd"/>
    <path id="Path_116709" data-name="Path 116709" d="M-1572.408,869.209l11.693,6.763a37.648,37.648,0,0,1,6.586-14.944c2.912-3.924,9.355-10.167,15.99-10.071l-9.642-5.574c-5.489-2.578-12.5,2.639-15.8,6.133a35.273,35.273,0,0,0-8.447,15.87l-.382,1.823Zm12.075,8.195a.355.355,0,0,1-.238-.076l-12.744-7.35a.536.536,0,0,1-.286-.6l.478-2.238a36.353,36.353,0,0,1,8.734-16.395c3.484-3.714,11.025-9.226,17.135-6.352l12.744,7.369a.5.5,0,0,1,.238.706.544.544,0,0,1-.668.32l-2.2-.64c-6.443-.892-13.173,5.584-16.085,9.555a36.591,36.591,0,0,0-6.539,15.254.661.661,0,0,1-.334.4A.621.621,0,0,1-1560.333,877.4Z" transform="translate(-37.309)" fill="#527e53" fill-rule="evenodd"/>
    <path id="Path_116710" data-name="Path 116710" d="M-1601.386,891.587c-2-1.15-12.552-7.384-13.794-7.833-5.87-2.109-13.03,3.58-16.657,7.775-5.155,5.971-8.591,14.18-8.543,22.123,0,6.047,3.2,9.693,8.162,12.586l12.743,7.35c-6.969-4.105-9.021-8.691-7.875-16.786,1.289-9.412,7.684-19.965,16.132-24.4,2.578-1.355,5.918-2.32,8.782-1.293Z" transform="translate(-0.695 -21.776)" fill="#3cdc82" fill-rule="evenodd"/>
    <path id="Path_116711" data-name="Path 116711" d="M-1618.547,883.177c-5.155,0-10.739,4.783-13.555,8.033a34.563,34.563,0,0,0-8.448,21.755c.048,5.193,2.482,8.93,7.923,12.109l6.635,3.809c-2.673-3.26-3.389-7.226-2.625-12.844,1.431-10.113,8.3-20.551,16.418-24.819a14.67,14.67,0,0,1,6.443-1.794h.048c-3.77-2.2-9.5-5.517-10.357-5.823a7.405,7.405,0,0,0-2.482-.425Zm-1.623,50.292a.594.594,0,0,1-.287-.076l-12.744-7.35c-5.823-3.4-8.4-7.436-8.447-13.073a35.6,35.6,0,0,1,8.734-22.49c4.3-4.983,11.406-10.042,17.23-7.932,1,.354,6.729,3.679,11.979,6.768l1.909,1.108a.633.633,0,0,1,.239.739.6.6,0,0,1-.764.252l-1.05-.481c-3.15-1.131-6.873.52-8.305,1.279-7.78,4.11-14.461,14.194-15.846,23.984-1.1,7.9.954,12.3,7.637,16.228a.551.551,0,0,1,.191.764A.539.539,0,0,1-1620.169,933.469Z" transform="translate(0 -21.094)" fill="#527e53" fill-rule="evenodd"/>
    <path id="Path_116712" data-name="Path 116712" d="M-1581.473,928.312c9.88-14.371,30.738-39.953,30.738-54.936,0-22.671-26.394-11.182-30.738,13.1-4.343-19.258-30.689-.286-30.689,22.38C-1612.162,923.836-1591.352,925.349-1581.473,928.312Z" transform="translate(-16.169 -9.632)" fill="#c1edc2" fill-rule="evenodd"/>
    <path id="Path_116713" data-name="Path 116713" d="M-1590.281,878.4a10.461,10.461,0,0,0-1.051.057c-8.447.945-21,13.836-21,29.716,0,11.86,13.937,15.054,24.151,17.383,2.1.477,4.1.935,5.775,1.422,1.718-2.486,3.77-5.321,5.966-8.314,10.309-14.28,24.438-33.839,24.438-45.968,0-7.078-2.577-11.206-7.255-11.626-8.114-.721-19.711,9.961-22.337,24.824a.586.586,0,0,1-.573.463.537.537,0,0,1-.524-.439c-1.145-4.94-3.723-7.518-7.589-7.518Zm8.113,49.8a.493.493,0,0,1-.143-.023c-1.766-.525-3.866-1.012-6.109-1.522-10.6-2.415-25.01-5.723-25.01-18.476,0-15.283,12.075-29.725,22-30.833,2.577-.286,7.016.21,9.163,6.142,3.341-13.96,13.937-23.568,22.194-23.568.287,0,.573.015.859.038,5.3.467,8.353,5.116,8.353,12.743,0,12.491-14.271,32.217-24.676,46.626-2.291,3.121-4.391,6.071-6.157,8.629A.567.567,0,0,1-1582.168,928.194Z" transform="translate(-15.474 -8.952)" fill="#527e53" fill-rule="evenodd"/>
  </g>
</svg>
