<svg xmlns="http://www.w3.org/2000/svg" width="35.698" height="35.858" viewBox="0 0 35.698 35.858">
  <g id="Group_177533" data-name="Group 177533" transform="translate(1639.022 -840.966)">
    <path id="Path_117577" data-name="Path 117577" d="M-1551.656,846.044l-6.017-3.484c-2.647-1.246-6.041,1.061-7.828,2.955a17.337,17.337,0,0,0-4.072,7.642l-.226,1.061,6.04,3.484a17.57,17.57,0,0,1,3.145-7.336c1.7-2.265,4.909-5.043,7.918-4.624Z" transform="translate(-54.405 -0.975)" fill="#3cdc82" fill-rule="evenodd"/>
    <path id="Path_117578" data-name="Path 117578" d="M-1570.417,853.109l5.543,3.206a17.851,17.851,0,0,1,3.122-7.083c1.38-1.86,4.434-4.819,7.579-4.773l-4.57-2.642c-2.6-1.222-5.927,1.251-7.488,2.907a16.72,16.72,0,0,0-4,7.522l-.181.864Zm5.723,3.884a.169.169,0,0,1-.113-.036l-6.04-3.484a.255.255,0,0,1-.136-.285l.227-1.061a17.232,17.232,0,0,1,4.14-7.771c1.651-1.76,5.226-4.373,8.122-3.011l6.04,3.493a.236.236,0,0,1,.113.335.258.258,0,0,1-.317.152l-1.041-.3c-3.054-.423-6.244,2.647-7.624,4.529a17.342,17.342,0,0,0-3.1,7.23.313.313,0,0,1-.158.188A.3.3,0,0,1-1564.694,856.993Z" transform="translate(-53.47)" fill="#527e53" fill-rule="evenodd"/>
    <path id="Path_117579" data-name="Path 117579" d="M-1619.272,884.6c-.95-.545-5.95-3.5-6.538-3.712-2.783-1-6.176,1.7-7.9,3.685a16.465,16.465,0,0,0-4.05,10.486c0,2.866,1.515,4.595,3.869,5.966l6.04,3.484c-3.3-1.946-4.276-4.12-3.733-7.956.611-4.461,3.642-9.463,7.646-11.567a5.4,5.4,0,0,1,4.163-.613Z" transform="translate(-0.996 -31.21)" fill="#3cdc82" fill-rule="evenodd"/>
    <path id="Path_117580" data-name="Path 117580" d="M-1628.073,879.962c-2.443,0-5.09,2.267-6.425,3.807a16.383,16.383,0,0,0-4,10.312c.023,2.461,1.177,4.233,3.756,5.739l3.145,1.805c-1.267-1.545-1.606-3.425-1.244-6.088.678-4.794,3.936-9.741,7.782-11.764a6.953,6.953,0,0,1,3.054-.85h.022c-1.787-1.043-4.5-2.615-4.909-2.76a3.516,3.516,0,0,0-1.177-.2Zm-.769,23.838a.282.282,0,0,1-.136-.036l-6.04-3.484c-2.76-1.613-3.982-3.524-4-6.2a16.877,16.877,0,0,1,4.14-10.66c2.036-2.362,5.407-4.76,8.167-3.76.475.168,3.19,1.744,5.678,3.208l.905.525a.3.3,0,0,1,.113.35.285.285,0,0,1-.362.12l-.5-.228a5.351,5.351,0,0,0-3.936.606c-3.688,1.948-6.855,6.728-7.511,11.368-.52,3.744.452,5.83,3.62,7.692a.261.261,0,0,1,.09.362A.255.255,0,0,1-1628.842,903.8Z" transform="translate(0 -30.231)" fill="#527e53" fill-rule="evenodd"/>
    <path id="Path_117581" data-name="Path 117581" d="M-1594.99,890.363c4.683-6.812,14.569-18.937,14.569-26.039,0-10.746-12.51-5.3-14.569,6.208-2.059-9.128-14.546-.136-14.546,10.608C-1609.537,888.241-1599.673,888.958-1594.99,890.363Z" transform="translate(-23.174 -13.806)" fill="#c1edc2" fill-rule="evenodd"/>
    <path id="Path_117582" data-name="Path 117582" d="M-1599.833,866.052a4.961,4.961,0,0,0-.5.027c-4,.448-9.954,6.558-9.954,14.085,0,5.622,6.606,7.135,11.447,8.24,1,.226,1.945.443,2.737.674.815-1.179,1.787-2.522,2.828-3.941,4.887-6.769,11.583-16.039,11.583-21.788,0-3.355-1.222-5.312-3.439-5.511-3.846-.342-9.343,4.721-10.588,11.766a.277.277,0,0,1-.272.219.254.254,0,0,1-.248-.208c-.543-2.341-1.765-3.563-3.6-3.563Zm3.845,23.6a.239.239,0,0,1-.068-.011c-.837-.249-1.832-.48-2.9-.722-5.022-1.145-11.854-2.712-11.854-8.757,0-7.244,5.724-14.09,10.429-14.614a3.918,3.918,0,0,1,4.344,2.911c1.583-6.617,6.606-11.171,10.52-11.171.136,0,.271.007.407.018,2.511.221,3.959,2.425,3.959,6.04,0,5.921-6.764,15.27-11.7,22.1-1.086,1.479-2.082,2.877-2.918,4.09A.268.268,0,0,1-1595.987,889.654Z" transform="translate(-22.177 -12.83)" fill="#527e53" fill-rule="evenodd"/>
  </g>
</svg>
