<svg xmlns="http://www.w3.org/2000/svg" width="21.439" height="21.506" viewBox="0 0 21.439 21.506">
  <g id="Group_173243" data-name="Group 173243" transform="translate(-0.001)">
    <path id="Path_84840" data-name="Path 84840" d="M450.631,134.958v8.648c-.012.075-.026.15-.034.225-.045.423-.067.85-.138,1.268a5.709,5.709,0,0,1-1.84,3.437,6.338,6.338,0,0,1-3.936,1.492c-.508.034-1.016.057-1.524.085H436.7c-.131-.011-.263-.03-.394-.033a11.943,11.943,0,0,1-2.56-.262,5.5,5.5,0,0,1-3.866-3.1,7.716,7.716,0,0,1-.646-3.266c-.024-2.315-.044-4.63-.035-6.945a14.9,14.9,0,0,1,.243-3.152,5.525,5.525,0,0,1,3.127-4.036,7.818,7.818,0,0,1,3.222-.653c2.964-.07,5.929-.1,8.893.039a6.8,6.8,0,0,1,2.5.568,5.6,5.6,0,0,1,3.325,4.563C450.56,134.209,450.589,134.584,450.631,134.958Zm-10.709,13.256v-.033c.567,0,1.134.017,1.7,0,1.222-.044,2.453-.029,3.663-.181a3.5,3.5,0,0,0,3.174-2.807,9.241,9.241,0,0,0,.23-2.036q.055-3.252.032-6.506a21.949,21.949,0,0,0-.155-2.594,3.58,3.58,0,0,0-3.01-3.247,12.444,12.444,0,0,0-2.25-.2q-3-.044-6-.011a19.531,19.531,0,0,0-2.862.186,3.479,3.479,0,0,0-3.052,2.833,11.359,11.359,0,0,0-.225,2.226q-.059,2.612-.032,5.226c.013,1.195.046,2.393.16,3.581a3.564,3.564,0,0,0,1.716,2.816,4.574,4.574,0,0,0,2.279.633C436.831,148.15,438.377,148.175,439.922,148.214Z" transform="translate(-429.19 -128.607)" fill="#1e1e1e"/>
    <path id="Path_84842" data-name="Path 84842" d="M558.392,264.039a5.521,5.521,0,1,1,5.531-5.494A5.53,5.53,0,0,1,558.392,264.039Zm-3.564-5.521a3.577,3.577,0,1,0,3.57-3.579A3.567,3.567,0,0,0,554.828,258.519Z" transform="translate(-547.67 -247.757)" fill="#1e1e1e"/>
    <path id="Path_84843" data-name="Path 84843" d="M792.17,218.567a1.286,1.286,0,1,1-1.289-1.291A1.281,1.281,0,0,1,792.17,218.567Z" transform="translate(-774.413 -213.54)" fill="#1e1e1e"/>
  </g>
</svg>
