<svg xmlns="http://www.w3.org/2000/svg" width="43.226" height="75.651" viewBox="0 0 43.226 75.651">
  <g id="Group_177548" data-name="Group 177548" transform="translate(1145.275 -994.936)">
    <path id="Path_116714" data-name="Path 116714" d="M-1087.973,1170.99a2.758,2.758,0,0,0,1.43-.354,1.013,1.013,0,0,0,.615-.839,1.059,1.059,0,0,0-.615-.834,2.9,2.9,0,0,0-1.43-.339,2.971,2.971,0,0,0-1.444.339,1.063,1.063,0,0,0-.611.834,1.017,1.017,0,0,0,.611.839A2.824,2.824,0,0,0-1087.973,1170.99Z" transform="translate(-32.115 -100.966)" fill="#fff" fill-rule="evenodd"/>
    <path id="Path_116715" data-name="Path 116715" d="M-1088.753,1168.421a2.425,2.425,0,0,0-1.173.271c-.223.131-.305.276-.305.339,0,.083.082.208.305.354a2.8,2.8,0,0,0,2.331,0c.209-.126.305-.271.305-.354s-.1-.208-.305-.339a2.391,2.391,0,0,0-1.158-.271Zm0,2.365a3.532,3.532,0,0,1-1.735-.417,1.569,1.569,0,0,1-.882-1.338,1.559,1.559,0,0,1,.882-1.318,3.871,3.871,0,0,1,3.456,0,1.566,1.566,0,0,1,.887,1.318,1.575,1.575,0,0,1-.887,1.338A3.46,3.46,0,0,1-1088.753,1170.786Z" transform="translate(-31.335 -100.199)" fill="#527e53" fill-rule="evenodd"/>
    <path id="Path_116716" data-name="Path 116716" d="M-1086.523,1157.583a1.078,1.078,0,0,0,.615-.8V1146.2c-.053.659-.872,1-1.415,1.091a2.9,2.9,0,0,1-2.365-.5.808.808,0,0,1-.305-.591v10.575c0,.484.514.8.916.969A3.211,3.211,0,0,0-1086.523,1157.583Z" transform="translate(-32.135 -87.932)" fill="#3cdc82" fill-rule="evenodd"/>
    <path id="Path_116717" data-name="Path 116717" d="M-1090.232,1146.845v9.145c0,.1.209.31.548.422a2.617,2.617,0,0,0,2.089-.111c.209-.116.305-.257.305-.325v-9.13a3.029,3.029,0,0,1-.741.223,3.863,3.863,0,0,1-2.2-.223Zm2.908,9.949h0Zm-1.445.921a4.037,4.037,0,0,1-1.318-.228,1.742,1.742,0,0,1-1.284-1.478v-10.595a.561.561,0,0,1,.543-.562.515.515,0,0,1,.6.528c0,.033,0,.111.131.208a2.451,2.451,0,0,0,1.861.373c.45-.1.935-.339.95-.581a.548.548,0,0,1,.6-.528.566.566,0,0,1,.548.562v10.575a1.588,1.588,0,0,1-.887,1.3h0A3.621,3.621,0,0,1-1088.768,1157.715Z" transform="translate(-31.335 -87.143)" fill="#527e53" fill-rule="evenodd"/>
    <path id="Path_116718" data-name="Path 116718" d="M-1087.973,1145.688a2.957,2.957,0,0,0,1.43-.34,1.058,1.058,0,0,0,.615-.834,1.008,1.008,0,0,0-.615-.838,2.759,2.759,0,0,0-1.43-.354,2.824,2.824,0,0,0-1.444.354,1.011,1.011,0,0,0-.611.838,1.062,1.062,0,0,0,.611.834A3.029,3.029,0,0,0-1087.973,1145.688Z" transform="translate(-32.115 -86.257)" fill="#bdedf8" fill-rule="evenodd"/>
    <path id="Path_116719" data-name="Path 116719" d="M-1088.753,1143.127a2.6,2.6,0,0,0-1.173.257c-.223.145-.305.276-.305.359,0,.063.082.2.305.335a2.8,2.8,0,0,0,2.331,0c.209-.131.305-.257.305-.335s-.1-.228-.305-.359a2.566,2.566,0,0,0-1.158-.257Zm0,2.351a3.488,3.488,0,0,1-1.735-.422,1.558,1.558,0,0,1-.882-1.313,1.569,1.569,0,0,1,.882-1.338,3.841,3.841,0,0,1,3.456,0,1.576,1.576,0,0,1,.887,1.338,1.565,1.565,0,0,1-.887,1.313A3.417,3.417,0,0,1-1088.753,1145.478Z" transform="translate(-31.335 -85.485)" fill="#527e53" fill-rule="evenodd"/>
    <path id="Path_116720" data-name="Path 116720" d="M-1087.636,1145.3a2.552,2.552,0,0,0,1.27-.305.9.9,0,0,0,.533-.736.9.9,0,0,0-.533-.742,2.557,2.557,0,0,0-1.27-.305,2.586,2.586,0,0,0-1.284.305.894.894,0,0,0-.528.742.893.893,0,0,0,.528.736A2.581,2.581,0,0,0-1087.636,1145.3Z" transform="translate(-32.452 -86.19)" fill="#bdedf8" fill-rule="evenodd"/>
    <path id="Path_116721" data-name="Path 116721" d="M-1088.444,1143a2.007,2.007,0,0,0-.994.242c-.193.1-.257.208-.257.242s.064.14.238.237a2.32,2.32,0,0,0,2.011,0c.175-.1.242-.193.242-.237s-.068-.145-.242-.242a2.11,2.11,0,0,0-1-.242Zm0,2.1a3.249,3.249,0,0,1-1.575-.384,1.489,1.489,0,0,1-.819-1.236,1.49,1.49,0,0,1,.819-1.241,3.6,3.6,0,0,1,3.136,0,1.489,1.489,0,0,1,.819,1.241,1.488,1.488,0,0,1-.819,1.236A3.219,3.219,0,0,1-1088.444,1145.1Z" transform="translate(-31.644 -85.421)" fill="#527e53" fill-rule="evenodd"/>
    <path id="Path_116722" data-name="Path 116722" d="M-1125.059,997.16c.16-.417.611-1.061,1.1-.8l5.51,3.184c-.479-.257-.93.436-1.075.8-2.089,4.808-4.246,9.581-6.383,14.374-3.664,8.215-7.619,16.754-10.58,25.245a31.847,31.847,0,0,0-1.735,13.938c.8,4.275,2.026,6.9,5.593,9.02l-5.516-3.185c-2.811-1.671-3.857-3.281-4.982-6.3-1.367-5.035-.882-9.184.354-14.151,2.462-8.666,6.751-17.443,10.371-25.594C-1129.945,1008.176-1127.454,1002.689-1125.059,997.16Z" transform="translate(-0.767 -0.791)" fill="#3cdc82" fill-rule="evenodd"/>
    <path id="Path_116723" data-name="Path 116723" d="M-1125.827,996.369h0Zm.8-.306c.014.034-.16.257-.271.5v.034c-1.692,3.873-3.427,7.749-5.147,11.607l-2.2,4.919c-.66,1.478-1.333,2.991-2.026,4.5-3.116,6.867-6.315,13.973-8.326,21.029-1.207,4.871-1.692,8.893-.354,13.832,1.042,2.777,1.978,4.323,4.725,5.961l1.144.659a15.581,15.581,0,0,1-2.074-5.9,32.583,32.583,0,0,1,1.75-14.2c2.593-7.41,5.917-14.855,9.135-22.042l3.054-6.819c1.623-3.6,3.232-7.2,4.793-10.817a2.91,2.91,0,0,1,.383-.63l-4.58-2.636Zm-8.379,66.629a.513.513,0,0,1-.272-.063l-5.53-3.2c-3.039-1.8-4.1-3.572-5.229-6.6-1.41-5.205-.882-9.548.339-14.467,2.026-7.158,5.259-14.3,8.379-21.208q1.04-2.268,2.026-4.487l2.2-4.934c1.72-3.857,3.456-7.715,5.147-11.593a2.044,2.044,0,0,1,1.013-1.143.991.991,0,0,1,.853.068l5.544,3.2a.557.557,0,0,1,.209.771.562.562,0,0,1-.756.227,3.656,3.656,0,0,0-.286.495c-1.575,3.654-3.2,7.25-4.807,10.851l-3.058,6.819c-3.214,7.173-6.528,14.583-9.1,21.93a31.112,31.112,0,0,0-1.687,13.687c.722,3.935,1.779,6.494,5.321,8.6a.557.557,0,0,1,.189.771A.6.6,0,0,1-1133.4,1062.692Z" transform="translate(0 0)" fill="#527e53" fill-rule="evenodd"/>
    <path id="Path_116724" data-name="Path 116724" d="M-1111.866,1004.774a1.584,1.584,0,0,1,.6-.771.418.418,0,0,1,.6.077c5.239,6.145,11.525,14.748,14.937,22.206a18.786,18.786,0,0,1,1.555,7.846c0,16.158-12.46,33.038-25,34.216a9.639,9.639,0,0,1-8.408-3.038c-2.026-2.283-3.184-5.729-3.184-10.066a34.138,34.138,0,0,1,1.556-9.649c1.769-5.9,7.992-19.807,12.833-30.625C-1114.551,1010.885-1112.927,1007.236-1111.866,1004.774Z" transform="translate(-8.431 -5.221)" fill="#c1edc2" fill-rule="evenodd"/>
    <path id="Path_116725" data-name="Path 116725" d="M-1111.891,1003.674v0Zm-.756.32h0Zm.819-.223a.957.957,0,0,0-.286.417v.034c-1.047,2.409-2.641,5.946-4.405,9.935l-.131.271c-4.934,11.016-11.045,24.7-12.8,30.547a33.54,33.54,0,0,0-1.527,9.49c0,4.1,1.047,7.459,3.025,9.678a9.083,9.083,0,0,0,7.928,2.864c12.363-1.177,24.484-17.835,24.484-33.654a17.873,17.873,0,0,0-1.512-7.6c-2.859-6.291-8.374-14.5-14.776-21.978Zm-9.339,64.424a9.884,9.884,0,0,1-7.638-3.3c-2.171-2.428-3.31-6.043-3.31-10.434a34.558,34.558,0,0,1,1.575-9.809c1.77-5.932,7.91-19.648,12.843-30.659l.131-.305c1.769-3.974,3.359-7.493,4.391-9.906a1.96,1.96,0,0,1,.834-1.047.967.967,0,0,1,1.367.276c6.431,7.507,12.043,15.852,14.971,22.25a19.411,19.411,0,0,1,1.6,8.088c0,16.338-12.635,33.571-25.512,34.778A11.335,11.335,0,0,1-1121.167,1068.194Z" transform="translate(-7.65 -4.441)" fill="#527e53" fill-rule="evenodd"/>
    <path id="Path_116726" data-name="Path 116726" d="M-1084.975,1065.1a.573.573,0,0,1-.562-.577V1002.7a.577.577,0,0,1,.562-.582.579.579,0,0,1,.576.582v61.821A.575.575,0,0,1-1084.975,1065.1Z" transform="translate(-34.726 -4.176)" fill="#527e53" fill-rule="evenodd"/>
    <path id="Path_116727" data-name="Path 116727" d="M-1100.2,1046.59h-.049l-10.948-.868a.588.588,0,0,1-.532-.61.574.574,0,0,1,.63-.533l10.657.853,9.935-12.029a.585.585,0,0,1,.8-.078.584.584,0,0,1,.082.8l-10.129,12.252A.562.562,0,0,1-1100.2,1046.59Z" transform="translate(-19.499 -22.243)" fill="#527e53" fill-rule="evenodd"/>
    <path id="Path_116728" data-name="Path 116728" d="M-1108.26,1072.3h-.034l-16.769-1.1a.55.55,0,0,1-.528-.61.56.56,0,0,1,.591-.533l16.483,1.081,14.728-18.057a.548.548,0,0,1,.8-.078.555.555,0,0,1,.082.785l-14.9,18.3A.6.6,0,0,1-1108.26,1072.3Z" transform="translate(-11.441 -33.677)" fill="#527e53" fill-rule="evenodd"/>
    <path id="Path_116729" data-name="Path 116729" d="M-1112.031,1103.217h-.034l-19.468-1.056a.58.58,0,0,1-.548-.61.583.583,0,0,1,.61-.533l19.183,1.047,16.769-20a.56.56,0,0,1,.8-.063.563.563,0,0,1,.063.8l-16.943,20.214A.554.554,0,0,1-1112.031,1103.217Z" transform="translate(-7.67 -50.528)" fill="#527e53" fill-rule="evenodd"/>
  </g>
</svg>
