<svg xmlns="http://www.w3.org/2000/svg" width="255.262" height="58.436" viewBox="0 0 255.262 58.436">
  <g id="Group_177707" data-name="Group 177707" transform="translate(1.084 -45.046)">
    <g id="Group_177704" data-name="Group 177704" transform="translate(-1.084 50.394)">
      <g id="Group_177703" data-name="Group 177703">
        <g id="Group_177701" data-name="Group 177701">
          <path id="Path_118052" data-name="Path 118052" d="M-.795,96.287a.918.918,0,0,1-.289-.67V70.7a.9.9,0,0,1,.289-.689.948.948,0,0,1,.67-.269H10.3q5.023,0,7.839,2.281a7.838,7.838,0,0,1,2.819,6.459A7.988,7.988,0,0,1,19.7,83.042a8.074,8.074,0,0,1-3.49,2.875l5.253,9.431a.956.956,0,0,1,.116.421.775.775,0,0,1-.25.556.766.766,0,0,1-.555.249h-5.1A1.6,1.6,0,0,1,14.1,95.538l-4.37-8.432H5.817v8.511a.9.9,0,0,1-.287.69,1,1,0,0,1-.71.268H-.124A.917.917,0,0,1-.795,96.287ZM10.226,81.662a3.788,3.788,0,0,0,2.685-.863,3.129,3.129,0,0,0,.918-2.4,3.292,3.292,0,0,0-.9-2.435,3.676,3.676,0,0,0-2.7-.9H5.817v6.594Z" transform="translate(1.084 -69.355)" fill="#171717"/>
          <path id="Path_118053" data-name="Path 118053" d="M26.586,96.287a.92.92,0,0,1-.288-.67V70.7a.9.9,0,0,1,.288-.689.948.948,0,0,1,.671-.269h17.9a.92.92,0,0,1,.958.958v3.6a.945.945,0,0,1-.269.671.9.9,0,0,1-.689.288H32.931v5.176H44.316a.9.9,0,0,1,.689.287.992.992,0,0,1,.269.708v3.336a.948.948,0,0,1-.269.671.9.9,0,0,1-.689.287H32.931v5.328H45.466a.92.92,0,0,1,.96.958v3.6a.954.954,0,0,1-.269.67.9.9,0,0,1-.691.287H27.258A.918.918,0,0,1,26.586,96.287Z" transform="translate(-0.765 -69.355)" fill="#171717"/>
          <path id="Path_118054" data-name="Path 118054" d="M53.665,94.266q-3.086-2.666-3.278-7.725c-.026-.692-.038-1.815-.038-3.375q0-2.376.038-3.45a10.126,10.126,0,0,1,3.336-7.686q3.143-2.7,8.511-2.7a15.478,15.478,0,0,1,6.057,1.131,9.962,9.962,0,0,1,4.235,3.22,8.171,8.171,0,0,1,1.591,4.889v.076a.651.651,0,0,1-.25.518.834.834,0,0,1-.555.211H68.136a1.211,1.211,0,0,1-.766-.211,1.637,1.637,0,0,1-.461-.786,4.662,4.662,0,0,0-1.686-2.741,5.275,5.275,0,0,0-3.03-.786q-4.522,0-4.676,5.061-.039,1.034-.039,3.182t.039,3.259q.152,5.059,4.676,5.061a5.262,5.262,0,0,0,3.067-.825,4.394,4.394,0,0,0,1.649-2.7,1.454,1.454,0,0,1,.421-.786,1.294,1.294,0,0,1,.8-.211h5.176a.848.848,0,0,1,.594.229.65.65,0,0,1,.211.575,8.162,8.162,0,0,1-1.591,4.888A9.942,9.942,0,0,1,68.291,95.8a15.478,15.478,0,0,1-6.057,1.131Q56.749,96.93,53.665,94.266Z" transform="translate(-2.388 -69.327)" fill="#171717"/>
          <path id="Path_118055" data-name="Path 118055" d="M81.517,94.285q-3.105-2.645-3.3-7.783-.039-1.112-.038-3.3,0-2.223.038-3.336a10.312,10.312,0,0,1,3.354-7.8,12.461,12.461,0,0,1,8.453-2.742A12.535,12.535,0,0,1,98.5,72.068a10.17,10.17,0,0,1,3.335,7.8q.077,2.225.078,3.336,0,1.071-.078,3.3-.192,5.138-3.3,7.783T90.027,96.93Q84.623,96.93,81.517,94.285Zm11.865-4.14A5.568,5.568,0,0,0,94.7,86.273q.077-2.223.076-3.145,0-.994-.076-3.143a5.516,5.516,0,0,0-1.342-3.872,4.507,4.507,0,0,0-3.335-1.264,4.441,4.441,0,0,0-3.316,1.264,5.7,5.7,0,0,0-1.36,3.872q-.039,1.074-.039,3.143,0,2.034.039,3.145a5.749,5.749,0,0,0,1.342,3.872,4.433,4.433,0,0,0,3.335,1.265A4.5,4.5,0,0,0,93.382,90.145Z" transform="translate(-4.268 -69.327)" fill="#171717"/>
          <path id="Path_118056" data-name="Path 118056" d="M112.974,96.287a.916.916,0,0,1-.287-.67V75.757h-6.825a.982.982,0,0,1-.958-.958V70.7a.905.905,0,0,1,.287-.689.948.948,0,0,1,.67-.269h20.626a.918.918,0,0,1,.959.958v4.1a.918.918,0,0,1-.959.958h-6.823V95.616a.954.954,0,0,1-.269.67.9.9,0,0,1-.691.287h-5.061A.916.916,0,0,1,112.974,96.287Z" transform="translate(-6.072 -69.355)" fill="#171717"/>
          <path id="Path_118057" data-name="Path 118057" d="M132.08,96.287a.92.92,0,0,1-.288-.67V70.7a.9.9,0,0,1,.288-.689.949.949,0,0,1,.671-.269h17.9a.92.92,0,0,1,.958.958v3.6a.945.945,0,0,1-.269.671.9.9,0,0,1-.689.288h-12.23v5.176H149.81a.9.9,0,0,1,.689.287.992.992,0,0,1,.269.708v3.336a.948.948,0,0,1-.269.671.9.9,0,0,1-.689.287H138.425v5.328H150.96a.92.92,0,0,1,.96.958v3.6a.954.954,0,0,1-.269.67.9.9,0,0,1-.691.287H132.752A.918.918,0,0,1,132.08,96.287Z" transform="translate(-7.887 -69.355)" fill="#171717"/>
          <path id="Path_118058" data-name="Path 118058" d="M159.159,94.266q-3.086-2.666-3.278-7.725c-.026-.692-.038-1.815-.038-3.375q0-2.376.038-3.45a10.126,10.126,0,0,1,3.335-7.686q3.143-2.7,8.511-2.7a15.478,15.478,0,0,1,6.057,1.131,9.962,9.962,0,0,1,4.235,3.22,8.171,8.171,0,0,1,1.591,4.889v.076a.651.651,0,0,1-.25.518.834.834,0,0,1-.555.211H173.63a1.211,1.211,0,0,1-.766-.211,1.644,1.644,0,0,1-.461-.786,4.662,4.662,0,0,0-1.686-2.741,5.275,5.275,0,0,0-3.03-.786q-4.522,0-4.676,5.061-.039,1.034-.039,3.182t.039,3.259q.152,5.059,4.676,5.061a5.262,5.262,0,0,0,3.067-.825,4.394,4.394,0,0,0,1.649-2.7,1.455,1.455,0,0,1,.421-.786,1.294,1.294,0,0,1,.8-.211h5.176a.847.847,0,0,1,.594.229.65.65,0,0,1,.211.575,8.162,8.162,0,0,1-1.591,4.888,9.942,9.942,0,0,1-4.235,3.221,15.478,15.478,0,0,1-6.057,1.131Q162.243,96.93,159.159,94.266Z" transform="translate(-9.511 -69.327)" fill="#171717"/>
          <path id="Path_118059" data-name="Path 118059" d="M184.888,96.306a.937.937,0,0,1-.269-.69V70.7a.9.9,0,0,1,.289-.689.946.946,0,0,1,.67-.269h4.945a1,1,0,0,1,.71.269.9.9,0,0,1,.287.689v9.24h9.431V70.7a.92.92,0,0,1,.958-.958h4.945a.92.92,0,0,1,.96.958v24.92a.918.918,0,0,1-.96.958h-4.945a.918.918,0,0,1-.958-.958V86.07H191.52v9.547a.9.9,0,0,1-.287.69,1,1,0,0,1-.71.268h-4.945A.933.933,0,0,1,184.888,96.306Z" transform="translate(-11.454 -69.355)" fill="#171717"/>
        </g>
        <g id="Group_177702" data-name="Group 177702" transform="translate(95.412 38.105)">
          <path id="Path_118060" data-name="Path 118060" d="M53.1,119.624a.294.294,0,0,1-.08-.215v-8.271h-2.65a.275.275,0,0,1-.294-.295v-.2a.313.313,0,0,1,.079-.221.279.279,0,0,1,.214-.087H56.5a.279.279,0,0,1,.308.308v.2a.278.278,0,0,1-.087.214.314.314,0,0,1-.221.08H53.865v8.271a.282.282,0,0,1-.088.215.313.313,0,0,1-.221.079h-.241A.291.291,0,0,1,53.1,119.624Z" transform="translate(-50.077 -110.201)" fill="#171717"/>
          <path id="Path_118061" data-name="Path 118061" d="M58.267,119.615a.291.291,0,0,1-.08-.215v-8.914a.288.288,0,0,1,.08-.214.292.292,0,0,1,.214-.08h.228a.276.276,0,0,1,.294.295v3.172a2.766,2.766,0,0,1,.918-.79,2.887,2.887,0,0,1,1.332-.268,2.5,2.5,0,0,1,2.021.836,3.228,3.228,0,0,1,.71,2.162v3.8a.294.294,0,0,1-.08.215.29.29,0,0,1-.214.079H63.46a.289.289,0,0,1-.214-.079.294.294,0,0,1-.08-.215v-3.734a2.474,2.474,0,0,0-.529-1.687,1.917,1.917,0,0,0-1.52-.6,2.018,2.018,0,0,0-1.539.609,2.347,2.347,0,0,0-.576,1.68V119.4a.275.275,0,0,1-.294.295h-.228A.292.292,0,0,1,58.267,119.615Z" transform="translate(-50.625 -110.191)" fill="#171717"/>
          <path id="Path_118062" data-name="Path 118062" d="M66.806,119.166a3.582,3.582,0,0,1-.884-2.243l-.013-.535.013-.535a3.623,3.623,0,0,1,.877-2.235,2.646,2.646,0,0,1,2.055-.843,2.7,2.7,0,0,1,2.175.923,3.79,3.79,0,0,1,.783,2.53v.2a.274.274,0,0,1-.088.214.313.313,0,0,1-.22.08H66.739v.134a2.967,2.967,0,0,0,.287,1.171,2.221,2.221,0,0,0,.73.87,1.867,1.867,0,0,0,1.1.327,2.24,2.24,0,0,0,1.2-.287,2.2,2.2,0,0,0,.663-.582.949.949,0,0,1,.181-.2.421.421,0,0,1,.22-.04h.214a.3.3,0,0,1,.2.067.215.215,0,0,1,.08.174,1.113,1.113,0,0,1-.354.675,2.937,2.937,0,0,1-.984.683,3.367,3.367,0,0,1-1.418.288A2.661,2.661,0,0,1,66.806,119.166Zm4.189-3.193v-.053a2.5,2.5,0,0,0-.582-1.7,1.964,1.964,0,0,0-1.559-.67,1.923,1.923,0,0,0-1.546.67,2.531,2.531,0,0,0-.569,1.7v.053Z" transform="translate(-51.146 -110.365)" fill="#171717"/>
          <path id="Path_118063" data-name="Path 118063" d="M77.386,119.624a.291.291,0,0,1-.08-.215v-8.766a.31.31,0,0,1,.08-.221.278.278,0,0,1,.214-.087h.281a.323.323,0,0,1,.281.16l4.939,7.549v-7.4a.314.314,0,0,1,.08-.221.277.277,0,0,1,.214-.087h.241a.279.279,0,0,1,.308.308V119.4a.31.31,0,0,1-.08.221.278.278,0,0,1-.214.087h-.295a.325.325,0,0,1-.281-.16l-4.925-7.522v7.388a.281.281,0,0,1-.087.215.315.315,0,0,1-.221.079H77.6A.29.29,0,0,1,77.386,119.624Z" transform="translate(-51.915 -110.201)" fill="#171717"/>
          <path id="Path_118064" data-name="Path 118064" d="M87.088,119.166a3.576,3.576,0,0,1-.883-2.243l-.014-.535.014-.535a3.617,3.617,0,0,1,.876-2.235,2.646,2.646,0,0,1,2.055-.843,2.7,2.7,0,0,1,2.175.923,3.79,3.79,0,0,1,.783,2.53v.2a.277.277,0,0,1-.087.214.316.316,0,0,1-.221.08H87.021v.134a2.968,2.968,0,0,0,.287,1.171,2.221,2.221,0,0,0,.73.87,1.868,1.868,0,0,0,1.1.327,2.24,2.24,0,0,0,1.2-.287,2.2,2.2,0,0,0,.663-.582.949.949,0,0,1,.181-.2.425.425,0,0,1,.221-.04h.214a.3.3,0,0,1,.2.067.217.217,0,0,1,.08.174,1.116,1.116,0,0,1-.355.675,2.937,2.937,0,0,1-.984.683,3.367,3.367,0,0,1-1.418.288A2.662,2.662,0,0,1,87.088,119.166Zm4.19-3.193v-.053a2.492,2.492,0,0,0-.583-1.7,1.963,1.963,0,0,0-1.559-.67,1.923,1.923,0,0,0-1.546.67,2.531,2.531,0,0,0-.569,1.7v.053Z" transform="translate(-52.515 -110.365)" fill="#171717"/>
          <path id="Path_118065" data-name="Path 118065" d="M95.371,119.8a.634.634,0,0,1-.161-.255l-1.886-6.211-.027-.147a.276.276,0,0,1,.268-.268h.255a.308.308,0,0,1,.2.067.253.253,0,0,1,.094.134l1.646,5.568,1.753-5.5a.362.362,0,0,1,.12-.187.357.357,0,0,1,.242-.081h.268a.354.354,0,0,1,.241.081.364.364,0,0,1,.121.187l1.753,5.5,1.646-5.568a.254.254,0,0,1,.094-.134.306.306,0,0,1,.2-.067h.255a.276.276,0,0,1,.268.268l-.027.147-1.886,6.211a.634.634,0,0,1-.161.255.4.4,0,0,1-.268.079h-.228a.426.426,0,0,1-.455-.334l-1.687-5.274-1.686,5.274a.426.426,0,0,1-.455.334h-.228A.4.4,0,0,1,95.371,119.8Z" transform="translate(-52.995 -110.375)" fill="#171717"/>
          <path id="Path_118066" data-name="Path 118066" d="M109.036,119.631a.443.443,0,0,1-.129-.248l-1.833-8.62-.026-.16a.274.274,0,0,1,.268-.268h.281c.17,0,.268.067.294.2l1.567,7.63,1.66-5.449a.411.411,0,0,1,.414-.308h.3a.41.41,0,0,1,.414.308l1.66,5.449,1.567-7.63c.026-.133.124-.2.294-.2h.282a.256.256,0,0,1,.187.08.253.253,0,0,1,.08.187l-.026.16-1.834,8.62a.443.443,0,0,1-.129.248.369.369,0,0,1-.246.073h-.2a.412.412,0,0,1-.416-.321l-1.78-5.648-1.78,5.648a.4.4,0,0,1-.416.321h-.2A.371.371,0,0,1,109.036,119.631Z" transform="translate(-53.923 -110.201)" fill="#171717"/>
          <path id="Path_118067" data-name="Path 118067" d="M118.622,119.152a3.308,3.308,0,0,1-.81-2.2l-.013-.562.013-.561a3.313,3.313,0,0,1,.81-2.2,3.175,3.175,0,0,1,4.323,0,3.307,3.307,0,0,1,.809,2.2c.008.089.014.276.014.561s-.006.474-.014.562a3.3,3.3,0,0,1-.809,2.2,3.172,3.172,0,0,1-4.323,0Zm3.694-.535a2.545,2.545,0,0,0,.623-1.733c.008-.09.013-.255.013-.5s0-.406-.013-.5a2.549,2.549,0,0,0-.623-1.733,2.233,2.233,0,0,0-3.065,0,2.553,2.553,0,0,0-.622,1.733l-.013.5.013.5a2.549,2.549,0,0,0,.622,1.733,2.233,2.233,0,0,0,3.065,0Z" transform="translate(-54.649 -110.365)" fill="#171717"/>
          <path id="Path_118068" data-name="Path 118068" d="M125.889,119.8a.294.294,0,0,1-.08-.215v-6.357a.314.314,0,0,1,.08-.221.278.278,0,0,1,.214-.088h.214a.3.3,0,0,1,.309.309v.615a1.861,1.861,0,0,1,1.82-.924h.5a.285.285,0,0,1,.214.081.29.29,0,0,1,.081.214v.187a.293.293,0,0,1-.081.214.288.288,0,0,1-.214.08h-.576a1.616,1.616,0,0,0-1.739,1.74v4.149a.282.282,0,0,1-.088.215.314.314,0,0,1-.221.079H126.1A.29.29,0,0,1,125.889,119.8Z" transform="translate(-55.19 -110.375)" fill="#171717"/>
          <path id="Path_118069" data-name="Path 118069" d="M130.539,119.615a.294.294,0,0,1-.079-.215v-8.914a.275.275,0,0,1,.294-.295h.228a.291.291,0,0,1,.214.08.288.288,0,0,1,.08.214v4.738l2.985-2.262a1.857,1.857,0,0,1,.295-.194.759.759,0,0,1,.269-.034h.254a.254.254,0,0,1,.268.268.337.337,0,0,1-.174.269l-3.386,2.569,3.721,3.32c.117.107.174.2.174.268a.253.253,0,0,1-.269.268H135.2a.611.611,0,0,1-.562-.228l-3.36-2.984V119.4a.275.275,0,0,1-.294.295h-.228A.293.293,0,0,1,130.539,119.615Z" transform="translate(-55.504 -110.191)" fill="#171717"/>
          <path id="Path_118070" data-name="Path 118070" d="M140.514,119.624a.294.294,0,0,1-.08-.215v-8.766a.314.314,0,0,1,.08-.221.275.275,0,0,1,.214-.087h5.221a.278.278,0,0,1,.307.308v.2a.274.274,0,0,1-.087.214.312.312,0,0,1-.22.08h-4.672v3.413h4.376a.281.281,0,0,1,.309.308v.2a.278.278,0,0,1-.088.214.311.311,0,0,1-.221.081h-4.376V118.9h4.778a.281.281,0,0,1,.309.309v.2a.282.282,0,0,1-.088.215.315.315,0,0,1-.221.079h-5.327A.288.288,0,0,1,140.514,119.624Z" transform="translate(-56.177 -110.201)" fill="#171717"/>
          <path id="Path_118071" data-name="Path 118071" d="M148.465,119.8a.294.294,0,0,1-.08-.215v-6.357a.314.314,0,0,1,.08-.221.282.282,0,0,1,.215-.088h.214a.3.3,0,0,1,.308.309v.615a1.862,1.862,0,0,1,1.82-.924h.5a.277.277,0,0,1,.294.295v.187a.276.276,0,0,1-.294.295h-.576a1.616,1.616,0,0,0-1.74,1.74v4.149a.281.281,0,0,1-.087.215.315.315,0,0,1-.221.079h-.214A.294.294,0,0,1,148.465,119.8Z" transform="translate(-56.714 -110.375)" fill="#171717"/>
          <path id="Path_118072" data-name="Path 118072" d="M153.552,119.735a2.3,2.3,0,0,1-.877-.723,1.677,1.677,0,0,1-.328-1,1.756,1.756,0,0,1,.717-1.445A3.907,3.907,0,0,1,155,115.84l2.116-.295v-.468a1.429,1.429,0,0,0-.448-1.131,2.036,2.036,0,0,0-1.373-.4,2.105,2.105,0,0,0-1.118.269,1.206,1.206,0,0,0-.555.642.473.473,0,0,1-.127.221.294.294,0,0,1-.194.061h-.187a.3.3,0,0,1-.295-.295,1.287,1.287,0,0,1,.268-.689,2.226,2.226,0,0,1,.83-.69,2.95,2.95,0,0,1,1.378-.294,2.6,2.6,0,0,1,2.035.683,2.42,2.42,0,0,1,.6,1.66v4.456a.276.276,0,0,1-.295.295h-.228a.274.274,0,0,1-.294-.295v-.628a2.37,2.37,0,0,1-.863.75,3.167,3.167,0,0,1-1.506.308A2.687,2.687,0,0,1,153.552,119.735Zm2.932-1.151a2.538,2.538,0,0,0,.629-1.848v-.454l-1.728.241a4.145,4.145,0,0,0-1.659.508,1.073,1.073,0,0,0-.047,1.861,2.325,2.325,0,0,0,2.8-.308Z" transform="translate(-56.982 -110.365)" fill="#171717"/>
        </g>
      </g>
    </g>
    <g id="Group_177705" data-name="Group 177705" transform="translate(208.433 45.046)">
      <path id="Path_118073" data-name="Path 118073" d="M126.661,50.044,114.075,61.069,98.045,51.1,110.668,40.2Z" transform="translate(-80.916 -2.633)" fill="#3cdc82"/>
      <path id="Path_118074" data-name="Path 118074" d="M108.292,37.866,95.706,48.891l-16.03-9.972L92.3,28.024Z" transform="translate(-79.676 -1.811)" fill="#3cdc82"/>
      <path id="Path_118075" data-name="Path 118075" d="M116.027,34.149l-9.656-1.937,14.447-13.155,6.3,4.432Z" transform="translate(-81.479 -1.206)" fill="#3cdc82"/>
      <path id="Path_118076" data-name="Path 118076" d="M124.664,34.74,112.078,45.765l-32.4-21.257L92.3,13.614Z" transform="translate(-79.676 -0.838)" fill="#1e1e1e"/>
      <path id="Path_118077" data-name="Path 118077" d="M116.289,15.528,103.7,26.552,79.676,10.808,92.3-.087Z" transform="translate(-79.676 0.087)" fill="#3cdc82"/>
    </g>
  </g>
</svg>
