<svg xmlns="http://www.w3.org/2000/svg" width="99.24" height="126.039" viewBox="0 0 99.24 126.039">
  <g id="Group_177947" data-name="Group 177947" transform="translate(494.409 -2067.552)">
    <path id="Path_117976" data-name="Path 117976" d="M-460.919,2151.108l-32.129-18.555.025-6.432,32.128,18.557Z" transform="translate(-0.456 -19.641)" fill="#c1edc2" fill-rule="evenodd"/>
    <path id="Path_117977" data-name="Path 117977" d="M-492.6,2131.591l30.322,17.51.015-4.339-30.323-17.51-.015,4.34Zm31.221,19.98a.95.95,0,0,1-.453-.123l-32.126-18.556a.926.926,0,0,1-.454-.792l.025-6.432a.888.888,0,0,1,.454-.762.808.808,0,0,1,.9,0l32.125,18.549a.9.9,0,0,1,.455.793l-.028,6.408a.906.906,0,0,1-.451.792A.956.956,0,0,1-461.376,2151.57Z" transform="translate(0 -19.187)" fill="#527e53" fill-rule="evenodd"/>
    <path id="Path_117978" data-name="Path 117978" d="M-404.028,2076.777l29.867,17.256-2.792,1.607-27.074-15.625Z" transform="translate(-30.309 -3.094)" fill="#fff" fill-rule="evenodd"/>
    <path id="Path_117979" data-name="Path 117979" d="M-403.583,2079.036l26.171,15.11.984-.562-27.155-15.672v1.123Zm26.171,17.071a1.017,1.017,0,0,1-.454-.123l-27.07-15.648a.887.887,0,0,1-.457-.769v-3.239a.876.876,0,0,1,.457-.762.858.858,0,0,1,.9,0l29.873,17.248a.891.891,0,0,1,.446.77.9.9,0,0,1-.446.792l-2.8,1.607A1.008,1.008,0,0,1-377.412,2096.107Z" transform="translate(-29.851 -2.645)" fill="#527e53" fill-rule="evenodd"/>
    <path id="Path_117980" data-name="Path 117980" d="M-486.868,2111.2l-2.8-1.607,56.919-32.82v3.239Z" transform="translate(-1.591 -3.094)" fill="#fff" fill-rule="evenodd"/>
    <path id="Path_117981" data-name="Path 117981" d="M-488.313,2109.148l.988.592,53.213-30.7v-1.123l-54.2,31.235Zm.988,2.531a.924.924,0,0,1-.451-.131l-2.8-1.607a.9.9,0,0,1-.454-.792.885.885,0,0,1,.454-.761l56.919-32.82a.861.861,0,0,1,.9,0,.874.874,0,0,1,.453.762v3.239a.95.95,0,0,1-.455.792l-54.121,31.188A.912.912,0,0,1-487.324,2111.678Z" transform="translate(-1.134 -2.645)" fill="#527e53" fill-rule="evenodd"/>
    <path id="Path_117982" data-name="Path 117982" d="M-458.844,2128.765l-28.036-16.21,55.049-31.75,28.039,16.21Z" transform="translate(-2.525 -4.444)" fill="#fff" fill-rule="evenodd"/>
    <path id="Path_117983" data-name="Path 117983" d="M-485.527,2112.108l26.226,15.164,53.237-30.7-26.224-15.163-53.24,30.7Zm26.226,17.1a1.042,1.042,0,0,1-.451-.122l-28.036-16.188a.915.915,0,0,1-.453-.792.911.911,0,0,1,.453-.784l55.05-31.728a.881.881,0,0,1,.9,0l28.034,16.179a.907.907,0,0,1,.454.792.937.937,0,0,1-.454.792l-55.044,31.728A1.063,1.063,0,0,1-459.3,2129.209Z" transform="translate(-2.069 -3.998)" fill="#527e53" fill-rule="evenodd"/>
    <path id="Path_117984" data-name="Path 117984" d="M-460.883,2127.485l-32.128-18.556,59.1-34.073,32.129,18.555Z" transform="translate(-0.469 -2.45)" fill="#fff" fill-rule="evenodd"/>
    <path id="Path_117985" data-name="Path 117985" d="M-491.655,2108.475l30.315,17.51,57.3-33.028-30.322-17.51-57.29,33.028Zm30.315,19.479a.95.95,0,0,1-.451-.131l-32.128-18.556a.9.9,0,0,1-.454-.792.88.88,0,0,1,.454-.762l59.1-34.073a.807.807,0,0,1,.905,0l32.121,18.547a.885.885,0,0,1,.455.77.891.891,0,0,1-.455.792l-59.1,34.074A.948.948,0,0,1-461.34,2127.954Z" transform="translate(-0.012 -1.995)" fill="#527e53" fill-rule="evenodd"/>
    <path id="Path_117986" data-name="Path 117986" d="M-460.328,2168.03l-31-17.918-.024-3.678,30.992,17.918Z" transform="translate(-1.024 -26.453)" fill="#c1edc2" fill-rule="evenodd"/>
    <path id="Path_117987" data-name="Path 117987" d="M-490.888,2149.141l29.183,16.849-.019-1.554-29.177-16.871.012,1.576Zm30.1,19.325a.744.744,0,0,1-.451-.131l-31-17.886a.948.948,0,0,1-.454-.792l-.025-3.655a.888.888,0,0,1,.451-.792.841.841,0,0,1,.908,0l30.993,17.895a.945.945,0,0,1,.454.792l.033,3.646a.89.89,0,0,1-.451.792A.756.756,0,0,1-460.785,2168.467Z" transform="translate(-0.567 -25.998)" fill="#527e53" fill-rule="evenodd"/>
    <path id="Path_117988" data-name="Path 117988" d="M-460.352,2161.123l-31-17.918.024-6.4,31,17.886Z" transform="translate(-1.024 -23.224)" fill="#3cdc82" fill-rule="evenodd"/>
    <path id="Path_117989" data-name="Path 117989" d="M-490.905,2142.23l29.2,16.871.015-4.346-29.2-16.864-.015,4.338Zm30.1,19.319a.927.927,0,0,1-.453-.1l-31-17.918a.9.9,0,0,1-.454-.792l.025-6.432a.9.9,0,0,1,.454-.769.877.877,0,0,1,.9,0l31,17.917a.887.887,0,0,1,.455.769l-.028,6.432a.935.935,0,0,1-.451.792A.93.93,0,0,1-460.809,2161.549Z" transform="translate(-0.567 -22.758)" fill="#527e53" fill-rule="evenodd"/>
    <path id="Path_117990" data-name="Path 117990" d="M-444.7,2153.278l.021-6.432,58-33.435-.023,6.432Z" transform="translate(-16.669 -15.379)" fill="#c1edc2" fill-rule="evenodd"/>
    <path id="Path_117991" data-name="Path 117991" d="M-444.239,2146.919l-.015,4.346,56.194-32.419.015-4.331-56.195,32.4Zm-.923,6.794a.941.941,0,0,1-.457-.1.936.936,0,0,1-.451-.793l.023-6.432a.94.94,0,0,1,.454-.792l58-33.434a.951.951,0,0,1,.909,0,.947.947,0,0,1,.454.792l-.023,6.432a.851.851,0,0,1-.454.761l-58,33.466A.939.939,0,0,1-445.162,2153.713Z" transform="translate(-16.211 -14.921)" fill="#527e53" fill-rule="evenodd"/>
    <path id="Path_117992" data-name="Path 117992" d="M-460.352,2176.317l-31-17.917.024-6.432,31,17.917Z" transform="translate(-1.024 -28.309)" fill="#3cdc82" fill-rule="evenodd"/>
    <path id="Path_117993" data-name="Path 117993" d="M-490.905,2157.4l29.2,16.872.015-4.34-29.2-16.871-.015,4.34Zm30.1,19.348a.953.953,0,0,1-.453-.131l-31-17.887a.973.973,0,0,1-.454-.792l.025-6.431a.937.937,0,0,1,.454-.792.937.937,0,0,1,.9,0l31,17.918a.9.9,0,0,1,.455.792l-.028,6.431a.893.893,0,0,1-.451.761A.96.96,0,0,1-460.809,2176.751Z" transform="translate(-0.567 -27.851)" fill="#527e53" fill-rule="evenodd"/>
    <path id="Path_117994" data-name="Path 117994" d="M-444.7,2168.472l.021-6.431,58-33.466-.023,6.431Z" transform="translate(-16.669 -20.464)" fill="#c1edc2" fill-rule="evenodd"/>
    <path id="Path_117995" data-name="Path 117995" d="M-444.239,2162.1l-.015,4.34,56.194-32.389.015-4.339-56.195,32.388Zm-.923,6.817a.964.964,0,0,1-.457-.131.906.906,0,0,1-.451-.792l.023-6.4a.911.911,0,0,1,.454-.792l58-33.436a.85.85,0,0,1,.909,0,.911.911,0,0,1,.454.793l-.023,6.4a.889.889,0,0,1-.454.792l-58,33.435A.967.967,0,0,1-445.162,2168.913Z" transform="translate(-16.211 -20.013)" fill="#527e53" fill-rule="evenodd"/>
    <path id="Path_117996" data-name="Path 117996" d="M-460.352,2191.491l-31-17.887.024-6.439,31,17.9Z" transform="translate(-1.024 -33.405)" fill="#3cdc82" fill-rule="evenodd"/>
    <path id="Path_117997" data-name="Path 117997" d="M-490.905,2172.612l29.2,16.871.015-4.339-29.2-16.871-.015,4.339Zm30.1,19.349a.964.964,0,0,1-.453-.131l-31-17.917a.889.889,0,0,1-.454-.793l.025-6.408a.9.9,0,0,1,.454-.784.934.934,0,0,1,.9,0l31,17.918a.874.874,0,0,1,.455.785l-.028,6.408a.907.907,0,0,1-.451.793A.972.972,0,0,1-460.809,2191.961Z" transform="translate(-0.567 -32.951)" fill="#527e53" fill-rule="evenodd"/>
    <path id="Path_117998" data-name="Path 117998" d="M-444.7,2183.65l.021-6.431,58-33.435-.023,6.432Z" transform="translate(-16.669 -25.564)" fill="#c1edc2" fill-rule="evenodd"/>
    <path id="Path_117999" data-name="Path 117999" d="M-444.239,2177.3l-.015,4.339,56.194-32.419.015-4.308-56.195,32.389Zm-.923,6.817a.97.97,0,0,1-.457-.131.907.907,0,0,1-.451-.793l.023-6.431a.879.879,0,0,1,.454-.761l58-33.466a.95.95,0,0,1,.909,0,.948.948,0,0,1,.454.792l-.023,6.432a.936.936,0,0,1-.454.792l-58,33.435A.974.974,0,0,1-445.162,2184.116Z" transform="translate(-16.211 -25.107)" fill="#527e53" fill-rule="evenodd"/>
    <path id="Path_118000" data-name="Path 118000" d="M-460.352,2228.046l-31-17.918.024-12.579,31,17.911Z" transform="translate(-1.024 -43.595)" fill="#3cdc82" fill-rule="evenodd"/>
    <path id="Path_118001" data-name="Path 118001" d="M-490.909,2209.162l29.2,16.849.023-10.494-29.2-16.871-.024,10.517Zm30.1,19.318a1.034,1.034,0,0,1-.453-.123l-31-17.894a.925.925,0,0,1-.454-.793l.025-12.578a.929.929,0,0,1,.454-.792.935.935,0,0,1,.9,0l31,17.917a.894.894,0,0,1,.455.785l-.028,12.586a.891.891,0,0,1-.451.769A1.042,1.042,0,0,1-460.809,2228.48Z" transform="translate(-0.567 -43.137)" fill="#527e53" fill-rule="evenodd"/>
    <path id="Path_118002" data-name="Path 118002" d="M-444.7,2220.2l.024-12.586,58-33.459-.023,12.609Z" transform="translate(-16.669 -35.75)" fill="#c1edc2" fill-rule="evenodd"/>
    <path id="Path_118003" data-name="Path 118003" d="M-444.236,2207.679l-.021,10.494,56.2-32.4.015-10.486-56.191,32.388Zm-.926,12.963a.753.753,0,0,1-.457-.123.9.9,0,0,1-.451-.769l.027-12.586a.9.9,0,0,1,.453-.785l58-33.436a.848.848,0,0,1,.909,0,.889.889,0,0,1,.454.762l-.023,12.609a.9.9,0,0,1-.454.769l-58,33.435A.751.751,0,0,1-445.162,2220.642Z" transform="translate(-16.211 -35.299)" fill="#527e53" fill-rule="evenodd"/>
    <path id="Path_118004" data-name="Path 118004" d="M-460.367,2206.635l-.027-6.4-30.939-17.895-.024,6.432C-475.2,2198.112-476.511,2197.35-460.367,2206.635Z" transform="translate(-1.024 -38.494)" fill="#3cdc82" fill-rule="evenodd"/>
    <path id="Path_118005" data-name="Path 118005" d="M-490.905,2187.8c12.934,7.485,14.425,8.323,23.537,13.586l5.634,3.239-.019-4.34-29.138-16.817-.015,4.332Zm30.082,19.3a.968.968,0,0,1-.453-.13l-7-4.031c-9.214-5.309-10.635-6.123-23.991-13.833a.9.9,0,0,1-.454-.792l.025-6.432a.9.9,0,0,1,.454-.769.827.827,0,0,1,.9,0l30.939,17.87a.88.88,0,0,1,.457.762l.024,6.432a.906.906,0,0,1-.451.792A.968.968,0,0,1-460.823,2207.1Z" transform="translate(-0.567 -38.039)" fill="#527e53" fill-rule="evenodd"/>
    <path id="Path_118006" data-name="Path 118006" d="M-483.48,2116a.928.928,0,0,1-.781-.454.924.924,0,0,1,.33-1.254l52.435-30.273a.9.9,0,0,1,.9.031l26.157,15.086a.921.921,0,0,1,.33,1.246.928.928,0,0,1-1.238.331l-25.7-14.855-51.982,30.018A.962.962,0,0,1-483.48,2116Z" transform="translate(-3.362 -5.486)" fill="#527e53" fill-rule="evenodd"/>
    <path id="Path_118007" data-name="Path 118007" d="M-444.745,2198.807l-.027-6.4,58.024-33.413-.023,6.432Z" transform="translate(-16.646 -30.665)" fill="#c1edc2" fill-rule="evenodd"/>
    <path id="Path_118008" data-name="Path 118008" d="M-444.321,2192.458l.018,4.34,56.168-32.367.016-4.308-56.2,32.335Zm-.88,6.817a.974.974,0,0,1-.453-.131.9.9,0,0,1-.451-.762l-.027-6.431a.876.876,0,0,1,.457-.793l58.019-33.381a.813.813,0,0,1,.907,0,.87.87,0,0,1,.446.762l-.023,6.431a.944.944,0,0,1-.454.792l-57.969,33.382A.957.957,0,0,1-445.2,2199.275Z" transform="translate(-16.189 -30.211)" fill="#527e53" fill-rule="evenodd"/>
    <path id="Path_118009" data-name="Path 118009" d="M-444.673,2160.189l57.958-33.489.023-3.647-57.945,33.458Z" transform="translate(-16.679 -18.612)" fill="#fff" fill-rule="evenodd"/>
    <path id="Path_118010" data-name="Path 118010" d="M-444.192,2156.593l-.017,1.554,56.138-32.412.008-1.585-56.128,32.443Zm-.938,4.031a.77.77,0,0,1-.457-.131.892.892,0,0,1-.447-.792l.037-3.646a.932.932,0,0,1,.457-.792l57.947-33.458a.934.934,0,0,1,.9,0,.89.89,0,0,1,.454.792l-.031,3.669a.882.882,0,0,1-.453.77l-57.954,33.458A.743.743,0,0,1-445.129,2160.623Z" transform="translate(-16.223 -18.155)" fill="#527e53" fill-rule="evenodd"/>
    <path id="Path_118011" data-name="Path 118011" d="M-460.328,2183.209l-31-17.9-.024-3.669,30.992,17.917Z" transform="translate(-1.024 -31.554)" fill="#c1edc2" fill-rule="evenodd"/>
    <path id="Path_118012" data-name="Path 118012" d="M-490.888,2164.325-461.7,2181.2l-.019-1.585-29.177-16.848.012,1.561Zm30.1,19.349a.953.953,0,0,1-.451-.131l-31-17.918a.9.9,0,0,1-.454-.77l-.025-3.67a.916.916,0,0,1,.451-.792.952.952,0,0,1,.908,0l30.993,17.918a.9.9,0,0,1,.454.761l.033,3.677a.89.89,0,0,1-.451.792A.968.968,0,0,1-460.785,2183.674Z" transform="translate(-0.567 -31.096)" fill="#527e53" fill-rule="evenodd"/>
    <path id="Path_118013" data-name="Path 118013" d="M-444.673,2175.352l57.958-33.458.023-3.677-57.945,33.489Z" transform="translate(-16.679 -23.697)" fill="#fff" fill-rule="evenodd"/>
    <path id="Path_118014" data-name="Path 118014" d="M-444.192,2171.762l-.017,1.585,56.138-32.443.008-1.554-56.128,32.412Zm-.938,4.062a.989.989,0,0,1-.457-.131.892.892,0,0,1-.447-.792l.037-3.678a.894.894,0,0,1,.457-.762L-387.594,2137a.832.832,0,0,1,.9,0,.871.871,0,0,1,.454.762l-.031,3.677a.92.92,0,0,1-.453.792l-57.954,33.458A.951.951,0,0,1-445.129,2175.824Z" transform="translate(-16.223 -23.247)" fill="#527e53" fill-rule="evenodd"/>
    <path id="Path_118015" data-name="Path 118015" d="M-460.328,2198.418l-31-17.917-.024-3.647,30.992,17.886Z" transform="translate(-1.024 -36.655)" fill="#c1edc2" fill-rule="evenodd"/>
    <path id="Path_118016" data-name="Path 118016" d="M-490.888,2179.53l29.183,16.841-.019-1.554-29.177-16.872.012,1.585Zm30.1,19.318a.921.921,0,0,1-.451-.1l-31-17.918a.9.9,0,0,1-.454-.77l-.025-3.669a.873.873,0,0,1,.451-.793.892.892,0,0,1,.908,0l30.993,17.91a.88.88,0,0,1,.454.769l.033,3.678a.947.947,0,0,1-.451.793A.936.936,0,0,1-460.785,2198.847Z" transform="translate(-0.567 -36.192)" fill="#527e53" fill-rule="evenodd"/>
    <path id="Path_118017" data-name="Path 118017" d="M-460.328,2213.6l-31-17.91-.024-3.677,30.992,17.917Z" transform="translate(-1.024 -41.74)" fill="#c1edc2" fill-rule="evenodd"/>
    <path id="Path_118018" data-name="Path 118018" d="M-490.888,2194.7l29.183,16.872-.019-1.585-29.177-16.84.012,1.554Zm30.1,19.349a.951.951,0,0,1-.451-.131l-31-17.887a.949.949,0,0,1-.454-.792l-.025-3.677a.858.858,0,0,1,.451-.761.813.813,0,0,1,.908,0l30.993,17.887a.915.915,0,0,1,.454.792l.033,3.647a.891.891,0,0,1-.451.792A.966.966,0,0,1-460.785,2214.051Z" transform="translate(-0.567 -41.285)" fill="#527e53" fill-rule="evenodd"/>
    <path id="Path_118019" data-name="Path 118019" d="M-444.673,2205.764l57.958-33.482.023-3.646-57.945,33.457Z" transform="translate(-16.679 -33.899)" fill="#fff" fill-rule="evenodd"/>
    <path id="Path_118020" data-name="Path 118020" d="M-444.192,2202.144l-.017,1.585,56.138-32.413.008-1.584-56.128,32.412Zm-.938,4.063a.99.99,0,0,1-.457-.131.894.894,0,0,1-.447-.792l.037-3.647a.9.9,0,0,1,.457-.792l57.947-33.458a.933.933,0,0,1,.9,0,.89.89,0,0,1,.454.792l-.031,3.67a.883.883,0,0,1-.453.769l-57.954,33.458A.951.951,0,0,1-445.129,2206.206Z" transform="translate(-16.223 -33.441)" fill="#527e53" fill-rule="evenodd"/>
    <path id="Path_118021" data-name="Path 118021" d="M-444.673,2190.561l57.958-33.458.023-3.677-57.945,33.458Z" transform="translate(-16.679 -28.798)" fill="#fff" fill-rule="evenodd"/>
    <path id="Path_118022" data-name="Path 118022" d="M-444.192,2186.964l-.017,1.554,56.138-32.412.008-1.585-56.128,32.443Zm-.938,4.031a.955.955,0,0,1-.457-.1.95.95,0,0,1-.447-.793l.037-3.677a.869.869,0,0,1,.457-.769l57.947-33.481a.933.933,0,0,1,.9,0,.919.919,0,0,1,.454.792l-.031,3.678a.88.88,0,0,1-.453.761l-57.954,33.489A.92.92,0,0,1-445.129,2191Z" transform="translate(-16.223 -28.34)" fill="#527e53" fill-rule="evenodd"/>
    <path id="Path_118023" data-name="Path 118023" d="M-460.328,2238.07l-31-17.918-.024-3.678,30.992,17.918Z" transform="translate(-1.024 -49.941)" fill="#c1edc2" fill-rule="evenodd"/>
    <path id="Path_118024" data-name="Path 118024" d="M-490.888,2219.155l29.183,16.872-.019-1.585L-490.9,2217.6l.012,1.554Zm30.1,19.349a.934.934,0,0,1-.451-.131l-31-17.917a.852.852,0,0,1-.454-.762l-.025-3.678a.943.943,0,0,1,.451-.792.95.95,0,0,1,.908,0l30.993,17.917a.908.908,0,0,1,.454.77l.033,3.677a.876.876,0,0,1-.451.784A.949.949,0,0,1-460.785,2238.5Z" transform="translate(-0.567 -49.483)" fill="#527e53" fill-rule="evenodd"/>
    <path id="Path_118025" data-name="Path 118025" d="M-444.673,2230.218l57.958-33.489.023-3.67-57.945,33.482Z" transform="translate(-16.679 -42.089)" fill="#fff" fill-rule="evenodd"/>
    <path id="Path_118026" data-name="Path 118026" d="M-444.192,2226.592l-.017,1.585,56.138-32.412.008-1.585-56.128,32.412Zm-.938,4.063a.975.975,0,0,1-.457-.131.879.879,0,0,1-.447-.784l.037-3.678a.9.9,0,0,1,.457-.769l57.947-33.458a.83.83,0,0,1,.9,0,.891.891,0,0,1,.454.792l-.031,3.647a.893.893,0,0,1-.453.792l-57.954,33.457A.938.938,0,0,1-445.129,2230.655Z" transform="translate(-16.223 -41.634)" fill="#527e53" fill-rule="evenodd"/>
    <path id="Path_118027" data-name="Path 118027" d="M-404.592,2082.245a.911.911,0,0,1-.9-.924v-6.916a.9.9,0,0,1,.9-.893.9.9,0,0,1,.907.893v6.916A.911.911,0,0,1-404.592,2082.245Z" transform="translate(-29.818 -1.999)" fill="#527e53" fill-rule="evenodd"/>
    <path id="Path_118028" data-name="Path 118028" d="M-402.923,2247.6l-7.36-4.23-13.5-7.816.006-4.185,18.193,10.517Z" transform="translate(-23.683 -54.937)" fill="#3cdc82" fill-rule="evenodd"/>
    <path id="Path_118029" data-name="Path 118029" d="M-423.334,2234.6l17.929,10.34-1.339-2.863-16.588-9.593,0,2.115Zm19.957,13.478a.956.956,0,0,1-.451-.131l-20.865-12.039a.906.906,0,0,1-.451-.8l0-4.186a.919.919,0,0,1,.454-.785.939.939,0,0,1,.9,0l18.194,10.509a.922.922,0,0,1,.367.408l2.669,5.716a.9.9,0,0,1-.211,1.054A.931.931,0,0,1-403.378,2248.074Z" transform="translate(-23.228 -54.483)" fill="#527e53" fill-rule="evenodd"/>
    <path id="Path_118030" data-name="Path 118030" d="M-405.586,2233.147l-18.193-10.517,29.95-17.325,18.776,10.847Z" transform="translate(-23.686 -46.196)" fill="#c1edc2" fill-rule="evenodd"/>
    <path id="Path_118031" data-name="Path 118031" d="M-422.429,2222.172l16.393,9.47,28.688-15.971-16.937-9.778-28.144,16.279Zm16.387,11.409a.948.948,0,0,1-.453-.123l-18.191-10.494a.913.913,0,0,1-.454-.792.917.917,0,0,1,.451-.785l29.954-17.333a.943.943,0,0,1,.9,0l18.776,10.848a.887.887,0,0,1,.447.792.9.9,0,0,1-.462.793l-30.532,16.995A.865.865,0,0,1-406.042,2233.581Z" transform="translate(-23.229 -45.738)" fill="#527e53" fill-rule="evenodd"/>
    <path id="Path_118032" data-name="Path 118032" d="M-396.406,2238.62l30.533-17,2.669,5.716-30.536,16.994Z" transform="translate(-32.865 -51.668)" fill="#c1edc2" fill-rule="evenodd"/>
    <path id="Path_118033" data-name="Path 118033" d="M-395.69,2238.543l1.9,4.085,28.949-16.1-1.9-4.116-28.952,16.133Zm1.493,6.225a1.087,1.087,0,0,1-.276-.023.9.9,0,0,1-.541-.485l-2.669-5.716a.907.907,0,0,1,.382-1.177l30.532-16.994a.868.868,0,0,1,.716-.077.887.887,0,0,1,.539.485l2.669,5.747a.879.879,0,0,1-.377,1.146l-30.536,16.994A.867.867,0,0,1-394.2,2244.768Z" transform="translate(-32.409 -51.208)" fill="#527e53" fill-rule="evenodd"/>
    <path id="Path_118034" data-name="Path 118034" d="M-408.475,2196.15l29.239-16.718-14.2-8.193-29.168,16.771Z" transform="translate(-24.08 -34.772)" fill="#fff" fill-rule="evenodd"/>
    <path id="Path_118035" data-name="Path 118035" d="M-421.246,2187.552l12.315,7.094,27.42-15.672-12.382-7.146-27.354,15.724Zm12.313,9.032a.945.945,0,0,1-.455-.1l-14.124-8.14a.9.9,0,0,1-.456-.792.9.9,0,0,1,.456-.769l29.172-16.795a.943.943,0,0,1,.9,0l14.2,8.225a.87.87,0,0,1,.447.761.894.894,0,0,1-.455.793l-29.237,16.717A.925.925,0,0,1-408.933,2196.585Z" transform="translate(-23.622 -34.314)" fill="#527e53" fill-rule="evenodd"/>
    <path id="Path_118036" data-name="Path 118036" d="M-408.463,2228.281l-3.1-1.786V2206.84l-11.007-6.555.02-3.777c4.977,2.961,9.091,5.516,14.083,8.4Z" transform="translate(-24.093 -43.246)" fill="#3cdc82" fill-rule="evenodd"/>
    <path id="Path_118037" data-name="Path 118037" d="M-411.11,2225.526l1.281.738v-21.287c-3.056-1.786-5.8-3.447-8.637-5.155-1.187-.715-2.393-1.455-3.642-2.192l-.012,1.684,10.569,6.3a.891.891,0,0,1,.441.761v19.149Zm2.189,3.216a.956.956,0,0,1-.455-.131l-3.092-1.785a.9.9,0,0,1-.451-.792v-19.141l-10.573-6.278a.929.929,0,0,1-.441-.793l.027-3.8a.887.887,0,0,1,.46-.769.891.891,0,0,1,.908,0c1.749,1.046,3.392,2.046,5.009,3.016,2.967,1.808,5.828,3.524,9.058,5.409a.889.889,0,0,1,.451.769v23.372a.891.891,0,0,1-.451.792A.954.954,0,0,1-408.921,2228.742Z" transform="translate(-23.634 -42.783)" fill="#527e53" fill-rule="evenodd"/>
    <path id="Path_118038" data-name="Path 118038" d="M-363.419,2209.08l-3.093-1.785v-23.381l3.093,1.786Z" transform="translate(-42.89 -39.022)" fill="#3cdc82" fill-rule="evenodd"/>
    <path id="Path_118039" data-name="Path 118039" d="M-366.058,2206.331l1.285.739v-21.287l-1.285-.739v21.287Zm2.185,3.209a.957.957,0,0,1-.454-.124l-3.092-1.784a.9.9,0,0,1-.447-.792v-23.38a.891.891,0,0,1,.447-.769.841.841,0,0,1,.907,0l3.093,1.793a.886.886,0,0,1,.455.762v23.38a.908.908,0,0,1-.455.792A.978.978,0,0,1-363.873,2209.54Z" transform="translate(-42.436 -38.567)" fill="#527e53" fill-rule="evenodd"/>
    <path id="Path_118040" data-name="Path 118040" d="M-398.374,2200.013l23.259-13.271v17.226l2.986-1.709c0-10.109,0-23.48-.023-33.589l-29.236,16.695.028,13.6v19.979l2.987-1.708Z" transform="translate(-31.194 -33.91)" fill="#fff" fill-rule="evenodd"/>
    <path id="Path_118041" data-name="Path 118041" d="M-398.829,2216.78h0Zm-2.108-31.342.022,31.5,1.18-.692v-16.687a.957.957,0,0,1,.458-.792l23.26-13.271a.938.938,0,0,1,.9,0,.938.938,0,0,1,.455.793v15.671l1.177-.692c0-9.517-.008-21.8-.023-31.5l-27.429,15.671Zm-.879,33.974a.958.958,0,0,1-.455-.131.894.894,0,0,1-.453-.792l-.021-33.581a.886.886,0,0,1,.454-.769l29.237-16.718a.939.939,0,0,1,.9,0,.937.937,0,0,1,.454.792c.015,10.11.023,23.48.023,33.589a.938.938,0,0,1-.455.786l-2.985,1.715a.95.95,0,0,1-.908,0,.9.9,0,0,1-.446-.792v-15.671l-21.454,12.248v16.694a.959.959,0,0,1-.451.793l-2.99,1.708A.956.956,0,0,1-401.816,2219.411Z" transform="translate(-30.74 -33.453)" fill="#527e53" fill-rule="evenodd"/>
    <path id="Path_118042" data-name="Path 118042" d="M-400.465,2103.854l-14.229-8.217v-14.671l14.229,8.216Z" transform="translate(-26.732 -4.499)" fill="#c1edc2" fill-rule="evenodd"/>
    <path id="Path_118043" data-name="Path 118043" d="M-414.243,2094.675l12.417,7.17v-12.578l-12.417-7.171v12.579Zm13.323,9.647a.94.94,0,0,1-.451-.131l-14.226-8.217a.893.893,0,0,1-.455-.792v-14.672a.886.886,0,0,1,.455-.769.833.833,0,0,1,.9,0l14.227,8.217a.889.889,0,0,1,.454.769V2103.4a.915.915,0,0,1-.454.792A.94.94,0,0,1-400.92,2104.322Z" transform="translate(-26.277 -4.044)" fill="#527e53" fill-rule="evenodd"/>
    <path id="Path_118044" data-name="Path 118044" d="M-400.465,2085.138l-14.229-8.216,13.592-8.016,14.393,8.324Z" transform="translate(-26.732 -0.454)" fill="#fff" fill-rule="evenodd"/>
    <path id="Path_118045" data-name="Path 118045" d="M-413.353,2076.467l12.433,7.171,11.948-6.862-12.582-7.278-11.8,6.969Zm12.433,9.14a.95.95,0,0,1-.451-.13l-14.226-8.224a.88.88,0,0,1-.455-.762.9.9,0,0,1,.445-.792l13.589-8.009a.812.812,0,0,1,.907,0l14.392,8.293a.892.892,0,0,1,.453.793.9.9,0,0,1-.453.785l-13.752,7.917A.95.95,0,0,1-400.92,2085.607Z" transform="translate(-26.277 0)" fill="#527e53" fill-rule="evenodd"/>
    <path id="Path_118046" data-name="Path 118046" d="M-393.285,2089.338l13.756-7.908-.007,14.671-13.749,7.909Z" transform="translate(-33.912 -4.654)" fill="#fff" fill-rule="evenodd"/>
    <path id="Path_118047" data-name="Path 118047" d="M-392.838,2089.419V2102l11.944-6.893v-12.579l-11.944,6.894Zm-.9,15.055a.956.956,0,0,1-.454-.131.919.919,0,0,1-.452-.792v-14.671a.888.888,0,0,1,.455-.769l13.754-7.932a.95.95,0,0,1,.908,0,.9.9,0,0,1,.445.793v14.671a.882.882,0,0,1-.453.77l-13.752,7.931A.938.938,0,0,1-393.742,2104.474Z" transform="translate(-33.455 -4.196)" fill="#527e53" fill-rule="evenodd"/>
    <path id="Path_118048" data-name="Path 118048" d="M-444.7,2143.279l.021-6.431,59.1-34.074-.03,6.432Z" transform="translate(-16.669 -11.812)" fill="#fff" fill-rule="evenodd"/>
    <path id="Path_118049" data-name="Path 118049" d="M-444.239,2136.931l-.015,4.338,57.294-33.028.007-4.339-57.287,33.028Zm-.923,6.808a.966.966,0,0,1-.457-.123.936.936,0,0,1-.451-.793l.023-6.431a.9.9,0,0,1,.454-.77l59.1-34.074a.845.845,0,0,1,.908,0,.893.893,0,0,1,.447.77l-.023,6.432a.908.908,0,0,1-.455.792l-59.1,34.074A.968.968,0,0,1-445.162,2143.74Z" transform="translate(-16.211 -11.357)" fill="#527e53" fill-rule="evenodd"/>
    <path id="Path_118050" data-name="Path 118050" d="M-394.855,2243.364a.876.876,0,0,1-.791-.462.891.891,0,0,1,.352-1.223l30.537-17a.924.924,0,0,1,1.222.361.89.89,0,0,1-.354,1.223l-30.531,17A.966.966,0,0,1-394.855,2243.364Z" transform="translate(-33.081 -52.658)" fill="#527e53" fill-rule="evenodd"/>
  </g>
</svg>
