<svg xmlns="http://www.w3.org/2000/svg" width="97.956" height="126.039" viewBox="0 0 97.956 126.039">
  <g id="Group_177950" data-name="Group 177950" transform="translate(1579.15 -1369.967)">
    <path id="Path_116589" data-name="Path 116589" d="M-1509.593,1455.146a5.058,5.058,0,0,0-2.452.782,12.366,12.366,0,0,0-4.318,4.568,12.383,12.383,0,0,0-1.8,6.015c0,1.671.5,2.888,1.437,3.426s2.233.369,3.687-.47h0a12.485,12.485,0,0,0,4.309-4.568,12.427,12.427,0,0,0,1.8-6.015c0-1.671-.512-2.888-1.435-3.427a2.413,2.413,0,0,0-1.227-.311Zm-2.956,15.177h0Zm-2.956,1.9a4.332,4.332,0,0,1-2.209-.58c-1.562-.9-2.419-2.729-2.419-5.131a14.4,14.4,0,0,1,2.066-7.006,14.317,14.317,0,0,1,5.031-5.291c2.083-1.2,4.091-1.36,5.653-.471,1.57.907,2.427,2.73,2.427,5.14a14.312,14.312,0,0,1-2.067,7,14.328,14.328,0,0,1-5.031,5.3h0A7.008,7.008,0,0,1-1515.505,1472.222Z" transform="translate(-18.546 -26.148)" fill="#527e53" fill-rule="evenodd"/>
    <path id="Path_116590" data-name="Path 116590" d="M-1496.17,1474.007a.971.971,0,0,1-.5-.135l-6-3.468a.979.979,0,0,1-.361-1.344.973.973,0,0,1,1.345-.362l6.005,3.46a1,1,0,0,1,.361,1.352A.994.994,0,0,1-1496.17,1474.007Z" transform="translate(-23.88 -30.983)" fill="#527e53" fill-rule="evenodd"/>
    <path id="Path_116591" data-name="Path 116591" d="M-1525.595,1489.016a.983.983,0,0,1-.5-.134.987.987,0,0,1-.361-1.343l5.854-10.138a.984.984,0,0,1,1.344-.37.985.985,0,0,1,.361,1.353l-5.845,10.137A.985.985,0,0,1-1525.595,1489.016Z" transform="translate(-16.519 -33.603)" fill="#527e53" fill-rule="evenodd"/>
    <path id="Path_116592" data-name="Path 116592" d="M-1521.627,1409.7c3.629-1.991,7.408-3.158,11.288-1.126-2.822-1.629-6.938-4.568-9.819-4.922-2.965-.369-5.736.714-8.281,2.109-8.8,5.341-15.127,16.1-15.907,26.339l6.818,3.931C-1536.762,1425.8-1530.429,1415.036-1521.627,1409.7Z" transform="translate(-10.937 -10.563)" fill="#3cdc82" fill-rule="evenodd"/>
    <path id="Path_116593" data-name="Path 116593" d="M-1543.758,1431.112l4.946,2.846c1.286-10.237,7.67-20.366,16.22-25.556a.166.166,0,0,0,.041-.026,17.164,17.164,0,0,1,6.51-2.26,14.674,14.674,0,0,0-4.7-1.939c-2.888-.353-5.635.873-7.675,2-8.13,4.93-14.388,15.126-15.346,24.936Zm5.778,5.459a.928.928,0,0,1-.495-.135l-6.812-3.929a1.011,1.011,0,0,1-.5-.933c.815-10.759,7.4-21.652,16.387-27.1,2.344-1.284,5.443-2.687,8.9-2.251,2.46.311,5.519,2.183,8.206,3.848.7.436,1.378.848,1.982,1.2a1,1,0,0,1,.378,1.335,1,1,0,0,1-1.327.4c-2.991-1.562-6.073-1.234-10.331,1.1-8.324,5.065-14.664,15.572-15.412,25.559a1,1,0,0,1-.521.8A1.054,1.054,0,0,1-1537.979,1436.571Z" transform="translate(-10.485 -10.109)" fill="#527e53" fill-rule="evenodd"/>
    <path id="Path_116594" data-name="Path 116594" d="M-1518.651,1399.58l-.008.009-6.812-3.939h.009l6.811,3.93Zm6.627-23.618c-2.066-1.2-6.694-4.283-8.576-4.519-9.256-1.151-19.318,18.83-11.5,23.559l6.812,3.939c-8.568-5.434,4.3-27.683,13.262-22.979Z" transform="translate(-13.905 -0.449)" fill="#c1edc2" fill-rule="evenodd"/>
    <path id="Path_116595" data-name="Path 116595" d="M-1521.845,1371.935c-4.662,0-9.566,5.887-11.574,11.691-1.672,4.788-1.151,8.559,1.378,10.088l2.864,1.654c-1.05-3.7.3-8.634,2.637-12.666,2.351-4.073,6-7.744,9.768-8.625a17.072,17.072,0,0,0-4.409-2.1,4.456,4.456,0,0,0-.664-.042Zm-3.9,27.541a.935.935,0,0,1-.5-.134l-6.812-3.932c-3.4-2.057-4.224-6.7-2.242-12.438,2.411-6.946,8.425-13.673,14.354-12.951,1.562.184,4.234,1.764,7.317,3.644.629.387,1.193.74,1.629.992a.987.987,0,0,1,.378,1.335.99.99,0,0,1-1.319.395c-3.872-2.024-8.911,2.142-11.893,7.307s-4.082,11.616-.395,13.96a.989.989,0,0,1,.319,1.343.979.979,0,0,1-.839.479Zm6.627.646a.966.966,0,0,1-.5-.134l-6.8-3.93a.962.962,0,0,1-.5-.882.981.981,0,0,1,.546-.857.985.985,0,0,1,.94.026l6.8,3.931a1,1,0,0,1,.5.823.975.975,0,0,1-.445.847l-.008.008A.969.969,0,0,1-1519.115,1400.122Z" transform="translate(-13.449 0)" fill="#527e53" fill-rule="evenodd"/>
    <path id="Path_116596" data-name="Path 116596" d="M-1507.214,1410.378c-3.007-1.738-7.039-1.335-11.288,1.126a32.643,32.643,0,0,0-11.272,11.893,33.485,33.485,0,0,0-4.628,14.439l31.816-18.369C-1502.847,1415.032-1504.569,1411.908-1507.214,1410.378Z" transform="translate(-14.061 -12.364)" fill="#3cdc82" fill-rule="evenodd"/>
    <path id="Path_116597" data-name="Path 116597" d="M-1511.827,1409.85a13.613,13.613,0,0,0-6.635,2.048,31.478,31.478,0,0,0-10.91,11.541,33.842,33.842,0,0,0-4.317,12.128l29.624-17.1c-.345-3.636-1.789-6.358-4.1-7.693h0a7.251,7.251,0,0,0-3.662-.924Zm-23.031,28.523a.965.965,0,0,1-.521-.151.976.976,0,0,1-.471-.9,34.723,34.723,0,0,1,4.763-14.866,33.451,33.451,0,0,1,11.633-12.263c4.586-2.645,8.944-3.048,12.27-1.125h0c3.032,1.748,4.855,5.258,5.132,9.878a1.007,1.007,0,0,1-.5.923l-31.823,18.369A.927.927,0,0,1-1534.858,1438.372Z" transform="translate(-13.606 -11.911)" fill="#527e53" fill-rule="evenodd"/>
    <path id="Path_116598" data-name="Path 116598" d="M-1515.516,1400.085h.008a19.241,19.241,0,0,0,6.627-7h0a19.2,19.2,0,0,0,2.746-9.247c0-2.991-1.05-5.1-2.746-6.072s-4.049-.84-6.635.654a19.188,19.188,0,0,0-6.627,7.006,19.207,19.207,0,0,0-2.755,9.247c0,2.982,1.059,5.09,2.755,6.072S-1518.1,1401.587-1515.516,1400.085Z" transform="translate(-17.048 -2.255)" fill="#fff" fill-rule="evenodd"/>
    <path id="Path_116599" data-name="Path 116599" d="M-1511.78,1377.676a7.56,7.56,0,0,0-3.7,1.15,18.018,18.018,0,0,0-6.265,6.636,18.036,18.036,0,0,0-2.62,8.759c0,2.521.8,4.376,2.251,5.216s3.469.6,5.645-.664a.513.513,0,0,1,.058-.025h.009a18.1,18.1,0,0,0,6.206-6.61,18.08,18.08,0,0,0,2.621-8.752c0-2.529-.807-4.376-2.26-5.216a3.769,3.769,0,0,0-1.948-.5Zm-8.382,24.231a5.757,5.757,0,0,1-2.931-.764c-2.091-1.2-3.251-3.663-3.251-6.922a20.02,20.02,0,0,1,2.89-9.742,20.021,20.021,0,0,1,6.989-7.366c2.829-1.63,5.534-1.856,7.626-.655s3.242,3.67,3.242,6.929a20.048,20.048,0,0,1-2.881,9.734,20.085,20.085,0,0,1-6.987,7.366h-.009A9.521,9.521,0,0,1-1520.162,1401.907Z" transform="translate(-16.594 -1.801)" fill="#527e53" fill-rule="evenodd"/>
    <path id="Path_116600" data-name="Path 116600" d="M-1509.512,1452.19a.978.978,0,0,1-.983-.983v-9.331a.986.986,0,0,1,.983-.992.993.993,0,0,1,.99.992v9.331A.985.985,0,0,1-1509.512,1452.19Z" transform="translate(-21.574 -22.285)" fill="#527e53" fill-rule="evenodd"/>
    <path id="Path_116601" data-name="Path 116601" d="M-1554.991,1511.114c3.62-1.981,7.4-3.149,11.28-1.125-2.822-1.621-6.938-4.56-9.818-4.922-2.965-.369-5.728.723-8.274,2.117-8.8,5.342-15.134,16.1-15.907,26.34l6.812,3.931C-1570.134,1527.224-1563.793,1516.457-1554.991,1511.114Z" transform="translate(-0.452 -42.431)" fill="#3cdc82" fill-rule="evenodd"/>
    <path id="Path_116602" data-name="Path 116602" d="M-1577.129,1532.527l4.947,2.855c1.284-10.246,7.668-20.368,16.227-25.558a.216.216,0,0,1,.042-.025,17.019,17.019,0,0,1,6.509-2.26,14.689,14.689,0,0,0-4.694-1.94c-2.915-.37-5.636.881-7.685,2-8.122,4.939-14.388,15.128-15.345,24.929Zm5.779,5.459a1.013,1.013,0,0,1-.5-.126l-6.812-3.931a.983.983,0,0,1-.488-.932c.807-10.759,7.392-21.653,16.379-27.1,2.343-1.293,5.417-2.688,8.9-2.251,2.46.3,5.509,2.175,8.2,3.839.714.437,1.386.856,1.991,1.21a.979.979,0,0,1,.378,1.326,1,1,0,0,1-1.319.4c-2.982-1.562-6.073-1.235-10.331,1.1-8.332,5.066-14.672,15.564-15.421,25.558a1,1,0,0,1-.521.8A1.036,1.036,0,0,1-1571.351,1537.987Z" transform="translate(0 -41.98)" fill="#527e53" fill-rule="evenodd"/>
    <path id="Path_116603" data-name="Path 116603" d="M-1552.026,1501h-.008l-6.8-3.931v-.008l6.812,3.939Zm6.627-23.627c-2.067-1.192-6.694-4.275-8.576-4.51-9.247-1.15-19.317,18.831-11.5,23.559l6.811,3.931c-8.567-5.425,4.3-27.674,13.263-22.98Z" transform="translate(-3.417 -32.32)" fill="#c1edc2" fill-rule="evenodd"/>
    <path id="Path_116604" data-name="Path 116604" d="M-1555.219,1473.36c-4.662,0-9.566,5.887-11.574,11.682-1.662,4.788-1.15,8.568,1.378,10.1l2.873,1.655c-1.059-3.7.293-8.634,2.63-12.665,2.351-4.073,6-7.753,9.768-8.634a17.271,17.271,0,0,0-4.41-2.091,4.334,4.334,0,0,0-.664-.042Zm-3.9,27.54a.961.961,0,0,1-.5-.133l-6.811-3.932c-3.4-2.057-4.224-6.7-2.234-12.439,2.411-6.945,8.442-13.674,14.345-12.951,1.562.193,4.241,1.763,7.315,3.645.631.386,1.193.731,1.638.991a.984.984,0,0,1,.37,1.335,1,1,0,0,1-1.319.395c-3.873-2.032-8.92,2.142-11.893,7.307-2.99,5.166-4.082,11.615-.386,13.959a1,1,0,0,1,.31,1.352.987.987,0,0,1-.84.47Zm6.627.647a1.062,1.062,0,0,1-.5-.135l-6.8-3.93a1.021,1.021,0,0,1-.5-.8,1.011,1.011,0,0,1,.394-.848.993.993,0,0,1,1.093-.067l6.811,3.93a1,1,0,0,1,.5.824.988.988,0,0,1-.445.848l-.009.009A.975.975,0,0,1-1552.49,1501.546Z" transform="translate(-2.962 -31.871)" fill="#527e53" fill-rule="evenodd"/>
    <path id="Path_116605" data-name="Path 116605" d="M-1540.589,1511.793c-3.007-1.73-7.038-1.326-11.288,1.125a32.719,32.719,0,0,0-11.272,11.9,33.587,33.587,0,0,0-4.628,14.438l31.824-18.377C-1536.222,1516.455-1537.944,1513.322-1540.589,1511.793Z" transform="translate(-3.574 -44.235)" fill="#3cdc82" fill-rule="evenodd"/>
    <path id="Path_116606" data-name="Path 116606" d="M-1545.193,1511.265a13.543,13.543,0,0,0-6.644,2.057,31.547,31.547,0,0,0-10.91,11.54,33.881,33.881,0,0,0-4.317,12.13l29.623-17.1c-.344-3.646-1.789-6.358-4.1-7.694a7.285,7.285,0,0,0-3.652-.933Zm-23.039,28.524a.953.953,0,0,1-.521-.143,1,1,0,0,1-.471-.9,34.747,34.747,0,0,1,4.763-14.874,33.473,33.473,0,0,1,11.632-12.255c4.586-2.646,8.944-3.049,12.271-1.125h.008c3.024,1.747,4.846,5.258,5.123,9.877a.981.981,0,0,1-.486.915l-31.833,18.378A1.009,1.009,0,0,1-1568.232,1539.788Z" transform="translate(-3.119 -43.782)" fill="#527e53" fill-rule="evenodd"/>
    <path id="Path_116607" data-name="Path 116607" d="M-1548.888,1501.507h.016a19.279,19.279,0,0,0,6.62-7h0a19.1,19.1,0,0,0,2.747-9.247c0-2.99-1.051-5.1-2.747-6.081s-4.041-.832-6.636.664a19.2,19.2,0,0,0-6.627,7.005,19.2,19.2,0,0,0-2.747,9.247c0,2.99,1.051,5.09,2.747,6.064S-1551.474,1503-1548.888,1501.507Z" transform="translate(-6.564 -34.125)" fill="#fff" fill-rule="evenodd"/>
    <path id="Path_116608" data-name="Path 116608" d="M-1549.341,1501.052h0Zm4.192-21.963a7.555,7.555,0,0,0-3.688,1.159,17.985,17.985,0,0,0-6.275,6.635,18,18,0,0,0-2.619,8.761c0,2.521.8,4.376,2.259,5.216,1.444.832,3.452.613,5.644-.663v.009a18.254,18.254,0,0,0,6.275-6.644,18.127,18.127,0,0,0,2.611-8.751c0-2.529-.8-4.385-2.259-5.224a3.86,3.86,0,0,0-1.948-.5Zm-8.382,24.24a5.78,5.78,0,0,1-2.932-.763c-2.091-1.2-3.242-3.663-3.242-6.922a20.091,20.091,0,0,1,2.88-9.743,19.969,19.969,0,0,1,7-7.366c2.823-1.629,5.527-1.864,7.618-.654s3.243,3.661,3.243,6.929a20.092,20.092,0,0,1-2.882,9.742,20.085,20.085,0,0,1-6.98,7.35l-.017.008A9.5,9.5,0,0,1-1553.532,1503.328Z" transform="translate(-6.11 -33.67)" fill="#527e53" fill-rule="evenodd"/>
    <path id="Path_116609" data-name="Path 116609" d="M-1471.364,1462.833c3.62-1.99,7.409-3.158,11.281-1.125-2.823-1.63-6.93-4.56-9.819-4.922-2.965-.37-5.729.722-8.273,2.109-8.8,5.341-15.135,16.109-15.908,26.348l6.812,3.931C-1486.5,1478.934-1480.165,1468.176-1471.364,1462.833Z" transform="translate(-26.732 -27.259)" fill="#3cdc82" fill-rule="evenodd"/>
    <path id="Path_116610" data-name="Path 116610" d="M-1493.492,1484.243l4.938,2.857c1.295-10.248,7.67-20.377,16.229-25.568.017-.008.024-.016.041-.016a16.905,16.905,0,0,1,6.509-2.259,14.279,14.279,0,0,0-4.695-1.94c-2.923-.361-5.636.873-7.678,2-8.13,4.931-14.387,15.118-15.344,24.928Zm5.771,5.459a.96.96,0,0,1-.5-.134l-6.8-3.931a.97.97,0,0,1-.5-.923c.805-10.76,7.391-21.652,16.377-27.112,2.344-1.285,5.409-2.681,8.912-2.251,2.46.311,5.51,2.192,8.2,3.847.7.437,1.377.857,1.99,1.209a.983.983,0,0,1,.369,1.327.98.98,0,0,1-1.319.395c-2.981-1.553-6.063-1.225-10.33,1.1-8.324,5.066-14.665,15.572-15.421,25.559a1.015,1.015,0,0,1-.52.807A1,1,0,0,1-1487.722,1489.7Z" transform="translate(-26.281 -26.806)" fill="#527e53" fill-rule="evenodd"/>
    <path id="Path_116611" data-name="Path 116611" d="M-1468.388,1452.715l-.009.008-6.811-3.93.009-.008,6.811,3.931Zm6.618-23.618c-2.066-1.193-6.685-4.275-8.575-4.51-9.247-1.151-19.309,18.83-11.5,23.559l6.811,3.93c-8.566-5.434,4.3-27.674,13.263-22.979Z" transform="translate(-29.698 -17.149)" fill="#c1edc2" fill-rule="evenodd"/>
    <path id="Path_116612" data-name="Path 116612" d="M-1471.59,1425.074c-4.662,0-9.567,5.887-11.575,11.684-1.662,4.786-1.151,8.558,1.378,10.087l2.873,1.662c-1.058-3.7.3-8.634,2.637-12.665,2.351-4.073,6-7.752,9.759-8.634a16.982,16.982,0,0,0-4.409-2.092,4.447,4.447,0,0,0-.663-.042Zm-3.9,27.541a1.073,1.073,0,0,1-.494-.134l-6.8-3.93c-3.4-2.059-4.234-6.7-2.243-12.44,2.411-6.955,8.45-13.683,14.354-12.96,1.555.193,4.233,1.773,7.307,3.654.63.377,1.193.73,1.639.99a.986.986,0,0,1,.377,1.327,1.009,1.009,0,0,1-1.327.4c-3.855-2.024-8.911,2.142-11.893,7.3s-4.073,11.624-.387,13.968a.976.976,0,0,1,.311,1.343.987.987,0,0,1-.841.479Zm6.635.646a1.011,1.011,0,0,1-.495-.135l-6.812-3.937a1,1,0,0,1-.5-.883.97.97,0,0,1,.546-.849,1.01,1.01,0,0,1,.941.016l6.812,3.931a1,1,0,0,1,.5.823.981.981,0,0,1-.437.857l-.008.009A1.016,1.016,0,0,1-1468.853,1453.261Z" transform="translate(-29.242 -16.695)" fill="#527e53" fill-rule="evenodd"/>
    <path id="Path_116613" data-name="Path 116613" d="M-1456.961,1463.512c-3-1.73-7.039-1.327-11.281,1.125a32.586,32.586,0,0,0-11.271,11.9,33.578,33.578,0,0,0-4.636,14.438l31.824-18.378C-1452.594,1468.174-1454.307,1465.042-1456.961,1463.512Z" transform="translate(-29.853 -29.063)" fill="#3cdc82" fill-rule="evenodd"/>
    <path id="Path_116614" data-name="Path 116614" d="M-1461.562,1462.983a13.493,13.493,0,0,0-6.635,2.057,31.27,31.27,0,0,0-10.911,11.541,33.842,33.842,0,0,0-4.325,12.128l29.623-17.109c-.345-3.636-1.789-6.358-4.1-7.685h0a7.208,7.208,0,0,0-3.654-.932Zm-23.038,28.522a1.043,1.043,0,0,1-.522-.143.973.973,0,0,1-.461-.9,34.563,34.563,0,0,1,4.762-14.875,33.447,33.447,0,0,1,11.633-12.263c4.585-2.645,8.952-3.04,12.271-1.117,3.024,1.739,4.846,5.249,5.123,9.878a.987.987,0,0,1-.487.915l-31.824,18.369A.977.977,0,0,1-1484.6,1491.505Z" transform="translate(-29.402 -28.609)" fill="#527e53" fill-rule="evenodd"/>
    <path id="Path_116615" data-name="Path 116615" d="M-1465.252,1453.225l.009-.009a19.175,19.175,0,0,0,6.618-6.987h.009a19.2,19.2,0,0,0,2.746-9.255c0-2.991-1.05-5.09-2.755-6.073s-4.04-.832-6.627.655a19.214,19.214,0,0,0-6.635,7,19.2,19.2,0,0,0-2.746,9.247c0,2.991,1.049,5.09,2.746,6.073S-1467.847,1454.72-1465.252,1453.225Z" transform="translate(-32.843 -18.952)" fill="#fff" fill-rule="evenodd"/>
    <path id="Path_116616" data-name="Path 116616" d="M-1461.523,1430.807a7.529,7.529,0,0,0-3.687,1.15,18,18,0,0,0-6.275,6.644,18.084,18.084,0,0,0-2.621,8.751c0,2.528.8,4.376,2.26,5.217s3.46.6,5.645-.656c.016-.008.033-.025.051-.025l.007-.009a18.038,18.038,0,0,0,6.216-6.61,18,18,0,0,0,2.612-8.751c0-2.521-.8-4.377-2.251-5.217a3.913,3.913,0,0,0-1.957-.495Zm-8.374,24.239a5.758,5.758,0,0,1-2.939-.764c-2.091-1.209-3.243-3.671-3.243-6.929a20.135,20.135,0,0,1,2.882-9.742,20.171,20.171,0,0,1,7-7.366c2.822-1.63,5.534-1.857,7.625-.647s3.233,3.663,3.233,6.922a20.083,20.083,0,0,1-2.88,9.743,20.028,20.028,0,0,1-6.98,7.357l-.008.009A9.551,9.551,0,0,1-1469.9,1455.046Z" transform="translate(-32.389 -18.497)" fill="#527e53" fill-rule="evenodd"/>
  </g>
</svg>
