<svg xmlns="http://www.w3.org/2000/svg" width="116.695" height="126.039" viewBox="0 0 116.695 126.039">
  <g id="Group_177951" data-name="Group 177951" transform="translate(1760.899 -1497.014)">
    <path id="Path_116617" data-name="Path 116617" d="M-1756.3,1589.509l-2.69-1.829a4.048,4.048,0,0,1-.543-2.178l.016-43.395a10.005,10.005,0,0,1,4.541-7.856l61.134-35.263a3.228,3.228,0,0,1,3.2-.313l2.682,1.828a3.243,3.243,0,0,0-3.2.313l-61.134,35.264a10.051,10.051,0,0,0-4.541,7.856l-.015,43.395A4,4,0,0,0-1756.3,1589.509Z" transform="translate(-0.489 -0.486)" fill="#3cdc82" fill-rule="evenodd"/>
    <path id="Path_116618" data-name="Path 116618" d="M-1758.81,1586.592l.6.409a.777.777,0,0,0-.008-.134l.023-43.417a10.984,10.984,0,0,1,4.957-8.606l61.148-35.271a6.435,6.435,0,0,1,.848-.4l-.379-.253c-.572-.3-1.264-.215-2.289.35l-61.126,35.256a9.1,9.1,0,0,0-4.1,7.12l-.022,43.372a3.264,3.264,0,0,0,.342,1.575Zm2.021,3.307a.873.873,0,0,1-.5-.156l-2.676-1.829a.787.787,0,0,1-.267-.274,4.951,4.951,0,0,1-.669-2.6l.015-43.417a10.848,10.848,0,0,1,4.958-8.6l61.155-35.279a4.148,4.148,0,0,1,4.051-.327l2.765,1.88a.875.875,0,0,1,.26,1.175.878.878,0,0,1-1.159.319,2.366,2.366,0,0,0-2.379.3l-61.111,35.257a9.076,9.076,0,0,0-4.1,7.119l-.023,43.373a3.208,3.208,0,0,0,.432,1.732.87.87,0,0,1-.156,1.078A.867.867,0,0,1-1756.789,1589.9Z" transform="translate(0 0)" fill="#527e53" fill-rule="evenodd"/>
    <path id="Path_116619" data-name="Path 116619" d="M-1750.8,1537.1l61.134-35.264c2.5-1.441,4.533-.26,4.533,2.617l-.015,43.4a10.069,10.069,0,0,1-4.541,7.855l-61.134,35.265c-2.5,1.442-4.541.26-4.534-2.623l.015-43.4A10.058,10.058,0,0,1-1750.8,1537.1Z" transform="translate(-1.984 -1.506)" fill="#c1edc2" fill-rule="evenodd"/>
    <path id="Path_116620" data-name="Path 116620" d="M-1751.288,1536.613h0Zm63.148-35a3.25,3.25,0,0,0-1.576.5l-61.134,35.264h0a9.185,9.185,0,0,0-4.1,7.1l-.022,43.4a2.4,2.4,0,0,0,.9,2.178,2.416,2.416,0,0,0,2.325-.3l61.134-35.273a9.2,9.2,0,0,0,4.1-7.1l.015-43.4a2.411,2.411,0,0,0-.892-2.17,1.462,1.462,0,0,0-.75-.186Zm-65.185,90.371a3.223,3.223,0,0,1-1.628-.423,4.03,4.03,0,0,1-1.769-3.694l.023-43.4a11.006,11.006,0,0,1,4.972-8.614l61.134-35.264a4.032,4.032,0,0,1,4.08-.312,4.024,4.024,0,0,1,1.769,3.687l-.015,43.4a10.881,10.881,0,0,1-4.98,8.613l-61.134,35.264A4.94,4.94,0,0,1-1753.324,1591.98Z" transform="translate(-1.496 -1.018)" fill="#527e53" fill-rule="evenodd"/>
    <path id="Path_116621" data-name="Path 116621" d="M-1749.007,1542.53l16.1-9.29,44.487-25.662c1.145-.662,2.074-.126,2.074,1.2l-.015,42.251a4.6,4.6,0,0,1-2.074,3.6l-50.2,28.954-10.389,6c-1.144.654-2.074.126-2.074-1.2l.015-42.251A4.594,4.594,0,0,1-1749.007,1542.53Z" transform="translate(-3.509 -3.68)" fill="#fff" fill-rule="evenodd"/>
    <path id="Path_116622" data-name="Path 116622" d="M-1749.5,1542.046h0Zm61.513-34.357a1.069,1.069,0,0,0-.484.163l-60.591,34.952h0a3.754,3.754,0,0,0-1.643,2.839l-.015,42.251c0,.342.089.543.171.587a.733.733,0,0,0,.595-.141l60.6-34.952a3.758,3.758,0,0,0,1.628-2.839l.022-42.251c0-.334-.089-.542-.171-.587a.209.209,0,0,0-.111-.022Zm-62.458,82.56a1.929,1.929,0,0,1-.981-.253,2.317,2.317,0,0,1-1.04-2.1l.015-42.251a5.489,5.489,0,0,1,2.519-4.355l60.591-34.952a2.328,2.328,0,0,1,2.334-.141,2.308,2.308,0,0,1,1.048,2.1l-.015,42.251a5.488,5.488,0,0,1-2.519,4.354l-60.592,34.952A2.765,2.765,0,0,1-1750.44,1590.25Z" transform="translate(-3.02 -3.196)" fill="#527e53" fill-rule="evenodd"/>
    <path id="Path_116623" data-name="Path 116623" d="M-1733.386,1557.165l42.026-24.264v28.969l-42.026,24.265Z" transform="translate(-9.848 -12.845)" fill="#fff" fill-rule="evenodd"/>
    <path id="Path_116624" data-name="Path 116624" d="M-1733.006,1557.182v26.947l40.288-23.254v-26.947l-40.288,23.254Zm-.87,29.341a.829.829,0,0,1-.438-.12.866.866,0,0,1-.439-.757v-28.969a.868.868,0,0,1,.439-.758l42.034-24.265a.866.866,0,0,1,.87,0,.858.858,0,0,1,.438.758v28.968a.866.866,0,0,1-.438.758l-42.035,24.265A.823.823,0,0,1-1733.875,1586.523Z" transform="translate(-9.359 -12.357)" fill="#527e53" fill-rule="evenodd"/>
    <path id="Path_116625" data-name="Path 116625" d="M-1733.386,1554.836l42.026-24.264V1526.4l-42.026,24.265Z" transform="translate(-9.848 -10.517)" fill="#c1edc2" fill-rule="evenodd"/>
    <path id="Path_116626" data-name="Path 116626" d="M-1733.006,1550.669v2.163l40.288-23.254v-2.163l-40.288,23.254Zm-.87,4.548a.83.83,0,0,1-.438-.119.848.848,0,0,1-.439-.751v-4.176a.867.867,0,0,1,.439-.758l42.034-24.265a.866.866,0,0,1,.87,0,.868.868,0,0,1,.438.758v4.177a.876.876,0,0,1-.438.758l-42.035,24.258A.823.823,0,0,1-1733.875,1555.218Z" transform="translate(-9.359 -10.028)" fill="#527e53" fill-rule="evenodd"/>
    <path id="Path_116627" data-name="Path 116627" d="M-1717.375,1571.783h0c.572-.327,1.034-.06,1.034.595h0a2.273,2.273,0,0,1-1.034,1.783h0c-.565.327-1.033.067-1.033-.6h0A2.3,2.3,0,0,1-1717.375,1571.783Z" transform="translate(-15.209 -26.713)" fill="#c1edc2" fill-rule="evenodd"/>
    <path id="Path_116628" data-name="Path 116628" d="M-1717.86,1571.3h0Zm-.461,3.389a1.407,1.407,0,0,1-.7-.179,1.577,1.577,0,0,1-.743-1.427,3.125,3.125,0,0,1,1.472-2.534,1.568,1.568,0,0,1,1.6-.074,1.573,1.573,0,0,1,.743,1.42,3.15,3.15,0,0,1-1.471,2.542A1.8,1.8,0,0,1-1718.321,1574.687Z" transform="translate(-14.725 -26.228)" fill="#527e53" fill-rule="evenodd"/>
    <path id="Path_116629" data-name="Path 116629" d="M-1717.375,1581.746h0c.572-.335,1.034-.068,1.034.587h0a2.262,2.262,0,0,1-1.034,1.784h0c-.565.327-1.033.06-1.033-.595h0A2.278,2.278,0,0,1-1717.375,1581.746Z" transform="translate(-15.209 -30.277)" fill="#c1edc2" fill-rule="evenodd"/>
    <path id="Path_116630" data-name="Path 116630" d="M-1717.86,1581.26h0Zm-.461,3.389a1.362,1.362,0,0,1-.7-.185,1.57,1.57,0,0,1-.743-1.427,3.148,3.148,0,0,1,1.472-2.541,1.583,1.583,0,0,1,1.6-.067,1.579,1.579,0,0,1,.743,1.419,3.138,3.138,0,0,1-1.471,2.542A1.73,1.73,0,0,1-1718.321,1584.648Z" transform="translate(-14.725 -29.791)" fill="#527e53" fill-rule="evenodd"/>
    <path id="Path_116631" data-name="Path 116631" d="M-1717.375,1592.327h0c.572-.327,1.034-.067,1.034.587h0a2.272,2.272,0,0,1-1.034,1.784h0c-.565.328-1.033.06-1.033-.587h0A2.282,2.282,0,0,1-1717.375,1592.327Z" transform="translate(-15.209 -34.066)" fill="#c1edc2" fill-rule="evenodd"/>
    <path id="Path_116632" data-name="Path 116632" d="M-1717.86,1591.839h0Zm-.461,3.389a1.418,1.418,0,0,1-.7-.186,1.573,1.573,0,0,1-.743-1.419,3.127,3.127,0,0,1,1.472-2.541,1.568,1.568,0,0,1,1.6-.074,1.581,1.581,0,0,1,.743,1.419,3.148,3.148,0,0,1-1.471,2.542A1.8,1.8,0,0,1-1718.321,1595.228Z" transform="translate(-14.725 -33.578)" fill="#527e53" fill-rule="evenodd"/>
    <path id="Path_116633" data-name="Path 116633" d="M-1642.945,1626.645v3.316a3.574,3.574,0,0,1-1.813,2.1l-61.379,35.45a9.169,9.169,0,0,1-4.244,1.07,9.4,9.4,0,0,1-4.86-1.077l-37.687-21.8a3.614,3.614,0,0,1-1.812-2.1v-3.315a3.6,3.6,0,0,0,1.813,2.1l37.688,21.8a9.415,9.415,0,0,0,4.86,1.084,9.166,9.166,0,0,0,4.244-1.077l61.379-35.443A3.6,3.6,0,0,0-1642.945,1626.645Z" transform="translate(-2.204 -46.4)" fill="#c1edc2" fill-rule="evenodd"/>
    <path id="Path_116634" data-name="Path 116634" d="M-1754.349,1642.983a2.738,2.738,0,0,0,1.389,1.479l37.672,21.79a8.588,8.588,0,0,0,4.414.966,8.208,8.208,0,0,0,3.828-.973l61.372-35.428a2.8,2.8,0,0,0,1.375-1.479v-.654c-.163.111-.327.215-.491.311l-61.394,35.458a10.15,10.15,0,0,1-4.645,1.2,10.056,10.056,0,0,1-5.322-1.2l-37.7-21.806c-.164-.1-.334-.208-.5-.326v.662Zm43.3,25.981a10.147,10.147,0,0,1-5.106-1.2l-37.7-21.806a4.472,4.472,0,0,1-2.214-2.608.914.914,0,0,1-.029-.246v-3.315a.874.874,0,0,1,.75-.87.893.893,0,0,1,.958.624,2.717,2.717,0,0,0,1.427,1.6l37.672,21.783a8.235,8.235,0,0,0,4.414.966,8.119,8.119,0,0,0,3.828-.966l61.372-35.435a2.682,2.682,0,0,0,1.4-1.583.9.9,0,0,1,.966-.624.88.88,0,0,1,.751.869v3.315a.917.917,0,0,1-.036.245,4.466,4.466,0,0,1-2.2,2.6l-61.394,35.451a9.975,9.975,0,0,1-4.645,1.2Z" transform="translate(-1.72 -45.912)" fill="#527e53" fill-rule="evenodd"/>
    <path id="Path_116635" data-name="Path 116635" d="M-1752.965,1622.582l61.379-35.435a10.078,10.078,0,0,1,9.1,0l37.687,21.8c2.5,1.458,2.5,3.82,0,5.27l-61.38,35.443a10.1,10.1,0,0,1-9.1-.007l-37.687-21.8C-1755.468,1626.4-1755.468,1624.032-1752.965,1622.582Z" transform="translate(-2.168 -31.873)" fill="#3cdc82" fill-rule="evenodd"/>
    <path id="Path_116636" data-name="Path 116636" d="M-1753.451,1622.1h0Zm.439.758a2.442,2.442,0,0,0-1.442,1.88,2.4,2.4,0,0,0,1.442,1.873l37.687,21.8a9.247,9.247,0,0,0,8.234.008l61.379-35.443a2.42,2.42,0,0,0,1.442-1.873,2.437,2.437,0,0,0-1.45-1.88l-37.686-21.8a9.208,9.208,0,0,0-8.227,0l-61.38,35.435Zm41.8,28.263a10.214,10.214,0,0,1-4.995-1.2l-37.686-21.8a4.02,4.02,0,0,1-2.312-3.389,4.029,4.029,0,0,1,2.312-3.389l61.38-35.442a11.035,11.035,0,0,1,9.981,0l37.686,21.8a4.023,4.023,0,0,1,2.319,3.389,4.013,4.013,0,0,1-2.319,3.382l-61.379,35.45A10.261,10.261,0,0,1-1711.208,1651.122Z" transform="translate(-1.682 -31.392)" fill="#527e53" fill-rule="evenodd"/>
    <path id="Path_116637" data-name="Path 116637" d="M-1656.311,1652.7l16.788-9.7-12.857-7.431-16.788,9.7Z" transform="translate(-32.834 -49.595)" fill="#c1edc2" fill-rule="evenodd"/>
    <path id="Path_116638" data-name="Path 116638" d="M-1667.909,1644.781l11.11,6.428,15.042-8.7-11.111-6.421-15.042,8.688Zm11.11,8.308a.824.824,0,0,1-.438-.119l-12.857-7.432a.873.873,0,0,1-.438-.758.88.88,0,0,1,.438-.75l16.789-9.706a.88.88,0,0,1,.877,0l12.857,7.432a.877.877,0,0,1,.431.758.887.887,0,0,1-.431.758l-16.788,9.7A.841.841,0,0,1-1656.8,1653.09Z" transform="translate(-32.346 -49.107)" fill="#527e53" fill-rule="evenodd"/>
    <path id="Path_116639" data-name="Path 116639" d="M-1740.506,1626.577q27.913-16.11,55.8-32.233a5.4,5.4,0,0,1,4.86.007l19.018,11c1.33.773,1.33,2.037-.008,2.81q-27.89,16.11-55.79,32.232a5.36,5.36,0,0,1-4.86-.008l-19.018-11C-1741.844,1628.612-1741.837,1627.349-1740.506,1626.577Z" transform="translate(-6.941 -34.633)" fill="#c1edc2" fill-rule="evenodd"/>
    <path id="Path_116640" data-name="Path 116640" d="M-1740.992,1626.09l.438.758c-.349.2-.564.453-.564.646s.215.446.564.654l19.019,11a4.571,4.571,0,0,0,3.983,0l55.8-32.233c.349-.2.565-.453.565-.646s-.217-.446-.565-.646l-19.018-11.007a4.565,4.565,0,0,0-3.984,0l-55.8,32.233-.438-.758Zm21.448,15.264a5.8,5.8,0,0,1-2.869-.7l-19.018-11a2.557,2.557,0,0,1-1.434-2.163,2.564,2.564,0,0,1,1.442-2.154l55.791-32.233a6.239,6.239,0,0,1,5.73,0l19.025,11a2.572,2.572,0,0,1,1.435,2.162,2.575,2.575,0,0,1-1.442,2.163l-55.8,32.225A5.747,5.747,0,0,1-1719.544,1641.354Z" transform="translate(-6.455 -34.146)" fill="#527e53" fill-rule="evenodd"/>
    <path id="Path_116641" data-name="Path 116641" d="M-1702.028,1639.046l2.743-1.583a2.217,2.217,0,0,1,2.007,0l2.742,1.583a.613.613,0,0,1,0,1.159l-2.75,1.583a2.2,2.2,0,0,1-2,0l-2.743-1.583A.613.613,0,0,1-1702.028,1639.046Z" transform="translate(-20.925 -50.186)" fill="#fff" fill-rule="evenodd"/>
    <path id="Path_116642" data-name="Path 116642" d="M-1701.771,1639.137l2.437,1.4a1.362,1.362,0,0,0,1.13,0l2.43-1.4-2.43-1.4a1.365,1.365,0,0,0-1.13,0l-2.437,1.4Zm3,3.278a2.9,2.9,0,0,1-1.442-.357l-2.742-1.591a1.54,1.54,0,0,1-.847-1.33,1.55,1.55,0,0,1,.847-1.337h0l2.75-1.583a3.072,3.072,0,0,1,2.876,0l2.743,1.583a1.565,1.565,0,0,1,.847,1.337,1.566,1.566,0,0,1-.847,1.338l-2.749,1.583A2.892,2.892,0,0,1-1698.769,1642.415Z" transform="translate(-20.438 -49.698)" fill="#527e53" fill-rule="evenodd"/>
    <path id="Path_116643" data-name="Path 116643" d="M-1720.336,1649.617l-2.734,1.582a.615.615,0,0,0-.008,1.16l2.742,1.583a2.221,2.221,0,0,0,2.006,0l2.742-1.583a.613.613,0,0,0,.009-1.16l-2.743-1.582A2.233,2.233,0,0,0-1720.336,1649.617Z" transform="translate(-13.392 -54.537)" fill="#fff" fill-rule="evenodd"/>
    <path id="Path_116644" data-name="Path 116644" d="M-1722.818,1651.291l2.429,1.4a1.361,1.361,0,0,0,1.131,0l2.437-1.4-2.437-1.4a1.364,1.364,0,0,0-1.131,0l-2.429,1.4Zm2.995,3.278a2.9,2.9,0,0,1-1.434-.357l-2.75-1.583a1.576,1.576,0,0,1-.847-1.338,1.552,1.552,0,0,1,.855-1.338l2.742-1.583h0a3.091,3.091,0,0,1,2.884,0l2.742,1.583a1.567,1.567,0,0,1,.847,1.338,1.551,1.551,0,0,1-.855,1.338l-2.742,1.583A2.9,2.9,0,0,1-1719.824,1654.568Z" transform="translate(-12.902 -54.049)" fill="#527e53" fill-rule="evenodd"/>
    <path id="Path_116645" data-name="Path 116645" d="M-1709.818,1655.693l-2.743,1.583a.614.614,0,0,0,0,1.16l2.743,1.583a2.206,2.206,0,0,0,2,0l2.742-1.576a.612.612,0,0,0,.008-1.159l-2.742-1.59A2.222,2.222,0,0,0-1709.818,1655.693Z" transform="translate(-17.155 -56.712)" fill="#fff" fill-rule="evenodd"/>
    <path id="Path_116646" data-name="Path 116646" d="M-1712.3,1657.37l2.43,1.413a1.362,1.362,0,0,0,1.13,0l2.43-1.4-2.43-1.412a1.361,1.361,0,0,0-1.13,0l-2.43,1.4Zm2.988,3.279a2.964,2.964,0,0,1-1.434-.349l-2.742-1.591a1.542,1.542,0,0,1-.848-1.338,1.555,1.555,0,0,1,.848-1.329l2.742-1.591h0a3.132,3.132,0,0,1,2.883,0l2.742,1.591a1.547,1.547,0,0,1,.848,1.329,1.557,1.557,0,0,1-.848,1.338l-2.749,1.591A2.977,2.977,0,0,1-1709.309,1660.649Z" transform="translate(-16.668 -56.227)" fill="#527e53" fill-rule="evenodd"/>
    <path id="Path_116647" data-name="Path 116647" d="M-1718.321,1641.784l2.743-1.59a.606.606,0,0,0,0-1.152l-2.743-1.583a2.182,2.182,0,0,0-2-.007l-2.743,1.583a.611.611,0,0,0,0,1.16l2.735,1.59A2.215,2.215,0,0,0-1718.321,1641.784Z" transform="translate(-13.393 -50.183)" fill="#fff" fill-rule="evenodd"/>
    <path id="Path_116648" data-name="Path 116648" d="M-1722.807,1639.129l2.43,1.412a1.357,1.357,0,0,0,1.129,0l2.43-1.4-2.43-1.411a1.414,1.414,0,0,0-1.129,0l-2.43,1.4Zm4,2.17h0Zm-1,1.107a2.884,2.884,0,0,1-1.435-.35l-2.75-1.59a1.555,1.555,0,0,1-.847-1.33,1.558,1.558,0,0,1,.847-1.337l2.75-1.59a3.1,3.1,0,0,1,2.877.008l2.742,1.583a1.551,1.551,0,0,1,.854,1.337,1.548,1.548,0,0,1-.854,1.33l-2.742,1.59h0A2.9,2.9,0,0,1-1719.812,1642.406Z" transform="translate(-12.906 -49.698)" fill="#527e53" fill-rule="evenodd"/>
    <path id="Path_116649" data-name="Path 116649" d="M-1707.8,1635.708l2.742-1.583a.613.613,0,0,0,.007-1.159l-2.743-1.591a2.243,2.243,0,0,0-2.007,0l-2.742,1.591c-.557.311-.557.832,0,1.152l2.742,1.59A2.206,2.206,0,0,0-1707.8,1635.708Z" transform="translate(-17.16 -48.008)" fill="#fff" fill-rule="evenodd"/>
    <path id="Path_116650" data-name="Path 116650" d="M-1712.285,1633.053l2.43,1.411a1.359,1.359,0,0,0,1.13,0l2.438-1.4-2.43-1.411a1.407,1.407,0,0,0-1.137,0l-2.43,1.4Zm4,2.17h0Zm-1,1.115a2.891,2.891,0,0,1-1.435-.357l-2.742-1.59a1.562,1.562,0,0,1-.855-1.338,1.551,1.551,0,0,1,.855-1.331l2.742-1.584a3.094,3.094,0,0,1,2.884,0l2.742,1.584a1.567,1.567,0,0,1,.847,1.337,1.551,1.551,0,0,1-.855,1.331l-2.742,1.59h0A2.918,2.918,0,0,1-1709.29,1636.338Z" transform="translate(-16.672 -47.523)" fill="#527e53" fill-rule="evenodd"/>
    <path id="Path_116651" data-name="Path 116651" d="M-1726.1,1646.277l-2.742,1.583a2.22,2.22,0,0,1-2.006,0l-2.743-1.59a.609.609,0,0,1,0-1.152l2.75-1.59a2.2,2.2,0,0,1,2,0l2.742,1.59A.611.611,0,0,1-1726.1,1646.277Z" transform="translate(-9.627 -52.357)" fill="#fff" fill-rule="evenodd"/>
    <path id="Path_116652" data-name="Path 116652" d="M-1733.328,1645.206l2.431,1.413a1.36,1.36,0,0,0,1.129,0l2.43-1.4-2.43-1.412a1.343,1.343,0,0,0-1.122,0l-2.438,1.4Zm2.995,3.285a3.023,3.023,0,0,1-1.441-.356l-2.742-1.591a1.565,1.565,0,0,1-.847-1.338,1.548,1.548,0,0,1,.854-1.33l2.743-1.582a3.07,3.07,0,0,1,2.876,0l2.742,1.582a1.552,1.552,0,0,1,.847,1.338,1.556,1.556,0,0,1-.847,1.33l-2.742,1.591A3.025,3.025,0,0,1-1730.334,1648.491Z" transform="translate(-9.14 -51.874)" fill="#527e53" fill-rule="evenodd"/>
    <path id="Path_116653" data-name="Path 116653" d="M-1712.549,1645.122l2.743-1.583a2.222,2.222,0,0,1,2.006,0l2.742,1.583a.614.614,0,0,1,0,1.16l-2.75,1.583a2.2,2.2,0,0,1-2,0l-2.743-1.583A.614.614,0,0,1-1712.549,1645.122Z" transform="translate(-17.159 -52.361)" fill="#fff" fill-rule="evenodd"/>
    <path id="Path_116654" data-name="Path 116654" d="M-1712.293,1645.216l2.43,1.4a1.36,1.36,0,0,0,1.13,0l2.438-1.4-2.438-1.4a1.343,1.343,0,0,0-1.123,0l-2.438,1.4Zm3,3.276a2.912,2.912,0,0,1-1.442-.356l-2.743-1.591a1.541,1.541,0,0,1-.847-1.33,1.552,1.552,0,0,1,.847-1.338h0l2.75-1.583a3.079,3.079,0,0,1,2.869,0l2.749,1.59a1.547,1.547,0,0,1,.848,1.331,1.568,1.568,0,0,1-.848,1.337l-2.749,1.583A2.9,2.9,0,0,1-1709.29,1648.493Z" transform="translate(-16.672 -51.875)" fill="#527e53" fill-rule="evenodd"/>
    <path id="Path_116655" data-name="Path 116655" d="M-1680.984,1626.891l2.742-1.583a2.223,2.223,0,0,1,2.007,0l2.742,1.591a.608.608,0,0,1,0,1.152l-2.742,1.583a2.219,2.219,0,0,1-2.007,0l-2.742-1.583A.613.613,0,0,1-1680.984,1626.891Z" transform="translate(-28.457 -45.836)" fill="#fff" fill-rule="evenodd"/>
    <path id="Path_116656" data-name="Path 116656" d="M-1681.471,1626.4h0Zm.75.58,2.43,1.4a1.356,1.356,0,0,0,1.131,0l2.43-1.4-2.43-1.405a1.362,1.362,0,0,0-1.131,0l-2.43,1.405Zm3,3.278a2.9,2.9,0,0,1-1.441-.356l-2.743-1.592a1.555,1.555,0,0,1-.847-1.33,1.566,1.566,0,0,1,.847-1.338l2.749-1.583a3.1,3.1,0,0,1,2.884,0l2.734,1.591a1.527,1.527,0,0,1,.847,1.33,1.539,1.539,0,0,1-.854,1.338l-2.742,1.583A2.9,2.9,0,0,1-1677.725,1630.26Z" transform="translate(-27.97 -45.348)" fill="#527e53" fill-rule="evenodd"/>
    <path id="Path_116657" data-name="Path 116657" d="M-1670.467,1632.976l2.743-1.59a2.214,2.214,0,0,1,2.006,0l2.735,1.59a.611.611,0,0,1,0,1.16l-2.743,1.583a2.214,2.214,0,0,1-2.006,0l-2.742-1.59A.608.608,0,0,1-1670.467,1632.976Z" transform="translate(-32.219 -48.011)" fill="#fff" fill-rule="evenodd"/>
    <path id="Path_116658" data-name="Path 116658" d="M-1670.949,1632.491h0Zm.744.572,2.43,1.412a1.359,1.359,0,0,0,1.129,0l2.438-1.4-2.43-1.412a1.416,1.416,0,0,0-1.137,0l-2.43,1.4Zm3,3.278a2.872,2.872,0,0,1-1.449-.357l-2.734-1.583a1.535,1.535,0,0,1-.847-1.337,1.533,1.533,0,0,1,.847-1.33l2.742-1.592a3.137,3.137,0,0,1,2.884,0l2.735,1.592a1.545,1.545,0,0,1,.855,1.337,1.539,1.539,0,0,1-.855,1.33l-2.742,1.583A2.837,2.837,0,0,1-1667.2,1636.341Z" transform="translate(-31.737 -47.526)" fill="#527e53" fill-rule="evenodd"/>
    <path id="Path_116659" data-name="Path 116659" d="M-1697.278,1629.634l2.749-1.591a.608.608,0,0,0,0-1.152l-2.741-1.583a2.225,2.225,0,0,0-2.007,0l-2.75,1.576a.614.614,0,0,0,0,1.16l2.75,1.591A2.2,2.2,0,0,0-1697.278,1629.634Z" transform="translate(-20.925 -45.836)" fill="#fff" fill-rule="evenodd"/>
    <path id="Path_116660" data-name="Path 116660" d="M-1701.764,1626.975l2.438,1.412a1.337,1.337,0,0,0,1.122,0h.007l2.43-1.4-2.43-1.413a1.422,1.422,0,0,0-1.129,0l-2.437,1.4Zm2.995,3.285a2.9,2.9,0,0,1-1.434-.356l-2.742-1.592a1.559,1.559,0,0,1-.854-1.337,1.541,1.541,0,0,1,.854-1.331l2.742-1.59a3.115,3.115,0,0,1,2.884.007l2.743,1.583a1.568,1.568,0,0,1,.847,1.338,1.549,1.549,0,0,1-.854,1.33l-2.743,1.592A2.9,2.9,0,0,1-1698.769,1630.26Z" transform="translate(-20.438 -45.347)" fill="#527e53" fill-rule="evenodd"/>
    <path id="Path_116661" data-name="Path 116661" d="M-1686.745,1623.556l2.742-1.583a.614.614,0,0,0,0-1.159l-2.742-1.583a2.224,2.224,0,0,0-2.007,0l-2.742,1.583a.609.609,0,0,0,0,1.152l2.742,1.59A2.224,2.224,0,0,0-1686.745,1623.556Z" transform="translate(-24.695 -43.661)" fill="#fff" fill-rule="evenodd"/>
    <path id="Path_116662" data-name="Path 116662" d="M-1691.235,1620.9l2.43,1.413a1.359,1.359,0,0,0,1.129,0l2.431-1.4-2.431-1.413a1.359,1.359,0,0,0-1.129,0l-2.43,1.4Zm4,2.17h0Zm-1,1.115a2.9,2.9,0,0,1-1.442-.356l-2.743-1.59a1.562,1.562,0,0,1-.855-1.338,1.55,1.55,0,0,1,.855-1.33l2.743-1.583a3.092,3.092,0,0,1,2.883,0l2.742,1.583a1.565,1.565,0,0,1,.848,1.337,1.557,1.557,0,0,1-.848,1.331l-2.75,1.59h0A2.893,2.893,0,0,1-1688.24,1624.183Z" transform="translate(-24.204 -43.173)" fill="#527e53" fill-rule="evenodd"/>
    <path id="Path_116663" data-name="Path 116663" d="M-1691.506,1632.969l2.742-1.583a2.214,2.214,0,0,1,2.007,0l2.743,1.583a.614.614,0,0,1,0,1.16l-2.743,1.583a2.219,2.219,0,0,1-2.007,0l-2.742-1.583A.614.614,0,0,1-1691.506,1632.969Z" transform="translate(-24.691 -48.011)" fill="#fff" fill-rule="evenodd"/>
    <path id="Path_116664" data-name="Path 116664" d="M-1691.993,1632.481h0Zm.743.579,2.438,1.412a1.39,1.39,0,0,0,1.13-.008l2.438-1.4-2.438-1.4a1.372,1.372,0,0,0-1.13,0l-2.438,1.4Zm3,3.278a2.9,2.9,0,0,1-1.441-.357l-2.742-1.59a1.543,1.543,0,0,1-.848-1.331,1.553,1.553,0,0,1,.848-1.337l2.742-1.584a3.092,3.092,0,0,1,2.883,0l2.742,1.591a1.547,1.547,0,0,1,.848,1.33,1.569,1.569,0,0,1-.854,1.337l-2.743,1.583A2.891,2.891,0,0,1-1688.248,1636.338Z" transform="translate(-24.204 -47.523)" fill="#527e53" fill-rule="evenodd"/>
    <path id="Path_116665" data-name="Path 116665" d="M-1702.039,1646.856l16.253-9.394a2.218,2.218,0,0,1,2.007,0l2.742,1.59a.614.614,0,0,1,0,1.16l-16.253,9.386a2.268,2.268,0,0,1-2.007,0l-2.742-1.59A.608.608,0,0,1-1702.039,1646.856Z" transform="translate(-20.921 -50.186)" fill="#fff" fill-rule="evenodd"/>
    <path id="Path_116666" data-name="Path 116666" d="M-1701.775,1646.943l2.431,1.412a1.36,1.36,0,0,0,1.129,0l15.941-9.208-2.43-1.412a1.35,1.35,0,0,0-1.123,0l-15.948,9.208Zm2.988,3.278a2.969,2.969,0,0,1-1.434-.35l-2.742-1.59a1.544,1.544,0,0,1-.847-1.338,1.556,1.556,0,0,1,.847-1.33h.007l16.254-9.393a3.072,3.072,0,0,1,2.876.008l2.742,1.583a1.558,1.558,0,0,1,.855,1.33,1.543,1.543,0,0,1-.855,1.338l-16.261,9.394A2.982,2.982,0,0,1-1698.788,1650.22Z" transform="translate(-20.434 -49.701)" fill="#527e53" fill-rule="evenodd"/>
    <path id="Path_116667" data-name="Path 116667" d="M-1646,1606.672l2.742-1.583a2.268,2.268,0,0,1,2.007,0l2.741,1.59a.612.612,0,0,1-.007,1.159l-2.735,1.583a2.221,2.221,0,0,1-2.007,0l-2.742-1.583A.619.619,0,0,1-1646,1606.672Z" transform="translate(-40.978 -38.601)" fill="#fff" fill-rule="evenodd"/>
    <path id="Path_116668" data-name="Path 116668" d="M-1646.491,1606.184h0Zm.743.588,2.437,1.4a1.363,1.363,0,0,0,1.129,0l2.43-1.4-2.43-1.413a1.421,1.421,0,0,0-1.129,0l-2.437,1.413Zm2.994,3.277a2.818,2.818,0,0,1-1.434-.364l-2.743-1.583a1.539,1.539,0,0,1-.847-1.33,1.565,1.565,0,0,1,.847-1.338l2.75-1.583a3.057,3.057,0,0,1,2.876,0l2.742,1.583a1.565,1.565,0,0,1,.847,1.338,1.568,1.568,0,0,1-.854,1.337l-2.735,1.576A2.878,2.878,0,0,1-1642.753,1610.049Z" transform="translate(-40.491 -38.113)" fill="#527e53" fill-rule="evenodd"/>
    <path id="Path_116669" data-name="Path 116669" d="M-1635.487,1612.757l2.743-1.583a2.2,2.2,0,0,1,2,0l2.742,1.591a.606.606,0,0,1,0,1.151l-2.75,1.591a2.232,2.232,0,0,1-2-.008l-2.743-1.583A.612.612,0,0,1-1635.487,1612.757Z" transform="translate(-44.74 -40.777)" fill="#fff" fill-rule="evenodd"/>
    <path id="Path_116670" data-name="Path 116670" d="M-1635.974,1612.272h0Zm.743.58,2.43,1.412a1.4,1.4,0,0,0,1.13,0l2.43-1.405-2.43-1.419a1.422,1.422,0,0,0-1.13,0l-2.43,1.412Zm3,3.277a2.919,2.919,0,0,1-1.442-.356l-2.742-1.583a1.568,1.568,0,0,1-.847-1.338,1.559,1.559,0,0,1,.854-1.337l2.736-1.583a3.091,3.091,0,0,1,2.883.007l2.742,1.583a1.54,1.54,0,0,1,.848,1.33,1.544,1.544,0,0,1-.848,1.338l-2.749,1.583A2.894,2.894,0,0,1-1632.235,1616.129Z" transform="translate(-44.253 -40.291)" fill="#527e53" fill-rule="evenodd"/>
    <path id="Path_116671" data-name="Path 116671" d="M-1651.777,1603.342l2.75-1.591a.614.614,0,0,0,0-1.159l-2.75-1.583a2.2,2.2,0,0,0-2,0l-2.743,1.583a.612.612,0,0,0-.007,1.159l2.742,1.591A2.272,2.272,0,0,0-1651.777,1603.342Z" transform="translate(-37.212 -36.422)" fill="#fff" fill-rule="evenodd"/>
    <path id="Path_116672" data-name="Path 116672" d="M-1656.263,1600.685l2.431,1.412a1.4,1.4,0,0,0,1.129,0h0l2.43-1.405-2.43-1.412a1.344,1.344,0,0,0-1.122,0l-2.438,1.4Zm3,3.277a2.89,2.89,0,0,1-1.434-.356l-2.75-1.583a1.564,1.564,0,0,1-.848-1.33,1.578,1.578,0,0,1,.848-1.345l2.75-1.583a3.057,3.057,0,0,1,2.876.008l2.749,1.583a1.559,1.559,0,0,1,.848,1.338,1.555,1.555,0,0,1-.848,1.33l-2.749,1.583A2.921,2.921,0,0,1-1653.267,1603.962Z" transform="translate(-36.725 -35.935)" fill="#527e53" fill-rule="evenodd"/>
    <path id="Path_116673" data-name="Path 116673" d="M-1656.527,1612.757l2.742-1.583a2.221,2.221,0,0,1,2.007,0l2.742,1.583a.614.614,0,0,1,0,1.159l-2.742,1.583a2.226,2.226,0,0,1-2.007,0l-2.742-1.583A.614.614,0,0,1-1656.527,1612.757Z" transform="translate(-37.212 -40.777)" fill="#fff" fill-rule="evenodd"/>
    <path id="Path_116674" data-name="Path 116674" d="M-1657.013,1612.271h0Zm.75.58,2.431,1.4a1.336,1.336,0,0,0,1.129,0l2.43-1.4-2.43-1.413a1.422,1.422,0,0,0-1.129,0l-2.431,1.413Zm3,3.277a2.941,2.941,0,0,1-1.442-.356l-2.742-1.583a1.577,1.577,0,0,1-.848-1.338,1.556,1.556,0,0,1,.848-1.337l2.75-1.583a3.1,3.1,0,0,1,2.876,0l2.742,1.59a1.525,1.525,0,0,1,.847,1.33,1.553,1.553,0,0,1-.855,1.338l-2.735,1.583A2.921,2.921,0,0,1-1653.267,1616.128Z" transform="translate(-36.725 -40.291)" fill="#527e53" fill-rule="evenodd"/>
    <path id="Path_116675" data-name="Path 116675" d="M-1646.006,1618.835l2.742-1.583a2.223,2.223,0,0,1,2.007,0l2.735,1.591c.557.319.557.839,0,1.152l-2.742,1.59a2.219,2.219,0,0,1-2.007,0l-2.742-1.59A.614.614,0,0,1-1646.006,1618.835Z" transform="translate(-40.976 -42.952)" fill="#fff" fill-rule="evenodd"/>
    <path id="Path_116676" data-name="Path 116676" d="M-1646.491,1618.348h0Zm.743.579,2.429,1.412a1.408,1.408,0,0,0,1.137,0l2.43-1.4-2.43-1.412a1.365,1.365,0,0,0-1.129,0l-2.437,1.4Zm2.994,3.278a2.967,2.967,0,0,1-1.434-.349l-2.743-1.59a1.542,1.542,0,0,1-.847-1.338,1.552,1.552,0,0,1,.847-1.337l2.743-1.583a3.116,3.116,0,0,1,2.884,0l2.735,1.591a1.528,1.528,0,0,1,.847,1.338,1.532,1.532,0,0,1-.847,1.33l-2.743,1.583A2.892,2.892,0,0,1-1642.753,1622.205Z" transform="translate(-40.491 -42.466)" fill="#527e53" fill-rule="evenodd"/>
    <path id="Path_116677" data-name="Path 116677" d="M-1672.819,1615.5l2.75-1.583a.613.613,0,0,0,0-1.159l-2.75-1.59a2.2,2.2,0,0,0-2,0l-2.742,1.583a.611.611,0,0,0,0,1.158l2.742,1.591A2.206,2.206,0,0,0-1672.819,1615.5Z" transform="translate(-29.682 -40.773)" fill="#fff" fill-rule="evenodd"/>
    <path id="Path_116678" data-name="Path 116678" d="M-1677.306,1612.84l2.438,1.412a1.366,1.366,0,0,0,1.129,0l2.431-1.4-2.431-1.412a1.359,1.359,0,0,0-1.129,0l-2.438,1.4Zm4,2.17h0Zm-1,1.107a2.9,2.9,0,0,1-1.435-.357l-2.749-1.583a1.556,1.556,0,0,1-.848-1.33,1.573,1.573,0,0,1,.855-1.346l2.742-1.583a3.076,3.076,0,0,1,2.876.008l2.749,1.583a1.564,1.564,0,0,1,.848,1.337,1.555,1.555,0,0,1-.848,1.33l-2.749,1.583h0A2.927,2.927,0,0,1-1674.311,1616.118Z" transform="translate(-29.192 -40.287)" fill="#527e53" fill-rule="evenodd"/>
    <path id="Path_116679" data-name="Path 116679" d="M-1662.3,1609.421l2.75-1.583a.619.619,0,0,0,0-1.167l-2.742-1.583a2.245,2.245,0,0,0-2.007,0l-2.742,1.583a.614.614,0,0,0,0,1.16l2.742,1.59A2.251,2.251,0,0,0-1662.3,1609.421Z" transform="translate(-33.45 -38.599)" fill="#fff" fill-rule="evenodd"/>
    <path id="Path_116680" data-name="Path 116680" d="M-1666.776,1606.765l2.43,1.413a1.35,1.35,0,0,0,1.123,0h.008l2.429-1.405-2.429-1.412a1.366,1.366,0,0,0-1.131,0l-2.43,1.4Zm2.995,3.285a2.835,2.835,0,0,1-1.442-.364l-2.742-1.583a1.557,1.557,0,0,1-.855-1.337,1.546,1.546,0,0,1,.855-1.33l2.742-1.583a3.078,3.078,0,0,1,2.877,0l2.749,1.583a1.564,1.564,0,0,1,.847,1.337,1.552,1.552,0,0,1-.847,1.33l-2.749,1.583A2.826,2.826,0,0,1-1663.781,1610.05Z" transform="translate(-32.959 -38.114)" fill="#527e53" fill-rule="evenodd"/>
    <path id="Path_116681" data-name="Path 116681" d="M-1667.04,1618.835l2.742-1.583a2.205,2.205,0,0,1,2,0l2.75,1.583a.612.612,0,0,1-.008,1.159l-2.742,1.583a2.219,2.219,0,0,1-2.006,0l-2.742-1.583A.612.612,0,0,1-1667.04,1618.835Z" transform="translate(-33.446 -42.952)" fill="#fff" fill-rule="evenodd"/>
    <path id="Path_116682" data-name="Path 116682" d="M-1666.784,1618.926l2.431,1.412a1.361,1.361,0,0,0,1.129,0l2.43-1.412-2.43-1.4a1.378,1.378,0,0,0-1.123-.008l-2.437,1.412Zm3,3.277a2.9,2.9,0,0,1-1.442-.357l-2.742-1.582a1.576,1.576,0,0,1-.847-1.338,1.567,1.567,0,0,1,.847-1.338h.008l2.742-1.583a3.081,3.081,0,0,1,2.877,0l2.749,1.591a1.533,1.533,0,0,1,.84,1.33,1.558,1.558,0,0,1-.847,1.338l-2.742,1.582A2.92,2.92,0,0,1-1663.789,1622.2Z" transform="translate(-32.959 -42.464)" fill="#527e53" fill-rule="evenodd"/>
    <path id="Path_116683" data-name="Path 116683" d="M-1656.527,1624.912l2.742-1.583a2.216,2.216,0,0,1,2.007,0l2.742,1.59a.607.607,0,0,1-.007,1.152l-2.735,1.59a2.237,2.237,0,0,1-2.014,0l-2.736-1.59A.614.614,0,0,1-1656.527,1624.912Z" transform="translate(-37.212 -45.127)" fill="#fff" fill-rule="evenodd"/>
    <path id="Path_116684" data-name="Path 116684" d="M-1656.27,1625.007l2.438,1.413a1.359,1.359,0,0,0,1.129,0l2.43-1.4-2.43-1.413a1.365,1.365,0,0,0-1.129,0l-2.438,1.4Zm3,3.286a2.82,2.82,0,0,1-1.435-.364l-2.742-1.584a1.541,1.541,0,0,1-.848-1.33,1.556,1.556,0,0,1,.848-1.338h0l2.75-1.583a3.075,3.075,0,0,1,2.876,0l2.742,1.583a1.566,1.566,0,0,1,.847,1.338,1.541,1.541,0,0,1-.855,1.33l-2.735,1.584A2.874,2.874,0,0,1-1653.275,1628.292Z" transform="translate(-36.725 -44.643)" fill="#527e53" fill-rule="evenodd"/>
    <path id="Path_116685" data-name="Path 116685" d="M-1710.329,1676.179v-3.315h-.052a9.427,9.427,0,0,1-4.86-1.084l-37.687-21.8a3.6,3.6,0,0,1-1.812-2.1v3.315a3.617,3.617,0,0,0,1.813,2.1l37.688,21.8a9.419,9.419,0,0,0,4.86,1.078Z" transform="translate(-2.204 -54.003)" fill="#3cdc82" fill-rule="evenodd"/>
    <path id="Path_116686" data-name="Path 116686" d="M-1754.349,1650.581a2.758,2.758,0,0,0,1.389,1.486l37.672,21.79a8,8,0,0,0,3.6.951v-1.576a9.83,9.83,0,0,1-4.46-1.174l-37.7-21.806c-.164-.1-.334-.207-.5-.326v.654Zm43.535,25.112h0Zm-.231.877a10.088,10.088,0,0,1-5.106-1.2l-37.7-21.805a4.487,4.487,0,0,1-2.207-2.608.7.7,0,0,1-.036-.245V1647.4a.866.866,0,0,1,.75-.862.861.861,0,0,1,.958.616,2.7,2.7,0,0,0,1.427,1.591l37.672,21.789a8.335,8.335,0,0,0,4.414.966,1.086,1.086,0,0,1,.647.252.876.876,0,0,1,.283.624v3.315a.874.874,0,0,1-.825.877h-.275Z" transform="translate(-1.72 -53.517)" fill="#527e53" fill-rule="evenodd"/>
    <path id="Path_116687" data-name="Path 116687" d="M-1711.084,1575.192a.861.861,0,0,1-.758-.439.859.859,0,0,1,.32-1.188l16.432-9.491a.861.861,0,0,1,1.189.32.861.861,0,0,1-.32,1.189l-16.431,9.49A.845.845,0,0,1-1711.084,1575.192Z" transform="translate(-17.516 -23.96)" fill="#527e53" fill-rule="evenodd"/>
    <path id="Path_116688" data-name="Path 116688" d="M-1711.084,1565.237a.861.861,0,0,1-.758-.439.859.859,0,0,1,.32-1.188l16.432-9.492a.864.864,0,0,1,1.189.313.87.87,0,0,1-.32,1.2l-16.431,9.49A.839.839,0,0,1-1711.084,1565.237Z" transform="translate(-17.516 -20.397)" fill="#527e53" fill-rule="evenodd"/>
    <path id="Path_116689" data-name="Path 116689" d="M-1711.084,1586.782a.862.862,0,0,1-.758-.438.86.86,0,0,1,.32-1.19l13.288-7.677a.861.861,0,0,1,1.189.32.877.877,0,0,1-.319,1.2l-13.288,7.669A.845.845,0,0,1-1711.084,1586.782Z" transform="translate(-17.516 -28.758)" fill="#527e53" fill-rule="evenodd"/>
  </g>
</svg>
