<svg xmlns="http://www.w3.org/2000/svg" width="184.947" height="45.948" viewBox="0 0 184.947 45.948">
  <g id="Group_176869" data-name="Group 176869" transform="translate(-254.676 -789.146)">
    <path id="Path_114960" data-name="Path 114960" d="M433.451,835.094a6.172,6.172,0,1,0-6.171-6.172A6.172,6.172,0,0,0,433.451,835.094Z" fill="#1e1e1e"/>
    <path id="Path_114961" data-name="Path 114961" d="M398.931,835.094a6.172,6.172,0,1,0-6.172-6.172A6.172,6.172,0,0,0,398.931,835.094Z" fill="#1e1e1e"/>
    <path id="Path_114962" data-name="Path 114962" d="M364.41,835.094a6.172,6.172,0,1,0-6.172-6.172A6.172,6.172,0,0,0,364.41,835.094Z" fill="#1e1e1e"/>
    <path id="Path_114963" data-name="Path 114963" d="M329.889,835.094a6.172,6.172,0,1,0-6.171-6.172A6.172,6.172,0,0,0,329.889,835.094Z" fill="#1e1e1e"/>
    <path id="Path_114964" data-name="Path 114964" d="M295.369,835.094a6.172,6.172,0,1,0-6.172-6.172A6.172,6.172,0,0,0,295.369,835.094Z" fill="#1e1e1e"/>
    <path id="Path_114965" data-name="Path 114965" d="M260.848,822.75a6.172,6.172,0,1,0,6.172,6.172A6.172,6.172,0,0,0,260.848,822.75Z" fill="#1e1e1e"/>
    <path id="Path_114966" data-name="Path 114966" d="M433.451,801.49a6.172,6.172,0,1,0-6.171-6.172A6.172,6.172,0,0,0,433.451,801.49Z" fill="#1e1e1e"/>
    <path id="Path_114967" data-name="Path 114967" d="M398.931,801.49a6.172,6.172,0,1,0-6.172-6.172A6.172,6.172,0,0,0,398.931,801.49Z" fill="#1e1e1e"/>
    <path id="Path_114968" data-name="Path 114968" d="M364.41,801.49a6.172,6.172,0,1,0-6.172-6.172A6.172,6.172,0,0,0,364.41,801.49Z" fill="#1e1e1e"/>
    <path id="Path_114969" data-name="Path 114969" d="M329.889,801.49a6.172,6.172,0,1,0-6.171-6.172A6.172,6.172,0,0,0,329.889,801.49Z" fill="#1e1e1e"/>
    <path id="Path_114970" data-name="Path 114970" d="M295.369,801.49a6.172,6.172,0,1,0-6.172-6.172A6.173,6.173,0,0,0,295.369,801.49Z" fill="#1e1e1e"/>
    <path id="Path_114971" data-name="Path 114971" d="M260.848,801.49a6.172,6.172,0,1,0-6.172-6.172A6.172,6.172,0,0,0,260.848,801.49Z" fill="#1e1e1e"/>
  </g>
</svg>
