<svg xmlns="http://www.w3.org/2000/svg" xmlns:xlink="http://www.w3.org/1999/xlink" width="538.438" height="457.154" viewBox="0 0 538.438 457.154">
  <defs>
    <linearGradient id="linear-gradient" x1="0.497" y1="1" x2="0.503" gradientUnits="objectBoundingBox">
      <stop offset="0" stop-color="#5a5b5d"/>
      <stop offset="0.311" stop-color="#57585a"/>
      <stop offset="0.541" stop-color="#4e4e50"/>
      <stop offset="0.745" stop-color="#403f40"/>
      <stop offset="0.932" stop-color="#2c282a"/>
      <stop offset="1" stop-color="#231f20"/>
    </linearGradient>
    <linearGradient id="linear-gradient-2" y1="0.5" x2="1" y2="0.5" gradientUnits="objectBoundingBox">
      <stop offset="0" stop-color="#e2e3e4"/>
      <stop offset="1" stop-color="#eeefef"/>
    </linearGradient>
    <linearGradient id="linear-gradient-3" y1="0.5" x2="1" y2="0.5" gradientUnits="objectBoundingBox">
      <stop offset="0" stop-color="#929497"/>
      <stop offset="1" stop-color="#dbdcdd"/>
    </linearGradient>
    <linearGradient id="linear-gradient-4" x1="0.054" y1="0.5" x2="1.792" y2="0.5" gradientUnits="objectBoundingBox">
      <stop offset="0" stop-color="#243841"/>
      <stop offset="1" stop-color="#7296a8"/>
    </linearGradient>
    <linearGradient id="linear-gradient-5" x1="0" x2="1.827" xlink:href="#linear-gradient-4"/>
    <linearGradient id="linear-gradient-6" x1="0" x2="1.92" xlink:href="#linear-gradient-4"/>
    <linearGradient id="linear-gradient-7" y1="0.5" x2="1.459" y2="0.5" gradientUnits="objectBoundingBox">
      <stop offset="0" stop-color="#7296a8"/>
      <stop offset="1" stop-color="#243841"/>
    </linearGradient>
    <linearGradient id="linear-gradient-8" x1="0" x2="1.485" xlink:href="#linear-gradient-7"/>
    <linearGradient id="linear-gradient-9" x1="0" x2="1.553" xlink:href="#linear-gradient-7"/>
    <linearGradient id="linear-gradient-10" x1="0.503" y1="0.996" x2="0.497" y2="-0.003" gradientUnits="objectBoundingBox">
      <stop offset="0" stop-color="#909295"/>
      <stop offset="0.345" stop-color="#69696c"/>
      <stop offset="0.762" stop-color="#3f3d3f"/>
      <stop offset="0.973" stop-color="#302d2f"/>
      <stop offset="1" stop-color="#231f20"/>
    </linearGradient>
    <linearGradient id="linear-gradient-11" x1="-0.534" y1="0.828" x2="1.457" y2="0.186" gradientUnits="objectBoundingBox">
      <stop offset="0" stop-color="#bbbdbf"/>
      <stop offset="1" stop-color="#545456"/>
    </linearGradient>
    <linearGradient id="linear-gradient-12" x1="0.5" y1="1" x2="0.5" gradientUnits="objectBoundingBox">
      <stop offset="0" stop-color="#bbbdbf"/>
      <stop offset="1" stop-color="#7a7c7f"/>
    </linearGradient>
    <linearGradient id="linear-gradient-13" x1="-0.332" y1="0.092" x2="1.373" y2="0.929" gradientUnits="objectBoundingBox">
      <stop offset="0" stop-color="#231f20"/>
      <stop offset="1" stop-color="#626366"/>
    </linearGradient>
    <linearGradient id="linear-gradient-14" x1="-0.225" y1="0.086" x2="1.265" y2="0.937" xlink:href="#linear-gradient-13"/>
    <linearGradient id="linear-gradient-15" x1="-0.093" y1="0.884" x2="1.26" y2="0.008" gradientUnits="objectBoundingBox">
      <stop offset="0" stop-color="#5a5b5d"/>
      <stop offset="0.166" stop-color="#57585a"/>
      <stop offset="0.289" stop-color="#4e4e50"/>
      <stop offset="0.397" stop-color="#403f40"/>
      <stop offset="0.498" stop-color="#2c282a"/>
      <stop offset="0.534" stop-color="#231f20"/>
    </linearGradient>
    <linearGradient id="linear-gradient-16" x1="-0.038" y1="0.913" x2="1.147" y2="0.004" xlink:href="#linear-gradient-15"/>
    <linearGradient id="linear-gradient-17" x1="0.176" y1="-0.116" x2="0.806" y2="1.128" xlink:href="#linear-gradient-3"/>
    <linearGradient id="linear-gradient-18" x1="-0.339" y1="0.157" x2="1.355" y2="0.85" xlink:href="#linear-gradient-2"/>
    <linearGradient id="linear-gradient-19" x1="-69.467" y1="0.884" x2="-68.114" y2="0.008" xlink:href="#linear-gradient-15"/>
    <linearGradient id="linear-gradient-20" x1="-59.017" y1="0.913" x2="-57.832" y2="0.004" xlink:href="#linear-gradient-15"/>
    <linearGradient id="linear-gradient-21" x1="-5.113" y1="-0.116" x2="-4.483" y2="1.128" xlink:href="#linear-gradient-2"/>
    <linearGradient id="linear-gradient-22" x1="-63.447" y1="0.157" x2="-61.754" y2="0.85" xlink:href="#linear-gradient-3"/>
    <linearGradient id="linear-gradient-23" y1="0.5" x2="1" y2="0.5" gradientUnits="objectBoundingBox">
      <stop offset="0" stop-color="#dbdcdd"/>
      <stop offset="1" stop-color="#929497"/>
    </linearGradient>
    <linearGradient id="linear-gradient-24" x1="0.429" y1="-0.952" x2="0.579" y2="2.103" gradientUnits="objectBoundingBox">
      <stop offset="0" stop-color="#f1f1f2"/>
      <stop offset="1" stop-color="#929497"/>
    </linearGradient>
    <linearGradient id="linear-gradient-25" x1="0.273" y1="1.168" x2="0.919" y2="-0.031" gradientUnits="objectBoundingBox">
      <stop offset="0" stop-color="#898b8d"/>
      <stop offset="1" stop-color="#4a4a4c"/>
    </linearGradient>
    <linearGradient id="linear-gradient-26" x1="0.423" y1="-1.05" x2="0.593" y2="2.376" xlink:href="#linear-gradient-24"/>
  </defs>
  <g id="Group_177560" data-name="Group 177560" transform="translate(-2041.869 -354.791)">
    <g id="trees_back" data-name="trees back" transform="translate(2041.869 599.807)">
      <g id="Group_168307" data-name="Group 168307">
        <path id="Path_102394" data-name="Path 102394" d="M2193.4,1130.3a29.418,29.418,0,0,0-2.005-48.657c-.308-20.077-15.966-36.517-35.765-37.072a35.886,35.886,0,0,0-13.39,2.208c-1.181-19.26-16.518-34.749-35.73-35.286-20.359-.572-37.327,15.859-37.912,36.705a38.153,38.153,0,0,0,6.84,22.921c-.02.043-.043.085-.059.125-17.532,2.494-31.271,17.6-31.8,36.313a38.71,38.71,0,0,0,.681,8.285,15.452,15.452,0,0,0,1.818,18.853,15.626,15.626,0,0,0,9.621,4.9,29.135,29.135,0,0,0,56.977,4.63,23.479,23.479,0,0,0,19.52-2.261,36.064,36.064,0,0,0,41.339,5.846,13.245,13.245,0,1,0,19.863-17.51Z" transform="translate(-2041.869 -1011.48)" fill="#8bbf3a"/>
        <path id="Path_102395" data-name="Path 102395" d="M2185.876,1319.819a103.981,103.981,0,0,0-.188-11.345c10.469-3.6,16.538-32.574,16.538-32.574-7.887,16.938-14.208,25.618-17.476,26.529-.368-3.649-.83-12.3-1.029-15.925a84.1,84.1,0,0,0-.81-8.771c-.666-3.962,1.34-21.764-.428-23.439,0,0-3.29,26.046-4.672,23.152-4.323-9.049-6.671-10.425-11.805-18.089-.642-.955,11.82,25.414,11.687,26.9-.521,5.946-1.188,14.564-2.028,27.048a98.73,98.73,0,0,1-13.117-9.2c2.265-7.705-5-22.83-5-22.83.215,8.156,3.346,19,1.873,20.012-3.2-3.795-19.208-15.765-22.986-20.691,0,0,22.386,29.39,38.642,40.741-.752,9.538-1.049,25.252-1.44,28.3-.823,6.371-2.087,13.726-3.377,19.294h18.971c-.319-2.756-1.012-5.392-1.075-8.344-.123-5.872-.289-26.543-.97-30.662,23.635-11.754,43.48-40.062,43.48-40.062C2213.684,1306.473,2192.937,1319.263,2185.876,1319.819Z" transform="translate(-2101.15 -1163.698)" fill="#493b34"/>
        <path id="Path_102396" data-name="Path 102396" d="M2103.734,1022.65c16.985-3.861,23.809-.486,34.788,4.932a36.506,36.506,0,0,0-29.155-16.087c-20.359-.572-37.327,15.859-37.912,36.705a38.153,38.153,0,0,0,6.84,22.921c-.02.043-.043.085-.059.125-17.532,2.494-31.271,17.6-31.8,36.313a37.749,37.749,0,0,0,.258,5.462c3.2-7.1,18.112-33.444,39.521-28.562,13.051,2.978,15.8,2.508,22.868-2.2,2.589-1.726.1-2.718-10.7-6.082C2074.941,1068.871,2071.62,1029.948,2103.734,1022.65Z" transform="translate(-2044.725 -1011.48)" fill="#bae896" opacity="0.5"/>
        <path id="Path_102397" data-name="Path 102397" d="M2266.785,1109.368c-3.891,5.351.554,5.694,10.951,2.919,6.017-1.608,17.53-4.2,27.854-3.39,3.785.3,12.714,2.33,15.272,2.389a36.006,36.006,0,0,0-38.5-8.927S2270.679,1104.015,2266.785,1109.368Z" transform="translate(-2181.993 -1067.058)" fill="#bae896" opacity="0.5"/>
        <g id="Group_168306" data-name="Group 168306" transform="translate(2.184 60.149)" opacity="0.5">
          <path id="Path_102398" data-name="Path 102398" d="M2208.991,1207.716a29.371,29.371,0,0,0-13.927-25.011,38.381,38.381,0,0,0-1.507-10.015,16.275,16.275,0,0,1-9.216,7.464c-10.228,3.088-3.894,8.435-3.894,8.435s13.611,23.487-8.759,36.979c-9.437,5.694-23.489,6.845-35.353,4.05-14.136-3.331-25.942-21.42-25.942-21.42s2.26,25.636-23.364,32.612c-12.123,3.3-24.508-8.781-24.508-8.781s-1.767.672-8.579.852c-2.414.066-4.5.083-6.22.079a15.915,15.915,0,0,0,2.028,2.8,15.626,15.626,0,0,0,9.621,4.9,29.135,29.135,0,0,0,56.977,4.63,23.479,23.479,0,0,0,19.52-2.261,36.063,36.063,0,0,0,41.338,5.846,13.245,13.245,0,1,0,19.863-17.51A29.365,29.365,0,0,0,2208.991,1207.716Z" transform="translate(-2047.723 -1172.691)" fill="#385a27"/>
          <path id="Path_102399" data-name="Path 102399" d="M2367.7,1264.839a7.986,7.986,0,1,1-7.984-7.985A7.983,7.983,0,0,1,2367.7,1264.839Z" transform="translate(-2238.299 -1225.452)" fill="#385a27"/>
          <path id="Path_102400" data-name="Path 102400" d="M2333.943,1291.133a5.064,5.064,0,1,1-5.063-5.066A5.062,5.062,0,0,1,2333.943,1291.133Z" transform="translate(-2220.802 -1243.766)" fill="#385a27"/>
          <ellipse id="Ellipse_9765" data-name="Ellipse 9765" cx="5.066" cy="5.064" rx="5.066" ry="5.064" transform="translate(22.953 50.792) rotate(-0.145)" fill="#385a27"/>
          <path id="Path_102401" data-name="Path 102401" d="M2374.2,1237.53a3.722,3.722,0,1,1-3.723-3.719A3.722,3.722,0,0,1,2374.2,1237.53Z" transform="translate(-2247.72 -1211.007)" fill="#385a27"/>
          <path id="Path_102402" data-name="Path 102402" d="M2143.878,1292.132a3.723,3.723,0,1,1-3.722-3.722A3.722,3.722,0,0,1,2143.878,1292.132Z" transform="translate(-2103.335 -1245.234)" fill="#385a27"/>
        </g>
        <path id="Path_102403" data-name="Path 102403" d="M2410.439,1336.8a5.066,5.066,0,1,1-5.066-5.066A5.065,5.065,0,0,1,2410.439,1336.8Z" transform="translate(-2266.571 -1212.244)" fill="#bae896" opacity="0.5"/>
        <path id="Path_102404" data-name="Path 102404" d="M2428.988,1317.98a3.255,3.255,0,1,1-3.255-3.253A3.253,3.253,0,0,1,2428.988,1317.98Z" transform="translate(-2280.469 -1201.583)" fill="#bae896" opacity="0.5"/>
        <path id="Path_102405" data-name="Path 102405" d="M2172.766,1078.058a5.064,5.064,0,1,1-5.066-5.065A5.067,5.067,0,0,1,2172.766,1078.058Z" transform="translate(-2117.577 -1050.042)" fill="#bae896" opacity="0.5"/>
        <path id="Path_102406" data-name="Path 102406" d="M2125.8,1219.931a8.264,8.264,0,1,1-8.262-8.261A8.26,8.26,0,0,1,2125.8,1219.931Z" transform="translate(-2084.126 -1136.977)" fill="#bae896" opacity="0.5"/>
        <path id="Path_102407" data-name="Path 102407" d="M2189.114,1057.91a2.38,2.38,0,1,1-2.383-2.381A2.381,2.381,0,0,1,2189.114,1057.91Z" transform="translate(-2131.191 -1039.094)" fill="#bae896" opacity="0.5"/>
        <path id="Path_102408" data-name="Path 102408" d="M2259.285,1143.553a2.381,2.381,0,1,1-2.379-2.383A2.379,2.379,0,0,1,2259.285,1143.553Z" transform="translate(-2175.18 -1092.782)" fill="#bae896" opacity="0.5"/>
        <path id="Path_102409" data-name="Path 102409" d="M2233.643,1438.38v-3.57l-1.791.46c-.712,9.59-1,24.556-1.385,27.526-.823,6.371-2.087,13.726-3.377,19.295h4.172l2.381-13.522Z" transform="translate(-2157.982 -1276.862)" fill="#a86f41" opacity="0.5"/>
      </g>
    </g>
    <g id="buildings" transform="translate(2084.006 354.791)">
      <path id="Path_102410" data-name="Path 102410" d="M2982.418,1490.769l-179.1-6.146v31.158h179.1Z" transform="translate(-2561.354 -1063.072)" fill="url(#linear-gradient)"/>
      <path id="Path_102411" data-name="Path 102411" d="M2294.8,826.163l189.732-6.51V423.88l-189.732,89.2v38.788l4.374,4.188V601.1l-4.374,2.595v39.081l4.374,3.27v44.993l-4.374,3.342V734.85l4.374,1.178V781.02l-4.374,1.846Z" transform="translate(-2242.569 -398.102)" fill="url(#linear-gradient-2)"/>
      <path id="Path_102412" data-name="Path 102412" d="M2993.052,513.083l-189.73-89.2V819.652l189.73,6.51V783.022l-3.544-1.921V736.159l3.544-.916V693.436l-3.544-2.218v-44.94l3.544-2.834V603.692l-3.544-2.355V556.4l3.544-3.585Z" transform="translate(-2561.354 -398.102)" fill="url(#linear-gradient-3)"/>
      <path id="Path_102413" data-name="Path 102413" d="M2989.508,651.468l-186.186-75.935v56.53l186.186,64.343Z" transform="translate(-2561.354 -493.172)" fill="url(#linear-gradient-4)"/>
      <path id="Path_102414" data-name="Path 102414" d="M2989.508,931.313l-186.186-52.754v56.533l186.186,41.16Z" transform="translate(-2561.354 -683.137)" fill="url(#linear-gradient-5)"/>
      <path id="Path_102415" data-name="Path 102415" d="M2989.508,1211.163l-186.186-29.569v56.532l186.186,17.979Z" transform="translate(-2561.354 -873.106)" fill="url(#linear-gradient-6)"/>
      <path id="Path_102416" data-name="Path 102416" d="M2306.528,1211.032v44.992l185.358-17.9v-56.532Z" transform="translate(-2249.918 -873.106)" fill="url(#linear-gradient-7)"/>
      <path id="Path_102417" data-name="Path 102417" d="M2306.528,931.077v44.993l185.358-40.978V878.559Z" transform="translate(-2249.918 -683.137)" fill="url(#linear-gradient-8)"/>
      <path id="Path_102418" data-name="Path 102418" d="M2306.528,651.13v45.038l185.358-64.043V575.533Z" transform="translate(-2249.918 -493.172)" fill="url(#linear-gradient-9)"/>
      <path id="Path_102419" data-name="Path 102419" d="M2331.376,1490.665l176.087-6.043v31.158H2331.376Z" transform="translate(-2265.496 -1063.072)" fill="url(#linear-gradient-10)"/>
      <path id="Path_102422" data-name="Path 102422" d="M2294.8,1352.853l4.374-1.846,185.358-17.9,186.186,17.979,3.544,1.921-186.486-13.032-.076,49.77-3.169-.107-1.583.055-1.7-49.5Z" transform="translate(-2242.569 -968.09)" fill="#fff"/>
      <path id="Path_102420" data-name="Path 102420" d="M2294.8,793.845l4.374-2.595,185.358-64.043,186.186,64.283,3.544,2.356-186.486-61.637-1.253,44.979-1.991-.6-2.263.67-1.021-44.845Z" transform="translate(-2242.569 -588.255)" fill="#fff"/>
      <path id="Path_102421" data-name="Path 102421" d="M2294.8,1074.4l4.374-3.342,185.358-40.978,186.186,41.16,3.544,2.217-186.486-37.688-.747,45.831-2.5-.449-2.528.449-.756-45.658Z" transform="translate(-2242.569 -778.123)" fill="#fff"/>
      <path id="Path_102423" data-name="Path 102423" d="M2299.178,919.17l-4.374-3.27,189.732-56.335,189.731,57.006-3.544,2.834-186.186-52.754Z" transform="translate(-2242.569 -671.229)" fill="#434345"/>
      <path id="Path_102424" data-name="Path 102424" d="M2299.178,1201.858l-4.374-1.177,189.732-33.72,189.731,34.112-3.544.916-186.186-29.569Z" transform="translate(-2242.569 -863.933)" fill="#434345"/>
      <path id="Path_102425" data-name="Path 102425" d="M2790.955,473.218l3.4-1.433,3.3,1.41,1.43-47.089-4.733-2.225-5.337,2.506Z" transform="translate(-2552.388 -398.102)" fill="#fff"/>
      <path id="Path_102426" data-name="Path 102426" d="M2299.178,636.548l-4.374-4.188,189.732-80.087L2674.267,633.3l-3.544,3.585-186.186-75.935Z" transform="translate(-2242.569 -478.591)" fill="#434345"/>
      <path id="Path_102427" data-name="Path 102427" d="M2552.273,1325.376l-32.2,1.1v-99.9l32.2,3.872Z" transform="translate(-2383.786 -901.305)" fill="url(#linear-gradient-11)"/>
      <path id="Path_102428" data-name="Path 102428" d="M2665.611,1187.656l-59.229,9.405v103.917l59.229-2.032Z" transform="translate(-2437.895 -876.906)" fill="url(#linear-gradient-12)"/>
      <path id="Path_102429" data-name="Path 102429" d="M2724.738,1253.451l-24.039,3.156v81.675l24.039-.865Z" transform="translate(-2497.021 -918.153)" fill="url(#linear-gradient-13)"/>
      <path id="Path_102430" data-name="Path 102430" d="M2592.339,1183.623l-15.679-2.4-87.16,15.491,11.406,1.432,32.2,3.872,59.229-8.745Z" transform="translate(-2364.622 -872.872)" fill="#434345"/>
      <path id="Path_102431" data-name="Path 102431" d="M2513.348,1226.575v99.9l-2-.055-2-45.793v-53.42Z" transform="translate(-2377.064 -901.305)" fill="#fff"/>
      <path id="Path_102432" data-name="Path 102432" d="M2616.941,1267.12v78.717l27.13-1.016v-81.269Z" transform="translate(-2444.514 -924.485)" fill="url(#linear-gradient-14)"/>
      <g id="Group_168308" data-name="Group 168308" transform="translate(201.412 380.555)">
        <path id="Path_102433" data-name="Path 102433" d="M2699.36,1376.951a2.436,2.436,0,0,0-2.525-2.2,2.157,2.157,0,0,0-2.208,2.2,2.439,2.439,0,0,0,2.208,2.525A2.71,2.71,0,0,0,2699.36,1376.951Z" transform="translate(-2694.627 -1374.747)" fill="#e6e7e8" fill-rule="evenodd"/>
      </g>
      <g id="Group_168309" data-name="Group 168309" transform="translate(197.191 380.81)">
        <path id="Path_102434" data-name="Path 102434" d="M2688.046,1377.636a2.435,2.435,0,0,0-2.521-2.2,2.16,2.16,0,0,0-2.212,2.2,2.442,2.442,0,0,0,2.212,2.525A2.709,2.709,0,0,0,2688.046,1377.636Z" transform="translate(-2683.313 -1375.432)" fill="#e6e7e8" fill-rule="evenodd"/>
      </g>
      <g id="Group_168310" data-name="Group 168310" transform="translate(290.593)">
        <path id="Path_102435" data-name="Path 102435" d="M2978.959,475.586l-7.85-3.692V453.522l7.85,3.861Z" transform="translate(-2957.132 -416.685)" fill="url(#linear-gradient-15)"/>
        <path id="Path_102436" data-name="Path 102436" d="M3138.26,552.661l-7.223-3.4V532.19l7.223,3.552Z" transform="translate(-3057.39 -466.001)" fill="url(#linear-gradient-16)"/>
        <path id="Path_102437" data-name="Path 102437" d="M3047.317,433.184l-89.407-43.978V354.791l89.407,47.6Z" transform="translate(-2948.858 -354.791)" fill="url(#linear-gradient-17)"/>
        <path id="Path_102438" data-name="Path 102438" d="M2933.648,393.122l9.052-3.912V354.8l-9.052,4.242Z" transform="translate(-2933.648 -354.794)" fill="url(#linear-gradient-18)"/>
        <path id="Path_102439" data-name="Path 102439" d="M3023.273,494.042l8.835-3.033L2942.7,447.032l-9.052,3.912Z" transform="translate(-2933.648 -412.616)" fill="#434345"/>
      </g>
      <g id="Group_168311" data-name="Group 168311" transform="translate(94.58)">
        <path id="Path_102440" data-name="Path 102440" d="M2613.682,475.586l7.85-3.692V453.522l-7.85,3.861Z" transform="translate(-2537.051 -416.685)" fill="url(#linear-gradient-19)"/>
        <path id="Path_102441" data-name="Path 102441" d="M2455.438,552.661l7.221-3.4V532.19l-7.221,3.552Z" transform="translate(-2437.849 -466.001)" fill="url(#linear-gradient-20)"/>
        <path id="Path_102442" data-name="Path 102442" d="M2408.3,433.184l89.406-43.978V354.791l-89.406,47.6Z" transform="translate(-2408.297 -354.791)" fill="url(#linear-gradient-21)"/>
        <path id="Path_102443" data-name="Path 102443" d="M2656.974,393.122l-9.054-3.912V354.8l9.054,4.242Z" transform="translate(-2558.515 -354.794)" fill="url(#linear-gradient-22)"/>
        <path id="Path_102444" data-name="Path 102444" d="M2417.13,494.042l-8.833-3.033,89.406-43.978,9.053,3.912Z" transform="translate(-2408.297 -412.616)" fill="#434345"/>
      </g>
      <path id="Path_102445" data-name="Path 102445" d="M2508.494,1171.8l-90.471,15.653,38.074,4.785,91.433-14.521Z" transform="translate(-2319.814 -866.966)" fill="#434345"/>
      <path id="Path_102446" data-name="Path 102446" d="M2683.86,1154.733l-23.358-3.787v7.781l23.358,3.515Z" transform="translate(-2471.822 -853.894)" fill="url(#linear-gradient-23)"/>
      <path id="Path_102447" data-name="Path 102447" d="M2418.023,1167.42l90.471-16.474v7.781l-90.471,15.653Z" transform="translate(-2319.814 -853.894)" fill="#fff"/>
      <path id="Path_102448" data-name="Path 102448" d="M2488.03,1501.448l85.651-1.413v-15.679l-85.74,3.059Z" transform="translate(-2363.645 -1062.905)" fill="url(#linear-gradient-24)"/>
      <path id="Path_102449" data-name="Path 102449" d="M2691.223,1484.356v15.679l-15.782-.261v15.84H2708.9v-30.668Z" transform="translate(-2481.188 -1062.905)" fill="url(#linear-gradient-25)"/>
      <path id="Path_102450" data-name="Path 102450" d="M2451.325,1527.356l83.62-1.678v15.839h-83.62Z" transform="translate(-2340.691 -1088.809)" fill="url(#linear-gradient-26)"/>
      <path id="Path_102451" data-name="Path 102451" d="M2591.362,1482.7l-17.681-1.925-85.74,4.395.086,13.54,1.566-12.528,81.732-3.3,1.49,14.862.865.052v-15.149Z" transform="translate(-2363.645 -1060.66)" fill="#fff"/>
      <path id="Path_102452" data-name="Path 102452" d="M2550.727,1523.694l-15.782-1.6-83.62,3.014v14.161l1.563-13.028,79.86-2.253,1.49,15.28h.707v-15.317Z" transform="translate(-2340.691 -1086.565)" fill="#fff"/>
      <rect id="Rectangle_149223" data-name="Rectangle 149223" width="480.848" height="4.446" transform="translate(0 452.708)" fill="#434345"/>
    </g>
    <g id="shadows" transform="translate(2136.241 378.101)">
      <path id="Path_102453" data-name="Path 102453" d="M3085.6,656.346V969.431l-134.647-4.622Z" transform="translate(-2706.136 -567.143)" fill="#404041" opacity="0.2"/>
      <path id="Path_102454" data-name="Path 102454" d="M2294.8,506.469l189.732-89.2L2294.8,819.554Z" transform="translate(-2294.804 -417.266)" fill="#f2f9f8" opacity="0.2"/>
    </g>
    <g id="trees_front" data-name="trees front" transform="translate(2454.694 692.627)">
      <g id="Group_168314" data-name="Group 168314" transform="translate(0)">
        <path id="Path_102455" data-name="Path 102455" d="M3269.631,1324.738a13.65,13.65,0,0,0-14.869-2.369,26.617,26.617,0,0,0-21.822-19.411,27.253,27.253,0,0,0,4.932-16.461c-.416-14.9-12.543-26.643-27.1-26.234-13.735.385-24.7,11.458-25.539,25.222a25.759,25.759,0,0,0-9.573-1.581c-14.553.408-26.008,12.817-25.592,27.716a27.441,27.441,0,0,0,1.678,8.671,27.318,27.318,0,0,0-3.426,14.035c.419,14.9,12.552,26.645,27.1,26.236a25.663,25.663,0,0,0,12.518-3.67c.221.232.4.486.64.707a16.633,16.633,0,0,0,23.5-1.049,16.814,16.814,0,0,0,2.893-4.343,25.669,25.669,0,0,0,24.512,2.387,9.714,9.714,0,0,0,2.841,4.972,10.09,10.09,0,0,0,14.25-.69,10.246,10.246,0,0,0,2.3-10.058,14.112,14.112,0,0,0,11.232-4.512A13.843,13.843,0,0,0,3269.631,1324.738Z" transform="translate(-3148.315 -1260.253)" fill="#8bbf3a"/>
        <g id="Group_168312" data-name="Group 168312" transform="translate(16.855 66.043)">
          <path id="Path_102456" data-name="Path 102456" d="M3277.153,1478.548c-.155,2-.221,3.577-.232,5.079h16.709c13.378-10.167,27.949-26.326,27.949-26.326-3.4,3.752-17.847,12.874-20.732,15.763-1.325-.766,1.5-9.034,1.689-15.248,0,0-6.551,11.523-4.512,17.4a89.85,89.85,0,0,1-11.833,7.017c-.754-9.512-1.354-16.078-1.829-20.609-.118-1.135,11.123-21.227,10.545-20.5-4.626,5.839-6.75,6.89-10.651,13.787-1.241,2.2-4.21-17.646-4.21-17.646-1.593,1.275.213,14.842-.387,17.859a54.822,54.822,0,0,0-.732,6.686c-.176,2.764-.592,9.356-.927,12.133-2.948-.69-8.649-7.3-15.767-20.213C3262.232,1453.726,3267.716,1475.808,3277.153,1478.548Z" transform="translate(-3236.583 -1437.261)" fill="#504943"/>
          <path id="Path_102457" data-name="Path 102457" d="M3231.919,1529.162h7.52c-8.517-4-35.951-11-45.95-19.265C3193.488,1509.9,3197.419,1519.88,3231.919,1529.162Z" transform="translate(-3193.488 -1482.796)" fill="#504943"/>
        </g>
        <path id="Path_102458" data-name="Path 102458" d="M3322.871,1296.09a4.9,4.9,0,1,1-4.906-4.9A4.906,4.906,0,0,1,3322.871,1296.09Z" transform="translate(-3251.594 -1279.645)" fill="#bae896" opacity="0.5"/>
        <path id="Path_102459" data-name="Path 102459" d="M3300.737,1294.281a2.306,2.306,0,1,1-2.3-2.306A2.3,2.3,0,0,1,3300.737,1294.281Z" transform="translate(-3240.976 -1280.139)" fill="#bae896" opacity="0.5"/>
        <path id="Path_102460" data-name="Path 102460" d="M3445.18,1433.308a2.306,2.306,0,1,1-2.308-2.305A2.306,2.306,0,0,1,3445.18,1433.308Z" transform="translate(-3331.526 -1367.295)" fill="#bae896" opacity="0.5"/>
        <g id="Group_168313" data-name="Group 168313" transform="translate(0.177 48.263)" opacity="0.5">
          <path id="Path_102461" data-name="Path 102461" d="M3175.723,1471.917a25.659,25.659,0,0,0,12.517-3.67c.221.232.4.486.64.707a16.633,16.633,0,0,0,23.5-1.049,16.807,16.807,0,0,0,2.893-4.343,25.668,25.668,0,0,0,24.512,2.387,9.713,9.713,0,0,0,2.841,4.972,10.09,10.09,0,0,0,14.25-.69,10.245,10.245,0,0,0,2.3-10.058,14.111,14.111,0,0,0,11.232-4.512,13.934,13.934,0,0,0,1.535-17.179c-1.719,4.163-4.211,9.282-6.809,11.437-4.711,3.907-9.893-4.849-14.677-9.56s-6.993.471-13.588,3.815-13.084-2.664-23.084-5.831-27.324,10.968-32.977,12.868-14.133,7.05-24.5,2.339a21.062,21.062,0,0,1-7.53-5.742C3150.242,1461.676,3161.878,1472.3,3175.723,1471.917Z" transform="translate(-3148.788 -1419.87)" fill="#385a27"/>
          <path id="Path_102462" data-name="Path 102462" d="M3358.731,1425.052a5.646,5.646,0,1,1-5.646-5.646A5.646,5.646,0,0,1,3358.731,1425.052Z" transform="translate(-3273.321 -1408.288)" fill="#385a27"/>
          <path id="Path_102463" data-name="Path 102463" d="M3190.259,1409.319a4.748,4.748,0,1,1-4.748-4.748A4.747,4.747,0,0,1,3190.259,1409.319Z" transform="translate(-3168.833 -1398.988)" fill="#385a27"/>
          <path id="Path_102464" data-name="Path 102464" d="M3387.415,1425.669a2.588,2.588,0,1,1-2.588-2.588A2.587,2.587,0,0,1,3387.415,1425.669Z" transform="translate(-3295.137 -1410.592)" fill="#385a27"/>
          <path id="Path_102465" data-name="Path 102465" d="M3166.281,1411.8a2.586,2.586,0,1,1-2.585-2.588A2.586,2.586,0,0,1,3166.281,1411.8Z" transform="translate(-3156.511 -1401.9)" fill="#385a27"/>
          <path id="Path_102466" data-name="Path 102466" d="M3204.571,1392.254a2.646,2.646,0,1,1-2.646-2.646A2.645,2.645,0,0,1,3204.571,1392.254Z" transform="translate(-3180.44 -1389.607)" fill="#385a27"/>
        </g>
        <path id="Path_102467" data-name="Path 102467" d="M3218.26,1260.264c-13.734.385-24.7,11.457-25.539,25.222a25.752,25.752,0,0,0-9.573-1.581,26.273,26.273,0,0,0-22.9,15.059c11.382-8.478,29.138-6.058,37.772-4.174a1.663,1.663,0,0,0,1.616-2.706l-2.674-3.11a2.958,2.958,0,0,1-.3-3.444c3.813-6.4,18.158-26.2,43.831-13.894A26.164,26.164,0,0,0,3218.26,1260.264Z" transform="translate(-3155.797 -1260.253)" fill="#bae896" opacity="0.5"/>
        <path id="Path_102468" data-name="Path 102468" d="M3333.4,1374.515a53.917,53.917,0,0,0-24.913,9.631s16.724-4.816,31.8-3.242a42.616,42.616,0,0,1,9,2.286,26.136,26.136,0,0,0-15.933-8.6C3333.369,1374.565,3333.379,1374.539,3333.4,1374.515Z" transform="translate(-3248.724 -1331.883)" fill="#bae896" opacity="0.5"/>
        <path id="Path_102469" data-name="Path 102469" d="M3281.806,1465.371a4.9,4.9,0,1,1-4.906-4.9A4.905,4.905,0,0,1,3281.806,1465.371Z" transform="translate(-3225.851 -1385.766)" fill="#8bbf3a"/>
        <path id="Path_102470" data-name="Path 102470" d="M3294.562,1447.572a2.306,2.306,0,1,1-2.308-2.306A2.306,2.306,0,0,1,3294.562,1447.572Z" transform="translate(-3237.105 -1376.236)" fill="#8bbf3a"/>
      </g>
    </g>
  </g>
</svg>
