<svg xmlns="http://www.w3.org/2000/svg" xmlns:xlink="http://www.w3.org/1999/xlink" width="975" height="873" viewBox="0 0 975 873">
  <defs>
    <clipPath id="clip-path">
      <rect id="Rectangle_150153" data-name="Rectangle 150153" width="975" height="873" transform="translate(945 202)" fill="rgba(255,255,255,0)"/>
    </clipPath>
  </defs>
  <g id="Mask_Group_3" data-name="Mask Group 3" transform="translate(-945 -202)" clip-path="url(#clip-path)" style="isolation: isolate">
    <path id="Path_120118" data-name="Path 120118" d="M1011.293,2733.76c202.3-46.563,384.038-110.712,540.126-190.627,180.66-92.493,325.9-206,431.659-337.381,54.6-67.812,102.692-145.438,142.971-230.743,64.327-136.213,110.593-295.322,137.543-472.907,22.777-150.007,31.741-312.646,26.678-483.358-1.548-52.066-4.405-104.462-8.514-156.884-85.69,11.786-183.829,28.68-287.2,52.861-200.446,46.85-380.468,111.033-535.043,190.756-178.479,92.038-322.138,204.742-427,334.978C977.926,1508.267,929.826,1585.9,889.536,1671.2,825.224,1807.406,778.948,1966.52,752,2144.12c-22.752,150.017-31.736,312.626-26.673,483.348,1.552,52.13,4.4,104.576,8.523,157.023C816.488,2773.065,911.088,2756.843,1011.293,2733.76Z" transform="translate(133.92 -769.395)" fill="#3cdc82" opacity="0.3"/>
  </g>
</svg>
