<svg xmlns="http://www.w3.org/2000/svg" xmlns:xlink="http://www.w3.org/1999/xlink" width="776" height="734" viewBox="0 0 776 734">
  <defs>
    <clipPath id="clip-path">
      <rect id="Rectangle_149644" data-name="Rectangle 149644" width="776" height="734" transform="translate(1144 5129)" fill="rgba(255,255,255,0)" stroke="#707070" stroke-width="1"/>
    </clipPath>
  </defs>
  <g id="Mask_Group_2" data-name="Mask Group 2" transform="translate(-1144 -5129)" clip-path="url(#clip-path)">
    <path id="Path_114315" data-name="Path 114315" d="M2015.694,2879c141.127-32.531,267.949-77.285,376.84-132.984,126-64.561,227.364-143.755,301.17-235.407,38.093-47.35,71.636-101.465,99.723-160.995,44.869-95.041,77.122-206.015,96.006-329.917,15.848-104.665,22.128-218.135,18.592-337.268-1.086-36.316-3.054-72.883-5.988-109.434-59.736,8.217-128.217,20-200.336,36.859-139.85,32.722-265.424,77.446-373.29,133.073-124.532,64.24-224.779,142.919-297.927,233.778-38.078,47.307-71.649,101.45-99.705,160.965-44.929,95.041-77.225,206-96.021,329.9-15.879,104.708-22.114,218.15-18.564,337.252q1.543,54.586,5.928,109.567C1879.758,2906.44,1945.775,2895.1,2015.694,2879Z" transform="translate(-711.228 3502.606)" fill="#3cdc82"/>
  </g>
</svg>
