<svg xmlns="http://www.w3.org/2000/svg" width="33.373" height="39.672" viewBox="0 0 33.373 39.672">
  <g id="Group_177534" data-name="Group 177534" transform="translate(1408.58 -606.338)">
    <path id="Path_117583" data-name="Path 117583" d="M-1378.594,750.342l4.038,2.331a.548.548,0,0,1-.163-.569l1.917-10.938a1.152,1.152,0,0,0-.364-1.239l-4.038-2.328-.064-.036c.49.291.5.753.426,1.273l-1.911,10.936A.545.545,0,0,0-1378.594,750.342Z" transform="translate(-24.301 -106.962)" fill="#3cdc82" fill-rule="evenodd"/>
    <path id="Path_117584" data-name="Path 117584" d="M-1379.573,749.024l3.486,2.01c0-.028.009-.053.009-.073l1.918-10.944c.077-.52,0-.816-.257-.984l-3.26-1.881a2.577,2.577,0,0,1-.028.616l-1.911,10.942c-.034.214,0,.281.043.315Zm3.906,2.795a.266.266,0,0,1-.128-.036l-4.032-2.328-.022-.013a.79.79,0,0,1-.263-.811l1.911-10.944c.083-.563.006-.828-.306-1.014a.25.25,0,0,1-.092-.338.258.258,0,0,1,.34-.1l.064.036,4.047,2.335a1.416,1.416,0,0,1,.484,1.494l-1.917,10.942c-.028.225.006.287.056.319a.25.25,0,0,1,.073.342A.263.263,0,0,1-1375.667,751.819Z" transform="translate(-23.189 -105.856)" fill="#527e53" fill-rule="evenodd"/>
    <path id="Path_117585" data-name="Path 117585" d="M-1305.686,631.468l4.041,2.331a.917.917,0,0,0,.8-.049l8.682-4.068a.413.413,0,0,1,.4-.006l-4.041-2.333a.407.407,0,0,0-.4.009l-8.691,4.068A.914.914,0,0,1-1305.686,631.468Z" transform="translate(-83.87 -17.081)" fill="#c1edc2" fill-rule="evenodd"/>
    <path id="Path_117586" data-name="Path 117586" d="M-1305.938,630.558l3.309,1.911a.676.676,0,0,0,.582-.062l8.47-3.965-3.443-1.992c-.035-.017-.058-.03-.178.021l-8.682,4.064a.588.588,0,0,1-.058.024Zm3.514,2.455a1.06,1.06,0,0,1-.432-.1l-4.062-2.343a.248.248,0,0,1-.092-.332.252.252,0,0,1,.328-.116.653.653,0,0,0,.6-.049l8.682-4.064a.659.659,0,0,1,.631,0l4.04,2.333a.261.261,0,0,1,.092.342.258.258,0,0,1-.349.094c-.028-.019-.049-.032-.175.019l-8.678,4.064A1.452,1.452,0,0,1-1302.424,633.012Z" transform="translate(-82.767 -15.97)" fill="#527e53" fill-rule="evenodd"/>
    <path id="Path_117587" data-name="Path 117587" d="M-1397.977,621.4l-8.691,5.956a1.275,1.275,0,0,0-.426.509c-.129.266-.263.721.021.937l4.041,2.328c-.3-.224-.144-.721,0-.991a1.3,1.3,0,0,1,.4-.454l8.689-5.956a3.011,3.011,0,0,0,1.115-1.584l3.465-11.252c.12-.336.576-1.057,1.029-.816l-4.038-2.33c-.447-.238-.909.471-1.023.813l-3.465,11.255A3.058,3.058,0,0,1-1397.977,621.4Z" transform="translate(-1.092 -1.109)" fill="#c1edc2" fill-rule="evenodd"/>
    <path id="Path_117588" data-name="Path 117588" d="M-1399.069,620.289h0Zm5.423-13.448a.214.214,0,0,0-.077.017,1.243,1.243,0,0,0-.518.672l-3.473,11.25a3.27,3.27,0,0,1-1.207,1.714c-.006,0-.006,0-.006,0l-8.691,5.956a1.1,1.1,0,0,0-.347.417c-.107.229-.171.526-.049.621l3.478,2a1.744,1.744,0,0,1,.193-.582,1.549,1.549,0,0,1,.475-.539l8.7-5.96a2.714,2.714,0,0,0,1.015-1.455l3.473-11.248a2.072,2.072,0,0,1,.574-.847l-3.471-2.008a.159.159,0,0,0-.064-.013Zm-10.478,23.432a.241.241,0,0,1-.129-.034l-4.04-2.331c-.34-.257-.377-.721-.12-1.261a1.58,1.58,0,0,1,.5-.605l8.691-5.958a2.765,2.765,0,0,0,1.029-1.457l3.465-11.248a1.745,1.745,0,0,1,.818-.987.666.666,0,0,1,.567.021l4.047,2.337a.258.258,0,0,1,.092.34.257.257,0,0,1-.34.1.143.143,0,0,0-.135-.006,1.287,1.287,0,0,0-.533.683l-3.465,11.244a3.258,3.258,0,0,1-1.214,1.712l-8.691,5.96a1.025,1.025,0,0,0-.327.37c-.126.246-.2.569-.07.668a.254.254,0,0,1,.058.34A.25.25,0,0,1-1404.123,630.272Z" fill="#527e53" fill-rule="evenodd"/>
    <path id="Path_117589" data-name="Path 117589" d="M-1376.136,634.024l-8.682,5.956c-.554.379-.775,1.312-.355,1.47l6.544,2.887c.379.167.533.636.428,1.271l-1.918,10.938c-.113.689.454.843.938.244l7.512-9.468a1.707,1.707,0,0,1,1.376-.8l7.512.8c.475.051,1.051-.766.931-1.318l-1.9-8.74a2.5,2.5,0,0,1,.432-1.761l6.547-10.441c.417-.661.193-1.318-.355-1.061l-8.682,4.068a.767.767,0,0,1-1.124-.291l-3.456-7.259c-.22-.458-.937-.045-1.151.663l-3.471,11.255A3.051,3.051,0,0,1-1376.136,634.024Z" transform="translate(-18.901 -11.405)" fill="#fff" fill-rule="evenodd"/>
    <path id="Path_117590" data-name="Path 117590" d="M-1377.1,633.126l-8.676,5.954a1.116,1.116,0,0,0-.46.914c0,.028.013.1.049.114l6.559,2.889c.49.218.7.8.576,1.545l-1.917,10.936c-.036.2.015.3.049.317.058.023.235-.011.441-.272l7.512-9.468a1.937,1.937,0,0,1,1.6-.89l7.51.8a.538.538,0,0,0,.37-.218,1.039,1.039,0,0,0,.291-.8l-1.9-8.738a2.7,2.7,0,0,1,.46-1.949l6.546-10.439c.227-.357.2-.642.135-.715-.034-.041-.126,0-.163.015l-8.691,4.066a1.017,1.017,0,0,1-1.455-.4l-3.456-7.263c-.03-.049-.043-.053-.079-.049a.929.929,0,0,0-.6.678l-3.471,11.255a3.282,3.282,0,0,1-1.229,1.721Zm-3.777,23.179a.621.621,0,0,1-.248-.051.731.731,0,0,1-.34-.86l1.918-10.938c.083-.51-.015-.882-.284-1l-6.547-2.885a.6.6,0,0,1-.355-.518,1.611,1.611,0,0,1,.674-1.391l8.684-5.956a.068.068,0,0,1,.021-.009,2.825,2.825,0,0,0,1-1.442l3.473-11.252a1.39,1.39,0,0,1,1.051-1.034.556.556,0,0,1,.567.336l3.458,7.257c.049.1.218.434.787.173l8.682-4.068a.62.62,0,0,1,.76.1,1.147,1.147,0,0,1-.085,1.318l-6.544,10.439a2.25,2.25,0,0,0-.4,1.577l1.9,8.736a1.542,1.542,0,0,1-.4,1.241.977.977,0,0,1-.8.383l-7.505-.8a1.5,1.5,0,0,0-1.158.7l-7.518,9.47A1.065,1.065,0,0,1-1380.881,656.3Z" transform="translate(-17.798 -10.295)" fill="#527e53" fill-rule="evenodd"/>
    <path id="Path_117591" data-name="Path 117591" d="M-1351.148,623.428a3.2,3.2,0,0,0,.76-1.282l3.471-11.255c.107-.338.576-1.053,1.023-.813l-4.038-2.33c-.428-.229-.882.428-1,.751l-3.486,11.317a3.254,3.254,0,0,1-.76,1.282Z" transform="translate(-43.527 -1.11)" fill="#3cdc82" fill-rule="evenodd"/>
    <path id="Path_117592" data-name="Path 117592" d="M-1355.9,619.924l3.593,2.074a2.829,2.829,0,0,0,.567-1.04l3.473-11.248a1.949,1.949,0,0,1,.573-.845l-3.471-2.009a.17.17,0,0,0-.128,0,1.233,1.233,0,0,0-.518.625l-3.486,11.3a3.444,3.444,0,0,1-.6,1.143Zm3.642,2.645a.228.228,0,0,1-.12-.032l-4.041-2.333a.241.241,0,0,1-.12-.182.24.24,0,0,1,.064-.208,3.017,3.017,0,0,0,.7-1.187l3.486-11.31a1.684,1.684,0,0,1,.815-.933.66.66,0,0,1,.548.032l4.047,2.335a.259.259,0,0,1,.092.34.257.257,0,0,1-.34.1.151.151,0,0,0-.144,0,1.3,1.3,0,0,0-.524.674l-3.464,11.25a3.43,3.43,0,0,1-.818,1.38A.245.245,0,0,1-1352.261,622.569Z" transform="translate(-42.415 -0.001)" fill="#527e53" fill-rule="evenodd"/>
  </g>
</svg>
