<svg xmlns="http://www.w3.org/2000/svg" width="24.733" height="18.733" viewBox="0 0 24.733 18.733">
  <g id="youtube-4" transform="translate(0.001 0)">
    <path id="Path_83327" data-name="Path 83327" d="M197.895,109.638l-5.464-2.99a1,1,0,0,0-1.485.88v5.928a1,1,0,0,0,1.479.884l5.464-2.938a1,1,0,0,0,.006-1.764Zm-5.5,3.073V108.28l4.084,2.235Zm0,0" transform="translate(-181.722 -101.377)" fill="#1e1e1e"/>
    <path id="Path_83328" data-name="Path 83328" d="M24.551,4.421V4.41a5.656,5.656,0,0,0-1.09-2.87A4.025,4.025,0,0,0,20.794.29L20.671.275l-.043,0C17.358.033,12.42,0,12.371,0h-.009c-.049,0-4.987.033-8.287.27l-.044,0L3.916.289a3.923,3.923,0,0,0-2.65,1.288A5.928,5.928,0,0,0,.185,4.4l0,.025C.175,4.5,0,6.476,0,8.456v1.851c0,1.98.175,3.952.182,4.035v.012a5.6,5.6,0,0,0,1.086,2.835,4.107,4.107,0,0,0,2.755,1.232c.1.012.187.021.246.032l.057.008c1.888.18,7.807.268,8.058.272H12.4c.049,0,4.987-.033,8.257-.27l.043,0,.139-.016a3.833,3.833,0,0,0,2.627-1.257,5.927,5.927,0,0,0,1.081-2.819l0-.025c.007-.083.182-2.055.182-4.035V8.456C24.733,6.476,24.558,4.5,24.551,4.421Zm-1.267,5.885c0,1.832-.16,3.72-.175,3.893a4.6,4.6,0,0,1-.711,2.008A2.384,2.384,0,0,1,20.687,17l-.154.017c-3.163.229-7.914.264-8.133.265-.245,0-6.078-.093-7.908-.263-.094-.015-.2-.027-.3-.039a2.71,2.71,0,0,1-1.854-.774l-.013-.014a4.175,4.175,0,0,1-.7-1.988c-.012-.131-.176-2.04-.176-3.9V8.456c0-1.83.16-3.715.175-3.892a4.508,4.508,0,0,1,.711-2.008,2.5,2.5,0,0,1,1.747-.827L4.2,1.715c3.209-.23,7.994-.264,8.166-.265s4.956.035,8.136.265l.128.015a2.6,2.6,0,0,1,1.775.8l.006.006a4.242,4.242,0,0,1,.7,2.017c.011.124.176,2.037.176,3.9Zm0,0" transform="translate(-0.001 0)" fill="#1e1e1e"/>
  </g>
</svg>
