<svg xmlns="http://www.w3.org/2000/svg" width="25.477" height="25.485" viewBox="0 0 25.477 25.485">
  <path id="Path_84728" data-name="Path 84728" d="M1996.214,622.228a.651.651,0,1,1,.921,0,.651.651,0,0,1-.921,0Zm13.819-6.445-1.843,1.841a2.5,2.5,0,0,1-.35.286c-.048.034-.1.066-.15.1a2.337,2.337,0,0,1-.21.11,2.678,2.678,0,0,1-.52.19,2.6,2.6,0,0,1-2.454-.682.423.423,0,0,0-.248-.14,2.6,2.6,0,0,0-3.207.371l-2.533,2.532h0a.652.652,0,0,1-.922-.921h0l2.533-2.532a3.908,3.908,0,0,1,5.33-.18l.015-.013a1.3,1.3,0,0,0,1.8-.037l1.843-1.842a1.3,1.3,0,0,0,0-1.842l-.841-.84h0l-.08-.079a.363.363,0,0,0-.12-.082c-2.068-1.664-6.837.129-11.4,4.687-4.542,4.539-6.34,9.286-4.706,11.366a.489.489,0,0,0,.1.144l.08.08h0l.84.84a1.3,1.3,0,0,0,1.843,0l1.842-1.841a1.3,1.3,0,0,0,.038-1.8l.011-.014a.348.348,0,0,1-.049-.032.651.651,0,0,1,.921-.92h0a2.594,2.594,0,0,1,.681,2.453,2.718,2.718,0,0,1-.189.52c-.035.07-.069.141-.11.209-.03.051-.062.1-.1.15a2.564,2.564,0,0,1-.287.351l-1.842,1.841a2.606,2.606,0,0,1-3.685,0l-1.152-1.151c-2.29-2.289-.229-8.058,4.837-13.122s10.838-7.124,13.128-4.835l1.152,1.152a2.6,2.6,0,0,1,0,3.683Z" transform="matrix(0.259, -0.966, 0.966, 0.259, -1104.278, 1784.396)" fill="#ce1f2c" fill-rule="evenodd"/>
</svg>
