<svg xmlns="http://www.w3.org/2000/svg" width="30.947" height="32.943" viewBox="0 0 30.947 32.943">
  <path id="Path_83691" data-name="Path 83691" d="M2004.973,179.965a1,1,0,1,1-1,1,1,1,0,0,1,1-1Zm0-11.979a3,3,0,0,0-2.995,2.995,1,1,0,1,1-2,0,4.991,4.991,0,1,1,6.93,4.6s0,0-.005.005a1.5,1.5,0,0,0-.935,1.388.828.828,0,0,1-.018.185,1,1,0,0,1-1.978-.185,3.494,3.494,0,0,1,2.14-3.221l0,0a2.993,2.993,0,0,0-1.145-5.76Zm10.98,17.968h-6.988a2.975,2.975,0,0,0-1.792.6l-6.312,4.734c-.01.008-.016.01-.027.02a3,3,0,0,1-4.846-2.354v-2a1,1,0,0,0-1-1h-1a3.993,3.993,0,0,1-3.993-3.993V163.993a3.994,3.994,0,0,1,3.993-3.993h16.97a1,1,0,0,1,0,2h-16.471a2.5,2.5,0,0,0-2.5,2.5v16.97a2.5,2.5,0,0,0,2.5,2.5h1a2.5,2.5,0,0,1,2.5,2.5v2.5a1,1,0,0,0,1.568.821h0l6.353-4.765,0,0a4.968,4.968,0,0,1,3.055-1.043h6.489a2.5,2.5,0,0,0,2.5-2.5V164.991a1,1,0,1,1,2,0v16.97a3.993,3.993,0,0,1-3.993,3.993Zm-1-23.958a1,1,0,1,1,1-1,1,1,0,0,1-1,1Z" transform="translate(-1989.5 -159.5)" fill="#fff" stroke="#0a0608" stroke-width="1" stroke-dasharray="900" fill-rule="evenodd"/>
</svg>
