<svg xmlns="http://www.w3.org/2000/svg" width="31.788" height="32.818" viewBox="0 0 31.788 32.818">
  <g id="Group_165030" data-name="Group 165030" transform="translate(-835.511 -414.297)">
    <path id="Path_84720" data-name="Path 84720" d="M951.613,534.409c-.682-.125-1.37-.223-2.044-.38a11.827,11.827,0,0,1-4.1-1.851c-.438-.3-.545-.606-.33-.925s.548-.335.979-.037a11.307,11.307,0,0,0,14.273-1.112,15.013,15.013,0,0,0,2.6-2.9,8.549,8.549,0,0,0,1.327-4.505c.013-3.369.006-6.737.007-10.106a3.375,3.375,0,0,1,.006-.387.592.592,0,0,1,.591-.554.581.581,0,0,1,.561.577c.008.116,0,.232,0,.348,0,3.1-.05,6.2.014,9.292a10.5,10.5,0,0,1-3.4,8.2,17.367,17.367,0,0,1-3.294,2.676,12.422,12.422,0,0,1-4.968,1.6,2.232,2.232,0,0,0-.3.069Z" transform="translate(-98.209 -87.293)" fill="#ce1f2c"/>
    <path id="Path_84721" data-name="Path 84721" d="M838.769,428.519c-.364-.35-.661-.634-.956-.921a3.468,3.468,0,0,1,2.032-6.04c.038,0,.075-.016.15-.031a3.519,3.519,0,0,1-.278-2.91,3.362,3.362,0,0,1,1.293-1.7c1.391-.971,2.8-.808,4.583.527a9.681,9.681,0,0,1,.349-1.118,3.428,3.428,0,0,1,5.424-1.154c.711.636,1.364,1.337,2.04,2.013q2.878,2.874,5.753,5.752c.089.089.184.172.349.326,0-.67.008-1.255,0-1.84a4.036,4.036,0,0,1,.412-1.91,3.885,3.885,0,0,1,7.358,1.634c.008.323.011.646,0,.968a.56.56,0,0,1-.554.615.577.577,0,0,1-.6-.614c-.013-.309,0-.62-.007-.93a2.719,2.719,0,0,0-5.435-.024c-.026,1.1-.011,2.195-.008,3.292,0,.327-.033.626-.388.766s-.558-.07-.775-.287q-4.34-4.343-8.684-8.683a2.291,2.291,0,1,0-3.313,3.157c1.764,1.778,3.541,3.544,5.312,5.316a1.772,1.772,0,0,1,.259.285.572.572,0,0,1-.819.779,2.484,2.484,0,0,1-.308-.293q-3.644-3.642-7.289-7.284a2.289,2.289,0,1,0-3.271,3.2c1.243,1.259,2.5,2.5,3.75,3.755q1.849,1.849,3.7,3.7a1.727,1.727,0,0,1,.259.286.573.573,0,0,1-.783.795,1.808,1.808,0,0,1-.316-.283q-3.11-3.108-6.22-6.216a2.286,2.286,0,0,0-3.48,2.96,5.073,5.073,0,0,0,.394.426q3.382,3.384,6.765,6.767a2.144,2.144,0,0,1,.287.313.535.535,0,0,1-.077.737.54.54,0,0,1-.71.061,1.727,1.727,0,0,1-.288-.257c-1.362-1.359-2.71-2.732-4.086-4.077a2.272,2.272,0,0,0-3.792.9,2.239,2.239,0,0,0,.635,2.405l4.958,4.957q1.575,1.575,3.15,3.15a1.736,1.736,0,0,1,.256.289.53.53,0,0,1-.08.707.542.542,0,0,1-.709.08,1.389,1.389,0,0,1-.263-.227q-4.056-4.053-8.108-8.108a3.441,3.441,0,0,1-.412-4.637,3.346,3.346,0,0,1,2.166-1.308C838.478,428.579,838.564,428.56,838.769,428.519Z" fill="#ce1f2c"/>
    <path id="Path_84722" data-name="Path 84722" d="M1032.872,548.394a9.876,9.876,0,0,1,1.33-4.976.584.584,0,0,1,.845-.276.6.6,0,0,1,.165.846c-.024.046-.051.09-.077.134a8.207,8.207,0,0,0-.518,7.085c.216.554.148.882-.215,1.027s-.64-.038-.863-.592A9.062,9.062,0,0,1,1032.872,548.394Z" transform="translate(-176.974 -115.453)" fill="#ce1f2c"/>
  </g>
</svg>
