<svg xmlns="http://www.w3.org/2000/svg" width="20.81" height="16.904" viewBox="0 0 20.81 16.904">
  <path id="Path_84727" data-name="Path 84727" d="M193.33,181.574a.648.648,0,0,1,0-.919l1.839-1.839a.65.65,0,0,1,.919.919l-1.839,1.839a.648.648,0,0,1-.919,0Zm13.227,0-1.839-1.839a.65.65,0,0,1,.919-.919l1.839,1.839a.65.65,0,0,1-.919.919Zm3.5-9.785-7.816,7.166a2.6,2.6,0,0,1-3.678,0l-4.586-4.586h0l-1.545-1.545h-.005a.615.615,0,0,0-1.127.376v9.1a1.3,1.3,0,0,0,1.3,1.3h15.6a1.3,1.3,0,0,0,1.3-1.3v-7.8a.65.65,0,0,1,1.3,0v7.8a2.6,2.6,0,0,1-2.6,2.6H192.6a2.6,2.6,0,0,1-2.6-2.6v-9.1a1.951,1.951,0,0,1,1.95-1.95,1.892,1.892,0,0,1,1.3.562v-.01l6.233,6.232a1.3,1.3,0,0,0,1.839,0l7.815-7.165a1.284,1.284,0,0,0,.375-.92H209.5c0-.718-.582-.65-1.3-.65H194.551a.65.65,0,1,1,0-1.3H208.2c1.193,0,2.2.357,2.5,1.3h.02a2.59,2.59,0,0,1-.668,2.489ZM191.95,169.3a.65.65,0,1,1,.65-.65.65.65,0,0,1-.65.65Z" transform="translate(-190 -168)" fill="#ce1f2c" fill-rule="evenodd"/>
</svg>
