<svg xmlns="http://www.w3.org/2000/svg" width="19.355" height="25.82" viewBox="0 0 19.355 25.82">
  <path id="Path_84730" data-name="Path 84730" d="M357.68,1071.278a.807.807,0,0,1,0,1.613,3.227,3.227,0,1,1,3.227-3.227.807.807,0,0,1-1.613,0,1.613,1.613,0,1,0-1.613,1.613Zm7.891,3.974q-2.649,4.187-5.245,8.4-2.64,4.285-5.28,0-2.531-4.108-5.114-8.189a9.677,9.677,0,0,1-1.929-5.769c0-.009,0-.019,0-.028a.807.807,0,1,1,1.613,0h.011a8.079,8.079,0,0,0,.683,3.257c.017.041.038.082.056.124a8.147,8.147,0,0,0,.747,1.287q2.164,3.433,4.29,6.885c.759,1.235,1.519,2.966,2.279,2.966s1.519-1.73,2.279-2.966q2.122-3.453,4.289-6.884a8.08,8.08,0,0,0,.751-1.295c.019-.039.037-.078.054-.116a8.063,8.063,0,0,0-13.077-8.965h0a.807.807,0,1,1-1.142-1.141l-.007-.006h0a9.681,9.681,0,0,1,14.745,12.442Zm-16.361-7.6a.807.807,0,1,1,.807-.807.807.807,0,0,1-.807.807Z" transform="translate(-348 -1059.974)" fill="#ce1f2c" fill-rule="evenodd"/>
</svg>
