<svg xmlns="http://www.w3.org/2000/svg" xmlns:xlink="http://www.w3.org/1999/xlink" width="459.969" height="425.106" viewBox="0 0 459.969 425.106">
  <defs>
    <clipPath id="clip-path">
      <rect id="Rectangle_3343" data-name="Rectangle 3343" width="407.762" height="365.822" transform="translate(0 0)" fill="none"/>
    </clipPath>
  </defs>
  <g id="Group_6719" data-name="Group 6719" transform="translate(459.969 361.318) rotate(171)">
    <g id="Group_6699" data-name="Group 6699" transform="translate(0 0)" clip-path="url(#clip-path)">
      <path id="Path_65615" data-name="Path 65615" d="M299.975,45.558c1.428,1.13,1.723,2.42,2.127,4.088.518,2.124,2.132,3.465,3.86,4.626,1.931,1.3,3.712,2.6,5.765,3.732a13.533,13.533,0,0,1,6.971,8.723c.922,3.792,1.081,8.013-.67,11.554-1.082,2.188-2,4.789-1.2,7.243.323.986,1.011,1.826,1.4,2.785.444,1.081.59,2.249.927,3.362.718,2.377,1.555,5.868.52,8.416a19.664,19.664,0,0,1,9.441,1.882,4.853,4.853,0,0,1,2.468,2.244,5.9,5.9,0,0,1,.192,1.741c.1,1.032-.342.293.451,1.622.633,1.062,1.069,1.173,2.11,1.714,2.555,1.325,5.051,3.6,4.207,6.807a6.923,6.923,0,0,1-2.466,3.709c-1.595,1.153-3.464.289-4.924,1.51-.993.831-1.688,1.735-3.164,1.306-.474-.139-1.266-.87-1.816-1.038,0,.185-.023.369-.033.647-.05,1.481-1.2-.772-.511,2.275.055.243.38.465.452.7a3.749,3.749,0,0,1-.491,3.561c-.91,1.529-1.257,3.243-2.106,4.787a48.116,48.116,0,0,1-3.248,5.229,21.882,21.882,0,0,1-1.964,2.251c-.8.831-1.322,1.786-2.027,2.661-1.4,1.747-3.369,3.05-4.655,4.908-1.143,1.652-1.781,3.609-2.92,5.274-1.272,1.857-2.905,3.418-4.069,5.357a38.956,38.956,0,0,1-7.46,8.821c-.3,3.462-.309,6.969-.554,10.433a11.769,11.769,0,0,1-1.769,4.9,25.232,25.232,0,0,1-3.37,5.251c-1.78,1.972-3.706,3.475-3.879,6.332a5.665,5.665,0,0,1-1.385,3.992c-.544.646-1.1,1.345-1.664,2.053.245.05.492.111.741.175a.092.092,0,0,1,.113-.017l.159.088c.112.03.225.06.34.089a51.721,51.721,0,0,0,6.359,1.293,75.361,75.361,0,0,1,7.865,1.384c-.207-.172-.415-.345-.637-.511a.127.127,0,0,1,.123-.221,5.714,5.714,0,0,1,1.381.945c.7.175,1.4.359,2.1.563a50.886,50.886,0,0,1,10.7,4.9q5.7,3.251,11.4,6.515c7.471,4.276,14.735,9.17,22.732,12.381a107.413,107.413,0,0,0,10.634,3.614.078.078,0,0,1,.086-.029c.132.052.264.112.395.169q5.977,1.669,12.111,2.726c1.766.309,3.531.234,5.284.633,2.281.52,4.5.306,6.814.455,3.827.25,7.68,1.289,11.517,1.3,1.829.009,14.519.768,12.874,4.842-.844,2.09-4.22,2.618-6.111,2.981-3.523.679-7.183,1.929-10.785,1.733a29.363,29.363,0,0,1-4.977-.528c-1.928-.445-3.85-.531-5.795-.864-4-.686-7.935-1.417-11.841.142a11.264,11.264,0,0,1-4.926,1.048c-.327-.014-.645-.017-.965-.023a7.772,7.772,0,0,1,2.545,2.035c.692.845,2.45,2.518,2.1,3.761-.359,1.288-2.756,1.273-3.764,1.408a52.7,52.7,0,0,1-7.641.4c-2.5-.034-4.743-.221-7.09.772a5.729,5.729,0,0,0-3.088,2.809,10.711,10.711,0,0,1-1.335,2.113c-1.321,1.468-3.346,1.908-5.222,2.211a15.313,15.313,0,0,1-4.757.333,5.193,5.193,0,0,1-.768,2.836,14.173,14.173,0,0,1-6.274,5.387,58.322,58.322,0,0,1-8.023,3.376c-1.5.462-3.05.366-4.576.68a3.982,3.982,0,0,0-3.154,2.267c-.49,1.313.142,2.178.888,3.2.913,1.25,1.418,2.681.65,3.751a.2.2,0,0,1-.013.113c-.893,2.229-3.869,1.576-5.864,1.546-.465-.006-.916-.034-1.359-.079a57.193,57.193,0,0,1,2.973,4.912c.97,2.057,2.849,3.353,2.147,5.882-.386,1.39-1.293,2.268-2.758,1.964a11.442,11.442,0,0,0-3.668-.462c-1.318.108-2.635.158-3.958.158-5.7,0-10.1-2.872-14.478-6.246-2.346-1.8-4.839-3.4-7.174-5.209a13.268,13.268,0,0,1-2.75-3.03,1.381,1.381,0,0,1-1.282.217c-.723-.181-1.423-.87-2.245-.708-.441.088-.716.455-1.21.5a3.818,3.818,0,0,1-2.258-.794,10.055,10.055,0,0,1-4.167-5.324,10.309,10.309,0,0,0-.645-2.324,3.685,3.685,0,0,0-1.346-1.242,5.518,5.518,0,0,1-.439,2.849,5.777,5.777,0,0,0-.791,2.282c-.011.481.128.972.144,1.454a6.987,6.987,0,0,1-.144,1.723c.037.109.072.218.112.327,1.681,4.467,8.472,4.463,11.986,7,7.187,5.2,10.228,14.314,18.244,18.648,1.789.967,5.615,1.965,5.687,4.52.056,2.014-2.364,3.676-4.173,3.82-2.054.162-3.81-.935-5.791.23a9.782,9.782,0,0,1-4.56,1.15,13.353,13.353,0,0,1-4.941-.409,8.778,8.778,0,0,1-2.123-.913,10.073,10.073,0,0,0-3.584-1.237,17.62,17.62,0,0,0-6.445-.149l-.421.075v.023c-.161.83.332,2.1.309,2.993-.024.975-.1,1.827-.039,2.8a38.866,38.866,0,0,1-.2,6.775,13.45,13.45,0,0,1-2.091,5.35,58.582,58.582,0,0,1-3.62,5.928c-1.58,2.094-3.29,4.573-3.735,7.2a28.052,28.052,0,0,1-1.493,6.732c-.557,1.276-1.3,2.366-1.8,3.678a26.167,26.167,0,0,1-1.319,2.948,36.962,36.962,0,0,1-3.969,5.791.73.73,0,0,1-.718.2,5.321,5.321,0,0,1-2.894-1.865c-.712-1.212-.261-3.091-.6-4.437a39.891,39.891,0,0,0-2.38-5.933c-.679-1.592-1.14-3.257-1.685-4.9a12.255,12.255,0,0,0-2.69-5.074c-1.73-1.678-4.235-2.255-6.075-3.778a32.743,32.743,0,0,0-2.9-2.038,4.348,4.348,0,0,1-1.054-.978,6.981,6.981,0,0,1-1.11-4.306c.03-3.518,2.051-8.367.392-11.7-.818-1.642-3.1-2.083-4.375-3.2-1.453-1.272-1.921-3.511-3.2-5.014a41.258,41.258,0,0,0-4.777-4.123,19.188,19.188,0,0,1-3.9-4.952,18.026,18.026,0,0,1-2.219-4.872,10.739,10.739,0,0,1-.563-4.029,42.973,42.973,0,0,1,1.718-6.313c.752-2.235,1.629-4.507,2.532-6.682.455-1.1,1.145-2.044,1.576-3.172.392-1.026.713-2.076,1.112-3.1a39.814,39.814,0,0,0,1.145-4.348,17.547,17.547,0,0,1-3.478,1.817c-1.539.479-3.276.756-4.858,1.118a17.951,17.951,0,0,0-5.136,1.526,16.738,16.738,0,0,0-4.588,3.64c-1.088,1.285-1.81,2.97-3.092,4.067-1.138.973-2.4,2.031-3.617,2.9-1.691,1.207-3.314-.268-4.674-1.431-1.764-1.512-4.427-3.111-5.383-5.313-.751-1.733-.122-3.584-.207-5.206-1.6.518-2.931,1.491-4.466,2.152a15.285,15.285,0,0,1-4.316,1.082,33.143,33.143,0,0,1-3.96.69,24.166,24.166,0,0,1-5.3-.547,36.94,36.94,0,0,1-4.942-1.954c-1.8-.7-3.494-1.593-5.347-2.185a21.656,21.656,0,0,0-11.663-.645,31.1,31.1,0,0,1-10.068,1.034c-3.287-.3-5.261-1.029-7.622-3.408-3.085-3.112-7.2-3.032-11.2-4.041-3.857-.976-7.571-2.12-11.5-2.858-3.714-.7-7.5-1.29-11.149-2.275a16.207,16.207,0,0,1-4.308-1.82,28.59,28.59,0,0,1-4.219-2.472c-1.315-1.169-2.5-4.355-1.4-5.92,1.484-2.091,4.606-1.217,6.692-1a20.461,20.461,0,0,0,5.931-.564,30.037,30.037,0,0,0,5.317-1.224,7.944,7.944,0,0,0,2.686-1.781,3.293,3.293,0,0,1,.669-.545c.611-.31,1.461-.291,2.124-.629A17.962,17.962,0,0,0,104.6,243.2a18.2,18.2,0,0,0,3.1-2.783c1.41-1.776.06-2.772-.154-4.52a4.925,4.925,0,0,1,.83-3.256c.758-1.039,2.16-1.059,3.281-1.48,3.426-1.288,7.128-.566,10.681-1.025a24.377,24.377,0,0,0,5.815-1.441c1.636-.656,2.864-1.583,4.621-2.027a11.024,11.024,0,0,0,5.325-3.055,27.878,27.878,0,0,1,4.321-3.5,45.562,45.562,0,0,1,11.2-4.972.841.841,0,0,1,.418-.022c0-1.2.352-1.25-.441-2.252-.271-.343-.507-.682-.8-1.029a14.078,14.078,0,0,0-2.2-1.921,10.481,10.481,0,0,1-3.076-4.128,4.124,4.124,0,0,1,.106-3.708c.874-1.8,2.037-2.136,3.79-2.749a19.313,19.313,0,0,1,5.729-1.331c1.163-.043,2.291.234,3.454.131,1.309-.118,2.69-.373,3.993-.574a14.468,14.468,0,0,0,4.837-1.8c-.047-.159-.092-.319-.129-.484a.067.067,0,0,1,.129-.036c.053.145.112.287.169.428.467-.253.94-.514,1.437-.779a7.456,7.456,0,0,1,4.667-.936c1.962.245,4.18,1.283,6.151.614,1.949-.662,3.01-2.938,5.067-3.58a12.076,12.076,0,0,1,5.172.181,6.715,6.715,0,0,1,1.481.488,13.97,13.97,0,0,0-.2-4.41,6.37,6.37,0,0,1-.266-2.782,6.922,6.922,0,0,1-1.71-2.661c-.827-2.073-1.6-4.085-2.548-6.116a43.722,43.722,0,0,1-1.694-4.853,58.923,58.923,0,0,0-2.559-5.389c-3.037-6.863-3.154-15.364-2.123-22.684.267-1.9.578-3.787.841-5.686a11.744,11.744,0,0,0-1.73-3.688c-1.114-1.714-2.518-3.261-3.689-4.941-2.62-3.759-4.715-7.845-7.3-11.629-2.648-3.88-5.6-7.542-8.6-11.153s-5.8-7.352-9.448-10.312c-1.78-1.444-3.431-3.062-5.271-4.427-2.034-1.507-4.258-2.792-6.325-4.27-1.668-1.194-3.468-2.152-5.18-3.273-1.946-1.275-3.759-2.737-5.692-4.029a74.883,74.883,0,0,0-11.779-6.386c-2.09-.894-4.133-1.774-6.168-2.789-2.43-1.21-5.067-1.9-7.583-2.911-2.034-.82-4.055-1.634-6.081-2.434a36.872,36.872,0,0,1,2.712,3.09,13.971,13.971,0,0,1,3.254,6.976,1,1,0,0,1-1.242.98,9.085,9.085,0,0,1-.85-.357.583.583,0,0,1-.851.518,28.682,28.682,0,0,1-5.01-2.7,42.735,42.735,0,0,0-5.453-3.566c-4.019-2.218-8.076-5.162-12.527-6.379-4.279-1.171-8.725-2.612-13.133-3.169-1.971-.248-3.9-.033-5.884-.373a30.549,30.549,0,0,0-6.8,0A18.167,18.167,0,0,1,47.6,59.3a41.11,41.11,0,0,1-6.531-1.588C36.91,56,33.027,53.3,29.147,51.033c-3.48-2.031-7.642-3.649-10.533-6.526-2.67-2.658-5.248-4.981-7.093-8.288-1.114-1.994-2.712-3.6-3.686-5.68a59.343,59.343,0,0,1-2.361-5.7C4.7,22.6,3.8,20.353,3.151,18.075c-.627-2.218-.491-4.56-1.054-6.787a.4.4,0,0,1,.023-.273A47.754,47.754,0,0,1,0,.444c-.029-.6.85-.584.913-.01.5,4.512,2.279,8.7,3.478,13.041.534,1.938.983,3.9,1.687,5.786a15.172,15.172,0,0,0,4.368,6.1c3.264,3,5.539,6.968,9.065,9.719a52.928,52.928,0,0,0,4.169,3.27c1.893,1.176,3.589,2.506,5.443,3.732a26.532,26.532,0,0,0,6.561,3.523c1.725.505,3.363,1.454,5.1,1.855a48.925,48.925,0,0,0,7.24.686c2.422.179,4.846.33,7.271.479,4.959.3,9.925.643,14.888.867a68.927,68.927,0,0,1,13.008,2.1c9.292,2.2,18.563,4.474,27.733,7.15,4.291,1.25,8.2,3.421,12.237,5.291,2.153,1,4.414,1.721,6.559,2.729,2.189,1.025,4.207,2.391,6.471,3.258A40.339,40.339,0,0,1,147.069,76.2c1.559,1.233,3.38,2.066,4.951,3.3,1.869,1.461,3.983,2.508,5.809,4.011,3.662,3.014,7.595,5.7,11.181,8.809,3.61,3.126,6.952,6.563,10.493,9.767,3.768,3.409,7.746,6.5,11.037,10.4,1.814,2.152,3.658,4.279,5.473,6.428.909,1.078,1.84,2.146,2.7,3.264.749.975,1.28,2.124,2.077,3.059,1.6,1.878,3.461,3.525,5.011,5.469a26.447,26.447,0,0,0,4.029,4.268,25.391,25.391,0,0,0,12.75,5.575l.026.007c.415-.006.833-.017,1.257-.034a.735.735,0,0,1,.525,1.242c-2.546,2.119-5.5,2.044-8.633,2.156a13,13,0,0,1-1.681-.034.486.486,0,0,1,.013.1c0,.033,0,.067,0,.1.673,1.107,1.293,2.269,1.883,3.349.375.688.488,1.456.815,2.155.584,1.246,1.863,1.747,2.792,2.686,3,3.039,4.362,7.715,7.664,10.451a15.4,15.4,0,0,0,1.536-5.436c.056-1.845-.343-3.635-.167-5.493a24.084,24.084,0,0,0,.04-5.839,12.683,12.683,0,0,1,.179-4.446,41.259,41.259,0,0,1,1.483-5.347,36.266,36.266,0,0,0,1.962-5.686c.314-1.75.171-3.5.731-5.214a11,11,0,0,1,2.412-3.97c1.285-1.407,2.857-2.544,3.909-4.154a49.969,49.969,0,0,1,2.983-4.408c2.627-3.243,3.68-7.484,4.978-11.373a12.945,12.945,0,0,0,.383-5.826c-.2-2.211-.264-4.428-.494-6.636-.4-3.866-.851-7.4,1.926-10.517a.892.892,0,0,1,1.048-.142c2.676,1.23,3.713,3.8,4.786,6.319.548,1.289,1.262,2.2,1.418,3.6a15.044,15.044,0,0,0,.2,2.376,6.772,6.772,0,0,0,1.645,2.452,15.531,15.531,0,0,1,2.531,3.511,23.415,23.415,0,0,1,1.223,4.644,29.5,29.5,0,0,1,.718,4.53c.033.593.034,1.288.079,1.991,1.265-3.251,3.646-6.181,5.149-9.27a39.458,39.458,0,0,0,3.3-13.482c.322-3.846.378-7.4,1.906-11.02,1.661-3.937,4.4-6.236,7.324-9.187,1.438-1.453,2.779-2.994,4.1-4.556,1.411-1.675,3.543-3.521,4.326-5.584.353-.933.353-1.949.649-2.908.319-1.032.789-2.008,1.123-3.036.591-1.819.758-3.7,1.313-5.511.738-2.416,2.5-2.924,4.365-.967a33.948,33.948,0,0,0,3.68,3.421M285.447,197.194c.873-1.585.254-3.561,1.074-5.274.86-1.793,2.433-3.03,3.716-4.5a29.9,29.9,0,0,0,3.465-5.545,14.514,14.514,0,0,0,1.46-5.872c.258-2.213.425-4.433.593-6.655l0-.069c-3.386,2.915-7.4,5.268-10.433,8.551-1.29,1.4-1.872,3.21-3.109,4.639a60.456,60.456,0,0,0-4.077,5.587,33.454,33.454,0,0,1-3.919,4.091c-1.635,1.685-3.581,3.02-5.245,4.677a48.654,48.654,0,0,1-5.426,4.339,46.9,46.9,0,0,1-4.862,3.382c-1.718.983-3.223,2.3-4.869,3.386,1.065-.171,2.137-.243,3.248-.435,3.418-.591,6.748-1.6,10.156-2.251,1.583-.3,3.155-.56,4.743-.815a10.514,10.514,0,0,1,3.56-.319,10,10,0,0,1,2.785.97c1.332-1.206,2.7-2.41,3.952-3.712a.367.367,0,0,1,.27-.373c.033-.009.066-.011.1-.019a19.235,19.235,0,0,0,2.816-3.788m76.645,48.122a11.253,11.253,0,0,0,5.373-.831,14.573,14.573,0,0,1,3.866-1.013c3.4-.395,6.6.481,9.929.912,3.412.439,6.7,1.389,10.159,1.526a22.032,22.032,0,0,0,5.12-.742c2.091-.408,4.233-.716,6.306-1.216a11.38,11.38,0,0,0,1.68-.538,3.809,3.809,0,0,0,.916-.423,2.312,2.312,0,0,0,.507-2.3c-.426-.639-2.921-1.114-3.7-1.293a52.956,52.956,0,0,0-5.442-.922c-1.642-.2-3.234-.033-4.879-.317-1.783-.309-3.594-.2-5.381-.454a44.226,44.226,0,0,0-6.34-.522,23.442,23.442,0,0,1-4.39-.5c-1.767-.327-3.564-.26-5.338-.594-2.542-.479-5.067-1.026-7.592-1.563.412.257.821.51,1.23.745a.109.109,0,0,1-.108.189c-.716-.4-1.476-.777-2.232-1.166q-.764-.161-1.527-.32c-3.594-.736-7-2.248-10.47-3.4-1.595-.53-3.149-1.144-4.674-1.812a7.155,7.155,0,0,0,.94.863c.639.461,1.293.893,1.916,1.374a48.767,48.767,0,0,0,5.443,3.5.067.067,0,0,1-.066.116,44.992,44.992,0,0,1-5.225-3.146c-.731-.544-1.474-1.051-2.228-1.563a14.551,14.551,0,0,1-1.654-1.532c-2.859-1.3-5.62-2.79-8.361-4.334.474.469.929.959,1.371,1.445a48.336,48.336,0,0,0,4.2,3.914c1.537,1.326,3.116,2.6,4.648,3.932a32.281,32.281,0,0,0,5.288,3.589.1.1,0,0,1-.1.172,38.955,38.955,0,0,1-4.758-3.039c-1.609-1.242-3.18-2.592-4.734-3.9a50.686,50.686,0,0,1-4.285-3.831,35.117,35.117,0,0,0-3.551-3.369c-1.523-.867-3.043-1.741-4.576-2.6q-2.175-1.21-4.342-2.43c1.883,1.789,3.566,3.824,5.442,5.6a86.116,86.116,0,0,0,8.822,7.347c1.322.952,2.615,1.911,3.871,2.946a31,31,0,0,0,4.77,2.808.087.087,0,0,1-.086.151,34.175,34.175,0,0,1-4.562-2.554c-1.585-1.213-3.179-2.39-4.794-3.563a87.361,87.361,0,0,1-8.583-7.156c-2.291-2.16-4.291-4.6-6.7-6.6l-5.526-3.1c-1.945-1.09-3.9-2.168-5.835-3.266-1.733-.98-3.55-1.671-5.321-2.552.225.164.451.326.672.5a50.962,50.962,0,0,0,4.75,3.365c1.451.861,3.03,1.507,4.423,2.468.682.469,1.262,1.064,1.972,1.493a18.929,18.929,0,0,1,1.954,1.186,20.92,20.92,0,0,1,3.185,3.612,20.51,20.51,0,0,0,3.863,3.65c.7.52,1.374,1.071,2.089,1.565.632.438,1.216.995,1.867,1.391.092.056.011.2-.082.145-1.339-.8-2.556-1.876-3.813-2.808a23.01,23.01,0,0,1-3.5-3.045c-1.082-1.2-1.962-2.582-3.136-3.7a12.476,12.476,0,0,0-2.6-1.689c-.725-.416-1.3-.99-1.988-1.464-1.335-.92-2.848-1.539-4.249-2.346a39.832,39.832,0,0,1-4.184-2.9c-1.107-.844-2.3-1.582-3.416-2.4a44.822,44.822,0,0,0-10.24-2.469c-.693-.1-1.375-.218-2.053-.349a16.916,16.916,0,0,0,2.043.817c1.572.484,3.046,1.207,4.6,1.741,1.448.5,2.933.894,4.351,1.476a29.515,29.515,0,0,1,4.016,2.087,15.455,15.455,0,0,1,3.065,2.934,36.563,36.563,0,0,1,2.544,3.445,25.985,25.985,0,0,0,3.307,3.343c2.983,2.747,6.722,4.4,10.141,6.515a.1.1,0,0,1-.1.181,54.435,54.435,0,0,1-8.723-4.984A26.84,26.84,0,0,1,311.2,215.3a24.472,24.472,0,0,0-3.055-3.62,16.832,16.832,0,0,0-4.107-2.522,31.134,31.134,0,0,0-4.908-1.849c-1.572-.525-3.053-1.273-4.622-1.8-1.522-.51-2.971-1.127-4.44-1.76-.533-.131-1.062-.267-1.593-.419a43.007,43.007,0,0,0-4.612-1.516,25.29,25.29,0,0,1-2.209,2.39c.927.432,1.723,1.138,2.713,1.5,1.5.557,3.053,1.114,4.573,1.621a32.1,32.1,0,0,1,8.68,4.276c1.161.838,2.259,1.777,3.429,2.6a2.633,2.633,0,0,1,1.011,1.012,5.919,5.919,0,0,0,1.425,1.975c.522.469.939,1.019,1.44,1.5a8.221,8.221,0,0,0,2.545,1.481,10.052,10.052,0,0,1,1.547.669c.682.389,1.451.456,2.11.856a.07.07,0,0,1-.069.122c-.616-.367-1.326-.379-1.954-.739a14.075,14.075,0,0,0-2.005-.833,8.371,8.371,0,0,1-3.086-2.143c-.507-.524-1.128-.929-1.6-1.484a11.855,11.855,0,0,1-.785-1.486,10.063,10.063,0,0,0-2.1-1.655,17.412,17.412,0,0,1-1.556-1.045,31.834,31.834,0,0,0-8.969-4.58c-1.489-.456-2.923-1.088-4.41-1.56-1.209-.383-2.18-1.273-3.327-1.748a11.436,11.436,0,0,1-1.7,1.236,50.036,50.036,0,0,0,4.394,2.578c2.43,1.12,5.064.96,7.315,2.489a39.263,39.263,0,0,1,7.516,7.364,17.172,17.172,0,0,0,4.751,4.424c.847.492,2.156,1.606,3.369,2.2.066,0,.135,0,.2,0a36.853,36.853,0,0,1,7.928.228c3.864.736,6.072,4.049,7.586,7.519a14.442,14.442,0,0,1,2.473.96c1.9,1,3.759,2.087,5.614,3.167a77.963,77.963,0,0,0,10.762,5.176c3.432,1.357,6.936,3.276,10.624,3.82a26.923,26.923,0,0,0,5.268-.22,39.679,39.679,0,0,1,4.718-.171m-23.4,15.575a11.676,11.676,0,0,0,3.036-.883,4.35,4.35,0,0,0,1.727-1.766,21.856,21.856,0,0,1-2.793-1.516c-1.123-.633-2.246-1.265-3.33-1.962a.094.094,0,0,1,.092-.164c1.157.57,2.277,1.21,3.4,1.847q.794.452,1.588.91c.234.135.471.267.7.406a1.825,1.825,0,0,1,.365.217.213.213,0,0,1,.075.1c.154-.267.3-.545.455-.828a8.341,8.341,0,0,1,2.025-2.5c-.84-.478-1.678-.957-2.535-1.4-1.085-.566-2.269-.946-3.332-1.546-2.133-1.206-4.522-1.837-6.586-3.155a.048.048,0,0,1,.047-.083c2.173,1.133,4.506,1.842,6.643,3.052,1.008.571,2.13.937,3.158,1.48.926.488,1.832,1.019,2.74,1.545a9.063,9.063,0,0,1,4-1.705,24.551,24.551,0,0,1,5.043-.053,4.726,4.726,0,0,1-.593-.111c-1.234-.329-2.45-.738-3.646-1.187-1.16-.435-2.335-.844-3.487-1.3-1.121-.449-2.168-1.051-3.261-1.557-1.173-.541-2.4-.936-3.586-1.435-1.3-.545-2.559-1.177-3.892-1.642a41.209,41.209,0,0,1-7.249-3.112.161.161,0,0,1,.159-.28c4.7,2.241,9.653,3.843,14.387,6.009,1.088.5,2.117,1.118,3.213,1.6,1.236.541,2.521.988,3.778,1.477,1.191.462,2.4.893,3.633,1.243a8.356,8.356,0,0,0,1.646.313c1.474,0,2.943-.055,4.417-.161a16.158,16.158,0,0,0,3.712-.38c1.27-.435.945-.607.2-1.659a16.361,16.361,0,0,0-4.293-3.894c-.975.023-1.945.069-2.956.123a29.536,29.536,0,0,1-5.29.214,28.863,28.863,0,0,1-6.494-2.046,91.332,91.332,0,0,1-12.389-5.348c-2.122-1.189-4.2-2.46-6.315-3.659-1.193-.676-2.416-1.3-3.632-1.928.274.715.525,1.42.759,2.1a26.844,26.844,0,0,0,2.011,4.777c.8,1.377,1.817,2.62,2.6,4.009a20.036,20.036,0,0,1,1.806,4c.274.145.551.284.831.425,1.161.59,2.281,1.27,3.414,1.913,2.47,1.4,4.968,2.776,7.394,4.256a.068.068,0,0,1-.067.119c-2.691-1.411-5.321-2.95-7.968-4.444-1.15-.649-2.3-1.3-3.477-1.895l-.024-.013a8.242,8.242,0,0,1,.291,2.5,16.333,16.333,0,0,0,.576,4.46,15.928,15.928,0,0,0,2.011,4.335,4.465,4.465,0,0,1,.375.929,45.443,45.443,0,0,0,4.889-.734M304.1,284.328a.367.367,0,0,1,.627.019c.019.037.04.073.059.111.355.057.711.108,1.069.142,1.41.131,4.057.765,5.6.085a.2.2,0,0,1,.062-.123c2.272-2.225-1.859-4.245-1.756-6.518.108-2.324,2.178-3.838,4.259-4.258.932-.189,1.892-.179,2.832-.307a16.626,16.626,0,0,0,4.583-1.546c2.826-1.269,5.87-2.172,8.3-4.171,2.34-1.921,3.95-4.4,2.106-7.2a16.514,16.514,0,0,1-2.265-7.1,16.979,16.979,0,0,0-.3-3.426,16.658,16.658,0,0,0-1.038-2.42l-.01-.016V247.6c-.256-.5-.523-.979-.787-1.44-1.517-2.653-3.408-4.855-4.5-7.753-.712-1.88-1.321-3.805-2.156-5.63a.377.377,0,0,1-.085-.185,17.892,17.892,0,0,0-1.22-2.219c-1.947-2.966-4.667-3.732-8.046-3.831-5.321-.156-10.358-.455-15.341-2.581-5.422-2.314-9.108-6.863-14.07-9.877-2.67-1.621-4.776-2.93-8.023-2.551-2.613.3-5.186,1.807-7.717,2.59-2.77.856-5.265,2.414-8.2,2.8a26.6,26.6,0,0,1-8.538-.688c-5.837-1.247-12.485-3.25-16.8-7.579-.1-.1.05-.251.156-.156,4.733,4.216,11.69,6.464,17.874,7.421a19.788,19.788,0,0,0,9.665-.652c1.435-.488,2.737-1.156,4.136-1.718,1.5-.6,3.128-.86,4.593-1.552a15.075,15.075,0,0,1,6.309-1.9c2.66-.1,4.731,1.338,6.923,2.657,5.433,3.268,9.493,8.3,15.592,10.446a27.9,27.9,0,0,0,7.589,1.613c-1.148-.6-2.265-1.427-3.079-1.873-2.915-1.6-4.645-4.54-7.045-6.785-1.237-1.157-2.389-2.427-3.689-3.511a8.007,8.007,0,0,0-3.073-1.747c-.706-.189-1.306-.1-2-.256-3.036-.672-5.769-2.727-8.455-4.184l-.024-.013-.057.023a.453.453,0,0,1-.581-.35,7.088,7.088,0,0,0-4.748-.633c-1.767.3-3.53.563-5.292.894-3.531.663-6.982,1.707-10.528,2.3a27.833,27.833,0,0,0-4.86.87,18.359,18.359,0,0,1-4.207.848,14.4,14.4,0,0,1-8.231-1.477c-3.1-1.619-6.327-2.773-9.254-4.8-1.543-1.069-1.928-2.818-3.419-3.937a7.139,7.139,0,0,0-.794-.508c.871,2.239-1.438,3.564,1.57,5.436,1.685,1.049,3.267,1.568,4.542,3.22,1.593,2.068,1.484,4.751,2.646,7.016s3.082,3.57,4.954,5.15c1.649,1.394,3.172,2.94,4.83,4.319-.611-.834-1.2-1.687-1.787-2.555-1.111-1.638-2.749-3.234-3.518-5.041-.212-.5.451-.932.755-.439.831,1.342,2.291,2.443,3.283,3.7,1.134,1.438,2.16,2.96,3.362,4.342,2.3,2.648,4.8,5.12,7.078,7.787A12.5,12.5,0,0,0,258,235.654a28.351,28.351,0,0,1,4.318,2.7c-.264-.51-.521-1.022-.822-1.512a7.211,7.211,0,0,1-.672-1.14c-.178-.451-.208-.932-.411-1.377a23.173,23.173,0,0,0-1.636-2.584,15.756,15.756,0,0,0-1.959-2.661.082.082,0,0,1-.022-.079l.086-.22a.065.065,0,0,1,.126.032c-.069.294.728.952.886,1.158.248.323.467.665.685,1.008.6.934,1.191,1.859,1.8,2.779.55.828.578,1.847,1.113,2.7.438.7.782,1.451,1.17,2.179,2.168,1.836,3.676,4.387,5.321,6.663.056.079.109.159.164.238a20.254,20.254,0,0,1-.135-2.683c.024-1.635-.141-3.263-.189-4.895q-.034-1.094-.05-2.188a10.573,10.573,0,0,1-.072-1.842c.017-.109.177-.079.184.022.044.622.2,1.193.212,1.816.016.729.026,1.457.047,2.186.042,1.445.179,2.888.175,4.334a29.128,29.128,0,0,0,.189,3.805c1.592,2.567,2.28,5.392,4.714,7.466,2.531,2.155,5.406,3.917,7.741,6.286a14.147,14.147,0,0,1,1.229,1.437c-.07-.5-.017-.992-.078-1.5a18.283,18.283,0,0,1-.28-4.113c.07-.685.274-1.319.4-1.992s-.08-1.319.03-1.994c.014-.085.142-.065.145.016a13.532,13.532,0,0,1,.2,1.692,13.342,13.342,0,0,1-.322,1.491,12.694,12.694,0,0,0,.085,4.509,12.4,12.4,0,0,1,.083,1.46,4.051,4.051,0,0,0,.359,1.309,31.518,31.518,0,0,1,2.585,5.29c.645,1.565,1.7,2.877,2.343,4.423a21.458,21.458,0,0,0,2.117,4.349,14.41,14.41,0,0,0,5.255,4.24c1.621.857,3.337,1.286,4.909,2.255a12.824,12.824,0,0,0,4.078,1.606M266.6,278.714c1.094,1.982,2.976,3.825,5.235,3.409a2.573,2.573,0,0,1,1.387-.08c.171.053.922.7,1.075.686,1.038-.1.192-.8-.177-1.242-1.572-1.895-3.847-3.106-5.341-5.147a14.352,14.352,0,0,1-1.573-2.9c-.454-1.062-.6-2.414-1.473-3.236-.136-.128.049-.386.205-.268a5.408,5.408,0,0,1,1.5,2.368,17.612,17.612,0,0,0,2.839,4.583,34.074,34.074,0,0,0,3.821,3.5c.093.078.191.151.29.224a.264.264,0,0,1,.316.06c.192.194.376.4.557.6a2.656,2.656,0,0,1,.663.808,24.144,24.144,0,0,0,2.881,3.369,63.823,63.823,0,0,0,5.809,4.064c4.011,2.775,7.964,6.541,13.022,7.161a31.685,31.685,0,0,0,6.516-.026,8.164,8.164,0,0,1,2.689.055c.3.072.672.349.963.334a1.719,1.719,0,0,0,1.582-1.883c-.109-1.418-1.348-2.377-1.99-3.567-.452-.837-.755-1.711-1.293-2.511a11.138,11.138,0,0,1-1.965-3.55c-.609-.106-1.22-.241-1.852-.4-1.7-.432-2.98-1.447-4.573-2.117-3.2-1.348-6.48-2.618-8.679-5.483a14.991,14.991,0,0,1-2.239-3.95c-.643-1.761-1.7-3.218-2.45-4.932a43.832,43.832,0,0,0-2.2-5.05,17.266,17.266,0,0,0-4.226-4.619c-1.285-.988-2.479-2.083-3.755-3.083a16.814,16.814,0,0,1-4.034-3.871c-.91-1.407-1.345-3.049-2.145-4.513a56.808,56.808,0,0,0-3.3-4.658c-1.8-2.634-4.385-4-7.057-5.392.047.063.095.128.141.188,1.035,1.364,1.835,2.9,2.849,4.28A43.5,43.5,0,0,0,263.9,246c.439.468.95.857,1.356,1.354a6.247,6.247,0,0,0,2.173,1.712.084.084,0,0,1-.082.146,6.4,6.4,0,0,1-1.741-1.029c-.432-.436-.765-.934-1.229-1.348a30.277,30.277,0,0,1-3.416-3.914c-.922-1.163-1.741-2.4-2.544-3.645a18.814,18.814,0,0,0-1.579-2.147l-.134-.159c-.5-.264-1-.534-1.5-.82a7.387,7.387,0,0,1-1.365-1.019,30.2,30.2,0,0,0,1.87,3.187c1.925,2.821,3.339,5.91,5.716,8.416.475.5.848,1.128,1.348,1.59a10.811,10.811,0,0,0,1.9,1.435,11.957,11.957,0,0,1,1.612.99c.61.484,1.319.858,1.9,1.352,1.075.9,1.332,2.485,2.232,3.543a9.692,9.692,0,0,1,2.024,2.561c.017.046-.056.066-.075.022-.554-1.333-1.892-2.057-2.657-3.248-.37-.579-.632-1.22-1-1.8a5.47,5.47,0,0,0-1.768-1.527,21.4,21.4,0,0,0-2.084-1.466,11.177,11.177,0,0,1-1.771-1.219A21.582,21.582,0,0,1,260.279,246c-2.034-2.377-3.434-5.193-5.185-7.771a38.705,38.705,0,0,1-2.191-3.906,5.038,5.038,0,0,0-.352-.567c-.362-.433-.721-.88-1.11-1.326-.545-.624-1.1-1.237-1.659-1.847.04.082.075.164.116.245.4.781.972,1.437,1.379,2.211.426.81.761,1.679,1.151,2.509a49.969,49.969,0,0,1,1.806,4.769c.62,1.758.87,3.673,1.632,5.373a11.766,11.766,0,0,0,1.2,2.129c.52.711,1.194,1.282,1.744,1.968a17.1,17.1,0,0,0,1.747,2.127,12.209,12.209,0,0,0,1.046.88c.339.245.736.385,1.067.64.2.154.39.422.571.593a6.191,6.191,0,0,0,1.23.742,3.164,3.164,0,0,1,.649.557,6.061,6.061,0,0,0,1.313.937,22.335,22.335,0,0,1,1.786,1.379c.194.148.362.316.544.477.363.317.767.511,1.14.8a8.424,8.424,0,0,1,1.329,1.586,8.946,8.946,0,0,1,1.023,2.147,13.24,13.24,0,0,0,1.318,2.569,6.3,6.3,0,0,1,1.22,2.186.051.051,0,0,1-.1.027,6.855,6.855,0,0,0-1.325-2.29,13.625,13.625,0,0,1-1.12-2.087,10.3,10.3,0,0,0-1.288-2.541,9.738,9.738,0,0,0-1.318-1.433c-.205-.146-.475-.212-.686-.365-.264-.189-.474-.442-.728-.643a22.09,22.09,0,0,0-2.132-1.585,7.7,7.7,0,0,1-.81-.469,10.712,10.712,0,0,0-1.012-.909,8.259,8.259,0,0,1-1.512-.922c-1.144-1.051-2.539-1.74-3.528-3.019a37.241,37.241,0,0,1-3.159-3.968,17.179,17.179,0,0,1-1.631-4.463,51.193,51.193,0,0,0-1.656-4.971,26.988,26.988,0,0,0-2.783-5.673,12.282,12.282,0,0,1-1.229-2.423c-.039-.1-.073-.2-.1-.3-.208-.225-.416-.452-.626-.678.072.188.144.372.223.544.5,1.084,1.184,2.11,1.631,3.21a26.45,26.45,0,0,0,1.2,3.382,24.155,24.155,0,0,1,1.641,3.063,21.894,21.894,0,0,1,1.155,3.241c.281,1.289.566,2.564.963,3.823a15.16,15.16,0,0,0,3.945,6.613,33.169,33.169,0,0,0,2.612,2.282c1.091.863,2.414,1.338,3.508,2.19,2.084,1.626,3.484,3.784,5.1,5.837a28.6,28.6,0,0,1,4.051,5.943c.436,1.019,1.255,1.711,1.669,2.733a10.962,10.962,0,0,0,.761,1.313,10.268,10.268,0,0,0,.85,1.608c.7.866,1.153,1.866,1.834,2.768.874,1.157,1.644,2.386,2.482,3.567.913,1.288,1.969,2.45,2.966,3.672a14.706,14.706,0,0,0,3.376,3.505.049.049,0,0,1-.047.085,9.989,9.989,0,0,1-2.367-2.213c-.986-1.13-1.971-2.265-2.94-3.411-1.542-1.823-2.869-3.858-4.3-5.769a9.675,9.675,0,0,1-.709-1.233c-.261-.478-.692-.787-.967-1.246-.289-.479-.421-1-.744-1.47a5.924,5.924,0,0,1-.584-1.068c-.393-.914-1.2-1.5-1.593-2.427a20.9,20.9,0,0,0-2.445-3.834c-.84-1.167-1.773-2.264-2.657-3.4a25.978,25.978,0,0,0-2.493-3.052,14.612,14.612,0,0,0-3.135-2.381,17.963,17.963,0,0,1-3.082-2.15,17.589,17.589,0,0,1-4.41-5.017,30.3,30.3,0,0,1-2.292-7.262,19.362,19.362,0,0,0-1.517-3.976,32.418,32.418,0,0,1-1.8-3.3c-.207-.568-.29-1.167-.474-1.74a14.694,14.694,0,0,0-1.036-2.079c-.317-.633-.629-1.28-.912-1.929-.128-.3-.231-.626-.38-.923a23.449,23.449,0,0,1,.27,2.475c.01.445,0,.868-.02,1.283a.216.216,0,0,1,.345.067,21.666,21.666,0,0,1,1.952,4.812c.432,1.912.3,3.9.787,5.806.155.609.37,1.2.563,1.8.009.017.02.033.03.05.457.767.851,1.549,1.346,2.3a25.844,25.844,0,0,1,2.436,4.883,43.792,43.792,0,0,0,2.571,5.648c.515.917,1.128,1.794,1.707,2.673.241.366.52.708.764,1.069a8.645,8.645,0,0,0,.759,1.213.085.085,0,0,1-.121.121,18.7,18.7,0,0,1-1.341-1.79c-.683-.884-1.336-1.835-1.938-2.776a32.5,32.5,0,0,1-2.726-5.481,30.975,30.975,0,0,0-2.938-5.694c-.04-.057-.073-.119-.112-.178a23.463,23.463,0,0,1-.362,4.556c-.2,1.583.179,3.083.027,4.644a4.927,4.927,0,0,1-.161.837.216.216,0,0,1,.08.141c.1.837.878,1.447,1.336,2.116.624.914,1.118,1.919,1.662,2.881a59.5,59.5,0,0,0,4.375,6.429,21.718,21.718,0,0,0,2.666,3.148c.946.854,2.093,1.29,3.069,2.074,1.753,1.407,1.447,3.59,2.453,5.413m-6.523-.469c.172-1.582,1.644-3.343.462-4.891a.69.69,0,0,1-.069-.758,15.718,15.718,0,0,1-2.127-2.3,49.224,49.224,0,0,1-5.386-8.016c-.633-1.252-1.213-2.531-1.842-3.782a5.144,5.144,0,0,1-.461-1.114,17.057,17.057,0,0,1-1.163,2.123c-1.173,1.921-1.944,3.313-1.3,5.6.4,1.437,1.088,2.776,1.493,4.214v.009c2.749.887,4.418,3.224,6.85,5.147a15.192,15.192,0,0,1,3.345,3.528c.072.111.131.225.194.339,0-.033,0-.067,0-.1m9.856,35.853a18.245,18.245,0,0,1,5.185,1.031c.636.283,1.153.777,1.773,1.085a10.908,10.908,0,0,0,4.072.926,12.663,12.663,0,0,0,5.779-.923,5.786,5.786,0,0,1,3.712-.853c1.662.179,3.109.637,4.588-.422,1.154-.825,1.9-2.1.754-3.319a9.287,9.287,0,0,0-2.811-1.6,27.714,27.714,0,0,1-8.661-6.393c-2.766-2.957-4.949-6.452-7.627-9.494a28.848,28.848,0,0,0-2.581-2.638c.168.375.36.736.5,1.131.248.686.445,1.444.649,2.146.171.6.418,1.167.587,1.76.2.7.244,1.371.51,2.053a19.374,19.374,0,0,1,1.034,4.372,11.718,11.718,0,0,0,1.942,5.037c.044.066-.062.128-.106.062A11.481,11.481,0,0,1,277.38,304a33.29,33.29,0,0,0-1.13-5c-.514-1.364-.864-2.743-1.285-4.144a20.72,20.72,0,0,0-.771-2.373,12.749,12.749,0,0,1-.622-1.448,12.643,12.643,0,0,0-1.879-1.267,15.264,15.264,0,0,0-1.454-.679c.366,2.664,2.122,4.916,2.453,7.563.04.323.02.642.03.965a3.519,3.519,0,0,0,.324,1.283,3.134,3.134,0,0,1,.072,1.206,8.238,8.238,0,0,0,.323,2.013c.184.6.192,1.183.365,1.771a.057.057,0,0,1-.109.03,6.866,6.866,0,0,1-.1-.685c-.08-.356-.253-.708-.349-1.068a10.478,10.478,0,0,1-.365-1.958c0-.092.02-.191.011-.281a11.239,11.239,0,0,0-.31-1.476,15.226,15.226,0,0,1-.128-1.619c-.3-2.746-2.242-5.041-2.584-7.812a.162.162,0,0,1,.007-.076c-.409-.159-.823-.31-1.24-.455.063.187.111.38.158.56.212.791.441,1.585.6,2.389.363,1.827.07,3.64.2,5.482a22.31,22.31,0,0,0,.943,6.043c.65,1.847.866,3.748,1.613,5.57.022.053-.067.092-.09.039a12.289,12.289,0,0,1-.91-2.412,17.567,17.567,0,0,0-.639-2.624,16.461,16.461,0,0,1-1.088-4.977c-.1-1.77-.047-3.52-.112-5.285a13.986,13.986,0,0,0-.627-3.254,6.952,6.952,0,0,0-.508-1.688c-1.036-.352-2.08-.688-3.069-1.091a7.549,7.549,0,0,1-4.256-3.566c-.165.055-.392-.043-.369-.245.019-.161.022-.322.024-.481a16.439,16.439,0,0,1-.688-2.018c-.042-.151-.1-.3-.145-.442a30.008,30.008,0,0,1,.059,3.231,57.558,57.558,0,0,0,.685,7.466,31.708,31.708,0,0,1,.218,3.6c-.007,1.19.169,2.356.1,3.544a12.48,12.48,0,0,0,.34,4.029c.352,1.312.89,2.565,1.246,3.876a.066.066,0,0,1-.128.036c-.731-2.511-1.789-4.727-1.756-7.4a55.032,55.032,0,0,0-.395-7.5,53.317,53.317,0,0,1-.8-7.641,16.552,16.552,0,0,0-.181-3.939c-.1-.446-.291-.88-.383-1.322a10.333,10.333,0,0,0-1.438-1.725c-.162,1.628-.421,3.263-.622,4.882-.233,1.88-.148,3.784-.416,5.66-.258,1.8-.406,3.616-.772,5.4a26.608,26.608,0,0,0-.2,2.864c-.095.97-.614,1.916-.309,2.892.026.082-.1.118-.129.036a2.883,2.883,0,0,1,.026-1.685,15.64,15.64,0,0,0,.228-3.072c.039-.96.37-1.878.456-2.835.08-.913.123-1.823.276-2.729.343-2.063.263-4.135.494-6.207.205-1.833.39-3.668.666-5.491-.215-.2-.435-.386-.665-.568-1.519-1.214-2.864-2.36-4.268-3.721-1.539-1.493-3.171-1.7-5.021-1.992.036.115.06.243.09.392a8.96,8.96,0,0,1,.522,2.192,14.648,14.648,0,0,1-.567,2.333c-.2.838-.622,1.523-.833,2.364a.1.1,0,0,1-.185-.047,4.586,4.586,0,0,1,.467-1.407,10.521,10.521,0,0,0,.567-2.261,3.106,3.106,0,0,0-.029-2.094,12.681,12.681,0,0,0-.439-1.537c-.307-.05-.62-.106-.939-.174a14.828,14.828,0,0,1-5.423-2.406c.24,1.306.578,2.6.788,3.913a15.043,15.043,0,0,1-.063,4.433c-.122.992-.22,2-.258,3-.023.56.146,1.128-.175,1.618-.043.066-.148.007-.108-.062.3-.5.1-1.667.126-2.257.036-.779.073-1.555.159-2.33a15.623,15.623,0,0,0,0-4.5c-.221-1.338-.534-2.643-.8-3.97-.007-.034-.013-.07-.02-.1-1.359-1.011-2.33-2.356-3.583-3.484-.056-.049-.108-.1-.164-.152a9.991,9.991,0,0,1,.306,1.75,15.2,15.2,0,0,0,.487,2.18c.359,1.512.049,3,.84,4.415a.058.058,0,0,1-.1.059c-.722-1.263-.617-2.572-.858-3.962-.121-.69-.442-1.319-.553-2.01-.136-.854-.188-1.7-.373-2.552a.1.1,0,0,1,.027-.093,14.258,14.258,0,0,1-2.958-4.032c-.831-1.678-.587-2.973-.507-4.774a5.486,5.486,0,0,1,.241-1.876c.471-1.236,1.361-2.213,1.075-3.668-.274-1.382-1.085-2.455-1.216-3.916a5.026,5.026,0,0,1,.029-1.234c-.422.258-.841.517-1.249.787-1.443.953-3.089,1.522-4.519,2.48-.066.09-.131.179-.189.268-.126.189-.764.992-1.14,1.625a.149.149,0,0,1,.2.2,10.33,10.33,0,0,0-1.28,3.221,32.521,32.521,0,0,0-.731,6.748c.136,2.057.675,4.5,2.236,5.9a28.128,28.128,0,0,1,3.906,3.772,8.61,8.61,0,0,1,1.672,4c.342,2.033-.293,4.034.062,6.027a7.729,7.729,0,0,0,.79,2.231,10.14,10.14,0,0,1,.894,1.278,4.571,4.571,0,0,1,.179.454,16.158,16.158,0,0,1,2.821,4.9c.458,1.679.543,3.446.986,5.135a19.036,19.036,0,0,0,2.8,5.758c1.072,1.609,2.083,3.256,3.148,4.868.25.376.515.734.788,1.081a.172.172,0,0,1,.255,0,27.047,27.047,0,0,1,2.7,3.078q.424.385.863.768c2.968,2.592,6.55,5.423,10.516,6.269s7.733-1.09,11.666-.679M235.829,241.66a14.443,14.443,0,0,1-1.507,1.15,5.231,5.231,0,0,0,0,4.313c.467,1.186.947,2.087.634,3.38-.433,1.789-1.27,3.23-1.438,5.106a8.747,8.747,0,0,0,3.037,6.942c1.048,1,2.06,1.977,3.106,2.852a2.036,2.036,0,0,0-.317-1.54.094.094,0,0,1,0-.132c-.22-.24-.444-.479-.66-.749a7.614,7.614,0,0,1-1.835-3.225c-.577-4.385,5.564-8.12,2.071-12.084-.794-.9-1.724-1.575-1.562-2.911.2-1.639,1.942-2.811,2.749-4.125a20.76,20.76,0,0,0,2.869-6.833,11.036,11.036,0,0,1-.731.88,34.744,34.744,0,0,1-2.472,2.667c-1.448,1.282-2.479,3-3.949,4.309m.385-2.585c-.462.179-.9.33-1.3.445a47.441,47.441,0,0,1-4.682,1.2c-1.6.3-3.208.188-4.809.4a34.319,34.319,0,0,0-10.222,2.9c-1.375.653-2.769,1.163-4.123,1.88a47.367,47.367,0,0,0-4.28,2.238,11.216,11.216,0,0,1,2.305.485c1.7.518,3.6,1.138,5.449,1.519-.09-.057-.182-.113-.266-.177-.174-.129-.092-.442.151-.379a12.2,12.2,0,0,0,4.829.3,6.043,6.043,0,0,0,3.118-1.438,18.164,18.164,0,0,1,2.571-1.882l.006,0c.508-.406,1.013-.817,1.546-1.2a1.3,1.3,0,0,1,.655-.484.31.31,0,0,1,.082-.007c1.328-.81,2.653-1.608,3.97-2.432a41.556,41.556,0,0,0,4.585-3c.144-.118.274-.243.412-.365M216.154,274a29.862,29.862,0,0,1-1.181,3.593c-.891,2.729-2.239,5.195-3.289,7.858-1.056,2.681-1.793,5.39-2.637,8.138a4.683,4.683,0,0,0-.194,2.961,16.613,16.613,0,0,0,1.417,4.509,20.727,20.727,0,0,0,5.231,6.854c2.353,1.921,4.576,3.748,5.944,6.53.109.223.185.477.283.7.475,1.068,1.191,1.387,2.126,2a14.3,14.3,0,0,1,2.64,2.073c1.174,1.237,1.3,3.3,1.227,4.947-.106,2.539-.683,5-.827,7.538a6.787,6.787,0,0,0,.566,3.91c.563.934,1.237,1.022,2.079,1.52a12.989,12.989,0,0,1,1.662,1.421c2.087,1.725,4.9,2.331,6.729,4.414a16.886,16.886,0,0,1,2.957,6.175,70.153,70.153,0,0,0,2.592,6.656,22.278,22.278,0,0,1,1.2,3.307c.3,1.17.063,2.424.33,3.541.489,2.043,1.8,1.4,2.627.278a31.147,31.147,0,0,0,2.456-3.863c.708-1.333,1.115-2.77,1.753-4.125a23.716,23.716,0,0,0,2.18-5.35c.291-1.384.345-2.809.655-4.189a14.73,14.73,0,0,1,2.035-4.292c.887-1.481,1.972-2.77,2.913-4.212.966-1.481,1.737-3.1,2.621-4.631a11.966,11.966,0,0,0,1.794-5c.155-1.593.079-3.191.148-4.789.053-1.234-.109-2.4.016-3.63.109-1.074-.214-2.188-.032-3.243a19.333,19.333,0,0,1-4.7.345,12.147,12.147,0,0,1-4.278-1.176,29.558,29.558,0,0,1-5.195-2.788c-.637-.482-1.275-.976-1.9-1.484.289.761.574,1.523.91,2.255.679,1.481,1.275,2.973,2.063,4.4a7.758,7.758,0,0,0,1.318,2.01c.306.306.81,1.24,1.111,1.388.088.043.013.172-.073.132-.392-.187-.386-.342-.587-.66-.406-.643-1.011-1.054-1.4-1.705a40.352,40.352,0,0,1-2.294-4.563c-.544-1.229-1.061-2.469-1.59-3.7a27.783,27.783,0,0,1-5.9-6.37c-.26-.408-.527-.812-.8-1.217.059.121.118.24.182.356.586,1.081.983,2.238,1.6,3.3.57.989,1.22,1.934,1.691,2.976.487,1.075.764,2.225,1.176,3.327a45.679,45.679,0,0,0,2.884,7.253c.627,1.079,1.355,2.119,1.883,3.251a8.261,8.261,0,0,0,1.827,3.045c.085.073-.037.2-.123.123a6.26,6.26,0,0,1-1.557-2.344,28.548,28.548,0,0,0-1.751-3.146,24.309,24.309,0,0,1-1.72-3.154c-.492-1.154-.8-2.371-1.207-3.553a31.951,31.951,0,0,0-3-6.847,29.362,29.362,0,0,1-1.608-3.065,11.81,11.81,0,0,0-2.017-3.337.262.262,0,0,1,.22-.445,32.721,32.721,0,0,1-2.434-4.143c.185.911.383,1.819.491,2.749A28.367,28.367,0,0,0,238.4,304a63.5,63.5,0,0,1,2.479,9.234c.23,1.512.434,2.974.781,4.469.36,1.552.482,3.162.949,4.684.456,1.49.5,2.994.876,4.489.339,1.336,1.1,2.5,1.342,3.874.014.076-.1.112-.119.033-.329-1.348-1.154-2.493-1.516-3.827-.4-1.48-.456-3-.917-4.477-.474-1.523-.6-3.125-.969-4.677-.2-.837-.439-1.674-.576-2.522-.123-.767-.131-1.545-.267-2.31a45.521,45.521,0,0,0-1.072-4.774c-.458-1.562-1.058-3.076-1.509-4.639a26.892,26.892,0,0,1-.817-4.553c-.141-1.3-.4-2.571-.568-3.858a15.128,15.128,0,0,1-.7-2.133c-.479-1.964-.515-4.044-1.282-5.915.076,1.082.363,2.068.528,3.157l.011.013a1.879,1.879,0,0,1,.2,1.423c.017.136.04.27.052.406.06.663-.065,1.306-.043,1.968a13.376,13.376,0,0,0,.411,1.923c.09.508.122,1.023.235,1.529a24.787,24.787,0,0,1,.594,3.966,21.561,21.561,0,0,0,.007,3.653,32.582,32.582,0,0,1,.643,3.469c.139-.043.309.044.257.227-.056.2-.112.409-.168.613a20.831,20.831,0,0,0,.421,3.59,19.961,19.961,0,0,0,1.425,4.187,7.78,7.78,0,0,1,.566,1.341,11.809,11.809,0,0,0,.8,1.665c.541,1.21.6,2.607,1.044,3.856.922,2.584,1.957,5.15,3.033,7.668.446,1.046.729,2.153,1.115,3.221a23.918,23.918,0,0,1,1.154,4.046,22.43,22.43,0,0,1,.332,3.907c0,1.42-.258,2.8-.343,4.207-.089,1.468-.113,2.941-.2,4.411a23.213,23.213,0,0,0,.491,5.38c.022.113-.152.162-.174.047a34.21,34.21,0,0,1-.507-3.935c-.1-1.364.152-2.694.152-4.054,0-2.615.434-5.2.21-7.816a32.724,32.724,0,0,0-2-7.691c-.409-1.223-1.011-2.341-1.484-3.534-.525-1.322-.933-2.681-1.491-3.992a20.969,20.969,0,0,1-1.193-3.31,15.719,15.719,0,0,0-.505-1.936c-.245-.643-.708-1.1-.919-1.751-.359-1.115-.939-2.119-1.351-3.225a18.847,18.847,0,0,1-1.058-4c-.013-.093-.019-.187-.029-.281a31.42,31.42,0,0,0-.655,3.4c-.155,1.216-.332,2.432-.416,3.655-.032.467-.03.943-.092,1.407a4.627,4.627,0,0,0-.179,1.523c.024.129-.171.187-.2.056a11.285,11.285,0,0,1,.149-2.63c.034-1.295.178-2.578.307-3.867.111-1.112.378-2.178.56-3.277a15.19,15.19,0,0,1,.38-2.086c-.033-.521-.066-1.042-.122-1.56-.144-1.3-.682-2.544-.728-3.848-.046-1.28.133-2.489-.007-3.777-.138-1.267-.431-2.483-.62-3.738-.1-.689-.332-1.361-.439-2.044-.011.06-.024.119-.034.179a29.265,29.265,0,0,0-.556,4.059c-.056,1.187.013,2.4-.122,3.58-.122,1.081-.512,2.093-.6,3.188-.1,1.247-.149,2.5-.25,3.746a18.5,18.5,0,0,0-.049,3.227,13.479,13.479,0,0,1-.02,1.384c0,.274.123.28.022.566-.042.119-.233.075-.191-.047.072-.217-.062-.581-.063-.815-.006-.568-.043-1.105-.1-1.675a18.527,18.527,0,0,1,.01-2.822c.055-1.186.089-2.371.145-3.556.049-1.051.362-2.027.494-3.06.277-2.176.017-4.38.411-6.557a44,44,0,0,0,.834-4.57c-.151-1.1-.462-2.185-.67-3.273-.174-.9-.088-1.756-.218-2.628l-.023-.032c-.607,1.339-.84,2.905-1.458,4.233-.352.756-.567,1.522-.973,2.257a15.378,15.378,0,0,0-1.334,2.859c-.268.847-.511,1.717-.834,2.546a21.532,21.532,0,0,0-.978,2.149,27.106,27.106,0,0,1-1.856,5.591c-.056.106-.217.014-.162-.092.963-1.923,1.189-4.077,1.809-6.114.22-.718.686-1.326.936-2.04.324-.93.543-1.895.864-2.826a15.621,15.621,0,0,1,1.13-2.315c.395-.728.614-1.516.949-2.269.626-1.408.814-3.139,1.539-4.509a24.64,24.64,0,0,1-2.17-3.095c-.119.192-.235.365-.316.5a20.138,20.138,0,0,0-1.29,2.816c-.187.467-.25.966-.464,1.42a6.992,6.992,0,0,0-.556,1.56,21.1,21.1,0,0,1-.731,2.251c-.388,1.127-.784,2.252-1.173,3.383a12.28,12.28,0,0,1-1.3,2.656,21.425,21.425,0,0,0-1.451,3.06c-.05.118-.22.019-.171-.1a20.131,20.131,0,0,1,1.14-2.633,14.717,14.717,0,0,0,1.415-2.878c.534-1.616.982-3.26,1.524-4.866.5-1.489.833-3,1.476-4.453a23.213,23.213,0,0,1,1.11-2.486c.151-.254.357-.533.515-.822-.014-.033-.032-.062-.044-.095a9.472,9.472,0,0,1-.472-4.906,10.313,10.313,0,0,0-.251-4.3c-.273.734-.571,1.458-.853,2.186-.456,1.186-.771,2.42-1.234,3.6a23.109,23.109,0,0,1-1.553,3.023c-.6,1.052-.887,2.189-1.519,3.233-.583.96-.81,2.073-1.364,3.06-.57,1.019-1.229,1.994-1.833,2.994-.643,1.068-1.029,2.186-1.576,3.293-.6,1.22-1.359,2.379-2.035,3.558a.118.118,0,0,1-.205-.115c.637-1.133,1.339-2.245,1.915-3.409.524-1.062.818-2.156,1.417-3.191.583-1.009,1.2-2,1.773-3.012.56-.99.777-2.094,1.3-3.086a10.76,10.76,0,0,0,.9-1.773,7.12,7.12,0,0,1,.5-1.329c.557-1.032,1.181-2.025,1.636-3.109.528-1.256.833-2.6,1.316-3.88.208-.55.428-1.094.639-1.641.052-.133.323-.718.505-1.213a10.028,10.028,0,0,0-1.946-3.013.237.237,0,0,1,.01.165c-.4,1.115-.937,2.186-1.295,3.3a8.913,8.913,0,0,1-.735,1.412c-.287.554-.4,1.184-.653,1.754-.521,1.189-.989,2.4-1.509,3.593a11.014,11.014,0,0,0-.887,1.9,4.974,4.974,0,0,0-.3,1.316.117.117,0,0,1-.225.062.962.962,0,0,1,.066-.719,10.643,10.643,0,0,1,.547-1.7c.624-1.313,1.054-2.7,1.606-4.042.26-.633.5-1.23.716-1.879s.642-1.183.857-1.835c.178-.541.458-1.077.607-1.613.06-.218.6-1.658.586-1.684-.111-.184.1-.347.27-.274l.2.089c-.034-.036-.066-.073-.1-.109-1.2-1.25-2.981-2.19-3.748-3.785-.06-.125-.113-.258-.168-.39-.53.511-1.055,1.018-1.582,1.517-.019.32-.032.639-.065.953a21,21,0,0,1-.34,2.714c-.406,1.644-1.183,3.21-1.657,4.837-.24.825-.38,1.685-.6,2.516-.2.785-.744,1.388-.995,2.165-.508,1.572-1.4,2.994-1.9,4.555a20.579,20.579,0,0,1-.706,2.176,15.058,15.058,0,0,0-1.306,2.354,18.607,18.607,0,0,0-.214,2.277c-.1.851.329,1.493.339,2.311.01.7-.079,1.417-.095,2.119a4.019,4.019,0,0,0,.1,1.3,6.055,6.055,0,0,0,.946,1.468c.419.614.646,1.331,1.054,1.955a5.587,5.587,0,0,0,1.069,1.295c.3.245.606.445.887.711a5.428,5.428,0,0,1,1.694,3.358,3.156,3.156,0,0,0,1.329,2.446c.741.479,1.374.9,2.073,1.448.636.5,1.367.833,1.994,1.352.771.637,1.589,1.214,2.3,1.925.594.594,1.125,1.252,1.77,1.8a7.718,7.718,0,0,1,1.632,1.6c.729,1.114.515,2.2.5,3.464a21.318,21.318,0,0,1-.208,4.575,35.039,35.039,0,0,1-1.153,5.036c-.34.867-.841,1.662-1.12,2.555a7.915,7.915,0,0,0-.306,2.905,4.28,4.28,0,0,0,.518,1.931,3.582,3.582,0,0,0,1.105,1,18.027,18.027,0,0,1,1.7,1.8c1.263,1.267,3.172,1.7,4.566,2.818,1.481,1.194,2.254,2.948,3.3,4.49.494.728,1.177,1.219,1.688,1.915a9.239,9.239,0,0,1,1.177,1.764c.017.046-.06.079-.08.033a4.175,4.175,0,0,0-.676-.85c-.241-.313-.376-.7-.639-1a17.36,17.36,0,0,1-1.532-1.619c-1.1-1.648-1.982-3.577-3.633-4.766-1.242-.894-2.808-1.29-3.993-2.251-.6-.484-1.034-1.131-1.595-1.651-.5-.465-1.25-.719-1.668-1.276a6.056,6.056,0,0,1-.7-4.107c.224-1.873,1.362-3.392,1.75-5.218a41.925,41.925,0,0,0,.992-5.305c.063-.814-.089-1.616-.1-2.429a12.264,12.264,0,0,0,.007-2.545,3.965,3.965,0,0,0-1.613-2.123,17.537,17.537,0,0,1-1.889-1.806,19.948,19.948,0,0,0-2.1-1.819c-.784-.62-1.672-1.068-2.445-1.687a12.234,12.234,0,0,0-1.166-.959c-.352-.218-.744-.362-1.092-.586a2.489,2.489,0,0,1-1.008-1.279,14.408,14.408,0,0,1-.477-2.192,4.329,4.329,0,0,0-1.385-2.267,11.837,11.837,0,0,1-1.507-1.351,20.01,20.01,0,0,1-1.394-2.412,10.673,10.673,0,0,1-1.184-1.822,6.2,6.2,0,0,1-.145-2.1,8.141,8.141,0,0,0,.009-2.146,4.664,4.664,0,0,1-.245-1.988c.08-.7.055-1.43.188-2.119a6.5,6.5,0,0,1,1.075-2.071,14.623,14.623,0,0,0,1.075-2.96c.312-.9.811-1.731,1.16-2.62a36.4,36.4,0,0,0,2.025-5.363c.425-1.912,1.276-3.7,1.814-5.577a13.239,13.239,0,0,0,.32-2.944,38.063,38.063,0,0,1-4.615,3.742c-.5,1.379-.313,2.782-.589,4.222m-22.492,6.323a20.27,20.27,0,0,1,3-3.7,15.7,15.7,0,0,1,7.2-3.919c3.18-.669,6.412-1.127,9.256-2.694a42.8,42.8,0,0,0,4.361-2.712c1.545-1.108,2.887-2.442,4.318-3.682.032-.078.063-.155.1-.231a.272.272,0,0,1,.347-.149c.066-.055.133-.109.2-.165a.685.685,0,0,1,.828-.636,15.886,15.886,0,0,1-.471-3.513,33.733,33.733,0,0,1,.9-6.409,4.6,4.6,0,0,0,.05-.55l-.034.046a19.07,19.07,0,0,1-3.665,3.537c-1.24.976-2.538,1.889-3.8,2.847a20.175,20.175,0,0,1-3.711,2.311,19.879,19.879,0,0,1-2.017.828,9.464,9.464,0,0,0-2.47.957c-1.193.857-1.236,2.615-2.455,3.432a3.154,3.154,0,0,1-2.911.108c-.756-.291-1.53-.593-2.268-.932-.807-.373-1.668-.655-2.452-1.074-.088-.047-.011-.181.076-.135,1.265.663,2.72,1.062,4.039,1.613,1.777.744,3.327.858,4.324-1.028a4.912,4.912,0,0,1,2.05-2.561c1.293-.633,2.694-1,3.988-1.658,2.414-1.214,4.4-3.221,6.636-4.751a24.675,24.675,0,0,0,3.505-3.145,19.174,19.174,0,0,0,1.362-1.791,1.446,1.446,0,0,1,.082-.181,1.387,1.387,0,0,1,.31-.369,1.939,1.939,0,0,0,.214-.619,4.6,4.6,0,0,1,.039-.474.262.262,0,0,1,.053-.1c.017-.06.037-.121.057-.181-.135.089-.268.179-.4.267a7.481,7.481,0,0,0-1.522,1.687,7.5,7.5,0,0,1-2.836,2.877c-1.368.912-2.74,1.8-4.12,2.691-1.58,1.023-3.148,1.922-4.754,2.882a20.885,20.885,0,0,1-2.076,1.275,11.121,11.121,0,0,0-2.66,1.164c-.83.7-1.283,1.826-2.315,2.34s-1.681.227-2.647-.323c-1.17-.666-2.436-1.219-3.678-1.779-.711,1.549-1.837,2.638-2.664,4.187-1.055,1.972.856,3.893.995,5.979a10.614,10.614,0,0,1-.115,2.351.181.181,0,0,1,.314.178,9.241,9.241,0,0,1-.517.812,20.881,20.881,0,0,1-2.6,5.819,7.387,7.387,0,0,0,.557-.728m-12.342-4.846c-.221,1.612-.578,2.773.515,4.173a15.576,15.576,0,0,0,2.653,2.314c1.057.845,1.978,1.791,3.112,2.539.558.367.7.578,1.336.372.662-.217,1.091-1.018,1.6-1.483.461-.421.9-.775,1.325-1.134a36.181,36.181,0,0,0,2.475-5.532c-.4.343-.833.673-1.325,1.028a19.438,19.438,0,0,1-4.246,2.727c-.177.069-.253-.215-.079-.284a17.475,17.475,0,0,0,5.852-4.157,10.573,10.573,0,0,0,.409-4.026c-.854,1.626-2.835,2.944-4.319,3.946-1.842,1.243-3.909,3.148-6.045,3.784a.137.137,0,0,1-.073-.264c1.916-.619,3.947-2.558,5.631-3.686a19.686,19.686,0,0,0,4.67-4.189.117.117,0,0,1,.066-.039,6.423,6.423,0,0,0-.646-1.9c-.7-1.3-1.153-2.076-.61-3.556a8.385,8.385,0,0,1,.963-1.8c-1.58.726-5.159-.65-6.248-.965-3.065-.881-5.944-1.2-8.4-3.442a.315.315,0,0,1-.05-.365c.032-.073.063-.146.093-.218.129-.3.584-.09.518.207a17.276,17.276,0,0,0,3.062,1.568,21.417,21.417,0,0,0,3.927.87,63.216,63.216,0,0,0,7.471,1.282.3.3,0,0,1,.26.161,9.739,9.739,0,0,0,1.506-2.694.653.653,0,0,1,.781-.467,35.418,35.418,0,0,1,3.616,1.368c.507.228,1.51,1.022,2.11.86.649-.175,1.259-1.28,1.688-1.756a5.225,5.225,0,0,1,2.156-1.368c1.559-.624,2.838-1.547,4.322-2.3a23.625,23.625,0,0,0,2.16-1.253.119.119,0,0,1-.076.013c-.106-.022-.708.431-.857.491a17.781,17.781,0,0,1-2.035.709,37.174,37.174,0,0,1-4.279.817,9.827,9.827,0,0,1-3.973-.109c-1.514-.4-2.542-1.612-4.219-1.5a22.529,22.529,0,0,0-4.522.683,15.405,15.405,0,0,1-3.815.169,15.19,15.19,0,0,1-7.565-2.292c-.1-.053-.013-.2.086-.149a23.962,23.962,0,0,0,3.827,1.56,12.6,12.6,0,0,0,4.032.533c.689,0,1.378.02,2.067-.012a8.943,8.943,0,0,0,1.979-.452,8.021,8.021,0,0,1,1.387-.164c.779-.072,1.519-.268,2.288-.379a4.248,4.248,0,0,1,2.714.485,7.508,7.508,0,0,0,4.186,1.16,29.636,29.636,0,0,0,4.239-.663,15.15,15.15,0,0,0,2.076-.494,7.176,7.176,0,0,0,2.083-.693.149.149,0,0,1,.142-.039l.224.083a.131.131,0,0,1,.055.214c1.774-1.147,3.467-2.479,5.192-3.665-.843.162-1.589.576-2.443.716-1.016.168-2.04.251-3.056.428-.985.172-1.924.468-2.9.656a21.645,21.645,0,0,1-5.221.675,12.165,12.165,0,0,1-4.879-1.026c-.109-.06-.016-.225.1-.169a12.35,12.35,0,0,0,5.113.86,22.713,22.713,0,0,0,4.945-.781,40.462,40.462,0,0,1,4.572-.98,11.788,11.788,0,0,0,2.848-.723c.435-.158,1.166-.063,1.513-.34.08-.063.228-.023.238.079.2-.164.38-.334.553-.508a8.9,8.9,0,0,1-3.251.033,11.168,11.168,0,0,1-2.457-.352c-1.21-.283-2.424-.551-3.647-.774a29.581,29.581,0,0,0-4.315-.884c-2.3-.049-4.816,1.43-6.92,2.226a32.591,32.591,0,0,1-6.8,1.807,15.825,15.825,0,0,1-5.91-.1c-2.511-.564-4.559-1.761-6.923-2.674-.63-.244-1.247-.49-1.852-.754-.344.712-.756,1.388-1.051,2.126a8.944,8.944,0,0,0-.426,2.7c-.138,1.346-1.174,2.2-1.444,3.5-.309,1.477-.136,2.927-.751,4.348-.512,1.183-2.776,3.342-2.558,4.641.372,2.225,2.684,1.573,4.309,1.928a8.962,8.962,0,0,1,3.237,1.536,5.3,5.3,0,0,1,1.916,5.169m-27.236-58.648a44.334,44.334,0,0,0-10.179,4.486c-2.828,1.75-4.852,4.692-7.792,6.19a16.388,16.388,0,0,1-3.411,1.1c-1.484.385-2.621,1.374-4.054,1.883a28.024,28.024,0,0,1-8.9,1.679c-2.973.049-6.293-.181-9.025,1.2-2.927,1.474.187,4.433-.956,6.813-1.072,2.232-3.759,3.94-5.769,5.264a15.414,15.414,0,0,1-3.217,1.649,3.9,3.9,0,0,0-1.164.544,11.643,11.643,0,0,1-1.654,1.082c-2.719,1.29-5.848,1.705-8.786,2.209a15.915,15.915,0,0,1-4.256.243c-.556-.055-1.1-.164-1.655-.238a10.1,10.1,0,0,0-1.3-.134,1.954,1.954,0,0,0-2.2,1.179,2.19,2.19,0,0,0-.042,2.6,3.9,3.9,0,0,0,1.779,1.932,45.958,45.958,0,0,0,4.957,2.752c3.412,1.443,7.365,1.823,10.974,2.562a95.15,95.15,0,0,1,10.427,2.356c1.712.557,3.4,1.055,5.156,1.48,1.791.434,3.695.413,5.437,1.028,3.014,1.064,4.7,3.91,7.626,5a12.789,12.789,0,0,0,4.058.709,2.433,2.433,0,0,1-.438-.1.117.117,0,0,1,.057-.227,6.028,6.028,0,0,0,1.336-.026c.434.007.877.125,1.308.156.383.029.777.03,1.17.02,1.269-.154,2.5-.383,3.623-.634.4-.09.807-.178,1.2-.264.835-.251,1.665-.521,2.472-.767a20.422,20.422,0,0,1,2.414-.848c.824-.142,1.7,0,2.539-.063,1.889-.142,3.8-.178,5.679-.438,1.56-.214,3.063-.853,4.626-.99,1.6-.141,2.912.768,4.236,1.549,1.652.973,3.408,2.409,5.31,2.806a23.47,23.47,0,0,0,2.878.3c1,.079,2.361,0,2.91-.983.046-.08.165-.011.126.072a2.667,2.667,0,0,1-2.086,1.3,13.806,13.806,0,0,1-3.781-.136,12.2,12.2,0,0,1-4.16-1.876c-1.4-.789-3-2.124-4.616-2.312-1.313-.152-2.59.462-3.854.723a25.183,25.183,0,0,1-4.619.442c-.756.016-1.509.067-2.264.119-.838.057-1.667-.024-2.5.019a5.865,5.865,0,0,0-1.725.465,20.125,20.125,0,0,1,5.3-.011c3.916.534,7.262,2.257,10.908,3.606,1.908.708,3.55,1.658,5.613,1.939a14.4,14.4,0,0,0,5.5-.231c1.843-.416,3.633-.332,5.43-1.069a31.023,31.023,0,0,1,4.8-1.945,3.456,3.456,0,0,0-1.81-1.856,12.406,12.406,0,0,0-4.512-1.006c-1.2-.144-2.5-.278-2.97-1.572a5.241,5.241,0,0,1,.736-4.075c.465-.827,1.105-1.55,1.552-2.387a10.094,10.094,0,0,0,.817-3.824,6.309,6.309,0,0,1,.587-2.277,6.914,6.914,0,0,0,.911-2.953c.03-.253.076-.5.129-.745a9.771,9.771,0,0,1-1.6.459,24.688,24.688,0,0,0-3.135.906,27.265,27.265,0,0,1-2.861.969,8.9,8.9,0,0,0-1.315.253,15.846,15.846,0,0,1-1.635.607c-4.411,1.071-8.791,2.526-13.341,2.867-2.211.167-4.4.639-6.615.711a23.893,23.893,0,0,1-5.938-.623c-2.143-.477-4.24-1.292-6.467-1.226a20.493,20.493,0,0,0-6.454,1.013,46.174,46.174,0,0,1-6.866,1.826c-1.056.212-2.113.3-3.184.426-1.121.136-2.238-.154-3.363-.115-.095,0-.1-.142,0-.146,1.013-.04,2.018.2,3.029.136a24.123,24.123,0,0,0,3.146-.412c2.07-.438,4.09-.978,6.119-1.592.97-.294,1.883-.709,2.879-.922a23.728,23.728,0,0,1,2.97-.385,17.033,17.033,0,0,1,5.89.454,32.113,32.113,0,0,0,6.488,1.133,38.983,38.983,0,0,0,6.184-.568,63.907,63.907,0,0,0,6.939-.967c2.317-.514,4.6-1.137,6.9-1.757,2.213-.6,4.39-1.257,6.547-2,1.941-.667,3.9-1.223,5.881-1.744a9.922,9.922,0,0,1,1.23-2.492c-.587.151-1.18.264-1.771.4-.718.161-1.332.521-2.024.732a7.708,7.708,0,0,1-1.664.2,14.513,14.513,0,0,0-2.633.557c-3.2.886-6.376,1.856-9.549,2.825a17.936,17.936,0,0,1-2.178.589c-.723.122-1.447.118-2.165.28a37.384,37.384,0,0,1-4.283.947,36.942,36.942,0,0,1-8.677.144c-.65-.085-1.3-.01-1.948-.109-.911-.139-1.76-.413-2.694-.5-1.542-.136-3.1-.521-4.645-.53-3.1-.022-6.3.894-9.312,1.585-.607.139-1.2.192-1.809.281-.675.1-1.2.5-1.86.634-1.461.3-2.848.88-4.312,1.154a65.682,65.682,0,0,1-8.8,1.122,39.16,39.16,0,0,1-5.489-.191c-1.758-.152-3.551-.233-5.287-.553s-3.533-.534-5.236-.986c-.823-.22-1.651-.485-2.452-.777a4.745,4.745,0,0,0-2.269-.61c-.1.016-.154-.135-.044-.164a4.891,4.891,0,0,1,2.686.528,31.709,31.709,0,0,0,4.546,1.1c1.743.268,3.441.646,5.2.8,1.694.146,3.389.3,5.089.4a37.021,37.021,0,0,0,9.59-.751,36.114,36.114,0,0,0,4.4-1.087,12.916,12.916,0,0,1,1.8-.508c.729-.142,1.306-.491,2.014-.645.622-.135,1.265-.136,1.889-.27.8-.168,1.6-.383,2.4-.56,1.441-.317,2.908-.578,4.365-.811a14.163,14.163,0,0,1,3.976-.2c1.589.2,3.224.353,4.8.617a12.524,12.524,0,0,0,2.311.412c.748-.009,1.466.155,2.211.205,1.474.1,3.039.132,4.514.093,3.049-.079,5.931-1.127,8.933-1.431a31.444,31.444,0,0,0,5.481-1.48c1.8-.527,3.6-1.018,5.4-1.529a23.888,23.888,0,0,1,4.688-.939,13.652,13.652,0,0,0,2.447-.731c.828-.22,1.69-.307,2.528-.491l.029-.043a13.54,13.54,0,0,1-1.629-1.028l-.2-.149a3.277,3.277,0,0,1-.8,0,16.952,16.952,0,0,0-2.354-.08c-1.586.042-3.144.334-4.715.517a37.165,37.165,0,0,0-5.226,1c-1.537.4-3.059.978-4.631,1.232-1.344.218-2.511.784-3.867.917-1.489.148-2.947.676-4.451.864a27.969,27.969,0,0,1-4.962.171c-1.658-.086-3.309.019-4.97-.132-1.819-.166-3.617-.51-5.414-.822a19.631,19.631,0,0,1-4.961-1.091c-.069-.032-.022-.155.05-.126a20.645,20.645,0,0,0,4.362.835c1.789.293,3.576.645,5.379.84a43.071,43.071,0,0,0,4.83.166c1.536-.007,3.026.106,4.566-.036a38.392,38.392,0,0,0,4.74-.88c.686-.149,1.405-.079,2.084-.28a15.716,15.716,0,0,1,2.045-.657c3.019-.481,5.881-1.649,8.92-2.091,1.638-.237,3.307-.446,4.957-.576a22.977,22.977,0,0,1,2.414-.052c.6.017,1.213.167,1.81.142a25.638,25.638,0,0,0-5.056-3.131,16.41,16.41,0,0,1-4.1.09,21.57,21.57,0,0,0-5.549.471c-1.764.4-3.563.517-5.344.82-1.684.287-3.333.666-5.034.863a51.034,51.034,0,0,1-10.889.5,27.973,27.973,0,0,1-5-.976c-1.81-.514-3.58-.835-5.426-1.179a19.432,19.432,0,0,0-5.924-.382,49.837,49.837,0,0,1-6.065.7.1.1,0,0,1,0-.194,36.707,36.707,0,0,0,5.491-.731,19.532,19.532,0,0,1,4.73-.072,32.355,32.355,0,0,1,5,.764c1.737.412,3.432.992,5.195,1.29a38,38,0,0,0,5.811.343,44.392,44.392,0,0,0,5.384-.482,54.094,54.094,0,0,0,5.68-.87c1.708-.367,3.457-.462,5.175-.774a31.066,31.066,0,0,1,5.485-.735c1.506,0,3,.2,4.5.21-.339-.118-.688-.224-1.046-.316a17.631,17.631,0,0,1-5.766-2.213c-1.454-1.015-1.878-2.813-2.839-4.229-2.172-3.2-7.7-3.286-9.122-7.365-1.145-3.284,4.115-4.077,5.756-5.465a5.766,5.766,0,0,0,1.889-2.215c.538-1.971-.8-2.386-1.979-3.51a4.41,4.41,0,0,1-1.255-1.931.921.921,0,0,1-.179.075m14.824-19.3a15.42,15.42,0,0,1-5.2,1.431c-1,.148-2.008.373-3.014.477-1.088.111-2.07-.135-3.158-.128a19.916,19.916,0,0,0-6.286,1.438c-1.532.517-3.144,1.7-2.855,3.679a6.891,6.891,0,0,0,1.246,2.6c1.092,1.619,2.745,2.516,3.942,4.025.692.871,1.72,1.979,1.827,3.144.1,1.059-.642,1.547-.2,2.768.375,1.039,1.418,1.516,2.153,2.234,2.015,1.968.4,4.068-1.364,5.594-1.138.986-2.446,1.223-3.734,1.925-3.454,1.883-.6,4.746,1.545,6.023,1.694,1.009,3.811,1.6,5.278,2.951,1.51,1.392,1.836,3.738,3.619,4.869,1.9,1.206,4.059,1.552,6.164,2.206a19.121,19.121,0,0,1,5.262,2.709c1.134.811,2.137,1.668,3.33,2.389a.734.734,0,0,1,.8.431c.881.416,1.8.67,2.7,1.065A30.007,30.007,0,0,0,187.8,251.9c5.281.942,10.477-1.6,15.346-3.227a9.083,9.083,0,0,1,3.213-.56,19.488,19.488,0,0,1,2.984-1.779,36.254,36.254,0,0,1,3.906-2.034,40.239,40.239,0,0,1,8.69-2.875,39.464,39.464,0,0,1,4.13-.8,31.99,31.99,0,0,0,5.419-.607,35.117,35.117,0,0,0,5.465-1.638c.4-.393.79-.792,1.184-1.19a16.313,16.313,0,0,1-3.8,1.147,52.975,52.975,0,0,1-11.9.649c-4.42-.113-8.663.729-12.991,1.471a27.877,27.877,0,0,0-5.376,1.961,25.138,25.138,0,0,0-2.577,1.336,10.68,10.68,0,0,0-3.075,1.781c-.1.108-.31-.039-.215-.165.9-1.2,2.31-1.6,3.579-2.33a40.682,40.682,0,0,1,4.642-2.12c3.778-1.589,8.051-1.9,12.105-2.294,4.464-.431,9,0,13.482-.372a15.126,15.126,0,0,0,6.636-1.882c.322-.2.633-.395.945-.587a39.054,39.054,0,0,0,3.531-3.844,10.354,10.354,0,0,1,.116-1.552,4.6,4.6,0,0,1,.25-.864c-1.628,1.82-4.388,2.859-6.612,3.543a38.072,38.072,0,0,1-10.108,1.886c-1.279.036-2.6.08-3.92.066.1.06.192.123.291.181a.024.024,0,0,1-.024.042c-.123-.07-.241-.151-.363-.224a22.6,22.6,0,0,1-6.078-.762c-3.323-.975-6.191-1.7-8.893-3.927-3.3-2.729-7.558-4.324-11.621-5.512-1.278-.372-2.548-.768-3.818-1.17a.056.056,0,0,1-.062.065c-5.891-.877-11.707-2.43-17.666-3.042-3.059-.314-6.134-.4-9.2-.6a31.689,31.689,0,0,1-3.556-.329,20.406,20.406,0,0,0-3.557-.8.107.107,0,0,1,0-.214,6.38,6.38,0,0,1,2.648.434,22.928,22.928,0,0,0,4.461.561c3.213.211,6.429.306,9.629.67,5.768.656,11.367,2.249,17.063,3.18-2.383-.752-4.758-1.52-7.154-2.206a107.213,107.213,0,0,1-11-3.577,75.372,75.372,0,0,1-11.4-5.868.168.168,0,0,1,.165-.291,114.913,114.913,0,0,0,22.083,8.821c1.7.474,3.363,1.026,5.034,1.57A11.761,11.761,0,0,1,188.092,221c-.894-.675-1.7-1.474-2.572-2.172s-1.813-1.267-2.657-1.992c-.976-.837-1.957-1.636-2.994-2.4a58.924,58.924,0,0,1-4.832-4.057c-.8-.731-1.562-1.494-2.406-2.175a14.939,14.939,0,0,1-2.45-2.261c-.039-.049.029-.121.07-.07a54.226,54.226,0,0,0,4.645,4.091,67.242,67.242,0,0,0,5.4,4.516c1.712,1.265,3.352,2.635,5.034,3.937.745.578,1.438,1.22,2.147,1.842a16.99,16.99,0,0,0,2.946,1.952c1.321.428,2.647.843,3.995,1.2q1.223.323,2.426.672a21.214,21.214,0,0,1-1.777-1.3c-1.522-1.2-2.991-2.476-4.469-3.736-2.884-2.462-5.9-4.87-8.539-7.6-2.567-2.65-5.212-5.195-7.612-8.005-1.105-1.3-2.071-2.7-3.07-4.081a15.254,15.254,0,0,1-1.486-2.41c-.32.2-.645.393-.979.573m27.426-3.39a19.764,19.764,0,0,0-2-1.156.762.762,0,0,1-.593-.268,10.628,10.628,0,0,0-3.125-.788c-1.623-.174-2.9-.454-4.41.434a16.15,16.15,0,0,0-2.5,2.155c-2.646,2.383-5.915.4-8.953.432-1.81.022-3.185.959-4.619,1.86a21.1,21.1,0,0,0,1.743,2.722,52.336,52.336,0,0,0,3.313,4.285c1.153,1.268,2.219,2.61,3.469,3.782s2.422,2.4,3.62,3.639c2.449,2.528,5.216,4.761,7.868,7.071,1.387,1.207,2.775,2.412,4.179,3.6a32.809,32.809,0,0,0,2.936,2.3c1.233.367,2.452.765,3.65,1.222a7.769,7.769,0,0,1-.95-.7,31.467,31.467,0,0,1-3.128-2.93,87.355,87.355,0,0,1-5.892-6.818,39.8,39.8,0,0,0-3.109-3.815,45.182,45.182,0,0,1-2.931-3.9c-.9-1.253-1.846-2.473-2.8-3.689a8.65,8.65,0,0,1-1.7-2.99.071.071,0,0,1,.136-.039,11.5,11.5,0,0,0,2.357,3.57c.843,1.018,1.628,2.084,2.4,3.152a44.374,44.374,0,0,0,3.032,3.963,32.4,32.4,0,0,1,2.674,3.284c1.724,2.465,3.893,4.507,5.8,6.816a37.773,37.773,0,0,0,3.056,2.989,10.887,10.887,0,0,0,2.278,1.6c.777.327,1.546.682,2.3,1.074a21.155,21.155,0,0,1,3.851,2.318,11.7,11.7,0,0,0,4.967,2.753c1.477.356,2.884.929,4.355,1.3a16.459,16.459,0,0,0,3.324.425,53.453,53.453,0,0,1-5.156-4.769,86.787,86.787,0,0,1-6.237-7.144c-3.6-4.481-7.019-9.445-8.386-15.109a.068.068,0,0,1,.132-.036,47.973,47.973,0,0,0,8.683,15.214c1.862,2.311,3.769,4.621,5.848,6.742a59.745,59.745,0,0,0,5.3,5.11c.67.024,1.342.029,2.015.037.489.006.976.006,1.46,0-.065-.044-.133-.085-.2-.131-.709-.53-1.283-1.226-1.987-1.773a22.394,22.394,0,0,1-3.369-3.411c-2.186-2.623-4.512-5.116-6.452-7.932a72.685,72.685,0,0,1-5.429-8.75,20.6,20.6,0,0,1-1.661-4.2c-.34-1.4-.045-2.868-.468-4.252-.026-.086.1-.118.132-.037.5,1.272.245,2.614.518,3.926a18.789,18.789,0,0,0,1.817,4.582,76.523,76.523,0,0,0,5.12,8.261c1.922,2.811,4.21,5.281,6.353,7.916a24.52,24.52,0,0,0,3.861,3.95,11.8,11.8,0,0,1,1.194,1.157,5.033,5.033,0,0,0,.851.688,37.124,37.124,0,0,0,8.913-1.025,42.032,42.032,0,0,0,4.856-1.451c1.423-.55,4-1.365,4.99-2.605a.156.156,0,0,1,.2-.036c.126-.27.253-.54.363-.818a.262.262,0,0,1,.514.059,4.457,4.457,0,0,1-.121,1.629c-.039.211-.065.419-.088.627a.254.254,0,0,1,.228.366c-.1.243-.2.477-.309.708-.02.461-.033.922-.066,1.394a13.971,13.971,0,0,1-1.357,5.307,21.725,21.725,0,0,1-2.59,4.523c-.851.989-1.319,1.153-1.553,2.572-.231,1.4-.159,1.168.553,2.153.237.327.481.656.686,1,1.718,2.934-.834,5.373-2.01,7.967a7.461,7.461,0,0,0-.769,3.065,4.83,4.83,0,0,0,1.068,2.5c.448.752.973,1.312,1.474,2.007.485.672.66,1.54,1.359,2.073.093.072-.032.238-.126.167a2.842,2.842,0,0,1-.909-1.194c-.059-.1-.121-.2-.185-.29a5.77,5.77,0,0,1,.027,1.17,13.292,13.292,0,0,0,7.789,3.271,8,8,0,0,1,.817.1,26.53,26.53,0,0,0-1.371-3.126,7.562,7.562,0,0,1-.5-3.5,9.782,9.782,0,0,1,1.678-3.537,8.21,8.21,0,0,0,1.456-3.382,13.123,13.123,0,0,0-.192-2.235,32.2,32.2,0,0,1,.359-5.179,12.2,12.2,0,0,0-.728-4.575,27.961,27.961,0,0,1-.7-5.074,54.287,54.287,0,0,0-1.323-5.983,8.9,8.9,0,0,1-.6,2.439c-.013.032-.027.063-.04.1a16.036,16.036,0,0,0,.426,3.639c.24.642.708,1.468.2,2.091-.063.078-.2-.024-.139-.106.477-.685-.5-1.87-.64-2.605a17.936,17.936,0,0,1-.2-2.2c-.189.434-.378.867-.558,1.3a.155.155,0,0,1,.069.1h0a19.182,19.182,0,0,1,.663,3.138c.132,1.078.207,2.335,1.075,3.109a.068.068,0,0,1,.019.069c-.024.075-.05.149-.076.224a.06.06,0,0,1-.116-.029c.052-.228-.524-.837-.616-1.019a5.542,5.542,0,0,1-.458-1.4c-.245-1.236-.467-2.453-.756-3.676-.108.3-.207.6-.3.907a.156.156,0,0,1-.013.132h.006c-.322.574.211,1.595.336,2.18a11.95,11.95,0,0,0,.576,2.038,9.375,9.375,0,0,1,.523,1.5,3.1,3.1,0,0,0,.676,1.843c.07.063-.03.158-.1.1a2.233,2.233,0,0,1-.688-1.374,18.326,18.326,0,0,0-.863-2.446c-.326-.847-.436-1.756-.735-2.611l-.067-.2c-.026.085-.05.169-.079.254-.08.243-.175.485-.276.726a.152.152,0,0,1,.162.133c.056.332.07.339-.088.6a11.341,11.341,0,0,0,.68,3.273,6.4,6.4,0,0,0,2.442,3.709c.085.059.009.2-.082.142a6.256,6.256,0,0,1-2.548-3.438c-.257-.8-.439-1.618-.676-2.419a3.719,3.719,0,0,1-.207-1.315c-.057.115-.118.23-.179.343a.189.189,0,0,1,.033.228c-.268.564-.017,1.21,0,1.794a14.232,14.232,0,0,0,.088,1.523,17.826,17.826,0,0,0,.817,3.4,11.123,11.123,0,0,1,.627,2.512,9.457,9.457,0,0,1,.188,2.45c0,.034-.063.027-.062-.009a13.572,13.572,0,0,0-.445-3.243c-.245-1.082-.735-2.1-1.011-3.175a21.972,21.972,0,0,1-.523-3,13.679,13.679,0,0,1-.214-1.634,12.073,12.073,0,0,1-.936,1.255,17.014,17.014,0,0,1-1.589,1.4c-1.206,1.107.386,2,1.077,2.773a3.336,3.336,0,0,1,.662,2.92,6.146,6.146,0,0,1-2.109,3.8c-.81.761-.883,1.674-1.417,2.569a1.921,1.921,0,0,0-.283,2.014,4.7,4.7,0,0,1,.274.748.051.051,0,0,1-.1.027c-.162-.57-.646-1.117-.642-1.73,0-.69.626-1.427.85-2.054a4,4,0,0,1,.81-1.563,8.544,8.544,0,0,0,1.856-2.337,5.865,5.865,0,0,0,.459-2.627c-.039-1.148-.9-1.679-1.641-2.406-.725-.709-1.031-1.424-.261-2.239.507-.538,1.167-.9,1.667-1.453a10.756,10.756,0,0,0,1.425-2.106,49.56,49.56,0,0,0,1.977-5.277c.191-.475.385-.956.564-1.441-.009-.056-.01-.111-.02-.165a.219.219,0,0,1,.168-.253,8.2,8.2,0,0,0,.518-2.851,18.649,18.649,0,0,0-.205-2.76c-.1-.571-.131-1.147-.188-1.721a27.184,27.184,0,0,1-4.437-3.54c-1.652-1.547-3.623-2.874-5.2-4.464a13.109,13.109,0,0,1-2.693-4.006c-.807-1.939-.814-4.193-1.952-5.993-1.295-2.048-3.3-2.658-5.209-3.89a2.626,2.626,0,0,1-1.378-2.7,13.816,13.816,0,0,0,.289-1.878,2.349,2.349,0,0,0-.566-1.431,28.668,28.668,0,0,1-3.141-1.453.1.1,0,0,1,.093-.165c.573.251,1.168.467,1.767.676-.449-.224-.927-.4-1.371-.57a14.5,14.5,0,0,1-3.893-1.812c-4.23-3.162-8.8-3.564-13.779-1.849-3.284,1.134-5.581,2.1-8.7.1m-1.167-9.493-.217.471a.9.9,0,0,1-.238.319,3.888,3.888,0,0,0,.093.824c.128.554.365,1.081.492,1.635a14.064,14.064,0,0,1-.122,4.3.936.936,0,0,1-.078.312c.692.445,1.368.932,2.089,1.365,2.274,1.369,4.283.771,6.6-.09a23.978,23.978,0,0,1,5.905-1.394,11.774,11.774,0,0,1,6.162.912c.181.08.352.172.524.263a1.009,1.009,0,0,1-.136-.109c-.1-.1,0-.313.146-.257a7.109,7.109,0,0,0,3.235.189,4.341,4.341,0,0,1,1.708.211,6.651,6.651,0,0,0,2.275.169,18.589,18.589,0,0,1,4.316.653,30.4,30.4,0,0,1,3.991,1.346,25.242,25.242,0,0,1,3.725,2.027,22.339,22.339,0,0,0,4.5,1.415c.779.237,1.523.578,2.305.8.739.212,1.506.3,2.248.5.828.218,1.625.481,2.468.652a6.541,6.541,0,0,0,2.236.33c.09-.013.115.146.023.161a9.811,9.811,0,0,1-3.653-.573c-1.657-.423-3.317-.722-4.941-1.27-1.533-.518-3.184-.659-4.677-1.289-1.4-.593-2.624-1.575-4.039-2.142a24.027,24.027,0,0,0-9.346-2,6.525,6.525,0,0,1-1.73-.29,8.5,8.5,0,0,0-2.48-.017,4.836,4.836,0,0,1-1.763-.27,18.936,18.936,0,0,1,1.8,1.26,11.969,11.969,0,0,0,1.687,1.094.151.151,0,0,1,.106-.116,8.451,8.451,0,0,1,3.438-.037,13.953,13.953,0,0,1,4.064.718c1.232.574,2.522.988,3.759,1.6,1.514.749,2.954,1.646,4.415,2.493a.078.078,0,0,1-.078.136c-1.3-.726-2.594-1.464-3.932-2.123a22.117,22.117,0,0,0-2.168-.962,11.756,11.756,0,0,1-1.5-.455,10.023,10.023,0,0,0-3.564-.92,13.871,13.871,0,0,0-4.2-.167,16.494,16.494,0,0,0,1.685.708,8.278,8.278,0,0,1,3.455,1.832,14.123,14.123,0,0,1,1.961.881,5.969,5.969,0,0,1,3.66.474c.94.332,1.925.531,2.859.876a15.764,15.764,0,0,1,2.515,1.4.093.093,0,0,1-.092.162,15.342,15.342,0,0,0-2.475-1.367c-.81-.291-1.675-.429-2.495-.7a8.882,8.882,0,0,0-3.731-.708,7.033,7.033,0,0,1,1.691,1.384,20.2,20.2,0,0,0,8.173,5.112c3.223,1.176,5.8,3.207,9.441,2.9.817-.069,1.625-.156,2.42-.3-.087-.167.078-.4.279-.286a1.035,1.035,0,0,0,.485.128,12.532,12.532,0,0,0,1.253-.356,21.5,21.5,0,0,0,3.214-2.445c1.687-1.308,3.6-2.288,5.264-3.6,1.265-.995,2.492-2.043,3.78-3.007a59.118,59.118,0,0,0,5.132-4.428c2.994-2.818,6.3-5.356,8.532-8.844.59-.923,1.365-1.629,1.923-2.585a14.294,14.294,0,0,1,1.189-1.856c1.137-1.421,1.773-3.109,2.913-4.527,2.5-3.109,6.109-5.224,9.137-7.751,1.11-.927,2.242-1.872,3.346-2.855a4,4,0,0,1,.818-1.45c.2-.23.5,0,.487.253a28.486,28.486,0,0,0,4.858-5.789c2.112-3.475,4.86-6.4,6.751-10.015a15.556,15.556,0,0,1,3.079-4.134c.683-.663,1.371-1.309,2.03-1.994.725-.754,1.239-1.632,1.962-2.4a33.728,33.728,0,0,0,7.207-10.972c.385-.959,1.128-1.786,1.464-2.746.37-1.059-.007-1.418-.35-2.32-.494-1.295.235-1.992.656-2.923a3.47,3.47,0,0,1-.8.577c-2.11.835-3.949-.84-5.756,1.133-.69.752-.815,1.516-1.691,2.146a5.277,5.277,0,0,1-2.1.863c-1.107.211-2.816.191-3.531-.884a1.5,1.5,0,0,1-.162-.326,1.774,1.774,0,0,1-1.76.121,2.045,2.045,0,0,1-.475-.339c-.231.261-.429.622-.633.874a29.3,29.3,0,0,0-2.208,3.5,22.61,22.61,0,0,0-2.446,7.767,11.8,11.8,0,0,1-1.029,3.332c-.6,1.181-1.358,2.268-1.985,3.432a15.017,15.017,0,0,1-1.675,2.857c-.877,1.012-1.532,2.146-2.407,3.168-1.724,2.01-3.349,4.113-5.06,6.137-.779.922-1.348,1.934-2.074,2.878-.887,1.156-1.467,2.5-2.346,3.649a17.263,17.263,0,0,0-1.194,1.556c-.309.51-.553,1.058-.86,1.568a14.076,14.076,0,0,1-.934,1.3,20.9,20.9,0,0,0-1.438,2.323,75.869,75.869,0,0,1-4.578,6.553,20.279,20.279,0,0,1-2.826,3.205c-1.055.932-2.229,1.7-3.251,2.677-1.081,1.031-2.351,1.658-3.518,2.572a8.754,8.754,0,0,1-1.411,1.011c-.637.322-1.434.467-1.847,1.115a.121.121,0,0,1-.21-.119c.408-.725,1.2-.9,1.89-1.282,1.134-.629,2.16-1.613,3.264-2.325s1.922-1.743,2.94-2.549a23.071,23.071,0,0,0,3.146-2.8,78.943,78.943,0,0,0,4.921-6.81c.779-1.108,1.349-2.346,2.143-3.436.777-1.068,1.43-2.127,2.1-3.264.61-1.032,1.456-1.879,2.057-2.927.715-1.242,1.539-2.4,2.308-3.6,1.387-2.169,3.4-4,4.982-6.035.843-1.085,1.839-2.1,2.569-3.263.613-.972,1.44-1.77,2.007-2.766.613-1.078,1.157-2.183,1.8-3.246a13.348,13.348,0,0,0,1.853-4.034c.609-2.791.9-5.707,2.343-8.231.362-.636.769-1.243,1.158-1.86.378-.6.676-1.331,1.111-1.886.3-.378.639-.781.963-1.121a1.526,1.526,0,0,1,.164-.144,6.182,6.182,0,0,1-.587-.945c-.1-.185-.21-.36-.316-.54,0,2.389-4.908,1.849-6.164.281-.558-.7-.8-2.1-1.494-2.63a2.7,2.7,0,0,0-2.559-.125c-.327.138-.567.428-.922.54-1.3.413-2.334-.583-2.841-1.7a15.631,15.631,0,0,0-1.349-3.055,10.784,10.784,0,0,0-3.34-2.8c-1.994-1.224-2.572-3.606-4.658-4.77-4.249-2.368-6.368,3.94-6.682,7a19.664,19.664,0,0,1-.257,3.1c-.324,1.224-1.12,2.19-.929,3.534.027.2-.283.228-.334.047a4.164,4.164,0,0,1,.06-2.159,20.583,20.583,0,0,0,.436-3.89,12.345,12.345,0,0,1,1.725-6.569c.92-1.316,2.666-2.8,4.381-2.683,2.089.136,3.7,1.961,4.888,3.488,1.438,1.853,3.655,2.612,5.2,4.381a8.1,8.1,0,0,1,1.487,2.447,7.283,7.283,0,0,0,.62,1.78c1.177,1.41,1.288.514,2.077.136,1.321-.632,2.5-1.011,3.655.2a10.257,10.257,0,0,1,1.223,2.068,3.031,3.031,0,0,0,2.011,1.741,2.8,2.8,0,0,0,3.276-1.145c-.449-.68-.93-1.332-1.454-1.994-.929-1.174-2.844-2.354-3.177-3.856-.068-.3.342-.622.568-.332,1.056,1.344,2.592,2.242,3.692,3.622a21.505,21.505,0,0,1,1.56,2.083c.182.3.3.673.51.952.174.233,1.967,1.875,2.1.962l0-.019a1.026,1.026,0,0,0,0-.221.15.15,0,0,1,.115-.146c.393-1.025,1.2-1.619.957-3.082-.748-4.447-6.788-5.561-8.2-9.516-.111-.307.4-.53.531-.225.693,1.621,2.752,2.874,4.049,3.988a20.735,20.735,0,0,1,3.215,3.151,5.853,5.853,0,0,1,1.309,3.314,10.138,10.138,0,0,1-.288,1.555c-.155,1.6-1.091-.817.218,1.691q.217,1.662,1.679.965l1.064-.455c1.513-1,1.565-3.046,3.316-3.84,1.5-.68,3.026.2,4.546-.286.8-.255,1.316-1.124,2.155-1.217,2.272-.253,1.737,2.34,4.529.03a3.072,3.072,0,0,1,2.535-.983,3.377,3.377,0,0,0,3.372-1.484,4.463,4.463,0,0,0,.955-3.093c-.5-4.044-6.349-3.332-6.936-6.952a7.432,7.432,0,0,1,.152-1.641c.078-1.49-.7-2.066-1.856-2.676a18.238,18.238,0,0,0-7.213-1.593,9.461,9.461,0,0,0-6.236,1.265,11.1,11.1,0,0,1-4.575,2.025,16.727,16.727,0,0,1-10.354-1.751,25.613,25.613,0,0,0-9.085-2.564.093.093,0,0,1-.106-.01,37.056,37.056,0,0,0-3.792-.2,9.868,9.868,0,0,0-5.687,1.73c-1.964,1.278-4.48,3.113-5.414,5.32-.735,1.737-2.031,3.762-2.368,5.588-.366,1.981.043,3.759-.616,5.725-.65,1.938-.343,3.574-.6,5.529a26.8,26.8,0,0,1-1.421,4.856c-.675,1.969-.376,3.146.1,5.087a6.674,6.674,0,0,1-.431,4.344c-1.471,3.35-4.714,6.366-7.793,8.242-3.541,2.157-9.18,4.517-10.315,8.786a27.591,27.591,0,0,0-.551,7.3c0,1.6-.752,2.617-1.59,3.945-.939,1.489-1.717,3.465-3.049,4.638-.709.626-1.59,1.107-2.33,1.724a5.185,5.185,0,0,1-1.615.969c-2.226.812-4.19,1.977-6.465,2.762-2.259.778-4.458,1.721-6.724,2.491-1.435.487-2.887.93-4.357,1.3-1.318.853-2.717,1.405-3.84.942a14.79,14.79,0,0,1-4.1.607c-1.379.165-2.829.471-4.276.67.757.131,1.519.241,2.274.357a17.354,17.354,0,0,0,3.762.02c1.161-.069,2.315.05,3.477.022,1.062-.027,2.054-.412,3.112-.477.949-.06,1.827-.293,2.762-.412a3.37,3.37,0,0,1,2.218.574q3.314,1.865,6.61,3.761,3.2,1.832,6.395,3.678a26.512,26.512,0,0,0,7.15,2.852c2.234.543,4.578,1.388,6.9,1.266a10.642,10.642,0,0,0,3.1-1.067,7.053,7.053,0,0,0,1.771-.775,12.435,12.435,0,0,1,1.5-.924c.148-.072.279.146.129.223-.858.434-1.56,1.134-2.45,1.506-.461.194-.94.273-1.387.51a11.552,11.552,0,0,1-1.062.6c-1.753.7-3.929.225-5.693-.178a53.04,53.04,0,0,1-6.771-1.789,49.137,49.137,0,0,1-6.494-3.36q-3.471-1.927-6.925-3.886c-1.166-.656-2.318-1.374-3.511-1.978-1.072-.541-1.972-.043-3.066.092-1.065.133-2.087.243-3.146.434a18.685,18.685,0,0,1-3.459.042c-1.117-.009-2.225.168-3.339.151a23.49,23.49,0,0,1-3.419-.462,24.063,24.063,0,0,1-2.723-.59,10.681,10.681,0,0,1-1.55-.09,34.53,34.53,0,0,1-7.971-2.452c-.32-.135-.62-.284-.911-.438a.586.586,0,0,1-.623-.336,6.443,6.443,0,0,0-2.813-.96,6.316,6.316,0,0,1-1.566-.167,3.425,3.425,0,0,1-.612-.324,4.351,4.351,0,0,1,1,1.585,4.721,4.721,0,0,1-.81,2.686c-.149.334-.289.657-.411.98a1.019,1.019,0,0,1,.086,1.068m30.388-14.653a10.417,10.417,0,0,0,.619-2.8l.017-.142c-5.473-1.458-11.8-2.02-16.144,2.412-.366.373-.822.857-1.339,1.368a38.476,38.476,0,0,1,3.488-2.014c1.908-.912,4.081-1.967,6.231-1.735a14.915,14.915,0,0,1,7.128,2.914m-9.371-.894a28.63,28.63,0,0,0-6.383,3.188c-2.153,1.322-5.093,3.016-7.67,2.587-.181,1.285-.277,2.587-.383,3.81.1.057.208.113.314.165a33.677,33.677,0,0,0,4.54,1.56,17.519,17.519,0,0,0,3.825,1.046,28.274,28.274,0,0,0,4.133-.2c.881-.06,1.754-.174,2.631-.245a.668.668,0,0,1,.553-.8,7.043,7.043,0,0,0,4.308-2.282,9.054,9.054,0,0,0,1.236-2.779c.316-.855.848-1.583,1.181-2.426.215-.543.362-1.064.57-1.585-2.786-1.316-5.663-3.039-8.855-2.047m-30.9-30.182a18.106,18.106,0,0,0,.652-1.708c-.113-.247-.221-.5-.317-.748-.159.8-.25,1.631-.334,2.456M98.412,67.7a19.589,19.589,0,0,0-3.317-3.068,6.125,6.125,0,0,1-1.918-1.852c-1.1-.411-2.2-.817-3.312-1.21-2.358-.834-4.69-1.74-7.035-2.6.726.534,1.456,1.064,2.211,1.522a24.259,24.259,0,0,1,2.9,2.109,31.923,31.923,0,0,0,3.827,2.409,20.06,20.06,0,0,1,2.2,1.817c.936.784,2.037,1.3,2.958,2.1a27.2,27.2,0,0,0,2.828,2.153c.8.537,1.447,1.207,2.165,1.794a17.432,17.432,0,0,0-3.511-5.18m118.537,74.9a14.609,14.609,0,0,0,3.975-.5,21.489,21.489,0,0,1-5.6-.6,19.43,19.43,0,0,1-3.7-1.186c-.492-.237-.945-.5-1.39-.756a16.246,16.246,0,0,1,2.015,1.944.491.491,0,0,1,.711.55c-.212,1.031,3.439.566,3.983.551m-19.012-9.7c1.171.234,2.146.9,3.289,1.249a26.934,26.934,0,0,1,4.681,1.418c1.091.557,2.14.771,3.251,1.232a15.842,15.842,0,0,1,2.337,1.312,34.385,34.385,0,0,1-7.456-6.668c-1.46-1.7-3.1-3.207-4.592-4.863-1.565-1.743-2.743-3.838-4.276-5.636-3.227-3.785-6.343-7.813-9.995-11.2-3.482-3.231-7.177-6.218-10.644-9.47a141.817,141.817,0,0,0-11.206-9.86c-1.807-1.369-3.637-2.707-5.4-4.13-1.9-1.529-4.008-2.65-5.923-4.124-1.817-1.4-3.749-2.509-5.592-3.851a52.928,52.928,0,0,0-6.355-4.319c-1.826-.969-3.719-1.628-5.61-2.442-2.165-.93-4.13-2.267-6.284-3.221q.377.222.761.441c1.8,1.019,3.6,2.024,5.43,2.98a36.126,36.126,0,0,1,4.427,3.218,48.908,48.908,0,0,0,4.7,2.671c1.634.927,2.76,2.4,4.367,3.324,3.389,1.954,5.753,5.048,9.3,6.784a15.649,15.649,0,0,1,3.949,2.691c.777.728,1.483,1.552,2.321,2.211.791.62,1.714,1,2.513,1.616,3.148,2.42,6.05,5.271,9.1,7.829a31.834,31.834,0,0,1,3.955,3.511c.333.392.593.83.9,1.237.645.841,1.53,1.359,2.193,2.172,2.432,2.984,5.007,5.921,7.278,9.052,1.239,1.708,2.017,3.718,3.346,5.359.93,1.145,2.136,2.024,2.594,3.475.059.189-.234.27-.3.082-.527-1.573-2.027-2.463-3.024-3.709-1.135-1.418-1.932-3.068-3.029-4.513-2.189-2.89-4.932-5.359-7.121-8.219-.79-1.032-1.774-1.73-2.6-2.7a29.106,29.106,0,0,0-3.919-3.983c-3.027-2.456-6.095-4.935-8.961-7.579-1.339-1.236-2.993-1.915-4.311-3.146a22.332,22.332,0,0,0-4.883-3.963,21.024,21.024,0,0,1-4.065-2.354c-1.645-1.378-2.976-3.171-4.863-4.239a17.08,17.08,0,0,1-3.464-2.48c-1.578-1.443-3.666-2.143-5.466-3.247a34.479,34.479,0,0,1-3.391-2.605,40.275,40.275,0,0,0-5.46-3.129c-3.8-2.153-7.5-4.9-11.68-6.223-2-.633-3.6-1.949-5.555-2.661a23.233,23.233,0,0,1-4.123-1.906c-3.04-.907-6.152-1.632-9.184-2.456-4.677-1.269-9.378-2.4-14.093-3.515-4.918-1.161-9.75-2.514-14.818-2.746s-10.161-.577-15.24-.9c-4.826-.309-9.695-.533-14.5-1.16-1.834-.238-3.185-1.213-4.909-1.756a25.77,25.77,0,0,1-5.753-2.565c-2.279-1.354-4.236-3.1-6.484-4.461-1.832-1.11-3.3-2.417-5.036-3.647C15,34.225,12.532,29.73,8.942,26.371a16.013,16.013,0,0,1-1.8-1.982,36.765,36.765,0,0,0,4.748,8.993c.945,1.253,1.55,2.683,2.4,3.991,1.207,1.85,3.141,3.126,4.659,4.705,2.97,3.092,6.748,4.726,10.418,6.84,4.141,2.383,8.37,5.481,12.873,7.123A29.777,29.777,0,0,0,54.385,57.7a19.381,19.381,0,0,1,4.868.039c2.18.372,4.313.168,6.48.477a108.008,108.008,0,0,1,12.523,3.037c4.487,1.2,8.323,3.8,12.3,6.119,1.1.64,2.262,1.233,3.372,1.9-.759-.606-1.516-1.214-2.261-1.845-1.09-.917-2.422-1.364-3.576-2.175s-2.163-1.853-3.35-2.643a61.247,61.247,0,0,1-6.981-4.988.643.643,0,0,1-.212-.426c-.817-.244-1.636-.479-2.466-.686-.606-.152-.355-.989.23-.916,4.947.629,9.544,2.46,14.231,4.071,4.572,1.569,9.039,3.121,13.5,4.992,2.383,1,4.806,1.766,7.236,2.627,2.521.891,4.822,2.3,7.311,3.271a84.426,84.426,0,0,1,12.587,6.355c1.9,1.148,3.626,2.551,5.453,3.8,2.087,1.43,4.334,2.6,6.395,4.059,1.911,1.359,3.9,2.556,5.831,3.873,2.02,1.374,3.758,3.112,5.643,4.657,3.868,3.171,6.866,6.981,10.044,10.822,3.027,3.66,6.014,7.367,8.679,11.3,3.076,4.546,5.529,9.47,8.712,13.951a33.713,33.713,0,0,1,3.053,4.674,4.21,4.21,0,0,1,.967-1.448c1.968-1.876,5.1-.98,7.348-.174.034.013.067.022.1.033,1.777-.8,3.744.082,5.531.438m13.922,13.093c.03-.231.07-.489.131-.749a12.764,12.764,0,0,0-2.933-3.7,29.828,29.828,0,0,0-8.5-4.779c.267.248.543.5.855.736a4.154,4.154,0,0,1,1.16.969,4.03,4.03,0,0,0,1.454,1.444.157.157,0,0,1-.155.273,6.5,6.5,0,0,1-1.555-.988c-.033-.032-.034-.095-.059-.121A13.288,13.288,0,0,0,201.036,138c-.675-.571-1.338-1.171-2-1.768-.1-.032-.2-.067-.291-.1a18.594,18.594,0,0,0-3.445-.623c.751.366,1.484.679,1.756.873,1.54,1.1,2.269,3.116,3.581,4.451.238.243-.113.581-.367.369-1.214-1.015-1.889-2.383-3-3.475a9.636,9.636,0,0,0-2.6-1.547,7.889,7.889,0,0,1-1.863-1.117c-.55-.168-1.091-.367-1.635-.561a9.461,9.461,0,0,1,1.381,1.443,22.624,22.624,0,0,0,5.914,5.964c.187.121.023.418-.172.3a22.537,22.537,0,0,1-5.509-4.557,16.142,16.142,0,0,0-2.584-2.617,4.871,4.871,0,0,1-.978-1.1,5.652,5.652,0,0,0-1.394-.144c.3.421.574.858.706,1.055.792,1.189,1.234,2.551,1.969,3.769a36.631,36.631,0,0,0,2.923,3.484,30.258,30.258,0,0,0,2.865,3.741c.172.161-.079.406-.254.257a21.346,21.346,0,0,1-2.584-3c-.945-1.158-2.13-2.1-3.068-3.251a18.628,18.628,0,0,1-1.826-3.131,13.4,13.4,0,0,0-1.823-2.585,1.968,1.968,0,0,0-.557.6,4.961,4.961,0,0,0,.172.83.318.318,0,0,1,.08.01l.478.131a.622.622,0,0,1,.445.745q-.136.439-.271.868c.8,1.562,1.846,3.112,2.02,4.537a11.663,11.663,0,0,0,.3,2.835,10.63,10.63,0,0,1,.567,1.715,16.9,16.9,0,0,0,.263,2.442c.228.767.678,1.5.955,2.265.083.231-.281.327-.369.1-.336-.873-.866-1.664-1.127-2.562-.253-.863-.149-1.809-.423-2.661a16.975,16.975,0,0,1-.943-2.192c-.241-1.375-.126-2.338-.854-3.68-.245-.454-.528-.949-.812-1.467a18.978,18.978,0,0,0-.9,4.24c-.175,2.264.84,3.9,1.423,6,.557,2.012.728,4.1,1.292,6.121.5,1.81,1.562,3.438,1.915,5.272.036.184-.245.264-.284.079-.416-2.02-1.674-3.975-2.3-5.971-.752-2.4-1.094-4.82-2.139-7.131a10.294,10.294,0,0,1-1.028-3.731,45.226,45.226,0,0,0,1.3,19.053,42.173,42.173,0,0,0,2.413,5.15,41.182,41.182,0,0,1,1.658,4.8c.6,1.893,1.613,3.548,2.364,5.373a42.7,42.7,0,0,0,1.613,4.134,2.8,2.8,0,0,0,.178-2.572c-.446-.8-1-1.166-.894-2.179a.885.885,0,0,1,.606-.807c.752-.3,1.133-.009,1.846.225.148.047.3.088.444.123a12.591,12.591,0,0,1,1.338-8.228,26.542,26.542,0,0,1,2.554-4.322,20.425,20.425,0,0,1,3.709-2.908c1.777-1.3,3.834-2.918,2.584-5.34a5.247,5.247,0,0,1-1.029-2.628c.034-1.654,1.3-3.274,1.784-4.806a23.649,23.649,0,0,1,1.961-4.912.171.171,0,0,1,.3.168A56.384,56.384,0,0,0,207.4,149.5c-.728,2.07-2.1,3.669-.752,5.857.976,1.58,1.19,2.819.009,4.369-1.883,2.476-5.1,3.441-6.678,6.205-1.992,3.5-3.412,7.038-2.6,11.109a11.518,11.518,0,0,1,1.926.347,4.779,4.779,0,0,1,.827.349,24.134,24.134,0,0,1,.278-3.528,4.872,4.872,0,0,1-.815-.676.486.486,0,0,1,.458-.808c.205.042.406.079.606.112.121-.589.256-1.166.406-1.714a15.115,15.115,0,0,1,3.692-7c2.274-2.192,4.425-5.5,4.46-8.709.029-2.816.1-5.551,2.225-7.615l.017-.013a10.728,10.728,0,0,0,.4-1.79m8.687,11.251a17.5,17.5,0,0,0-3.343-4.113,6.364,6.364,0,0,1-2.529-2.812,18.078,18.078,0,0,0-1.089-2.182,11.812,11.812,0,0,1-1.853,3.24,12.613,12.613,0,0,0-.355,2.051c-.089,1.173.032,2.353-.1,3.524-.291,2.531-2.081,5.092-3.614,7.062-.726.932-1.763,1.575-2.489,2.488a20.87,20.87,0,0,0-1.942,4.147,11.861,11.861,0,0,0-.642,1.875,3.048,3.048,0,0,0,2.828-.606,19.014,19.014,0,0,0,2.854-1.982,16.627,16.627,0,0,1,5.591-4.008,14.774,14.774,0,0,1,6.649-.838,20,20,0,0,1,2.795.454c.535.122,1.946.731,2.961.926a14.585,14.585,0,0,1,.465-2.417.741.741,0,0,1-.19-.059c-2.618-1.295-4.359-4.431-5.993-6.749m40.6-52.741c-.726-3.668-1.44-7.15-3.919-10.037a10.516,10.516,0,0,1-2.191-2.984,18.658,18.658,0,0,1-.413-3.306,26.628,26.628,0,0,0-1.753-4.2,8.121,8.121,0,0,0-2.933-3.864c-2.453,3.349-1.048,8.023-.791,11.883.121,1.817.261,3.614.472,5.423a10.258,10.258,0,0,1-.782,4.7c-1.25,3.649-2.236,7.539-4.479,10.74-1.069,1.524-2.2,2.9-3.164,4.51a18.983,18.983,0,0,1-3.359,3.947,10.593,10.593,0,0,0-3.416,5.321c-.422,1.908-.271,3.837-.833,5.733-1.1,3.7-2.986,7.167-3.312,11.086-.151,1.813.456,3.554.395,5.361a47.42,47.42,0,0,0-.309,6.208,12.545,12.545,0,0,1-.185,4.517c-.5,1.913-1.555,3.725-1.952,5.656-.32,1.56-.066,3.449-.686,4.988-.824,2.046-2.047,3.97-2.788,6.059a7.667,7.667,0,0,1-3.922,4.654c.4-.03.8-.066,1.2-.109a3.272,3.272,0,0,0,1.009-.5c.171-.126.432.126.3.3-.007.01-.017.019-.024.03.234-.04.468-.08.7-.129s.446-.108.67-.158a26.877,26.877,0,0,0,3.02-2.565,21.417,21.417,0,0,0,3.751-4.632A36.345,36.345,0,0,1,234.4,168.9a36.808,36.808,0,0,0,3.38-5.561c.468-.812.937-1.618,1.388-2.426a.225.225,0,0,1,.181-.327q.2-.37.4-.742c-.066-.419-.171-.844-.179-.9a2.569,2.569,0,0,1,.07-1.035,23.345,23.345,0,0,0,.678-3.85c.1-1.448.248-2.406-.955-3.472a3.2,3.2,0,0,1-1.164-2.4c-.184-2.651.233-5.311-.1-7.949a13.421,13.421,0,0,1-.2-3.48,11.024,11.024,0,0,1,1.28-3.378,27.8,27.8,0,0,0,1.421-4.123,14.594,14.594,0,0,0,.949-4.751c-.092-2.341,1.773-3.811,3.23-5.386a25.471,25.471,0,0,0,4.856-8.016c.442-1.16.741-2.38,1.118-3.561a20.341,20.341,0,0,0,.775-4.436c.142-1.484.375-2.961.581-4.438.21-1.5.287-3.019.489-4.52a7.134,7.134,0,0,0,.118-2.638c-.123-.537-.267-1.041-.34-1.586a8.926,8.926,0,0,0-.558-2.017,7.092,7.092,0,0,1-.316-1.856c-.006-.056.08-.056.088,0a8.256,8.256,0,0,0,.695,2.353,5.062,5.062,0,0,1,.322,1.23,13.219,13.219,0,0,1,.464,3.547q-.5,4.319-1.026,8.634c-.169,1.359-.141,2.753-.426,4.094-.313,1.47-.84,2.923-1.269,4.362a25.7,25.7,0,0,1-3.914,7.627c-.9,1.2-2,2.2-2.97,3.333a6.608,6.608,0,0,0-1.061,1.649,5.255,5.255,0,0,0-.245,2.267,15.139,15.139,0,0,1-.874,3.863,30.975,30.975,0,0,1-1.5,4.484,9.381,9.381,0,0,0-1.331,4.278c.029,1.412.379,2.8.421,4.21.04,1.372-.083,2.76-.067,4.137.007.685-.039,1.375.009,2.058a2.9,2.9,0,0,0,1.242,2.2,3.174,3.174,0,0,1,.949,2.835,23.313,23.313,0,0,1-.491,3.9c-.082.32-.217.624-.291.945a1.874,1.874,0,0,0,0,.88,16.686,16.686,0,0,0,2.027-8.046c-.109-3.449-.622-6.749,1.034-9.93,1.948-3.744,5.371-6.54,7.743-10.005,1.72-2.513,3.58-4.9,5.324-7.385.168-.662.337-1.319.535-1.959.64-2.061,1.285-4.071,1.737-6.185.429-2,1.2-3.937,1.239-6.006a23.941,23.941,0,0,1,.4-2.618c.072-.57.047-1.143.1-1.713a7.87,7.87,0,0,0,.142-1.444.1.1,0,0,1,.2-.029,10.21,10.21,0,0,1-.032,2.637c-.036,1.078-.419,2.079-.441,3.161a29.95,29.95,0,0,1-1.209,5.92c-.485,2.173-1.122,4.24-1.793,6.365-.108.339-.205.683-.3,1.029.487-.712.965-1.433,1.421-2.172a52.072,52.072,0,0,0,2.726-4.563c.943-1.952.619-4.258,1.067-6.358-.663-1.57-.7-3.613-1-5.127m32.607-61.394a6.648,6.648,0,0,0-.491,2.536,28.683,28.683,0,0,1-1.552,5.459c-.573,1.6-.53,3.4-1.339,4.9a30.864,30.864,0,0,1-3.676,4.7c-2.6,3.126-5.485,5.779-8.3,8.673a18.875,18.875,0,0,0-4.947,11.6A89.378,89.378,0,0,1,271.865,93a37.042,37.042,0,0,1-4.829,11.14,23.1,23.1,0,0,0-2.881,5.845c-.485,1.932-.164,4.019-.837,5.9-1.214,3.389-3.791,6.518-5.736,9.513a101.837,101.837,0,0,1-7.342,9.915c-2.488,2.961-5.849,5.75-6.237,9.856-.4,4.187.655,7.971-.952,12.042a41.152,41.152,0,0,1-3.184,6.006,58.446,58.446,0,0,1-3.5,5.9c-1.1,1.411-2.335,2.732-3.393,4.189a29.6,29.6,0,0,1-3.6,4.47c-.508.475-1.255,1.186-2.109,1.879,1.295-.385,2.577-.815,3.847-1.27,2.147-.772,4.25-1.655,6.388-2.452a15.367,15.367,0,0,0,3.1-1.6c1.124-.726,2.463-.911,3.53-1.679a11.523,11.523,0,0,0,3.9-4.324c.886-1.76,2.353-3.65,2.182-5.683-.323-3.837-.392-9.048,2.848-11.772,3.445-2.9,7.767-4.626,11.149-7.552a17.083,17.083,0,0,0,4.632-5.661c.942-2.222-.165-3.613-.286-5.772a12.422,12.422,0,0,1,1.094-4.6,14.64,14.64,0,0,0,1.131-3.724c.053-.975-.179-1.928-.045-2.911.291-2.11,1.144-3.791,1.14-5.98a10.909,10.909,0,0,1,1.573-5.439c1.018-1.959,1.164-3.646,2.845-5.172a31.79,31.79,0,0,1,4.859-3.83,11.043,11.043,0,0,1,4.769-1.5c-.043-.093-.088-.187-.123-.284-.214-.587-.287-1.219-.455-1.82-.386-1.381-1.077-2.653-1.49-4.025-.023-.079.1-.135.135-.057a37.525,37.525,0,0,1,1.547,3.857c.2.652.264,1.341.491,1.982a3.5,3.5,0,0,0,.139.327,22.676,22.676,0,0,1,4.14.123,4.29,4.29,0,0,0-.356-.713,6.253,6.253,0,0,1-.787-1.687c-.458-1.526-1.26-2.868-1.8-4.359-.554-1.537-1.166-3.053-1.678-4.6-.434-1.312-1.394-2.357-1.758-3.682-.022-.078.1-.133.135-.056.543,1.143,1.435,2.06,1.868,3.26.577,1.6,1.14,3.2,1.728,4.8.573,1.555,1.355,2.966,1.84,4.553a13.814,13.814,0,0,0,.962,2.015,3.864,3.864,0,0,1,.2.515c.429.049.858.1,1.29.159,1.252.165,2.558.347,3.835.619a19.352,19.352,0,0,1-.841-1.8A22.7,22.7,0,0,1,293.8,95.5c-.8-1.961-1.441-3.979-2.379-5.882a50.519,50.519,0,0,0-3.059-4.777c-.976-1.53-2.219-2.882-2.722-4.667-.023-.082.106-.142.144-.06a34.179,34.179,0,0,0,2.869,4.557,45.8,45.8,0,0,1,3.057,4.779c.792,1.636,1.379,3.355,2.014,5.054a23.417,23.417,0,0,0,1.257,2.927,18.613,18.613,0,0,0,1.046,2.244c.007.01,0,.022.006.032q.719.159,1.418.369a3.222,3.222,0,0,1-.142-.665,3.312,3.312,0,0,1,.082-.769c-.046.06-.1.118-.141.181-.089.122-.287.019-.21-.119.11-.194.237-.383.369-.57-.021-.343-.09-.685-.093-1.028a15.1,15.1,0,0,1,.444-3.451.114.114,0,0,1-.059-.152,1.05,1.05,0,0,0,.09-.276c-.182.144-.369.284-.564.412-.144.093-.271-.134-.132-.228a7.077,7.077,0,0,0,.711-.583,9.714,9.714,0,0,0-.294-1.051c-.132-.54-.155-1.1-.27-1.641-.228-1.077-.62-2.119-.886-3.185a40.847,40.847,0,0,1-1.245-5.845c-.108-1.082-.416-2.132-.508-3.213a19.34,19.34,0,0,0-.378-3.313,7.8,7.8,0,0,1-.369-2.552c.072-.909.584-1.738.474-2.664-.017-.141.2-.159.235-.033a4.822,4.822,0,0,1-.233,2.318,8.91,8.91,0,0,0,.488,3.432,26.823,26.823,0,0,1,.251,2.98c.145,1.278.434,2.528.558,3.815a21.122,21.122,0,0,0,.787,3.424c.3,1.1.534,2.2.85,3.3.333,1.151.395,2.367.742,3.5q.047.153.086.289a29.6,29.6,0,0,1,1.707-4.612,10.423,10.423,0,0,0,1.173-5.825,16.243,16.243,0,0,1-.169-1.975,19.561,19.561,0,0,0-.541-2.9,12.209,12.209,0,0,1,.152-4.822c.118-.6.224-1.207.326-1.819A7.885,7.885,0,0,0,300.3,68.7c-.24-.548-.442-1.108-.678-1.659a16.131,16.131,0,0,1-1.051-3.629c-.436-2.486-.844-5.245-2.611-7.192-.067-.075.02-.21.112-.149,1.856,1.234,2.379,4.382,2.7,6.395a20.037,20.037,0,0,0,1.115,4.42c.264.656.563,1.322.781,1.99a4.836,4.836,0,0,1,.182.893c.149-.965.277-1.934.367-2.891a12.7,12.7,0,0,0,.08-2.19,15.5,15.5,0,0,0-.764-2.874,36.458,36.458,0,0,1-1.048-5.905,59.835,59.835,0,0,0-1.484-6.372.165.165,0,0,1,.317-.088,32.52,32.52,0,0,1,1.632,5.456c.307,1.9.431,3.8.879,5.676.375,1.572,1.082,3.085,1.077,4.721a28.689,28.689,0,0,1-.593,4.786A23.83,23.83,0,0,0,300.673,76a11.12,11.12,0,0,0,.316,1.675,6.786,6.786,0,0,1,.531-.957,7.761,7.761,0,0,0,1.09-2.281c.211-.708.624-1.29.884-1.994a15.752,15.752,0,0,1,.877-1.945c.823-1.569,1.582-3.191,2.357-4.781a8.926,8.926,0,0,0,.814-4.616c0-.111.169-.167.215-.06,1.193,2.7-1.217,5.937-2.3,8.26-.736,1.576-1.5,3.157-2.282,4.687a18.985,18.985,0,0,1-.8,2.074,12.253,12.253,0,0,0-1.313,1.908c.062.258.121.517.169.777.154.824.1,1.649.194,2.478a9.307,9.307,0,0,1,.207,2.228,18,18,0,0,1-.646,2.577,9.978,9.978,0,0,1-.748,1.99,20.14,20.14,0,0,0-1.1,2.8c-.149.428-.294.857-.432,1.289.547-.389,1.029-.88,1.566-1.285q2.089-1.565,4.187-3.119a33.175,33.175,0,0,0,3.83-3.479c1.193-1.211,2.7-2.216,3.64-3.65.057-.088.224-.039.182.07-.541,1.387-1.955,2.3-2.989,3.3a51.189,51.189,0,0,1-3.959,3.713c-1.425,1.111-2.917,2.153-4.375,3.224-.7.518-1.355,1.11-2.064,1.619-.063.044-.123.095-.185.141a18.641,18.641,0,0,0-.833,4.158,6.44,6.44,0,0,0,.024.913,11.175,11.175,0,0,1,1.945-1.84,39.424,39.424,0,0,0,3.685-3.24,18.1,18.1,0,0,1,1.4-1.414,16.075,16.075,0,0,1,1.685-1.008,13.714,13.714,0,0,1,3.725-1.879c.123-.03.218.157.09.217a37.571,37.571,0,0,0-3.458,1.935c-.522.316-1.09.574-1.593.92a15.273,15.273,0,0,0-1.7,1.651c-.909.855-1.8,1.784-2.79,2.546a19.9,19.9,0,0,0-2.967,2.6,10.6,10.6,0,0,0-.1,1.411c.029.207.072.386.111.556.294.093.586.194.871.306,2.234.867,4.038,2.228,6.445,2.717a12.118,12.118,0,0,0,7.07-.306c1.845-.785,3.169-2.193,5.211-2.558.182-.032.37-.059.558-.085,1.606-2.892-.266-7.873-1.278-10.637-.613-1.675-1.763-2.9-2.03-4.717a11.3,11.3,0,0,1,.293-4.236c.444-1.842,1.619-3.323,2.123-5.12a17.34,17.34,0,0,0,.144-6.468c-.553-4.787-3.155-7.906-7.285-10.16a55.4,55.4,0,0,1-4.984-3.346,12.271,12.271,0,0,1-3.281-3.047c-.985-1.427-.834-3.125-1.662-4.559-.867-1.5-3.092-2.522-4.292-3.844-.512-.566-1.2-1.923-1.915-1" transform="translate(-0.001 0)" fill="#424b60"/>
    </g>
  </g>
</svg>
