<svg xmlns="http://www.w3.org/2000/svg" xmlns:xlink="http://www.w3.org/1999/xlink" width="364.181" height="411.798" viewBox="0 0 364.181 411.798">
  <defs>
    <clipPath id="clip-path">
      <rect id="Rectangle_3347" data-name="Rectangle 3347" width="229.305" height="344.467" fill="none"/>
    </clipPath>
  </defs>
  <g id="Group_6704" data-name="Group 6704" transform="matrix(-0.883, -0.469, 0.469, -0.883, 202.464, 411.798)">
    <g id="Group_6703" data-name="Group 6703" clip-path="url(#clip-path)">
      <path id="Path_65617" data-name="Path 65617" d="M229.062,208.538c.71-1.84-.177-2.844-2-2.579-1.369.2-2.662.676-4.046.855-.782.1-1.573.1-2.354.206-.725.1-1.4.421-2.121.48-1.605.127-3.49-.7-5.034-1.112-1.441-.38-2.878-.784-4.284-1.279-2.863-1.009-5.232-2.1-8.348-1.965-2.868.123-5.228,1.2-7.865,2.183a28.855,28.855,0,0,1-9.925,2.035c-2.508-.029-5.185-.686-7.723-.5.449-.25.909-.468,1.289-.674a21.75,21.75,0,0,0,2.765-1.888,17.148,17.148,0,0,0,2.682-2.256,11.348,11.348,0,0,0,1.526-2.766,4.946,4.946,0,0,1,1.1-1.849,10.915,10.915,0,0,1,1.506-.874,8.976,8.976,0,0,0,1.932-2.06c1.327-1.492,2.7-2.979,2.677-5.129a.652.652,0,0,0-.421-.647c-2.922-.86-5.117.541-7.542,2.013-1.386.84-2.827,1.577-4.223,2.4a9.451,9.451,0,0,1-3.964,1.567c-2.969.357-6.1.987-9.056.265a37.31,37.31,0,0,0-3.841-.593,25.532,25.532,0,0,1-3.961-1.281,8.029,8.029,0,0,0-3.371-.352,27.28,27.28,0,0,0-3.669,1.146,26.377,26.377,0,0,1-4.363.48,30.063,30.063,0,0,0-3.99.689,9.292,9.292,0,0,0-2.989,1.271,17.549,17.549,0,0,1-3.866,1.795c-1.279.465-2.335,1.286-3.571,1.827a11.25,11.25,0,0,1-4.066.683c.774-3.033,3.437-5.387,4.5-8.319.328-.906.26-1.9.9-2.68.358-.433.828-.749,1.164-1.21.529-.725,1.1-1.5,1.622-2.288l.068-.029a.625.625,0,0,0,.066-.041,9.172,9.172,0,0,0,.5,1.119c1.051,2.028,1.925,4,4.118,5.022.428.2.857-.346.656-.733-.145-.275-.282-.548-.416-.82l0-.019a18.528,18.528,0,0,1-.3-10.153,19.282,19.282,0,0,1,1.56-3.99c.8-1.629,1.3-3.375,2.043-5.014.368-.818.96-1.526,1.369-2.325.47-.918.884-1.866,1.311-2.8.852-1.869,1.68-3.748,2.533-5.617,1.546-3.388,2.339-6.976,3.414-10.528,1.009-3.336,2.232-6.612,3.167-9.97.931-3.336,1.477-6.77,2.322-10.127.422-1.673.453-3.393.833-5.083.323-1.421.3-2.881.63-4.3a29.511,29.511,0,0,0,.683-9.107c-.135-1.763.135-3.522.13-5.286-.007-1.729-.233-3.447-.248-5.178a64.643,64.643,0,0,0-.328-9.725c-1.1-6.886-2.494-13.712-3.939-20.528a50.279,50.279,0,0,0-2.675-9.238c-1.4-3.346-2.726-6.727-4.074-10.094-.659-1.646-1.316-3.292-1.953-4.946a35.319,35.319,0,0,1-1.808-4.992c-.277-1.271-.162-2.646-.368-3.942a19.288,19.288,0,0,1,.277-5.428c.228-1.607.578-3.14.762-4.757a38.011,38.011,0,0,1,.857-3.77c.715-3.187,2.623-5.926,3.584-9.015a11.088,11.088,0,0,1,2.66-4.786c1.024-1.053,2.18-1.962,3.29-2.918,2.494-2.148,4.7-4.627,7.52-6.366.358-.221.091-.8-.292-.6a34.719,34.719,0,0,0-6.313,4.7.291.291,0,0,0-.188.069c-1.293,1.066-2.88,1.707-4.147,2.814-1.3,1.137-2.506,2.435-3.741,3.645a43.082,43.082,0,0,0-3.02,3.336c-1.071,1.293-1.629,2.847-2.6,4.2a27.821,27.821,0,0,0-3.255,7.266c-1,2.805-.764,6.056-1.017,8.987a73.371,73.371,0,0,0-.686,9.953,30.212,30.212,0,0,0,.99,4.806,13.3,13.3,0,0,0,1.225,3.527,22.5,22.5,0,0,1,2.124,4.49c.392,1.413,1.137,2.619,1.588,4a70.529,70.529,0,0,1,2.008,9.654c.588,3.317-.088,6.913-.3,10.256a31.314,31.314,0,0,1-.649,4.711,20.885,20.885,0,0,0-.218,4.149.425.425,0,0,0,.607.4c0,.22.008.443.03.673a.73.73,0,0,0,1.034.512,10.189,10.189,0,0,0,3.588-4.324,26.854,26.854,0,0,0,1.191-2.754c.1,1.587.2,3.175.292,4.774.118,1.975.487,3.929.446,5.911-.034,1.659.025,3.282.086,4.939a54.552,54.552,0,0,1-.537,9.764c-.248,1.678-.647,3.331-.88,5.014-.2,1.48-.275,2.966-.542,4.439-.331,1.825-.483,3.694-.845,5.506-.324,1.641-.877,3.234-1.274,4.858a51.914,51.914,0,0,1-3.855,9.453c-1.447,3.106-2.942,6.193-4.676,9.152-1.69,2.885-3.73,5.541-5.394,8.444-.742,1.3-1.325,2.705-2.107,3.976a8.6,8.6,0,0,1-1.894,2.291c-1.335.421-2.677.8-4.013,1.22-5.152,1.605-10.724,4.335-14.3,8.481a42.585,42.585,0,0,1-2.758,3.37,31.957,31.957,0,0,0-2.672,2.634c-1.046,1.256-2.129,2.4-3.241,3.589a5.056,5.056,0,0,0-1.22,1.959,4.631,4.631,0,0,0-1.752,1.043,10.214,10.214,0,0,1-2.849,1.507,4.837,4.837,0,0,0-.14-1.131,8.807,8.807,0,0,0-1.5-3.468c-1.065-1.158-2.9-1.147-3.944-2.227s-1.063-2.878-1.512-4.248a5.445,5.445,0,0,0-2.075-2.787c-.33-.247-.649-.477-.962-.706.074-.081.149-.164.228-.245a.049.049,0,0,0-.064-.074c-.1.076-.189.157-.277.237a10.531,10.531,0,0,1-2.7-2.629c-.537-.8-1.139-1.627-1.624-2.455-.433-.733-.6-1.565-.994-2.318a14.049,14.049,0,0,0-2.665-3.363c-.951-.967-1.536-1.627-3-1.644a3.014,3.014,0,0,0-2.481,1.088,7.639,7.639,0,0,0-1.763,3.319,10.24,10.24,0,0,1-.58,2.051c-.137.3-.289.563-.429.848-.414.835-.558.617-1.349.994a.609.609,0,0,0-.147-.269,33.268,33.268,0,0,0-6.773-5.835,20.386,20.386,0,0,0-3.657-1.757,8.055,8.055,0,0,1-3.679-2.56,25.378,25.378,0,0,0-2.78-2.417,17.7,17.7,0,0,1-2.765-3.386c-1.413-2.2-2.092-4.869-4.012-6.727-.629-.607-1.078-1.526-2-1.7a3.6,3.6,0,0,0-2.408.468c-1.087.688-1.323,1.888-2.934,1.512a13.4,13.4,0,0,1-2.8-1.174,13.182,13.182,0,0,1-2.214-1.281c-.429-.331-.681-.9-1.078-1.2a2.4,2.4,0,0,0-.568-.27A5.824,5.824,0,0,1,30.7,140.86a21.811,21.811,0,0,1-2.466-3.126A14.881,14.881,0,0,1,26.009,134c-.507-1.445-.906-3.779-2.749-4.1-1.377-.243-3.109,1.538-3.469,2.77a20.806,20.806,0,0,0-.314,3.555,11.9,11.9,0,0,0,.144,3.41c.492,2.716,1.281,5.4,1.981,8.066.738,2.82,1.142,5.629,1.7,8.478.581,2.951,1.918,5.641.83,8.649a7.767,7.767,0,0,0,.13,6.092,22.64,22.64,0,0,0,3.824,6.32,15.8,15.8,0,0,1,3.216,7.9c.188,1.408.125,2.8.228,4.211a26.839,26.839,0,0,0,.253,3.87,17.583,17.583,0,0,0,1.293,3.667,24.214,24.214,0,0,0,1.693,2.4,11.07,11.07,0,0,0,2.06,2.511c.916.806,1.974,1.382,2.814,2.275-1.043.561-2.462.725-3.37,1.761-1.154,1.318-1.379,3.576-1.825,5.21-.343,1.261-.809,2.792.515,3.53.955.532,2.046,1.034,3.043,1.48a23.784,23.784,0,0,0,3.648.771,12.234,12.234,0,0,1,3.834,1.891,13.146,13.146,0,0,1,2.609,2.912c.732.931,1.457,1.991,2.254,2.856a12.74,12.74,0,0,0,2.283,1.727,29.015,29.015,0,0,1-3.226.6c-.8.054-1.592.171-2.391.232-.879.069-1.717-.091-2.584-.049-1.717.084-3.491.213-5.2.416a31.44,31.44,0,0,0-4.7.837,7.837,7.837,0,0,0-2.481,1.629,13.106,13.106,0,0,0-2.521,2.984,13.962,13.962,0,0,0-2.05,4.122,30.241,30.241,0,0,1-1.229,4.439c-.591,1.313-1.923,2.32-2.31,3.675-.34,1.193.081,2.836-.747,3.888-1.68,2.133-5.509,2.313-7.839,3.392a5.1,5.1,0,0,0-2.5,2.075,3.2,3.2,0,0,0-.316,1,23.869,23.869,0,0,1-.438,2.55c-.431,1.69-.03,3.522-.6,5.186A8.95,8.95,0,0,1,9,266.537c-.913.872-1.867,1.7-2.705,2.641A29.254,29.254,0,0,1,3.127,272.6c-.784.64-2.165.929-2.741,1.778a3.871,3.871,0,0,0-.328,2.491.533.533,0,0,0,.357.412,27.126,27.126,0,0,0,5.059.811,19.222,19.222,0,0,0,2.356-.051c1.022-.081,1.974.073,2.989.042a20.456,20.456,0,0,0,4.909-1.117,12.954,12.954,0,0,1,5.915.216,42.7,42.7,0,0,0,5.041.539,9.815,9.815,0,0,0,4.182-.291,28.359,28.359,0,0,0,4.534-1.98c.618-.346,1.207-.559,1.857-.847.6-.265,1.281-.985,1.879-1.139l.015-.005.181.253a12.85,12.85,0,0,1,1.913,4.3,7.386,7.386,0,0,1,.3,2.751,6.4,6.4,0,0,0,.061,1.686,9.738,9.738,0,0,0,1.272,3.387,7.14,7.14,0,0,0,2.182,2.65c1.386.943,1.212,2.444,1.959,3.748.661,1.149,2.511,2.227,3.822,1.561,1.663-.845,1.127-3.682,1.208-5.164.357-6.641,5.419-11.491,6.607-17.857.581-3.111-1.543-7.591.88-10.1.059-.059.122-.117.181-.176a5.059,5.059,0,0,0,1.181-.443c.313-.161.595-.406.914-.548a4.186,4.186,0,0,1,1.752-.191,4.057,4.057,0,0,0,2.018-.6,2.71,2.71,0,0,1-.4,1.274,7.5,7.5,0,0,1-1.333,1.151,7.343,7.343,0,0,0-2.212,4.412,2.784,2.784,0,0,0,.182,1.736c.184.313.514.379.708.644.363.492.127,1.168.235,1.7a1,1,0,0,0,.542.777,9.676,9.676,0,0,0-1.141,2.76c-.461,2.106-.738,4.25-1.2,6.361-.858,3.941-1.381,7.74.4,11.5.414.872.857,1.727,1.338,2.562a8.35,8.35,0,0,1,.842,2.564,1.664,1.664,0,0,0,2.156,1.207c1.888-.328,2.155-1.97,3.211-3.253.894-1.088,1.534-2.332,2.312-3.495.11.306.232.612.372.921.6,1.327,1.1,3.493,2.852,3.387a.17.17,0,0,0,.078-.027c.945.172,1.732-.608,2.271-1.6.441-.811.815-1.5,1.834-1.585a2.913,2.913,0,0,1,2.481,1.374c.683.907,1.1,1.959,1.876,2.807a42.71,42.71,0,0,0,4.733,4.238,10.322,10.322,0,0,0,5.512,2.459,3.761,3.761,0,0,0,2.111-.38,11.129,11.129,0,0,0,1.705,3.037,6.232,6.232,0,0,0,3.089,2.754,7.847,7.847,0,0,0,1.81.221,4.185,4.185,0,0,1,2.817,1.161,12.046,12.046,0,0,1,2.722,4.436,38.455,38.455,0,0,0,2.646,4.917c.4.622,1.144,2.209,2.1,2.043.929-.161,1.482-1.842,1.825-2.562a5.678,5.678,0,0,0,.548-2.315c.1.213.193.422.287.644a8.2,8.2,0,0,0,2.227,2.923c2.249,2.09,2.994,4.912,3.792,7.768.385,1.386.928,2.682,1.239,4.093a21.1,21.1,0,0,0,1.2,3.447c.994,2.438,2.961,4.461,4.509,6.575.83,1.134,2.232,3.2,3.875,3.1,3.2-.186-.259-8.8-.825-10.006-1.188-2.536-1.7-5.4-2.736-8.007a30.7,30.7,0,0,1-1.827-4.637c-.282-1.281-.882-2.422-1.23-3.682a90.139,90.139,0,0,1-1.981-8.843c-.005-.1-.005-.21-.014-.313a.054.054,0,0,0-.044-.047,78.287,78.287,0,0,1-.936-8.143c-.377-6.28.585-12.6,1.073-18.862q.373-4.776.742-9.553a37.168,37.168,0,0,0-.112-8.591c-.084-.527-.183-1.044-.284-1.56a4.2,4.2,0,0,0,.193-1.2.092.092,0,0,0-.184-.015c-.042.2-.09.392-.139.581a54.972,54.972,0,0,0-1.541-5.62,37.21,37.21,0,0,1-1.132-4.6c-.017-.084-.034-.167-.049-.252,0-.044.005-.086.008-.132a.065.065,0,0,0-.046-.069c-.035-.186-.073-.367-.115-.544.642.155,1.276.3,1.872.456a4.135,4.135,0,0,0,3.065-.331c1.938-.777,3.53.024,5.389.583a18.375,18.375,0,0,0,4.517.583,8.533,8.533,0,0,0,3.78-.362c2.364-.918,4.681-2.006,7.057-2.89a28.44,28.44,0,0,0,8.149,2.168c1.643.162,3.182.754,4.8,1.012,1.453.232,2.944.042,4.392.281,1.626.269,3.1,1.158,4.689,1.539.8.191,1.59.237,2.389.505a15.45,15.45,0,0,0,2.1.593,35.021,35.021,0,0,0,4.465.512c1.284.076,2.523-.228,3.816-.106a2.738,2.738,0,0,0,2.5-.786c.132-.122.177-.406.321-.519,1.795-1.4.666.057,1.659-.372.186-.079.314-.122.438-.179.061.414-.174,1.166-.118,1.521.177,1.109.99,1.284,1.849,1.68,1.262.581,1.276,2.084,2.533,2.776a5.052,5.052,0,0,0,3.218.47c2.381-.444,3.1-2.8,3.177-4.9a2.812,2.812,0,0,1,.473-1.926c.63-.938.281-.416.928-.8a4.359,4.359,0,0,0,1.09-.669,3.541,3.541,0,0,0,.71-2.33,14.335,14.335,0,0,0-1.705-6.815c2-.113,4.047-1.754,5.391-2.969.63-.57,1.354-1.033,1.928-1.661.51-.559.848-1.276,1.4-1.8,1.37-1.294,3.371-1.5,5.154-1.469a12.511,12.511,0,0,0,7.831-3.163,9.876,9.876,0,0,0,3.579-7.322c.108-1.707.409-3.288.664-4.968a5.916,5.916,0,0,1,1.847-3.99,4.628,4.628,0,0,0,2.033-2.68,24.811,24.811,0,0,1,1.109-3.5M120,249.106c-.015-.02-.027-.041-.044-.059a.266.266,0,0,0-.33-.063c-1.249-.419-2.471-.946-3.682-1.448a7.362,7.362,0,0,0-.228-2.141,7.693,7.693,0,0,0-1.323-2.248c-.664-.968-1.325-1.925-2.018-2.876-1.49-2.046-3.2-3.927-4.656-6-.473-.674-.855-1.359-1.3-2.008,1.232.745,2.569,1.328,3.753,2.155a34.5,34.5,0,0,0,3.748,2.153,35.818,35.818,0,0,0,4.558,2.224c1.612.581,3.1,1.448,4.721,2a24.414,24.414,0,0,0,3.924,1.31,43.867,43.867,0,0,1,4.958.945c1.328.37,2.707.188,4.032.6,3.114.978,5.918,2.89,8.9,4.215l-.047.017c-1.517.585-3.035,1.166-4.574,1.688a10.606,10.606,0,0,1-4.331.869,21.873,21.873,0,0,1-4.738-.554,15.564,15.564,0,0,0-4.127-1.049c-1.386-.005-2.5,1.019-3.814.938a14.124,14.124,0,0,1-3.38-.674m-6.031,63.2a19.569,19.569,0,0,1-1.788-3.407c-.794-2.6-.62-5.514-.8-8.2a57.066,57.066,0,0,1,.056-8.716c.134-1.561.267-3.126.338-4.693a10.654,10.654,0,0,0-.14-1.932c1.818-2.08,3.314-4.571,2.6-7.351a27.131,27.131,0,0,0-2.325-5.3c-.022-.044-.042-.09-.063-.133.01-.985.336-2.2.4-2.908a12.526,12.526,0,0,1,1.435-4.515,28.7,28.7,0,0,0,2.513-7.258c.306-1.962-.62-3.65-.64-5.6a36.472,36.472,0,0,1,.328-3.7,8.467,8.467,0,0,0,1.345.735c.046.9-.237,1.823-.113,2.739.152,1.131.182,2.273.346,3.4a19,19,0,0,1,.179,3.743,18.8,18.8,0,0,1-.4,3.6,12.976,12.976,0,0,0-.2,1.352,7.271,7.271,0,0,1-.439,1.9c-.226.372-.549.571-.733.983-.218.487-.292,1.022-.48,1.521a6.087,6.087,0,0,0-.45,2.7,10.511,10.511,0,0,1,.076,1.583c-.042.527.172,1,.123,1.519a.051.051,0,0,0,.1.008c.057-.559-.139-1.088-.095-1.661a7.469,7.469,0,0,0-.042-1.229,5.977,5.977,0,0,1,.182-2.141c.162-.482.4-.928.541-1.42a4.308,4.308,0,0,1,.86-1.556,1.931,1.931,0,0,0,.351-.982c.176-1.029.455-2.046.646-3.074a23.506,23.506,0,0,0,.112-7.062c-.14-1.161-.257-2.359-.36-3.523-.068-.769.15-1.514.147-2.259a18.467,18.467,0,0,0,2.266.711,31.037,31.037,0,0,1,.439,3.515c.066.4.14.791.221,1.183.041,1.168.084,2.315.223,3.478.144,1.2.113,2.411.257,3.613a22.569,22.569,0,0,1,.313,3.814,12.3,12.3,0,0,1-.382,3.5,17.93,17.93,0,0,1-1.436,3.147,19.61,19.61,0,0,0-2.346,6.013,39.766,39.766,0,0,0-.564,7.312.075.075,0,0,0,.15.01c.33-2.917.252-5.9,1.132-8.725a19.066,19.066,0,0,1,1.174-3.226,26.6,26.6,0,0,0,1.479-2.753,11.3,11.3,0,0,0,.978-2.939,21.548,21.548,0,0,0,.123-3.3c-.057-1.119-.26-2.219-.385-3.331-.132-1.193-.115-2.391-.286-3.579a12.186,12.186,0,0,1-.1-1.6c.125.488.259.975.411,1.463A32.84,32.84,0,0,1,122.8,265.3c-.193,1-.309,2.011-.52,3a28.927,28.927,0,0,0-.6,3.665c-.1,1.176-.032,2.367-.221,3.535-.1.6-.3,1.159-.346,1.769a9.073,9.073,0,0,1-.3,2.242c-.373,1.124-1.009,2.136-1.463,3.226a16.8,16.8,0,0,0-.918,3.258c-.223,1.119-.553,2.258-.662,3.392a.061.061,0,0,0,.122.008c.057-.554.242-1.112.335-1.666.1-.625.255-1.244.38-1.866a15.025,15.025,0,0,1,1.2-3.687,15.332,15.332,0,0,0,1.389-3.231,13.608,13.608,0,0,0,.172-1.658c.061-.6.272-1.171.37-1.768.2-1.218.132-2.46.248-3.689a36.584,36.584,0,0,1,.737-4.182c.041-.2.078-.4.115-.6-.027,1.443.084,2.858-.022,4.307-.12,1.622-.221,3.246-.335,4.869-.1,1.538-.215,3.076-.321,4.613-.568,2.217-1.551,4.3-2.261,6.484a63.951,63.951,0,0,0-2.043,7.9c-.269,1.431-.549,2.851-.853,4.275a24.677,24.677,0,0,0-.26,3.806.063.063,0,0,0,.125.01,22.74,22.74,0,0,1,.365-4.024c.291-1.152.519-2.3.735-3.473a62.491,62.491,0,0,1,2.092-8.115c.588-1.791,1.4-3.537,2-5.338-.083,1.208-.167,2.416-.247,3.623-.086,1.279-.186,2.555-.284,3.829a25.134,25.134,0,0,1-1.115,3.395,37.253,37.253,0,0,0-1.19,4.024c-.38,1.435-.779,2.891-1.1,4.341a28.164,28.164,0,0,0-.519,4.088.072.072,0,0,0,.144.01,23.482,23.482,0,0,1,.716-4.608c.4-1.426.749-2.866,1.142-4.294a35.348,35.348,0,0,1,1.272-3.991c.183-.444.365-.9.527-1.355-.164,2.29-.286,4.576-.252,6.868a11.068,11.068,0,0,0-.493,1.57c-.1.657-.2,1.306-.336,1.959a33.211,33.211,0,0,0-.444,4.429.049.049,0,0,0,.1.007,35.452,35.452,0,0,1,.61-4.684c.123-.561.2-1.127.309-1.692a5.345,5.345,0,0,1,.274-.892c.037,1.215.117,2.432.265,3.65a68.1,68.1,0,0,0,1.024,7.969c.088.368.176.738.265,1.107-.022.622-.034,1.24-.073,1.837a.08.08,0,0,0,.159.012c.027-.341.066-.691.106-1.043.434,1.833.862,3.669,1.338,5.5.333,1.276.94,2.44,1.276,3.709a17.091,17.091,0,0,0,1.036,3.052,31.9,31.9,0,0,1,1.636,4.346c.387,1.259,1.029,2.42,1.381,3.692.326,1.174.931,2.171,1.313,3.317a38.482,38.482,0,0,1,1.09,3.878c.127.571.591,2.366.3,2.846a1.686,1.686,0,0,1-1.673.382,2.773,2.773,0,0,1-.566-.471,8.289,8.289,0,0,1-.88-.941c-.975-1.21-1.845-2.526-2.77-3.779a16.233,16.233,0,0,1-2.089-3.147c-.987-2.322-1.389-4.791-2.163-7.179-.755-2.335-1.176-4.718-2.5-6.836a10.664,10.664,0,0,0-1.877-2.234,8.219,8.219,0,0,1-2.224-3.285,29.421,29.421,0,0,0-1.587-3.06M95.961,301.793a3.143,3.143,0,0,0,.5-.536,11.607,11.607,0,0,1,2.232-2.68,11.89,11.89,0,0,1,2.763-1.771,6.078,6.078,0,0,0,1.56-.973l0,.019c-.024.965-.1,1.925-.166,2.886-.157,2.212-.353,4.427-.443,6.643a.049.049,0,0,0,.1.008c.22-2.063.345-4.138.5-6.207.071-.948.172-1.9.2-2.849.007-.228.012-.456.022-.681a14.8,14.8,0,0,0,2.077-2.44c.673-.948,1.176-2.006,1.832-2.964a19.6,19.6,0,0,1,2.526-2.819c.37-.365.759-.75,1.144-1.154-.037,1-.064,2-.139,3-.13,1.773-.321,3.539-.443,5.31a66.763,66.763,0,0,0,.34,9.843,21.011,21.011,0,0,0,.678,4.923,21.511,21.511,0,0,0,1.791,3.424c.351.649.684,1.274,1,1.91a11.929,11.929,0,0,1-1.229,4.049c-.461.823-.471,1.092-1.158.389a11.978,11.978,0,0,1-1.409-2.33c-.529-.94-1.022-1.891-1.484-2.864a6.165,6.165,0,0,1-.308-1.185c-.152-.919-.248-1.854-.314-2.783-.069-.984-.174-1.97-.2-2.954-.025-.874.061-1.746.049-2.619-.047-3.8-.537-7.566-.526-11.366a.118.118,0,0,0-.235-.019,30.333,30.333,0,0,0,.21,5.754c.11,1.024.086,2.052.13,3.079.044.941.166,1.872.174,2.815.008.88-.063,1.757-.01,2.638.056.9.154,1.806.228,2.709.078.928.186,1.857.355,2.775a3.576,3.576,0,0,0,.112.426,17.793,17.793,0,0,0-1.609-3.31,6.585,6.585,0,0,0-2.374-2.109c.064-.764.13-1.528.166-2.29.035-.848-.073-1.7-.012-2.547.132-1.788-.128-3.547-.059-5.335a.036.036,0,0,0-.071-.005c-.225,1.773.1,3.547-.025,5.33-.064.887.054,1.788.02,2.68-.027.7-.081,1.408-.135,2.111a6.1,6.1,0,0,0-2.28-.556c-.237-.014-.465-.024-.688-.042a.154.154,0,0,0,.041-.081,1.243,1.243,0,0,0,.03-.308c.019-.2.032-.4.049-.591.034-.444.071-.889.1-1.332.071-.938.144-1.877.159-2.817a.068.068,0,0,0-.135-.01c-.122.933-.189,1.872-.255,2.809a15.844,15.844,0,0,0-.128,2.317,3.166,3.166,0,0,1-1.7-.588,8.436,8.436,0,0,1-1.531-1.727,33.6,33.6,0,0,1-2.011-3M71.5,286.091c.147-1.34-.1-2.606-.047-3.942a10.52,10.52,0,0,1,1.159-4.791,15.692,15.692,0,0,1,2.207-2.754c.82-.907,1.355-2.013,2.187-2.925a22.917,22.917,0,0,0,2.684-3.358,2.97,2.97,0,0,1,.754-.646,8.928,8.928,0,0,0,.934-.51,9.283,9.283,0,0,1,2.949-1.463,9.45,9.45,0,0,0,1.085-.253,9.8,9.8,0,0,0,1.054-.659c.051-.027.027-.117-.035-.1-.48.137-.833.47-1.325.6s-.963.194-1.436.362a13.415,13.415,0,0,0-2.626,1.467c-.318.2-.662.319-.967.52a10.352,10.352,0,0,0,.566-1.261c.831-2.278,1.1-4.725,1.729-7.067.608-2.256,2.258-3.591,3.456-5.441a21.13,21.13,0,0,1,2.45-1.313c.956-.448,1.864-.99,2.8-1.468.475-.242.953-.475,1.428-.713.407-.2.737-.483,1.132-.706.064-.037.035-.152-.042-.128a7.7,7.7,0,0,0-1.193.622q-.717.352-1.428.716c-1.061.541-2.085,1.158-3.17,1.653a14.958,14.958,0,0,0-1.729.926c.035-.061.073-.12.106-.183a25.849,25.849,0,0,0,2.734-5.59c.36-.483.749-.945,1.073-1.452.4-.62,1.063-.956,1.436-1.578.417-.691.842-1.372,1.271-2.057.157-.252.316-.5.451-.767.088-.169.272-.9.488-.946a.048.048,0,0,0-.02-.093c-.056,0-.113.007-.171.012a.059.059,0,0,0-.046.039,11.527,11.527,0,0,1-1.144,2.122,16.741,16.741,0,0,1-1.195,1.888c-.23.27-.537.441-.779.7a5.5,5.5,0,0,0-.544.8c-.226.352-.485.681-.738,1.014a20.7,20.7,0,0,0,.434-3.691,9.115,9.115,0,0,1,.752-3.62c1.048-2.337,1.9-4.755,2.929-7.1.537-1.225,1.22-2.378,1.815-3.574a33.34,33.34,0,0,1,1.418-3.321c.23-.355-.26-.661-.526-.362a24.453,24.453,0,0,0-2.227,3.893c-.39.659-.769,1.313-1.127,1.977.392-1.524.936-3.011,1.342-4.534.456-1.729.722-3.407,1.85-4.877s2.937-2.239,3.8-3.936c.695-1.357.542-2.562.706-4,.3-2.569,1.893-1.458,3.1-2.732a5.235,5.235,0,0,1-.086.683c-.275,1.332-1.308,2.133-1.533,3.484a59.994,59.994,0,0,0-.281,7.6,10.51,10.51,0,0,0,1.6,5.891,13.4,13.4,0,0,0,1.872,2.511,20.178,20.178,0,0,1,2.09,2.937c1.5,2.155,3.263,4.1,4.8,6.227.769,1.06,1.494,2.141,2.241,3.214a5.152,5.152,0,0,1,1.065,3.329.332.332,0,0,0-.049.493c.01.01.024.02.032.03v.02c-.123,2.227-.625,4.671-.122,6.885.117.5.358.87.455,1.4a5.827,5.827,0,0,1-.194,2.572c-.308,1.2-.786,2.354-1.164,3.53-.732,2.285-2.131,4.343-2.278,6.766-.039.678-.238,1.671-.274,2.616a20.3,20.3,0,0,1-1.3-5.511c-.483-4.694,1.565-8.943,2.024-13.546.186-1.859.49-3.675-.407-5.4a11.013,11.013,0,0,0-3.226-3.569c-.913-.75-1.592-1.746-2.457-2.545-.808-.747-1.656-1.4-2.425-2.192a14.446,14.446,0,0,1-3.446-6.175c-1.3-4.378-1.989-9.669-.683-14.109.027-.1-.118-.152-.152-.054-1.511,4.2-.757,9.211.242,13.451a19.471,19.471,0,0,0,2.214,5.847c1.169,1.817,2.978,2.976,4.407,4.537,1.306,1.425,3.1,2.653,4.117,4.282,1.264,2.024,1.058,3.822.821,6.089-.441,4.216-2.29,8.067-2.124,12.368.152,3.949,1.529,7.366,3.086,10.927.989,2.259,1.333,4.294-.017,6.5a12.886,12.886,0,0,1-1.083,1.5.311.311,0,0,0-.1.113c-.941,1.12-2.023,2.124-3.04,3.18-1.572,1.627-2.435,3.561-3.711,5.391-.22.318-.456.646-.7.968l-.005,0-.005.012a12.225,12.225,0,0,1-1.272,1.44,12.294,12.294,0,0,1-2.168,1.271,12.042,12.042,0,0,0-3.973,3.709c-1.269,2.09-3.408,1.8-5.406.857-2.079-.982-3.625-2.707-5.345-4.177a12.09,12.09,0,0,1-2.45-2.542c-.377-.58-.671-1.215-1.085-1.773a3.6,3.6,0,0,0-4.138-1.48c-1.533.642-1.577,4-3.753,3.194a.151.151,0,0,0-.1,0c-.931-.8-1.338-2.749-1.692-3.721-.09-.247-.167-.5-.24-.749.019-.025.035-.049.054-.073a.268.268,0,0,0-.183-.421,9.306,9.306,0,0,1-.213-3.192m-4.982-26.6c.211-.891.142-1.781.411-2.673a15.634,15.634,0,0,1,1.245-2.741,43.382,43.382,0,0,1,2.874-4.894c.465-.659.973-1.3,1.382-2,.3-.51.46-1.213.978-1.543a.145.145,0,0,0,.068-.1,3.769,3.769,0,0,0,.6-.155c1.076-.387,1.948-1.1,3.054-1.467a17.184,17.184,0,0,0,3.119-1.183c-.025.042-.056.084-.083.128a22.694,22.694,0,0,1-2.839,3.716,23.754,23.754,0,0,0-2.765,3.508c-.434.691-.857,1.419-1.227,2.146a14.046,14.046,0,0,0-.762,1.443.063.063,0,0,0,.118.042,6.254,6.254,0,0,1,.561-.88c.164-.274.3-.563.468-.836.4-.657.787-1.335,1.23-1.962a32.071,32.071,0,0,1,2.923-3.457,18.828,18.828,0,0,0,2.462-3.133c.34-.561.733-1.065,1.1-1.605l.022-.036c.336-.314.661-.64,1.016-.933,1.1-.913,2.457-1.45,3.584-2.332a15.817,15.817,0,0,0,2.564-2.79.157.157,0,0,0-.063-.248c.282-.113.563-.242.853-.387a16.862,16.862,0,0,0,1.548-.951c-.149.193-.333.363-.49.541-.34.389-.669.8-.989,1.2a10.764,10.764,0,0,1-1.046,1.332c-.321.3-.691.542-1,.855a24.289,24.289,0,0,0-1.617,2.222,14.052,14.052,0,0,1-2.148,2.242,22.058,22.058,0,0,0-4.074,3.779,12.814,12.814,0,0,0-1.935,4.475,13.129,13.129,0,0,0-.458,2.705,10.6,10.6,0,0,1-.591,2.812,19.214,19.214,0,0,1-1.235,2.6c-.471.936-.9,1.894-1.413,2.814a15.316,15.316,0,0,1-1.766,2.809c-.487.551-.625,1.264-1.105,1.81a4.224,4.224,0,0,0-.52.718c-.21.36-.512.61-.738.95s-.287.7-.519,1.027a7.175,7.175,0,0,0-.593.853c-.813,1.541-1.741,3.052-2.464,4.639-.453,1-.894,2-1.332,3a7.256,7.256,0,0,0-.722,2.253.036.036,0,0,0,.071.005,10.67,10.67,0,0,1,1.259-3.322c.493-1.039.931-2.1,1.5-3.1.519-.921,1.09-1.812,1.58-2.751.38-.73.9-1.34,1.252-2.073a7.479,7.479,0,0,1,.8-1.063,7.7,7.7,0,0,1,.63-.913c.544-.591.745-1.347,1.279-1.953a20.824,20.824,0,0,0,2.658-4.527,23.162,23.162,0,0,0,2.258-5.186c.221-.987.123-2.009.351-3a23.789,23.789,0,0,1,.691-2.435,11.053,11.053,0,0,1,3.13-4.667c.708-.656,1.46-1.24,2.222-1.828a16.023,16.023,0,0,0,1.778-1.774,17.462,17.462,0,0,0,1.509-2.04,19.729,19.729,0,0,1,1.857-1.845c.586-.637,1.049-1.409,1.609-2.077.09-.1.188-.21.291-.316l-.253.624c-.056.052-.11.106-.161.162a8.868,8.868,0,0,0-1.217,1.567,19.65,19.65,0,0,1-2.873,3.606,37.809,37.809,0,0,1-2.763,2.646,12.622,12.622,0,0,0-2.437,2.467,27.4,27.4,0,0,0-1.631,3.324,19.28,19.28,0,0,0-.891,3.268,6.076,6.076,0,0,0-.135,1.286,7.612,7.612,0,0,1-.284.951,6.135,6.135,0,0,0-.057.681,15.9,15.9,0,0,1-.38,1.9c-.052.23-.154.448-.2.679-.034.189.007.385-.025.568a7.006,7.006,0,0,1-.534,1.316,7.518,7.518,0,0,1-1.274,1.643,9.947,9.947,0,0,0-1.027,1.391,4.942,4.942,0,0,1-1.1,1.588c-.037.032.012.088.051.057a4.6,4.6,0,0,0,1.061-1.489,9.743,9.743,0,0,1,1.283-1.67,6.5,6.5,0,0,0,1.1-1.347,6.132,6.132,0,0,0,.632-1.372c.071-.335.073-.661.169-1,.049-.169.106-.333.144-.507a16.456,16.456,0,0,0,.353-1.609,4.491,4.491,0,0,1,.208-1.159,2.315,2.315,0,0,0,.166-.6,4.45,4.45,0,0,1,.106-1.043c.056-.171.172-.382.213-.561.066-.3.032-.6.088-.9a8.752,8.752,0,0,1,.255-.967,12.294,12.294,0,0,1,.858-1.817c.281-.576.446-1.2.754-1.764a8.59,8.59,0,0,1,1.029-1.457c.884-1.034,2.07-1.8,3.035-2.754a36.084,36.084,0,0,0,2.582-2.678c.426-.517.9-1.009,1.3-1.545.382-.509.637-1.093,1.026-1.6.042-.052.084-.1.128-.154-.23.559-.461,1.117-.7,1.671-.174.4-.357.772-.529,1.146a3.945,3.945,0,0,1-.265.409,28.263,28.263,0,0,0-1.893,2.665,61.234,61.234,0,0,0-3.508,5.847,15.574,15.574,0,0,0-1.087,2.783,8.01,8.01,0,0,0-.25,1.55,15.9,15.9,0,0,1-.318,1.832,4.008,4.008,0,0,1-.455,1.644c-.267.426-.608.8-.874,1.223-.548.875-.607,1.984-1.313,2.766-.025.025.01.069.035.042a7.043,7.043,0,0,0,1.058-2.134c.416-.924,1.379-1.587,1.641-2.579.144-.541.167-1.127.3-1.68a8.671,8.671,0,0,0,.147-1.372,8.053,8.053,0,0,1,.353-1.705c.15-.473.446-.916.629-1.386.913-2.351,2.509-4.247,3.768-6.4a22.085,22.085,0,0,1,1.519-2.227,5.39,5.39,0,0,0-.247,1.218c-.034.417-.052.833-.071,1.247-.022.046-.044.091-.064.139a13.563,13.563,0,0,1-.923,1.71c-.573.921-1.132,1.845-1.61,2.817a22.185,22.185,0,0,0-1.518,3.476c-.128.434-.353.809-.505,1.23a4.724,4.724,0,0,0-.137,1.472.062.062,0,0,0,.123.007,4.551,4.551,0,0,1,.451-1.967c.2-.424.3-.882.47-1.318a31.412,31.412,0,0,1,1.666-3.437c.595-1.1,1.359-2.107,1.935-3.216.025-.049.054-.1.079-.152-.083,2.2-.179,4.328-1.354,6.339-.7,1.2-1.229,2.508-2.043,3.63-.717.984-1.665,1.783-2.31,2.824a12.316,12.316,0,0,0-1.293,3.87c-.264,1.154-.613,2.283-.864,3.439a12.617,12.617,0,0,1-1.727,4.23,31.719,31.719,0,0,1-2.645,3.032c-.9,1.031-1.528,2.182-2.491,3.155a10.95,10.95,0,0,0-1.9,2.712c-1.2,2.346-1.019,4.9-.911,7.437a23.66,23.66,0,0,0,.032,3.679c.091.466.193.911.313,1.347a8.175,8.175,0,0,0-1.729,2.4c-.36.6-.842,1.078-1.252,1.637-.586.8-.831,1.911-1.732,2.427a1.26,1.26,0,0,1-1.739-.456c-.1-.188-.032-.52-.079-.738a5.921,5.921,0,0,0-.8-1.793,23.089,23.089,0,0,1-2.05-4.291c-1.171-3.53.081-7.314.659-10.825a47.01,47.01,0,0,1,.869-5.1A17.538,17.538,0,0,1,64.4,270a1.958,1.958,0,0,0,.326-.691c.081-.183.155-.367.225-.554a.191.191,0,0,0-.061-.226c.019-.09.037-.177.059-.262a24.968,24.968,0,0,1,1.115-3.615,12.767,12.767,0,0,1,2.138-3.3,3.923,3.923,0,0,0,1.1-1.73c.029-.139-.2-.179-.242-.049-.269.831-1.115,1.35-1.675,1.981a10.616,10.616,0,0,0-1.425,1.943c-.879,1.622-.967,3.5-1.727,5.132-.179.382-.375,1.156-.764.5a8.008,8.008,0,0,1,.117-.923,1.86,1.86,0,0,0-.487-.889c-.978-1.362-.35-3.179.615-4.519.889-1.234,2.427-1.712,2.807-3.307m-4.6-1.114c.054-.078.11-.152.161-.235a11.031,11.031,0,0,0,1.284-3.309c.51-2.2,1.531-4.034,1.259-6.126l0,0c.823-.715,1.494-1.587,2.315-2.3,1.313-1.139,2.471-1.066,4.1-.892a12.36,12.36,0,0,0,1.764.1,3.76,3.76,0,0,0-.593.652c-.629.806-1.291,1.587-1.92,2.4a35.858,35.858,0,0,0-3.606,6.055,11.457,11.457,0,0,0-.857,2.122.5.5,0,0,0-.478.282c-.652,1.262-2.275.84-3.371,1.222a.387.387,0,0,0-.066.029m-24.6,10.18c-.681-2.881.069-6.126.853-8.9.076-.272.155-.541.237-.809a19.732,19.732,0,0,0,1.19-2.738.127.127,0,0,0-.079-.169c.144-.289.3-.575.468-.858.73-1.2,1.5-2.386,2.227-3.6a13.928,13.928,0,0,1,2.923-3.643c.977-.82,2.116-1.428,3.081-2.253a11.865,11.865,0,0,0,2.356-3.393,2.936,2.936,0,0,0,.242-.26,6.962,6.962,0,0,0,.563-.989,5.663,5.663,0,0,1,1.227-1.217c1.2-.857,2.722-1.063,3.959-1.921a6.31,6.31,0,0,0,2.116-2.352,20.55,20.55,0,0,0,1.269-3.755,6.4,6.4,0,0,1,3.194-3.317,23.667,23.667,0,0,1,4.681-1.624,7.564,7.564,0,0,1,2.525-.161.109.109,0,0,0,.073-.194c.534.051,1.264.22,1.428.245.076.01.155.025.237.041,1.078.644,1.967,1.551,3.047,2.207.306.186.607.38.909.578a3.7,3.7,0,0,0-.825.367c-.923.542-1.377,1.413-2.2,2.024-.87.642-1.793.36-2.754.436a3.965,3.965,0,0,0-1.313.426,6.239,6.239,0,0,0-2.993,1.825,10.41,10.41,0,0,0-1.737,3.211.071.071,0,0,0-.069.012c-.505.387-1.046.686-1.568,1.043-.421.287-.733.7-1.152.99a8.084,8.084,0,0,0-2.346,1.8c-.032.044.037.091.069.047.689-.965,1.766-1.225,2.651-1.933a11.011,11.011,0,0,1,1.286-1,7.3,7.3,0,0,0,1.06-.749c-.015.052-.034.1-.049.155-.353,1.18-.938,2.239-1.18,3.451l-.064.047c-.791.59-1.555,1.2-2.368,1.768a11.349,11.349,0,0,1-2.967,1.4c-.537.186-1.061.4-1.585.622-.4.167-1.107.664-1.529.622-.057-.005-.063.081-.007.09.422.059.745-.228,1.12-.389.673-.286,1.369-.537,2.062-.766a11,11,0,0,0,2.944-1.343c.8-.546,1.548-1.174,2.335-1.741a10.826,10.826,0,0,0,.106,4.329c.056.232.117.455.177.673a9.279,9.279,0,0,1-.875.771,2.276,2.276,0,0,1-1.374.673,7.676,7.676,0,0,1-1.668.331,3.35,3.35,0,0,0-1.075.132.069.069,0,0,0,.027.135c.62-.122,1.2-.057,1.82-.186a10.764,10.764,0,0,0,1.715-.357c.5-.2.855-.708,1.283-1.027a2.472,2.472,0,0,0,.232-.183,5.936,5.936,0,0,1,.252,3.934c-.46,1.352-.794,2.6-1.122,3.978-.049.208-.1.412-.167.615-1.289.387-2.557.838-3.831,1.276-1.438.493-2.78,1.195-4.25,1.61-.644.183-1.257.439-1.886.671-.657.242-1.365.309-2.013.583a11.418,11.418,0,0,1-2.1.808,2.1,2.1,0,0,0-1.119.509c-.047.044.015.118.063.074.548-.505,1.335-.458,2-.7a19.679,19.679,0,0,1,1.95-.766c1.291-.316,2.535-.784,3.8-1.176,1.323-.407,2.552-1.058,3.866-1.492,1.131-.373,2.288-.713,3.414-1.114a7.586,7.586,0,0,1-.689,1.487c-.262.2-.49.458-.75.668a12.079,12.079,0,0,1-2.543,1.347,39,39,0,0,0-4.794,2.91,40.322,40.322,0,0,1-4.823,2.6c-1.776.811-2.9,2.2-4.334,3.466a.049.049,0,0,0,.064.074c.752-.644,1.413-1.389,2.166-2.033a9.141,9.141,0,0,1,2.552-1.482c.808-.323,1.521-.8,2.31-1.169a22.888,22.888,0,0,0,2.3-1.267,42.428,42.428,0,0,1,4.711-2.782,21.546,21.546,0,0,0,2.114-1.048c-.079.079-.157.159-.245.235a11.674,11.674,0,0,0-1.117,1.083,3.461,3.461,0,0,1-.326.133.193.193,0,0,0-.046.319,5.511,5.511,0,0,0-1.024,3.922c.042.779.147,1.572.238,2.364a5.017,5.017,0,0,1-.955.862,10.2,10.2,0,0,1-1.95,1.43c-1.146.593-2.318,1.1-3.452,1.724a12.037,12.037,0,0,0-2.945,2.273,12.852,12.852,0,0,1-1.531,1.24,8.987,8.987,0,0,0-1.306,1.352c-.029.032.025.079.052.049.968-1.063,2.155-1.8,3.172-2.8a16.249,16.249,0,0,1,3.692-2.508,31.449,31.449,0,0,0,3.555-1.844c.48-.357.933-.755,1.387-1.142.1-.086.216-.179.321-.279.034.321.064.642.086.962a.116.116,0,0,0-.052.019c-1.72,1.09-2.628,3.091-4.346,4.142a11.043,11.043,0,0,0-1.029.591,8.482,8.482,0,0,1-.877.664c-.057.034-.13.049-.189.081a7.645,7.645,0,0,0-1.178.852c-.208.176-.385.4-.595.563a4.547,4.547,0,0,0-.421.281.041.041,0,0,0,.054.063c.333-.3.715-.485,1.053-.794a6.159,6.159,0,0,1,1.229-.842,2.27,2.27,0,0,0,.774-.424,2.616,2.616,0,0,1,.744-.613c.211-.106.428-.194.627-.321,1.644-1.046,2.582-2.907,4.225-3.98a11.324,11.324,0,0,1,.007,1.173,9.075,9.075,0,0,1-.25,1.634A9.565,9.565,0,0,0,57,272.1a14.5,14.5,0,0,1-1.325,1.249c-.791.715-1.594,1.377-2.332,2.141a24.214,24.214,0,0,1-2.945,2.307,8.388,8.388,0,0,0-2.1,2.491c-.03.051.044.1.074.051a8.571,8.571,0,0,1,2.716-2.854,14.131,14.131,0,0,0,2.564-2.046c.367-.389.8-.629,1.195-.977.338-.3.637-.637.977-.938.4-.353.838-.718,1.215-1.1.215-.216.394-.456.59-.684a21.163,21.163,0,0,1-.934,2.525c-1.174,2.717-2.8,5.249-3.885,8a20.206,20.206,0,0,0-1.514,7.709,6.751,6.751,0,0,1-.181,2.356c-.45,1.136-1.519,1.043-2.425.539-1.159-.646-1.31-1.742-1.708-2.9a4.245,4.245,0,0,0-1.722-2.182,9.274,9.274,0,0,1-2.415-3.525,7.956,7.956,0,0,1-.659-2.974c.01-.507.174-1,.162-1.509a13.291,13.291,0,0,0-.938-3.743c-.958-2.724-3.41-4.608-4.089-7.484m45.309-36.368a25.349,25.349,0,0,0,2.533.8,8.008,8.008,0,0,0,.808.208,15.113,15.113,0,0,1-5.4.24c-1.119-.122-2.437-.9-3.579-.526-.933.309-1.088,1.134-1.435,1.938-1.523,3.542-5.9.656-8.618,2.4a5.553,5.553,0,0,0-1.556,2.217c-.11.228-.2.451-.287.671a.067.067,0,0,0-.088.039c-.184.409-.553.529-.918.689.25-.963.578-1.935.913-2.939a6.382,6.382,0,0,1,3.632-4.172,24.707,24.707,0,0,1,3.817-.644,3.774,3.774,0,0,0,2.033-1.474,3.815,3.815,0,0,1,2.846-1.347,10.432,10.432,0,0,0,1.229.635c1.321.561,2.778.7,4.074,1.261m-2.616-1.97a30.248,30.248,0,0,1-3.415-2.089c-.955-.612-1.894-1.237-2.842-1.859a.279.279,0,0,0-.03-.054.971.971,0,0,0-.526-.281c-.416-.232-.845-.438-1.272-.646l0,0a13.054,13.054,0,0,0-2.045-1.11,4.4,4.4,0,0,1-1.921-1.609,8.888,8.888,0,0,1-1.311-3.278c-.032-.181-.265-.135-.3.019-.015.074-.024.152-.034.23-.326-1.337-.512-2.787-.7-4.069a8.377,8.377,0,0,0-.4-1.671,34.741,34.741,0,0,1,2.81,2.126c.9.669,1.668,1.43,2.528,2.133a24.981,24.981,0,0,1,5.1,5.84c.64.989,1.073,2.085,1.766,3.047.686.946,1.48,1.844,2.256,2.714.2.221.436.466.7.715-.122-.051-.247-.1-.367-.155m-25.968-3.106a27.8,27.8,0,0,0,3.912,1.876,9.552,9.552,0,0,1-2.043.708c-1.408.232-2.852.226-4.247.544a26.791,26.791,0,0,1-4.171.338c-.695.047-1.4-.024-2.089.052a10.758,10.758,0,0,1-2.288.215,4.74,4.74,0,0,0-1.7-.063c-.5.127-.97.372-1.457.536a3.4,3.4,0,0,0-1.234.784,6.019,6.019,0,0,1-1.419.662,4.522,4.522,0,0,0-1.338.752,7.867,7.867,0,0,0-.833,1.349,15.155,15.155,0,0,0-1.156,1.673,8.812,8.812,0,0,0-.421,1.416,3.155,3.155,0,0,1-1.063,1.622,10.457,10.457,0,0,0-1.3,1,1.845,1.845,0,0,0-.529,1.065c-.039.3-.01.6-.044.9a8.9,8.9,0,0,1-.27,1.068c-.166.7-.184,1.43-.348,2.139a14.766,14.766,0,0,1-.544,1.955,12.6,12.6,0,0,0-.6,1.808,2.909,2.909,0,0,1-.9,1.729,8.942,8.942,0,0,1-1.681.789c-.532.262-1.014.613-1.57.825a30.886,30.886,0,0,1-3.811,1c-1.327.314-2.684.037-3.99.475a4.418,4.418,0,0,0-2.491,1.744,8.7,8.7,0,0,0-.319,1.5c-.169.534-.46,1.022-.591,1.568-.264,1.082-.037,2.239-.238,3.337-.27,1.46-1.267,2.641-2.011,3.885a12.609,12.609,0,0,0-.59,1.516c-.118.269-.33.477-.461.733a2.994,2.994,0,0,1-.35.711c-.024.027.024.069.047.042a6.573,6.573,0,0,0,.8-1.328c.3-.553.411-1.158.737-1.71a13.6,13.6,0,0,0,1.932-3.579c.306-1.269-.007-2.663.434-3.892a13.262,13.262,0,0,0,.656-1.685,2.611,2.611,0,0,1,.318-1.044,3.133,3.133,0,0,1,1.112-.945,5.78,5.78,0,0,1,2.013-.7c.676-.095,1.355-.012,2.035-.059a25.5,25.5,0,0,0,3.682-.811,15.409,15.409,0,0,0,3.082-1.291c.842-.382,1.624-.58,2.131-1.408a5.649,5.649,0,0,0,.549-1.578c.159-.595.426-1.151.634-1.729.247-.691.372-1.409.553-2.117.145-.578.14-1.163.269-1.739.142-.63.223-1.18.309-1.818a2.3,2.3,0,0,1,1.2-1.641,3.962,3.962,0,0,0,1.686-2.166c.088-.267.122-.536.191-.806a4.063,4.063,0,0,1,.522-1.11c.284-.463.686-.836.96-1.3a4.407,4.407,0,0,1,.674-1.083,2.855,2.855,0,0,1,.83-.47c.468-.21.97-.375,1.428-.6.537-.262.826-.744,1.419-.945a13.314,13.314,0,0,1,1.568-.569,10.957,10.957,0,0,1,1.962.127,15.169,15.169,0,0,0,1.654-.213c1.188-.155,2.4-.012,3.6-.166.591-.078,1.158.09,1.739-.02.615-.117,1.227-.294,1.845-.392,1.222-.2,2.5-.172,3.711-.417a15.45,15.45,0,0,0,1.9-.624c.218-.076.433-.167.649-.255q.743.289,1.494.571c-.071.076-.142.154-.206.232-.811,1-.875,2.472-1.327,3.655-.014.034-.025.066-.041.1,0-.056,0-.11-.005-.164a.146.146,0,0,0-.264-.093c-.012.02-1.132.112-1.294.14-.4.069-.842.052-1.254.1-.5.061-.98-.051-1.479.007s-.965.088-1.462.115c-1.061.054-2.109.2-3.168.2a7.881,7.881,0,0,0-1.291.169.7.7,0,0,0-.5.181c-.084.071.025.2.112.128a3.652,3.652,0,0,1,.962-.213,8.005,8.005,0,0,1,1.533-.008c.948-.029,1.894-.1,2.842-.127.453-.012.906-.134,1.36-.117a6.5,6.5,0,0,0,1.161.044c.848-.112,1.724-.091,2.584-.176a.171.171,0,0,0,.1-.059,7.276,7.276,0,0,1-1.381,2.226c-.382.034-.853.037-.956.044-.428.032-.855.057-1.283.091-.992.079-1.977.3-2.971.343-.857.037-1.707-.064-2.562-.11a5.052,5.052,0,0,0-1.033.088,8,8,0,0,1-1.45-.041c-.818-.034-1.612.167-2.442.106-.847-.061-1.693-.159-2.54-.228-.869-.073-1.683.074-2.547.061-.948-.017-1.9-.132-2.846-.2a.086.086,0,0,0-.014.171c.99.078,1.991.218,2.983.233.9.015,1.759-.079,2.665.012.848.085,1.7.216,2.548.275.823.056,1.629-.14,2.444-.057.887.091,1.725-.076,2.607-.005a17.115,17.115,0,0,0,2.479.079c.924-.063,1.837-.24,2.761-.309.568-.042,1.139-.071,1.707-.118a7.535,7.535,0,0,1-2.756,1.507,6.927,6.927,0,0,0-3.091,1.842c-.017.019-.03.039-.049.059-.238-.014-.488-.064-.7-.083a16.968,16.968,0,0,0-1.987.044c-1.154.027-2.259.284-3.4.417-1.23.142-2.454.36-3.687.512a10.733,10.733,0,0,1-2.34-.035,14.639,14.639,0,0,0-2.094.069c-.09.005-.1.147-.008.144a15.662,15.662,0,0,1,2.471,0,8.871,8.871,0,0,0,2.158.029c.869-.095,1.734-.184,2.6-.282a15.767,15.767,0,0,0,1.714-.218,5.03,5.03,0,0,1,1.2-.122c.367,0,.717-.115,1.083-.137a14.428,14.428,0,0,1,2.261-.027c.112.01.262.034.426.051a18.163,18.163,0,0,0-1.364,2.4c-1.131-.051-2.33.365-3.456.392-.6.015-1.19.115-1.795.083a11.253,11.253,0,0,0-1.879-.024c-.715.079-1.419.237-2.134.313-.549.059-1.1-.061-1.637.02a27.241,27.241,0,0,1-4.6.713.069.069,0,0,0-.01.137,19.82,19.82,0,0,0,4.269-.52,15.869,15.869,0,0,1,1.724-.027c.646-.046,1.3-.157,1.94-.245a11.281,11.281,0,0,1,2.3-.012c.61.041,1.183-.059,1.791-.063,1.07-.005,2.175-.341,3.248-.358l-.015.024c-.532.36-1.127.571-1.665.965-.654.477-1.269,1.021-1.95,1.463a32.3,32.3,0,0,1-3.275.877c-1.56.419-2.934,1.279-4.454,1.776-.723.235-1.465.335-2.173.629-.8.333-1.592.681-2.391,1.016a13.293,13.293,0,0,0-1.866.874,11.833,11.833,0,0,1-1.071.591c-.154.074-.353.275-.519.3-.093.012-.064.152.029.142.22-.022.184-.106.365-.191a9.805,9.805,0,0,0,.919-.419,13.775,13.775,0,0,1,2.144-.975c.855-.323,1.7-.681,2.552-1,.749-.284,1.538-.341,2.29-.6.82-.281,1.6-.7,2.4-1.038a21.581,21.581,0,0,1,2.852-.9l.128-.032c-.417.286-.789.646-1.212.928-.769.517-1.479,1.09-2.271,1.577s-1.659.754-2.489,1.183c-.847.438-1.5,1.18-2.313,1.681-.324.2-.657.384-.992.568a11.37,11.37,0,0,0-1.494.4c-.782.223-1.57.38-2.337.654-.891.318-1.781.622-2.648,1a8.222,8.222,0,0,0-1.779.723c-.078.059.02.171.1.113a3.375,3.375,0,0,1,1.061-.355c.326-.1.639-.253.958-.379.833-.326,1.69-.59,2.54-.867a22.876,22.876,0,0,1,2.447-.63c-.057.037-.118.071-.176.108A13.793,13.793,0,0,0,30.3,255.35c-.6.619-1.083,1.313-1.705,1.9-.367.343-.522.789-.869,1.151a11.658,11.658,0,0,1-1.12.94,15.243,15.243,0,0,0-1.813,1.82c-.689.776-1.458,1.47-2.166,2.229-.64.684-1.19,1.431-1.869,2.084a23.864,23.864,0,0,1-4.449,3.721c-1.658.965-3.5,1.485-5.222,2.3-.9.424-1.852.676-2.722,1.164a25.17,25.17,0,0,0-2.437,1.563c-.069.051.017.149.086.1a16.818,16.818,0,0,1,3.395-2c1-.4,1.977-.845,2.974-1.244.956-.385,1.943-.646,2.883-1.087a16.641,16.641,0,0,0,2.474-1.438,17.777,17.777,0,0,0,2.31-2.024c.583-.588,1.225-1.12,1.776-1.742,1.325-1.5,2.7-2.981,4.113-4.4.684-.683,1.588-1.158,2.217-1.891a8.694,8.694,0,0,1,.85-1.046,5.463,5.463,0,0,0,.706-.793,14.648,14.648,0,0,1,2.318-2.246,15.037,15.037,0,0,1,2.237-1.4c.154-.027.306-.056.458-.081a.139.139,0,0,0,.069-.242,23.938,23.938,0,0,0,2.089-1.507,15.637,15.637,0,0,1,2.408-1.144,18.214,18.214,0,0,0,2.43-1.631c.3-.233.627-.414.936-.632a9.651,9.651,0,0,1,1.141-.872c.429-.22.892-.338,1.311-.585.086-.051.167-.108.252-.161a1.363,1.363,0,0,0,.875-.578l.005-.012c.667-.448,1.229-.945,1.918-1.333a29.879,29.879,0,0,1-3.5,2.692,10.753,10.753,0,0,0-1.19,1.127c-.8.515-1.553,1.08-2.369,1.58a19.521,19.521,0,0,0-2.749,1.96c-.891.786-1.7,1.654-2.589,2.444a33.368,33.368,0,0,1-2.815,2.2c-.463.33-.973.576-1.441.9-.517.355-.992.777-1.482,1.168-.913.725-1.928,1.31-2.785,2.1-.833.766-1.817,1.278-2.667,2-.767.656-1.266,1.556-2.051,2.2-.046.037.012.1.059.068.826-.59,1.36-1.453,2.136-2.1.869-.716,1.847-1.212,2.689-1.979.858-.782,1.883-1.365,2.793-2.087.879-.7,1.779-1.288,2.705-1.911a46.251,46.251,0,0,0,5.318-4.517,20.8,20.8,0,0,1,3.111-2.285c.58-.362,1.119-.776,1.659-1.183a24.193,24.193,0,0,0-1.972,2.9.191.191,0,0,0-.362-.007,8.646,8.646,0,0,1-1.573,2.373,21.349,21.349,0,0,0-1.519,2.018,23.375,23.375,0,0,1-3.581,4.115c-.652.639-1.36,1.22-1.967,1.906a17.6,17.6,0,0,0-1.545,2.119,20.915,20.915,0,0,1-1.529,2.138,4.583,4.583,0,0,0-1.061,1.759c-.02.078.1.122.12.042a6.064,6.064,0,0,1,1.438-2.156c.585-.7,1.043-1.506,1.558-2.258a33.553,33.553,0,0,1,3.887-4.166c.6-.617,1.269-1.158,1.827-1.813.541-.637.962-1.36,1.436-2.046.51-.738,1.149-1.362,1.68-2.085.057-.078.118-.155.179-.232-.183.3-.367.607-.556.906a20.3,20.3,0,0,0-2.359,5.884c-.649.733-1.306,1.463-1.947,2.205a29.178,29.178,0,0,0-2.295,2.937c-.308.463-.39.989-.688,1.457-.147.233-.252.279-.252.595,0,.069.108.078.11.007,0-.245.463-.869.569-1.168a5.6,5.6,0,0,1,.914-1.5c.7-.967,1.494-1.825,2.261-2.736.377-.449.791-.875,1.2-1.3-.139.575-.265,1.147-.385,1.72a21.581,21.581,0,0,0-.216,4.3,8.82,8.82,0,0,0,.559,3.189,14.031,14.031,0,0,0,1.695,2.994c-.754.208-1.387.769-2.131,1.033-.852.3-1.57.772-2.4,1.122-1.075.453-2.106,1-3.206,1.4a8.727,8.727,0,0,1-3.855.377c-1.288-.106-2.6-.11-3.875-.286-1.245-.169-2.433-.483-3.689-.607a10.792,10.792,0,0,0-3.466,0c-1.007.228-1.964.637-2.969.877a17.407,17.407,0,0,1-4.208.232c-1.093,0-2.17.182-3.27.132a22.8,22.8,0,0,1-3.316-.416c-1-.194-1.83-.86-.635-1.82.652-.524,1.555-.76,2.232-1.323A16.178,16.178,0,0,0,5.643,271.6a51.235,51.235,0,0,1,3.581-3.787,12.329,12.329,0,0,0,3.153-3.88c.8-1.854.324-3.9.811-5.816a9.659,9.659,0,0,0,.419-1.541c.066-.71-.088-1.183.353-1.845a4.936,4.936,0,0,1,2.4-1.594c1.717-.7,3.522-1.085,5.23-1.808a5.028,5.028,0,0,0,2.88-2.352,10.419,10.419,0,0,0,.544-2.389,3.291,3.291,0,0,1,.654-2.026c.115-.133.259-.262.372-.4a14.689,14.689,0,0,0,2.452-5.96,15.133,15.133,0,0,1,2.89-5.59,12.119,12.119,0,0,1,2.533-2.342,3.417,3.417,0,0,1,2.014-.8c2.075-.3,4.093-.659,6.192-.8,2.084-.139,4.132-.02,6.209-.284a21.769,21.769,0,0,0,2.741-.341,19.006,19.006,0,0,1,2.967-.929M39.229,215.033a15.3,15.3,0,0,0,4.651-.1,6.459,6.459,0,0,0,.7.086.131.131,0,0,0,.02-.262,7.877,7.877,0,0,0,1.585-.659c1.332-.742,2-2.6,3.633-2.523,1.281.063,2.351.466,3.594.451.019.994.051,2-.024,2.981-.061.809-.054,1.325.612,1.849s1.545.47,2.266.8a8.143,8.143,0,0,1,1.6,1.392,15.279,15.279,0,0,0,1.489.97c1.136.762,2.219,1.514,3.386,2.239,1.019.632,2.033,1.259,3.06,1.877a5.485,5.485,0,0,0,2.783.973,5.446,5.446,0,0,1,1.588.477l.3.184c-.046.005-.093.012-.137.019a.192.192,0,0,0-.083,0c-.144.027-.2.091-.324.122a1.422,1.422,0,0,1-.473.052,1.025,1.025,0,0,0-.343-.09,1.049,1.049,0,0,0-.145,0,14.115,14.115,0,0,1-1.605-.34,17.946,17.946,0,0,1-3.17-1.332c-1.705-1-3.65-1.68-5.2-2.893-.835-.651-1.516-1.458-2.339-2.114a3.587,3.587,0,0,0-2.329-.554c-1.556-.068-1.965-1.127-2.028-2.531-.047-1.043-.238-2.126-.2-3.169a.055.055,0,0,0-.11-.007c-.034.647.049,1.3.056,1.952.007.591.047,1.2.093,1.786a2.3,2.3,0,0,0,.98,1.888c.919.549,2.092.029,3.03.549a6.923,6.923,0,0,1,1.4,1.33,14.09,14.09,0,0,0,1.176,1.071,14.723,14.723,0,0,0,2.684,1.729c1.026.532,2.031,1.1,3.064,1.617a13.993,13.993,0,0,0,3.476,1.315l.042.007a3.643,3.643,0,0,1-.379.14,24.514,24.514,0,0,0-4.51,1.4,11.576,11.576,0,0,0-2.17,1.408.5.5,0,0,0-.679-.348l-.171-.081a.2.2,0,0,0-.206-.183c-.063,0-.125,0-.186.007-1.264-.556-2.56-1.026-3.775-1.7a31.447,31.447,0,0,1-3.15-2.031,23.8,23.8,0,0,1-4.667-5.266A11.452,11.452,0,0,0,43.263,216a14.784,14.784,0,0,0-3.38-.823,5.772,5.772,0,0,1-.654-.14m2.81-12.393a6.556,6.556,0,0,0,0-2.616c-.274-1.181-1.425-2.5-.074-3.444.789-.549,2.92.27,3.861.238a15.157,15.157,0,0,0,3.1-.862c.943-.228,1.83.189,2.761-.14a6.5,6.5,0,0,1,1.918-.561c.578-.037,1.152.024,1.73.029.014.482.044.965.081,1.457a35.56,35.56,0,0,0,.4,5.4,11.6,11.6,0,0,0,1.781,3.929A23.991,23.991,0,0,0,60.917,210c1.183,1.139,2.944,2.337,3.628,3.87a21.653,21.653,0,0,1,.764,3.123c.235.877.436,1.761.629,2.648a7.962,7.962,0,0,0,.536,1.73,6.525,6.525,0,0,0,1.034,2.136c-.166-.061-.336-.127-.507-.206a.11.11,0,0,0-.022-.182c-.291-.144-.458-.654-.7-.892a8.562,8.562,0,0,1-1.367-1.653,29.4,29.4,0,0,0-2.073-2.711,16.459,16.459,0,0,1-2.058-3.02,9.032,9.032,0,0,1-1.029-3.64c0-.091-.137-.1-.142-.012a8.884,8.884,0,0,0,.845,3.539,15.792,15.792,0,0,0,2.077,3.236c.429.586.918,1.114,1.338,1.71.434.613.808,1.264,1.235,1.881.36.52.865.884,1.235,1.389-1.321-.767-2.727-1.468-4.039-2.281a.1.1,0,0,0,.125-.1c-.005-.059-.01-.115-.014-.172a.114.114,0,0,0-.071-.083c-.4-.179-.808-.843-1.109-1.158a11.027,11.027,0,0,1-.973-1.215,21.753,21.753,0,0,1-1.761-2.589,5.5,5.5,0,0,1-.541-3.125,3.109,3.109,0,0,0-.527-1.942c-.314-.473-.674-.9-.965-1.392a5.777,5.777,0,0,0-.541-.864,6.574,6.574,0,0,1-.916-1.164c-.237-.444-.434-.907-.652-1.36a9.184,9.184,0,0,1-.907-2.825,17.46,17.46,0,0,1-.166-3.013.063.063,0,0,0-.125-.01,11.084,11.084,0,0,0,.848,5.707,11.225,11.225,0,0,0,1.3,2.464,16.508,16.508,0,0,1,1.862,2.77c.6,1.071.12,2.128.326,3.253a7.153,7.153,0,0,0,1.169,2.653,27.223,27.223,0,0,0,1.874,2.57,13.28,13.28,0,0,0,1.1,1.12c.086.081.573.336.591.412a.086.086,0,0,0,.034.046,16.98,16.98,0,0,1-1.5-1.033c-.958-.745-1.965-1.3-2.863-2.136a3.812,3.812,0,0,0-1.575-1c-.45-.135-1.369-.193-1.686-.566-.3-.345-.084-1.256-.091-1.659a25.257,25.257,0,0,0-.228-2.814.474.474,0,0,0-.549-.37,7.186,7.186,0,0,1-2.249-.15.228.228,0,0,0,.027-.223,45.9,45.9,0,0,1-1.489-5.33,15.836,15.836,0,0,1-.652-2.861,12.663,12.663,0,0,1,.079-2.511c.218-.049.213-.414-.025-.406l-.172.007a.227.227,0,0,0-.225.147c-.713,2.32-.025,4.319.35,6.616.134.818.341,3.608,1.315,4.424a6.054,6.054,0,0,0-1.487-.073c-1.146.1-1.517.647-2.156,1.511a4.758,4.758,0,0,1-1.054,1.022.086.086,0,0,0-.046-.034,14.384,14.384,0,0,1-4.221-1.773c-1.269-.759-3.184-1.494-4.189-2.564-.09-.095-.238.034-.152.13,1.087,1.21,2.988,1.981,4.384,2.805a9.507,9.507,0,0,0,3.951,1.619,7.707,7.707,0,0,1-2.783.987,12.731,12.731,0,0,1-4.569-2.564c-.1-.091-.264.046-.162.14a14.143,14.143,0,0,0,3.123,1.952c.389.215.742.4,1.092.553a26.207,26.207,0,0,1-4.422.093c-.368-.166-.738-.346-1.161-.519-.465-.189-1.127-.223-1.477-.593-.335-.353-.24-.514-.171-1,.139-.982.473-1.884.7-2.846a11.319,11.319,0,0,1,.7-2.472c.581-1.159,1.458-1.286,2.592-1.643a3.87,3.87,0,0,0,2.812-2.878m27.486-33.3a3.211,3.211,0,0,0-.884,1.43c-.373,1.127-.23,2.141-1.7,2.4a4.212,4.212,0,0,1-2.05-.554c-1.428-.651-3.593-3.873-5.4-2.092-2.246,2.212-.578,5.886-2.009,8.318-.635,1.076-1.69,1.916-1.9,3.192a12.794,12.794,0,0,0,.34,4.5c.051.267.09.529.117.789-.46-.992-.793-2.038-1.266-3.032a22.519,22.519,0,0,0-2.2-3.388c-.74-1.036-1.349-2.16-2.124-3.172a39.5,39.5,0,0,1-2.347-3.476,32.452,32.452,0,0,1-2-3.4,27.783,27.783,0,0,1-1.587-3.941c-.353-1.257-.5-2.557-.771-3.829a23.486,23.486,0,0,0-1.058-3.54,14.3,14.3,0,0,0-1.524-3.1,27.1,27.1,0,0,1-2.2-3.393.071.071,0,0,0-.127.063,36.544,36.544,0,0,0,2.352,3.782,14.255,14.255,0,0,1,1.6,4.029c.348,1.325.688,2.592.914,3.948a20.278,20.278,0,0,0,.918,3.6,37.138,37.138,0,0,0,3.726,7.03c.662,1.061,1.426,2.031,2.143,3.052.755,1.08,1.392,2.232,2.209,3.27a15.831,15.831,0,0,1,2.043,3.513,11.934,11.934,0,0,0,1.338,2.68,18.588,18.588,0,0,1-.487,4.311c-.2-.385-.3-.838-.471-1.237a16.517,16.517,0,0,0-.787-1.577c-.6-1.048-1.259-2.085-1.926-3.091-1.24-1.867-2.9-3.39-4.164-5.232a11.474,11.474,0,0,0-1.073-1.146c-.343-.384-.522-.88-.835-1.288a27.735,27.735,0,0,1-2.06-2.852c-.575-.97-.965-1.989-1.448-3a30.957,30.957,0,0,1-1.4-3.238c-.434-1.25-.762-2.54-1.125-3.811a15.079,15.079,0,0,1-.811-3.14c0-.056-.1-.049-.1.007a14.337,14.337,0,0,0,.83,3.613c.355,1.284.689,2.579,1.147,3.829.419,1.144,1,2.2,1.463,3.321A20.518,20.518,0,0,0,44.5,176.7c.593.933,1.4,1.73,1.959,2.667.512.853,1.249,1.447,1.812,2.264.659.958,1.512,1.783,2.259,2.672a27.011,27.011,0,0,1,2.288,3.136c.61.982,1.291,1.916,1.813,2.951a12.414,12.414,0,0,1,.681,1.578,2.334,2.334,0,0,0,.25.531c-.012.061-.024.12-.037.181a10.007,10.007,0,0,0-.167,1.4l-.039-.007c-.382-.5-.71-1.036-1.112-1.514a10.025,10.025,0,0,1-1.247-1.386,17.369,17.369,0,0,0-2.082-2.8c-.9-1.027-1.786-2.067-2.694-3.086a22.806,22.806,0,0,1-2.687-3.155c-1.139-1.884-2.729-3.459-3.733-5.446-.487-.962-.955-2-1.349-3.008-.2-.507-.314-1.031-.554-1.521a9.317,9.317,0,0,1-.45-1.654c-.318-1.124-.725-2.251-1.092-3.361a10.363,10.363,0,0,0-1.37-2.562c-.608-.889-1.239-1.776-1.9-2.626-.367-.475-.757-.931-1.119-1.408-.282-.372-.485-.794-.767-1.163-.323-.419-.733-.691-1.054-1.127a9.222,9.222,0,0,0-.9-1.027,26.245,26.245,0,0,1-2.09-2.564,27,27,0,0,1-3.488-6.092c-.47-1.151-.894-2.318-1.327-3.483-.45-1.208-.73-2.447-1.1-3.681a22.731,22.731,0,0,1-.7-3.341,3.59,3.59,0,0,0-.49-1.937c-.054-.063-.137.017-.095.081a3.476,3.476,0,0,1,.306,1.686c.057.618.14,1.249.253,1.861.233,1.264.654,2.518.984,3.762s.836,2.454,1.284,3.66a28.969,28.969,0,0,0,1.588,3.682,48.022,48.022,0,0,0,3.486,5.453c.639.88,1.455,1.614,2.107,2.484.3.4.725.615,1,1.029.25.377.468.75.749,1.105a30.219,30.219,0,0,1,3.953,5.649c.477,1.021.71,2.17,1.1,3.231.237.64.321,1.286.514,1.932.135.456.389.864.536,1.32a26.985,26.985,0,0,0,2.8,5.68,27.268,27.268,0,0,0,1.962,2.53c.331.424.554.9.86,1.34a12.994,12.994,0,0,0,1.068,1.254c1.631,1.791,3.261,3.583,4.845,5.418a10.341,10.341,0,0,1,1.188,1.565,5.785,5.785,0,0,0,.652,1.033c.357.39.786.684,1.115,1.107.272.35.531.7.813,1.046A7.219,7.219,0,0,0,53.072,194c-.96-1.142-1.938-2.264-2.984-3.336-1.164-1.191-2.278-2.422-3.365-3.7-1.124-1.318-2.249-2.633-3.312-4a46.624,46.624,0,0,1-2.8-4.275,28.541,28.541,0,0,1-2.3-3.9,23.409,23.409,0,0,1-1.278-4.635,12.417,12.417,0,0,0-1.539-4.027,17.612,17.612,0,0,0-1.181-1.839c-.451-.591-1.009-1.065-1.506-1.612-1.039-1.147-2.026-2.312-2.962-3.542a17.211,17.211,0,0,1-1.252-1.947c-.36-.646-.514-1.384-.855-2.04-.032-.063-.13-.015-.1.046.377.73.534,1.558.973,2.256.419.666.806,1.335,1.276,1.967a33.67,33.67,0,0,0,3.348,3.959,14.917,14.917,0,0,1,2.682,3.941,19.33,19.33,0,0,1,1.21,4.65,17.456,17.456,0,0,0,1.443,4.111c.738,1.438,1.734,2.736,2.533,4.142,1.644,2.9,3.973,5.332,6.055,7.909a12.22,12.22,0,0,0,.911.889,6.409,6.409,0,0,1,.578.787,19.914,19.914,0,0,0,1.531,1.585,17.783,17.783,0,0,1,1.577,1.786,7.172,7.172,0,0,0,.806.914c-.179.042-.355.09-.534.149a5.038,5.038,0,0,1-2.232.319,4.6,4.6,0,0,0-1.685.324,7.362,7.362,0,0,1-2.778.654c-.691-.034-1.367-.23-2.058-.279a3.818,3.818,0,0,0-2.918.787c-.708.711-.39,1.61-.112,2.45a9.024,9.024,0,0,1,.745,3.29,2.518,2.518,0,0,1-.659,1.773A22.621,22.621,0,0,0,37.541,201a23.09,23.09,0,0,1-2.4-3.248,10.526,10.526,0,0,1-1.869-3.557,18.967,18.967,0,0,1-.471-4.307c-.248-2.827-.157-5.573-1.026-8.323a14.787,14.787,0,0,0-1.661-3.491,4.336,4.336,0,0,1,.845.992c.287.536.492,1.109.793,1.644.269.482.537.962.784,1.457a18.377,18.377,0,0,0,1.734,2.908,9.049,9.049,0,0,1,1.68,2.317c.382,1.129,0,2.6-.084,3.768a8.923,8.923,0,0,0,.061,3.329,10.067,10.067,0,0,0,1.09,2.538,1.947,1.947,0,0,0,1.507.97.053.053,0,0,0,.007-.1c-.82-.054-1.3-.929-1.556-1.612a17.1,17.1,0,0,1-.7-1.991,14.11,14.11,0,0,1,.194-4.38,5.3,5.3,0,0,0-.3-3.278c-.578-.987-1.468-1.779-2.1-2.743-.755-1.158-1.377-2.408-2.06-3.61-.3-.532-.483-1.156-.835-1.656a14.979,14.979,0,0,0-1.313-1.328c-.414-.456-.85-.918-1.278-1.391-.179-.237-.363-.471-.549-.711-.515-.661-1.053-1.4-1.55-2.192-.13-.257-.252-.517-.353-.779-.112-.292-.174-.622-.3-.911a4.48,4.48,0,0,1-.434-.874.085.085,0,0,0-.167.032,1.786,1.786,0,0,0,.069.321,9.3,9.3,0,0,1-.8-2.9c-.2-2.275,1.154-4.27.916-6.592a40.267,40.267,0,0,0-1.019-3.909c-.269-1.288-.466-2.558-.634-3.863a70.031,70.031,0,0,0-1.7-7.615c-.639-2.613-1.622-5.338-1.735-8.04a33.18,33.18,0,0,1,.269-4.128,2.838,2.838,0,0,1,.718-1.776,1.6,1.6,0,0,1,1.73-.786c.909.091,1.1.3,1.465,1.087a7.314,7.314,0,0,1,.316.9c.123.389.223.784.36,1.168a11.581,11.581,0,0,0,1.489,2.731,24.508,24.508,0,0,0,4.2,5.107,8.306,8.306,0,0,0,1.232.754,2.885,2.885,0,0,1,.722.6,11.121,11.121,0,0,0,2.092,1.607c1.5.914,3.466,2.153,5.274,2.165,1.926.012,2.907-2.967,4.792-1.5,1.761,1.372,2.646,3.637,3.606,5.582a20.448,20.448,0,0,0,3.887,5.347c.782.786,1.79,1.227,2.506,2.087a11.951,11.951,0,0,0,1.79,1.906c1.906,1.474,4.478,1.889,6.516,3.209a32.358,32.358,0,0,1,6.136,5.315.7.7,0,0,0,.106.1m17.936,4.128a11.072,11.072,0,0,0-1.125,1.732c-.6,1.088-1.225,2.166-1.735,3.3-1.105,2.459-1.959,5-2.9,7.52-.973,2.594-1.622,5.335-2.347,8.007-.37,1.367-.749,2.734-1.07,4.113a15.736,15.736,0,0,0-.3,1.578c-.1-.6-.2-1.207-.314-1.812-.184-1-.324-2.006-.456-3.01a12.447,12.447,0,0,1,.37-2.553c.189-.661.4-1.318.542-1.991.336-1.517.728-3.027,1.029-4.551a49.012,49.012,0,0,1,1.294-4.97,38.922,38.922,0,0,1,1.25-4.34c.017-.044-.051-.068-.069-.025a10.9,10.9,0,0,0-.728,2.322c-.184.769-.45,1.511-.681,2.266a42.712,42.712,0,0,0-1.171,4.453c-.177.923-.4,1.82-.646,2.726-.215.782-.3,1.585-.487,2.374s-.463,1.575-.63,2.374a8.5,8.5,0,0,0-.132,1.465c-.162-1.271-.318-2.543-.536-3.809a84.08,84.08,0,0,1-1.075-17.324.121.121,0,0,0-.242-.017,55.085,55.085,0,0,0-.313,9.353,77.923,77.923,0,0,0,1.073,8.375c.3,1.795.531,3.6.777,5.408-1.164-4.047-1.861-8.238-3.228-12.25-.759-2.224-1.7-4.377-2.564-6.562a16.7,16.7,0,0,1-1.022-3.118,4.662,4.662,0,0,0-.541-1.883c-.054-.083-.184-.025-.14.068a14.878,14.878,0,0,1,.585,2.6,23.423,23.423,0,0,0,.892,2.449c.826,2.085,1.725,4.142,2.474,6.259,1.457,4.122,2.248,8.443,3.506,12.6a.041.041,0,0,0,.061.02c.134.963.269,1.925.421,2.883a23.638,23.638,0,0,1-.007,9.389c-.632,2.479-.211,4.6.184,7.092a16.513,16.513,0,0,0,1.392,4.248c-.01.1-.027.2-.032.309a.017.017,0,1,0,.034,0c.007-.081.019-.164.029-.248.4.877.845,1.734,1.267,2.567a27.684,27.684,0,0,0,4.4,6.08,10.836,10.836,0,0,0,4.4,3.256,3.287,3.287,0,0,0-.649.1,7.333,7.333,0,0,0-1.06.409,28.637,28.637,0,0,1-3.638-1.131l-.683-.441a11.053,11.053,0,0,1-3.314-3.79c-1.641-2.842-2.775-5.967-4.453-8.779-1.524-2.552-3.064-5.274-5.291-7.27a29.866,29.866,0,0,0-2.849-2.4,7.479,7.479,0,0,0-2.653-1.634c-.113-.022-.145.159-.041.194a7.819,7.819,0,0,1,2.133,1.472,18.181,18.181,0,0,1,1.686,1.284,20.239,20.239,0,0,1,2.971,2.934,48.452,48.452,0,0,1,5.027,8.111,38.659,38.659,0,0,0,4.14,7.647,11.986,11.986,0,0,0,1.943,2.148c-.385-.137-.771-.27-1.154-.409a25.769,25.769,0,0,1-2.788-3.1,23.47,23.47,0,0,1-2.09-3.385,28.785,28.785,0,0,0-1.815-2.476,29.326,29.326,0,0,0-4.61-4.836,26.468,26.468,0,0,0-2.56-1.942,14.249,14.249,0,0,0-2.107-1.414,6.56,6.56,0,0,0-1.37-1.943c-2.594-2.705-5.891-5.34-6.92-9.119a21.894,21.894,0,0,1-.46-5.308c-.02-.715-.14-1.4-.142-2.114a.531.531,0,0,0,.035-.659c.1-1.012.357-1.942.537-2.942a13.971,13.971,0,0,0,.145-4.318,17.741,17.741,0,0,1-.47-4.755c.191-1.529,1.636-2.476,2.084-3.907.434-1.391.162-2.971.3-4.4.174-1.815,1.174-4.59,3.493-2.9a13.555,13.555,0,0,0,2.435,1.862c1.558.686,3.447,1.1,4.117-.847.243-.71.233-1.546.8-2.117.669-.671,1.222-.336,1.891-.73a5.021,5.021,0,0,0,1.5-2.187c.622-1.261.7-2.631,1.426-3.858a5.029,5.029,0,0,1,1.328-1.634c1.217-.808,2.5-.113,3.317.735a14.568,14.568,0,0,1,2.912,3.7,23.077,23.077,0,0,0,.9,2.124c.38.632.845,1.227,1.254,1.84A11.253,11.253,0,0,0,86.778,173c.221.166.451.319.683.468m12.9,22.279a10.2,10.2,0,0,1,3.081,9.666,10.594,10.594,0,0,0,.02,3.135c.027.345.059.716.052,1.083-.049-.461-.093-.921-.106-1.379a.069.069,0,0,0-.139-.008,21.331,21.331,0,0,0,.022,2.525,1.705,1.705,0,0,1-.767.821,10.363,10.363,0,0,1-1.328.394,1.916,1.916,0,0,0-1.349,1.752c-.216,1.641.007,3.157-.941,4.65-.831,1.313-2.317,2.021-3.343,3.158a9.6,9.6,0,0,0-1.8,3.027c-.556,1.541-.815,3.255-1.32,4.828a19.891,19.891,0,0,0-.95,4.032c-.362.218-.732.417-1.078.661a13.713,13.713,0,0,1-1.756,1,6,6,0,0,1-2.043.548.159.159,0,0,0-.22-.032c-.032.024-.068.042-.1.066-.377.032-.755.054-1.127.076a36.478,36.478,0,0,1-4.1.343,7.805,7.805,0,0,1-1.835-.282c-.524-.157-.965-.48-1.479-.647-.777-.253-1.154.172-1.4.872-.247.717-.33,1.45-1.075,1.833a4.276,4.276,0,0,1-1.876.517,6.223,6.223,0,0,1-2.121-.5,2.948,2.948,0,0,0-1.286-.047c-.483.049-1.163-.13-1.619.081-.406.189-.615.679-.943.963-.035.032.014.088.051.057a3.639,3.639,0,0,0,.407-.416,1.407,1.407,0,0,1,1.418-.441,6.845,6.845,0,0,1,2.136.133,4.492,4.492,0,0,0,3.163.2,2.431,2.431,0,0,0,1.72-1.347c.294-.7.385-2.026,1.494-1.577a12.287,12.287,0,0,0,1.418.613,8.681,8.681,0,0,0,1.119.225,10.087,10.087,0,0,0-1.011.652,16.018,16.018,0,0,0-1.818,1.283c-.624.517-1.142,1.158-1.779,1.658a9.967,9.967,0,0,1-2,1.3c-.024.01-.01.051.014.044a6.888,6.888,0,0,0,1.558-.889,8.074,8.074,0,0,0,1.46-1.2,13.094,13.094,0,0,1,1.987-1.6,10.75,10.75,0,0,1,.977-.534c.38-.194.728-.561,1.185-.561a.141.141,0,0,0,.14-.093c.093.005.188.008.282.01a2.714,2.714,0,0,0-.8.548c-.455.407-.941.784-1.384,1.2a4.561,4.561,0,0,0-1.474,2.755c-.008.078.106.083.12.008a4.657,4.657,0,0,1,1.685-2.768,8.264,8.264,0,0,1,1.945-1.47c.223.022.223.01.424-.13a.111.111,0,0,0,.039-.149c.191-.008.379-.022.566-.044l.191-.027-.108.1c-.471.463-1.036.82-1.492,1.3a13.705,13.705,0,0,1-1.343,1.333,1.6,1.6,0,0,0-.693.882c-.015.064.079.1.1.036.147-.5.624-.727,1.005-1.022a6.585,6.585,0,0,0,.826-.813,8.662,8.662,0,0,1,1.166-1.016c.346-.265.855-.934,1.333-.9v-.005a.1.1,0,0,0,.09-.032c.228-.035.46-.064.693-.088-.718.573-1.452,1.1-2.19,1.648a4.017,4.017,0,0,0-.777.737c-.093.118-.314.688-.48.725a.043.043,0,1,0,.015.085l.172-.019a.05.05,0,0,0,.039-.034c.242-.814,1.046-1.257,1.717-1.681A13.78,13.78,0,0,0,84.6,236.16l0,0a.123.123,0,0,0,.044-.076c.343-.019.688-.027,1.034-.039a12.718,12.718,0,0,0-1.389.816c-.441.321-.919,1.337-1.519,1.235-.073-.012-.1.108-.027.125.569.139.967-.429,1.315-.787a11.609,11.609,0,0,1,2.269-1.416l.076,0a6.557,6.557,0,0,0,1.8-.365,39.6,39.6,0,0,1-3.534,2.739,20.555,20.555,0,0,0-3.131,2.045,8.939,8.939,0,0,1-2.79,1.91,23.184,23.184,0,0,0-3.528,1.379,9.708,9.708,0,0,1-1.414.825,6.01,6.01,0,0,1-2.687.1,7.067,7.067,0,0,0-2.856,0,5.484,5.484,0,0,0-2.153,1.418,19.03,19.03,0,0,1-1.636,1.879,5.5,5.5,0,0,0-.191-.569,9.7,9.7,0,0,1-.272-6.16,4.3,4.3,0,0,0,.764-.384,2.374,2.374,0,0,1-.135.213,2.109,2.109,0,0,0-.5.973c-.017.084.13.115.149.032.133-.629.652-1.016.945-1.545.3-.548.507-1.068.864-1.6.406-.6.635-1.146,1.32-1.487a5.455,5.455,0,0,1,2.261-.449c2.079-.034,4.485.889,5.884-1.161.166-.243.306-.507.448-.765.428-.777.252-.752,1.247-1.038,1.011-.289,1.264-.03,2.183.223a15.81,15.81,0,0,0,3.792.3,10.2,10.2,0,0,0,3.924-.76c.323-.125.63-.262.94-.392.186,0,.373-.008.564-.017a.187.187,0,0,0,.171-.265c.145-.049.289-.1.441-.139a3.245,3.245,0,0,0,1.112-.428.192.192,0,0,0-.122-.358c-.218.014-.436.015-.652.015a.116.116,0,0,0-.086-.122c-1.129-.265-2.471-1.712-3.278-2.479a30.554,30.554,0,0,1-2.474-2.751,27.152,27.152,0,0,1-3.456-5.56,3.507,3.507,0,0,1,.188-.776,9.021,9.021,0,0,0,.39-1.149,17.944,17.944,0,0,1,1.4-3.782c1.07-2.237,1.986-4.517,3.241-6.661a55.206,55.206,0,0,1,3.853-5.957,13.63,13.63,0,0,1,2.455-2.629,16.711,16.711,0,0,0,2.427-1.566c.044-.047-.015-.12-.066-.076-.781.711-1.842.973-2.658,1.636a14.961,14.961,0,0,0-2.251,2.406,52.938,52.938,0,0,0-4.079,6.313c-1.252,2.16-2.171,4.471-3.219,6.732a16.322,16.322,0,0,0-1.2,3.287c-.142.635-.421,1.232-.551,1.864-.01.056-.015.113-.024.171-.154-.318-.306-.64-.455-.965-.2-.446-.411-.891-.6-1.34a43.771,43.771,0,0,1,1.714-5.095c.754-2.033,1.681-4.012,2.624-5.962a35.021,35.021,0,0,1,7.327-10.479.05.05,0,0,0-.066-.074c-3.309,2.67-5.517,6.476-7.351,10.247a63.965,63.965,0,0,0-2.765,6.345,39.065,39.065,0,0,0-1.538,4.89,12.121,12.121,0,0,1-.757-2.327c-.218-1.085-.279-2.19-.5-3.277A8.526,8.526,0,0,1,78.1,208.9a15.443,15.443,0,0,0,.328-3.265c.022-.624.015-1.24-.012-1.855a8.042,8.042,0,0,1,.348-2,27.6,27.6,0,0,1,1.017-2.949c.928-1.982,1.6-4.052,2.685-5.958a23.727,23.727,0,0,0,1.333-2.79,32.151,32.151,0,0,1,1.668-3.236c.463-.847.921-1.7,1.328-2.57a8.422,8.422,0,0,1,1.619-2.67c.049-.044-.017-.12-.066-.078a6.262,6.262,0,0,0-1.441,2.058c-.505,1.009-1.016,2.009-1.56,3a33.331,33.331,0,0,0-1.659,3.152,28.471,28.471,0,0,1-1.548,3.241,64.738,64.738,0,0,0-2.658,6.016,23.072,23.072,0,0,0-.955,2.979,5.819,5.819,0,0,0-.169.847c-.073-.934-.189-1.862-.333-2.79a23.551,23.551,0,0,1,.6-2.655c.345-1.3.706-2.589,1.07-3.88.7-2.471,1.306-4.994,2.21-7.4.439-1.176.885-2.327,1.271-3.523s.934-2.313,1.413-3.471a38.1,38.1,0,0,1,1.791-3.523,15.4,15.4,0,0,1,1.252-2,6.419,6.419,0,0,1,2.668,2.467c.973,1.992.683,4.77,3.081,5.773a11.749,11.749,0,0,1,2.2.977,4.642,4.642,0,0,1,1.665,2.775,7.758,7.758,0,0,1,.455,2.308.55.55,0,0,0,.007.475,14.37,14.37,0,0,1-.137,1.681c-.35,2.685,1.009,3.9,2.782,5.712m3.8-9.833c.25-.022.509-.03.776-.035a3.443,3.443,0,0,0,2.023-.3,3.188,3.188,0,0,0,.735-1.156,2.441,2.441,0,0,0-.024.505,4.6,4.6,0,0,0,.38,1.085,4.73,4.73,0,0,1,.243,2.156.43.43,0,0,0-.029.515c-.008.242-.014.485,0,.737a25.107,25.107,0,0,0,.87,6.026,7.524,7.524,0,0,0,.422,1.049,17.786,17.786,0,0,0,.463,1.982,16.988,16.988,0,0,0,.76,2.4c.338.74.8,1.418,1.142,2.156a13.686,13.686,0,0,0,1.107,2.269c.456.639.848,1.279,1.267,1.94.433.679,1.041,1.119,1.017,1.994-.025.975-.139,1.96-.21,2.934-.137,1.926-.275,3.855-.4,5.783a35.821,35.821,0,0,0-.189,5.332,38.874,38.874,0,0,0,.933,5.027,7.3,7.3,0,0,0,1.659,3.811,7.753,7.753,0,0,0,.73.512c.294.221.5.514.769.757.522.47,1.2.715,1.759,1.146.095.076.2-.079.1-.154a8.929,8.929,0,0,0-1.078-.7,5.194,5.194,0,0,1-1.063-.926c-.59-.6-1.247-.924-1.671-1.71a18.012,18.012,0,0,1-1.32-4.95,19.354,19.354,0,0,1-.35-5.609q.221-2.682.431-5.367c.144-1.844.287-3.689.417-5.534a2.46,2.46,0,0,0-.314-1.643c-.368-.578-.8-1.087-1.132-1.695-.373-.676-.938-1.21-1.286-1.9-.382-.755-.664-1.555-1.071-2.3a12.741,12.741,0,0,1-1.163-2.489c-.157-.534-.323-1.071-.473-1.612.585.892,1.239,1.752,1.778,2.613a10.879,10.879,0,0,0,1.681,2.518c.042.884.845,1.636,1.82,2.237.7.853,1.45,1.673,2.22,2.469,1.212,1.254,2.521,2.41,3.741,3.659s2.609,2.188,3.839,3.4a3.812,3.812,0,0,0,1.144.764c.637.294,1.229.725,1.864,1a15.049,15.049,0,0,0,4.01.563,5.134,5.134,0,0,0,3.1-.183,20.136,20.136,0,0,1,4.987-1.913c3.17-.583,6.487,2.4,9.015,4.062a14.675,14.675,0,0,0,7.871,2.569,4.882,4.882,0,0,0,3-1.071,5.62,5.62,0,0,1,3.326-1.658,19.568,19.568,0,0,0,3.647-.578c1.369-.443,2.354-1.156,3.834-1.332,1.5-.179,2.547-1,3.968-1.381a22.249,22.249,0,0,1,4.426-.181c1.749-.073,3.745,1.014,5.2,1.911a7.176,7.176,0,0,1,2.915,3.212,26.242,26.242,0,0,1,1.051,2.564.069.069,0,0,0,.027.074A18.729,18.729,0,0,1,190,230.055a12.191,12.191,0,0,0,2.075,7.378,8.106,8.106,0,0,0,2.765,2.386,6.905,6.905,0,0,1,2.78,3.719,13.316,13.316,0,0,1,1.2,5.255c-.041.955-.177,1.646-1.186,2.06a5.439,5.439,0,0,0-1.129.412c-2.205,1.517.09,5.154-2.422,6.746a3.25,3.25,0,0,1-2.337.335,2.46,2.46,0,0,1-2.033-1.761,2.245,2.245,0,0,0-1.441-1.365c-2.395-1.12-.517-1.577-1.392-3-.324-.524-1.056-.591-1.475-1.043-.794-.852-.689-2.131-1.607-2.908-1.071-.909-2.438-.3-3.571-.99-.21-.186-.421-.373-.632-.559q-.915-.748.113-1.409c1.245-1.646-.056-.275,1.048-.673a7.407,7.407,0,0,0,1.115-.294,4.26,4.26,0,0,0,1.778-1.9,15.067,15.067,0,0,0,1.075-3.1c.331-1.2.515-2.954,1.367-3.915.161-.181-.145-.449-.313-.282-2.168,2.17-1.017,6.5-3.718,8.385-.889.62-1.533.27-2.334.331a.106.106,0,0,0-.132-.03.752.752,0,0,1-.147.069l-.01,0c-.646.2-.122-1.5-.022-1.686.118-.223.33-.419.468-.634a15.586,15.586,0,0,0,.887-1.678c.568-1.156.681-2.45,1.237-3.566.12-.242-.22-.411-.4-.274-.887.689-1.068,2.32-1.551,3.3-.274.553-.554,1.073-.864,1.582a2.045,2.045,0,0,1-1.778-1.8,2.208,2.208,0,0,1,.522-1.869,7.648,7.648,0,0,0,.982-1.453c.439-1.136-.181-1.8-1.011-2.472-.5-.4-1.12-.2-.558-1.413.155-.338.715-.688.98-.965a5.9,5.9,0,0,0,1.151-1.746c.684-1.572.493-3.27,1.267-4.8.639-1.259,1.337-2.893.776-4.314a4.151,4.151,0,0,0-3.138-2.053,9.005,9.005,0,0,0-4.872.913,15.048,15.048,0,0,1-2.7.926,3.049,3.049,0,0,0-1.445.634c-.1.091.017.286.139.206.826-.546,1.71-.323,2.619-.49a14.344,14.344,0,0,0,2.128-.8c2.114-.747,6.939-1.318,6.7,2.224-.117,1.741-1.507,2.866-1.693,4.563a7.847,7.847,0,0,1-.808,3.079,11.288,11.288,0,0,1-1.594,1.844,1.785,1.785,0,0,0-.233,2.4c.186.2.451.267.644.439a1.973,1.973,0,0,1,.717,1.729c-.128.62-.982,1.22-1.267,1.806-.642,1.318.534,4.721,2.109,3.98-.084.125-.166.25-.257.375a4.469,4.469,0,0,0-.439.683,1.045,1.045,0,0,0-.147-.063c-.324-.108-.7-.208-1.039-.286-.5-.113-1.076-.083-1.592-.145s-1.058-.142-1.588-.183c-2.116-.162-4.13.554-6.161,1.024a9.74,9.74,0,0,1-3.239.035c-.9-.095-1.8-.108-2.7-.176-.835-.064-1.619-.36-2.452-.461-.994-.12-1.975-.46-2.954-.676-1.837-.409-3.674-1.166-5.539-1.4-1.033-.132-2.05-.314-3.094-.4-.879-.069-1.7-.363-2.572-.443-.96-.086-1.864-.188-2.81-.367-.967-.183-1.96-.172-2.935-.341a57.158,57.158,0,0,1-6.028-1.12,16.82,16.82,0,0,1-2.832-1.2c-.85-.419-1.791-.642-2.6-1.144s-1.781-.875-2.552-1.428c-.465-.335-.83-.8-1.435-.847a.088.088,0,0,0-.014.176c.556.071.9.551,1.311.87a6.389,6.389,0,0,0,1.109.615,31.2,31.2,0,0,0,2.8,1.518c.962.372,1.837.906,2.78,1.311a14.8,14.8,0,0,0,3,.864,55.43,55.43,0,0,0,5.751.975,14.981,14.981,0,0,1,1.982.225,10.212,10.212,0,0,0,1.147.21c.434.044.87.034,1.3.078a12.96,12.96,0,0,1,1.4.3c1.036.22,2.1.184,3.14.407.852.184,1.695.243,2.547.47,1.869.5,3.763.913,5.629,1.423.946.259,1.9.336,2.841.6a10.945,10.945,0,0,0,2.408.213c.963.051,1.918.213,2.883.24a8.663,8.663,0,0,0,2.52-.362,16.552,16.552,0,0,1,5.889-.811,21.48,21.48,0,0,1,3,.363c.232.056.531.074.774.145a1.539,1.539,0,0,0-.076.419,1.3,1.3,0,0,0,.63,1.124,1.022,1.022,0,0,0-.164.208c-.487.808.034,1.942.519,2.606a3.831,3.831,0,0,0,1.225,1.115c.688.382,1.23.226,1.942.446,1.867.578,1.335,2.313,2.545,3.446a2.526,2.526,0,0,0,.629.343c-.744.014-1.431-.25-2.131.48-.49.509-.608.869-1.423.955-.738.079-1.516-.155-2.268-.108a24.651,24.651,0,0,1-9.49-1.33c-.728-.24-1.467-.3-2.192-.548-.659-.22-1.3-.473-1.948-.717a11.352,11.352,0,0,0-3.689-.74c-2.976-.12-5.762-1.021-8.715-1.328a20.835,20.835,0,0,1-5.337-1.4c.167-.069.228-.34.014-.4a2.91,2.91,0,0,0-1.212-.086c-.99-.422-1.969-.875-2.927-1.318-2.614-1.208-5.134-2.927-7.966-3.608-1.291-.309-2.6-.2-3.9-.509a10.56,10.56,0,0,0-1.6-.2c-.8-.069-1.512-.362-2.3-.461-3-.384-5.7-1.773-8.5-2.869a43.142,43.142,0,0,1-4.524-2c-1.038-.549-2.112-1.032-3.163-1.555-1.382-.689-2.626-1.646-4.015-2.351a15.82,15.82,0,0,1-2.618-1.359,8.929,8.929,0,0,1-.625-.715.772.772,0,0,1-.068-.36.15.15,0,0,0-.274-.095c-.341-.482-.652-.987-.953-1.5-1.338-2.3-.8-4.64-1.033-7.133a14.733,14.733,0,0,1,.821-6.989,5.178,5.178,0,0,0,.385-1.548,6.475,6.475,0,0,1,.7,2.684c.078.625.257,1.239.316,1.864a11.221,11.221,0,0,1-.128,2.06c-.008.086.128.1.137.008a11.627,11.627,0,0,0,.14-2.1c-.064-.723-.24-1.435-.314-2.16a4.364,4.364,0,0,0-.83-2.562,10.586,10.586,0,0,0-.032-1.568,6.019,6.019,0,0,0,.13-2.852,12.215,12.215,0,0,1-.059-1.332,10.1,10.1,0,0,1,1.2,2.824,7.338,7.338,0,0,1,.505,2.64,8.817,8.817,0,0,0,.169,1.136,15.152,15.152,0,0,1,.042,1.73c-.017,1.087-.1,2.17-.174,3.256a.059.059,0,0,0,.117.008c.1-1.229.243-2.459.265-3.692.019-1.007-.112-1.989-.117-2.979a10.225,10.225,0,0,0-.794-2.907,6.225,6.225,0,0,0-1.1-2.256.108.108,0,0,0-.11-.034,8.946,8.946,0,0,1,.194-1.453,13.983,13.983,0,0,0,.272-1.58,3.539,3.539,0,0,0,.372,1.249,6.11,6.11,0,0,1,.762,1.641,4.76,4.76,0,0,0,.35,1.232,17.539,17.539,0,0,1,1.6,6.792c.068,1.112-.2,2.222-.152,3.334.049,1.181.471,2.315.608,3.488.145,1.24.466,2.43.7,3.657a7.166,7.166,0,0,0,.762,2.587c.039.057.135-.008.1-.066a4.718,4.718,0,0,1-.48-1.578c-.15-.608-.226-1.217-.343-1.83-.1-.551-.282-1.085-.372-1.639-.1-.586-.1-1.183-.191-1.771a16.33,16.33,0,0,1-.471-3.414,18.4,18.4,0,0,0,.174-3.091,22.388,22.388,0,0,0-.357-3.054,13.522,13.522,0,0,0-.916-3.05,4.849,4.849,0,0,1-.6-1.555,3.138,3.138,0,0,0-.394-1.193,5.214,5.214,0,0,1-.885-2.193c-.007-.115-.179-.113-.215-.015-.014.039-.02.081-.03.123.007-.142.015-.284.012-.429a8.61,8.61,0,0,0-1.321-4.35,17.621,17.621,0,0,0-2.765-3.461c-1.293-1.262-2.313-2.4-2.121-4.329.061-.61.171-1.208.248-1.8a.649.649,0,0,0,.23-.044,10.285,10.285,0,0,0,2.876-1.262c.328-.259.6-.58.926-.836a2.9,2.9,0,0,1,.515-.319.625.625,0,0,0,.284.059l.379-.005a.743.743,0,0,0,.678-.389m18.173,10.252a8.893,8.893,0,0,0-3.089-3.571,28.592,28.592,0,0,0-2.418-1.671c.5.181.96.331,1.32.456,4.279,1.48,5.884,5.832,6.631,9.9l-.1.034a7.632,7.632,0,0,1-2.043.466,10.883,10.883,0,0,0-.3-5.612m-.62,5.632c-.409.024-.8.091-1.222.118-.661.044-1.308-.081-1.97-.022a6.65,6.65,0,0,1-2.219.052,5.154,5.154,0,0,1-2.851-2.131.486.486,0,0,0-.7-.115c-.323-.556-.669-1.1-.984-1.659a20.482,20.482,0,0,1-1.419-2.667,12.651,12.651,0,0,1-.5-2.851,24.382,24.382,0,0,1-.389-3.481c0-.086.005-.174.01-.26.84-.311,1.73-.654,2.633-.936.522,1.835,2.558,3.246,4.1,4.253a20.991,20.991,0,0,1,4.1,3.216c1.649,1.8,1.411,4.233,1.411,6.482m10.58-36.832c-.137.142-.267.291-.394.441a12.715,12.715,0,0,1-1.332.1c.573-.2,1.144-.4,1.725-.544M148.105,89.9c.161-.656.4-1.294.507-1.987a20.054,20.054,0,0,1,.537-2.538c.243-.86.238-1.747.465-2.609a14.69,14.69,0,0,0,.512-2.021,23.089,23.089,0,0,1,.394-3.277A17.552,17.552,0,0,0,151,74.893c.068-.64.191-1.286.314-1.933.167,1.817.3,3.637.483,5.452.088.857.164,1.71.235,2.564a4.469,4.469,0,0,0-.624,1.844,14.371,14.371,0,0,1-.987,3.145,12.718,12.718,0,0,1-2.322,3.934m-10.972,94.85a.359.359,0,0,0,.142-.64,11.968,11.968,0,0,0,.654-1.937c-.032.375-.063.755-.066,1.152a13.976,13.976,0,0,0,.373,2.81,15.671,15.671,0,0,0,1.347,3.882,10.626,10.626,0,0,1-1.568-2.467c-.181-.355-1.627-2.618-.882-2.8m-.093-16.557-.01-.078c-.171-1.734-.556-4.081-2.408-4.791a3.04,3.04,0,0,0-1.257-.188,24.842,24.842,0,0,0,2.131-3.473c1.964-3.5,4.444-6.655,6.486-10.1,1.764-2.988,3.278-6.116,4.747-9.255a55.2,55.2,0,0,0,4-10c.431-1.725,1.036-3.415,1.313-5.176.264-1.686.433-3.371.732-5.056.324-1.817.392-3.664.683-5.487.257-1.6.642-3.174.808-4.784a61.555,61.555,0,0,0,.262-10.288c-.134-1.947.076-3.9-.122-5.845-.191-1.872-.443-3.709-.527-5.593-.157-3.528-.529-6.961-.919-10.467-.4-3.594-.629-7.2-1.757-10.658-.133-.409-.766-.313-.676.133.122.612.225,1.227.318,1.84a.474.474,0,0,0-.215.274,44.827,44.827,0,0,0-1.114,6.163c-.149,1.029-.519,2.011-.7,3.035s-.052,2.033-.318,3.038c-.183.688-.348,1.377-.51,2.067.091-.94.117-1.893.2-2.815.289-3.349.808-6.692.2-10.028a79.635,79.635,0,0,0-1.906-9.21c-.473-1.526-1.272-2.869-1.708-4.422a14.18,14.18,0,0,0-1.494-3.224,21.73,21.73,0,0,1-2.69-8.529c-.323-3.483.4-7.239.681-10.715.248-3.082.147-6.085,1.261-9.009.568-1.5.8-3.17,1.649-4.542.6-.972,1.352-1.817,1.884-2.832a26.863,26.863,0,0,1,4.449-5.94,11.858,11.858,0,0,0-.747,1.8c-1.1,3.417-3.288,6.45-3.926,10.031-.272,1.528-.676,2.907-.835,4.461-.2,1.908-.74,3.745-.919,5.669a18.662,18.662,0,0,0,.1,4.6,20.519,20.519,0,0,0,.373,3.787c1.083,3.361,2.455,6.645,3.758,9.925,1.372,3.451,2.731,6.91,4.162,10.337A58.635,58.635,0,0,1,155.3,73.475c.737,3.459,1.458,6.913,2.08,10.4.4,2.256.9,4.536,1.245,6.825a17,17,0,0,0,.03,3.314c.14,1.512-.228,2.979-.022,4.5.433,3.168-.226,6.467-.458,9.649a29.779,29.779,0,0,1-.36,4.58,24.678,24.678,0,0,0-.662,3.049,24.249,24.249,0,0,1-.436,4.62,12.439,12.439,0,0,0-.556,3.06c-.115,1.578-.882,3.015-1.279,4.531a15.44,15.44,0,0,0-.284,3.417,16.372,16.372,0,0,1-1.088,4.46c-.4,1.254-.333,2.557-.732,3.828-.85,2.714-1.528,5.512-2.2,8.277a21.245,21.245,0,0,1-1.4,3.829c-.382.85-.536,1.717-.972,2.56-1.2,2.337-1.977,4.916-3.2,7.265-.613,1.173-1.453,2.214-2.035,3.405-.509,1.048-.629,2.315-1.5,3.153-.1.1.039.27.147.171a8.269,8.269,0,0,0,1.484-2.8c.666-1.391,1.751-2.53,2.489-3.882,1.357-2.474,2.491-5.09,3.7-7.626.33-.691.394-1.436.749-2.124.172-.333.38-.64.536-.984a23.374,23.374,0,0,0,1.08-3.7c.737-2.81,1.712-5.614,2.325-8.448.157-.718.12-1.447.282-2.161.174-.76.5-1.482.735-2.222a11.455,11.455,0,0,0,.542-3.446c.037-2.881,1.342-5.406,1.573-8.252.108-1.349.727-2.552.83-3.92a35.232,35.232,0,0,1,.3-3.934,26.3,26.3,0,0,0,.74-3.926c.059-1.507.162-3.008.272-4.512.015-.215.034-.428.052-.64.044,1.72-.225,3.434-.162,5.152.052,1.5.21,2.956.14,4.463a38.742,38.742,0,0,1-.867,5.539c-.309,1.636-.439,3.256-.8,4.894-.375,1.722-.456,3.463-.872,5.195-.387,1.609-.7,3.234-1.036,4.853a103.97,103.97,0,0,1-3.01,10.472c-1.063,3.3-1.879,6.673-2.923,9.979a94.29,94.29,0,0,1-4.27,10.09c-.7,1.572-1.72,3-2.383,4.58-.629,1.5-1.109,3.054-1.774,4.547a25.106,25.106,0,0,0-2.072,7,11.362,11.362,0,0,0,.135-1.95c-.042-.877-.23-1.636-.2-2.53a19.9,19.9,0,0,0-.527-3.532c-.128-.86.008-1.712-.2-2.558-.321-1.291-.355-2.863-1.436-3.787m-4.16,17.355-.014-.007c-2.024-.757-3.851.049-5.718.909-2.128.978-4.982.591-7.136-.223a11.038,11.038,0,0,0-5.771-.253c-.409.071-.831.164-1.257.267-.039-.142-.079-.286-.115-.434a.354.354,0,0,0-.674-.051,3.608,3.608,0,0,0-.193.75,17.554,17.554,0,0,0-2.413.916,3.7,3.7,0,0,0-.029-.654,8.45,8.45,0,0,0-.373-1.377c2.432-1.81,5.21-1.979,8.142-1.756,2.313.176,3.954,2,6.176,2.469a2.449,2.449,0,0,0,2.88-1.37c1.022-1.572,2.506-1.164,4.1-1.332a41.161,41.161,0,0,1,4.336-.46.125.125,0,0,0,.019-.248,17.216,17.216,0,0,0-3.853.24c-1.161.159-2.624-.171-3.726.323-.715.319-.967.913-1.413,1.5-1.208,1.58-2.915.727-4.331-.037a14.83,14.83,0,0,0-3.076-1.539,19.2,19.2,0,0,0-3.648-.336,9.2,9.2,0,0,0-5.847,1.685q-.035-.162-.056-.33c-.069-.544.005-.887-.428-1.289a.645.645,0,0,0-.722-.147c-.7.243-.771.725-1.159,1.269a2.045,2.045,0,0,1-1.752.686,30.286,30.286,0,0,1,2.224-2.354c.97-1.066,1.746-2.251,2.807-3.238a29.955,29.955,0,0,0,2.648-2.592,30.994,30.994,0,0,1,2.646-3.2,33,33,0,0,1,12.164-6.8,7.483,7.483,0,0,0-2.141,1.84,44.073,44.073,0,0,1-4.037,3.638c-1.122,1.036-2.019,2.477-3.223,3.381-.11.083.03.243.14.162,1.1-.806,1.845-2.011,2.881-2.91,1.156-1,2.481-1.766,3.635-2.761,1.207-1.041,1.967-2.22,3.515-2.812a13.893,13.893,0,0,1,3.079-.727c-.253.35-.492.691-.713,1a7.343,7.343,0,0,1-2.161,1.712c-.5.35-.715.9-1.154,1.306-.477.446-1.132.674-1.624,1.109-.509.453-.865,1.051-1.337,1.545-.122.128.056.338.183.211.416-.421.762-.948,1.2-1.337a12.236,12.236,0,0,1,1.529-.936,7.739,7.739,0,0,0,.955-.909,8.491,8.491,0,0,1,1.774-1.085,11.694,11.694,0,0,0,2.364-2.749c.216-.029.436-.059.656-.093a.452.452,0,0,0,.353-.526c-.02-.118-.041-.237-.063-.357a.308.308,0,0,0-.019-.056,3.54,3.54,0,0,1,.5-.372,1.43,1.43,0,0,1,.569.179,9.754,9.754,0,0,1-1.136,2.009,13.378,13.378,0,0,0-1.5,2.182c-.47.98-.72,2.053-1.188,3.04a15.638,15.638,0,0,0-1.171,2.638c-.042.164.2.252.25.09A22.228,22.228,0,0,1,131,171.878a26.611,26.611,0,0,1,1.387-3.016c.576-.864,1.335-1.582,1.872-2.476.088-.147.292-.463.475-.794a4.029,4.029,0,0,1,.341.963,3.549,3.549,0,0,0-.421.99,11.814,11.814,0,0,1-.921,2.52,16.4,16.4,0,0,0-1.286,5.058.126.126,0,0,0,.252.02,16.548,16.548,0,0,1,2.09-5.764,6.825,6.825,0,0,0,.519-1.362c.044.419.081.84.14,1.256a5.894,5.894,0,0,0-.155,1.577,6.981,6.981,0,0,1-.21,2.2c-.373,1.073-1.065,1.945-1.357,3.062a.191.191,0,0,0,.36.128c.47-1.283,1.572-2.391,1.817-3.753.044-.238.02-.82.029-1.43a13.553,13.553,0,0,1,.664,2.467c.01.073.017.149.027.223-.188.622-.377,1.247-.542,1.871a9.978,9.978,0,0,1-.328,1.144c-.01.025-.051.046-.063.078a4.805,4.805,0,0,0-.167,1.335.115.115,0,0,0,.23.015,2.931,2.931,0,0,1,.5-1.409,3.03,3.03,0,0,0,.277-1.068,7.981,7.981,0,0,1,.22-.794,21.835,21.835,0,0,1-.5,7.1,9.4,9.4,0,0,1-1.529,3.091c-.193.042-.373.1-.537.149a7.645,7.645,0,0,1-1.3.3m-5.987,15.008a.556.556,0,0,0,.02.144,10.6,10.6,0,0,0-1.741.448c-.188-.73-.228-1.85-.313-2.242a14.975,14.975,0,0,0-.573-1.986,10.823,10.823,0,0,0-2.629-4.125,12.154,12.154,0,0,0-4.39-2.438,13.819,13.819,0,0,1-2.2-1.264,2.221,2.221,0,0,1-1.283-1.676,8.967,8.967,0,0,1,1.438-.162,15.452,15.452,0,0,1,3.341-.014c.828.2,1.577.679,2.418.867,1.778.4,4.027.779,5.788.181.815-.277,1.555-.725,2.357-1.033a9.268,9.268,0,0,1,1.463-.407,8.576,8.576,0,0,0,2.717.211,13.343,13.343,0,0,1-1.1,1.4A4.665,4.665,0,0,0,131.142,191a12.754,12.754,0,0,1-1.668,3.49c-1.019,1.8-2.547,3.929-2.582,6.06m46.98,6.521c-1.526.362-2.947,1.294-4.527,1.281a37.543,37.543,0,0,1-3.861-.373c-.63-.071-1.254-.161-1.879-.26.26-.044.517-.086.774-.122,1.612-.221,3.174-.446,4.76-.8a21.923,21.923,0,0,0,4.282-1.049c.722-.324,1.5-.384,2.222-.7a7.515,7.515,0,0,0,1.751-.8c.066-.052-.008-.166-.081-.123a5.668,5.668,0,0,1-1,.357c-.394.14-.764.335-1.163.465a17.371,17.371,0,0,0-1.85.556,23.375,23.375,0,0,1-4.35,1.058c-1.536.36-3.062.563-4.623.784-.483.069-.97.164-1.458.259-2.185-.375-4.34-.858-6.535-1.208-3.027-.482-5.94-1.867-9.017-1.984-2.616-.1-4.632,1.269-6.876,2.417A12.144,12.144,0,0,1,134.5,208a1.379,1.379,0,0,1,.581-.274c.235-.051.478-.056.713-.1a16.89,16.89,0,0,0,2.729-.892,2.319,2.319,0,0,0,1.573-1.511,2.121,2.121,0,0,1,1.061-1.507c.436-.243.906-.429,1.355-.646.9-.441,1.859-.793,2.751-1.247.918-.47,1.722-1.132,2.646-1.594a6.87,6.87,0,0,1,3.236-.456,22.594,22.594,0,0,0,3.43-.407,11.131,11.131,0,0,0,2.82-.629,3.824,3.824,0,0,1,1.572-.546,4.919,4.919,0,0,1,1.419.184c1.051.291,2.051.7,3.126.919a18.727,18.727,0,0,0,6.253.2c1.085-.166,2.207-.272,3.275-.524.973-.232,1.886-.684,2.834-1q3.016-.994,6.018-2.018a9.573,9.573,0,0,0,2.193-1.414,3.645,3.645,0,0,0,.711-.595,5.994,5.994,0,0,1,1.337-1.193c.034-.022.007-.078-.027-.057a5.156,5.156,0,0,0-1.125.787,6.513,6.513,0,0,1-1.158,1c-.338.218-.625.471-.94.72a5.232,5.232,0,0,1-1.778.747c-1.053.335-2.079.755-3.136,1.087-1.038.326-2.085.634-3.109,1a14.883,14.883,0,0,1-3.169.872c-.9.12-1.795.3-2.7.373a18.606,18.606,0,0,1-6.805-.7c-1.494-.471-3.045-1.242-4.561-.45a10.7,10.7,0,0,1-3.43.857,20.359,20.359,0,0,1-3.163.35,8.015,8.015,0,0,0-2.629.21,9.819,9.819,0,0,0-2.232,1.218c-1.637,1.041-3.522,1.6-5.213,2.545a2.332,2.332,0,0,0-1.222,1.519c-.328,1.125-1,1.327-1.991,1.714A17.249,17.249,0,0,1,135,207.3a1.871,1.871,0,0,0-.7.277c-.035.024-.284.225-.541.4-.2-.008-.409-.019-.613-.032a.165.165,0,0,0-.274-.017c-.673-.046-1.35-.1-2.033-.159a26.606,26.606,0,0,1-4.723-.5,26.812,26.812,0,0,0-3.708-.617,15.727,15.727,0,0,1-4.226-1.029,19.768,19.768,0,0,1-2.636-1.193c-.1-.132-.211-.259-.314-.392s-.2-.282-.3-.424l.027.008c.154.03.24-.221.1-.294a2.48,2.48,0,0,1-.647-.509q-.231-.378-.448-.76a5.6,5.6,0,0,0,4.294,1.134c1.612-.162,3.261.044,4.869-.052,1.21-.071,2.378-.828,3.506-1.1,1.4-.341,2.92-.213,4.34-.478A9.148,9.148,0,0,0,134,200.274a34.579,34.579,0,0,1,4.193-1.734c1.212-.524,2.17-1.467,3.414-1.935,2.689-1.007,5.565-.842,8.348-1.274,1.426-.221,2.653-.924,4.042-1.242a7.757,7.757,0,0,1,4.578.593,13.786,13.786,0,0,0,3.652.985c1.36.13,2.624.449,3.964.679,2.812.48,5.685-.085,8.483-.4a7.515,7.515,0,0,0,3.344-.951c1.127-.7,2.268-1.357,3.43-2,2.465-1.374,5.108-3.76,8.084-3.187a5.913,5.913,0,0,1-1.632,3.14,19.409,19.409,0,0,1-2.226,2.469,13.529,13.529,0,0,0-2.053,1.306,7.692,7.692,0,0,0-1.286,2.376c-1.129,2.536-3.2,4.095-5.4,5.719a19.33,19.33,0,0,0-3.07,2.258m53.694,1.666c-.5,1.2-.473,2.989-1.2,4.03-.688.994-1.855,1.425-2.489,2.52a8.993,8.993,0,0,0-.985,3.116,40.168,40.168,0,0,0-.652,4.333c-.2,3.429-1.443,6.119-4.429,7.978a12.678,12.678,0,0,1-4.313,1.925c-1.342.228-2.687-.084-4.04.2a8.211,8.211,0,0,0-2.886,1.129c-1.117.744-1.565,1.883-2.479,2.81-1.506,1.531-4.208,4.319-6.618,4.164-.078-.117-.154-.231-.23-.341-.879-1.234-2.22-1.668-3.314-2.64a8.841,8.841,0,0,1-2.41-4.569c-.428-1.741-.095-3.354-.218-5.1-.017-.223-.041-.446-.071-.671.1-.079.2-.162.333-.247a7.662,7.662,0,0,1,.962-.375,14.525,14.525,0,0,1,2.638,1.144c.813.417,1.7.715,2.552,1.048a11.406,11.406,0,0,1,1.622.607c.384.225.732.519,1.1.766a27.8,27.8,0,0,1,2.357,1.676c.079.066.172-.054.113-.127a9.939,9.939,0,0,0-2.4-1.871,11.663,11.663,0,0,0-1.188-.8,13.593,13.593,0,0,0-1.37-.483,28.78,28.78,0,0,1-3.29-1.421,8.181,8.181,0,0,0-1.82-.708,4.908,4.908,0,0,1,.595-.3,13.686,13.686,0,0,1,3-.749c.051.027.1.051.152.078.558.309,1.151.553,1.712.857,1.161.627,2.315,1.286,3.493,1.879a36.75,36.75,0,0,0,3.686,1.453,7.8,7.8,0,0,0,3.109.941c.086-.005.068-.132-.007-.142a19.35,19.35,0,0,1-3.545-1.262,24.277,24.277,0,0,1-3.491-1.441q-1.683-.9-3.366-1.788c-.434-.228-.909-.394-1.337-.632q.494-.066.985-.118a14.844,14.844,0,0,1,2.19-.149,7.293,7.293,0,0,0,1.546-.127,13.445,13.445,0,0,0,1.9-.379,6.923,6.923,0,0,0,1.4-.831c.519-.319,1.078-.542,1.575-.9.157-.113.309-.232.458-.353a8.684,8.684,0,0,1,1.67.272,14.171,14.171,0,0,0,1.619-.122c1.254.041,2.535.049,3.8.044,1.871-.01,4.755.571,6.168-1.06.056-.064-.035-.162-.106-.123a6.534,6.534,0,0,1-3.3.9c-1.293-.015-2.6-.01-3.89-.064a11.945,11.945,0,0,0-1.556.029c-.544.049-1.06-.042-1.594.041a5.672,5.672,0,0,1-1.844-.007,4.768,4.768,0,0,0-.8-.052,8.227,8.227,0,0,1,1.007-.732,17.411,17.411,0,0,1,4.1-1.419,20.946,20.946,0,0,0,3.344-1.1,14.866,14.866,0,0,0,2.778-2.183c1.1-.882,2.315-1.558,3.471-2.352a23.611,23.611,0,0,0,3.089-2.78.119.119,0,0,0-.155-.181,44.3,44.3,0,0,1-3.74,2.967,26.69,26.69,0,0,0-3.572,2.535,11.266,11.266,0,0,1-1.656,1.4,9.3,9.3,0,0,1-1.468.63c-.661.24-1.34.458-2.024.661a3.5,3.5,0,0,0,.532-.4c.373-.351.72-.757,1.07-1.137a14.56,14.56,0,0,1,2.567-2.114c1.229-.84,3.143-2.168,3.376-3.777.012-.081-.1-.095-.132-.027-.733,1.773-2.427,2.9-3.929,3.966a11.771,11.771,0,0,0-2.068,1.827c-.291.326-.595.635-.882.965a5.779,5.779,0,0,1-1.005.831c-.434.123-.869.242-1.3.351a8.931,8.931,0,0,0-3.231,1.406,14.344,14.344,0,0,1-1.744,1.262,11.82,11.82,0,0,0-1.25.728,7.621,7.621,0,0,1-4.209,1.044,21.543,21.543,0,0,0-3.574.313c.051-.046.1-.093.162-.147.64-.581,1.421-1,2.079-1.582.622-.549,1.279-1.053,1.911-1.59a15.317,15.317,0,0,1,2.013-1.588c.809-.483,1.545-1.063,2.342-1.558a19.249,19.249,0,0,0,1.888-1.1,6.569,6.569,0,0,1,2.112-1.394,3.492,3.492,0,0,0,1.6-.568c.071-.066-.01-.2-.095-.145a9.831,9.831,0,0,1-1.906.519,5.646,5.646,0,0,0-1.568,1.039,14.13,14.13,0,0,1-2.07,1.284c-.684.4-1.279.929-1.96,1.337a29.789,29.789,0,0,0-3.468,2.646c-.62.509-1.186,1.093-1.825,1.578-.321.245-.684.436-1,.691a7.537,7.537,0,0,1-.6.522,5.339,5.339,0,0,1-.607-.287c-.106-.063-.215.093-.11.159.145.09.3.167.448.243a.751.751,0,0,1-.21.025.086.086,0,0,0-.083.086,11.172,11.172,0,0,0-2.415.786c-.226.11-.429.26-.649.382-.164-.029-.33-.054-.492-.066-.115-.008-.12.155-.01.176.054.01.106.025.161.037a2.365,2.365,0,0,0-.532.184,2.537,2.537,0,0,0-.4.3c-.052-.35-.12-.7-.2-1.051.007,0,.015-.005.02-.014a13.417,13.417,0,0,1,1.154-1.391,16.915,16.915,0,0,1,1.538-1.744c.923-.948,1.874-1.872,2.705-2.9a33.319,33.319,0,0,0,2.2-3.51,25.053,25.053,0,0,1,2.111-3.314c.044-.052-.037-.118-.084-.076a13.274,13.274,0,0,0-2.229,3.25,36.516,36.516,0,0,1-2.2,3.512c-.963,1.212-2.094,2.264-3.138,3.4a16.111,16.111,0,0,0-1.2,1.492,14.373,14.373,0,0,0-.924,1.115c-.22-.928-.507-1.847-.789-2.724-.1-.3-.194-.6-.3-.9a2.669,2.669,0,0,0,.277-.294,10,10,0,0,1,1.031-1.264c.9-.814,1.582-1.773,2.428-2.635.87-.885,1.751-1.759,2.626-2.638.656-.659.984-1.536,1.568-2.251.039-.047-.035-.108-.079-.071-.76.654-1.151,1.616-1.881,2.31-.864.823-1.673,1.7-2.515,2.545-.815.821-1.45,1.769-2.313,2.548a4.54,4.54,0,0,0-.869,1.046,3.02,3.02,0,0,1-.358.456,16.643,16.643,0,0,0-1.21-2.77c.054-.066.108-.132.171-.194.353-.35.786-.612,1.156-.941a27.929,27.929,0,0,0,2.062-2.226c.041-.047-.035-.112-.079-.071-.777.7-1.4,1.553-2.192,2.239-.343.3-.738.544-1.058.869-.054.054-.1.113-.149.171A8.079,8.079,0,0,0,186,216.681a23.277,23.277,0,0,0-4.042-2.009c-1.533-.632-2.69-.2-4.3-.264a7.97,7.97,0,0,0-4.079.661c-1.443.686-2.817.649-4.3,1.115-.691.218-1.247.667-1.908.936a10.544,10.544,0,0,1-2.809.417,9.028,9.028,0,0,0-3.376.715c-1.387.752-1.959,1.916-3.718,1.989a12.438,12.438,0,0,1-5.183-1.289c-2.984-1.318-5.473-3.628-8.463-5-2.809-1.286-6.222.385-8.656,1.8-1.286.747-2.993.37-4.431.335a8.409,8.409,0,0,1-4.069-1.225c-.84-.463-1.379-1.289-2.21-1.8a11.269,11.269,0,0,1-2.023-1.55c-1.193-1.161-2.43-2.273-3.611-3.449-.7-.695-1.381-1.408-2.04-2.141.725.346,1.426.617,1.9.8a21.575,21.575,0,0,0,4.076.982c1.289.243,2.547.646,3.821.931a42.612,42.612,0,0,0,4.983.47,30.035,30.035,0,0,0,4.958.226c3.187-.211,5.355-2.085,8.241-3.131,2.829-1.026,5.719.321,8.449,1.039a74.006,74.006,0,0,0,8.833,1.749c2.582.348,5.452,1.071,8.066.815,1.45-.142,2.726-1.005,4.154-1.288a16.852,16.852,0,0,1,4.754.074,27.021,27.021,0,0,0,8.86-.291,65.2,65.2,0,0,0,8.424-2.707,13.776,13.776,0,0,1,9.2-.358c2.788.955,5.441,2.031,8.312,2.768a22.6,22.6,0,0,0,4.247.96c1.242.066,2.42-.527,3.652-.647a20.845,20.845,0,0,0,4.088-.681,4.835,4.835,0,0,1,1.827-.466c.833.179.152,1.06-.061,1.575" transform="translate(0 0)" fill="#424b60"/>
    </g>
  </g>
</svg>
