<svg xmlns="http://www.w3.org/2000/svg" xmlns:xlink="http://www.w3.org/1999/xlink" width="263.277" height="271.495" viewBox="0 0 263.277 271.495">
  <defs>
    <clipPath id="clip-path">
      <rect id="Rectangle_3344" data-name="Rectangle 3344" width="186.149" height="207.23" fill="none"/>
    </clipPath>
  </defs>
  <g id="Group_6702" data-name="Group 6702" transform="matrix(0.875, -0.485, 0.485, 0.875, 0, 90.247)">
    <g id="Group_6701" data-name="Group 6701" transform="translate(0 0)" clip-path="url(#clip-path)">
      <path id="Path_65616" data-name="Path 65616" d="M146.915,47.174c-.777-1.156-1.716-1.052-2.3.109-.44.872-.688,1.811-1.148,2.685-.258.492-.582.948-.834,1.444-.234.461-.322.976-.582,1.418a11.7,11.7,0,0,1-2.683,2.46c-.8.678-1.621,1.345-2.477,1.957-1.742,1.243-3.332,2.172-4.519,4.027a17.586,17.586,0,0,0-1.928,5.429,20.341,20.341,0,0,1-2.848,6.559c-1.031,1.437-2.5,2.718-3.422,4.257.038-.361.1-.714.133-1.018a15.356,15.356,0,0,0,.029-2.363,11.976,11.976,0,0,0-.217-2.465,7.948,7.948,0,0,0-.979-2,3.51,3.51,0,0,1-.621-1.388,7.659,7.659,0,0,1,.106-1.224,6.33,6.33,0,0,0-.407-1.95c-.324-1.371-.627-2.768-1.879-3.626a.461.461,0,0,0-.544-.019c-1.681,1.34-1.761,3.176-1.895,5.174-.076,1.139-.234,2.272-.328,3.411a6.667,6.667,0,0,1-.7,2.924c-1,1.862-1.9,3.924-3.521,5.342a25.9,25.9,0,0,0-1.9,1.978,18.269,18.269,0,0,1-2.345,1.77,5.614,5.614,0,0,0-1.57,1.806,18.813,18.813,0,0,0-.825,2.583,18.8,18.8,0,0,1-1.492,2.716A21.17,21.17,0,0,0,104,91.753,6.562,6.562,0,0,0,103.526,94,12.431,12.431,0,0,1,103,96.956c-.251.927-.2,1.872-.393,2.8a7.97,7.97,0,0,1-1.253,2.626c-1.439-1.676-1.721-4.171-2.981-5.975-.39-.556-1-.922-1.184-1.607-.106-.383-.1-.783-.227-1.165-.2-.6-.418-1.245-.664-1.863,0-.017.007-.035.009-.052a.289.289,0,0,0,0-.054,6.536,6.536,0,0,0,.851.165c1.6.215,3.092.511,4.571-.343a.379.379,0,0,0-.158-.676c-.218-.028-.432-.059-.643-.092l-.012-.005a13.092,13.092,0,0,1-5.987-3.942,13.594,13.594,0,0,1-1.674-2.519c-.619-1.121-1.421-2.122-2.07-3.214-.322-.544-.491-1.174-.787-1.733-.34-.643-.719-1.267-1.089-1.893-.733-1.25-1.484-2.491-2.217-3.741a57.647,57.647,0,0,0-4.7-6.24c-1.518-1.936-2.917-3.973-4.477-5.874s-3.312-3.6-4.909-5.446c-.8-.922-1.78-1.638-2.6-2.543-.692-.761-1.544-1.342-2.227-2.1a20.8,20.8,0,0,0-4.985-4.086c-1.073-.638-1.98-1.506-3-2.219-1-.7-2.085-1.264-3.092-1.957a45.553,45.553,0,0,0-5.753-3.753c-4.422-2.156-8.932-4.117-13.458-6.046a35.422,35.422,0,0,0-6.422-2.2c-2.5-.546-4.99-1.153-7.483-1.739-1.219-.286-2.435-.574-3.65-.875a25.259,25.259,0,0,1-3.618-.979c-.846-.355-1.595-.979-2.427-1.385a13.729,13.729,0,0,1-3.025-2.361c-.835-.783-1.579-1.609-2.439-2.37-.643-.572-1.248-1.382-1.832-2.023-1.55-1.706-2.359-3.917-3.756-5.725a7.818,7.818,0,0,1-1.687-3.479C1.357,9.256,1.3,8.221,1.2,7.192A43.64,43.64,0,0,1,.568.267C.585-.03.14-.113.1.192A24.669,24.669,0,0,0,.258,5.744a.213.213,0,0,0-.035.137C.315,7.06.041,8.239.168,9.419c.128,1.213.39,2.434.589,3.638a30.68,30.68,0,0,0,.7,3.1c.314,1.141.986,2.094,1.378,3.205a19.523,19.523,0,0,0,2.879,4.824c1.217,1.713,3.189,2.9,4.781,4.231a51.255,51.255,0,0,0,5.472,4.432,21.24,21.24,0,0,0,3.177,1.376,9.332,9.332,0,0,0,2.536.721,15.86,15.86,0,0,1,3.455.595c.974.345,1.976.4,2.954.7A50,50,0,0,1,34.483,39c2.155,1.005,3.957,2.853,5.805,4.33a21.927,21.927,0,0,1,2.46,2.285,14.585,14.585,0,0,0,2.309,1.808.3.3,0,0,0,.475-.191c.128.09.26.175.4.257a.516.516,0,0,0,.716-.39A7.205,7.205,0,0,0,45.6,43.27,19.107,19.107,0,0,0,44.5,41.464c.959.584,1.914,1.173,2.876,1.766,1.189.735,2.468,1.312,3.6,2.139.945.693,1.9,1.317,2.888,1.954a38.626,38.626,0,0,1,5.425,4.268c.868.825,1.662,1.726,2.539,2.543.771.718,1.6,1.361,2.345,2.113.92.931,1.938,1.777,2.839,2.72.815.853,1.513,1.818,2.29,2.706a36.619,36.619,0,0,1,3.9,6.06c1.208,2.094,2.385,4.21,3.392,6.412.981,2.146,1.69,4.4,2.692,6.54.449.955,1.026,1.863,1.442,2.829a6.066,6.066,0,0,1,.558,2.025c-.3.941-.622,1.872-.922,2.813-1.161,3.628-1.844,7.954-.9,11.7a29.674,29.674,0,0,1,.83,2.959,22.565,22.565,0,0,0,.439,2.612c.3,1.113.522,2.2.761,3.326a3.534,3.534,0,0,0,.636,1.5,3.268,3.268,0,0,0-.109,1.435,7.154,7.154,0,0,1-.283,2.257,3.434,3.434,0,0,0-.711-.378,6.255,6.255,0,0,0-2.609-.543c-1.1.147-1.839,1.212-2.886,1.376s-2.094-.551-3.068-.848a3.852,3.852,0,0,0-2.451.069c-.277.092-.539.184-.8.27-.017-.076-.035-.153-.049-.232a.035.035,0,0,0-.069.007c.005.087.014.172.024.258a7.448,7.448,0,0,1-2.614.492c-.678-.012-1.4,0-2.077-.055-.6-.05-1.149-.288-1.744-.367a9.94,9.94,0,0,0-3.023.177,2.7,2.7,0,0,0-2.165,1.064,2.126,2.126,0,0,0-.376,1.874,5.388,5.388,0,0,0,1.2,2.364,7.324,7.324,0,0,1,.952,1.167c.12.2.208.4.315.593.315.577.132.572.028,1.182a.442.442,0,0,0-.213-.026,23.39,23.39,0,0,0-6.117,1.55,14.368,14.368,0,0,0-2.5,1.4,5.678,5.678,0,0,1-2.971,1.087,18.174,18.174,0,0,0-2.522.626,12.478,12.478,0,0,1-3.078.227c-1.844-.076-3.661-.766-5.512-.411-.607.116-1.319,0-1.794.465a2.558,2.558,0,0,0-.707,1.583c-.043.9.555,1.529-.315,2.309a9.413,9.413,0,0,1-1.815,1.142,9.163,9.163,0,0,1-1.636.759c-.366.114-.8.031-1.134.135a1.7,1.7,0,0,0-.387.218,4.1,4.1,0,0,1-1.518.671,15.361,15.361,0,0,1-2.808.158,10.536,10.536,0,0,1-3.059-.229c-1.04-.293-2.55-1.009-3.484-.076-.7.7-.373,2.42.192,3.127a14.527,14.527,0,0,0,1.928,1.622,8.339,8.339,0,0,0,2.028,1.3c1.768.818,3.638,1.449,5.464,2.127,1.929.716,3.716,1.621,5.59,2.451,1.94.861,4.037,1.18,5.332,3.028a5.494,5.494,0,0,0,3.572,2.394,16.055,16.055,0,0,0,5.2.354,11.156,11.156,0,0,1,5.866,1.342c.889.463,1.669,1.064,2.524,1.576a19.019,19.019,0,0,0,2.34,1.423,12.479,12.479,0,0,0,2.643.74,17.215,17.215,0,0,0,2.071-.007,7.8,7.8,0,0,0,2.286-.173c.837-.2,1.6-.579,2.454-.7-.1.832-.579,1.718-.348,2.662.295,1.2,1.506,2.245,2.271,3.165.589.709,1.284,1.6,2.248,1.134.693-.335,1.427-.763,2.089-1.158a16.47,16.47,0,0,0,1.924-1.8,8.66,8.66,0,0,1,2.647-1.449,9.235,9.235,0,0,1,2.74-.326c.835-.047,1.742-.036,2.564-.146a9.132,9.132,0,0,0,1.926-.619,20.554,20.554,0,0,1-.96,2.108c-.293.484-.546.99-.835,1.477-.317.536-.751.955-1.076,1.473-.648,1.024-1.291,2.1-1.869,3.172a22.12,22.12,0,0,0-1.421,3.056,5.548,5.548,0,0,0-.066,2.094,9.334,9.334,0,0,0,.7,2.668,9.885,9.885,0,0,0,1.551,2.855,21.193,21.193,0,0,1,2.066,2.51c.518.874.562,2.051,1.189,2.824.551.681,1.669,1.1,1.941,2.009.553,1.834-.9,4.12-1.217,5.9a3.59,3.59,0,0,0,.187,2.283,2.229,2.229,0,0,0,.451.589,16.206,16.206,0,0,1,1.295,1.288c.8.933,2.023,1.444,2.756,2.446a6.332,6.332,0,0,1,.924,2.812c.135.881.224,1.766.43,2.635a20.519,20.519,0,0,1,.692,3.219c.052.712-.34,1.628-.083,2.305a2.726,2.726,0,0,0,1.305,1.2.377.377,0,0,0,.383-.038,19.058,19.058,0,0,0,2.519-2.595,13.148,13.148,0,0,0,.926-1.382c.369-.622.842-1.111,1.236-1.711a14.308,14.308,0,0,0,1.345-3.288,9.147,9.147,0,0,1,2.524-3.33,30.536,30.536,0,0,0,2.356-2.694,6.932,6.932,0,0,0,1.527-2.536,20.024,20.024,0,0,0,.693-3.422c.05-.5.166-.924.263-1.416a12.32,12.32,0,0,1,.1-1.548l0-.012h.22a9.013,9.013,0,0,1,3.259.638,5.194,5.194,0,0,1,1.713.939,4.532,4.532,0,0,0,1,.65,6.892,6.892,0,0,0,2.474.636,5.019,5.019,0,0,0,2.415-.185c1.108-.418,1.9.291,2.961.387.931.085,2.305-.548,2.451-1.576.185-1.3-1.669-2.144-2.493-2.791-3.694-2.9-4.444-7.79-7.641-11.057-1.562-1.6-5.011-2.186-5.474-4.6-.012-.059-.021-.118-.029-.177a3.478,3.478,0,0,0,.222-.861c.035-.246.007-.508.055-.751a2.939,2.939,0,0,1,.6-1.09,2.84,2.84,0,0,0,.471-1.408,1.91,1.91,0,0,1,.575.747,5.352,5.352,0,0,1,.125,1.236,5.186,5.186,0,0,0,1.652,3.066,1.967,1.967,0,0,0,1.076.6c.257.019.428-.144.659-.149.432-.01.726.4,1.078.555a.712.712,0,0,0,.671,0,6.814,6.814,0,0,0,1.132,1.778c1.03,1.12,2.156,2.149,3.189,3.269,1.929,2.094,3.912,3.937,6.807,4.432.671.116,1.345.206,2.023.265a5.892,5.892,0,0,1,1.822.555,1.173,1.173,0,0,0,1.57-.757c.577-1.224-.263-2.045-.577-3.174a29.148,29.148,0,0,0-1.082-2.753c.222.061.447.114.683.158,1.011.189,2.465.78,3.113-.274a.135.135,0,0,0,.017-.055c.482-.477.35-1.248-.005-1.962-.289-.584-.534-1.078-.172-1.7a2.05,2.05,0,0,1,1.8-.875c.8-.028,1.579.156,2.382.052a29.836,29.836,0,0,0,4.368-1.016,7.288,7.288,0,0,0,3.656-2.189,2.672,2.672,0,0,0,.636-1.371,7.9,7.9,0,0,0,2.444.244,4.408,4.408,0,0,0,2.844-.667,5.592,5.592,0,0,0,.863-.957,2.951,2.951,0,0,1,1.811-1.158,8.529,8.529,0,0,1,3.666.225,26.791,26.791,0,0,0,3.916.465c.523.021,1.739.236,2.033-.387.284-.6-.465-1.6-.74-2.092a4.007,4.007,0,0,0-1.116-1.255c.161.029.324.059.489.094a5.768,5.768,0,0,0,2.591-.1c2.12-.451,4.053.262,6.027.96.957.338,1.926.549,2.867.943a15.23,15.23,0,0,0,2.48.7,23.394,23.394,0,0,0,5.627.059c.992-.019,2.751.007,3.363-.981,1.191-1.926-5.188-3.416-6.117-3.579-1.945-.343-3.812-1.206-5.732-1.666a21.626,21.626,0,0,1-3.422-.825c-.855-.355-1.758-.471-2.626-.782a63.436,63.436,0,0,1-5.913-2.439c-.062-.04-.123-.083-.185-.12a.037.037,0,0,0-.047.007,55.613,55.613,0,0,1-5.084-2.761c-3.781-2.328-7.043-5.446-10.464-8.268q-2.608-2.15-5.219-4.3a26.152,26.152,0,0,0-5.008-3.418c-.34-.165-.678-.319-1.017-.47a2.929,2.929,0,0,0-.619-.6.065.065,0,0,0-.081.1c.1.1.189.21.279.315a38.687,38.687,0,0,0-3.872-1.388,26.593,26.593,0,0,1-3.118-1.21l-.163-.075c-.024-.021-.05-.04-.075-.059a.045.045,0,0,0-.057,0c-.121-.055-.243-.106-.362-.153.35-.31.692-.617,1.023-.9a2.924,2.924,0,0,0,1.052-1.907c.336-1.434,1.446-2.03,2.52-2.876a12.932,12.932,0,0,0,2.168-2.373,6.041,6.041,0,0,0,1.324-2.333c.428-1.737.738-3.517,1.191-5.249a20.043,20.043,0,0,0,4.557-3.829c.759-.882,1.725-1.532,2.532-2.366.723-.745,1.219-1.683,1.943-2.422.813-.832,1.924-1.323,2.791-2.087.433-.383.78-.823,1.26-1.175a11.058,11.058,0,0,0,1.193-.972,24.646,24.646,0,0,0,2.106-2.371c.563-.711.889-1.551,1.486-2.248a1.929,1.929,0,0,0,.56-1.765c-.016-.125-.163-.267-.17-.4-.083-1.607.3-.362.459-1.109.029-.142.057-.232.073-.326.263.132.6.572.83.685.714.347,1.144-.052,1.721-.388.848-.492,1.721.109,2.631-.338a3.56,3.56,0,0,0,1.576-1.668c.709-1.557-.362-2.928-1.543-3.824-.482-.366-.693-.459-.922-1.054-.288-.744-.127-.329-.088-.861a3.085,3.085,0,0,0,.054-.9,2.5,2.5,0,0,0-1.057-1.355,10.156,10.156,0,0,0-4.63-1.778c.747-1.2.627-3.047.47-4.318-.075-.593-.047-1.2-.179-1.787-.116-.522-.392-1.007-.47-1.537a5.047,5.047,0,0,1,1.241-3.572,8.831,8.831,0,0,0,1.347-5.807,6.97,6.97,0,0,0-2.78-5.037c-.943-.754-1.733-1.569-2.6-2.4a4.2,4.2,0,0,1-1.557-2.687,3.268,3.268,0,0,0-.725-2.262,17.712,17.712,0,0,1-1.57-2.056m-20.775,79.463h-.052a.193.193,0,0,0-.17.166c-.749.551-1.548,1.045-2.33,1.541a5.192,5.192,0,0,0-1.328-.737,5.445,5.445,0,0,0-1.836-.147c-.83-.007-1.65-.014-2.48,0-1.785.033-3.566.257-5.353.26-.581,0-1.13-.057-1.687-.062.931-.411,1.81-.946,2.766-1.3a24.1,24.1,0,0,0,2.765-1.291,25.367,25.367,0,0,0,3.132-1.732c.99-.7,2.094-1.2,3.072-1.917a17.065,17.065,0,0,0,2.345-1.737,31.382,31.382,0,0,1,2.557-2.482c.752-.617,1.206-1.487,1.983-2.084,1.827-1.4,4.07-2.248,6.043-3.434l-.009.035c-.279,1.113-.556,2.226-.881,3.326a7.484,7.484,0,0,1-1.253,2.857,15.372,15.372,0,0,1-2.241,2.512,10.975,10.975,0,0,0-2.279,1.96c-.565.8-.425,1.856-1.005,2.584a9.957,9.957,0,0,1-1.759,1.678m34.075,29.107a13.676,13.676,0,0,1-2.694-.347,25.767,25.767,0,0,1-5.063-2.864,40.324,40.324,0,0,1-5.011-3.566c-.849-.711-1.7-1.423-2.576-2.1a7.524,7.524,0,0,0-1.172-.7c-.466-1.893-1.3-3.768-3.2-4.479a19.02,19.02,0,0,0-4.008-.806l-.1-.017c-.565-.406-1.132-1.085-1.52-1.409a8.852,8.852,0,0,1-2.026-2.659,20.2,20.2,0,0,0-3.176-4.394c-1.009-.972-2.361-1.122-3.5-1.9a25.5,25.5,0,0,1-2.007-1.692,5.806,5.806,0,0,0,.971-.48c.539.341.955.877,1.536,1.179.716.369,1.388.815,2.1,1.177a13.158,13.158,0,0,1,2.234,1.413,13.433,13.433,0,0,1,1.921,1.694,8.743,8.743,0,0,0,.7.666,5.172,5.172,0,0,1,.919,1.023,6.093,6.093,0,0,0,.27.823c.192.324.473.582.685.893a4.306,4.306,0,0,0,1.382,1.357,7.4,7.4,0,0,1,.945.6c.286.237.647.305.927.546a.036.036,0,0,0,.045-.057c-.3-.26-.685-.361-1-.619a5.434,5.434,0,0,0-.726-.473,4.227,4.227,0,0,1-1.165-.974c-.211-.288-.374-.6-.6-.887a3.039,3.039,0,0,1-.551-1.127,1.348,1.348,0,0,0-.425-.6c-.522-.52-1-1.094-1.515-1.619a16.515,16.515,0,0,0-4.035-2.928c-.726-.39-1.466-.808-2.181-1.22-.471-.274-.813-.7-1.246-1a12.711,12.711,0,0,0,1.33-1.021,22.482,22.482,0,0,1,2.21,1.172c.257.123.513.239.771.352.692.449,1.373.889,2.1,1.281.751.4,1.437.912,2.189,1.314a16.159,16.159,0,0,1,2.331,1.368,8.7,8.7,0,0,1,1.865,1.638,12.579,12.579,0,0,1,1.236,2.1,13.846,13.846,0,0,0,2.524,3.794,28.023,28.023,0,0,0,4,3.29.054.054,0,0,0,.068-.083,32.556,32.556,0,0,1-4.581-4.191,13.37,13.37,0,0,1-1.388-1.985,18.55,18.55,0,0,0-.993-1.971,7.855,7.855,0,0,0-1.3-1.758,15.25,15.25,0,0,0-1.856-1.409c-.671-.419-1.388-.749-2.082-1.128-.742-.406-1.427-.9-2.182-1.284a8.611,8.611,0,0,1-.965-.593c.331.125.667.246,1.011.355a23.126,23.126,0,0,1,4.985,2.146c.5.515,1.037.995,1.525,1.518a20.121,20.121,0,0,0,1.872,1.836c.641.532,1.355.978,1.952,1.562.309.3.551.641.884.917a6.433,6.433,0,0,1,1.173,1.083c.5.671.825,1.449,1.269,2.153a11.83,11.83,0,0,0,1.512,1.851,24.2,24.2,0,0,0,1.692,1.758c.042.036.1-.029.054-.066-.3-.258-.544-.593-.829-.868-.319-.314-.614-.652-.922-.978a10.51,10.51,0,0,1-1.645-2.189,10.76,10.76,0,0,0-1.3-2.111,9.644,9.644,0,0,0-.889-.771c-.322-.281-.565-.633-.872-.931-.622-.61-1.368-1.075-2.03-1.638a26.307,26.307,0,0,1-2.118-2.122c-.1-.106-.2-.208-.3-.31.822.6,1.685,1.109,2.479,1.759.889.726,1.785,1.444,2.678,2.167q1.269,1.027,2.536,2.056c1.05,1.227,1.855,2.638,2.831,3.936a45.139,45.139,0,0,0,3.732,4.38c.719.737,1.427,1.473,2.125,2.227a17.74,17.74,0,0,0,2.094,1.694.045.045,0,0,0,.057-.069,16.051,16.051,0,0,1-2.177-1.841c-.549-.634-1.121-1.234-1.709-1.834a44.169,44.169,0,0,1-3.841-4.5c-.8-1.066-1.473-2.245-2.274-3.318q1,.806,1.993,1.612c.7.567,1.4,1.142,2.1,1.716a18.238,18.238,0,0,1,1.51,2.021,26.01,26.01,0,0,0,1.841,2.318c.676.8,1.355,1.622,2.064,2.394a20.025,20.025,0,0,0,2.151,1.959.051.051,0,0,0,.064-.08,16.59,16.59,0,0,1-2.371-2.283c-.662-.809-1.352-1.593-2.018-2.4a24.543,24.543,0,0,1-1.791-2.354c-.182-.284-.371-.574-.57-.853,1.257,1.023,2.529,2.019,3.867,2.929a7.683,7.683,0,0,0,.707.92c.336.326.671.648.995.988a23.365,23.365,0,0,0,2.378,2.054c.035.026.078-.026.043-.054a25.414,25.414,0,0,1-2.458-2.252c-.276-.3-.57-.575-.853-.865a3.737,3.737,0,0,1-.4-.52c.716.471,1.453.919,2.217,1.328a47.737,47.737,0,0,0,5.02,2.638c.25.1.5.2.747.3.35.263.7.52,1.031.785a.055.055,0,0,0,.071-.085c-.187-.156-.373-.321-.56-.487,1.236.492,2.47.992,3.72,1.456.872.324,1.789.445,2.659.766a12,12,0,0,0,2.184.638,22.741,22.741,0,0,1,3.174.818c.884.286,1.815.387,2.692.7.811.288,1.635.341,2.451.586a27.346,27.346,0,0,1,2.683.943c.381.158,1.607.617,1.766.978.153.341-.213.978-.458,1.121a1.993,1.993,0,0,1-.5.137,5.881,5.881,0,0,1-.9.127c-1.1.073-2.21.043-3.309.068a11.405,11.405,0,0,1-2.664-.069c-1.742-.371-3.332-1.139-5.025-1.659a20.606,20.606,0,0,0-4.961-1.328,7.559,7.559,0,0,0-2.052.177,5.775,5.775,0,0,1-2.8-.045,20.431,20.431,0,0,0-2.411-.326m-13.375,6.141a2.436,2.436,0,0,0-.109-.5,8.17,8.17,0,0,1-.643-2.376,8.35,8.35,0,0,1,.1-2.314,4.2,4.2,0,0,0,.069-1.295l.012.009c.548.4,1.071.834,1.6,1.264,1.213.99,2.415,2,3.659,2.952a.036.036,0,0,0,.045-.055c-1.1-.964-2.253-1.877-3.384-2.8-.52-.426-1.03-.87-1.567-1.269-.13-.1-.26-.192-.385-.289a10.461,10.461,0,0,0-.569-2.188c-.276-.773-.683-1.492-.971-2.262a13.731,13.731,0,0,1-.6-2.6c-.061-.362-.127-.742-.2-1.128.562.426,1.128.848,1.674,1.295.971.794,1.914,1.619,2.888,2.408a46.923,46.923,0,0,0,5.824,3.794,14.842,14.842,0,0,0,3.12,1.605,15.2,15.2,0,0,0,2.7.352c.518.061,1.016.121,1.512.2a8.394,8.394,0,0,1,1.841,2.35c.288.6.439.716-.244.827a8.344,8.344,0,0,1-1.917-.132c-.757-.075-1.508-.175-2.257-.3a4.374,4.374,0,0,1-.809-.3c-.595-.286-1.172-.61-1.735-.948-.6-.359-1.21-.7-1.791-1.078-.515-.34-.983-.744-1.492-1.092-2.215-1.512-4.59-2.756-6.781-4.3a.083.083,0,0,0-.106.128,21.3,21.3,0,0,0,3.41,2.212c.636.354,1.22.783,1.832,1.173.56.357,1.147.664,1.7,1.04.513.354.991.751,1.522,1.076s1.106.643,1.655.965c.569.333,1.151.647,1.749.92a2.554,2.554,0,0,0,.291.107,12.521,12.521,0,0,0-2.565-.411,4.668,4.668,0,0,0-2.182.515c-.414-.345-.829-.693-1.257-1.023-.473-.364-1.012-.648-1.473-1.026-.981-.8-2.1-1.362-3.108-2.129-.024-.019-.054.019-.031.04.934.849,2.092,1.378,3.07,2.175.485.4,1.056.693,1.557,1.075.4.3.78.619,1.165.934a4.273,4.273,0,0,0-1.246,1.092c-.1.13-.2.258-.3.38a.1.1,0,0,0-.029-.057.925.925,0,0,0-.165-.142c-.107-.09-.215-.179-.322-.267q-.364-.3-.728-.6c-.513-.421-1.026-.842-1.564-1.232a.048.048,0,0,0-.061.075c.489.449,1.005.867,1.52,1.286a11.163,11.163,0,0,0,1.286,1.012,2.23,2.23,0,0,1-1.03.747,6.118,6.118,0,0,1-1.619.184,23.539,23.539,0,0,1-2.546-.054m-18.993,7.771c-.712-.631-1.548-1-2.295-1.574a7.412,7.412,0,0,1-2.3-2.61,11.045,11.045,0,0,1-.7-2.394c-.194-.841-.614-1.6-.8-2.449a16.25,16.25,0,0,0-.853-2.91,2.15,2.15,0,0,1-.068-.7,6.357,6.357,0,0,0,.085-.747,6.544,6.544,0,0,1,.35-2.3,6.934,6.934,0,0,0,.293-.728,7.032,7.032,0,0,0,.047-.875c.005-.042-.057-.064-.073-.023-.114.335-.066.673-.189,1.011s-.279.636-.374.976a9.426,9.426,0,0,0-.217,2.113c-.012.263-.083.511-.09.768a7.379,7.379,0,0,0-.5-.835c-.979-1.406-2.285-2.552-3.384-3.865-1.056-1.265-1.16-2.76-1.742-4.2a14.958,14.958,0,0,1,.234-1.948c.13-.735.184-1.479.289-2.217.052-.371.111-.742.166-1.113.047-.319.017-.622.05-.941.005-.052-.073-.081-.092-.026a5.464,5.464,0,0,0-.123.941c-.057.371-.114.742-.166,1.115-.116.834-.175,1.674-.329,2.5A10.594,10.594,0,0,0,114.9,148c-.021-.045-.038-.09-.062-.135a18.3,18.3,0,0,0-2.12-3.846c-.133-.4-.243-.815-.406-1.21-.2-.48-.121-1-.329-1.468-.231-.522-.451-1.042-.673-1.569-.081-.192-.163-.387-.26-.572-.062-.118-.411-.52-.348-.664a.034.034,0,0,0-.062-.028l-.062.1a.04.04,0,0,0,0,.042,8.062,8.062,0,0,1,.763,1.522,11.75,11.75,0,0,1,.607,1.456c.062.243.038.489.088.733a3.827,3.827,0,0,0,.241.638c.111.274.2.558.286.839a14.624,14.624,0,0,0-1.957-1.747,6.467,6.467,0,0,1-1.785-1.9c-.926-1.553-1.978-3.026-2.916-4.571-.489-.808-.879-1.669-1.33-2.5a24.129,24.129,0,0,1-1.343-2.165.225.225,0,0,0-.421.156,17.157,17.157,0,0,0,1.347,2.867c.224.492.445.976.685,1.453-.721-.844-1.359-1.763-2.077-2.614a8.987,8.987,0,0,1-2.066-3.047c-.393-1.251-.1-2.6-.733-3.793a7.351,7.351,0,0,0-2.025-2.03c-1.364-1.213-.076-1.685-.324-2.9a3.521,3.521,0,0,1,.359.326c.66.7.7,1.621,1.392,2.3a42.309,42.309,0,0,0,4.281,3.247,7.426,7.426,0,0,0,4.051,1.466,9.514,9.514,0,0,0,2.21-.064,14.334,14.334,0,0,1,2.545-.019c1.851.01,3.694-.22,5.545-.25.924-.014,1.843.005,2.765.009a3.648,3.648,0,0,1,2.356.735.237.237,0,0,0,.265.229l.031-.009.01.009a17.906,17.906,0,0,0,3.93,2.862c.336.137.648.147.99.3a4.159,4.159,0,0,1,1.409,1.154c.565.664,1.04,1.409,1.567,2.1,1.023,1.35,1.645,2.992,2.987,4.06.374.3.868.816,1.4,1.219a14.273,14.273,0,0,1-3.711-1.48c-2.91-1.622-4.535-4.529-7.008-6.661a6.449,6.449,0,0,0-3.283-1.952,7.75,7.75,0,0,0-3.37.418c-.8.224-1.654.211-2.467.387-.759.165-1.48.39-2.25.513a10.187,10.187,0,0,1-4.964-.513c-3.056-1.024-6.393-2.77-8.429-5.323a.057.057,0,0,0-.094.064c1.815,2.574,5.016,4.171,7.871,5.313a13.674,13.674,0,0,0,4.276,1.092,25.78,25.78,0,0,0,4.408-.707,23.631,23.631,0,0,1,4.143-.641c1.683.09,2.636.938,3.852,1.993,2.257,1.962,3.732,4.593,6.284,6.242a21,21,0,0,0,7.564,2.645c1.707.345,3.023.971,3.753,2.647a9.1,9.1,0,0,1,.425,1.234.191.191,0,0,0,.028.1c.265,1,.407,2.03.6,3.046a28.284,28.284,0,0,0,1.61,4.328c.1.258.189.527.276.8v.005l0,.007a4.972,4.972,0,0,1,.172,3.085,8.528,8.528,0,0,0,.532,3.8c.693,1.581-.341,2.7-1.7,3.472a18.07,18.07,0,0,1-4.58,1.394,8.486,8.486,0,0,1-2.461.385c-.487-.016-.974-.1-1.465-.09a2.534,2.534,0,0,0-2.532,1.791c-.251,1.146,1.671,2.531.322,3.463a.1.1,0,0,0-.042.057,6.672,6.672,0,0,1-2.836-.532c-.18-.047-.357-.1-.53-.165l-.021-.061a.189.189,0,0,0-.317-.064,6.672,6.672,0,0,1-1.931-1.17m-17.391-7.909c-.428-.484-.972-.8-1.378-1.319A11.164,11.164,0,0,1,108,158.6a30.283,30.283,0,0,1-1.662-3.645c-.192-.536-.355-1.089-.593-1.607-.173-.38-.517-.757-.494-1.191a.1.1,0,0,0-.029-.078,2.457,2.457,0,0,0,.154-.413c.213-.778.154-1.572.392-2.359a12.267,12.267,0,0,0,.581-2.281l.04.1a15.979,15.979,0,0,1,1,3.148,16.82,16.82,0,0,0,.907,3.02c.224.53.471,1.071.742,1.579a9.679,9.679,0,0,0,.525,1.026c.033.047.1-.005.071-.052a4.5,4.5,0,0,1-.279-.681c-.092-.206-.2-.4-.295-.61-.217-.5-.452-.995-.634-1.5a22.736,22.736,0,0,1-.813-3.092,13.317,13.317,0,0,0-.811-2.692c-.187-.423-.319-.855-.484-1.284l-.01-.028c-.047-.322-.1-.641-.128-.964-.081-1.009.159-2.007.106-3.018a11.171,11.171,0,0,0-.572-2.612.11.11,0,0,0-.168-.064c.047-.208.087-.423.121-.65a12.27,12.27,0,0,0,.078-1.281c.05.165.073.341.113.5.087.354.189.711.295,1.059a7.363,7.363,0,0,1,.345,1.144c.043.309.033.619.09.926a16.817,16.817,0,0,0,.627,1.834,9.934,9.934,0,0,1,.425,2.151,15.482,15.482,0,0,0,.532,3.888,9.057,9.057,0,0,0,1.8,2.931,9.215,9.215,0,0,0,1.378,1.361,7.531,7.531,0,0,1,1.385,1.48,13.736,13.736,0,0,1,1,1.768c.35.652.73,1.29,1.054,1.957a10.684,10.684,0,0,1,.907,2.158c.12.506.477.874.6,1.373a3.233,3.233,0,0,0,.2.593c.123.267.146.543.251.811s.289.451.381.716a5.2,5.2,0,0,0,.253.688c.562,1.1,1.059,2.245,1.681,3.306.392.664.794,1.328,1.2,1.986a5.124,5.124,0,0,0,1.009,1.329.025.025,0,1,0,.031-.038,7.607,7.607,0,0,1-1.409-2.075c-.4-.705-.834-1.388-1.186-2.122-.322-.673-.607-1.364-.948-2.028-.269-.517-.411-1.064-.692-1.564a5.369,5.369,0,0,1-.291-.893,5.444,5.444,0,0,1-.272-.731c-.121-.555-.477-.978-.608-1.534a14.829,14.829,0,0,0-1.539-3.371,16.333,16.333,0,0,0-2.082-3.406c-.48-.529-1.111-.886-1.591-1.418a17.237,17.237,0,0,1-1.125-1.387,7.8,7.8,0,0,1-1.428-3.7c-.092-.674-.125-1.345-.156-2.025a11.3,11.3,0,0,0-.3-1.747,12.517,12.517,0,0,0-.567-1.7,13.639,13.639,0,0,1-.314-1.82c-.13-.6-.39-1.179-.548-1.773-.026-.094-.045-.194-.066-.295l.258.4c.009.052.017.106.028.159a6.313,6.313,0,0,0,.413,1.336,13.8,13.8,0,0,1,.919,3.124,26.223,26.223,0,0,1,.409,2.668,8.808,8.808,0,0,0,.439,2.408,19.265,19.265,0,0,0,1.258,2.292,13.642,13.642,0,0,0,1.529,1.839,4.128,4.128,0,0,0,.688.6,5.454,5.454,0,0,1,.433.551,3.93,3.93,0,0,0,.371.309,11.355,11.355,0,0,1,.945.99c.111.125.2.272.312.39.1.1.225.153.317.246a5.065,5.065,0,0,1,.544.841,5.236,5.236,0,0,1,.432,1.4,7.081,7.081,0,0,0,.388,1.156,3.538,3.538,0,0,1,.473,1.277c0,.035.055.029.054-.005a3.271,3.271,0,0,0-.43-1.215,6.784,6.784,0,0,1-.445-1.42,4.619,4.619,0,0,0-.333-1.18,4.44,4.44,0,0,0-.536-.92c-.166-.177-.354-.31-.51-.5-.08-.1-.151-.2-.236-.291a11.487,11.487,0,0,0-.787-.855,3.042,3.042,0,0,1-.584-.591,1.655,1.655,0,0,0-.283-.34,3.153,3.153,0,0,1-.56-.484c-.076-.1-.149-.255-.237-.35-.146-.159-.335-.265-.485-.418a6.458,6.458,0,0,1-.456-.539,8.625,8.625,0,0,1-.7-1.231c-.22-.4-.513-.745-.714-1.153a5.928,5.928,0,0,1-.425-1.186c-.239-.927-.2-1.922-.361-2.869a26.055,26.055,0,0,0-.5-2.579c-.127-.454-.222-.926-.367-1.375-.139-.428-.373-.811-.508-1.241l-.036-.137c.231.359.459.719.681,1.083.159.26.3.518.447.77a2.413,2.413,0,0,1,.13.319,19.769,19.769,0,0,0,.771,2.175,43.152,43.152,0,0,0,1.957,4.4,11.056,11.056,0,0,0,1.168,1.758,5.744,5.744,0,0,0,.792.771,10.927,10.927,0,0,1,.931.927,2.8,2.8,0,0,1,.766.929c.137.326.213.674.352,1,.284.671.9,1.154,1.066,1.881.005.024.043.021.038,0a4.907,4.907,0,0,0-.8-1.477c-.364-.615-.357-1.44-.823-1.993-.255-.3-.582-.555-.851-.853a6.146,6.146,0,0,0-.731-.643,5.588,5.588,0,0,1-.842-.9c-.213-.277-.348-.627-.546-.924a32.409,32.409,0,0,1-2.168-4.772,15.354,15.354,0,0,1-.673-1.78,3.857,3.857,0,0,0,.6.636c.227.189.459.369.692.548.017.031.035.061.054.092a9.769,9.769,0,0,1,.614,1.227c.3.7.607,1.4.974,2.073a15.45,15.45,0,0,0,1.4,2.285c.2.251.324.532.506.792a3.3,3.3,0,0,0,.794.674.043.043,0,0,0,.054-.068,3.214,3.214,0,0,1-.955-1.059c-.161-.288-.388-.529-.57-.806a22.29,22.29,0,0,1-1.31-2.356c-.4-.789-.666-1.64-1.073-2.422-.017-.035-.038-.071-.055-.107a9.062,9.062,0,0,1,3.113,3.352c.407.887.952,1.726,1.269,2.652.277.813.357,1.685.7,2.479a8.73,8.73,0,0,0,1.711,2.318c.562.617,1.073,1.277,1.638,1.891a8.874,8.874,0,0,1,1.744,2.714,22.289,22.289,0,0,1,.679,2.756c.234.936.641,1.768.815,2.718a7.72,7.72,0,0,0,.794,2.2c.867,1.645,2.42,2.576,3.928,3.538a16.565,16.565,0,0,0,2.139,1.475c.305.137.6.258.9.366a5.7,5.7,0,0,0,.688,1.973c.2.452.281.922.439,1.387.22.66.766,1.257.7,1.986a.887.887,0,0,1-.967.818c-.149-.019-.315-.192-.459-.255a4.231,4.231,0,0,0-1.361-.262,16.337,16.337,0,0,1-3.311-.555c-2.515-.754-4.193-3.011-5.989-4.77a32.41,32.41,0,0,1-2.595-2.569,12.48,12.48,0,0,1-1.17-1.962,1.368,1.368,0,0,0-.265-.468c-.075-.121-.149-.239-.231-.354a.138.138,0,0,0-.156-.059c-.043-.045-.087-.092-.128-.139a17.672,17.672,0,0,1-1.635-2.11,9.087,9.087,0,0,1-1.042-2.574,2.786,2.786,0,0,0-.555-1.335c-.069-.073-.185.042-.128.12a4.512,4.512,0,0,1,.466,1.772,7.443,7.443,0,0,0,.546,1.61c.581,1.165,1.631,1.978,2.264,3.078.149.258.517.685-.019.645-.078-.005-.4-.4-.485-.442a1.33,1.33,0,0,0-.711-.08c-1.184.016-1.978-1.087-2.361-2.188-.352-1.012-.009-2.1-.775-2.962m-2.508,2.207c-.023-.062-.042-.127-.069-.189a7.832,7.832,0,0,0-1.39-2.084c-1.068-1.187-1.711-2.519-3.03-3.21v0c-.08-.766-.312-1.506-.39-2.269a3.249,3.249,0,0,1,1.147-2.734,8.541,8.541,0,0,0,.777-.978,2.648,2.648,0,0,0,.137.607c.21.69.393,1.39.6,2.082a25.3,25.3,0,0,0,2.037,4.538,8.076,8.076,0,0,0,.881,1.355.358.358,0,0,0-.033.392c.466.887-.435,1.654-.659,2.442l-.012.05m-4.091,18.341a12.984,12.984,0,0,1-4.793-4.1c-.127-.154-.25-.309-.373-.465a14.012,14.012,0,0,0-1.1-1.8.088.088,0,0,0-.13-.021c-.109-.2-.213-.406-.307-.619-.4-.912-.77-1.836-1.173-2.746a9.812,9.812,0,0,1-.92-3.167c-.078-.9.033-1.8-.054-2.694A8.293,8.293,0,0,0,94,163.951a2.3,2.3,0,0,0-.052-.246,5.143,5.143,0,0,0-.343-.726,3.976,3.976,0,0,1-.2-1.2c-.007-1.044.489-2,.492-3.066a4.441,4.441,0,0,0-.5-2.177,14.478,14.478,0,0,0-1.655-2.255,4.523,4.523,0,0,1-.622-3.191,16.828,16.828,0,0,1,.959-3.363,5.382,5.382,0,0,1,.933-1.524.077.077,0,0,0-.083-.12c.246-.289.64-.641.719-.726.038-.04.078-.08.12-.121.809-.361,1.7-.506,2.51-.865.231-.1.466-.2.7-.291a2.633,2.633,0,0,0-.123.626,18.052,18.052,0,0,0,.277,2.094c.019.763-.518,1.182-.867,1.768a2.818,2.818,0,0,0-.284.931,4.388,4.388,0,0,0-.159,2.47,7.377,7.377,0,0,0,1.151,2.305.052.052,0,0,0-.023.045c.021.447-.028.882-.033,1.328,0,.361.106.707.106,1.068a5.7,5.7,0,0,0,.092,2.087.03.03,0,0,0,.055-.021,7.914,7.914,0,0,1-.042-2.316,7.7,7.7,0,0,1-.057-1.149,5.043,5.043,0,0,0,0-.915l.069.092c.539.683.915,1.449,1.517,2.08,0,.019,0,.036,0,.055.021.7.066,1.387.062,2.087A8.059,8.059,0,0,1,98.327,161c-.109.385-.2.775-.283,1.168-.066.3-.064.907-.26,1.135-.028.031.021.069.049.04.2-.22.17-.523.231-.806.106-.5.243-1.009.392-1.5a7.741,7.741,0,0,0,.418-2.245c.009-.683-.05-1.371-.059-2.056a7.61,7.61,0,0,0,2.545,1.694c.156.062.31.118.461.17a6.106,6.106,0,0,1,.088.82,1.6,1.6,0,0,1-.166,1.066,5.562,5.562,0,0,1-.485,1.1,2.367,2.367,0,0,0-.361.673.05.05,0,0,0,.092.04c.18-.407.452-.719.627-1.127a7.507,7.507,0,0,0,.491-1.135,4.579,4.579,0,0,0-.073-1.158c0-.08,0-.146-.012-.208a4.189,4.189,0,0,1,2.375,1.449c.595.813,1.179,1.511,1.844,2.26.1.113.2.229.286.347-.3.9-.551,1.818-.815,2.73-.3,1.033-.439,2.092-.792,3.11-.156.447-.257.9-.378,1.361-.127.478-.374.915-.478,1.4a8.031,8.031,0,0,1-.383,1.539,1.479,1.479,0,0,0-.159.853c.005.043.075.038.068-.007-.069-.522.276-.957.409-1.44a13.686,13.686,0,0,1,.348-1.439c.341-.872.574-1.78.863-2.673.3-.929.421-1.9.7-2.838.243-.806.517-1.612.742-2.425a5.408,5.408,0,0,1,.579,1c.009.232.064.47.08.7a8.653,8.653,0,0,1-.251,2.016,27.541,27.541,0,0,0-.262,3.949,28.252,28.252,0,0,1-.452,3.841,12.738,12.738,0,0,0,.246,3.911.035.035,0,0,0,.069-.007c-.068-.7-.232-1.378-.3-2.075a6.393,6.393,0,0,1,.179-2.077c.14-.6.153-1.2.26-1.808a16.481,16.481,0,0,0,.2-1.844,29.73,29.73,0,0,1,.3-3.852,15.683,15.683,0,0,0,.251-1.645c.012.078.028.156.035.237a8.448,8.448,0,0,0,.173,1.083,2.332,2.332,0,0,1-.054.243c-.029.1.076.172.166.158a3.889,3.889,0,0,0,1.85,2.181c.468.291.967.553,1.463.822a3.535,3.535,0,0,1,.111.9,7.21,7.21,0,0,1,.035,1.707c-.121.9-.3,1.785-.4,2.692a8.538,8.538,0,0,0,.12,2.623,9.06,9.06,0,0,1,.1,1.388,6.415,6.415,0,0,0,.25,1.3c.009.028.057.016.05-.012-.22-.99-.165-1.974-.335-2.969a11.548,11.548,0,0,1,.049-3.15,21.87,21.87,0,0,0,.376-2.8c-.01-.423-.057-.844-.1-1.265-.009-.1-.016-.2-.031-.3.2.111.4.222.591.34a.066.066,0,0,0-.01.038c-.069,1.435.719,2.77.631,4.191a7.924,7.924,0,0,0-.076.834,5.813,5.813,0,0,1,.029.775c0,.047-.026.1-.031.144a5.469,5.469,0,0,0,.016,1.024c.017.192.075.385.083.572.007.13-.026.222-.009.357a.03.03,0,0,0,.059-.005c-.036-.314.009-.612-.033-.931a4.346,4.346,0,0,1,.012-1.05,1.619,1.619,0,0,0,.069-.619,1.791,1.791,0,0,1-.052-.68c.023-.165.061-.326.068-.492.062-1.375-.633-2.669-.586-4.054a8.038,8.038,0,0,1,.679.471,6.4,6.4,0,0,1,.842.808,6.516,6.516,0,0,0,.191.789,10.708,10.708,0,0,1,.184,1.272c.092.747.149,1.479.291,2.215a17.2,17.2,0,0,1,.139,2.636,5.948,5.948,0,0,0,.588,2.222c.017.036.078.014.061-.023a6.043,6.043,0,0,1-.548-2.727,10.017,10.017,0,0,0-.144-2.311c-.075-.369-.04-.714-.08-1.087-.035-.315-.111-.626-.146-.945-.042-.373-.076-.775-.142-1.146-.038-.211-.1-.413-.156-.617a14.672,14.672,0,0,1,1.08,1.564c1.1,1.778,1.9,3.742,3.046,5.486a14.282,14.282,0,0,0,3.841,4,4.774,4.774,0,0,1,1.288,1.061c.473.719-.016,1.3-.673,1.619-.842.409-1.538.05-2.366-.187a2.988,2.988,0,0,0-1.959.111,6.54,6.54,0,0,1-3.014-.035,5.6,5.6,0,0,1-1.986-.825c-.289-.21-.508-.506-.806-.705a9.471,9.471,0,0,0-2.543-.976c-1.962-.549-4.046.1-5.984-.671m-2.643-40.923a18.312,18.312,0,0,0,1.487-1.139,5.764,5.764,0,0,0,.447-.385,10.667,10.667,0,0,1-2.052,3.221c-.523.6-1.51,1.04-1.754,1.855-.2.664.213,1.089.537,1.614,1.43,2.318-2.014,3.678-2.1,5.956a3.913,3.913,0,0,0,.65,1.8c.087.156.18.3.27.437a.051.051,0,0,0-.014.068,1.05,1.05,0,0,1,.028.809c-.456-.536-.884-1.118-1.328-1.718a4.508,4.508,0,0,1-.939-3.789,17.411,17.411,0,0,1,1.175-2.468,2.668,2.668,0,0,0-.026-1.771,2.7,2.7,0,0,1,.374-2.191,7.188,7.188,0,0,0,.865-.452c.861-.536,1.534-1.319,2.382-1.843m-2.2.712a21.3,21.3,0,0,1-2.59,1.127c-.74.3-1.484.595-2.227.889a.174.174,0,0,0-.043,0,.673.673,0,0,0-.374.189c-.3.146-.595.31-.889.473h0a9.292,9.292,0,0,0-1.47.731,3.118,3.118,0,0,1-1.709.459,6.282,6.282,0,0,1-2.425-.572c-.118-.054-.187.1-.111.179.038.038.08.075.12.113-.9-.354-1.817-.835-2.633-1.245a5.727,5.727,0,0,0-1.128-.449,24.653,24.653,0,0,1,2.368-.763c.751-.246,1.5-.383,2.257-.595a17.634,17.634,0,0,1,5.443-.581c.832.031,1.64.225,2.477.215a24.277,24.277,0,0,0,2.482-.2c.208-.024.447-.061.7-.111-.08.049-.158.1-.241.147M86.693,155.829a19.462,19.462,0,0,0,2.669-1.5,6.821,6.821,0,0,1-.419,1.468c-.437.907-1.024,1.739-1.408,2.673a18.7,18.7,0,0,1-1.494,2.546c-.255.421-.581.8-.818,1.229a7.436,7.436,0,0,1-.8,1.409,3.339,3.339,0,0,0-.726.959c-.128.338-.179.712-.281,1.059a2.412,2.412,0,0,0-.049,1.031,4.154,4.154,0,0,1-.192,1.089,3.241,3.241,0,0,0-.107,1.078,5.424,5.424,0,0,0,.442,1.028,10.375,10.375,0,0,0,.5,1.345,5.985,5.985,0,0,0,.648.816,2.238,2.238,0,0,1,.506,1.272,7.542,7.542,0,0,0,.05,1.154,1.293,1.293,0,0,0,.4.738c.158.144.345.251.5.392a6.318,6.318,0,0,1,.508.589c.338.38.751.686,1.094,1.068a10.079,10.079,0,0,1,.908,1.108,9.08,9.08,0,0,0,.8,1.08,2.054,2.054,0,0,1,.634,1.22,6.264,6.264,0,0,1-.225,1.291c-.064.413-.057.834-.159,1.241a21.4,21.4,0,0,1-.965,2.607c-.355.894-1.066,1.567-1.343,2.5a3.133,3.133,0,0,0,0,2.148c.165.317.523.511.737.792.241.312.4.68.666.978.518.589,1.279.927,1.832,1.489a8.774,8.774,0,0,1,1.43,2.739,8.77,8.77,0,0,0,.636.953c.107.177.142.385.237.565a2.138,2.138,0,0,1,.269.491c.007.024.049.014.043-.01a4.668,4.668,0,0,0-.444-1c-.2-.4-.5-.707-.69-1.12a9.655,9.655,0,0,0-1.284-2.567c-.61-.69-1.543-1.075-2.073-1.829a9.342,9.342,0,0,0-.709-1.061,1.846,1.846,0,0,1-.473-.607,2.21,2.21,0,0,1-.1-1.026,4.073,4.073,0,0,1,.409-1.449c.218-.428.543-.789.79-1.2a18.317,18.317,0,0,0,1.024-2.458,10.926,10.926,0,0,0,.5-2.305,2.815,2.815,0,0,0,.05-1.8,3.971,3.971,0,0,0-.688-.957c-.279-.333-.492-.712-.742-1.068-.3-.421-.664-.785-1-1.177-.274-.319-.615-.553-.894-.86-.309-.338-.593-.608-.927-.917a1.622,1.622,0,0,1-.461-1.357,2.794,2.794,0,0,0-.569-1.851c-.12-.161-.26-.289-.387-.439a2.878,2.878,0,0,1-.432-.751c-.153-.352-.206-.737-.364-1.085a3.036,3.036,0,0,1-.352-.829,2,2,0,0,1,.064-.671c.068-.355.175-.711.232-1.068.066-.416-.1-.778.029-1.2a9.542,9.542,0,0,1,.305-1.137c.189-.426.612-.7.87-1.082a11.029,11.029,0,0,0,.548-1.042c.39-.751.967-1.394,1.362-2.148.2-.373.523-.631.7-1.012.18-.4.328-.829.52-1.227.383-.783.913-1.512,1.264-2.311a10.725,10.725,0,0,0,.409-1.35c.045-.154.078-.317.116-.477q.465-.312.934-.633c.017.071.031.144.052.213.25.877,1.071,1.51,1.572,2.248.016.021.028.043.043.064l-.1-.062c-.08-.054-.2.012-.161.114.007.016-.393.7-.444.8-.123.26-.31.508-.449.766-.166.312-.426.546-.595.858s-.34.593-.527.891c-.4.634-.737,1.3-1.168,1.912a5.947,5.947,0,0,0-.426.815.5.5,0,0,0-.1.359.06.06,0,0,0,.12-.012,2.609,2.609,0,0,1,.267-.641,5.682,5.682,0,0,1,.615-.889c.369-.56.711-1.135,1.08-1.694.177-.267.291-.577.485-.834a4.565,4.565,0,0,0,.5-.653c.277-.536.647-1.031.945-1.564a.118.118,0,0,0,.009-.085,5.15,5.15,0,0,1,.726,1.7c-.137.236-.324.51-.362.572-.154.26-.314.518-.468.778-.357.6-.627,1.264-1.005,1.855-.326.511-.73.962-1.1,1.437a3.475,3.475,0,0,0-.369.631,5.681,5.681,0,0,1-.612.822c-.35.458-.558,1-.927,1.454s-.778.913-1.163,1.375-.638,1-1,1.5c-.393.543-.848,1.045-1.269,1.565a.06.06,0,0,0,.094.076c.445-.539.933-1.063,1.345-1.629.373-.515.666-1.049,1.087-1.534.393-.456.813-.894,1.191-1.361s.579-1,.959-1.437c.413-.473.653-1.026,1.054-1.508a11.927,11.927,0,0,0,1.05-1.4c.338-.56.6-1.158.941-1.721.206-.345.421-.686.622-1.035a5.316,5.316,0,0,1-.246,2.2,4.877,4.877,0,0,0-.187,2.532c0,.017.009.033.014.05-.106.135-.234.257-.333.373a11.985,11.985,0,0,0-.78,1.167c-.454.679-.752,1.42-1.137,2.132-.416.768-.787,1.564-1.2,2.338a7.508,7.508,0,0,1-.971,1.338,10.517,10.517,0,0,0-.808,1.238c-.035.054.043.12.08.064a10.86,10.86,0,0,1,1-1.428,6.337,6.337,0,0,0,.893-1.234c.3-.541.6-1.078.889-1.617a10.475,10.475,0,0,0,.569-1.078,3.57,3.57,0,0,1,.418-.744c.147-.211.224-.459.359-.679a10.28,10.28,0,0,1,.9-1.317c.052-.062.127-.139.2-.227a12.673,12.673,0,0,0,.834,1.761c-.489.633-.735,1.494-1.175,2.156-.236.352-.416.733-.679,1.068a8,8,0,0,0-.775,1.078c-.244.444-.439.915-.686,1.361-.187.34-.477.608-.652.953a19.366,19.366,0,0,1-1.451,2.947c-.036.049.036.111.075.061a13.876,13.876,0,0,0,1.428-2.678,11.149,11.149,0,0,1,.685-1.005c.236-.392.435-.813.645-1.22a7.88,7.88,0,0,1,.927-1.335c.27-.338.445-.709.69-1.063.43-.621.685-1.4,1.109-2.021l.009.017c-.009.454-.128.884-.118,1.354.01.57.075,1.147.055,1.721a23.008,23.008,0,0,1-.822,2.246c-.39,1.071-.451,2.214-.78,3.293-.158.513-.4.983-.517,1.512-.133.6-.253,1.2-.385,1.792a9.323,9.323,0,0,0-.25,1.433c-.019.295-.047.57-.094.858-.019.12.017.315-.04.421-.029.057.062.1.094.04.076-.137.014-.149.038-.289a6.83,6.83,0,0,0,.132-.7,9.529,9.529,0,0,1,.305-1.635c.159-.626.295-1.257.454-1.881.14-.548.426-1.028.582-1.567.172-.586.243-1.208.374-1.806a15.424,15.424,0,0,1,.634-2.014c.01-.029.023-.057.035-.087-.005.357.05.718.045,1.076-.014.653.029,1.295-.012,1.952s-.237,1.264-.324,1.917.075,1.343.033,2.018c-.017.269-.045.536-.075.8a7.886,7.886,0,0,0-.374,1.024c-.187.543-.416,1.061-.569,1.616-.179.643-.362,1.283-.492,1.938a5.633,5.633,0,0,0-.305,1.321c0,.069.107.057.106-.01a2.37,2.37,0,0,1,.224-.757c.073-.231.113-.471.17-.707.149-.614.345-1.215.53-1.818a16.043,16.043,0,0,1,.627-1.669c0,.049-.009.1-.009.146A9.589,9.589,0,0,0,93.385,181c.114.6.321,1.158.406,1.756.05.35.244.621.314.969a7.809,7.809,0,0,1,.088,1.028,10.8,10.8,0,0,0,.317,1.785c.168.712.258,1.439.409,2.156.137.647.345,1.267.445,1.924a16.694,16.694,0,0,1,.347,4.079c-.114,1.349-.56,2.623-.787,3.95-.118.69-.359,1.343-.43,2.045a17.444,17.444,0,0,0-.085,2.042c0,.059.092.05.092-.01a12,12,0,0,1,.218-2.773c.173-.738.315-1.484.487-2.222.166-.709.416-1.385.541-2.106a11.363,11.363,0,0,0,.172-2.012,12.341,12.341,0,0,0-.232-2.156c-.1-.575-.151-1.161-.286-1.733-.328-1.371-.629-2.765-.872-4.157-.118-.673-.026-1.387-.194-2.049a6.263,6.263,0,0,1-.26-.913,4.028,4.028,0,0,0-.17-.731,10.289,10.289,0,0,1-.359-2.25,10.73,10.73,0,0,1,.1-1.86c.047-.1.092-.2.139-.3s-.036-.147-.111-.137a16.773,16.773,0,0,0-.024-1.818,11.142,11.142,0,0,1,.315-1.856,12.832,12.832,0,0,0,.043-2.064c-.014-.267.016-.53.014-.8a6.823,6.823,0,0,1-.042-1.012c.049-.338.166-.653.194-.995.005-.071.005-.14.009-.211a.967.967,0,0,0,.023-.738l-.005-.009c.01-.567-.049-1.092.007-1.648a21.165,21.165,0,0,1,.135,3.115,7.617,7.617,0,0,0,.168,1.144c-.024.669-.005,1.335-.047,2.009a13.854,13.854,0,0,0,.019,2.383c.092.834.265,1.654.361,2.487a23.025,23.025,0,0,1,.128,2.517c0,.4-.061.8-.064,1.2-.005.444.045.889.073,1.329.049.822-.024,1.645.085,2.46.1.792,0,1.569.075,2.354.068.709.387,1.362.437,2.075a.031.031,0,0,0,.062-.005c-.005-.718-.288-1.376-.343-2.085-.062-.792.049-1.558-.054-2.356-.1-.813-.026-1.642-.075-2.46-.045-.79-.021-1.55-.007-2.338a32.755,32.755,0,0,0-.454-4.9,14.751,14.751,0,0,1-.059-2.725c.028-.482.005-.96-.009-1.437a16.976,16.976,0,0,0,.874,2.314.135.135,0,0,0-.149.208,6.128,6.128,0,0,1,.733,1.87,15.1,15.1,0,0,0,.549,1.7,16.559,16.559,0,0,1,.927,3.739c.1.634.153,1.279.3,1.908a12.558,12.558,0,0,0,.6,1.751,14.863,14.863,0,0,1,.615,1.751,3.223,3.223,0,0,0,.586,1.326c.038.043.111-.009.073-.052a4.269,4.269,0,0,1-.662-1.706c-.17-.621-.449-1.212-.673-1.815a23.57,23.57,0,0,1-.832-3.935c-.114-.595-.154-1.2-.307-1.791-.149-.57-.4-1.108-.6-1.659-.218-.595-.319-1.217-.523-1.817-.023-.066-.042-.132-.061-.2.1.229.2.458.3.688a14.31,14.31,0,0,0,2.444,3.749c.159.673.315,1.347.484,2.018a20.983,20.983,0,0,0,.768,2.519c.142.364.413.626.563.986.073.18.059.258.241.387.04.029.088-.031.049-.059-.14-.1-.315-.621-.444-.8a3.991,3.991,0,0,1-.494-1.135c-.276-.794-.447-1.6-.664-2.415-.106-.4-.185-.813-.265-1.224.276.312.556.619.837.919a15.321,15.321,0,0,0,2.4,1.869,6.271,6.271,0,0,0,2.07.969,9.941,9.941,0,0,0,2.416.234c-.185.52-.118,1.115-.265,1.65-.172.614-.191,1.22-.324,1.841-.175.806-.276,1.624-.494,2.42a6.175,6.175,0,0,1-1.345,2.38c-.582.7-1.116,1.454-1.735,2.123-.6.65-1.265,1.21-1.844,1.884a7.6,7.6,0,0,0-1.408,2c-.279.674-.43,1.394-.7,2.071a12.2,12.2,0,0,1-1.572,2.526c-.442.631-.775,1.326-1.25,1.941a15.943,15.943,0,0,1-1.584,1.749c-.515.5-1.239.707-1.309-.371-.038-.591.191-1.206.14-1.827a11.128,11.128,0,0,0-.324-1.784,36.7,36.7,0,0,1-.735-3.605,8.684,8.684,0,0,0-.964-3.394c-.745-1.217-2.123-1.77-3.033-2.827a6.745,6.745,0,0,0-.719-.867c-.383-.326-.719-.43-.924-.953a3.512,3.512,0,0,1,.054-2.035c.295-1.274.8-2.475,1.076-3.755a3.552,3.552,0,0,0-.191-2.619,7.35,7.35,0,0,0-1.161-1.281,2.321,2.321,0,0,1-.9-1.2c-.031-.121-.047-.257-.083-.38a10.365,10.365,0,0,0-2.449-3.832,10.682,10.682,0,0,1-2.059-3.937,8.563,8.563,0,0,1-.326-2.413,2.42,2.42,0,0,1,.355-1.486c.669-1.323,1.279-2.633,2.049-3.9s1.662-2.4,2.354-3.7a15.588,15.588,0,0,0,.913-1.721,13.49,13.49,0,0,1,.666-2.092M73.71,159.493a10.8,10.8,0,0,0,1.827-2.728c.111-.113.22-.231.331-.367a.094.094,0,0,0-.144-.12,5.314,5.314,0,0,0,.263-1.182c.113-1.071-.692-2.214.016-3.122.556-.716,1.222-1.17,1.718-1.895.582.392,1.177.782,1.713,1.222.442.364.744.569,1.316.4s.9-.7,1.38-.985a5.682,5.682,0,0,1,1.453-.361,10.88,10.88,0,0,0,1.165-.466c.9-.348,1.773-.667,2.666-1.05.777-.331,1.551-.664,2.324-1.007a3.878,3.878,0,0,0,1.692-1.213,3.9,3.9,0,0,1,.919-.725l.231-.1c-.017.028-.031.057-.045.085a.122.122,0,0,0-.036.047c-.042.1-.029.156-.061.237a1.007,1.007,0,0,1-.163.295.744.744,0,0,0-.191.161c-.021.026-.038.055-.057.085a10.162,10.162,0,0,1-.848.79,12.58,12.58,0,0,1-2.054,1.291,31.924,31.924,0,0,1-3.782,1.836c-.714.217-1.458.284-2.17.492-.612.18-.889.638-1.264,1.123-.669.87-1.447.678-2.285.144-.621-.4-1.326-.725-1.91-1.17-.042-.031-.09.029-.05.061.362.283.773.5,1.151.759.345.237.712.458,1.071.671a1.625,1.625,0,0,0,1.487.2c.69-.309.865-1.2,1.546-1.529a4.834,4.834,0,0,1,1.336-.27,10.239,10.239,0,0,0,1.1-.246A10.491,10.491,0,0,0,87.436,150c.725-.376,1.461-.728,2.177-1.115a9.859,9.859,0,0,0,2.168-1.477l.021-.021a2.19,2.19,0,0,1-.073.276,17.423,17.423,0,0,0-1.017,3.176,8.317,8.317,0,0,0-.066,1.824.356.356,0,0,0-.477.251c-.038.023-.078.043-.114.068a.14.14,0,0,0-.191.045c-.024.035-.047.071-.069.107-.835.506-1.633,1.066-2.513,1.494a21.921,21.921,0,0,1-2.451,1,16.838,16.838,0,0,1-4.933.563,8.067,8.067,0,0,0-4,1.361,10.444,10.444,0,0,0-1.844,1.619,3.926,3.926,0,0,1-.347.322m-6.022-6.649a4.64,4.64,0,0,0-1.51-1.061c-.794-.322-2.025-.192-2.019-1.356,0-.678,1.34-1.577,1.7-2.134a10.733,10.733,0,0,0,.759-2.141c.251-.638.853-.981,1.038-1.654a4.673,4.673,0,0,1,.452-1.335c.213-.35.482-.657.719-.988.283.187.575.364.875.543a25.138,25.138,0,0,0,3.281,1.962,8.136,8.136,0,0,0,2.992.563,16.952,16.952,0,0,0,3.612-.324c1.139-.222,2.546-.754,3.708-.529a15.3,15.3,0,0,1,2.115.825c.6.22,1.194.461,1.785.711a5.632,5.632,0,0,0,1.217.392,4.559,4.559,0,0,0,1.654.267c-.1.073-.21.144-.326.21a.077.077,0,0,0-.114-.061c-.2.111-.563,0-.8.042a6.113,6.113,0,0,1-1.508.118,21.038,21.038,0,0,0-2.408.1,11.768,11.768,0,0,1-2.579-.035,6.368,6.368,0,0,1-2.52-.882c-.052-.038-.114.038-.064.078a6.243,6.243,0,0,0,2.389.946,11.065,11.065,0,0,0,2.709.111c.513-.009,1.016-.076,1.531-.078.532,0,1.059.045,1.588.047.447,0,.861-.14,1.3-.149-.979.451-1.954.979-2.955,1.408a.066.066,0,0,0-.009-.113l-.106-.062a.08.08,0,0,0-.076.007,3.716,3.716,0,0,1-1.118.172,7.757,7.757,0,0,1-1.1.069,15.174,15.174,0,0,1-2.21-.033,3.86,3.86,0,0,1-2.025-.953,2.18,2.18,0,0,0-1.335-.482c-.4-.012-.792.024-1.2-.009a4.32,4.32,0,0,0-.718-.036,4.682,4.682,0,0,1-1.045.057c-.352-.043-.7-.116-1.049-.175a6.466,6.466,0,0,1-2-.621,12.311,12.311,0,0,1-1.808-1.127.044.044,0,0,0-.055.069,7.832,7.832,0,0,0,3.64,1.824,8.034,8.034,0,0,0,1.954.246,11.78,11.78,0,0,1,2.356.045c.86.09,1.276.794,2.011,1.13a5.076,5.076,0,0,0,2.007.4,19.391,19.391,0,0,0,2.245-.042,9.377,9.377,0,0,0,1.1-.184,3.574,3.574,0,0,1,.477-.175.053.053,0,0,0,.04,0,12.016,12.016,0,0,1-1.2.449c-.82.251-1.55.607-2.4.789a2.7,2.7,0,0,0-1.213.506c-.26.2-.666.712-1.011.745-.319.029-.759-.461-1-.621a18.122,18.122,0,0,0-1.718-1.011.335.335,0,0,0-.435.17,5.048,5.048,0,0,1-1,1.236.158.158,0,0,0-.118-.1,32.11,32.11,0,0,1-3.682-1.3,11.063,11.063,0,0,1-1.919-.783,8.906,8.906,0,0,1-1.418-1.063c.059-.146-.154-.291-.244-.149-.023.033-.045.068-.068.1a.161.161,0,0,0-.007.189c1.052,1.354,2.487,1.766,3.966,2.48.527.255,2.222,1.264,3.089,1.033a4.343,4.343,0,0,0-.645.83,1.906,1.906,0,0,0,0,1.858,3.3,3.3,0,0,1,.163,1.023.054.054,0,0,0-.036.014,10.1,10.1,0,0,1-2.735,1.72,13.964,13.964,0,0,1-3.181,1.382c-.09.014-.078.153.014.14a13.138,13.138,0,0,0,3.4-1.394,6.752,6.752,0,0,0,2.536-1.628,5.437,5.437,0,0,1-.558,2.007,9,9,0,0,1-3.333,1.6c-.094.021-.081.172.016.153a10.1,10.1,0,0,0,2.394-1.016c.281-.137.53-.267.761-.406A18.72,18.72,0,0,1,72.971,160c-.246.144-.5.286-.771.461-.3.191-.586.56-.941.612-.34.05-.393-.069-.645-.305-.511-.478-.9-1.038-1.359-1.56a7.877,7.877,0,0,1-1.146-1.406c-.435-.806-.153-1.364.1-2.163a2.731,2.731,0,0,0-.522-2.792m-8.1-29.381a2.279,2.279,0,0,0,.468,1.089c.5.673,1.146,1,.7,1.955a2.973,2.973,0,0,1-1.153.959c-.953.563-3.694.506-3.4,2.274.367,2.194,3.165,2.721,3.99,4.535.364.8.423,1.752,1.073,2.394A9.053,9.053,0,0,0,64,138.294c.173.078.341.163.5.253-.759-.137-1.5-.369-2.264-.5a15.979,15.979,0,0,0-2.85-.1c-.9.009-1.8-.1-2.694-.057a28.122,28.122,0,0,1-2.961-.054,22.774,22.774,0,0,1-2.775-.224,19.568,19.568,0,0,1-2.921-.681c-.87-.305-1.68-.747-2.526-1.108A16.622,16.622,0,0,0,43.045,135a10.1,10.1,0,0,0-2.408-.376,18.859,18.859,0,0,1-2.851-.106.049.049,0,0,0-.016.1,25.333,25.333,0,0,0,3.139.175,9.981,9.981,0,0,1,2.976.711c.907.335,1.777.652,2.652,1.071a14.246,14.246,0,0,0,2.453.929,26.211,26.211,0,0,0,5.573.7c.881.049,1.751,0,2.631,0,.931,0,1.853.1,2.784.05a11.019,11.019,0,0,1,2.86.244,8.482,8.482,0,0,0,2.09.31,13.277,13.277,0,0,1,2.295,2.03c-.307-.04-.6-.168-.907-.229a11.839,11.839,0,0,0-1.231-.184c-.849-.078-1.716-.118-2.567-.14-1.581-.04-3.136.3-4.711.286a8.037,8.037,0,0,0-1.1.154c-.361.043-.719-.055-1.082-.04a19.455,19.455,0,0,1-2.484.033c-.794-.061-1.541-.248-2.321-.378a22.141,22.141,0,0,1-2.439-.506c-.9-.255-1.775-.589-2.657-.894a10.627,10.627,0,0,1-2.142-.8c-.035-.019-.069.038-.036.061a10.073,10.073,0,0,0,2.425.985c.886.317,1.768.647,2.676.889.83.222,1.678.314,2.513.5a14.47,14.47,0,0,0,2.534.345c.78.036,1.565-.1,2.335-.05.7.05,1.342-.135,2.044-.128.82.007,1.643-.151,2.458-.224a19.036,19.036,0,0,1,2.74-.049c.815.043,1.631.031,2.441.147a8.968,8.968,0,0,1,1.187.246,1.707,1.707,0,0,0,.407.071c.031.031.061.062.09.094a6.958,6.958,0,0,0,.738.664l-.019.019c-.442.021-.887-.01-1.326.028a7.016,7.016,0,0,1-1.307.159,12.312,12.312,0,0,0-2.461.068c-.959.1-1.917.2-2.876.307a16.154,16.154,0,0,1-2.91.274c-1.551-.107-3.106.173-4.661-.052-.752-.109-1.544-.26-2.285-.44-.374-.09-.723-.237-1.1-.3a6.6,6.6,0,0,1-1.137-.411c-.78-.272-1.6-.494-2.385-.733a7.4,7.4,0,0,0-2.037-.246c-.759-.007-1.527,0-2.286.033-.423.019-.844.059-1.267.075-.328.014-.655-.042-.983-.028-.373.017-.7.144-1.078.153a6.838,6.838,0,0,0-.957.1,18.657,18.657,0,0,1-2.328.17A19.044,19.044,0,0,1,29.8,140.4c-.855-.194-1.7-.421-2.55-.645-.881-.231-1.711-.569-2.571-.858a16.22,16.22,0,0,1-2.214-.952,2.515,2.515,0,0,0-1.317-.5c-.059.005-.047.087.009.087a2.441,2.441,0,0,1,1.1.508c.381.218.78.425,1.179.608.825.378,1.721.643,2.572.957s1.758.511,2.636.742a20.46,20.46,0,0,0,2.77.574,34.017,34.017,0,0,0,4.564.2c.768-.012,1.522-.187,2.292-.211.347-.01.648-.168,1-.159.319.007.624.033.943.014a21.441,21.441,0,0,1,4.866.007c.783.139,1.543.47,2.314.673.466.123.874.336,1.324.487.319.106.657.125.979.225a19.059,19.059,0,0,0,4.418.683,19.638,19.638,0,0,0,2.257-.107c.38-.021.747.045,1.123.045a8.933,8.933,0,0,0,1.158-.109c1.7-.215,3.392-.432,5.094-.6a7.554,7.554,0,0,1,1.385-.052,3.991,3.991,0,0,0,.861.043c.371-.047.714-.177,1.092-.2.312-.016.624-.023.934-.047a5.128,5.128,0,0,0-.842,1.158c-1.05.092-2.094.2-3.137.374-1.16.187-2.323.333-3.5.444-1.217.114-2.434.232-3.656.291a32.533,32.533,0,0,1-3.607-.113,20.068,20.068,0,0,1-3.189-.25,16.582,16.582,0,0,1-3.195-1.141,8.762,8.762,0,0,0-2.952-.744,12.358,12.358,0,0,0-1.541-.064c-.525.023-1.024.153-1.543.218-1.083.133-2.156.232-3.247.276a12.3,12.3,0,0,1-1.633-.068c-.518-.052-1.007-.263-1.525-.331a.038.038,0,0,0-.012.075c.574.078,1.116.322,1.7.352.553.026,1.1.076,1.654.059a23.569,23.569,0,0,0,3.644-.328,10.55,10.55,0,0,1,3.366.047,13.654,13.654,0,0,1,3.176,1.186,12.257,12.257,0,0,0,2.962.834c1.13.158,2.283.107,3.42.217a43.081,43.081,0,0,0,7.024-.295,8.415,8.415,0,0,0,.882-.165,4.365,4.365,0,0,1,.69-.014,14.536,14.536,0,0,0,1.537-.243,12.545,12.545,0,0,1,1.671-.187,5.239,5.239,0,0,0,.855-.094,3.538,3.538,0,0,0-.13.367,3.571,3.571,0,0,1-.721,1.42,3.237,3.237,0,0,0-.5,1.106,5.182,5.182,0,0,1-.747,1.869c-.3.387-.688.7-1,1.076a2.706,2.706,0,0,0-.73,2.006c.127.7.775.879,1.371,1.057a6.371,6.371,0,0,1,2.2.9,1.765,1.765,0,0,1,.757,1.1,15.925,15.925,0,0,0-2.609.569,16.321,16.321,0,0,1-2.85.071,7.459,7.459,0,0,1-2.813-.362,13.445,13.445,0,0,1-2.682-1.473,26.406,26.406,0,0,0-5.224-2.782,10.368,10.368,0,0,0-2.69-.456,3.04,3.04,0,0,1,.917-.085c.426.05.839.165,1.269.208.388.04.775.08,1.161.137a12.917,12.917,0,0,0,2.383.177,6.476,6.476,0,0,1,2.019-.031,7.211,7.211,0,0,1,2.142,1.577,6.28,6.28,0,0,0,1.95,1.314,7.016,7.016,0,0,0,1.907.4,1.369,1.369,0,0,0,1.172-.477c.028-.038-.028-.083-.057-.047-.364.452-1.064.373-1.562.246a11.905,11.905,0,0,1-1.437-.4,10.006,10.006,0,0,1-2.451-1.888,3.733,3.733,0,0,0-2.016-1.156c-.806-.066-1.624.128-2.437.1-.974-.033-1.948-.18-2.921-.272-.43-.042-.863-.191-1.295-.191a10.779,10.779,0,0,0-1.3.222c-.43.054-.875.12-1.321.173-.21.009-.421.019-.634.029-.589.029-1.236.038-1.895.007a5.966,5.966,0,0,1-.593-.113c-.215-.052-.43-.151-.65-.192a3.237,3.237,0,0,1-.681-.1.061.061,0,0,0-.049.111,1.3,1.3,0,0,0,.215.088,6.611,6.611,0,0,1-2-.712c-1.394-.808-2-2.4-3.437-3.2a28.321,28.321,0,0,0-2.671-1c-.851-.367-1.668-.768-2.489-1.2a49.021,49.021,0,0,0-5.089-2.1,29.96,29.96,0,0,1-5.347-2.257,23.473,23.473,0,0,1-2.278-1.829,2.013,2.013,0,0,1-.735-1.137,1.128,1.128,0,0,1,.248-1.317,1.006,1.006,0,0,1,1.222-.407,5.567,5.567,0,0,1,.645.182c.274.085.544.189.82.265a8.192,8.192,0,0,0,2.182.248,17.378,17.378,0,0,0,4.654-.357,6.032,6.032,0,0,0,.934-.406,2.014,2.014,0,0,1,.638-.175,7.913,7.913,0,0,0,1.777-.556,8.159,8.159,0,0,0,3.389-2.17c.787-1.109-.536-2.883,1.078-3.377,1.508-.461,3.174-.055,4.687.179a14.427,14.427,0,0,0,4.665-.076c.771-.133,1.435-.537,2.222-.6a8.537,8.537,0,0,0,1.827-.26c1.622-.5,2.907-1.824,4.5-2.465a22.792,22.792,0,0,1,5.559-1.392.418.418,0,0,0,.1-.021m9.658-8.691a7.6,7.6,0,0,0,.544,1.352c.387.787.754,1.586,1.2,2.34.972,1.636,2.094,3.158,3.167,4.729,1.1,1.614,2.425,3.1,3.675,4.6.64.77,1.276,1.543,1.943,2.288a11.163,11.163,0,0,0,.79.811c-.388-.187-.778-.371-1.173-.551-.653-.3-1.291-.626-1.924-.957a8.688,8.688,0,0,1-1.326-1.248c-.307-.378-.6-.764-.931-1.121-.74-.809-1.453-1.648-2.212-2.439a34.293,34.293,0,0,1-2.347-2.763,27.859,27.859,0,0,1-2-2.482c-.017-.029-.057,0-.042.031a7.727,7.727,0,0,0,1.047,1.361c.369.418.69.872,1.033,1.314a30.166,30.166,0,0,0,2.1,2.48c.461.477.889.967,1.31,1.479.366.442.8.815,1.177,1.243s.721.907,1.116,1.328a6.081,6.081,0,0,0,.792.669c-.8-.421-1.6-.846-2.418-1.234a59.3,59.3,0,0,1-10.445-6.4.086.086,0,0,0-.109.133,39.013,39.013,0,0,0,5.28,3.973,54.934,54.934,0,0,0,5.273,2.773c1.156.558,2.3,1.154,3.441,1.745-2.812-.969-5.516-2.266-8.386-3.1-1.595-.465-3.219-.792-4.831-1.18a11.816,11.816,0,0,1-2.217-.673,3.267,3.267,0,0,0-1.307-.451.055.055,0,0,0-.017.109,10.283,10.283,0,0,1,1.737.714,16.88,16.88,0,0,0,1.777.477c1.539.367,3.092.681,4.618,1.108,2.973.829,5.791,2.123,8.705,3.084a.03.03,0,0,0,.038-.028c.608.314,1.22.626,1.837.927a16.653,16.653,0,0,1,5.419,3.81,14.1,14.1,0,0,0,7.194,3.685c.055.049.109.1.166.146.01.01.026-.009.014-.019-.045-.038-.087-.078-.132-.116.671.121,1.345.213,2,.307a19.576,19.576,0,0,0,5.3-.078,7.623,7.623,0,0,0,3.664-1.222,2.443,2.443,0,0,0-.2.418,5.354,5.354,0,0,0-.194.777,20.156,20.156,0,0,1-2.129,1.645c-.175.071-.35.144-.53.215a7.77,7.77,0,0,1-3.533.378c-2.309-.2-4.574-.815-6.88-.986a21.429,21.429,0,0,0-6.344.111,20.862,20.862,0,0,0-2.543.673,5.274,5.274,0,0,0-2.019.872c-.059.055.033.147.1.1a5.469,5.469,0,0,1,1.716-.638,12.968,12.968,0,0,1,1.425-.454,14.361,14.361,0,0,1,2.9-.527,34.356,34.356,0,0,1,6.724.385,27.261,27.261,0,0,0,6.1.707,8.487,8.487,0,0,0,2.03-.251c-.234.166-.468.336-.7.5a18.136,18.136,0,0,1-2.917.355,16.338,16.338,0,0,1-2.806-.165,20.988,20.988,0,0,0-2.165.045,20.761,20.761,0,0,0-4.663.7,18.656,18.656,0,0,0-2.162.692,10.128,10.128,0,0,0-1.671.645,4.653,4.653,0,0,0-1.678,0c-2.616.4-5.474,1.239-8.074.3a15.454,15.454,0,0,1-3.254-1.886c-.423-.277-.867-.487-1.279-.775a.374.374,0,0,0-.366-.288c-.543-.47-.978-.993-1.484-1.5a9.831,9.831,0,0,0-2.435-1.832,12.676,12.676,0,0,1-2.938-1.657c-.806-.73-.766-1.948-1.413-2.789a15.234,15.234,0,0,0-2.423-1.957c-.978-.835-2.177-2.538-.26-3.193a9.532,9.532,0,0,0,2.064-.652c1.03-.622,2.032-1.546,1.18-2.721-.312-.43-.8-.763-.9-1.323-.116-.657.3-.841.345-1.387a3.562,3.562,0,0,0-.653-1.756c-.477-.87-1.238-1.47-1.652-2.387a3.558,3.558,0,0,1-.406-1.43c.026-1.031.948-1.491,1.77-1.619a10.256,10.256,0,0,1,3.318-.184,16.166,16.166,0,0,0,1.593.34c.52.036,1.05.009,1.57.021a7.911,7.911,0,0,0,2.766-.274c.185-.061.367-.132.548-.2m18.1,1.581a7.2,7.2,0,0,1,6.835,2.139A7.512,7.512,0,0,0,96,119.752a6.919,6.919,0,0,1,.647.409c-.284-.159-.569-.321-.837-.5-.052-.033-.111.035-.062.076a14.693,14.693,0,0,0,1.468,1.011,1.209,1.209,0,0,1,.163.777,7.213,7.213,0,0,1-.31.929,1.354,1.354,0,0,0,.465,1.489c.861.79,1.827,1.276,2.307,2.428.421,1.012.227,2.158.47,3.214a6.753,6.753,0,0,0,1.016,2.267c.666.946,1.551,1.791,2.255,2.721a14.053,14.053,0,0,0,1.945,2.184c-.021.3-.055.591-.055.889a9.551,9.551,0,0,1-.135,1.42,4.265,4.265,0,0,1-.511,1.4.114.114,0,0,0-.107.114c0,.028,0,.055,0,.085-.133.231-.276.458-.413.683a26.061,26.061,0,0,1-1.463,2.506,5.656,5.656,0,0,1-.908.946c-.3.239-.667.362-.972.591-.463.347-.369.737-.062,1.161s.7.777.624,1.362a3.024,3.024,0,0,1-.463,1.295,4.362,4.362,0,0,1-1.146,1.024,2.069,2.069,0,0,0-.548.725c-.168.3-.548.617-.61.967-.055.31.144.631.175.934a.027.027,0,0,0,.054-.005,2.3,2.3,0,0,0-.076-.4.993.993,0,0,1,.321-1c.348-.409.466-.865.943-1.182a3.165,3.165,0,0,0,1.4-1.744,1.716,1.716,0,0,0-.083-1.539c-.283-.454-1.012-1.047-.305-1.5a8.664,8.664,0,0,0,.929-.57,6.066,6.066,0,0,0,.584-.556,6.93,6.93,0,0,0-.033.849,11.28,11.28,0,0,0,0,1.569c.047.572.206,1.13.236,1.7a6.929,6.929,0,0,1-.055,1.687c-.005.017.026.026.031.009a4.866,4.866,0,0,0,.116-1.26,5.711,5.711,0,0,0-.1-1.33,9.166,9.166,0,0,1-.118-1.8,7.337,7.337,0,0,1,.087-.782c.042-.3-.029-.648.156-.91a.1.1,0,0,0,0-.12c.04-.054.081-.106.121-.159a1.894,1.894,0,0,0-.01.686c.052.426.071.86.133,1.288a3.215,3.215,0,0,0,.993,1.966c.042.038.094-.028.054-.064a3.3,3.3,0,0,1-.915-2.1,5.827,5.827,0,0,1-.061-1.721c.1-.12.1-.125.1-.3a.076.076,0,0,0-.069-.081c.071-.114.14-.229.2-.345.023-.04.042-.081.062-.121.005.033.012.068.017.1.076.461.054.931.146,1.39a9.444,9.444,0,0,1,.225,1.316,1.139,1.139,0,0,0,.229.759c.031.035.09-.005.061-.043a1.6,1.6,0,0,1-.182-.995,4.913,4.913,0,0,0-.135-.808,5.988,5.988,0,0,1-.114-1.085c-.014-.307-.194-.872.019-1.135l0,0a.082.082,0,0,0,.019-.066c.071-.146.149-.291.229-.435.04.647.047,1.284.064,1.933a2.877,2.877,0,0,0,.111.749c.031.1.27.459.224.57a.031.031,0,0,0,.057.026c.019-.036.038-.073.057-.107a.031.031,0,0,0,0-.036,2.426,2.426,0,0,1-.276-1.673,9.749,9.749,0,0,0-.062-1.652l0,0a.09.09,0,0,0-.028-.057c.13-.206.263-.409.4-.612a8.821,8.821,0,0,0-.092,1.134c.007.385.4,1.071.1,1.378-.036.036.024.1.062.066.31-.272.144-.733.078-1.08a8.2,8.2,0,0,1,.1-1.886l.029-.043a4.7,4.7,0,0,0,.518-1.187,28.57,28.57,0,0,1,.149,3.153,14.44,14.44,0,0,0-.087,2.638,6.316,6.316,0,0,1-.029,2.387,16.506,16.506,0,0,0-.633,2.6,6.923,6.923,0,0,1-.1,1.151,4.255,4.255,0,0,1-1.033,1.59,5.035,5.035,0,0,0-1.161,1.65,3.908,3.908,0,0,0-.054,1.818,13.383,13.383,0,0,1,.425,1.707c-.13-.045-.263-.087-.406-.121a6.833,6.833,0,0,1-3.671-2.338,2.849,2.849,0,0,0,.088-.6c.024.054.049.107.069.165a1.46,1.46,0,0,0,.357.686c.042.043.12-.029.078-.075-.309-.331-.321-.787-.51-1.17s-.411-.728-.574-1.149a2.482,2.482,0,0,1-.324-1.364,3.861,3.861,0,0,1,.659-1.489c.823-1.215,2.331-2.231,1.714-3.871-.075-.194-.17-.381-.262-.569-.276-.562-.331-.451-.094-1.141s.5-.744,1.014-1.172a11.185,11.185,0,0,0,1.709-2.071,7.227,7.227,0,0,0,1.151-2.576c.057-.237.1-.47.154-.7q.109-.161.218-.333a.13.13,0,0,0-.083-.2c.029-.1.061-.208.1-.312a2.282,2.282,0,0,0,.2-.816.136.136,0,0,0-.257-.075c-.08.132-.168.258-.255.383a.081.081,0,0,0-.106,0,6.779,6.779,0,0,1-2.761.887,21.668,21.668,0,0,1-2.591.314,19.156,19.156,0,0,1-4.616-.255,2.649,2.649,0,0,1-.371-.425,6.37,6.37,0,0,0-.506-.692,12.533,12.533,0,0,1-1.616-2.342c-.86-1.524-1.806-2.978-2.536-4.573a39.083,39.083,0,0,1-1.881-4.64,9.63,9.63,0,0,1-.523-2.486,11.8,11.8,0,0,0,.078-2.038.036.036,0,0,0-.071.009c.1.738-.182,1.458-.132,2.2a10.549,10.549,0,0,0,.478,2.278,37.125,37.125,0,0,0,1.993,4.916c.74,1.6,1.7,3.068,2.584,4.59a11.487,11.487,0,0,0,1.414,2.025c.309.34.541.744.855,1.073.026.029.057.055.087.083-.246-.04-.492-.081-.74-.128-.341-.062-.681-.123-1.021-.194a31.37,31.37,0,0,1-2.248-3.056c-.868-1.258-1.636-2.6-2.382-3.933a24.732,24.732,0,0,1-3.082-8.481.036.036,0,0,0-.071.005,20.561,20.561,0,0,0,2.942,8.4,44.859,44.859,0,0,0,2.545,4.171,27.877,27.877,0,0,0,2.2,2.87,8.483,8.483,0,0,1-1.65-.506c-.716-.314-1.38-.728-2.1-1.037a6.031,6.031,0,0,1-2.281-1.83,11.068,11.068,0,0,0-1.754-1.513c-.352-.265-.711-.511-1.076-.745a5.579,5.579,0,0,1-1.017-1.014,19.436,19.436,0,0,1-1.291-1.784c-.77-1.338-1.694-2.565-2.354-3.966a16.628,16.628,0,0,0-1.071-1.9,22.921,22.921,0,0,1-1.194-2.276c-.3-.61-.607-1.222-.946-1.811a5.949,5.949,0,0,1-.886-2.018.036.036,0,0,0-.071.007,4.422,4.422,0,0,0,.6,1.668c.38.7.749,1.4,1.1,2.116a22.854,22.854,0,0,0,1.149,2.236,20.6,20.6,0,0,1,1.245,2.208,45.072,45.072,0,0,0,2.4,3.976,16.29,16.29,0,0,0,1.333,1.759,4.2,4.2,0,0,0,.419.44c-.569-.336-1.151-.647-1.746-.939a16.444,16.444,0,0,1-1.29-1.423c-.61-.726-1.21-1.458-1.81-2.191-1.144-1.4-2.354-2.779-3.378-4.276-.5-.731-.985-1.456-1.52-2.163s-.957-1.479-1.432-2.222a26.808,26.808,0,0,1-1.31-2.465,10.651,10.651,0,0,1-.647-1.534,4.535,4.535,0,0,1,2.506-.543c1.546.246,3.033,1.541,4.585.562a8.265,8.265,0,0,1,1.456-.877,3.27,3.27,0,0,1,2.278.165,5.482,5.482,0,0,1,1.518.673.392.392,0,0,0,.277.187,10.011,10.011,0,0,1,.917.763c1.409,1.29,2.661,1,4.427.707M83.2,110.173c.088-.154.189-.305.293-.461a2.424,2.424,0,0,0,.645-1.293,2.232,2.232,0,0,0-.369-.893,1.645,1.645,0,0,0,.283.217,3.134,3.134,0,0,0,.78.222,3.316,3.316,0,0,1,1.345.733.3.3,0,0,0,.288.225c.133.1.272.2.423.3a17.789,17.789,0,0,0,3.834,1.94,5.581,5.581,0,0,0,.778.182,12.5,12.5,0,0,0,1.333.536,12.168,12.168,0,0,0,1.7.534c.565.106,1.142.113,1.709.213a9.632,9.632,0,0,0,1.761.281c.553-.005,1.082.029,1.635.054s1.068-.147,1.564.222c.555.409,1.076.875,1.61,1.309q1.586,1.292,3.179,2.576a25.254,25.254,0,0,0,3,2.272,26.947,26.947,0,0,0,3.283,1.5,5.154,5.154,0,0,0,2.874.588,6.052,6.052,0,0,0,.593-.215c.246-.08.5-.078.747-.137.485-.113.9-.407,1.376-.551.083-.026.035-.147-.045-.125a6.338,6.338,0,0,0-.842.34,3.661,3.661,0,0,1-.967.239,5.484,5.484,0,0,1-1.664.27,12.708,12.708,0,0,1-3.4-1.243,13.669,13.669,0,0,1-3.38-2.071q-1.464-1.214-2.928-2.425c-1.007-.83-2.016-1.662-3.03-2.486a1.731,1.731,0,0,0-1.075-.484c-.484-.021-.952.021-1.439-.033-.543-.059-1.08.05-1.621-.029-.593-.085-1.168-.246-1.763-.312a8.9,8.9,0,0,1-1.908-.338c-.374-.125-.752-.248-1.125-.38.752.024,1.515-.005,2.229.031a7.641,7.641,0,0,0,2.137.05,2.284,2.284,0,0,0,2.032-.144c.778-.062,1.555-.161,2.326-.283,1.217-.192,2.415-.48,3.63-.679s2.323-.621,3.524-.839a2.66,2.66,0,0,0,.9-.352c.428-.248.919-.416,1.333-.671a10.657,10.657,0,0,0,1.952-2.089,3.646,3.646,0,0,0,1.151-1.865,14.151,14.151,0,0,1,.915-3.657c.95-2.068,4.018-2.775,6-3.562a10.339,10.339,0,0,0,4.675-3.507,3.443,3.443,0,0,0,.6-2.168,3.963,3.963,0,0,1,.39-2.593,13.8,13.8,0,0,0,1.144-2.342,13.606,13.606,0,0,1,.783-2.754,19.493,19.493,0,0,0,.813-2.853,15.718,15.718,0,0,1,1.69-2.631,7.289,7.289,0,0,1,3.212-2.229,5.076,5.076,0,0,1,3.039-.383,18.819,18.819,0,0,1,1.907.433.049.049,0,0,0,.054.014,13.216,13.216,0,0,1,4.391,2.094,8.623,8.623,0,0,0,5.1,1.791,5.73,5.73,0,0,0,2.5-.629,4.864,4.864,0,0,1,3.276-.1,9.359,9.359,0,0,1,3.524,1.437c.536.409.879.771.711,1.52a3.851,3.851,0,0,0-.222.82c-.016,1.889,3.014,2.037,2.917,4.134a2.289,2.289,0,0,1-.754,1.486,1.734,1.734,0,0,1-1.841.461,1.579,1.579,0,0,0-1.373.279c-1.619.929-1.121-.34-2.3-.409-.435-.026-.77.369-1.2.43-.815.113-1.51-.466-2.333-.251-.959.251-1.163,1.286-2.018,1.661-.192.047-.387.094-.581.139q-.8.226-.768-.636c-.445-1.387-.182-.08.036-.877a5.315,5.315,0,0,0,.283-.764,3.023,3.023,0,0,0-.378-1.8,10.689,10.689,0,0,0-1.357-1.881,7.133,7.133,0,0,1-1.709-2.376c-.04-.166-.317-.1-.289.068.376,2.132,3.345,3.224,3.338,5.547,0,.764-.466.995-.754,1.482a.076.076,0,0,0-.071.064.468.468,0,0,1-.021.113l0,.009c-.147.452-.913-.537-.983-.671-.08-.159-.107-.361-.175-.529a11.033,11.033,0,0,0-.61-1.193c-.439-.8-1.141-1.387-1.56-2.162-.088-.166-.326-.038-.317.12.038.79.908,1.557,1.277,2.234.208.381.4.756.565,1.139a1.445,1.445,0,0,1-1.765.3,1.563,1.563,0,0,1-.868-1.059,5.233,5.233,0,0,0-.442-1.158c-.477-.712-1.111-.624-1.837-.418-.435.123-.567.567-1.044-.25a3.877,3.877,0,0,1-.159-.959,4.158,4.158,0,0,0-.543-1.373c-.629-1.031-1.69-1.61-2.257-2.676-.47-.879-1.13-1.947-2.179-2.2a2.932,2.932,0,0,0-2.458.981,6.355,6.355,0,0,0-1.447,3.186,10.718,10.718,0,0,1-.562,1.936,2.142,2.142,0,0,0-.218,1.09c.01.1.17.107.173.005.021-.7.508-1.12.78-1.714a10.266,10.266,0,0,0,.4-1.553c.425-1.524,2.051-4.541,4-2.969.957.773,1.043,2.032,1.95,2.827a5.546,5.546,0,0,1,1.451,1.716,8.024,8.024,0,0,1,.419,1.668c.161.61.6,1.2,1.295,1.109.189-.026.336-.153.515-.194a1.389,1.389,0,0,1,1.288.286c.307.326.309,1.063.53,1.466.5.9,2.945,1.605,3.155.393.038.1.078.2.113.3a3.138,3.138,0,0,0,.217.53.67.67,0,0,0-.1.059c-.2.144-.4.319-.588.485a11.206,11.206,0,0,0-.728.86c-.251.281-.511.555-.751.844a14.472,14.472,0,0,0-1.907,3.975,6.885,6.885,0,0,1-1.293,1.888c-.419.484-.792,1-1.2,1.491-.374.456-.863.789-1.258,1.231-.473.523-1.068.953-1.589,1.432-.981.894-2.163,1.65-3.056,2.631-.5.543-1.014,1.057-1.485,1.626-.4.48-.9.835-1.3,1.307-.439.52-.863,1-1.349,1.475s-.9,1.063-1.388,1.558a41.075,41.075,0,0,1-3.091,3.028,11.816,11.816,0,0,1-1.843,1.147c-.588.322-1.1.777-1.714,1.04s-1.231.676-1.86.9c-.383.133-.8.154-1.073.485a.063.063,0,0,0,.1.08c.267-.295.683-.3,1.035-.406a4.529,4.529,0,0,0,.8-.39,22.144,22.144,0,0,0,2.011-1c.6-.406,1.267-.7,1.884-1.076a10.338,10.338,0,0,0,1.714-1.382,38.762,38.762,0,0,0,2.895-2.928,10.776,10.776,0,0,1,.933-1.054,7.1,7.1,0,0,0,.588-.577c.2-.232.373-.489.574-.721a8.945,8.945,0,0,1,.742-.686c.548-.508.957-1.139,1.508-1.648.451-.416.829-.881,1.3-1.281,1.047-.877,2.054-1.8,3.1-2.675.534-.442.964-.962,1.5-1.4a7.7,7.7,0,0,0,1.1-1.305c.419-.536.9-1.021,1.307-1.569a6.048,6.048,0,0,0,.813-1.6,11.674,11.674,0,0,1,1.917-3.73,15.19,15.19,0,0,1,1.427-1.586c.127-.111.258-.276.4-.388a1.069,1.069,0,0,0,.211.213.916.916,0,0,0,.9.092.823.823,0,0,0,.052.18c.27.608,1.137.766,1.718.756a2.731,2.731,0,0,0,1.141-.255c.5-.244.629-.621,1.045-.943,1.09-.844,1.877.166,3.021-.073a1.769,1.769,0,0,0,.454-.225c-.295.437-.725.728-.588,1.428.1.487.257.7-.024,1.208-.255.458-.7.813-.983,1.267a17.4,17.4,0,0,1-4.614,4.944c-.435.324-.771.725-1.2,1.045-.4.289-.8.558-1.2.834a8.019,8.019,0,0,0-1.924,1.832c-1.276,1.671-2.926,2.917-4.3,4.5a14.664,14.664,0,0,1-2.971,2.515c.029-.125-.1-.269-.225-.17a2.064,2.064,0,0,0-.541.664c-.647.4-1.3.785-1.948,1.158-1.758,1.021-3.774,1.78-5.313,3.141-.7.621-1.174,1.423-1.876,2.045a7.332,7.332,0,0,0-.764.839c-.366.435-.822.728-1.2,1.144a25.584,25.584,0,0,1-5.1,3.748,30.213,30.213,0,0,1-2.992,1.8c-.737.378-1.453.8-2.181,1.2-.959.52-2.016.849-2.987,1.368a11.1,11.1,0,0,1-1.844.962,6.175,6.175,0,0,1-.667.071.562.562,0,0,1-.236-.106c-.092-.078-.194.028-.165.12-.418,0-.835-.024-1.255-.061-1.874-.161-3.007-1.416-4.541-2.295a10.388,10.388,0,0,1-3.7-3.307,3.675,3.675,0,0,0-.738-.849,4.561,4.561,0,0,1,1.832.685c.393.208.82.354,1.206.574a7.825,7.825,0,0,1,1.137.908c.047.04.107-.035.061-.075a8.261,8.261,0,0,0-1.154-.933c-.445-.257-.927-.442-1.376-.693a3.065,3.065,0,0,0-1.817-.558,7.278,7.278,0,0,0-.919-.619,4.283,4.283,0,0,0-1.595-1.232,7.928,7.928,0,0,1-.794-.5,7.127,7.127,0,0,1,2.12.451,5.217,5.217,0,0,1,1.73.777,5.745,5.745,0,0,0,.723.362,11.523,11.523,0,0,1,1.017.678c.622.451,1.215.939,1.811,1.42a.041.041,0,0,0,.052-.062c-.669-.556-1.323-1.137-2.025-1.65-.575-.419-1.194-.742-1.77-1.141a7.21,7.21,0,0,0-2-.719,4.327,4.327,0,0,0-1.747-.279.073.073,0,0,0-.064.049,6.022,6.022,0,0,1-.763-.7,10.222,10.222,0,0,0-.8-.8,2.421,2.421,0,0,0,.872.291,4.43,4.43,0,0,1,1.257.225,3.371,3.371,0,0,0,.853.3,12.353,12.353,0,0,1,4.571,1.83c.671.411,1.2,1.016,1.865,1.44.7.449,1.529.664,2.262,1.061.777.419,1.595.718,2.4,1.076a5.092,5.092,0,0,0,1.8.608c.047,0,.05-.083,0-.083a3.389,3.389,0,0,1-1.106-.364c-.413-.159-.8-.362-1.2-.544-.361-.165-.742-.276-1.1-.449-.378-.182-.725-.421-1.1-.608a11.55,11.55,0,0,1-2.165-1.111,13.1,13.1,0,0,0-1.714-1.354,15.811,15.811,0,0,0-1.908-1.031,9.53,9.53,0,0,0-2.136-.707,3.4,3.4,0,0,1-1.141-.284,2.258,2.258,0,0,0-.849-.257,3.67,3.67,0,0,1-1.626-.378c-.071-.042-.139.059-.1.118a.548.548,0,0,0,.061.068c-.08-.061-.159-.123-.243-.18a6.069,6.069,0,0,0-3.051-1,12.307,12.307,0,0,0-3.12.194c-1.253.234-2.326.362-3.361-.53-.328-.283-.629-.588-.941-.875a.462.462,0,0,0,.066-.151,7.237,7.237,0,0,0,.437-2.174c-.016-.293-.092-.581-.107-.874a2.132,2.132,0,0,1,.024-.426.477.477,0,0,0,.149-.142c.05-.073.1-.146.151-.22a.526.526,0,0,0,.05-.549m13.292-6.344a6.293,6.293,0,0,0-3.316.338,20,20,0,0,0-1.947.719c.307-.215.581-.419.8-.577,2.59-1.872,5.755-1.037,8.407.182l-.021.071a5.287,5.287,0,0,1-.558,1.368,7.7,7.7,0,0,0-3.364-2.1m3,2.642c-.151.246-.27.5-.426.756-.243.4-.577.721-.811,1.127a4.662,4.662,0,0,1-.87,1.3,3.625,3.625,0,0,1-2.387.785.343.343,0,0,0-.348.355c-.452-.04-.9-.059-1.357-.1a14.864,14.864,0,0,1-2.116-.26,9.176,9.176,0,0,1-1.851-.865,17.388,17.388,0,0,1-2.168-1.187c-.05-.036-.1-.073-.146-.111.159-.614.322-1.265.525-1.9,1.272.442,2.912-.163,4.12-.647a14.775,14.775,0,0,1,3.519-1.063c1.707-.225,3.018.9,4.318,1.811M82.5,85.426c.026.137.059.272.1.407a9.049,9.049,0,0,1-.48.811c.116-.413.234-.825.385-1.219M45.544,45.853c-.314-.361-.586-.757-.943-1.1a14.256,14.256,0,0,1-1.248-1.34c-.4-.489-.912-.848-1.319-1.326a10.516,10.516,0,0,0-.96-1.116,16,16,0,0,1-1.733-1.557,12.728,12.728,0,0,0-1.29-1.323c-.343-.3-.667-.629-.99-.965,1.116.641,2.22,1.305,3.345,1.933.53.3,1.054.6,1.577.9a3.155,3.155,0,0,0,.811,1.108,10.051,10.051,0,0,1,1.418,1.846,8.943,8.943,0,0,1,1.331,2.936M95.9,90.645a.253.253,0,0,0-.314-.341,8.375,8.375,0,0,0-.853-1.163c.2.17.411.341.64.506a10.073,10.073,0,0,0,1.773.924,11.118,11.118,0,0,0,2.789.794,7.5,7.5,0,0,1-2.061-.094c-.277-.04-2.172-.121-1.974-.626m-9.6-6.658-.049-.026c-1.071-.6-2.584-1.333-3.746-.551a2.139,2.139,0,0,0-.617.65,17.557,17.557,0,0,0-1.144-2.64c-1.226-2.552-2.042-5.266-3.208-7.842-1.009-2.231-2.2-4.373-3.422-6.5a39.03,39.03,0,0,0-4.157-6.368c-.823-.948-1.555-1.983-2.46-2.857-.867-.835-1.772-1.617-2.623-2.474-.92-.924-1.959-1.711-2.895-2.617-.818-.8-1.574-1.659-2.437-2.408A43.7,43.7,0,0,0,53.7,46.035c-1.179-.711-2.224-1.626-3.427-2.3-1.16-.648-2.323-1.25-3.446-1.966-2.1-1.338-4.235-2.515-6.42-3.709a37.073,37.073,0,0,0-6.871-3.307c-.289-.088-.491.315-.2.444.4.179.8.369,1.193.565a.319.319,0,0,0,.071.234,31.457,31.457,0,0,0,3.108,3.141c.536.5.952,1.116,1.472,1.635s1.153.855,1.626,1.416c.324.383.655.759.988,1.132-.506-.433-1.045-.835-1.546-1.255a26.518,26.518,0,0,0-5.713-4.179,55.463,55.463,0,0,0-6.095-2.633c-1.075-.347-2.174-.428-3.248-.806A10.007,10.007,0,0,0,22.729,34a15.311,15.311,0,0,1-6.018-1.9c-2.144-1.224-4.021-3.165-5.916-4.737-1.68-1.392-3.456-2.552-4.694-4.38a18.361,18.361,0,0,1-1.957-2.794c-.319-.74-.5-1.518-.872-2.236a18.968,18.968,0,0,1-1.628-4.98,8.255,8.255,0,0,0,.74,1.163c1.531,2.018,2.394,4.515,4.2,6.335.771.777,1.406,1.567,2.24,2.292,1.023.887,1.863,1.945,2.9,2.829a13.242,13.242,0,0,0,2.7,1.8,14.375,14.375,0,0,0,2.34,1.319c2.382.737,4.834,1.276,7.258,1.851,2.55.607,5.1,1.225,7.66,1.785a41.675,41.675,0,0,1,7.285,2.687c2.3.976,4.585,1.959,6.849,3.011,1.468.683,2.985,1.323,4.45,2.049A12,12,0,0,0,52.2,41.424c.931.532,1.628,1.34,2.588,1.836,2.007,1.033,3.645,2.753,5.389,4.176a21.1,21.1,0,0,1,2.5,2.064,17.362,17.362,0,0,0,1.494,1.619,17.318,17.318,0,0,1,2.493,2.125,8.711,8.711,0,0,0,1.543,1.562,18.252,18.252,0,0,1,2.1,2.576,10.928,10.928,0,0,0,1.86,1.55A11.5,11.5,0,0,1,74.3,61.368c.562.74,1.343,1.229,1.915,1.974,1.225,1.591,2.567,3.117,3.89,4.628a15.115,15.115,0,0,1,1.643,2.363c.335.567.773,1.007,1.085,1.6.863,1.643,2.04,3.136,2.9,4.795.432.829.692,1.735,1.146,2.555.4.719,1.082,1.3,1.212,2.148.016.1.172.085.158-.017a5.822,5.822,0,0,0-1.014-1.99c-.532-.948-.752-2.037-1.232-3.013-.881-1.787-1.933-3.5-2.907-5.23-.265-.471-.671-.811-.924-1.293-.123-.234-.217-.48-.352-.709a16.552,16.552,0,0,0-1.7-2.127c-1.324-1.564-2.55-3.264-3.936-4.767-.352-.381-.789-.657-1.135-1.04-.369-.407-.655-.886-.986-1.324a8.054,8.054,0,0,0-1.772-1.711c-1.648-1.191-2.579-2.968-4.131-4.254-.735-.61-1.179-1.456-1.928-2.07a25.344,25.344,0,0,1-2.155-1.765A18.364,18.364,0,0,0,62.106,48.1c-.846-.645-1.673-1.312-2.5-1.986-.118-.1-.234-.192-.35-.289,1.012.673,1.895,1.522,2.912,2.184.889.577,1.792,1.076,2.636,1.728a27.344,27.344,0,0,1,2.85,2.747c.818.841,1.7,1.572,2.5,2.441.844.917,1.817,1.669,2.649,2.612.773.874,1.586,1.714,2.383,2.567a72.415,72.415,0,0,1,4.831,5.982c1.479,1.954,3.094,3.793,4.581,5.736a66.537,66.537,0,0,1,4.1,6.557c.622,1.045,1.037,2.212,1.68,3.233.61.971,1.316,1.879,1.908,2.87A17.727,17.727,0,0,0,95.5,88.518a8.116,8.116,0,0,0-1.073-.87c-.523-.331-1.038-.53-1.544-.91a13.936,13.936,0,0,0-2.252-1.127c-.551-.276-.986-.7-1.562-.92-.875-.336-1.8-.955-2.77-.7m8.341,9.438-.01.005c-1.258.863-1.532,2.246-1.792,3.673a6.93,6.93,0,0,1-3.023,4.034,7.765,7.765,0,0,0-2.484,3.231c-.127.265-.244.546-.355.834-.1-.033-.2-.069-.3-.109a.25.25,0,0,0-.3.371,2.544,2.544,0,0,0,.355.414,12.506,12.506,0,0,0-.449,1.766,2.666,2.666,0,0,0-.39-.25,6.127,6.127,0,0,0-.946-.343,8.08,8.08,0,0,1,2.285-5.415c1.04-1.265,2.76-1.475,3.931-2.567a1.731,1.731,0,0,0,.378-2.22c-.5-1.227.341-1.921.891-2.907a28.6,28.6,0,0,1,1.492-2.694c.064-.092-.064-.2-.137-.111a12.167,12.167,0,0,0-1.423,2.323c-.378.737-1.163,1.447-1.324,2.285a2.7,2.7,0,0,0,.293,1.425c.425,1.338-.761,1.978-1.777,2.486a10.525,10.525,0,0,0-2.136,1.153,13.63,13.63,0,0,0-1.674,1.973,6.493,6.493,0,0,0-1.4,4.061c-.073-.031-.144-.064-.215-.1-.341-.182-.51-.364-.919-.276a.46.46,0,0,0-.378.357c-.144.5.107.74.265,1.184a1.45,1.45,0,0,1-.314,1.291,21.664,21.664,0,0,1-.459-2.24c-.222-.991-.593-1.921-.733-2.935a21.245,21.245,0,0,0-.423-2.581,21.417,21.417,0,0,1-.777-2.825,23.267,23.267,0,0,1,1-9.787,5.3,5.3,0,0,0,.2,1.983,31.167,31.167,0,0,1,.466,3.808c.142,1.068.612,2.17.647,3.231,0,.1.153.081.151-.016-.019-.96-.414-1.881-.513-2.843-.111-1.075-.016-2.151-.123-3.221a8.542,8.542,0,0,1-.2-3.17,9.825,9.825,0,0,1,.829-2.073c.1.288.2.563.284.815a5.145,5.145,0,0,1,.114,1.943,8.756,8.756,0,0,0,.286,1.2c.066.456-.068.927-.016,1.388.054.478.255.926.35,1.4.024.123.217.106.2-.019-.075-.411-.239-.823-.289-1.232a8.979,8.979,0,0,1,.08-1.264,5.337,5.337,0,0,0-.137-.919,6,6,0,0,1,.092-1.466,8.214,8.214,0,0,0-.631-2.48c.071-.137.142-.276.213-.418a.318.318,0,0,0-.159-.416L83,85.046l-.04-.012a2.629,2.629,0,0,1-.016-.435,1.043,1.043,0,0,1,.336-.258,6.977,6.977,0,0,1,.7,1.473,9.552,9.552,0,0,0,.653,1.747c.376.667.9,1.248,1.274,1.919a11.183,11.183,0,0,0,1.05,1.746c.076.092.225-.01.153-.107a15.752,15.752,0,0,1-1.128-2.149,18.781,18.781,0,0,1-1.18-2.025c-.267-.683-.374-1.413-.673-2.085-.049-.109-.149-.355-.265-.6a2.854,2.854,0,0,1,.693.194,2.56,2.56,0,0,0,.4.645,8.369,8.369,0,0,1,1.083,1.553,11.575,11.575,0,0,0,2.4,2.794c.088.075.2-.061.113-.139a11.682,11.682,0,0,1-2.482-3.543,4.827,4.827,0,0,0-.575-.853c.26.146.517.293.78.426a4.09,4.09,0,0,0,.849.73,4.959,4.959,0,0,1,1.184,1.012c.468.65.692,1.4,1.219,2.025.111.13.319-.01.22-.154-.551-.792-.745-1.879-1.432-2.572-.121-.123-.466-.345-.816-.6a9.541,9.541,0,0,1,1.7.615c.047.024.094.052.14.076.284.361.569.723.861,1.071a7.2,7.2,0,0,1,.529.655c.01.014.005.047.019.066a3.375,3.375,0,0,0,.7.638.081.081,0,0,0,.1-.127,2.082,2.082,0,0,1-.614-.86,2.116,2.116,0,0,0-.5-.591,5.7,5.7,0,0,1-.369-.451,15.394,15.394,0,0,1,3.9,3.167,6.53,6.53,0,0,1,1.167,2.137c-.052.127-.1.253-.132.369a5.415,5.415,0,0,1-.357.874m6.244,9.546a.347.347,0,0,0,.092.045,7.376,7.376,0,0,0-.447,1.187c-.5-.187-1.161-.619-1.423-.728a10.454,10.454,0,0,0-1.38-.475,7.634,7.634,0,0,0-3.449-.153,8.571,8.571,0,0,0-3.188,1.548,9.741,9.741,0,0,1-1.622.757,1.561,1.561,0,0,1-1.487.061,6.271,6.271,0,0,1,.489-.9,10.771,10.771,0,0,1,1.347-1.934c.449-.4,1.031-.638,1.48-1.047a8.064,8.064,0,0,0,2.451-3.271c.17-.582.211-1.193.359-1.78a6.536,6.536,0,0,1,.359-1.011,6.075,6.075,0,0,0,1.224-1.484,9.411,9.411,0,0,1,.364,1.2,3.279,3.279,0,0,0,1.038,1.65,8.954,8.954,0,0,1,1.34,2.378c.627,1.319,1.238,3.063,2.454,3.95m22.813-24.5c-.409,1.028-.445,2.226-1.1,3.136a26.97,26.97,0,0,1-1.78,2.08c-.3.335-.6.659-.912.979.08-.168.159-.335.244-.5.525-1.019,1.028-2.014,1.465-3.077a15.446,15.446,0,0,0,1.128-2.9c.106-.549.388-1.023.5-1.567a5.26,5.26,0,0,0,.246-1.336c0-.059-.1-.062-.1,0a4.006,4.006,0,0,1-.2.721c-.078.284-.116.577-.2.86a11.706,11.706,0,0,0-.43,1.3A16.545,16.545,0,0,1,121.4,81.1c-.414,1.033-.917,2-1.421,2.988-.156.309-.3.627-.442.948-1.1,1.109-2.255,2.16-3.347,3.286-1.506,1.553-3.488,2.675-4.8,4.4-1.118,1.472-1.146,3.193-1.392,4.954a8.557,8.557,0,0,1-1.73,3.907.981.981,0,0,1,.078-.447c.066-.156.161-.3.231-.452a12.032,12.032,0,0,0,.589-1.94,1.64,1.64,0,0,0-.234-1.522,1.486,1.486,0,0,1-.44-1.224c.035-.35.12-.7.175-1.045.113-.7.3-1.394.393-2.094.1-.721.045-1.454.154-2.175a4.842,4.842,0,0,1,1.049-2.056,15.957,15.957,0,0,0,1.154-2.146,7.8,7.8,0,0,0,.78-1.884,2.712,2.712,0,0,1,.321-1.13,3.492,3.492,0,0,1,.683-.745c.595-.489,1.238-.9,1.8-1.434a13.235,13.235,0,0,0,2.65-3.531c.345-.693.738-1.385,1.026-2.1.262-.657.369-1.366.572-2.042.433-1.43.855-2.862,1.274-4.3a6.815,6.815,0,0,0,.073-1.841,2.59,2.59,0,0,0-.055-.653,4.25,4.25,0,0,1-.149-1.255c0-.028-.04-.036-.043-.007a3.627,3.627,0,0,0,0,.969,4.665,4.665,0,0,1,.109,1.075c-.012.283.017.551.033.834a3.676,3.676,0,0,1-.288,1.33c-.234.745-.406,1.508-.643,2.252s-.48,1.463-.683,2.2a10.418,10.418,0,0,1-.778,2.186c-.3.567-.553,1.16-.879,1.711a13.163,13.163,0,0,1-3.163,3.647c-.879.673-1.952,1.257-2.11,2.453a7.532,7.532,0,0,1-.9,2.33,14.474,14.474,0,0,1-1.08,1.971,5.634,5.634,0,0,0-.945,1.6,6.86,6.86,0,0,0-.2,1.785c-.062,1.368-.5,2.682-.643,4.044a1.644,1.644,0,0,0,.383,1.321c.517.647.359,1.12.182,1.846a12.1,12.1,0,0,1-.679,1.9,1.282,1.282,0,0,0-.127.518c0,.031.016.257.012.475-.088.114-.177.229-.269.341a.116.116,0,0,0-.12.151c-.3.371-.608.738-.915,1.111a19.1,19.1,0,0,1-2.2,2.529,18.789,18.789,0,0,0-1.86,1.891,11.1,11.1,0,0,1-2.309,2.025,13.718,13.718,0,0,1-1.758,1.04c-.118.005-.234.017-.354.023s-.244,0-.367,0l.016-.014c.08-.076-.029-.227-.128-.179a1.713,1.713,0,0,1-.556.168c-.208-.014-.414-.031-.621-.05a3.941,3.941,0,0,0,2.4-2.021c.56-1,1.347-1.867,1.945-2.834a14.878,14.878,0,0,0,.783-2.472c.369-.946,1.061-1.775,1.482-2.7a6.453,6.453,0,0,0,.487-2.278,24.6,24.6,0,0,1,.7-3.125c.189-.913.033-1.85.267-2.758.508-1.96,1.77-3.555,2.647-5.339.451-.913.541-1.907.922-2.839a5.469,5.469,0,0,1,2.2-2.4,9.765,9.765,0,0,0,2.049-1.711c.627-.733,1.324-1.333,2-2.014a21.5,21.5,0,0,0,3.21-5.065,5.289,5.289,0,0,0,.806-2.318c.05-.936.135-1.86.232-2.794.206-1.981-.1-4.477,1.437-5.963a4.167,4.167,0,0,1,1.151,2.215,13.525,13.525,0,0,1,.525,2.288,9.611,9.611,0,0,0-.078,1.714,5.43,5.43,0,0,0,.851,1.706,10.566,10.566,0,0,1,1.116,5.438,13.649,13.649,0,0,0,.059,2.69m22.732-30.35c.494.777,1.536,1.486,1.844,2.326.295.8.071,1.648.447,2.46a6.335,6.335,0,0,0,1.4,1.832,28.593,28.593,0,0,0,2.238,2.134,6.544,6.544,0,0,1,2.815,5.793,8.926,8.926,0,0,1-.636,3.273c-.413.868-1.139,1.518-1.525,2.415a5.867,5.867,0,0,0-.517,2.123,12.153,12.153,0,0,0,.619,2.572c.274,1.492.79,4.184-.277,5.514-.1,0-.2-.007-.291-.005-1.068.005-1.863.6-2.867.844a6.253,6.253,0,0,1-3.618-.461A20.229,20.229,0,0,1,143.024,77c-.135-.081-.276-.158-.416-.231-.005-.09-.01-.185-.009-.293a5.614,5.614,0,0,1,.173-.707A10.276,10.276,0,0,1,144.5,74.7c.57-.3,1.1-.7,1.64-1.05a8.087,8.087,0,0,1,1.007-.69c.286-.132.6-.213.889-.328a18.951,18.951,0,0,1,1.926-.681c.069-.019.036-.121-.028-.118a7.025,7.025,0,0,0-2.056.629,8.748,8.748,0,0,0-.943.364,10.023,10.023,0,0,0-.835.6,20.034,20.034,0,0,1-2.153,1.324,5.726,5.726,0,0,0-1.147.764,3.526,3.526,0,0,1,.066-.465,9.737,9.737,0,0,1,.785-2.04c.036-.017.071-.038.107-.054.4-.2.787-.442,1.189-.643.832-.416,1.681-.816,2.5-1.257a26.064,26.064,0,0,0,2.333-1.539,5.519,5.519,0,0,0,1.806-1.416c.031-.052-.05-.092-.087-.054a13.582,13.582,0,0,1-2.165,1.538,17.433,17.433,0,0,1-2.248,1.434q-1.2.606-2.4,1.219c-.307.158-.595.366-.907.515.109-.206.22-.411.331-.615a10.413,10.413,0,0,1,.8-1.326,5.2,5.2,0,0,0,.553-.945,9.489,9.489,0,0,0,.553-1.253,4.817,4.817,0,0,0,.088-1.149c.026-.428.125-.842.118-1.274,0-.137-.01-.272-.019-.409a6.269,6.269,0,0,1,.834-.855,9.664,9.664,0,0,0,.586-.983c.532-.709,1.057-1.446,1.567-2.181.754-1.085,2.259-2.517,1.889-3.994-.014-.059-.107-.045-.114.012a4.591,4.591,0,0,1-.816,2.272c-.532.74-1.059,1.5-1.614,2.222a8.443,8.443,0,0,0-.614.91c-.192.336-.454.6-.622.936a3.967,3.967,0,0,1-.752,1.064,3.362,3.362,0,0,0-.354.44,5.951,5.951,0,0,1-.014-.879,12.293,12.293,0,0,1,.842-2.947,14.619,14.619,0,0,0,.718-2.378,10.478,10.478,0,0,0-.135-2.493c-.064-.991.04-1.967.049-2.957a16.645,16.645,0,0,0-.354-2.912.085.085,0,0,0-.168.017,31.2,31.2,0,0,1,.2,3.363,18.585,18.585,0,0,0,.019,3.091,8.1,8.1,0,0,1,.137,1.527,6.515,6.515,0,0,1-.232,1.1c-.13.478-.279.959-.439,1.437a2.514,2.514,0,0,0-.014-.47c-.054-.359-.147-.723-.224-1.078a10.288,10.288,0,0,1-.182-2.342c.014-1.049.023-2.694-.813-3.482-.042-.038-.1.023-.069.066a7.159,7.159,0,0,1,.7,3.879,8.433,8.433,0,0,0,.217,1.934c.073.3.127.6.2.9a4.117,4.117,0,0,1,.073.917c-.1.3-.211.6-.324.894a6.284,6.284,0,0,0-.5,2.437,10.1,10.1,0,0,1,.023,1.518,8.362,8.362,0,0,0-.087,1.017,5.373,5.373,0,0,1-1.1,2.857,15.216,15.216,0,0,0-1.269,2.193c-.005-.049-.01-.1-.019-.154-.076-.607,0-1.229-.071-1.843-.064-.582-.09-1.167-.144-1.747a10.7,10.7,0,0,1-.1-1.808c.049-.664.012-1.324.05-1.985a14.227,14.227,0,0,0,.132-1.536,4.582,4.582,0,0,1,.05-1.785,2.475,2.475,0,0,0,.321-1.156c-.009-.068-.12-.076-.123,0-.023.478-.357.856-.471,1.31a4.025,4.025,0,0,0-.036,1.329,9.781,9.781,0,0,1-.1,1.714c-.047.556.017,1.116-.021,1.676a20.977,20.977,0,0,0,.123,3.075c.042.565.151,1.128.172,1.7.01.284-.026.572-.005.856a5.15,5.15,0,0,1,.057.56,3.518,3.518,0,0,1-.413.232c-.078.036-.033.163.049.128.111-.047.217-.1.322-.159a.566.566,0,0,1-.069.132.059.059,0,0,0,.016.083,7.735,7.735,0,0,0-.525,1.713c-.028.175-.023.354-.042.53a3,3,0,0,0-.237.257c-.052.064.04.133.1.078.028-.028.059-.052.088-.078a1.581,1.581,0,0,0-.109.383,1.653,1.653,0,0,0,.014.35c-.224-.111-.454-.215-.688-.312v-.016a9.274,9.274,0,0,1-.335-1.231,12,12,0,0,1-.385-1.595c-.175-.919-.322-1.843-.582-2.742a24.048,24.048,0,0,0-1.135-2.694,17.474,17.474,0,0,1-1.061-2.564c-.01-.045-.083-.026-.078.019a9.415,9.415,0,0,0,.976,2.605,26.107,26.107,0,0,1,1.137,2.694c.309,1.047.459,2.129.7,3.193a11.3,11.3,0,0,0,.376,1.3,9.69,9.69,0,0,0,.27.985c-.626-.248-1.272-.454-1.895-.648-.213-.066-.428-.13-.641-.192a1.919,1.919,0,0,0-.057-.281,7.151,7.151,0,0,1-.312-1.106c-.107-.849-.383-1.633-.539-2.474-.158-.86-.305-1.723-.459-2.584-.114-.647-.489-1.191-.664-1.818-.012-.043-.078-.024-.073.017.069.7.466,1.317.572,2.023.125.832.3,1.654.451,2.484.144.8.435,1.555.534,2.37a3.248,3.248,0,0,0,.253.926,2.117,2.117,0,0,1,.118.392,11.8,11.8,0,0,0-2.09-.423c-.017-.059-.031-.116-.043-.177-.059-.347-.033-.7-.076-1.05a19.531,19.531,0,0,0-.449-2.092c-.01-.043-.078-.026-.073.016.088.733.329,1.44.4,2.175.033.319.016.647.073.962.01.054.026.1.038.156a5.719,5.719,0,0,0-2.552.348,16.462,16.462,0,0,0-2.8,1.522c-.986.627-1.208,1.472-1.895,2.378a5.622,5.622,0,0,0-1.274,2.624,20.578,20.578,0,0,1-1.1,2.936c-.154.489-.12.993-.231,1.482a7.456,7.456,0,0,1-.9,1.792,6.422,6.422,0,0,0-.955,2.241c-.127,1.106.314,1.908-.359,2.954a8.767,8.767,0,0,1-2.844,2.472c-1.973,1.191-4.316,1.692-6.318,2.864-1.882,1.1-2.3,3.753-2.472,5.729-.09,1.047-1,1.879-1.6,2.7a5.936,5.936,0,0,1-2.357,1.853c-.608.3-1.305.276-1.938.546a7.866,7.866,0,0,1-1.716.541c-1.154.218-2.3.484-3.456.688-.685.121-1.373.229-2.064.31.5-.277.934-.572,1.234-.77a15.222,15.222,0,0,0,2.22-1.957c.662-.647,1.406-1.21,2.087-1.83a30.156,30.156,0,0,0,2.292-2.69,20.822,20.822,0,0,0,2.139-2.772c1.172-1.928.967-3.94,1.534-6.03.553-2.051,2.5-3.174,4.025-4.462a52.1,52.1,0,0,0,4.592-4.394,25.656,25.656,0,0,0,3.741-4.33c.506-.9.525-1.983.939-2.922a11.946,11.946,0,0,1,1.971-2.718,19.057,19.057,0,0,0,3.423-5.235,45.984,45.984,0,0,0,1.851-5.965,9.718,9.718,0,0,1,3.522-5.462c1.683-1.224,3.38-2.321,4.97-3.682A15.7,15.7,0,0,0,142.7,53.7a17.3,17.3,0,0,0,1.108-2.371,14.8,14.8,0,0,0,1.264-2.638c.092-.281.206-1,.47-1.245.442-.411.674.341.886.673" transform="translate(0 0)" fill="#424b60"/>
    </g>
  </g>
</svg>
