<svg xmlns="http://www.w3.org/2000/svg" xmlns:xlink="http://www.w3.org/1999/xlink" width="387.05" height="436.869" viewBox="0 0 387.05 436.869">
  <defs>
    <clipPath id="clip-path">
      <rect id="Rectangle_3348" data-name="Rectangle 3348" width="220.661" height="377.262" fill="none"/>
    </clipPath>
  </defs>
  <g id="Group_6706" data-name="Group 6706" transform="matrix(0.848, 0.53, -0.53, 0.848, 199.918, 0)">
    <g id="Group_6705" data-name="Group 6705" transform="translate(0 0)" clip-path="url(#clip-path)">
      <path id="Path_65618" data-name="Path 65618" d="M205.231,309.869c-2.737,1.445-7.077,1.915-8.946,4.492-1.717,2.372-1.388,5.634-1.466,8.4-.055,2,.25,4-1.612,5.267-1.476,1.011-3.319.742-4.938,1.288-1.922.653-2.518,1.736-4.523,1.493,1.476,2.208,2.947,4.526,3.257,7.06.336,2.761-1.1,3.393-3.5,4.07-3.126.882-4.814,3.383-8.236,3.727-3.36.334-7.957.16-11.066-1.29-1.843-.858-3.324-2.332-4.988-3.469a35.616,35.616,0,0,1-4.2-3.1c-3.3-3.054-5.949-7.094-8.992-10.434-1.364-1.5-3.276-4.657-5.549-4.626-1.7.024-2.8.882-4.5.441a33.432,33.432,0,0,1,3.627,3.352c3.677,3.991,6.235,9.066,9.268,13.543,1.593,2.351,2.952,4.85,4.535,7.21a70.878,70.878,0,0,0,5.847,7.263c1.815,2.077,3.512,4.268,5.241,6.419,1.462,1.819,3.248,3.643,4.225,5.789,1.528,3.357,3.66,7.337-.885,8.977-2.136.77-4.59.606-6.81,1a25.262,25.262,0,0,1-7.914.351c-2.721-.358-5.363-1.145-8.107-1.335-3.147-.217-6.319.062-9.473-.055-5.67-.207-11.345.2-16.472-2.711A25.526,25.526,0,0,1,113.941,369c-2.055-1.929-4.07-3.314-5.7-5.661a107.769,107.769,0,0,1-7.611-12.461c-1.364-2.651-3.267-4.3-5.289-6.409a42.666,42.666,0,0,1-4.845-6.827c-2.268-3.565-5.475-7.079-6.159-11.39a8.837,8.837,0,0,1,.064-3.167c-.482.286-.97.553-1.483.8-1.55.73-2.432,2.663-4.328,2.511-1.7-.138-2.306-1.49-3.212-2.716-1.514-2.043-2.375-4.576-4.008-6.493-2.742-3.209-7.418-4.137-9.862-7.7-2.217-3.236-1.383-7.718-.651-11.488-2.215.1-4.342-.322-6.514.35a37.238,37.238,0,0,0-6.748,2.981c-3.992,2.208-7.826,4.549-11.762,6.836-2.547,1.478-4.416,4.151-7.616,2.916-2.427-.939-4.218-3.3-5.582-5.41-1.874-2.909-3.806-6.526-3.174-10.1.272-1.55,1.218-2.592,1.886-3.953,1.08-2.2.169-5.253-.162-7.649-.606-4.38-1.445-8.074.01-12.4.763-2.272,1.722-6.209,3.786-8.2-1.3-1.388-2.48-2.895-3.837-4.235-2.136-2.113-4.614-3.791-6.688-5.978a34.122,34.122,0,0,1-4.483-5.036,21.733,21.733,0,0,1-2.38-6.347,7.87,7.87,0,0,1,.656-5.32,11.584,11.584,0,0,0,.5-9.387c-.815-2.468-1.877-4.848-2.711-7.308-.947-2.785-2.375-5.122-3.505-7.795A28.442,28.442,0,0,1,.744,205.11a27.772,27.772,0,0,1-.711-6.273,2.956,2.956,0,0,1,1.588-2.611,4.505,4.505,0,0,1,2.034-.246c1.748-.026,3.467.134,5.162-.646,1.419-.658,2.4-2.22,3.9-2.475a5.6,5.6,0,0,1,2.12.391c1.822.656,3.188,1.457,5.248,1.376,5.231-.212,10.856.114,15.439-3.052,1.469-1.013,1.95-2.814,3.345-3.908,1.035-.815,2.74-2.1,4.146-2.072,3.519.062,6.545,5.749,8.155,8.3,1.559,2.475,3,5.024,5.63,6.536a7.829,7.829,0,0,0,6.371.491,20.047,20.047,0,0,1-2.69-3.689,44.821,44.821,0,0,1-2.427-6.614,136.549,136.549,0,0,1-3.362-14.18c-.494-2.5-2.313-7.833,1.085-9.194,2.561-1.028,4.437,2.015,5.634,3.779a27.24,27.24,0,0,0,2.942,4.294c.794.78,1.817,1.34,2.64,2.1.954.882,1.733,1.936,2.692,2.814,1.834,1.676,4.394,2.816,6.557,4.023,2.518,1.407,5.389,2.647,8.317,2.5a15.189,15.189,0,0,1,11.414,4.163,26.132,26.132,0,0,1,7.382,9.819c.165.41.32.82.475,1.23a19.528,19.528,0,0,0,2.873-2.568,102.8,102.8,0,0,1,7.923-13.558c1.962-3.007,3.763-6.111,5.72-9.12a36.36,36.36,0,0,1,2.012-3.345c1.066-1.3,2.582-1.958,3.851-3.011,2.613-2.177,4.4-5.587,6.641-8.145,1.183-1.352,2.64-2.461,3.729-3.9,1.4-1.848,2.22-4.056,3.72-5.847,4.991-5.959,7.678-13.405,10.026-20.728,2.375-7.4,5-14.543,3.639-22.418-.577-3.352-.987-6.757-1.874-10.05-.992-3.684-2.909-7.041-4.216-10.625a53.053,53.053,0,0,1-1.941-5.589,31.871,31.871,0,0,0-1.44-5.172c-1.571-3.667-3.2-7.282-4.54-11.047-2.64-7.418-3.97-15.511-4.809-23.327a63.674,63.674,0,0,1-.136-12.354,24.557,24.557,0,0,1,.489-5.77,20.566,20.566,0,0,1,1.021-3.257,54.061,54.061,0,0,1,1.624-5.334,39.851,39.851,0,0,1,4.378-9.139c2.051-2.954,5.711-4.263,7.4-7.482a.386.386,0,0,1,.7.31c-.925,2.623-3.009,3.934-4.907,5.825a21.659,21.659,0,0,0-4.473,7.642.66.66,0,0,1,.217.675c-.739,3.517-2.349,6.662-3.262,10.115a28.467,28.467,0,0,0-.055,11.832,91.811,91.811,0,0,0,2.237,9.86c.944,3.324,2.444,6.409,3.31,9.774.858,3.338,2.594,6.073,3.894,9.228,1.428,3.469,3.085,6.7,4.695,10.091a97.223,97.223,0,0,1,6.986,19.958c1.483,6.385,3.555,12.54,4.3,19.1.405,3.577-.052,7.227-.227,10.809-.181,3.722-.162,7.33-.475,11.047-.589,7-1.085,14.047-2.134,20.995-1.149,7.628-3.5,15.22-5.766,22.583-1.218,3.961-3.059,7.48-4.53,11.321a44.723,44.723,0,0,1-2.332,4.707c-.87,1.662-1.4,3.486-2.306,5.134-1.509,2.747-3.586,5.637-4.4,8.7a15.144,15.144,0,0,1-1.865,4.132c-.37.622-.649,1.295-1,1.924a19.839,19.839,0,0,1-1.147,1.71c7.587-2.74,15.868-5.518,21.29-11.624,1.862-2.1,3.541-4.592,6.295-5.589,3.081-1.114,6.13.262,8.944,1.45,1.939.82,6.219.951,6.915,3.507.515,1.891-1.419,3.527-2.709,4.533-2.94,2.3-6.474,3.772-8.789,6.8a24.656,24.656,0,0,0-3.92,7.389,19.3,19.3,0,0,1-.887,3.283,12.182,12.182,0,0,1-.632,1.125,22.632,22.632,0,0,1,7.754,3.507c2.37,1.6,4.368,3.627,6.6,5.4,2.4,1.9,4.735,4.375,7.315,5.98a51.314,51.314,0,0,0,8.262,3.913c2.945,1.161,5.541,2.981,8.469,4.132,1.881.739,3.717,1.264,5.262,2.64,1.977,1.762,2.635,4.218,3.531,6.622,2.1,5.634,5,11.264,6.371,17.127,1.268,5.417,3.684,11.147,3.107,16.815-.515,5.072-3.939,8.3-8.043,10.99-2.322,1.526-4.845,2.921-7.3,4.216m-66.959,11.443c2.766-.42,3.946-1.152,6.033,1.087,2.487,2.668,4.952,5.384,7.337,8.148,2.7,3.131,4.8,6.006,8.286,8.341,1.335.894,2.537,1.977,3.877,2.859a11.728,11.728,0,0,0,5.792,1.65,34.052,34.052,0,0,0,4.831.25c2.37-.11,3.782-1.123,5.627-2.449s5.463-.959,4.8-3.863c-.584-2.568-2.249-4.728-3.357-7.117-1.877-.689-3.722-1.762-5.446-2.585a80.325,80.325,0,0,1-8.393-4.588c-2.253-1.426-4.833-2.518-6.765-4.394-2.094-2.036-3.379-4.886-5.177-7.177-1.929-2.461-2.611-5.363-3.882-8.186a85.063,85.063,0,0,0-4.8-8.36c-3.724-6.273-6.865-12.983-11.3-18.811-4.294-5.649-9.669-10.22-13.97-15.854a72.437,72.437,0,0,0-6.347-6.664,23.342,23.342,0,0,1,.162,3.868,15.657,15.657,0,0,0,.269,2.341l.143.329c.494,1.085.973,2.187,1.524,3.243.52,1,1.228,1.893,1.691,2.921.923,2.06,1.97,3.958,3.076,5.923.6,1.056,1.03,2.26,1.719,3.255.6.87,1.376,1.6,1.97,2.489a51.7,51.7,0,0,0,4.392,5.746c1.555,1.748,2.775,3.753,4.18,5.618,1.443,1.912,2.983,3.751,4.385,5.694,1.426,1.979,2.7,4.068,4.065,6.09,1.633,2.42,3.114,4.962,4.84,7.313a17.8,17.8,0,0,1,1.979,3.014,27.743,27.743,0,0,1,1.55,2.563c.052.165-.2.227-.258.067a27.989,27.989,0,0,0-1.636-2.685,25.214,25.214,0,0,0-2.322-3.343c-1.385-1.9-2.589-3.932-3.927-5.866-1.388-2-2.711-4.058-4.115-6.052-1.507-2.141-3.214-4.13-4.824-6.192-1.438-1.843-2.68-3.841-4.23-5.594a48.455,48.455,0,0,1-4.046-5.048,30.337,30.337,0,0,0-2.16-2.828,14.167,14.167,0,0,1-1.6-2.771c-1.011-1.924-2.287-3.72-3.167-5.708-.737-1.667-1.619-3.245-2.458-4.855.143.575.279,1.142.4,1.707a.325.325,0,0,1,.427.181c1.23,3.2,1.857,6.667,3.639,9.64,1.917,3.2,3.972,6.278,5.98,9.423.951,1.49,1.8,3.045,2.706,4.561.985,1.638,2.144,3.093,3.276,4.628.9,1.218,1.586,2.585,2.532,3.765a10.23,10.23,0,0,1,1.972,2.78c.048.136-.167.186-.215.055-.47-1.283-1.669-2.2-2.456-3.281-1.106-1.516-2.125-3.059-3.3-4.53-2.122-2.659-3.605-5.758-5.5-8.574a107.1,107.1,0,0,1-5.925-9.306,29.685,29.685,0,0,1-1.922-4.766,10.218,10.218,0,0,1,.322,4.552c.033.11.067.217.1.324a2.472,2.472,0,0,0,.367.289c.143.086.041.339-.122.272a1.026,1.026,0,0,1-.114-.057c.1.4.2.784.3,1.092a33.332,33.332,0,0,0,1.7,4.492c.8,1.564,1.788,3.047,2.68,4.561,1.688,2.861,3.36,5.756,4.931,8.684a45.914,45.914,0,0,0,2.408,4.211c.916,1.35,1.884,2.656,2.7,4.073.081.141-.138.258-.222.122-1.512-2.53-3.407-4.764-4.819-7.358-1.481-2.723-3.066-5.405-4.635-8.076-1.481-2.52-3.259-4.974-4.294-7.723-.42-1.118-.837-2.253-1.185-3.4-.041-.129-.079-.279-.122-.441-.048.11-.088.222-.143.334a31.264,31.264,0,0,1-3.04,4.592c-.558.746-1.145,1.357-1.662,2a.336.336,0,0,1,.2.479,12.047,12.047,0,0,0,.134,10.241c.594,1.264,1.626,2.153,2.108,3.481.6,1.633,1.316,3.307,1.757,4.988a17,17,0,0,1,.2,4.278,6.885,6.885,0,0,0,2.151,4.867,21.085,21.085,0,0,0,10.558,5.73c3.946.823,8.014.441,11.951,1.476,3.176.839,5.568,3.059,8.012,5.174a27.075,27.075,0,0,1,6.581,7.969,12.63,12.63,0,0,0,1.357,2.47c.415.494.932.908,1.307,1.438.408.582.575,1.173,1.013,1.745a24.8,24.8,0,0,0,1.488,2.063,9.283,9.283,0,0,0,4.938,2.647c1.722.293,3.255-.68,5.019-.384a12.226,12.226,0,0,0,5.715.107c.765-.215,1.519-.486,2.277-.72,1.474-.46,1.772-1.252,2.175-2.578a.081.081,0,0,1,.155.043c-.246,1.2-.265,2.072-1.474,2.6a17.055,17.055,0,0,1-4.538,1.307,15.312,15.312,0,0,1-4.416-.4c-1.764-.289-3.257.7-5,.405a9.92,9.92,0,0,1-4.366-2.043,6.66,6.66,0,0,1-1.364-1.388,9.235,9.235,0,0,0-.665-1.054c-.215-.224-.525-.341-.722-.582-.415-.517-.451-1.266-.9-1.807a18.575,18.575,0,0,1-1.588-1.767,51.608,51.608,0,0,0-3.233-5.291,34.847,34.847,0,0,0-4.356-4.218,37.887,37.887,0,0,0-5.014-3.949c-1.96-1.156-4.685-1.483-6.9-1.714-2.043-.21-4.111-.253-6.142-.563a23.227,23.227,0,0,1-10.754-5.01,11.322,11.322,0,0,1-3.224-3.839,8.971,8.971,0,0,1-.465-4.142c.124-2.413-.813-4.3-1.607-6.512a9.643,9.643,0,0,0-1.719-3.124,8.716,8.716,0,0,1-1.209-2.113,12.706,12.706,0,0,1-.8-7.664,20.233,20.233,0,0,0-.792,6.688,20.592,20.592,0,0,1,0,3.186,14.961,14.961,0,0,1,1.85,3.808c.811,2.976.923,5.8,2.082,8.732,1.106,2.8,2.043,5.172,4.6,6.96a62.18,62.18,0,0,0,7.246,4.22q.529.268,1.073.51a.313.313,0,0,1,.479.038,1.414,1.414,0,0,0,.415.353l.491.212c1.047.317,2.532.16,3.41.467,1.831.644,3.317,1.841,5.4,1.524M112.079,260.3c-.317,1.083-.362,2.26-.646,3.362-.591,2.32-1.388,4.511-1.841,6.869-.243,1.28-.615,2.5-.77,3.8a5.561,5.561,0,0,1-.639,2.1c-.083.145-.3.01-.224-.138a9.273,9.273,0,0,0,.639-3.259c.179-1.209.489-2.4.682-3.605.322-2.034,1.1-3.941,1.586-5.935.236-.97.286-1.965.5-2.933a14.767,14.767,0,0,0,.806-3.424,22.676,22.676,0,0,0-.367-2.649c-.029.16-.045.315-.081.474a25.043,25.043,0,0,1-.856,2.876,6.561,6.561,0,0,1,.091.939,5.008,5.008,0,0,1-1.073,2.847,26.371,26.371,0,0,0-4.337,8.489,21.648,21.648,0,0,1-1.025,3.755c-.66,1.459-1.738,2.6-2.117,4.206a15.733,15.733,0,0,0-.157,5.348c.076.62.231,1.228.3,1.846a8.3,8.3,0,0,0,.274,2.733c.033.076-.081.141-.117.062-.534-1.118-.258-2.477-.5-3.684a20.475,20.475,0,0,1-.365-4.871,8.693,8.693,0,0,1,1.044-3.775,18.475,18.475,0,0,0,1.409-2.709,18.661,18.661,0,0,0,.522-2.279,22.558,22.558,0,0,1,3.91-8.8,8.11,8.11,0,0,0,1.3-2.141c.014-.045.024-.091.036-.136a10.438,10.438,0,0,1-1.04,1.648c-1.543,1.953-4.123,2.365-5.856,4.085a9.479,9.479,0,0,0-2.465,4.738c-.205,1.462.391,2.48.534,3.882.188,1.836-1,2.868-2.229,4.082-2.394,2.363-2.759,4.933-3.028,8.21-.021.267-.045.563-.067.873a30.2,30.2,0,0,0,6.166,8.407c1.629,1.571,4.74,3.627,6.309.947,1.271-2.175.682-4.785.665-7.144a22.087,22.087,0,0,1,1.133-6.011c.446-1.588,1.233-2.165,2.234-3.488a21.464,21.464,0,0,0,3.14-5.658c.734-2.239-.432-4.6-1-6.726-.291-1.094-.558-2.215-.808-3.341-.162,1.445-.646,2.823-.806,4.282a10.936,10.936,0,0,1-.975,3.541c-.064.143-.315.033-.25-.112a11,11,0,0,0,.844-3.937c.079-1.462.66-2.816.718-4.282.019-.477.048-.949.06-1.421-.074-.355-.148-.713-.219-1.071a12.149,12.149,0,0,1-.217-2.268c-.052-.25-.112-.494-.16-.744-.143.739-.448,1.4-.665,2.139m.63-7.141c-.088-.272-.191-.539-.3-.8-.012.179-.021.339-.017.444.014.505.021,1.016.074,1.521.055.556.16,1.1.243,1.645a5.2,5.2,0,0,1,.269.6c.024-.467.041-.944.048-1.433-.193-.544-.37-1.09-.52-1.643a.269.269,0,0,1,.2-.329M97.16,278.493c1.111-1.347,2.551-2.039,2.685-3.932.11-1.593-.606-2.928-.355-4.549a10.805,10.805,0,0,1,2.833-5.5c2.48-2.52,5.682-2.747,6.965-6.567,1.052-3.147.384-6.383.339-9.588a29.094,29.094,0,0,1-4.707,4.633,22.888,22.888,0,0,0-5.379,5.854c-.136.21-.272.417-.408.625-1.762,3.8-4.566,7.315-4.957,11.581-.181,1.965-.589,3.7-.928,5.637-.534,3.052.558,5.673,1.7,8.429.069.165.143.317.215.477.031-.61.074-1.171.11-1.624a9.591,9.591,0,0,1,1.884-5.472m-7.053,34.362a45.177,45.177,0,0,1-1.836,7.032.662.662,0,0,1-.134.353c-.026.067-.052.138-.079.207-1.133,2.771-1.66,4.874-.422,7.73,1.769,4.077,4.879,8.055,7.363,11.717,1.562,2.308,3.66,3.913,5.444,6.006a26.239,26.239,0,0,1,3.341,5.9,60.227,60.227,0,0,0,7.334,11.874c1.5,1.829,3.615,3.081,5.262,4.783a17.017,17.017,0,0,0,8.3,4.437c5.413,1.254,11.564.737,17.094.62,5.661-.119,11.245,2.167,16.865,1.326,2.091-.315,4.135-.668,6.233-.916,1.34-.155,3.135-.248,3.083-1.989a14.385,14.385,0,0,0-1.259-3.448c-.93-2.337-2.8-4.268-4.361-6.214-1.819-2.27-3.605-4.576-5.539-6.753a72.612,72.612,0,0,1-8.634-12.215c-1.5-2.582-3.162-5.057-4.652-7.644a64.964,64.964,0,0,0-4.342-7.041,11.449,11.449,0,0,1,.937,2.947c.126.777.01,1.569.193,2.341a26.494,26.494,0,0,0,.93,2.606,44.554,44.554,0,0,0,5.031,10.108c1.19,1.776,2.425,3.531,3.739,5.219a13.916,13.916,0,0,1,2.313,3.55c.041.1-.131.169-.179.072a27.9,27.9,0,0,0-3.207-4.423q-1.717-2.293-3.31-4.681a53.4,53.4,0,0,1-5.055-9.855,14.92,14.92,0,0,1-1.2-4.328,10.388,10.388,0,0,0-2.2-5.112c-.908-1.166-1.948-2.206-2.744-3.45a18.013,18.013,0,0,0-2.969-2.072c-.7-.374-1.4-.725-2.117-1.071a4.2,4.2,0,0,1-.451-.217c-1.679-.8-3.369-1.576-4.986-2.523-4.044-2.365-7.241-4.108-8.875-8.636a35.382,35.382,0,0,1-2.139-7.6,17.165,17.165,0,0,0-1.2-5.11c-.181-.41-.341-.8-.544-1.195a9.75,9.75,0,0,1-.284,1.245,6.408,6.408,0,0,1-1.712,2.89q1.688,4.439,3.264,8.927a8.274,8.274,0,0,0,1.19,2.506,6.488,6.488,0,0,1,.873,1.309,37.924,37.924,0,0,1,1.269,3.786c.052.143-.179.2-.231.055-.563-1.536-.9-3.352-1.979-4.631a8.861,8.861,0,0,1-1.59-2.909c-1.075-2.89-2.222-5.749-3.3-8.636a4.724,4.724,0,0,1-3.631.689c.3.842.727,1.66,1.032,2.325.775,1.679,1.881,3.19,2.6,4.886.875,2.079,2.392,3.691,3.46,5.677.477.885,1.006,1.772,1.4,2.692a11.622,11.622,0,0,0,1.066,2.3c.212.3.668,1.08,1.156,1.016.186-.026.265.255.072.293-.157.029-.315.057-.472.088a.162.162,0,0,1-.157-.048,12.315,12.315,0,0,1-1.774-2.673,33.816,33.816,0,0,0-1.874-3.608,29.307,29.307,0,0,0-2.313-3.288,28.012,28.012,0,0,1-1.614-3.207,45.374,45.374,0,0,1-2.7-5.177c-.172-.417-.393-.916-.57-1.435a10.594,10.594,0,0,1-4.65-3.255c.253.9.82,1.855,1.08,2.611a25.578,25.578,0,0,0,1.8,4.533c1.609,2.8,2.823,5.82,4.53,8.56,3.019,4.85,7.332,8.93,9.271,14.409.05.148-.193.243-.255.1-2.473-5.875-7.308-10.193-10.351-15.725-.8-1.457-1.483-2.976-2.239-4.454-.775-1.516-1.745-2.921-2.372-4.514-.539-1.371-.916-2.806-1.5-4.161a5.949,5.949,0,0,1-.689-2.177c-.355-.42-.7-.842-1.035-1.254.227.646.374,1.326.551,1.989.062.234-.3.386-.4.16-.315-.72-.532-1.483-.861-2.189a15.655,15.655,0,0,1,.272,1.9,20.126,20.126,0,0,0-.048,3.412,15.3,15.3,0,0,0,2.487,5.4c1.04,1.671,1.652,3.555,2.609,5.272.975,1.741,2.382,3.178,3.453,4.852,1.168,1.822,2.127,3.77,3.3,5.594,1.13,1.757,1.939,3.617,3.014,5.4a50.176,50.176,0,0,1,3.553,5.892c.7,1.629,1.81,3.026,2.446,4.664.033.088-.119.148-.157.06a15.991,15.991,0,0,0-1.528-2.563c-.572-.906-.849-1.929-1.366-2.861-1.147-2.051-2.675-3.9-3.848-5.944-.491-.858-.8-1.8-1.316-2.64-.61-.994-1.311-1.941-1.941-2.923-1.29-2.008-2.3-4.142-3.782-6.025a25.187,25.187,0,0,1-3.171-4.9c-.858-1.834-1.85-3.5-2.852-5.243a11.054,11.054,0,0,1-1.648-4.893,26.166,26.166,0,0,0-.007-3.643,4.917,4.917,0,0,1-.112-2.091.291.291,0,0,1,.131-.181,4.089,4.089,0,0,1-.415-.544c-.007.045-.021.091-.031.134a12.735,12.735,0,0,0-.231,3.569c.2,2.022.258,4.015.41,6.04.331,4.4-.522,8.77,2.074,12.69a9.3,9.3,0,0,0,2.244,2.52c.668.47,1.478.7,2.12,1.211,1.29,1.03,1.867,2.983,2.384,4.492a8.845,8.845,0,0,1,.641,4.728,6.471,6.471,0,0,1-.908,2.272,24.978,24.978,0,0,0-1.707,2.072c-.579,1.1-.329,2.516-.241,3.7.076,1.071-.052,2.146.093,3.209a13.876,13.876,0,0,0,2.442,5.568c1.137,1.743,2.294,3.512,3.562,5.16a50.766,50.766,0,0,0,4.561,4.64,35.123,35.123,0,0,1,4.042,5.272,54.917,54.917,0,0,1,3.519,5.425,8.34,8.34,0,0,0,3.92,4.22,14.454,14.454,0,0,0,6.862,1.278c2.382-.122,4.58-1.021,6.932-1.311a29.11,29.11,0,0,1,7.027.048c.99.117,1.972.279,2.947.477,1.207.243,2.215.8,3.379,1.121a9.978,9.978,0,0,0,6.383-.372c.1-.041.143.129.041.167a8.972,8.972,0,0,1-4.755.756c-1.943-.267-3.648-1.075-5.58-1.419a34.2,34.2,0,0,0-7.113-.56,37.171,37.171,0,0,0-6.717,1.18c-3.7.794-8.5.422-11.486-2.141a11.961,11.961,0,0,1-2.494-3.727c-1.142-2.129-2.709-4.032-4.037-6.047-2.57-3.9-6.419-6.56-9.051-10.406-2.02-2.947-4.771-6.19-5.107-9.893-.086-.963-.024-1.929-.119-2.895a8.154,8.154,0,0,1,.076-3.207,4.621,4.621,0,0,1,1.123-1.738,6.128,6.128,0,0,0,1.65-3.071c.417-2.132-.668-4.614-1.55-6.507a4.661,4.661,0,0,0-2.213-2.423,7.67,7.67,0,0,1-2.2-1.609,13.288,13.288,0,0,1-2.964-5.358,23.2,23.2,0,0,1-.546-6.805c0-1.316-.136-2.6-.217-3.908-.086-1.342-.029-2.625-.229-3.968a13.674,13.674,0,0,1-.048-3.391,12.49,12.49,0,0,1,.479-2.179,33.358,33.358,0,0,1-3.486-8.379c-1.414-4.69.191-8.734,1.044-13.357.646-3.507,2.923-6.118,4.738-8.989a21.416,21.416,0,0,1-2.828,3.2c-1.812,1.655-3.791,3.121-5.572,4.788a5.418,5.418,0,0,0-.212,2.606,26.25,26.25,0,0,0,.224,2.837c.372,2.511,1.071,4.936,1.385,7.47.148,1.178.348,2.361.448,3.546a22.2,22.2,0,0,1-.212,4.034c-.246,2.578-.007,5.146-.343,7.723a28.052,28.052,0,0,0,.463,7.933c.367,2.508.541,4.745,1.86,6.986.6,1.021,1.047,2.082,1.59,3.128a15.947,15.947,0,0,0,2.587,3.324,12.968,12.968,0,0,1,2.985,4.893,4.119,4.119,0,0,1,.079,2.628,8.376,8.376,0,0,1-.994,1.412,6.06,6.06,0,0,0-.8,2.322c-.267,1.178-.763,2.289-1.009,3.472a8.094,8.094,0,0,0,.3,4.194c.045.145-.174.193-.224.057a8.971,8.971,0,0,1-.141-5.663c.312-1.128.527-2.272.83-3.393.331-1.226,1.567-2.1,1.593-3.391.05-2.568-2.265-5.017-3.882-6.743-1.671-1.786-2.52-3.963-3.727-6.052-1.28-2.215-1.474-4.5-1.831-6.979a29.1,29.1,0,0,1-.577-7.425c.136-1.247.331-2.465.353-3.722.026-1.5-.069-2.988.06-4.48a30.762,30.762,0,0,0,.265-3.775c-.06-1.626-.377-3.29-.589-4.9-.346-2.642-1.214-5.219-1.335-7.88a16.852,16.852,0,0,1-.057-3.164,20.32,20.32,0,0,1-2.33,2.752c-1.319,1.142-1.507,1.34-1.593,3.085-.062,1.242-.045,2.523-.165,3.758-.212,2.16-1.817,3.555-2.146,5.584-.427,2.628,1.264,5.88,2.47,8.1a47.51,47.51,0,0,1,2.89,6.354c1.578,4.273,3.276,8.431,2.351,13.055M93.984,262.6c-.041-.019-.081-.036-.122-.057a.422.422,0,0,1,.107.072l.014-.014M62.376,306.052a5.943,5.943,0,0,0,1.252,2.737c2.232,2.73,6.018,3.775,8.551,6.195a13.135,13.135,0,0,1,2.785,4.225,11.153,11.153,0,0,0,1.55,2.563,14.47,14.47,0,0,0,1.35,1.917c1.24.868,3.074-1.259,4.254-1.857,1.238-.625,2.27-1.638,3.469-2.277a40.939,40.939,0,0,0,2.394-8.119c.873-5.25-2.091-11.748-4.554-16.412.148.949.291,1.905.534,2.859.773,3.04,2.427,5.811,3.25,8.827a10.292,10.292,0,0,1-.007,3.941,33.884,33.884,0,0,1-.46,3.741c-.329,1.423-1.228,2.549-1.767,3.882a5.223,5.223,0,0,1-1.385,2.454c-.093.072-.222-.06-.129-.136.894-.742,1.023-1.989,1.443-3.009a15.3,15.3,0,0,0,1.545-4.321c.138-1.261.179-2.551.262-3.82a8.82,8.82,0,0,0-.908-4.4,44.265,44.265,0,0,1-2.671-7.184c-.308-1.278-.355-2.587-.6-3.872a14.144,14.144,0,0,0-.382-1.478c-.153-.327-.3-.658-.436-.992-.024.374-.05.749-.067,1.123A12.418,12.418,0,0,0,82,294.714a8,8,0,0,1-.172,1.24c-.026.639.126,1.266.076,1.917-.112,1.385.436,2.561.589,3.922a58.021,58.021,0,0,1-.038,8.779,9.728,9.728,0,0,1-.606,3.324c-.427,1.028-1.545,2.458-1.207,3.622.038.124-.155.169-.193.048a4.07,4.07,0,0,1,.62-2.594,10.933,10.933,0,0,0,1.009-3.925c.1-1.688.048-3.4.081-5.086a19.991,19.991,0,0,0-.31-5.186,14.468,14.468,0,0,1-.5-1.75c-.072-.629.091-1.249.072-1.881a32.433,32.433,0,0,0-.374-3.484,22.525,22.525,0,0,1,.021-3.76c-.281.236-.567.46-.863.68q-.15.379-.286.758a12,12,0,0,0-.641,4.976,38.045,38.045,0,0,1-.064,6.874,15.651,15.651,0,0,1-.4,2.282c-.265.975-.761,2.144-.26,3.116a.146.146,0,0,1-.258.138c-.808-1.426.193-3.558.341-5.055a32.782,32.782,0,0,0,.248-4.244c-.045-1.435-.3-2.861-.334-4.3a11.09,11.09,0,0,1,.632-3.834c-.279.181-.563.355-.849.529a10.558,10.558,0,0,1-.708,2.415,15.288,15.288,0,0,0-1.776,4.3,24.089,24.089,0,0,0-.811,4.569c-.062,1.359-.386,3.14.043,4.4.041.117-.153.193-.2.079-.56-1.331-.236-2.663-.291-4.073a21.168,21.168,0,0,1,.644-4.945,18.5,18.5,0,0,1,1.531-4.356,12.2,12.2,0,0,0,.627-1.855c-.169.093-.339.186-.51.277.031.086.067.172.1.26.086.224-.227.324-.37.2-.043-.038-.083-.074-.126-.11a11.9,11.9,0,0,0-1.6,2.58c-.653,1.14-1.314,2.239-1.879,3.429a41.559,41.559,0,0,0-1.846,3.968,8.9,8.9,0,0,0-.727,3.753.114.114,0,0,1-.052.122l-.393.255c-.11.069-.2-.1-.1-.174.439-.312.255-.987.31-1.44.067-.522.191-1.037.3-1.552a23.2,23.2,0,0,1,1.8-4.709c.589-1.321,1.249-2.57,1.955-3.832.358-.639.651-1.335,1.032-1.962l-.413.191a.369.369,0,0,1-.176.391,17.659,17.659,0,0,0-5.215,4.869,17.4,17.4,0,0,0-1.526,2.682c-.467.9-1.412,1.946-1.2,3.026a.143.143,0,0,1-.277.069,3.026,3.026,0,0,1,.458-2.227,30.423,30.423,0,0,1,1.755-3.491,24.405,24.405,0,0,1,2.394-2.94,14.666,14.666,0,0,1,1.385-1.338c-.057.024-.114.05-.172.072-.2.086-.405.169-.608.253a.252.252,0,0,1-.169.2,11.542,11.542,0,0,0-3.081,1.867,4.39,4.39,0,0,1-1.435.608c-1.044.31-1.445,1.071-1.917,1.962-1.068,2.012-2.454,4.139-2.713,6.443m-.148-1.655a28.074,28.074,0,0,1,2.551-5.708A3.348,3.348,0,0,1,66,297.182a4.578,4.578,0,0,1,.532-.262,24.933,24.933,0,0,1-3.834.9c.093,2.144-.477,4.423-.472,6.579m-30.742,3.646a90.664,90.664,0,0,1,11.026-6.91c3.891-1.958,7.811-4.54,12.132-5.494a23.778,23.778,0,0,1,5.463-.083,22.89,22.89,0,0,0,7.845-1.631,44.157,44.157,0,0,0,6.617-2.666,48.5,48.5,0,0,0,6-3.548c-.036-.2-.072-.41-.093-.61a7.877,7.877,0,0,1,.238-3.217c.346-1.047,1.211-1.767,1.612-2.775.954-2.411-.253-5.429.744-7.785a11.362,11.362,0,0,1-2.332,1.013,11.5,11.5,0,0,1-3.879.515c-1.524.9-2.9,2.12-4.375,3.076-2.206,1.426-4.628,1.958-7.113,2.7-3.362,1-6.6,2.616-10,3.419-2.861.672-5.649.219-8.448,1.392-2.735,1.145-5.291,4.368-6.629,7.013l.017,0a.229.229,0,0,1,.165.422c-.15.086-.315.15-.472.222-1.044,2.411-1.333,5.243-2.649,7.47-.644,1.087-1.571,1.989-2.26,3.054a23.2,23.2,0,0,1-1.941,2.74,8.264,8.264,0,0,1-3.658,2.327,2.986,2.986,0,0,0,2-.637m-.944-37.094c.172.763,1.784,1.4,2.377,1.886a10.7,10.7,0,0,0,3.825,1.764c1.161.377,2.246.887,3.391,1.3a21.434,21.434,0,0,0,4.075.782c2.237.336,4.263,1.407,6.514,1.59a24.025,24.025,0,0,0,3.586.1c1.307-.1,2.563-.515,3.863-.658a24.124,24.124,0,0,0,6.5-1.187,9.04,9.04,0,0,1,2.234-.753,11.627,11.627,0,0,0,2.854-.646c.522-.215,1.638-.842,2.771-1.276q-.722-.286-1.445-.629a4.906,4.906,0,0,1-1.64.389,7.112,7.112,0,0,0-2.043.26,10.053,10.053,0,0,1-1.731.525c-.839.117-1.707.148-2.556.222-1.295.114-2.415.691-3.693.844-1.125.136-2.282-.06-3.414-.021a27.844,27.844,0,0,1-3.426.045,39.982,39.982,0,0,1-7.747-1.307.151.151,0,0,1,.086-.289,36.9,36.9,0,0,0,7.671,1.083,29.36,29.36,0,0,0,3.426-.131,19.369,19.369,0,0,0,3.9-.172,22.307,22.307,0,0,1,2.644-.792c.992-.131,2.017-.138,3-.3,1.035-.162,1.941-.77,2.992-.861.522-.045.887.019,1.361-.064-.732-.372-1.478-.765-2.253-1.166a8.268,8.268,0,0,0-.875-.382,14.465,14.465,0,0,1-2.642.863c-.5.093-1,.036-1.493.114-.634.1-1.2.391-1.85.458a30.579,30.579,0,0,1-3.1.024,12.04,12.04,0,0,1-3.989-.5.148.148,0,0,1-.1-.167l-.25.026c-4.447.589-9.006,2.28-13.453.737-2.206-.765-4.235-2.189-6.35-3.188a31.21,31.21,0,0,1-6.831-4.416,21.34,21.34,0,0,0-2.358,4.914q-.207.536-.413,1.08c1.383,3.331,4.936,5.048,8.038,6.471a29.031,29.031,0,0,1,2.523,1.452,25.039,25.039,0,0,0,2.89,1.147,18.919,18.919,0,0,0,5.782,1.624,51.541,51.541,0,0,0,6.648.131,30.621,30.621,0,0,0,6.643-.553c.842-.207,1.712-.234,2.554-.439a21.03,21.03,0,0,0,2.52-.908,9.217,9.217,0,0,0-1.612.286,25.3,25.3,0,0,1-5.515,1.207,33.024,33.024,0,0,1-12.392-1.843,36.773,36.773,0,0,1-5.608-1.8,18.61,18.61,0,0,0-2.661-1.378,12.549,12.549,0,0,1-2.6-.954,22.426,22.426,0,0,1-4.118-3.369,8.831,8.831,0,0,1-1.853-3.438c-.05-.141.172-.191.224-.055a8.976,8.976,0,0,0,3.081,4.259,13.959,13.959,0,0,0,5,3.026c1.681.482,3.026,1.567,4.709,2.048q3.122.894,6.23,1.831a25.2,25.2,0,0,0,12.432.551,54.294,54.294,0,0,1,5.3-1.288c1.39-.193,2.485-1.209,3.82-.577a28.124,28.124,0,0,0,5.789-2.818c.448-.305.913-.682,1.39-1.071-.992.365-2.1.911-2.38,1.032-.477.205-.949.42-1.445.579-1.044.331-2.163.267-3.2.6a20.622,20.622,0,0,1-2.849.985c-1.049.181-2.1.374-3.143.556-1.1.191-2.229.162-3.341.365a17.088,17.088,0,0,1-3.012.384,18.392,18.392,0,0,1-6.653-1.14c-2.315-.856-4.848-.753-7.156-1.6-1.309-.484-2.573-1.066-3.9-1.526a9.754,9.754,0,0,1-2.68-1.118,27.39,27.39,0,0,0-2.361-1.621,1.332,1.332,0,0,1-.773-1.073.129.129,0,0,1,.25-.062m34.972-.193c-2.06-.355-3.951.267-6.235.589-1.729.243-3.438.312-5.174.5a12.748,12.748,0,0,0,3.784.246,15.594,15.594,0,0,0,3.553-.277c1.1-.32,2.3-.379,3.357-.782.238-.091.477-.184.715-.277m-42.838,6.1c0,2.475.7,4.943,1.011,7.389a49.261,49.261,0,0,1,.882,5.465c.014,1.7-1,2.871-1.8,4.249-1.638,2.823-.727,5.5.708,8.193a22.818,22.818,0,0,0,2.764,4.194,9.228,9.228,0,0,0,2.067,1.934,11.439,11.439,0,0,0,5.534-4.967c.706-1.233,1.586-2.3,2.277-3.515a11.263,11.263,0,0,0,.908-2.194,7.078,7.078,0,0,0-.913.064,12.538,12.538,0,0,1-1.843.434,7.63,7.63,0,0,1-2.928-.546,14.449,14.449,0,0,1-3.171-2.134,6.974,6.974,0,0,1-2.253-2.16.136.136,0,0,1,.238-.131,9.4,9.4,0,0,0,2.587,2.22,12.019,12.019,0,0,0,2.926,1.841c1.908.687,3.665-.262,5.546-.21.1-.346.2-.691.308-1.04a7.38,7.38,0,0,1-1.5.165,11.123,11.123,0,0,1-2.573.284,10.831,10.831,0,0,1-2.58-1.288c-.155-.081-.014-.3.138-.227.6.284,1.168.649,1.791.885,1.056.4,1.581.048,2.547-.129a6.516,6.516,0,0,0,2.449-.548c.155-.467.327-.937.517-1.414a13.127,13.127,0,0,1-6.207-.246c-.117-.033-.064-.212.055-.186a10.875,10.875,0,0,0,4.452.246,12.463,12.463,0,0,0,2.005-.551,21.6,21.6,0,0,1,3.457-5.6c-1.164.072-2.334.451-3.5.465a25.8,25.8,0,0,1-5.642-.317,17.671,17.671,0,0,1-4.166-1.667c-.827-.415-1.919-.942-2.127-1.936a.129.129,0,0,1,.25-.064c.281,1.195,2.086,1.741,3.062,2.17a13.262,13.262,0,0,0,5.565,1.245,24.161,24.161,0,0,0,4.7-.286,10.608,10.608,0,0,1,2.523-.312,11.434,11.434,0,0,1,3.658-2.516c2.394-.987,4.435-.978,6.958-1.192a16.539,16.539,0,0,0,3.739-.808c-.06.01-.117.019-.176.031a14.21,14.21,0,0,1-2.663.568c-4.363.131-8.906.365-13.214-.463a34.832,34.832,0,0,1-5.6-2.105,12.445,12.445,0,0,1-2.334-1.364,26.466,26.466,0,0,0-2.408-1.252c-2.73-1.385-5.622-3.138-6.893-6.04a15.628,15.628,0,0,0-1.123,5.365m34.762-73.759c-4.139-1.393-6.18-5.1-8.405-8.529a34.81,34.81,0,0,0-4.08-5.477c-1.884-1.915-3.984-.818-5.541,1-1.013,1.18-1.531,2.423-2.907,3.276a28.776,28.776,0,0,1-5.305,2.12,19.06,19.06,0,0,1-5.911,1.035,37,37,0,0,1-7.606-.1,7.534,7.534,0,0,1-2.139-.882c-.773-.393-1.745-1.285-2.644-1.009-.246.074-.386.384-.589.491-.594.315-1.073.963-1.7,1.3a22.787,22.787,0,0,1-3.159,1.309c-2.015.691-6.052-.682-5.785,2.473a52.565,52.565,0,0,0,1.087,7.184,20.1,20.1,0,0,0,2.654,6.54,26.63,26.63,0,0,1,2.544,5.9c1.54,4.373,4.118,8.853,3.476,13.651-.272,2.032-1.636,3.519-2.029,5.47-.458,2.287.916,6.052,2.077,8.031,2.616,4.464,7.466,7.4,11.047,10.964,1.438,1.428,2.663,3.057,4.068,4.514a3.976,3.976,0,0,1,.639-.16c.782-.122,1.5.846.8,1.452l-.029.029a36.553,36.553,0,0,0,8.186,4.971c2.48,1.192,4.414,2.668,7.3,2.771,2.761.1,5.472-.677,8.167-1.164,1.97-.358,3.949-.482,5.88-.877a41.135,41.135,0,0,1,6.269-1.04c2.494-.1,4.468,1.016,6.557,2.244a15.276,15.276,0,0,0,5.475,2.158,4.561,4.561,0,0,1,1.216-.415,1.144,1.144,0,0,1,1.125.482,11.119,11.119,0,0,0,1.669-.277c2.682-.658,4.707-2.449,6.614-4.342a12.775,12.775,0,0,1,2.7-2.37l-.012-.014a5.214,5.214,0,0,1-2.06-.145,19.492,19.492,0,0,0-3.579-.546c-2.277-.134-4.542-.594-6.8-.928a100.534,100.534,0,0,0-14.8-1.507c-4.886,0-9.769.236-14.655.26a64.343,64.343,0,0,0-7.156.646c-.942.11-1.886.234-2.835.267a6.707,6.707,0,0,0-2.737.253c-.1.05-.193-.1-.088-.16,1.273-.663,3.262-.334,4.654-.515,2.134-.272,4.259-.641,6.407-.818,2.47-.2,4.967-.1,7.444-.191,2.446-.091,4.893-.231,7.339-.291a92.28,92.28,0,0,1,14.836,1.1c2.458.339,4.926.763,7.4.994,1.013.1,2.041.055,3.047.21,1.24.193,2.392.765,3.674.529a.425.425,0,0,1,.46.2q.1.182.2.358c.086-.024.169-.057.26-.076a.638.638,0,0,1,.608.162c.825-.751,1.652-1.5,2.475-2.256a18.283,18.283,0,0,1-5.341-.718c-1.032-.234-2.094-.346-3.119-.606-1.114-.284-2.151-.8-3.252-1.116-2.136-.618-4.218.1-6.357-.5A49.261,49.261,0,0,0,67.41,259a105.6,105.6,0,0,0-15.21-.677c-2.363.074-4.75.348-7.094.622-1.581.184-3.286.622-4.8-.072-.112-.05-.024-.25.091-.2,1.786.784,4.011.031,5.878-.16,2.337-.238,4.638-.587,6.989-.658a106.681,106.681,0,0,1,14.419.577,45.866,45.866,0,0,1,6.49,1.011,10.99,10.99,0,0,0,3.331.622,14.129,14.129,0,0,1,3.157-.091,17.522,17.522,0,0,1,2.909.894,20.046,20.046,0,0,0,3.207.763c2.048.374,4.108,1.087,6.207.956a.239.239,0,0,1,.305-.253,5.058,5.058,0,0,1,.544.188c-.582-.277-1.2-.458-1.829-.687-.935-.341-1.843-.737-2.792-1.037-1.743-.556-3.543-.928-5.329-1.314a.947.947,0,0,1-.048.083.381.381,0,0,1-.51.119,5.073,5.073,0,0,1-.882-.532,14.841,14.841,0,0,1-3.267-1.192c-1.512-.777-3.236-.887-4.652-1.829-2.959-1.972-5.57-4.5-8.443-6.6a22.066,22.066,0,0,1-4.046-4.094.2.2,0,0,1-.176.024A105.61,105.61,0,0,0,49.5,242.4c-1.97-.4-3.965-.608-5.937-.985a59.093,59.093,0,0,0-6.133-1.187c-1.97-.165-3.958-.184-5.932-.336a43.677,43.677,0,0,0-6.04.253c-1.865.112-3.739.1-5.608.215-2.094.124-4.237-.129-6.312.162-.155.021-.215-.212-.06-.236,1.769-.281,3.565-.1,5.348-.219,2.048-.141,4.092-.274,6.142-.391a54.24,54.24,0,0,1,5.994-.443c2.234.124,4.5.129,6.729.317a46.7,46.7,0,0,1,5.572,1.047c2.041.427,4.132.594,6.183,1,4.07.8,8.3,1.354,12.053,3.2-.637-.784-1.273-1.574-1.96-2.332-2.654-2.919-5.873-4.068-9.59-5.072a35.524,35.524,0,0,1-10.119-4.33c-2.969-1.929-5.489-4.423-8.405-6.424a41.239,41.239,0,0,1-4.051-3.038,35.161,35.161,0,0,0-4.743-4.025,36,36,0,0,1-4.65-3.391c-1.564-1.342-3.319-2.609-4.778-4.053a15.991,15.991,0,0,0-2.134-2.156A6.34,6.34,0,0,1,9.435,208.7c-.925-1.187-1.183-2.9-1.638-4.287-.036-.11.129-.143.167-.041.651,1.681.978,3.705,2.563,4.8a14.5,14.5,0,0,1,1.528,1.013c.606.544,1.049,1.235,1.648,1.781,1.35,1.228,2.864,2.327,4.247,3.519A35.936,35.936,0,0,0,22.7,219a22.479,22.479,0,0,1,3.87,3.112,37.255,37.255,0,0,0,4.721,3.751c2.625,1.791,4.96,3.939,7.532,5.782a27.8,27.8,0,0,1-2.315-2.723c-2.139-2.856-4.237-5.792-6.171-8.791a105.863,105.863,0,0,1-5.689-9.488c-.765-1.516-1.447-3.043-2.308-4.509a29.818,29.818,0,0,1-2.306-4.495c-.048-.119.162-.2.212-.081,1.176,2.885,3.112,5.4,4.476,8.2,1.419,2.921,3.345,5.591,5.026,8.367s3.639,5.374,5.52,8.021a50.4,50.4,0,0,0,3.228,4.263c.894,1.016,2.585,3.085,3.994,3.243.129.017.179.229.029.25l-.014,0a37.729,37.729,0,0,0,7.618,2.89c3.164.842,6.183,1.693,8.672,3.925,2.518,2.256,4.18,5.3,6.8,7.451,1.214,1,2.568,1.784,3.763,2.809,1.488,1.278,3.071,2.451,4.616,3.66a7.373,7.373,0,0,0,2.578,1.462,14.049,14.049,0,0,1,2.28.672c.8.372,1.528.806,2.341,1.111-1.567-2.07-2.289-5.129-3.069-7.268-1.679-4.6-3.369-9.2-5.141-13.768-.813-2.094-1.738-4.163-2.372-6.316-.618-2.1-.823-4.309-1.335-6.433-.5-2.094-.649-4.239-1.111-6.338-.508-2.284-1.516-4.471-2.248-6.691-.05-.155.207-.258.272-.1.782,1.872,1.626,3.786,2.22,5.727.625,2.041.725,4.2,1.185,6.278.474,2.144.837,4.321,1.333,6.459a45.557,45.557,0,0,0,2.318,6.445c1.652,4.149,3.164,8.36,4.74,12.54.854,2.256,1.662,4.561,2.6,6.786a10.322,10.322,0,0,0,1.295,2.26,6.764,6.764,0,0,0,.722.82c.413.093.83.174,1.245.255a.235.235,0,0,1,.289.055c.229.048.458.091.687.141a42.337,42.337,0,0,1,6.2,1.7c.236.088.474.172.718.255a3.15,3.15,0,0,1-.36-.606,14,14,0,0,0-1.5-2.761,16.777,16.777,0,0,1-2.294-3.937c-.718-1.867-1.528-3.7-2.184-5.584-.632-1.819-.727-3.715-1.28-5.529-.5-1.638-1.426-3.088-1.786-4.778-.227-1.071-.3-2.163-.627-3.214-.315-1.011-.863-1.936-1.166-2.95-.558-1.869-.465-3.87-.9-5.761a24.685,24.685,0,0,1-.584-2.413c-.153-1.195-.091-2.394-.289-3.586-.033-.2.262-.277.305-.076.41,1.91.477,3.813.985,5.715.505,1.886.441,3.877.97,5.754.284,1.018.837,1.929,1.18,2.923a20.531,20.531,0,0,1,.639,2.961,32.214,32.214,0,0,0,1.788,4.871c.6,1.683.672,3.519,1.233,5.229.637,1.95,1.485,3.822,2.232,5.73a20.315,20.315,0,0,0,2.642,4.549,9.554,9.554,0,0,1,1.187,2.182,8.483,8.483,0,0,0,.835,1.629,10.614,10.614,0,0,1,1.9.837c1.679-1.931,2.895-4.1,4.44-6.183a8.423,8.423,0,0,1-2.256-1.931,11.3,11.3,0,0,1-1.319-3.317c-1.021-3.226-2.346-6.381-3.512-9.559-1.264-3.448-2.518-6.9-3.839-10.327a18.638,18.638,0,0,1-.832-3.453,3.911,3.911,0,0,1,.055-2.418c.076-.16.36-.036.289.129-.432,1.009.091,2.275.291,3.307a21.157,21.157,0,0,0,1.321,3.844c1.152,2.907,2.237,5.839,3.355,8.76,1.087,2.84,2.177,5.682,3.236,8.534a22.458,22.458,0,0,0,1.359,3.736,10.61,10.61,0,0,0,2.213,2.22c1.71-2.182,4.063-3.572,6.016-5.5a31.743,31.743,0,0,0,4.867-6.033c-.021-.093-.048-.188-.064-.279a.55.55,0,0,1,.4-.644c.234-.672.486-1.316.746-1.915a.924.924,0,0,1-1.352-.424c-.8-2.053-3.672-3.806-5.367-4.964a42.239,42.239,0,0,1-5.241-4.225,10.862,10.862,0,0,1-2.618-4.146,44.47,44.47,0,0,0-3.36-6.195c-.47-.775-.99-1.578-1.55-2.389a8.584,8.584,0,0,1-1.035-.975,5,5,0,0,1-1.037-1.815A26.971,26.971,0,0,0,83.8,209.96c-4.015-2.587-8.016-6.85-12.676-8.183-2.866-.82-5.2.782-7.861,1.464a10.381,10.381,0,0,1-5.823-.148m46.7-.289c.215.606.41,1.209.584,1.819q.426-1.388.942-2.723a11.9,11.9,0,0,1-1.526.9m-1.059,7.871c.236-8.252-5.541-18.632-13.66-21.474-2.206-.773-4.07-.224-6.295-.381a17.111,17.111,0,0,1-5.107-1.423,34.186,34.186,0,0,1-9.8-5.777c-2.473-2.315-5.272-4.526-7.058-7.413a38.285,38.285,0,0,0-2.442-3.639c-.143-.181-.422-.649-.639-.742a3.413,3.413,0,0,0-2.356.613c-.467.589.358,3.2.505,4,.837,4.578,1.95,8.975,3.016,13.491a64.468,64.468,0,0,0,2.027,6.567,31.5,31.5,0,0,0,3.35,5.982c.455-.148.916-.305,1.378-.458,5.429-1.8,9.7,1.469,13.849,4.671,2.256,1.741,4.888,3.088,7.02,4.969a32.7,32.7,0,0,1,2.387,2.358,21.015,21.015,0,0,0-.7-5.029,6.506,6.506,0,0,0-2.213-3.341,6.393,6.393,0,0,1-1.395-1.5c-.1-.155.15-.288.25-.136.911,1.392,2.5,1.955,3.276,3.479a12.527,12.527,0,0,1,1.283,4.883c.048.713.064,1.512.124,2.32.8.892,1.576,1.807,2.341,2.7a.349.349,0,0,1,.207.193c.019.041.043.081.062.122l.215.25a29.319,29.319,0,0,1,2.48,3.367c.045.045.086.091.129.134a17.6,17.6,0,0,1-.463-5.866c.043-1.18.064-2.363.1-3.543.041-1.474.265-2.513-.362-3.913-.467-1.037-.162-2.053-.422-3.133-.446-1.843-1.927-2.723-3.407-3.693-1.08-.708-2.22-1.342-3.257-2.11a7.411,7.411,0,0,0-4.268-1.855,12.249,12.249,0,0,1-6.56-2.2,65.181,65.181,0,0,1-5.959-4.619,60.452,60.452,0,0,1-6.447-6.81c-1.636-1.953-3.488-3.493-4.344-5.932-.057-.169.224-.281.3-.114.975,2.289,2.816,3.827,4.414,5.7A71.07,71.07,0,0,0,69.859,187a64.506,64.506,0,0,0,6.359,5.1,15.37,15.37,0,0,0,3.35,1.96,13.388,13.388,0,0,0,4.113.66c2.361.176,3.956,1.769,5.882,2.966,1.881,1.168,4.213,2.258,5.122,4.4a8.1,8.1,0,0,1,.393,2.685c.1,1.142.9,1.919.9,3.095-.01,2.213-.191,4.442-.229,6.662a15.807,15.807,0,0,0,.372,4.33,6.747,6.747,0,0,0,2.446,3.424,19.246,19.246,0,0,1,1.817,2.139,30.486,30.486,0,0,0,3,2.339,1.783,1.783,0,0,0,.193.026.393.393,0,0,1,.4.372c.3.191.6.384.908.567A10.314,10.314,0,0,0,108.3,229a2.856,2.856,0,0,1-.324-.727c-.1.026-.2.052-.293.076a.348.348,0,0,1-.377-.162c-1.547-2.372-4.011-3.846-5.706-6.083a21.2,21.2,0,0,1-3.217-7.711c-.7-3.095.7-6.147-.343-9.168-1.187-3.436-2.513-6.829-3.705-10.263-.06-.172.227-.286.293-.114,1.3,3.229,2.542,6.486,3.827,9.724a8.41,8.41,0,0,1,.725,3.763c-.122,1.786-.527,3.412-.2,5.21a22.846,22.846,0,0,0,1.536,4.774,13.4,13.4,0,0,0,2.141,3.872c.882,1,1.919,1.857,2.9,2.768a16.429,16.429,0,0,1,1.364,1.4,12.867,12.867,0,0,0,.792,1.087c-.052-.176-.1-.351-.157-.522-.048-.145.188-.241.248-.1.124.286.258.565.382.851a.285.285,0,0,1,.157.37,2.553,2.553,0,0,1,.277.968.081.081,0,0,1-.014.036,16.55,16.55,0,0,0,2.256.2,16.46,16.46,0,0,0-2.888-4.852,13.05,13.05,0,0,1-2.835-3.82,22.547,22.547,0,0,1-2.055-9.907m33.3-12.976a7.849,7.849,0,0,0-4.366-3.822,22.457,22.457,0,0,0-3.6-.727,12.169,12.169,0,0,1,3.436,4.955,58.114,58.114,0,0,1,3.131,8.794c.112.439.219.877.327,1.314l.029,0c.315-.031.417.393.229.584l-.1.1a30.405,30.405,0,0,1,.961,6.743c.415-.787.873-1.559,1.3-2.32a.9.9,0,0,1-.091-.324c-.2-2.213.634-4.411.713-6.633a16.8,16.8,0,0,0-.851-6.116,16.051,16.051,0,0,0-.7-1.71.354.354,0,0,1-.587-.351c.048-.162.1-.32.157-.482m-16.095,18.627c4.354.074,7.84-1.052,10.587-4.549a20.8,20.8,0,0,1,1.974-2.37,54.194,54.194,0,0,0-1.891-6.364c-.134-.353-.26-.715-.389-1.078-.405-.267-.846-.525-1.342-.813-1.393-.808-2.363-2.046-3.71-2.911a9.162,9.162,0,0,0-6.021-1.094c-2.265.31-2.871,1.853-4.592,2.849-.136.076-.246-.129-.117-.21,2.015-1.292,2.11-2.909,4.619-3.314a10.12,10.12,0,0,1,5.589.477c1.908.835,3.286,2.525,5.062,3.589a14.8,14.8,0,0,0-2.268-4.378c-3.6-4.39-9.347-.253-12.313,2.609-1.75,1.686-3.5,3.386-5.162,5.153-1.195,1.268-3.374,2.864-4.151,4.471a.882.882,0,0,1-.653.637c.131,2.308-.126,4.573.615,6.829a18.946,18.946,0,0,0,2.375,4.981c2.249-3.424,7.985-4.573,11.789-4.511M108.8,221.281c.279.382.589.768.918,1.154.558-.36,1.209-.651,1.822-1.018,2.442-1.45,3.364-2.589,6.326-1.671a13.035,13.035,0,0,0,10.155-.935c2.139-1.021,4.528-1.96,5.866-3.975a24.011,24.011,0,0,0-.61-3.612c-2.485,2.7-4.869,5.181-8.787,6.118-4.8,1.156-12.177-1.028-15.639,3.889a.331.331,0,0,1-.05.05m25.005-4.077c.021-.114.026-.234.041-.348-1.855,1.948-5.861,3.336-7.511,3.92a12.893,12.893,0,0,1-7.306.439c-.5-.119-.973-.312-1.457-.472a8.924,8.924,0,0,1,1.4.975,33.96,33.96,0,0,0,3.755,2.873c.484-.281.968-.572,1.447-.875a53.435,53.435,0,0,1,8.841-4.423,12.77,12.77,0,0,0,.789-2.089m-14.247,6.891a15.9,15.9,0,0,0-4.635-3.321.432.432,0,0,1-.1-.067,10.956,10.956,0,0,0-1.631.734c-.8.427-2.032.894-3.019,1.528a15.064,15.064,0,0,1,3.088,5.584,35.925,35.925,0,0,0,8.043-3.169,7.89,7.89,0,0,1-1.745-1.29m-13.038-19.5c.517-.577,1.047-1.121,1.488-1.648a72.739,72.739,0,0,1,6.81-7.067c2.246-2.043,5.339-3.93,8.486-4.156a8.68,8.68,0,0,0-2.835-.6c-2.852-.007-5.508,2.415-7.22,4.325a37.8,37.8,0,0,1-4.068,3.4c-.966,1.876-1.846,3.794-2.661,5.746M157.4,147.211c.343-1.547.181-3.1.436-4.645a25.471,25.471,0,0,1,.875-2.625,10.968,10.968,0,0,0,.148-3.062,22.246,22.246,0,0,1,.951-4.769,24.542,24.542,0,0,0,.382-5.9,25.843,25.843,0,0,1,.522-4.588,23.041,23.041,0,0,1,.358-3.35c0-.186.007-.374.01-.56.057-6.684-2.186-13.429-3.929-19.8-.97-3.55-1.631-7.1-2.859-10.592a107.155,107.155,0,0,0-4.552-10.978c-1.378-2.849-2.926-5.565-4.058-8.534-1.176-3.078-3.035-5.863-4.034-9.006-.608-1.917-.918-3.91-1.6-5.808-.61-1.7-1.426-3.329-1.97-5.062-.2-.639-.391-1.292-.575-1.948a92.038,92.038,0,0,0,4.421,19.831c1.338,3.748,3.014,7.323,4.631,10.947,1.483,3.331,2.1,6.967,3.391,10.386,1.247,3.3,2.985,6.4,4.106,9.738A72.228,72.228,0,0,1,156.3,107.8c1.221,7.113.172,13.305-2.017,20.139-1.085,3.386-2.084,6.819-3.264,10.17a76.174,76.174,0,0,1-4.931,10.327c-1.667,3.147-3.953,5.627-5.735,8.679-2.024,3.474-4.888,5.909-7.387,9.027-2.291,2.859-4.144,5.47-7.146,7.592-1.7,1.2-2.22,2.659-3.312,4.328-1.233,1.879-2.482,3.713-3.643,5.642-2.272,3.77-5.014,7.22-7.33,10.961-.072.114-.138.234-.21.351a22.631,22.631,0,0,1,4.5-4.015c1.822-1.078,3.553-1.955,5.715-1.669,2.878.379,5.663,1.474,8.57,1.9a10.925,10.925,0,0,1,7.251,3.815,43.623,43.623,0,0,1,3.684-6.679c.908-1.393,1.319-3.019,2.139-4.468a45.8,45.8,0,0,0,2.744-5.458,13.732,13.732,0,0,1,1.643-2.659A19.584,19.584,0,0,0,150.1,170a27.2,27.2,0,0,1,1.936-4.633,38.72,38.72,0,0,0,2.017-6.24c1.116-3.946,2.465-7.907,3.348-11.915m-15.318,55.426c1.073-2.215,2.268-4.344,3.293-6.612,1.474-3.259,2.892-6.6,4.473-9.8,3.493-7.079,5.224-15.52,7.122-23.172A95.849,95.849,0,0,0,159.1,149.9c-.894,3.3-2.1,6.569-3.081,9.8a48.113,48.113,0,0,1-1.9,5.7,43.578,43.578,0,0,0-2.151,4.611,32.308,32.308,0,0,1-3.982,7.914c-.966,1.543-1.5,3.36-2.48,4.943-1.009,1.645-1.626,3.453-2.573,5.086-1.612,2.775-3.467,5.177-4.914,7.966a15.189,15.189,0,0,1,1.524,2.954,21.861,21.861,0,0,1,1.371,6.188c.386-.82.782-1.633,1.166-2.427m33.127,6.567c.866-.577,3.713-2.144,3.107-3.469-.343-.753-4.564-1.428-5.451-1.812-2.444-1.047-5.069-2.363-7.714-1.1-1.755.839-3.007,2.594-4.237,4.034-6.061,7.089-15.151,9.976-23.587,13.114a80.111,80.111,0,0,0-12.945,5.961,29.452,29.452,0,0,1-6.412,2.816c1.173-.026,2.33-.086,3.522-.229a28.555,28.555,0,0,0,5.234-1.292,14.1,14.1,0,0,0,4.938-2.284c1.216-.975,2.816-1.073,4.037-2.094,1.049-.877,2.477-1.085,3.739-1.547,4.094-1.49,8.226-2.88,12.313-4.387.136-.05.186.165.055.215-3.92,1.493-7.795,3.107-11.71,4.611-.866.334-1.733.627-2.609.923a5.816,5.816,0,0,0-1.86,1.254,5.861,5.861,0,0,1-1.648.787,9.423,9.423,0,0,0-2.535,1.483,12.123,12.123,0,0,1-3.7,1.574c-.21.067-.415.136-.625.2a22.19,22.19,0,0,0,3.4-.894c1.457-.541,2.9-1.09,4.383-1.571A21.7,21.7,0,0,0,139,223.444a25.763,25.763,0,0,1,4.111-1.569c1.664-.6,3.324-1.214,4.981-1.826.193-.072.267.238.079.31q-2.475.941-4.936,1.91a22.684,22.684,0,0,0-4.321,1.877c-2.47,1.626-5.2,2.42-7.947,3.5a20.407,20.407,0,0,1-4.132,1.149,28.57,28.57,0,0,0-4.337,1.447,10.737,10.737,0,0,1-1.879.458,24.14,24.14,0,0,0,2.79,1.02,18.835,18.835,0,0,0,2.127.455c.744-.317,1.471-.663,2.17-.975,2.606-1.168,5.332-2.079,8.009-3.076,1.371-.508,2.747-1,4.118-1.514a35.876,35.876,0,0,1,4.34-1.063c1.314-.315,2.687-.432,3.982-.8,1.447-.41,2.6-1.407,3.994-1.939.124-.045.2.16.083.217a36.805,36.805,0,0,1-3.684,2.151c-1.264.467-2.68.527-3.982.88a43.892,43.892,0,0,0-4.578,1.185c-1.543.591-3.09,1.166-4.635,1.75-2.816,1.063-5.611,2.129-8.365,3.341a18.818,18.818,0,0,0,5.189-.374,39.327,39.327,0,0,1,8.36-.725,12.133,12.133,0,0,0,3.088-.448c1.922-.885,3.45-2.234,5.353-3.209a64.791,64.791,0,0,1,7-2.625c.205-.076.284.25.083.324-2.9,1.1-5.985,2.01-8.515,3.834-.422.308-.844.579-1.266.839.866-.293,1.738-.584,2.647-.8a50.456,50.456,0,0,1,8.312-1.059,24.725,24.725,0,0,1,4.154.045,13.518,13.518,0,0,0,1.464-2.981,27.742,27.742,0,0,1,.77-2.914,38.017,38.017,0,0,1,3.3-6.138c2.072-3.138,5.246-4.857,8.279-6.893m-57.453,20.425c.3.086.6.181.892.286a9.39,9.39,0,0,0,2.787-.134,17.681,17.681,0,0,0,2.2-.78c-.4.093-.8.176-1.214.238a29.586,29.586,0,0,1-4.3.393c-.119,0-.241,0-.36,0m4.025,3.543v0h.01l-.01,0m96.368,62.212c1.078-5.634-1.614-12.022-2.978-17.432-1.431-5.675-4.223-11.2-6.266-16.686-1.166-3.135-2.036-5.611-5.343-6.965a62.1,62.1,0,0,1-6.769-3.2c-4.464-2.465-9.9-3.522-13.877-6.872-4.5-3.794-8.944-8.25-14-11.295a18.151,18.151,0,0,0-6.366-2.363,1.109,1.109,0,0,1-1.35-.184,38.073,38.073,0,0,0-9.4.453c-2.9.42-5.513,1.6-8.4,2.055a36.951,36.951,0,0,1-5.224.267,17.3,17.3,0,0,1-2.337.448,8.274,8.274,0,0,1-2.463.041,23.128,23.128,0,0,1-6.953.548,21.649,21.649,0,0,1-2.942-.541,7.319,7.319,0,0,1-2.957.21c-.382-.06-.336-.665.014-.737.238-.05.479-.1.72-.138-.866-.3-1.719-.627-2.556-.982-3.474-1.481-6.948-.637-10.575-1.34-2.754-.536-5.034-2.413-7.258-4A19.065,19.065,0,0,1,98,224.068c.215.351.424.706.606,1.078.646,1.34.906,2.74,1.941,3.894,2.055,2.291,4.781,3.9,7.086,5.9a18.6,18.6,0,0,1,3.228,3.56c.513.527,1.035,1.047,1.562,1.552a.851.851,0,0,1,.732.627l.01.062c.1.088.191.181.289.267,2.141,1.939,4.972,1.6,7.578,2.244,1.691.42,3.381.634,5.064,1.075a8.975,8.975,0,0,0,2.768.16c-.329-.176-.644-.35-.935-.508a15.992,15.992,0,0,0-3-1.438,25.109,25.109,0,0,1-3.355-1.5c-2.864-1.314-5.93-2.084-8.744-3.531-1.516-.782-3.047-1.64-4.5-2.535-1.271-.782-2.268-1.915-3.593-2.62-.186-.1-.045-.377.148-.327a8.821,8.821,0,0,1,3.033,1.924,36.635,36.635,0,0,0,3.858,2.265,42.856,42.856,0,0,0,4.294,2.105c1.435.629,2.952,1.009,4.383,1.645,1.116.5,2.163,1.09,3.238,1.652.959.5,2.039.668,3,1.195.8.436,1.753,1.111,2.752,1.645a7.265,7.265,0,0,1,3.128.334,20.243,20.243,0,0,1,7.137,5.115.2.2,0,0,1,.207-.207c1.512,0,3.159,1.245,4.4,1.993,2.156,1.295,4.342,2.539,6.469,3.877a91.816,91.816,0,0,1,11.393,9.044,27.919,27.919,0,0,1,2.28,2.227,12.1,12.1,0,0,0,3.157,2.442,9.361,9.361,0,0,1,2.191,1.969c.677.708,1.557,1.19,2.179,1.955.732.9,1.071,1.884,2.117,2.489a5.2,5.2,0,0,1,1.843,1.588,55.027,55.027,0,0,0,4.74,5.5,36.809,36.809,0,0,0,2.594,2.883,18.017,18.017,0,0,1,2.3,1.8,29.617,29.617,0,0,0,1.989,2.687,14.287,14.287,0,0,1,1.292,1.168c.463.553.653,1.316,1.574,1.264.141-.007.131.2,0,.217a1.274,1.274,0,0,1-1.266-.556c-.646-.72-1.354-1.3-2.058-1.972a25.991,25.991,0,0,1-1.745-2.33,16.557,16.557,0,0,0-2.382-1.86,16.913,16.913,0,0,1-1.848-2.005c-.825-.937-1.731-1.8-2.606-2.682a25.575,25.575,0,0,1-2.167-2.435,8.651,8.651,0,0,0-2.558-2.7,3.638,3.638,0,0,1-1.4-1.185,12.313,12.313,0,0,0-2.4-2.723,22.855,22.855,0,0,0-2.53-2.368,14.857,14.857,0,0,1-2.542-1.664c-.8-.746-1.471-1.629-2.28-2.38-.959-.892-1.967-1.736-2.947-2.609-1.948-1.724-3.906-3.45-6.016-4.981a80.672,80.672,0,0,0-6.872-4.359c-1.185-.687-2.325-1.445-3.505-2.139-1-.587-2.246-1.6-3.407-1.731l-.019-.007a18.451,18.451,0,0,1,1.5,1.936,60.891,60.891,0,0,0,4.988,6.7c.782.484,1.574.939,2.358,1.352a13.852,13.852,0,0,1,2.761,1.645,23.912,23.912,0,0,0,3.722,2.921c.124.069.007.253-.117.188a16.989,16.989,0,0,1-3.183-2.287,19.23,19.23,0,0,0-3.794-2.334c-.274-.148-.541-.308-.808-.472a26.015,26.015,0,0,0,3.941,3.383,18.387,18.387,0,0,0,5.725,3.107,11.14,11.14,0,0,1,4.065,1.509,6.259,6.259,0,0,1,2.175,3.753,47.952,47.952,0,0,1,1.268,5.46,4.18,4.18,0,0,1,.67.947.223.223,0,0,1-.083.284c.448.641.937,1.261,1.4,1.9.753,1.049,1.156,2.284,1.912,3.326a22.464,22.464,0,0,1,1.769,3.019c.639,1.233,1.657,2.186,2.406,3.343.768,1.192,1.264,2.532,2.032,3.724.746,1.159,1.683,2.186,2.382,3.379.653,1.114.808,2.434,1.464,3.534.575.961,1.5,1.638,2.077,2.611.072.124-.124.229-.2.107-.57-.92-1.471-1.538-2.082-2.42-.711-1.03-.889-2.334-1.516-3.41-.7-1.2-1.645-2.215-2.423-3.36-.844-1.24-1.383-2.654-2.213-3.9-.722-1.087-1.7-1.979-2.339-3.124a35.008,35.008,0,0,0-1.91-3.162c-.839-1.2-1.321-2.558-2.21-3.739-.374-.5-.753-.987-1.109-1.493a6.542,6.542,0,0,1-1.238,3.128c-.069.1-.131.2-.2.3.267.5.587.973.837,1.359.7,1.08,1.493,2.105,2.11,3.233a18.707,18.707,0,0,1,1.13,3.076c.467,1.383,1.416,2.458,2.005,3.777a20.115,20.115,0,0,0,1.316,3.338c.288.424.722.73.98,1.171.355.613.377,1.366.782,1.97a8.146,8.146,0,0,1,1.347,2.144,7.047,7.047,0,0,0,3.05,3.6c.143.086.01.3-.136.219a8.132,8.132,0,0,1-2.58-2.456,4.762,4.762,0,0,1-.577-1.109,7.006,7.006,0,0,0-1.371-2.146,3.728,3.728,0,0,1-.6-1.247,8.18,8.18,0,0,0-1.283-1.884c-.787-1.118-.92-2.6-1.557-3.8a24.812,24.812,0,0,1-1.877-3.455,17.336,17.336,0,0,0-1.872-4.163c-.539-.8-1.457-1.874-2.1-3.009l-.026.045a.229.229,0,0,1-.083.143,16.272,16.272,0,0,0-1.142,2.372,21.266,21.266,0,0,0,.162,2.942,39.38,39.38,0,0,0,1.123,7.332c.372,1.3.835,2.587,1.24,3.882a19.466,19.466,0,0,0,.823,2.284,12.558,12.558,0,0,0,1.369,2.029c.651.937.787,2.084,1.509,2.992.618.777,1.712.742,2.132,1.657.069.153-.157.279-.229.126-.3-.622-1.209-.689-1.7-1.109a4.958,4.958,0,0,1-.894-1.116c-.372-.61-.451-1.342-.811-1.95-.4-.677-1.03-1.166-1.419-1.872a26.114,26.114,0,0,1-1.662-4.442,34.918,34.918,0,0,1-1.4-4.907,50.312,50.312,0,0,1-.88-5.93c-.086.3-.169.61-.248.928a13.947,13.947,0,0,0-.21,3.052c.088,1.249.172,2.5.3,3.753a40.674,40.674,0,0,0,.556,4.633,55.866,55.866,0,0,0,5.513,12,19.4,19.4,0,0,0,6.915,5.68c.057.029,0,.112-.055.086-5.544-2.485-8.86-7.244-11.03-12.745-.582-1.474-1.314-2.919-1.776-4.435a29.266,29.266,0,0,1-.68-4.416c-.1-.734-.155-1.471-.188-2.206a21.025,21.025,0,0,0-1.152,7.179c.3,6.006,4.087,11.538,8.071,15.756a25.763,25.763,0,0,0,7.146,5.62c1.946.97,4.461,2.969,6.731,2.721.124-.014.15.2.026.217-2.69.4-6.486-2.086-8.7-3.355-3.8-2.172-7.034-5.858-9.576-9.364a24.087,24.087,0,0,1-4.492-11.607,22.229,22.229,0,0,1,.486-6.1,15.332,15.332,0,0,0,.808-3.882,10.71,10.71,0,0,1-.124-1.841,22.345,22.345,0,0,1,1.4-5.184,14.368,14.368,0,0,1,1.536-2.454,2.7,2.7,0,0,1,.026-1.562.308.308,0,0,1,.51-.124c.074.064.15.124.224.186a7.4,7.4,0,0,0-.243-4.39c-.756-2.8-.691-5.766-3.841-7.024-1.788-.711-3.608-.83-5.284-1.874a41.187,41.187,0,0,1-9.96-8.973,16.523,16.523,0,0,1-2.291-1.767c-.231-.215.119-.534.353-.331.3.253.606.508.92.758-.753-1.1-1.4-2.265-2.144-3.372a18.651,18.651,0,0,0-6.912-5.951,7.727,7.727,0,0,0-4.64-.806,9.522,9.522,0,0,1-3.009-.4,60.267,60.267,0,0,0-7.1-1.609c-1.891-.286-3.744-.5-5.31-1.7-.036-.026-.069-.062-.1-.093a13.252,13.252,0,0,1-.737,3.138,9.326,9.326,0,0,1,.944,2.561c.1.536.01.959.153,1.507,2.873,3.276,6.731,5.811,9.43,9.161,3.651,4.533,8.04,8.267,11.743,12.726a101.568,101.568,0,0,1,9.385,13.768c3,5.11,6.359,10.174,9.027,15.456a61.192,61.192,0,0,1,2.637,6.285c1.042,2.8,3.3,5.072,4.871,7.618,1.786,2.89,4.2,4.156,7.015,5.837,2.6,1.55,5.119,3.145,7.83,4.5,1.681.844,3.763,2.172,5.77,2.973a.574.574,0,0,1,.436.169,8.775,8.775,0,0,0,1.95.486c1.786.2,3.889-1.354,5.8-1.664,1.514-.25,2.387-.157,2.888-2.16a18.506,18.506,0,0,0,.081-3.66,15.169,15.169,0,0,1,1.021-6.354c2.148-4.621,8.25-5.26,12.294-7.561,4.788-2.723,11.231-5.515,12.37-11.476m-55.562-15.224-.021-.017,0,.074.026-.057" transform="translate(0 0)" fill="#424b60"/>
    </g>
  </g>
</svg>
