<svg xmlns="http://www.w3.org/2000/svg" xmlns:xlink="http://www.w3.org/1999/xlink" width="318.567" height="343.708" viewBox="0 0 318.567 343.708">
  <defs>
    <clipPath id="clip-path">
      <rect id="Rectangle_3343" data-name="Rectangle 3343" width="301.341" height="270.347" fill="none"/>
    </clipPath>
  </defs>
  <g id="Group_6700" data-name="Group 6700" transform="matrix(-0.174, -0.985, 0.985, -0.174, 52.327, 343.708)">
    <g id="Group_6699" data-name="Group 6699" clip-path="url(#clip-path)">
      <path id="Path_65615" data-name="Path 65615" d="M221.685,236.679a4.684,4.684,0,0,0,1.572-3.021,6,6,0,0,1,2.853-3.419c1.427-.96,2.743-1.92,4.26-2.758a10,10,0,0,0,5.151-6.447,12.67,12.67,0,0,0-.5-8.538c-.8-1.617-1.48-3.539-.888-5.353.239-.729.747-1.349,1.037-2.058.328-.8.436-1.662.685-2.484.53-1.757,1.149-4.337.384-6.22a14.532,14.532,0,0,0,6.977-1.391,3.586,3.586,0,0,0,1.824-1.658,4.363,4.363,0,0,0,.142-1.287c.074-.763-.252-.216.333-1.2.468-.785.79-.867,1.559-1.267,1.888-.979,3.733-2.658,3.109-5.03a5.116,5.116,0,0,0-1.822-2.741c-1.179-.852-2.56-.213-3.639-1.116-.734-.614-1.248-1.283-2.338-.965-.35.1-.936.643-1.342.767,0-.137-.017-.273-.024-.478-.037-1.095-.886.571-.378-1.681.04-.179.281-.344.334-.517a2.771,2.771,0,0,0-.363-2.632c-.673-1.13-.929-2.4-1.556-3.538a35.559,35.559,0,0,0-2.4-3.865,16.171,16.171,0,0,0-1.451-1.663c-.593-.614-.977-1.32-1.5-1.967-1.037-1.291-2.49-2.254-3.44-3.627-.844-1.221-1.316-2.667-2.158-3.9-.94-1.373-2.147-2.526-3.007-3.959a28.789,28.789,0,0,0-5.513-6.519c-.22-2.559-.228-5.15-.409-7.71a8.7,8.7,0,0,0-1.307-3.618,18.647,18.647,0,0,0-2.491-3.88c-1.315-1.458-2.739-2.568-2.866-4.679a4.187,4.187,0,0,0-1.024-2.95c-.4-.477-.809-.994-1.229-1.517.181-.037.364-.082.547-.129a.068.068,0,0,0,.084.013l.118-.065c.083-.022.167-.045.251-.066a38.22,38.22,0,0,1,4.7-.956,55.691,55.691,0,0,0,5.812-1.023c-.153.127-.307.255-.471.378a.094.094,0,0,0,.091.163,4.222,4.222,0,0,0,1.02-.7c.516-.129,1.032-.265,1.552-.416a37.6,37.6,0,0,0,7.91-3.618q4.214-2.4,8.422-4.815c5.522-3.16,10.889-6.776,16.8-9.149a79.381,79.381,0,0,1,7.858-2.671.057.057,0,0,0,.064.021c.1-.038.2-.083.292-.125q4.417-1.233,8.95-2.014c1.3-.228,2.61-.173,3.9-.468a30.973,30.973,0,0,1,5.036-.336c2.828-.185,5.675-.953,8.511-.964,1.352-.006,10.73-.568,9.514-3.578-.624-1.545-3.119-1.935-4.516-2.2-2.6-.5-5.308-1.426-7.97-1.28a21.7,21.7,0,0,0-3.678.39c-1.425.329-2.845.393-4.282.639-2.96.507-5.864,1.047-8.751-.105a8.324,8.324,0,0,0-3.641-.774c-.242.011-.476.013-.713.017a5.743,5.743,0,0,0,1.881-1.5c.511-.625,1.811-1.861,1.555-2.779-.265-.952-2.037-.941-2.781-1.041a38.941,38.941,0,0,0-5.647-.293,12.207,12.207,0,0,1-5.239-.571,4.234,4.234,0,0,1-2.282-2.076,7.914,7.914,0,0,0-.987-1.562,6.32,6.32,0,0,0-3.859-1.634,11.316,11.316,0,0,0-3.516-.246,3.837,3.837,0,0,0-.568-2.1A10.474,10.474,0,0,0,241.6,70.18a43.1,43.1,0,0,0-5.929-2.5c-1.111-.342-2.254-.271-3.382-.5a2.942,2.942,0,0,1-2.331-1.675c-.362-.971.105-1.609.657-2.365.675-.924,1.048-1.982.481-2.772a.15.15,0,0,0-.01-.084c-.66-1.647-2.859-1.165-4.333-1.142-.344,0-.677.025-1,.058a42.263,42.263,0,0,0,2.2-3.63c.717-1.52,2.106-2.478,1.587-4.347-.285-1.027-.956-1.676-2.038-1.451a8.456,8.456,0,0,1-2.71.342c-.974-.08-1.948-.117-2.925-.117-4.215,0-7.463,2.123-10.7,4.616-1.733,1.333-3.576,2.516-5.3,3.85a9.806,9.806,0,0,0-2.033,2.239,1.021,1.021,0,0,0-.947-.16c-.535.134-1.051.643-1.659.523-.326-.065-.529-.336-.894-.37a2.821,2.821,0,0,0-1.669.587,7.431,7.431,0,0,0-3.08,3.935,7.619,7.619,0,0,1-.476,1.717,2.723,2.723,0,0,1-1,.918,4.078,4.078,0,0,0-.325-2.106,4.269,4.269,0,0,1-.585-1.687c-.008-.355.094-.718.106-1.075a5.164,5.164,0,0,0-.106-1.273c.028-.081.053-.161.083-.242,1.242-3.3,6.261-3.3,8.858-5.177,5.311-3.844,7.558-10.578,13.483-13.781,1.322-.715,4.15-1.452,4.2-3.34.041-1.488-1.747-2.717-3.084-2.823-1.518-.12-2.815.691-4.279-.17a7.229,7.229,0,0,0-3.37-.85,9.868,9.868,0,0,0-3.651.3,6.486,6.486,0,0,0-1.569.675,7.444,7.444,0,0,1-2.649.914,13.022,13.022,0,0,1-4.763.11l-.311-.055V37.26a17.106,17.106,0,0,1,.228-2.212c-.018-.72-.077-1.35-.029-2.068a28.723,28.723,0,0,0-.151-5.007,9.94,9.94,0,0,0-1.546-3.954,43.3,43.3,0,0,0-2.675-4.381,13.11,13.11,0,0,1-2.76-5.32,20.73,20.73,0,0,0-1.1-4.975c-.412-.943-.964-1.748-1.332-2.718a19.337,19.337,0,0,0-.975-2.179A27.315,27.315,0,0,0,182.872.168a.539.539,0,0,0-.53-.147A3.933,3.933,0,0,0,180.2,1.4c-.526.9-.193,2.284-.44,3.279A29.481,29.481,0,0,1,178,9.061c-.5,1.176-.842,2.407-1.245,3.619a9.056,9.056,0,0,1-1.988,3.75c-1.278,1.24-3.129,1.667-4.489,2.792a24.2,24.2,0,0,1-2.145,1.506,3.213,3.213,0,0,0-.779.722,5.159,5.159,0,0,0-.82,3.182c.022,2.6,1.516,6.183.29,8.645-.6,1.214-2.289,1.539-3.233,2.368-1.074.94-1.419,2.595-2.366,3.705A30.49,30.49,0,0,1,157.7,42.4a14.181,14.181,0,0,0-2.884,3.66,13.322,13.322,0,0,0-1.64,3.6,7.936,7.936,0,0,0-.416,2.978,31.759,31.759,0,0,0,1.27,4.665c.556,1.652,1.2,3.331,1.871,4.938.336.812.847,1.511,1.165,2.344.29.758.527,1.534.822,2.29a29.423,29.423,0,0,1,.847,3.213,12.967,12.967,0,0,0-2.57-1.343c-1.137-.354-2.421-.559-3.59-.826a13.266,13.266,0,0,1-3.8-1.128,12.369,12.369,0,0,1-3.39-2.69A24.017,24.017,0,0,0,143.1,61.1c-.841-.719-1.774-1.5-2.673-2.145-1.25-.892-2.449.2-3.454,1.058-1.3,1.117-3.272,2.3-3.978,3.926-.555,1.28-.09,2.649-.153,3.848-1.18-.383-2.166-1.1-3.3-1.59a11.3,11.3,0,0,0-3.19-.8,24.494,24.494,0,0,0-2.927-.51,17.859,17.859,0,0,0-3.918.4,27.3,27.3,0,0,0-3.652,1.444c-1.333.516-2.582,1.177-3.952,1.615a16,16,0,0,1-8.619.476,22.985,22.985,0,0,0-7.441-.764,7.871,7.871,0,0,0-5.633,2.518c-2.28,2.3-5.322,2.24-8.274,2.986-2.85.721-5.595,1.567-8.5,2.112-2.744.514-5.542.954-8.239,1.681A11.976,11.976,0,0,0,62.017,78.7,21.126,21.126,0,0,0,58.9,80.526c-.972.864-1.851,3.218-1.032,4.375,1.1,1.546,3.4.9,4.945.738a15.121,15.121,0,0,1,4.383.417,22.2,22.2,0,0,1,3.929.9,5.871,5.871,0,0,1,1.985,1.316,2.433,2.433,0,0,0,.494.4c.452.229,1.08.215,1.57.465A13.274,13.274,0,0,1,77.3,90.616a13.45,13.45,0,0,1,2.289,2.057c1.042,1.312.045,2.048-.114,3.34a3.64,3.64,0,0,0,.613,2.406c.56.768,1.6.783,2.425,1.094,2.532.952,5.268.418,7.893.757a18.015,18.015,0,0,1,4.3,1.065,25.843,25.843,0,0,0,3.415,1.5,8.147,8.147,0,0,1,3.936,2.257,20.6,20.6,0,0,0,3.193,2.586,33.672,33.672,0,0,0,8.274,3.675.621.621,0,0,0,.309.016c0,.888.26.924-.326,1.664-.2.254-.374.5-.591.761a10.4,10.4,0,0,1-1.627,1.419,7.746,7.746,0,0,0-2.273,3.051A3.048,3.048,0,0,0,109.1,121c.646,1.329,1.505,1.578,2.8,2.031a14.273,14.273,0,0,0,4.234.983c.859.032,1.693-.173,2.552-.1.967.087,1.988.276,2.951.424a10.692,10.692,0,0,1,3.575,1.331c-.035.118-.068.236-.1.357a.05.05,0,0,0,.1.027c.039-.107.083-.212.125-.316.345.187.695.38,1.062.576a5.51,5.51,0,0,0,3.449.692c1.45-.181,3.089-.948,4.546-.454,1.441.489,2.225,2.171,3.745,2.646a8.924,8.924,0,0,0,3.822-.134,4.962,4.962,0,0,0,1.095-.361,10.323,10.323,0,0,1-.145,3.259,4.708,4.708,0,0,0-.2,2.056,5.115,5.115,0,0,0-1.263,1.967c-.611,1.532-1.185,3.019-1.883,4.52a32.31,32.31,0,0,0-1.252,3.587,43.546,43.546,0,0,1-1.891,3.982c-2.245,5.072-2.331,11.354-1.569,16.764.2,1.4.428,2.8.622,4.2a8.679,8.679,0,0,1-1.278,2.725c-.823,1.267-1.861,2.41-2.726,3.651-1.936,2.778-3.485,5.8-5.392,8.594-1.957,2.867-4.135,5.574-6.352,8.243a52.659,52.659,0,0,1-6.982,7.621c-1.315,1.067-2.535,2.263-3.9,3.272-1.5,1.114-3.146,2.063-4.674,3.156-1.233.883-2.563,1.59-3.828,2.419-1.438.942-2.778,2.023-4.206,2.978a55.339,55.339,0,0,1-8.705,4.72c-1.545.661-3.054,1.311-4.558,2.061-1.8.894-3.745,1.4-5.6,2.151-1.5.606-3,1.207-4.494,1.8a27.248,27.248,0,0,0,2-2.284,10.325,10.325,0,0,0,2.4-5.156.74.74,0,0,0-.918-.725,6.713,6.713,0,0,0-.628.264.431.431,0,0,0-.629-.383,21.2,21.2,0,0,0-3.7,1.994,31.582,31.582,0,0,1-4.03,2.635c-2.97,1.639-5.968,3.815-9.258,4.714a71.732,71.732,0,0,1-9.705,2.342c-1.456.184-2.885.024-4.348.276a22.576,22.576,0,0,1-5.028,0,13.426,13.426,0,0,0-3.76.407,30.381,30.381,0,0,0-4.827,1.173c-3.076,1.264-5.946,3.265-8.813,4.938-2.571,1.5-5.648,2.7-7.784,4.822-1.973,1.965-3.878,3.681-5.241,6.125-.823,1.473-2,2.659-2.724,4.2a43.855,43.855,0,0,0-1.745,4.21c-.573,1.654-1.24,3.317-1.716,5-.464,1.639-.363,3.37-.779,5.016a.294.294,0,0,0,.017.2A35.291,35.291,0,0,0,0,270.019c-.021.44.628.432.675.007.37-3.334,1.685-6.426,2.57-9.637.395-1.432.727-2.881,1.246-4.276A11.213,11.213,0,0,1,7.72,251.6c2.412-2.217,4.094-5.149,6.7-7.183a39.114,39.114,0,0,1,3.081-2.417c1.4-.869,2.652-1.852,4.023-2.758a19.608,19.608,0,0,1,4.849-2.6c1.275-.373,2.485-1.075,3.769-1.371a36.157,36.157,0,0,1,5.351-.507c1.79-.133,3.581-.244,5.373-.354,3.665-.223,7.334-.475,11-.641a50.938,50.938,0,0,0,9.613-1.553c6.867-1.628,13.718-3.307,20.495-5.284a65.386,65.386,0,0,0,9.043-3.91c1.591-.736,3.262-1.272,4.847-2.017,1.618-.757,3.109-1.767,4.782-2.408a29.811,29.811,0,0,0,8.039-4.568c1.152-.911,2.5-1.527,3.659-2.436,1.381-1.08,2.944-1.853,4.293-2.964,2.706-2.228,5.613-4.216,8.263-6.51,2.668-2.31,5.138-4.85,7.755-7.218,2.785-2.519,5.724-4.8,8.157-7.683,1.341-1.59,2.7-3.162,4.045-4.75.671-.8,1.36-1.586,2-2.412.554-.72.946-1.57,1.535-2.261,1.18-1.388,2.558-2.605,3.7-4.042a19.545,19.545,0,0,1,2.978-3.154,18.764,18.764,0,0,1,9.422-4.12l.019-.005c.307,0,.615.013.929.025a.543.543,0,0,0,.388-.918c-1.882-1.566-4.068-1.511-6.38-1.593a9.608,9.608,0,0,0-1.242.025.359.359,0,0,0,.01-.076c0-.024,0-.05,0-.074.5-.818.956-1.677,1.392-2.475.277-.508.361-1.076.6-1.592.432-.921,1.377-1.291,2.063-1.985,2.22-2.246,3.224-5.7,5.664-7.724a11.381,11.381,0,0,1,1.135,4.017c.041,1.363-.254,2.686-.123,4.06a17.8,17.8,0,0,1,.03,4.315,9.373,9.373,0,0,0,.133,3.285,30.49,30.49,0,0,0,1.1,3.952,26.8,26.8,0,0,1,1.45,4.2,27.51,27.51,0,0,0,.54,3.853,8.131,8.131,0,0,0,1.782,2.934,25.977,25.977,0,0,1,2.889,3.07,36.927,36.927,0,0,0,2.2,3.258c1.941,2.4,2.72,5.531,3.679,8.4a9.566,9.566,0,0,1,.283,4.306c-.145,1.634-.2,3.273-.365,4.9-.3,2.857-.629,5.472,1.424,7.773a.659.659,0,0,0,.774.105c1.977-.909,2.744-2.81,3.537-4.67a9.13,9.13,0,0,0,1.048-2.659,11.114,11.114,0,0,1,.146-1.756,5,5,0,0,1,1.216-1.812,11.478,11.478,0,0,0,1.87-2.595,17.3,17.3,0,0,0,.9-3.432,21.8,21.8,0,0,0,.53-3.348c.024-.438.025-.952.058-1.471.935,2.4,2.694,4.568,3.805,6.851a29.16,29.16,0,0,1,2.436,9.963c.238,2.842.279,5.466,1.409,8.144,1.227,2.91,3.249,4.608,5.412,6.789,1.063,1.074,2.054,2.213,3.026,3.367,1.043,1.238,2.618,2.6,3.2,4.127.261.69.261,1.441.479,2.149.236.763.583,1.484.83,2.244.437,1.344.56,2.733.971,4.072.545,1.785,1.848,2.161,3.226.715a25.087,25.087,0,0,1,2.72-2.528M210.948,124.619c.645,1.171.188,2.632.794,3.9a15.742,15.742,0,0,0,2.746,3.322,22.1,22.1,0,0,1,2.561,4.1,10.727,10.727,0,0,1,1.079,4.34c.191,1.636.314,3.276.438,4.918l0,.051c-2.5-2.154-5.466-3.893-7.71-6.319-.954-1.032-1.383-2.372-2.3-3.429a44.681,44.681,0,0,1-3.013-4.129,24.723,24.723,0,0,0-2.9-3.023c-1.208-1.245-2.647-2.232-3.876-3.456a35.956,35.956,0,0,0-4.01-3.207,34.667,34.667,0,0,0-3.593-2.5c-1.27-.727-2.382-1.7-3.6-2.5.787.126,1.58.179,2.4.321,2.526.437,4.987,1.186,7.505,1.663,1.17.222,2.332.414,3.5.6a7.77,7.77,0,0,0,2.631.236,7.393,7.393,0,0,0,2.058-.717c.984.891,2,1.781,2.92,2.743a.271.271,0,0,0,.2.276c.024.006.049.008.072.014a14.215,14.215,0,0,1,2.081,2.8M267.59,89.056a8.317,8.317,0,0,1,3.971.614,10.77,10.77,0,0,0,2.857.749c2.51.292,4.874-.355,7.338-.674,2.522-.325,4.955-1.027,7.507-1.128a16.282,16.282,0,0,1,3.784.548c1.546.3,3.128.529,4.66.9a8.408,8.408,0,0,1,1.241.4,2.815,2.815,0,0,1,.677.313,1.708,1.708,0,0,1,.374,1.7c-.315.472-2.159.823-2.736.956a39.137,39.137,0,0,1-4.022.681c-1.214.147-2.39.024-3.606.234-1.318.228-2.656.144-3.977.335a32.685,32.685,0,0,1-4.686.386,17.324,17.324,0,0,0-3.244.372c-1.306.242-2.634.192-3.945.439-1.879.354-3.745.758-5.611,1.155.3-.19.607-.377.909-.551a.081.081,0,0,0-.08-.14c-.529.295-1.091.574-1.65.861q-.565.119-1.129.237a68.627,68.627,0,0,0-7.738,2.514c-1.179.391-2.327.845-3.454,1.339a5.286,5.286,0,0,1,.695-.638c.472-.341.956-.66,1.416-1.015a36.04,36.04,0,0,1,4.023-2.587.049.049,0,0,0-.049-.086,33.247,33.247,0,0,0-3.861,2.325c-.54.4-1.089.777-1.646,1.155a10.754,10.754,0,0,0-1.222,1.132c-2.113.96-4.153,2.062-6.179,3.2.35-.347.686-.709,1.013-1.068a35.718,35.718,0,0,1,3.1-2.893c1.136-.98,2.3-1.92,3.435-2.906a23.856,23.856,0,0,1,3.908-2.652.073.073,0,0,0-.072-.127,28.788,28.788,0,0,0-3.517,2.246c-1.189.918-2.35,1.916-3.5,2.884a37.455,37.455,0,0,0-3.167,2.831,25.952,25.952,0,0,1-2.624,2.49c-1.126.641-2.249,1.287-3.382,1.918q-1.607.894-3.209,1.8c1.392-1.322,2.635-2.826,4.022-4.139a63.64,63.64,0,0,1,6.52-5.429c.977-.7,1.933-1.412,2.861-2.177a22.912,22.912,0,0,1,3.525-2.075.064.064,0,0,0-.064-.111,25.254,25.254,0,0,0-3.371,1.887c-1.171.9-2.35,1.766-3.543,2.633a64.558,64.558,0,0,0-6.343,5.288c-1.693,1.6-3.171,3.4-4.954,4.878l-4.084,2.293c-1.437.805-2.879,1.6-4.312,2.413-1.28.725-2.623,1.235-3.932,1.886.167-.121.333-.241.5-.366a37.663,37.663,0,0,1,3.51-2.487c1.072-.636,2.239-1.114,3.268-1.824.5-.347.932-.786,1.458-1.1a13.986,13.986,0,0,0,1.444-.876,15.46,15.46,0,0,0,2.354-2.669,15.158,15.158,0,0,1,2.855-2.7c.517-.384,1.015-.791,1.544-1.156.467-.324.9-.735,1.38-1.028.068-.041.008-.149-.06-.107-.99.592-1.889,1.386-2.818,2.075a17,17,0,0,0-2.585,2.25c-.8.888-1.45,1.908-2.318,2.737a9.219,9.219,0,0,1-1.922,1.249c-.536.308-.961.732-1.469,1.082-.987.68-2.1,1.137-3.14,1.733a29.432,29.432,0,0,0-3.092,2.141c-.818.624-1.7,1.169-2.525,1.777a33.124,33.124,0,0,1-7.568,1.825c-.512.073-1.016.161-1.517.258a12.5,12.5,0,0,1,1.51-.6c1.162-.357,2.251-.892,3.4-1.287,1.07-.368,2.167-.661,3.215-1.09a21.813,21.813,0,0,0,2.968-1.542,11.421,11.421,0,0,0,2.265-2.168,27.022,27.022,0,0,0,1.88-2.546,19.2,19.2,0,0,1,2.444-2.471c2.2-2.03,4.968-3.25,7.495-4.815a.077.077,0,0,0-.075-.134,40.228,40.228,0,0,0-6.447,3.683,19.836,19.836,0,0,0-4.488,4.752,18.085,18.085,0,0,1-2.257,2.675,12.439,12.439,0,0,1-3.035,1.864,23.008,23.008,0,0,1-3.627,1.366c-1.162.388-2.256.941-3.416,1.329-1.124.377-2.2.833-3.281,1.3-.394.1-.785.2-1.178.31a31.782,31.782,0,0,1-3.408,1.12,18.692,18.692,0,0,0-1.633-1.766c.685-.319,1.273-.841,2-1.112,1.111-.412,2.256-.823,3.38-1.2a23.726,23.726,0,0,0,6.415-3.16c.858-.62,1.67-1.313,2.534-1.921a1.946,1.946,0,0,0,.747-.748,4.374,4.374,0,0,1,1.053-1.46c.386-.347.694-.753,1.064-1.11a6.075,6.075,0,0,1,1.881-1.095,7.429,7.429,0,0,0,1.144-.494c.5-.287,1.072-.337,1.559-.632a.052.052,0,0,0-.051-.09c-.455.272-.98.28-1.444.546a10.4,10.4,0,0,1-1.482.615,6.187,6.187,0,0,0-2.281,1.584c-.374.387-.834.686-1.185,1.1a8.764,8.764,0,0,0-.58,1.1,7.437,7.437,0,0,1-1.549,1.223,12.866,12.866,0,0,0-1.15.772,23.526,23.526,0,0,1-6.628,3.385c-1.1.337-2.16.8-3.259,1.153-.893.283-1.611.941-2.459,1.292a8.452,8.452,0,0,0-1.255-.913,36.976,36.976,0,0,1,3.247-1.905c1.8-.827,3.743-.71,5.406-1.839a29.017,29.017,0,0,0,5.554-5.442,12.69,12.69,0,0,1,3.511-3.269c.626-.364,1.593-1.187,2.49-1.623.049,0,.1,0,.149,0a27.236,27.236,0,0,0,5.859-.169c2.856-.544,4.487-2.993,5.606-5.557a10.673,10.673,0,0,0,1.828-.71c1.4-.743,2.778-1.542,4.149-2.34a57.615,57.615,0,0,1,7.953-3.825c2.536-1,5.126-2.421,7.851-2.823a19.9,19.9,0,0,1,3.893.162,29.324,29.324,0,0,0,3.487.126M250.3,77.546a8.628,8.628,0,0,1,2.244.652,3.215,3.215,0,0,1,1.276,1.3,16.157,16.157,0,0,0-2.064,1.12c-.83.468-1.66.935-2.461,1.45a.069.069,0,0,0,.068.121c.855-.421,1.682-.894,2.51-1.365q.587-.334,1.173-.673c.173-.1.348-.2.521-.3a1.349,1.349,0,0,0,.269-.16.158.158,0,0,0,.055-.074c.114.2.222.4.336.612a6.164,6.164,0,0,0,1.5,1.846c-.621.353-1.24.708-1.873,1.037-.8.418-1.677.7-2.462,1.143-1.576.891-3.342,1.358-4.867,2.332a.035.035,0,0,0,.035.062c1.606-.837,3.33-1.361,4.909-2.255.745-.422,1.574-.693,2.334-1.094.684-.361,1.354-.753,2.025-1.141a6.7,6.7,0,0,0,2.959,1.26,18.142,18.142,0,0,0,3.727.039,3.494,3.494,0,0,0-.438.082c-.912.243-1.811.545-2.694.877-.857.321-1.726.624-2.577.964-.829.332-1.6.777-2.41,1.151-.867.4-1.772.692-2.65,1.061-.96.4-1.891.87-2.876,1.214a30.453,30.453,0,0,0-5.357,2.3.119.119,0,0,0,.118.207c3.474-1.656,7.134-2.84,10.632-4.441.8-.368,1.565-.826,2.374-1.18.913-.4,1.863-.73,2.792-1.092.881-.342,1.776-.66,2.685-.919a6.175,6.175,0,0,1,1.217-.231c1.089,0,2.175.04,3.264.119a11.942,11.942,0,0,1,2.743.281c.939.321.7.449.145,1.226A12.091,12.091,0,0,1,266.3,87.96c-.72-.017-1.437-.051-2.184-.091a21.828,21.828,0,0,0-3.909-.158,21.33,21.33,0,0,0-4.8,1.512,67.493,67.493,0,0,0-9.156,3.953c-1.568.878-3.1,1.818-4.667,2.7-.882.5-1.785.958-2.684,1.425.2-.528.388-1.049.561-1.549a19.839,19.839,0,0,1,1.486-3.53c.593-1.017,1.343-1.936,1.919-2.963a14.807,14.807,0,0,0,1.334-2.955c.2-.107.407-.21.614-.314.858-.436,1.686-.939,2.523-1.414,1.826-1.037,3.671-2.052,5.464-3.145a.051.051,0,0,0-.05-.088c-1.989,1.043-3.932,2.18-5.889,3.284-.85.479-1.7.961-2.569,1.4l-.018.01a6.091,6.091,0,0,0,.215-1.849,12.07,12.07,0,0,1,.425-3.3,11.772,11.772,0,0,1,1.486-3.2,3.3,3.3,0,0,0,.277-.686,33.577,33.577,0,0,1,3.613.542M224.73,60.225a.271.271,0,0,0,.464-.014c.014-.028.03-.054.043-.082.262-.042.525-.08.79-.105,1.042-.1,3-.565,4.138-.063a.145.145,0,0,0,.046.091c1.679,1.644-1.374,3.137-1.3,4.817a3.637,3.637,0,0,0,3.147,3.146c.688.14,1.4.133,2.093.227a12.287,12.287,0,0,1,3.387,1.142c2.089.938,4.338,1.605,6.137,3.083,1.729,1.419,2.919,3.251,1.556,5.318a12.2,12.2,0,0,0-1.674,5.245,12.547,12.547,0,0,1-.225,2.532,12.312,12.312,0,0,1-.767,1.789l-.007.012v.006c-.189.366-.386.723-.581,1.064-1.121,1.96-2.518,3.588-3.327,5.729-.526,1.39-.976,2.812-1.593,4.16a.279.279,0,0,0-.063.137,13.224,13.224,0,0,1-.9,1.64c-1.438,2.192-3.449,2.758-5.946,2.831-3.932.116-7.655.336-11.337,1.907-4.007,1.71-6.731,5.072-10.4,7.3-1.973,1.2-3.529,2.165-5.929,1.885-1.931-.225-3.833-1.336-5.7-1.914-2.047-.632-3.891-1.784-6.06-2.07a19.66,19.66,0,0,0-6.31.508c-4.313.922-9.227,2.4-12.417,5.6-.074.075.037.186.116.116,3.5-3.116,8.639-4.777,13.209-5.484a14.624,14.624,0,0,1,7.142.482c1.061.361,2.023.854,3.056,1.27,1.107.446,2.312.635,3.395,1.147a11.141,11.141,0,0,0,4.662,1.407c1.966.076,3.5-.989,5.116-1.964,4.015-2.415,7.015-6.13,11.522-7.719a20.62,20.62,0,0,1,5.609-1.192c-.849.441-1.674,1.054-2.275,1.384-2.154,1.184-3.433,3.355-5.206,5.014-.914.855-1.765,1.794-2.726,2.595a5.917,5.917,0,0,1-2.271,1.291c-.522.14-.965.076-1.475.189-2.244.5-4.263,2.016-6.248,3.092l-.018.01-.042-.017a.335.335,0,0,0-.43.259,5.238,5.238,0,0,1-3.509.468c-1.306-.22-2.609-.416-3.911-.661-2.61-.49-5.16-1.261-7.78-1.7a20.57,20.57,0,0,1-3.592-.643,13.568,13.568,0,0,0-3.109-.627,10.641,10.641,0,0,0-6.083,1.092,60.235,60.235,0,0,0-6.839,3.549c-1.14.79-1.425,2.082-2.527,2.91a5.278,5.278,0,0,1-.587.376c.644-1.655-1.063-2.634,1.161-4.017,1.245-.775,2.414-1.158,3.356-2.379,1.178-1.529,1.1-3.511,1.955-5.185s2.278-2.638,3.661-3.806c1.219-1.03,2.344-2.173,3.57-3.192-.452.616-.886,1.246-1.321,1.888a24.74,24.74,0,0,0-2.6,3.726c-.157.371.333.688.558.325a34.387,34.387,0,0,1,2.426-2.736c.838-1.063,1.6-2.187,2.484-3.209,1.7-1.957,3.546-3.784,5.231-5.755a9.237,9.237,0,0,1,2.986-2.256,20.952,20.952,0,0,0,3.191-2c-.2.377-.385.755-.608,1.117a5.331,5.331,0,0,0-.5.842c-.132.333-.154.688-.3,1.017a17.124,17.124,0,0,1-1.209,1.909,11.644,11.644,0,0,1-1.448,1.967.061.061,0,0,0-.016.058l.064.162a.048.048,0,0,0,.093-.023c-.051-.217.538-.7.655-.856.184-.239.345-.491.506-.745.441-.691.88-1.374,1.333-2.054.406-.612.427-1.365.822-2,.324-.519.578-1.072.865-1.61a26.31,26.31,0,0,0,3.932-4.924c.041-.058.081-.118.121-.176a14.968,14.968,0,0,0-.1,1.983c.018,1.208-.1,2.411-.14,3.617q-.025.808-.037,1.617a7.813,7.813,0,0,0-.053,1.361c.013.081.13.058.136-.016.033-.459.147-.882.157-1.342.012-.539.019-1.077.035-1.616.031-1.068.133-2.134.129-3.2a21.526,21.526,0,0,1,.14-2.812c1.176-1.9,1.685-3.984,3.484-5.517,1.87-1.592,3.995-2.895,5.721-4.645a10.454,10.454,0,0,0,.908-1.062c-.052.366-.013.733-.057,1.109a13.512,13.512,0,0,0-.207,3.039c.052.506.2.975.293,1.472s-.059.975.022,1.473c.011.063.105.048.107-.012a10.005,10.005,0,0,0,.146-1.251,9.862,9.862,0,0,0-.238-1.1,9.381,9.381,0,0,1,.063-3.332,9.169,9.169,0,0,0,.062-1.079A2.994,2.994,0,0,1,209,76.6a23.292,23.292,0,0,0,1.911-3.909c.476-1.156,1.254-2.126,1.731-3.268a15.857,15.857,0,0,1,1.565-3.214,10.649,10.649,0,0,1,3.884-3.134c1.2-.633,2.466-.95,3.628-1.667a9.478,9.478,0,0,1,3.014-1.187m-27.708,4.149c.808-1.465,2.2-2.827,3.869-2.519a1.9,1.9,0,0,0,1.025.059c.126-.039.681-.518.795-.507.767.073.142.588-.13.918-1.162,1.4-2.843,2.3-3.947,3.8a10.6,10.6,0,0,0-1.163,2.144,6.515,6.515,0,0,1-1.088,2.391c-.1.094.036.285.152.2a4,4,0,0,0,1.107-1.75,13.014,13.014,0,0,1,2.1-3.387,25.179,25.179,0,0,1,2.824-2.586c.069-.057.141-.111.214-.165a.2.2,0,0,0,.233-.045c.142-.143.278-.293.412-.446a1.963,1.963,0,0,0,.49-.6,17.842,17.842,0,0,1,2.129-2.49,47.166,47.166,0,0,1,4.293-3c2.964-2.051,5.885-4.834,9.624-5.292a23.413,23.413,0,0,1,4.815.019,6.033,6.033,0,0,0,1.987-.04c.22-.053.5-.258.712-.247a1.27,1.27,0,0,1,1.169,1.392c-.081,1.048-1,1.757-1.47,2.636-.334.618-.558,1.264-.956,1.855a8.231,8.231,0,0,0-1.452,2.623c-.45.078-.9.178-1.368.3a23.962,23.962,0,0,0-3.38,1.565c-2.366,1-4.788,1.935-6.414,4.052a11.078,11.078,0,0,0-1.655,2.919c-.475,1.3-1.255,2.378-1.811,3.645a32.393,32.393,0,0,1-1.629,3.732,12.759,12.759,0,0,1-3.123,3.414c-.949.73-1.832,1.539-2.775,2.279a12.426,12.426,0,0,0-2.981,2.861c-.673,1.04-.994,2.253-1.585,3.335a41.982,41.982,0,0,1-2.437,3.442c-1.332,1.947-3.241,2.958-5.215,3.984l.1-.139c.765-1.008,1.356-2.144,2.106-3.163a32.148,32.148,0,0,1,2.424-3.014c.325-.346.7-.633,1-1a4.617,4.617,0,0,1,1.606-1.266.062.062,0,0,0-.06-.108,4.73,4.73,0,0,0-1.287.761c-.319.322-.565.691-.908,1a22.375,22.375,0,0,0-2.525,2.893c-.681.859-1.287,1.772-1.88,2.693a13.906,13.906,0,0,1-1.167,1.587l-.1.118c-.37.2-.741.395-1.11.606a5.458,5.458,0,0,0-1.009.753,22.316,22.316,0,0,1,1.382-2.355c1.423-2.084,2.467-4.367,4.224-6.22.351-.371.627-.834,1-1.175A7.989,7.989,0,0,1,195.6,85.77a8.837,8.837,0,0,0,1.191-.732c.451-.358.975-.634,1.408-1,.795-.668.984-1.836,1.65-2.618a7.162,7.162,0,0,0,1.5-1.892c.013-.034-.041-.049-.055-.016-.409.985-1.4,1.52-1.964,2.4-.274.428-.467.9-.74,1.329a4.042,4.042,0,0,1-1.307,1.129,15.808,15.808,0,0,1-1.54,1.083,8.261,8.261,0,0,0-1.309.9,15.948,15.948,0,0,0-2.078,2.2,62.055,62.055,0,0,0-3.832,5.743,28.6,28.6,0,0,0-1.619,2.886,3.72,3.72,0,0,1-.26.419c-.267.32-.533.65-.82.98-.4.461-.814.914-1.226,1.365.03-.06.055-.121.086-.181.295-.577.718-1.062,1.019-1.634.315-.6.562-1.241.851-1.854a36.928,36.928,0,0,0,1.334-3.524c.458-1.3.643-2.715,1.206-3.971a8.694,8.694,0,0,1,.887-1.573c.384-.525.883-.947,1.289-1.454a12.638,12.638,0,0,1,1.291-1.572,9.025,9.025,0,0,1,.773-.65c.25-.181.544-.284.788-.473.147-.114.289-.312.422-.438a4.576,4.576,0,0,1,.909-.548,2.339,2.339,0,0,0,.479-.412,4.479,4.479,0,0,1,.971-.693,16.506,16.506,0,0,0,1.32-1.019c.143-.109.267-.233.4-.352.268-.234.566-.378.842-.588a6.226,6.226,0,0,0,.982-1.172,6.611,6.611,0,0,0,.756-1.587,9.785,9.785,0,0,1,.974-1.9,4.658,4.658,0,0,0,.9-1.616.038.038,0,0,0-.073-.02,5.066,5.066,0,0,1-.979,1.692,10.07,10.07,0,0,0-.827,1.542,7.61,7.61,0,0,1-.952,1.878,7.2,7.2,0,0,1-.974,1.059c-.152.108-.351.157-.507.269-.2.14-.35.327-.538.475a16.32,16.32,0,0,1-1.575,1.171,5.694,5.694,0,0,0-.6.347,7.917,7.917,0,0,1-.748.671,6.1,6.1,0,0,0-1.117.681,19.407,19.407,0,0,0-2.607,2.231,27.523,27.523,0,0,0-2.335,2.932,12.7,12.7,0,0,0-1.205,3.3,37.829,37.829,0,0,1-1.224,3.674,19.944,19.944,0,0,1-2.057,4.192,9.077,9.077,0,0,0-.908,1.791c-.029.072-.054.145-.077.219-.154.167-.308.334-.463.5.053-.139.106-.275.164-.4.369-.8.875-1.559,1.205-2.372a19.547,19.547,0,0,1,.885-2.5,17.851,17.851,0,0,0,1.213-2.264,16.18,16.18,0,0,0,.854-2.4c.208-.953.418-1.895.712-2.825a11.2,11.2,0,0,1,2.915-4.887,24.516,24.516,0,0,1,1.931-1.687c.806-.638,1.784-.989,2.593-1.619a23.425,23.425,0,0,0,3.768-4.313,21.136,21.136,0,0,0,2.994-4.392c.322-.753.927-1.264,1.234-2.02a8.1,8.1,0,0,1,.562-.971,7.584,7.584,0,0,1,.628-1.188c.518-.64.852-1.379,1.356-2.045.646-.855,1.215-1.763,1.834-2.636.675-.952,1.455-1.811,2.192-2.714a10.868,10.868,0,0,1,2.5-2.59.036.036,0,0,0-.035-.063,7.383,7.383,0,0,0-1.749,1.636c-.729.835-1.457,1.674-2.173,2.52-1.139,1.347-2.121,2.851-3.179,4.263a7.149,7.149,0,0,0-.524.911c-.193.353-.511.581-.715.921s-.311.738-.55,1.086a4.377,4.377,0,0,0-.432.789c-.291.676-.885,1.109-1.177,1.794a15.443,15.443,0,0,1-1.807,2.833c-.621.862-1.31,1.673-1.964,2.511a19.2,19.2,0,0,1-1.843,2.255,10.8,10.8,0,0,1-2.317,1.76,13.273,13.273,0,0,0-2.278,1.589,13,13,0,0,0-3.259,3.708,22.391,22.391,0,0,0-1.694,5.367,14.309,14.309,0,0,1-1.121,2.938,23.956,23.956,0,0,0-1.333,2.44c-.153.42-.214.862-.35,1.286a10.859,10.859,0,0,1-.766,1.536c-.234.468-.465.946-.674,1.426-.094.22-.171.462-.281.682a17.33,17.33,0,0,0,.2-1.829c.007-.329,0-.642-.015-.948a.16.16,0,0,0,.255-.05,16.012,16.012,0,0,0,1.443-3.556c.319-1.413.224-2.884.581-4.291.115-.45.274-.889.416-1.331.006-.013.015-.024.022-.037.337-.566.629-1.145,1-1.7a19.1,19.1,0,0,0,1.8-3.609,32.364,32.364,0,0,1,1.9-4.174c.381-.678.834-1.326,1.261-1.975.178-.271.384-.523.564-.79a6.388,6.388,0,0,1,.561-.9.063.063,0,0,0-.089-.089,13.814,13.814,0,0,0-.991,1.323c-.5.653-.988,1.356-1.432,2.052a24.017,24.017,0,0,0-2.014,4.05,22.892,22.892,0,0,1-2.171,4.208c-.03.042-.054.088-.083.132a17.34,17.34,0,0,0-.267-3.367c-.144-1.17.133-2.279.02-3.432a3.641,3.641,0,0,0-.119-.618.16.16,0,0,0,.059-.1c.075-.618.649-1.069.988-1.564.461-.676.826-1.418,1.228-2.129a43.969,43.969,0,0,1,3.233-4.751,16.052,16.052,0,0,1,1.97-2.326c.7-.631,1.547-.954,2.268-1.533,1.3-1.04,1.069-2.653,1.813-4m-4.82.347c.127,1.169,1.215,2.471.342,3.614a.51.51,0,0,0-.051.56,11.617,11.617,0,0,0-1.572,1.7,36.379,36.379,0,0,0-3.98,5.924c-.468.925-.9,1.87-1.361,2.8a3.8,3.8,0,0,0-.341.823,12.6,12.6,0,0,0-.859-1.569c-.867-1.419-1.436-2.448-.962-4.141.3-1.062.8-2.052,1.1-3.115v-.006c2.031-.656,3.265-2.383,5.062-3.8a11.228,11.228,0,0,0,2.472-2.607c.053-.082.1-.167.143-.25,0,.024,0,.05,0,.074m7.284-26.5a13.485,13.485,0,0,0,3.832-.762c.47-.209.852-.574,1.31-.8a8.061,8.061,0,0,1,3.01-.684,9.358,9.358,0,0,1,4.271.682,4.276,4.276,0,0,0,2.743.63c1.228-.133,2.3-.471,3.39.312.853.61,1.4,1.549.557,2.453a6.863,6.863,0,0,1-2.077,1.185,20.481,20.481,0,0,0-6.4,4.725c-2.044,2.185-3.658,4.768-5.636,7.016a21.32,21.32,0,0,1-1.907,1.95c.124-.277.266-.544.371-.836.184-.507.329-1.067.479-1.586.126-.441.309-.862.434-1.3.146-.516.18-1.013.377-1.517A14.317,14.317,0,0,0,205,46.459a8.66,8.66,0,0,1,1.435-3.722c.033-.049-.046-.094-.079-.046a8.484,8.484,0,0,0-1.372,3,24.6,24.6,0,0,1-.835,3.694c-.38,1.008-.639,2.027-.949,3.063a15.311,15.311,0,0,1-.57,1.754,9.418,9.418,0,0,0-.459,1.07,9.342,9.342,0,0,1-1.389.937,11.282,11.282,0,0,1-1.075.5c.271-1.969,1.568-3.633,1.813-5.589.03-.239.015-.474.022-.713a2.6,2.6,0,0,1,.24-.948,2.316,2.316,0,0,0,.053-.891,6.088,6.088,0,0,1,.239-1.487c.136-.443.142-.874.269-1.309a.042.042,0,0,0-.081-.022,5.077,5.077,0,0,0-.074.506c-.059.263-.187.523-.258.789a7.742,7.742,0,0,0-.269,1.447c0,.068.015.141.008.208a8.306,8.306,0,0,1-.229,1.091,11.25,11.25,0,0,0-.094,1.2c-.219,2.029-1.657,3.726-1.909,5.773a.12.12,0,0,0,.005.056c-.3.118-.608.229-.917.336.047-.138.082-.281.117-.414.157-.585.326-1.171.444-1.765a31.473,31.473,0,0,0,.146-4.051,16.488,16.488,0,0,1,.7-4.466c.481-1.365.64-2.77,1.192-4.116.016-.039-.05-.068-.067-.029a9.083,9.083,0,0,0-.673,1.782,12.982,12.982,0,0,1-.472,1.939,12.164,12.164,0,0,0-.8,3.678c-.076,1.308-.035,2.6-.083,3.906a10.336,10.336,0,0,1-.464,2.4,5.139,5.139,0,0,1-.376,1.248c-.766.26-1.537.508-2.268.806a5.579,5.579,0,0,0-3.145,2.635c-.122-.04-.29.032-.273.181.014.119.016.238.018.355a12.148,12.148,0,0,0-.508,1.491c-.031.111-.071.219-.107.327a22.181,22.181,0,0,0,.044-2.388,42.536,42.536,0,0,1,.506-5.517,23.432,23.432,0,0,0,.161-2.657c-.005-.879.125-1.741.072-2.619a9.223,9.223,0,0,1,.251-2.978c.26-.97.658-1.9.921-2.864a.049.049,0,0,0-.094-.027c-.54,1.855-1.322,3.493-1.3,5.47a40.672,40.672,0,0,1-.292,5.541,39.4,39.4,0,0,0-.588,5.647,12.231,12.231,0,0,1-.134,2.911c-.077.33-.215.65-.283.977a7.637,7.637,0,0,1-1.063,1.275c-.12-1.2-.311-2.411-.459-3.608-.172-1.39-.109-2.8-.308-4.183-.191-1.332-.3-2.672-.571-3.99a19.662,19.662,0,0,1-.144-2.116c-.07-.717-.454-1.416-.228-2.138.019-.06-.076-.087-.1-.027a2.13,2.13,0,0,0,.019,1.245,11.558,11.558,0,0,1,.169,2.27c.029.71.274,1.388.337,2.1.059.675.091,1.347.2,2.017.254,1.524.194,3.056.365,4.587.152,1.355.289,2.71.492,4.058-.159.144-.321.285-.491.42-1.122.9-2.116,1.744-3.154,2.75a6.017,6.017,0,0,1-3.711,1.472c.027-.085.045-.179.067-.29a6.621,6.621,0,0,0,.386-1.62,10.825,10.825,0,0,0-.419-1.724c-.147-.62-.459-1.126-.615-1.747a.071.071,0,0,0-.137.035,3.389,3.389,0,0,0,.345,1.04,7.775,7.775,0,0,1,.419,1.671,2.3,2.3,0,0,1-.021,1.548,9.373,9.373,0,0,1-.325,1.136c-.227.037-.458.078-.694.128a10.958,10.958,0,0,0-4.008,1.778c.177-.965.427-1.923.582-2.892a11.117,11.117,0,0,0-.047-3.276c-.09-.733-.162-1.48-.191-2.217-.017-.414.108-.834-.129-1.2-.032-.049-.109-.005-.08.046.222.369.073,1.232.093,1.668.027.576.054,1.149.118,1.722a11.545,11.545,0,0,1,0,3.322c-.163.989-.395,1.953-.593,2.934-.005.025-.01.052-.015.077-1,.747-1.722,1.741-2.648,2.575-.041.036-.08.075-.121.112a7.383,7.383,0,0,0,.226-1.293,11.235,11.235,0,0,1,.36-1.611c.265-1.117.036-2.214.621-3.263a.043.043,0,0,0-.074-.043A8.218,8.218,0,0,0,175,72.234c-.089.51-.327.975-.408,1.485-.1.631-.139,1.256-.276,1.886a.074.074,0,0,0,.02.069,10.537,10.537,0,0,0-2.186,2.98,6.3,6.3,0,0,0-.374,3.528,4.054,4.054,0,0,0,.178,1.386c.348.913,1.006,1.636.795,2.71a25.822,25.822,0,0,0-.9,2.894,3.714,3.714,0,0,0,.021.912c-.312-.191-.622-.382-.923-.581-1.066-.7-2.283-1.124-3.339-1.833-.049-.067-.1-.133-.14-.2-.093-.14-.564-.733-.842-1.2a.11.11,0,0,0,.146-.151,7.634,7.634,0,0,1-.946-2.38,24.034,24.034,0,0,1-.54-4.987,6.48,6.48,0,0,1,1.653-4.36,20.786,20.786,0,0,0,2.886-2.788,6.363,6.363,0,0,0,1.236-2.956c.252-1.5-.216-2.981.046-4.454a5.712,5.712,0,0,1,.583-1.648,7.493,7.493,0,0,0,.661-.944,3.377,3.377,0,0,0,.133-.335,11.941,11.941,0,0,0,2.084-3.624c.338-1.241.4-2.547.729-3.795a14.068,14.068,0,0,1,2.07-4.255c.792-1.189,1.539-2.406,2.326-3.6.185-.278.381-.542.582-.8a.127.127,0,0,0,.189,0,19.986,19.986,0,0,0,1.992-2.274q.313-.285.638-.568c2.194-1.916,4.84-4.008,7.771-4.633s5.715.805,8.621.5m-25.2,53.533a10.673,10.673,0,0,0-1.114-.85,3.866,3.866,0,0,1,0-3.188,3.817,3.817,0,0,0,.469-2.5,24.854,24.854,0,0,1-1.063-3.773,6.464,6.464,0,0,1,2.245-5.13c.774-.742,1.522-1.461,2.3-2.108a1.5,1.5,0,0,1-.234,1.138.069.069,0,0,0,0,.1c-.162.177-.328.354-.488.554a5.627,5.627,0,0,0-1.356,2.384c-.426,3.241,4.112,6,1.531,8.93-.587.665-1.274,1.164-1.154,2.151.149,1.211,1.435,2.077,2.031,3.049a15.342,15.342,0,0,1,2.121,5.049,8.157,8.157,0,0,0-.54-.65,25.677,25.677,0,0,0-1.827-1.971c-1.07-.947-1.832-2.219-2.918-3.185m.284,1.911c-.342-.133-.668-.244-.958-.329a35.059,35.059,0,0,0-3.46-.889c-1.18-.219-2.371-.139-3.554-.3a25.362,25.362,0,0,1-7.554-2.14c-1.016-.483-2.046-.859-3.047-1.39a35,35,0,0,1-3.163-1.654,8.287,8.287,0,0,0,1.7-.359c1.254-.383,2.662-.841,4.027-1.122-.067.042-.135.084-.2.13-.128.1-.068.327.111.28a9.012,9.012,0,0,1,3.569-.222,4.466,4.466,0,0,1,2.3,1.063,13.424,13.424,0,0,0,1.9,1.391l0,0c.376.3.749.6,1.143.885a.962.962,0,0,0,.484.357.229.229,0,0,0,.06.005c.981.6,1.96,1.188,2.934,1.8a30.711,30.711,0,0,1,3.388,2.22c.106.087.2.179.3.269M159.74,67.859a22.068,22.068,0,0,0-.873-2.655c-.659-2.017-1.655-3.839-2.43-5.807s-1.325-3.983-1.949-6.014a3.461,3.461,0,0,1-.143-2.188,12.277,12.277,0,0,1,1.047-3.332,15.317,15.317,0,0,1,3.866-5.065,14.866,14.866,0,0,0,4.393-4.826c.081-.164.137-.352.209-.516.351-.789.88-1.025,1.571-1.476a10.569,10.569,0,0,0,1.951-1.532,5.085,5.085,0,0,0,.907-3.656c-.079-1.877-.5-3.7-.611-5.57a5.015,5.015,0,0,1,.418-2.89c.416-.691.914-.755,1.536-1.123a9.6,9.6,0,0,0,1.228-1.05c1.542-1.275,3.625-1.723,4.973-3.262a12.48,12.48,0,0,0,2.185-4.564,51.843,51.843,0,0,1,1.916-4.919,16.463,16.463,0,0,0,.89-2.444c.222-.865.047-1.792.244-2.617.362-1.51,1.332-1.034,1.941-.206A23.018,23.018,0,0,1,184.824,5c.523.985.824,2.047,1.3,3.049a17.526,17.526,0,0,1,1.611,3.954c.215,1.023.255,2.076.484,3.1a10.886,10.886,0,0,0,1.5,3.172c.656,1.095,1.458,2.047,2.152,3.112.714,1.095,1.284,2.291,1.937,3.422a8.843,8.843,0,0,1,1.326,3.693c.115,1.177.058,2.358.109,3.539.039.912-.081,1.773.012,2.683.081.793-.158,1.617-.023,2.4a14.287,14.287,0,0,0-3.474-.255,8.977,8.977,0,0,0-3.161.869,21.844,21.844,0,0,0-3.839,2.06c-.471.356-.942.721-1.408,1.1.213-.562.424-1.126.673-1.667.5-1.095.942-2.2,1.524-3.253a5.733,5.733,0,0,1,.974-1.485c.226-.226.6-.917.821-1.026.065-.032.01-.127-.054-.1-.29.138-.285.252-.434.488-.3.475-.747.779-1.036,1.26a29.822,29.822,0,0,0-1.7,3.372c-.4.908-.784,1.825-1.175,2.737a20.532,20.532,0,0,0-4.363,4.708c-.192.3-.389.6-.589.9.043-.089.087-.177.135-.263.433-.8.727-1.654,1.182-2.442.421-.731.9-1.429,1.25-2.2.36-.795.564-1.644.869-2.459a33.757,33.757,0,0,1,2.131-5.36c.464-.8,1-1.566,1.392-2.4a6.105,6.105,0,0,1,1.35-2.25c.063-.054-.028-.144-.091-.091a4.627,4.627,0,0,0-1.151,1.732,21.1,21.1,0,0,1-1.294,2.325,17.962,17.962,0,0,0-1.271,2.331c-.364.853-.591,1.752-.892,2.626a23.612,23.612,0,0,1-2.217,5.06A21.7,21.7,0,0,0,178.2,45.7a8.727,8.727,0,0,1-1.49,2.466.194.194,0,0,0,.162.329,24.181,24.181,0,0,0-1.8,3.061c.137-.674.283-1.344.363-2.031a20.963,20.963,0,0,1,.744-3.837,46.927,46.927,0,0,0,1.832-6.824c.17-1.117.32-2.2.577-3.3.266-1.147.356-2.337.7-3.461.337-1.1.367-2.213.647-3.317.25-.988.81-1.851.992-2.863.011-.056-.074-.083-.088-.024-.243,1-.853,1.843-1.12,2.828-.295,1.094-.337,2.215-.678,3.309-.35,1.126-.447,2.309-.716,3.456-.144.618-.325,1.237-.425,1.864-.091.566-.1,1.141-.2,1.707a33.641,33.641,0,0,1-.792,3.528c-.338,1.154-.782,2.273-1.115,3.429a19.873,19.873,0,0,0-.6,3.365c-.1.964-.294,1.9-.42,2.851a11.182,11.182,0,0,0-.517,1.576,30.119,30.119,0,0,1-.947,4.372c.056-.8.268-1.529.39-2.333l.008-.01a1.388,1.388,0,0,0,.149-1.051c.013-.1.03-.2.038-.3.045-.49-.048-.965-.032-1.454a9.884,9.884,0,0,1,.3-1.421c.067-.376.09-.756.174-1.13a18.319,18.319,0,0,0,.439-2.931,15.934,15.934,0,0,1,.005-2.7,24.081,24.081,0,0,0,.475-2.564c.1.032.228-.033.19-.168s-.083-.3-.124-.453a15.393,15.393,0,0,1,.311-2.653,14.751,14.751,0,0,1,1.053-3.094,5.749,5.749,0,0,0,.418-.991,8.726,8.726,0,0,1,.589-1.231c.4-.894.441-1.926.771-2.849.681-1.909,1.446-3.806,2.242-5.667.33-.773.539-1.591.824-2.38a17.675,17.675,0,0,0,.853-2.99,16.576,16.576,0,0,0,.245-2.888c0-1.049-.191-2.068-.254-3.109-.066-1.085-.084-2.174-.15-3.26a17.154,17.154,0,0,1,.363-3.976c.016-.084-.112-.12-.128-.035a25.281,25.281,0,0,0-.374,2.908c-.071,1.008.112,1.991.112,3,0,1.933.32,3.841.155,5.776a24.182,24.182,0,0,1-1.48,5.684c-.3.9-.747,1.73-1.1,2.612-.388.977-.69,1.982-1.1,2.95a15.5,15.5,0,0,0-.882,2.446,11.617,11.617,0,0,1-.373,1.431c-.181.475-.523.81-.679,1.294-.265.824-.694,1.566-1,2.384a13.928,13.928,0,0,0-.782,2.955c-.01.069-.014.138-.021.208a23.219,23.219,0,0,1-.484-2.513c-.115-.9-.245-1.8-.308-2.7-.023-.345-.022-.7-.068-1.04a3.42,3.42,0,0,1-.133-1.126c.018-.1-.126-.138-.148-.041a8.34,8.34,0,0,0,.11,1.943c.025.957.132,1.905.227,2.858.082.822.279,1.609.414,2.422a11.226,11.226,0,0,0,.281,1.541c-.024.385-.049.77-.09,1.153-.106.964-.5,1.88-.538,2.844-.034.946.1,1.839-.005,2.791s-.318,1.835-.458,2.762c-.077.509-.245,1.006-.325,1.511-.008-.045-.018-.088-.025-.133a21.629,21.629,0,0,1-.411-3c-.041-.877.01-1.774-.09-2.646-.09-.8-.379-1.547-.444-2.356-.074-.922-.11-1.847-.185-2.769a13.673,13.673,0,0,1-.036-2.385,9.96,9.96,0,0,0-.015-1.023c0-.2.091-.207.016-.418-.031-.088-.172-.055-.141.035.053.16-.046.43-.047.6,0,.42-.032.817-.077,1.238a13.69,13.69,0,0,0,.007,2.086c.04.876.066,1.752.107,2.628.036.777.267,1.5.365,2.262.2,1.608.013,3.237.3,4.846a32.51,32.51,0,0,1,.616,3.378c-.111.815-.342,1.615-.5,2.419-.128.662-.065,1.3-.161,1.942l-.017.023c-.449-.99-.621-2.147-1.078-3.128-.26-.559-.419-1.124-.719-1.668a11.365,11.365,0,0,1-.985-2.113c-.2-.626-.378-1.269-.616-1.882a15.911,15.911,0,0,1-.722-1.588,20.032,20.032,0,0,0-1.372-4.132c-.041-.078-.16-.011-.12.068a27.775,27.775,0,0,1,1.337,4.518c.162.53.507.98.692,1.507.24.687.4,1.4.639,2.089a11.543,11.543,0,0,0,.835,1.711c.292.538.454,1.12.7,1.677.463,1.041.6,2.32,1.137,3.332a18.211,18.211,0,0,0-1.6,2.287c-.088-.142-.174-.269-.233-.368a14.883,14.883,0,0,1-.954-2.081c-.138-.345-.185-.714-.343-1.049a5.167,5.167,0,0,1-.411-1.153,15.6,15.6,0,0,0-.54-1.663c-.286-.833-.579-1.664-.867-2.5a9.075,9.075,0,0,0-.962-1.962,15.833,15.833,0,0,1-1.072-2.262c-.037-.087-.162-.014-.126.072a14.879,14.879,0,0,0,.842,1.946,10.876,10.876,0,0,1,1.046,2.127c.395,1.194.726,2.409,1.127,3.6.372,1.1.615,2.22,1.09,3.291a17.152,17.152,0,0,0,.82,1.837c.111.188.264.394.381.608-.011.024-.023.046-.033.07a7,7,0,0,0-.349,3.626,7.621,7.621,0,0,1-.186,3.177c-.2-.542-.422-1.078-.63-1.616-.337-.876-.57-1.789-.912-2.661a17.077,17.077,0,0,0-1.148-2.234c-.447-.778-.656-1.618-1.122-2.389-.431-.71-.6-1.532-1.008-2.262-.421-.753-.908-1.473-1.355-2.213-.475-.789-.761-1.616-1.165-2.433-.443-.9-1-1.758-1.5-2.63a.087.087,0,0,0-.152.085c.471.837.99,1.659,1.415,2.519.387.785.6,1.593,1.047,2.358.431.746.887,1.477,1.31,2.226.414.732.574,1.548.959,2.281a7.952,7.952,0,0,1,.664,1.31,5.261,5.261,0,0,0,.368.982c.412.763.873,1.5,1.209,2.3.39.928.615,1.924.973,2.867.154.406.316.808.472,1.213.038.1.239.53.373.9a7.411,7.411,0,0,1-1.438,2.227.175.175,0,0,0,.007-.122c-.294-.824-.693-1.616-.957-2.441a6.587,6.587,0,0,0-.543-1.044c-.212-.409-.3-.875-.483-1.3-.385-.878-.731-1.775-1.115-2.655a8.14,8.14,0,0,1-.656-1.407,3.676,3.676,0,0,1-.221-.973.086.086,0,0,0-.167-.046.711.711,0,0,0,.049.531,7.863,7.863,0,0,0,.4,1.254c.461.971.779,1.992,1.187,2.987.192.468.366.909.529,1.389s.474.874.633,1.356c.132.4.338.8.449,1.192.045.161.444,1.225.433,1.244-.082.136.074.257.2.2l.151-.066c-.025.027-.049.054-.074.081-.888.924-2.2,1.619-2.77,2.8-.045.092-.084.191-.124.289-.391-.378-.78-.752-1.169-1.121-.014-.237-.023-.472-.048-.7a15.522,15.522,0,0,0-.251-2.006c-.3-1.215-.874-2.372-1.224-3.575-.177-.61-.281-1.245-.44-1.86-.151-.58-.549-1.026-.735-1.6-.376-1.162-1.035-2.213-1.407-3.366a15.207,15.207,0,0,0-.522-1.608,11.129,11.129,0,0,1-.965-1.74,13.75,13.75,0,0,1-.158-1.682c-.072-.629.243-1.1.25-1.708.007-.517-.058-1.047-.07-1.566a2.97,2.97,0,0,1,.072-.964,4.475,4.475,0,0,1,.7-1.085c.31-.454.477-.983.779-1.445a4.129,4.129,0,0,1,.79-.957c.219-.181.448-.329.656-.525a4.012,4.012,0,0,0,1.252-2.481,2.332,2.332,0,0,1,.982-1.808c.547-.354,1.015-.668,1.532-1.07.47-.366,1.01-.615,1.473-1,.57-.471,1.174-.9,1.7-1.423.439-.439.832-.925,1.308-1.329a5.7,5.7,0,0,0,1.206-1.185,4.064,4.064,0,0,0,.367-2.56,15.754,15.754,0,0,0-.154-3.381,25.9,25.9,0,0,0-.852-3.721c-.251-.641-.622-1.228-.827-1.888a5.849,5.849,0,0,1-.226-2.147,3.163,3.163,0,0,1,.383-1.427,2.647,2.647,0,0,1,.817-.743,13.322,13.322,0,0,0,1.259-1.329c.934-.937,2.344-1.254,3.374-2.082A13.83,13.83,0,0,0,177.619,15c.365-.538.87-.9,1.248-1.415a6.828,6.828,0,0,0,.87-1.3c.013-.034-.045-.058-.059-.024a3.084,3.084,0,0,1-.5.628c-.178.231-.278.516-.472.739a12.832,12.832,0,0,0-1.132,1.2c-.816,1.218-1.465,2.644-2.685,3.522-.918.661-2.075.954-2.951,1.663-.442.357-.764.836-1.179,1.22-.37.344-.924.531-1.233.943a4.475,4.475,0,0,0-.518,3.035c.165,1.384,1.007,2.507,1.293,3.856a30.985,30.985,0,0,1,.733,3.921c.047.6-.066,1.194-.075,1.795a9.064,9.064,0,0,1,.005,1.881,2.93,2.93,0,0,1-1.192,1.569,12.962,12.962,0,0,0-1.4,1.334,14.741,14.741,0,0,1-1.553,1.344c-.579.458-1.236.789-1.807,1.246a9.041,9.041,0,0,1-.861.709c-.26.161-.549.267-.807.433a1.839,1.839,0,0,0-.745.945,10.648,10.648,0,0,0-.352,1.62,3.2,3.2,0,0,1-1.024,1.675,8.749,8.749,0,0,0-1.114,1,14.79,14.79,0,0,0-1.03,1.782,7.888,7.888,0,0,0-.875,1.346,4.582,4.582,0,0,0-.107,1.55,6.016,6.016,0,0,1,.006,1.586,3.446,3.446,0,0,0-.181,1.469c.059.517.04,1.057.139,1.566a4.8,4.8,0,0,0,.795,1.531,10.805,10.805,0,0,1,.795,2.187c.23.666.6,1.279.857,1.936a26.9,26.9,0,0,1,1.5,3.963c.314,1.413.943,2.733,1.341,4.121a9.783,9.783,0,0,1,.237,2.176,28.127,28.127,0,0,0-3.41-2.766,19.36,19.36,0,0,1-.435-3.12m-16.622-4.673a14.981,14.981,0,0,0,2.217,2.737,11.6,11.6,0,0,0,5.319,2.9c2.35.494,4.739.833,6.84,1.991a31.632,31.632,0,0,1,3.223,2c1.141.819,2.133,1.8,3.191,2.721.023.057.047.115.073.171a.2.2,0,0,0,.257.11l.147.122a.507.507,0,0,0,.612.47,11.74,11.74,0,0,0-.348,2.6,24.929,24.929,0,0,0,.667,4.737,3.394,3.394,0,0,1,.037.406l-.025-.034A14.093,14.093,0,0,0,162.62,81.5c-.917-.721-1.876-1.4-2.808-2.1a14.909,14.909,0,0,0-2.742-1.708,14.7,14.7,0,0,0-1.49-.612,6.993,6.993,0,0,1-1.826-.708c-.882-.633-.913-1.933-1.814-2.536a2.331,2.331,0,0,0-2.151-.08c-.559.215-1.131.438-1.676.688-.6.276-1.233.484-1.812.793-.065.035-.008.134.056.1.935-.49,2.01-.785,2.985-1.192,1.313-.549,2.459-.634,3.2.76a3.63,3.63,0,0,0,1.515,1.892c.956.468,1.991.743,2.947,1.225,1.784.9,3.251,2.38,4.9,3.511a18.237,18.237,0,0,1,2.59,2.324,14.165,14.165,0,0,1,1.007,1.324,1.07,1.07,0,0,0,.06.134,1.025,1.025,0,0,0,.229.273,1.433,1.433,0,0,1,.158.457,3.4,3.4,0,0,0,.029.35.194.194,0,0,0,.039.073c.013.045.028.089.042.134-.1-.066-.2-.133-.3-.2a5.529,5.529,0,0,1-1.124-1.246,5.54,5.54,0,0,0-2.1-2.126c-1.011-.674-2.025-1.329-3.045-1.989-1.168-.756-2.326-1.42-3.513-2.13a15.432,15.432,0,0,0-1.534-.942,8.219,8.219,0,0,1-1.966-.86c-.613-.52-.948-1.349-1.711-1.729a1.784,1.784,0,0,0-1.956.239c-.865.492-1.8.9-2.718,1.314-.525-1.145-1.358-1.95-1.969-3.094-.78-1.458.632-2.877.735-4.418a7.844,7.844,0,0,0-.085-1.738.134.134,0,0,0,.232-.132,6.832,6.832,0,0,0-.382-.6,15.431,15.431,0,0,0-1.921-4.3,5.458,5.458,0,0,1,.412.538M134,66.767c-.163-1.191-.427-2.049.381-3.084a11.511,11.511,0,0,1,1.96-1.71c.781-.625,1.462-1.324,2.3-1.877.413-.272.52-.428.988-.275.489.16.806.752,1.182,1.1.341.311.666.573.979.838a26.739,26.739,0,0,1,1.829,4.088c-.294-.254-.615-.5-.979-.76a14.365,14.365,0,0,0-3.138-2.016c-.13-.051-.187.159-.058.21a12.914,12.914,0,0,1,4.325,3.072,7.813,7.813,0,0,1,.3,2.976,9.639,9.639,0,0,0-3.192-2.916c-1.361-.919-2.889-2.326-4.467-2.8a.1.1,0,0,0-.054.2c1.416.457,2.917,1.89,4.162,2.724a14.548,14.548,0,0,1,3.451,3.1.087.087,0,0,0,.049.029,4.746,4.746,0,0,1-.477,1.407c-.514.959-.852,1.534-.451,2.628a6.2,6.2,0,0,0,.712,1.33c-1.168-.537-3.813.481-4.618.713-2.265.651-4.393.886-6.208,2.544a.233.233,0,0,0-.037.269l.069.161c.1.222.432.067.383-.153a12.767,12.767,0,0,1,2.263-1.158,15.828,15.828,0,0,1,2.9-.643,46.724,46.724,0,0,1,5.522-.947.222.222,0,0,0,.192-.119,7.2,7.2,0,0,1,1.113,1.991.483.483,0,0,0,.577.345,26.173,26.173,0,0,0,2.672-1.011c.374-.169,1.116-.755,1.559-.635.479.129.93.946,1.248,1.3a3.862,3.862,0,0,0,1.593,1.011c1.152.461,2.1,1.144,3.194,1.7a17.462,17.462,0,0,1,1.6.926.088.088,0,0,0-.056-.01c-.079.016-.523-.318-.633-.363a13.141,13.141,0,0,0-1.5-.524,27.476,27.476,0,0,0-3.162-.6,7.262,7.262,0,0,0-2.936.081c-1.119.3-1.879,1.191-3.118,1.109a16.649,16.649,0,0,1-3.342-.5,11.384,11.384,0,0,0-2.82-.125,11.226,11.226,0,0,0-5.59,1.694c-.072.039-.01.15.064.11a17.707,17.707,0,0,1,2.828-1.153,9.311,9.311,0,0,1,2.98-.394c.509,0,1.018-.015,1.528.008a6.609,6.609,0,0,1,1.463.334,5.928,5.928,0,0,0,1.025.121c.576.053,1.122.2,1.691.28a3.14,3.14,0,0,0,2.006-.359,5.548,5.548,0,0,1,3.093-.857,21.907,21.907,0,0,1,3.133.49A11.2,11.2,0,0,1,156,81.01a5.3,5.3,0,0,1,1.539.512.11.11,0,0,0,.105.029l.165-.062a.1.1,0,0,0,.04-.158c1.311.848,2.562,1.832,3.837,2.708-.623-.12-1.174-.425-1.805-.529-.751-.124-1.507-.186-2.258-.316-.728-.127-1.421-.346-2.145-.485a16,16,0,0,0-3.858-.5,8.99,8.99,0,0,0-3.606.758c-.081.045-.012.167.071.125a9.127,9.127,0,0,1,3.779-.635,16.786,16.786,0,0,1,3.654.577,29.9,29.9,0,0,0,3.379.725,8.711,8.711,0,0,1,2.1.535c.321.117.861.047,1.118.251.059.047.169.017.176-.058.146.121.281.247.408.376a6.58,6.58,0,0,0-2.4-.024,8.253,8.253,0,0,0-1.816.26c-.894.209-1.792.407-2.7.572a21.861,21.861,0,0,1-3.189.653c-1.7.036-3.559-1.057-5.114-1.645a24.085,24.085,0,0,0-5.028-1.336,11.7,11.7,0,0,0-4.367.071,35.932,35.932,0,0,0-5.116,1.976c-.466.18-.922.362-1.368.557-.255-.526-.559-1.026-.777-1.571a6.61,6.61,0,0,1-.315-2c-.1-1-.868-1.626-1.067-2.588a15.472,15.472,0,0,0-.555-3.213c-.379-.874-2.052-2.47-1.89-3.43.275-1.644,1.984-1.163,3.185-1.425a6.622,6.622,0,0,0,2.392-1.135A3.918,3.918,0,0,0,134,66.767m-20.128,43.341a32.763,32.763,0,0,1-7.522-3.315c-2.09-1.293-3.586-3.468-5.758-4.574a12.111,12.111,0,0,0-2.52-.812c-1.1-.284-1.937-1.015-3-1.392A20.711,20.711,0,0,0,88.5,98.775c-2.2-.036-4.651.134-6.669-.884-2.163-1.089.138-3.276-.707-5.035-.792-1.65-2.778-2.912-4.263-3.89a11.391,11.391,0,0,0-2.377-1.219,2.883,2.883,0,0,1-.86-.4,8.6,8.6,0,0,0-1.222-.8A24.879,24.879,0,0,0,65.9,84.913a11.761,11.761,0,0,0-3.145-.179c-.411.04-.816.121-1.223.176a7.462,7.462,0,0,1-.958.1,1.444,1.444,0,0,1-1.628-.871,1.618,1.618,0,0,1-.031-1.923,2.882,2.882,0,0,1,1.314-1.428A33.956,33.956,0,0,1,63.9,78.753c2.522-1.066,5.443-1.347,8.11-1.894a70.318,70.318,0,0,0,7.706-1.741c1.266-.412,2.516-.78,3.81-1.094a40.411,40.411,0,0,0,4.018-.76c2.228-.786,3.47-2.89,5.636-3.693a9.452,9.452,0,0,1,3-.524,1.8,1.8,0,0,0-.324.075.086.086,0,0,0,.042.168,4.456,4.456,0,0,1,.988.019c.32-.005.648-.092.966-.116.283-.021.574-.022.865-.015.938.114,1.85.283,2.677.469.3.067.6.132.889.2.617.186,1.231.385,1.827.566a15.092,15.092,0,0,0,1.784.627c.609.105,1.258,0,1.877.047,1.4.105,2.81.132,4.2.324,1.153.158,2.264.63,3.419.732A5.344,5.344,0,0,0,118.514,71c1.221-.719,2.518-1.78,3.924-2.074a17.344,17.344,0,0,1,2.127-.219c.737-.058,1.745,0,2.15.727.034.059.122.008.093-.053a1.971,1.971,0,0,0-1.541-.958,10.2,10.2,0,0,0-2.794.1,9.015,9.015,0,0,0-3.074,1.386c-1.033.583-2.214,1.57-3.412,1.709a9.178,9.178,0,0,1-2.848-.535,18.61,18.61,0,0,0-3.414-.327c-.559-.012-1.115-.05-1.673-.088-.62-.042-1.232.018-1.847-.014a4.333,4.333,0,0,1-1.275-.344,14.873,14.873,0,0,0,3.915.008c2.894-.395,5.367-1.668,8.061-2.665a19.213,19.213,0,0,1,4.148-1.433,10.638,10.638,0,0,1,4.065.171,23.308,23.308,0,0,1,4.013.79,22.926,22.926,0,0,0,3.551,1.437,2.554,2.554,0,0,1-1.338,1.372,9.168,9.168,0,0,1-3.334.744c-.888.106-1.849.206-2.195,1.162a3.873,3.873,0,0,0,.544,3.012c.344.611.817,1.146,1.147,1.764a7.459,7.459,0,0,1,.6,2.826,4.662,4.662,0,0,0,.434,1.682,5.109,5.109,0,0,1,.674,2.182c.022.187.056.37.1.551a7.222,7.222,0,0,0-1.186-.339,18.244,18.244,0,0,1-2.317-.669,20.148,20.148,0,0,0-2.114-.716,6.574,6.574,0,0,1-.972-.187,11.713,11.713,0,0,0-1.208-.449c-3.26-.791-6.5-1.867-9.859-2.118-1.634-.123-3.252-.472-4.888-.525a17.658,17.658,0,0,0-4.389.46,19.527,19.527,0,0,1-4.779.906,15.145,15.145,0,0,1-4.769-.749,34.125,34.125,0,0,0-5.074-1.349c-.781-.157-1.562-.22-2.353-.315-.828-.1-1.654.114-2.485.085-.07,0-.071.105,0,.108.749.03,1.491-.15,2.238-.1a17.825,17.825,0,0,1,2.325.3c1.53.324,3.022.722,4.522,1.176.717.217,1.392.524,2.128.681a17.544,17.544,0,0,0,2.195.284,12.587,12.587,0,0,0,4.352-.335,23.734,23.734,0,0,1,4.795-.837,28.813,28.813,0,0,1,4.57.42,47.232,47.232,0,0,1,5.128.715c1.712.38,3.4.84,5.1,1.3,1.636.442,3.244.929,4.838,1.478,1.434.493,2.883.9,4.346,1.289a7.333,7.333,0,0,0,.909,1.842c-.434-.111-.872-.2-1.309-.293-.53-.119-.984-.385-1.5-.541a5.7,5.7,0,0,0-1.229-.149,10.727,10.727,0,0,1-1.946-.412c-2.365-.655-4.712-1.372-7.057-2.088a13.254,13.254,0,0,0-1.609-.435c-.535-.09-1.069-.087-1.6-.207a27.63,27.63,0,0,0-3.165-.7,27.3,27.3,0,0,0-6.413-.106c-.481.063-.962.007-1.44.081-.674.1-1.3.306-1.991.366-1.139.1-2.292.385-3.433.391a30.7,30.7,0,0,1-6.881-1.171c-.449-.1-.884-.142-1.337-.208-.5-.072-.886-.37-1.375-.469-1.08-.221-2.1-.65-3.187-.853a48.539,48.539,0,0,0-6.5-.83,28.941,28.941,0,0,0-4.057.141c-1.3.112-2.624.172-3.907.408s-2.611.395-3.87.729c-.608.162-1.22.359-1.812.574a3.506,3.506,0,0,1-1.677.451c-.077-.012-.113.1-.033.121a3.614,3.614,0,0,0,1.985-.39,23.438,23.438,0,0,1,3.36-.809c1.288-.2,2.543-.477,3.844-.59,1.252-.108,2.5-.225,3.761-.294a27.359,27.359,0,0,1,7.087.555,26.69,26.69,0,0,1,3.251.8,9.547,9.547,0,0,0,1.328.376c.539.105.965.363,1.488.476.459.1.935.1,1.4.2.594.124,1.18.283,1.772.414,1.065.234,2.149.428,3.226.6a10.467,10.467,0,0,0,2.938.145c1.174-.145,2.383-.261,3.549-.456a9.254,9.254,0,0,1,1.708-.3c.553.006,1.083-.115,1.634-.152,1.089-.074,2.246-.1,3.336-.069,2.253.058,4.383.833,6.6,1.058a23.236,23.236,0,0,1,4.05,1.094c1.327.389,2.662.752,3.991,1.13a17.653,17.653,0,0,0,3.465.694,10.09,10.09,0,0,1,1.809.54c.612.162,1.249.227,1.868.363l.021.032a10.006,10.006,0,0,0-1.2.76l-.15.11a2.422,2.422,0,0,0-.594,0,12.529,12.529,0,0,1-1.74.059c-1.172-.031-2.323-.247-3.485-.382a27.466,27.466,0,0,1-3.862-.736c-1.136-.3-2.261-.722-3.422-.91-.993-.161-1.855-.579-2.858-.678-1.1-.109-2.178-.5-3.29-.639a20.67,20.67,0,0,0-3.667-.126c-1.225.064-2.445-.014-3.673.1-1.344.123-2.673.377-4,.608a14.507,14.507,0,0,0-3.666.806c-.051.023-.016.115.037.093a15.257,15.257,0,0,1,3.224-.617c1.322-.216,2.642-.476,3.975-.621a31.827,31.827,0,0,1,3.57-.123c1.135.005,2.236-.078,3.374.027a28.369,28.369,0,0,1,3.5.65c.507.11,1.039.058,1.54.207a11.616,11.616,0,0,0,1.512.486c2.231.355,4.346,1.219,6.592,1.546,1.21.175,2.444.33,3.663.425a16.98,16.98,0,0,0,1.784.038c.441-.013.9-.123,1.338-.105a18.947,18.947,0,0,1-3.736,2.314,12.126,12.126,0,0,0-3.032-.067,15.941,15.941,0,0,1-4.1-.348c-1.3-.3-2.633-.382-3.949-.606-1.244-.212-2.463-.492-3.72-.638a37.715,37.715,0,0,0-8.047-.369,20.672,20.672,0,0,0-3.694.721c-1.338.38-2.646.617-4.01.871a14.361,14.361,0,0,1-4.378.282,36.831,36.831,0,0,0-4.482-.514.072.072,0,0,0,0,.143,27.128,27.128,0,0,1,4.058.54,14.433,14.433,0,0,0,3.5.053,23.909,23.909,0,0,0,3.7-.564c1.284-.3,2.536-.733,3.839-.954a28.081,28.081,0,0,1,4.294-.254,32.808,32.808,0,0,1,3.979.356,39.973,39.973,0,0,1,4.2.643c1.262.272,2.554.342,3.824.572a22.957,22.957,0,0,0,4.053.543c1.113,0,2.215-.147,3.322-.155-.25.087-.508.165-.773.233a13.029,13.029,0,0,0-4.261,1.636c-1.075.75-1.388,2.079-2.1,3.125-1.6,2.365-5.689,2.428-6.741,5.443-.847,2.427,3.041,3.013,4.254,4.038a4.261,4.261,0,0,1,1.4,1.637c.4,1.456-.594,1.763-1.463,2.594a3.259,3.259,0,0,0-.927,1.427.681.681,0,0,0-.133-.055m10.955,14.262a11.4,11.4,0,0,0-3.843-1.058c-.738-.109-1.484-.276-2.228-.352-.8-.082-1.53.1-2.334.094a14.718,14.718,0,0,1-4.645-1.063c-1.132-.382-2.323-1.254-2.11-2.719a5.093,5.093,0,0,1,.921-1.923c.807-1.2,2.028-1.86,2.913-2.975a5.083,5.083,0,0,0,1.35-2.323c.071-.783-.474-1.144-.151-2.045.277-.768,1.048-1.12,1.591-1.651,1.489-1.454.3-3.006-1.008-4.134a13.584,13.584,0,0,0-2.759-1.423c-2.552-1.392-.444-3.507,1.141-4.451,1.252-.746,2.816-1.181,3.9-2.181,1.116-1.029,1.357-2.762,2.674-3.6a18.047,18.047,0,0,1,4.555-1.63,14.131,14.131,0,0,0,3.889-2c.838-.6,1.58-1.233,2.461-1.765a.542.542,0,0,0,.588-.318c.651-.308,1.331-.5,2-.787a22.176,22.176,0,0,1,5.057-1.876c3.9-.7,7.743,1.181,11.341,2.385a6.712,6.712,0,0,0,2.374.414,14.4,14.4,0,0,0,2.205,1.314,26.792,26.792,0,0,0,2.886,1.5,29.739,29.739,0,0,0,6.422,2.125,29.168,29.168,0,0,0,3.052.589,23.641,23.641,0,0,1,4,.449,25.952,25.952,0,0,1,4.038,1.21c.295.291.583.586.875.879a12.054,12.054,0,0,0-2.808-.848,39.149,39.149,0,0,0-8.791-.479,49.054,49.054,0,0,1-9.6-1.087,20.6,20.6,0,0,1-3.973-1.449,18.582,18.582,0,0,1-1.9-.988,7.893,7.893,0,0,1-2.272-1.316c-.076-.08-.229.029-.159.122a7.6,7.6,0,0,0,2.645,1.722,30.064,30.064,0,0,0,3.431,1.567c2.792,1.174,5.95,1.407,8.946,1.7,3.3.318,6.65,0,9.963.275a11.178,11.178,0,0,1,4.9,1.391c.238.146.468.292.7.434a28.862,28.862,0,0,1,2.61,2.841,7.651,7.651,0,0,0,.086,1.147,3.4,3.4,0,0,0,.185.639,10.977,10.977,0,0,0-4.886-2.618,28.136,28.136,0,0,0-7.47-1.394c-.945-.027-1.92-.059-2.9-.049.071-.045.142-.091.215-.134a.018.018,0,0,0-.018-.031c-.091.052-.178.111-.268.165a16.7,16.7,0,0,0-4.491.563c-2.456.72-4.575,1.253-6.572,2.9a23.947,23.947,0,0,1-8.588,4.074c-.944.275-1.883.568-2.822.865a.042.042,0,0,0-.046-.048c-4.354.648-8.652,1.8-13.055,2.248-2.261.232-4.533.3-6.8.447a23.418,23.418,0,0,0-2.628.243,15.079,15.079,0,0,1-2.629.589.079.079,0,0,0,0,.158,4.716,4.716,0,0,0,1.957-.32,16.944,16.944,0,0,1,3.3-.415c2.374-.156,4.751-.226,7.116-.5,4.262-.485,8.4-1.662,12.61-2.35-1.761.556-3.517,1.123-5.287,1.63a79.231,79.231,0,0,0-8.129,2.644,55.7,55.7,0,0,0-8.427,4.337.124.124,0,0,0,.122.215,84.922,84.922,0,0,1,16.319-6.519c1.253-.35,2.485-.758,3.72-1.161a8.691,8.691,0,0,0-1.284.756c-.661.5-1.253,1.089-1.9,1.605s-1.34.937-1.964,1.472c-.721.618-1.446,1.209-2.213,1.773a43.541,43.541,0,0,0-3.571,3c-.59.54-1.154,1.1-1.778,1.607a11.041,11.041,0,0,0-1.811,1.671c-.029.036.021.089.052.052a40.072,40.072,0,0,1,3.433-3.023,49.7,49.7,0,0,1,3.988-3.337c1.266-.935,2.477-1.948,3.72-2.91.551-.428,1.063-.9,1.587-1.361a12.556,12.556,0,0,1,2.177-1.443c.976-.316,1.956-.623,2.952-.887q.9-.239,1.793-.5a15.68,15.68,0,0,0-1.313.958c-1.124.89-2.211,1.83-3.3,2.761-2.131,1.819-4.359,3.6-6.311,5.615-1.9,1.958-3.852,3.839-5.625,5.916-.817.958-1.531,2-2.269,3.016a11.272,11.272,0,0,0-1.1,1.781c-.237-.146-.476-.291-.723-.423m20.268,2.506a14.606,14.606,0,0,1-1.481.854.563.563,0,0,0-.438.2,7.854,7.854,0,0,1-2.309.582,4.68,4.68,0,0,1-3.259-.32,11.935,11.935,0,0,1-1.849-1.592c-1.955-1.761-4.372-.293-6.616-.319a6.518,6.518,0,0,1-3.414-1.375,15.594,15.594,0,0,1,1.288-2.011,38.681,38.681,0,0,1,2.448-3.167c.852-.937,1.64-1.929,2.564-2.8s1.79-1.777,2.675-2.689c1.81-1.868,3.855-3.519,5.814-5.226,1.025-.892,2.051-1.782,3.088-2.661a24.243,24.243,0,0,1,2.169-1.7c.911-.272,1.812-.565,2.7-.9a5.745,5.745,0,0,0-.7.52,23.256,23.256,0,0,0-2.312,2.165,64.553,64.553,0,0,0-4.355,5.039,29.41,29.41,0,0,1-2.3,2.82,33.39,33.39,0,0,0-2.166,2.882c-.668.926-1.364,1.828-2.069,2.726a6.393,6.393,0,0,0-1.259,2.21.052.052,0,0,0,.1.029,8.5,8.5,0,0,1,1.742-2.638c.623-.752,1.2-1.54,1.777-2.33a32.791,32.791,0,0,1,2.24-2.929,23.945,23.945,0,0,0,1.976-2.427c1.274-1.821,2.877-3.331,4.29-5.037a27.915,27.915,0,0,1,2.258-2.209,8.047,8.047,0,0,1,1.683-1.186c.574-.242,1.143-.5,1.7-.793a15.634,15.634,0,0,0,2.846-1.713,8.645,8.645,0,0,1,3.67-2.035c1.092-.263,2.131-.686,3.218-.958a12.164,12.164,0,0,1,2.457-.314,39.5,39.5,0,0,0-3.81,3.524,64.135,64.135,0,0,0-4.609,5.28c-2.659,3.312-5.187,6.98-6.2,11.166a.051.051,0,0,0,.1.027,35.453,35.453,0,0,1,6.417-11.244c1.376-1.708,2.786-3.415,4.322-4.983a44.153,44.153,0,0,1,3.919-3.776c.5-.018.992-.021,1.489-.028.362,0,.721,0,1.079,0-.048.033-.1.063-.144.1-.524.391-.948.906-1.468,1.31a16.55,16.55,0,0,0-2.49,2.52c-1.616,1.938-3.334,3.781-4.768,5.862A53.715,53.715,0,0,0,153.1,113.8a15.226,15.226,0,0,0-1.227,3.1c-.251,1.034-.033,2.119-.346,3.142-.019.064.074.087.1.028a16.817,16.817,0,0,0,.383-2.9,13.885,13.885,0,0,1,1.343-3.386,56.553,56.553,0,0,1,3.784-6.1c1.42-2.077,3.111-3.9,4.7-5.85a18.121,18.121,0,0,1,2.854-2.919,8.72,8.72,0,0,0,.883-.855,3.72,3.72,0,0,1,.629-.508,27.435,27.435,0,0,1,6.587.757,31.06,31.06,0,0,1,3.589,1.072c1.051.406,2.955,1.009,3.687,1.925a.116.116,0,0,0,.15.027c.093.2.187.4.268.6a.194.194,0,0,0,.38-.043,3.294,3.294,0,0,0-.089-1.2c-.029-.156-.048-.31-.065-.464a.188.188,0,0,0,.169-.271c-.074-.179-.151-.352-.228-.523-.015-.341-.024-.681-.049-1.03a10.325,10.325,0,0,0-1-3.922,16.055,16.055,0,0,0-1.914-3.343c-.629-.731-.975-.852-1.148-1.9s-.118-.864.408-1.591c.175-.242.355-.485.507-.742,1.27-2.168-.616-3.971-1.485-5.887a5.514,5.514,0,0,1-.569-2.265,3.569,3.569,0,0,1,.789-1.851c.331-.556.719-.97,1.089-1.483.359-.5.488-1.138,1-1.532.069-.053-.023-.176-.093-.123a2.1,2.1,0,0,0-.672.883c-.043.074-.089.145-.137.214a4.263,4.263,0,0,0,.02-.865,9.823,9.823,0,0,1,5.756-2.418,5.914,5.914,0,0,0,.6-.071,19.605,19.605,0,0,1-1.013,2.31,5.589,5.589,0,0,0-.366,2.583,7.229,7.229,0,0,0,1.24,2.614,6.067,6.067,0,0,1,1.076,2.5,9.7,9.7,0,0,1-.142,1.652,23.8,23.8,0,0,0,.265,3.827,9.014,9.014,0,0,1-.538,3.381,20.663,20.663,0,0,0-.516,3.75,40.119,40.119,0,0,1-.978,4.421,6.576,6.576,0,0,0-.444-1.8c-.01-.023-.02-.047-.03-.071a11.851,11.851,0,0,1,.315-2.689c.177-.474.523-1.085.151-1.546-.047-.057-.145.018-.1.078.352.506-.37,1.382-.473,1.925a13.255,13.255,0,0,0-.145,1.625c-.14-.32-.279-.641-.413-.963a.115.115,0,0,0,.051-.073h0a14.175,14.175,0,0,0,.49-2.319,3.462,3.462,0,0,1,.795-2.3.05.05,0,0,0,.014-.051c-.018-.055-.037-.11-.056-.165a.044.044,0,0,0-.086.021c.038.169-.387.618-.455.753a4.1,4.1,0,0,0-.338,1.031c-.181.913-.345,1.813-.559,2.717-.08-.223-.153-.446-.219-.67a.115.115,0,0,0-.01-.1h0c-.238-.424.156-1.179.248-1.611a8.83,8.83,0,0,1,.425-1.506,6.928,6.928,0,0,0,.386-1.109,2.289,2.289,0,0,1,.5-1.362c.052-.047-.022-.117-.075-.075a1.65,1.65,0,0,0-.508,1.015,13.543,13.543,0,0,1-.638,1.808c-.241.626-.322,1.3-.543,1.93l-.05.144c-.019-.063-.037-.125-.058-.188-.059-.179-.129-.359-.2-.537a.112.112,0,0,0,.12-.1c.041-.245.052-.25-.065-.444a8.381,8.381,0,0,1,.5-2.419,4.729,4.729,0,0,1,1.8-2.741c.063-.043.006-.146-.06-.105a4.624,4.624,0,0,0-1.883,2.541c-.19.588-.325,1.2-.5,1.787a2.748,2.748,0,0,0-.153.972c-.042-.085-.087-.17-.133-.254a.139.139,0,0,0,.024-.169c-.2-.417-.013-.894,0-1.326a10.518,10.518,0,0,1,.065-1.126,13.174,13.174,0,0,1,.6-2.51,8.22,8.22,0,0,0,.464-1.856,6.988,6.988,0,0,0,.139-1.811c0-.025-.047-.02-.046.006a10.03,10.03,0,0,1-.329,2.4c-.181.8-.543,1.55-.747,2.347a16.235,16.235,0,0,0-.386,2.219,10.109,10.109,0,0,0-.158,1.207,8.92,8.92,0,0,0-.692-.927,12.573,12.573,0,0,0-1.174-1.032c-.891-.818.285-1.479.8-2.049a2.465,2.465,0,0,0,.489-2.158,4.542,4.542,0,0,0-1.558-2.806c-.6-.562-.652-1.237-1.047-1.9a1.419,1.419,0,0,1-.209-1.488,3.476,3.476,0,0,0,.2-.553.038.038,0,0,0-.073-.02c-.12.421-.477.825-.474,1.278,0,.51.463,1.054.628,1.518a2.958,2.958,0,0,0,.6,1.155,6.314,6.314,0,0,1,1.372,1.727,4.334,4.334,0,0,1,.339,1.941c-.029.849-.664,1.241-1.212,1.778s-.762,1.052-.193,1.655c.374.4.862.662,1.232,1.074a7.949,7.949,0,0,1,1.053,1.556,36.628,36.628,0,0,1,1.461,3.9c.141.351.284.706.417,1.065-.006.041-.007.082-.015.122a.162.162,0,0,0,.124.187,6.059,6.059,0,0,1,.383,2.107,13.78,13.78,0,0,1-.152,2.04c-.074.422-.1.848-.139,1.272a20.089,20.089,0,0,0-3.279,2.616c-1.221,1.144-2.677,2.124-3.846,3.3a9.688,9.688,0,0,0-1.99,2.961c-.6,1.433-.6,3.1-1.443,4.429-.957,1.514-2.441,1.965-3.85,2.875a1.941,1.941,0,0,0-1.018,1.992,10.21,10.21,0,0,1,.213,1.388,1.736,1.736,0,0,1-.418,1.058,21.186,21.186,0,0,0-2.321,1.074.07.07,0,0,0,.069.122c.423-.186.864-.345,1.306-.5-.332.165-.685.3-1.013.421a10.716,10.716,0,0,0-2.877,1.339,10.333,10.333,0,0,1-10.183,1.366c-2.427-.838-4.124-1.555-6.431-.072m-.862,7.015-.16-.348a.662.662,0,0,0-.176-.236,2.873,2.873,0,0,1,.069-.609c.094-.409.269-.8.364-1.208a10.393,10.393,0,0,0-.09-3.18.691.691,0,0,0-.057-.23c.511-.329,1.011-.688,1.543-1.009,1.68-1.012,3.165-.57,4.881.067a17.72,17.72,0,0,0,4.364,1.03,8.7,8.7,0,0,0,4.554-.674c.134-.059.26-.127.387-.194a.746.746,0,0,0-.1.081c-.073.073,0,.231.108.19a5.254,5.254,0,0,1,2.391-.14,3.209,3.209,0,0,0,1.262-.156,4.916,4.916,0,0,1,1.681-.125,13.736,13.736,0,0,0,3.19-.483,22.461,22.461,0,0,0,2.949-1,18.652,18.652,0,0,0,2.753-1.5,16.51,16.51,0,0,1,3.329-1.046c.576-.175,1.125-.428,1.7-.594.546-.157,1.113-.224,1.661-.367.612-.161,1.2-.355,1.824-.482a4.834,4.834,0,0,1,1.653-.244c.067.01.085-.108.017-.119a7.25,7.25,0,0,0-2.7.423c-1.224.313-2.452.534-3.651.939-1.133.383-2.353.487-3.456.953-1.037.438-1.939,1.164-2.985,1.583a17.756,17.756,0,0,1-6.907,1.48,4.821,4.821,0,0,0-1.278.214,6.284,6.284,0,0,1-1.833.013,3.574,3.574,0,0,0-1.3.2,14,14,0,0,0,1.327-.931,8.846,8.846,0,0,1,1.246-.808.111.111,0,0,0,.079.086,6.246,6.246,0,0,0,2.541.028,10.312,10.312,0,0,0,3-.53c.91-.424,1.864-.73,2.778-1.184,1.119-.554,2.183-1.217,3.263-1.843a.058.058,0,0,0-.057-.1c-.961.537-1.917,1.082-2.906,1.569a16.34,16.34,0,0,1-1.6.711,8.685,8.685,0,0,0-1.112.336,7.407,7.407,0,0,1-2.634.68,10.251,10.251,0,0,1-3.107.123,12.187,12.187,0,0,1,1.245-.523,6.118,6.118,0,0,0,2.553-1.354,10.437,10.437,0,0,0,1.449-.651,4.411,4.411,0,0,0,2.705-.35c.695-.245,1.423-.392,2.113-.647a11.649,11.649,0,0,0,1.859-1.037.069.069,0,0,0-.068-.12,11.338,11.338,0,0,1-1.829,1.01c-.6.215-1.238.317-1.844.518a6.564,6.564,0,0,1-2.757.523,5.2,5.2,0,0,0,1.25-1.023,14.931,14.931,0,0,1,6.04-3.778c2.382-.869,4.29-2.37,6.977-2.143.6.051,1.2.116,1.788.22-.065.123.057.3.206.211a.765.765,0,0,1,.359-.094,9.26,9.26,0,0,1,.926.263,15.886,15.886,0,0,1,2.375,1.807c1.246.966,2.662,1.691,3.89,2.657.935.735,1.842,1.51,2.793,2.222a43.689,43.689,0,0,1,3.792,3.273c2.213,2.082,4.658,3.958,6.305,6.536.436.682,1.009,1.2,1.421,1.911a10.564,10.564,0,0,0,.878,1.372c.84,1.05,1.31,2.3,2.152,3.346,1.849,2.3,4.515,3.86,6.752,5.728.82.685,1.657,1.383,2.473,2.11a2.954,2.954,0,0,0,.6,1.071c.15.17.37,0,.36-.187a21.051,21.051,0,0,1,3.59,4.278c1.56,2.568,3.592,4.729,4.989,7.4a11.5,11.5,0,0,0,2.275,3.055c.5.49,1.013.967,1.5,1.473.536.557.915,1.206,1.45,1.77a24.926,24.926,0,0,1,5.326,8.109c.284.709.834,1.32,1.082,2.029.274.783-.005,1.048-.259,1.714-.365.957.174,1.472.485,2.16a2.565,2.565,0,0,0-.588-.426c-1.559-.617-2.918.621-4.254-.837-.51-.556-.6-1.12-1.25-1.586a3.9,3.9,0,0,0-1.552-.638c-.818-.156-2.081-.141-2.61.653a1.107,1.107,0,0,0-.12.241,1.311,1.311,0,0,0-1.3-.089,1.512,1.512,0,0,0-.351.25c-.171-.193-.317-.459-.468-.646a21.654,21.654,0,0,1-1.632-2.589,16.709,16.709,0,0,1-1.808-5.74,8.718,8.718,0,0,0-.761-2.462c-.441-.873-1-1.676-1.467-2.536a11.1,11.1,0,0,0-1.238-2.111c-.648-.748-1.132-1.586-1.779-2.341-1.274-1.485-2.475-3.039-3.739-4.535-.576-.681-1-1.429-1.533-2.127-.656-.854-1.084-1.846-1.733-2.7a12.757,12.757,0,0,1-.883-1.15c-.228-.377-.408-.782-.635-1.158a10.406,10.406,0,0,0-.691-.959,15.445,15.445,0,0,1-1.063-1.716,56.064,56.064,0,0,0-3.383-4.843,14.987,14.987,0,0,0-2.089-2.369c-.78-.688-1.647-1.258-2.4-1.978-.8-.762-1.738-1.225-2.6-1.9a6.469,6.469,0,0,0-1.043-.747c-.471-.238-1.06-.345-1.365-.824a.089.089,0,0,0-.155.088c.3.536.889.666,1.4.947.838.465,1.6,1.192,2.412,1.719s1.42,1.288,2.173,1.884a17.05,17.05,0,0,1,2.325,2.071A58.348,58.348,0,0,1,207.7,144c.576.819,1,1.733,1.584,2.54.574.789,1.057,1.572,1.551,2.412.451.763,1.076,1.389,1.52,2.163.528.918,1.137,1.772,1.706,2.661,1.025,1.6,2.513,2.956,3.682,4.46.623.8,1.359,1.554,1.9,2.411.453.718,1.064,1.308,1.483,2.044.453.8.855,1.613,1.332,2.4a9.865,9.865,0,0,1,1.37,2.981c.45,2.062.667,4.218,1.731,6.083.267.47.569.919.856,1.375s.5.983.821,1.394c.219.279.472.577.712.828a1.126,1.126,0,0,0,.121.106,4.568,4.568,0,0,0-.434.7c-.075.137-.155.266-.233.4,0-1.765-3.627-1.366-4.555-.208-.413.514-.593,1.555-1.1,1.943a2,2,0,0,1-1.891.092c-.242-.1-.419-.316-.681-.4a1.806,1.806,0,0,0-2.1,1.253,11.55,11.55,0,0,1-1,2.257,7.969,7.969,0,0,1-2.469,2.073c-1.473.9-1.9,2.665-3.442,3.525-3.14,1.75-4.706-2.912-4.938-5.17a14.533,14.533,0,0,0-.19-2.293c-.24-.9-.827-1.619-.686-2.612.02-.144-.209-.169-.247-.035a3.077,3.077,0,0,0,.045,1.6,15.21,15.21,0,0,1,.323,2.875,9.124,9.124,0,0,0,1.275,4.854,4.2,4.2,0,0,0,3.238,1.983c1.543-.1,2.737-1.449,3.612-2.578,1.063-1.37,2.7-1.931,3.843-3.238a5.989,5.989,0,0,0,1.1-1.809,5.383,5.383,0,0,1,.458-1.315c.87-1.042.952-.38,1.535-.1.976.467,1.851.747,2.7-.146a7.58,7.58,0,0,0,.9-1.529,2.24,2.24,0,0,1,1.486-1.287,2.069,2.069,0,0,1,2.421.847c-.332.5-.687.984-1.075,1.473-.686.868-2.1,1.74-2.348,2.849-.05.221.252.459.42.245.781-.993,1.916-1.657,2.728-2.676a15.9,15.9,0,0,0,1.153-1.539c.135-.221.223-.5.377-.7.128-.172,1.453-1.385,1.552-.711l0,.014a.761.761,0,0,1,0,.163.11.11,0,0,0,.085.108c.291.757.89,1.2.708,2.278-.553,3.286-5.017,4.11-6.064,7.032-.082.227.3.391.393.167.512-1.2,2.034-2.124,2.993-2.947a15.323,15.323,0,0,0,2.376-2.328,4.325,4.325,0,0,0,.967-2.449,7.491,7.491,0,0,0-.213-1.149c-.115-1.182-.806.6.161-1.25q.161-1.228,1.241-.713l.786.336c1.118.737,1.156,2.251,2.45,2.838,1.111.5,2.236-.146,3.36.211.594.189.973.831,1.592.9,1.679.187,1.284-1.729,3.347-.022a2.27,2.27,0,0,0,1.873.727,2.5,2.5,0,0,1,2.492,1.1,3.3,3.3,0,0,1,.705,2.286c-.37,2.988-4.692,2.462-5.126,5.138a5.492,5.492,0,0,0,.112,1.212c.057,1.1-.517,1.527-1.372,1.977a13.478,13.478,0,0,1-5.331,1.177,6.992,6.992,0,0,1-4.608-.935,8.2,8.2,0,0,0-3.381-1.5,12.362,12.362,0,0,0-7.652,1.294,18.929,18.929,0,0,1-6.714,1.895.069.069,0,0,0-.079.007,27.387,27.387,0,0,1-2.8.15,7.293,7.293,0,0,1-4.2-1.278c-1.451-.944-3.311-2.3-4-3.931a22.694,22.694,0,0,1-1.75-4.13c-.27-1.464.032-2.778-.455-4.23-.481-1.432-.254-2.641-.441-4.086a19.808,19.808,0,0,0-1.05-3.589,5.678,5.678,0,0,1,.077-3.76,4.932,4.932,0,0,0-.318-3.21,14.834,14.834,0,0,0-5.759-6.091c-2.617-1.594-6.784-3.338-7.623-6.493a20.39,20.39,0,0,1-.407-5.392,5.2,5.2,0,0,0-1.175-2.915,15.182,15.182,0,0,0-2.253-3.427c-.524-.463-1.175-.818-1.722-1.274a3.832,3.832,0,0,0-1.193-.716c-1.645-.6-3.1-1.461-4.778-2.041s-3.295-1.272-4.969-1.841c-1.061-.36-2.133-.687-3.22-.963a3.271,3.271,0,0,0-2.838-.7,10.93,10.93,0,0,0-3.032-.449c-1.019-.122-2.091-.348-3.16-.5.559-.1,1.122-.178,1.68-.264a12.824,12.824,0,0,1,2.78-.015c.858.051,1.711-.037,2.569-.016.785.02,1.518.3,2.3.352.7.045,1.35.216,2.041.3a2.491,2.491,0,0,0,1.639-.424q2.449-1.378,4.885-2.779,2.366-1.354,4.726-2.718a19.593,19.593,0,0,1,5.284-2.108,18.2,18.2,0,0,1,5.1-.936,7.864,7.864,0,0,1,2.288.788,5.212,5.212,0,0,1,1.309.573,9.193,9.193,0,0,0,1.107.683c.109.053.206-.108.1-.164-.634-.32-1.153-.838-1.811-1.113-.341-.143-.695-.2-1.025-.377a8.537,8.537,0,0,0-.785-.446,7.4,7.4,0,0,0-4.207.132,39.2,39.2,0,0,0-5,1.322,36.312,36.312,0,0,0-4.8,2.483q-2.565,1.424-5.117,2.872c-.861.485-1.713,1.015-2.595,1.462-.792.4-1.458.032-2.266-.068-.787-.1-1.542-.179-2.325-.32a13.808,13.808,0,0,0-2.557-.031c-.825.006-1.644-.124-2.467-.111a17.361,17.361,0,0,0-2.527.342,17.785,17.785,0,0,0-2.012.436,7.894,7.894,0,0,0-1.146.067,25.519,25.519,0,0,0-5.891,1.812c-.237.1-.458.21-.674.324a.433.433,0,0,0-.46.248,4.762,4.762,0,0,1-2.079.71,4.668,4.668,0,0,0-1.157.123,2.531,2.531,0,0,0-.452.24,3.215,3.215,0,0,0,.739-1.171,3.489,3.489,0,0,0-.6-1.985c-.11-.247-.213-.486-.3-.725a.753.753,0,0,0,.064-.789m22.457,10.829a7.7,7.7,0,0,1,.457,2.071l.013.105c-4.045,1.078-8.723,1.493-11.931-1.782-.271-.276-.608-.633-.99-1.011a28.432,28.432,0,0,0,2.578,1.488c1.41.674,3.016,1.453,4.6,1.283a11.023,11.023,0,0,0,5.268-2.153m-6.925.661a21.158,21.158,0,0,1-4.717-2.356c-1.591-.977-3.764-2.229-5.668-1.912-.134-.949-.2-1.912-.283-2.815.076-.042.154-.084.232-.122a24.888,24.888,0,0,1,3.355-1.153,12.947,12.947,0,0,1,2.827-.773,20.894,20.894,0,0,1,3.054.144c.651.045,1.3.128,1.944.181a.494.494,0,0,0,.408.589,5.205,5.205,0,0,1,3.184,1.687,6.692,6.692,0,0,1,.913,2.054c.233.632.627,1.17.873,1.793.159.4.267.786.421,1.171-2.059.973-4.185,2.246-6.544,1.513m-22.833,22.3a13.379,13.379,0,0,1,.482,1.262c-.084.182-.163.367-.234.553-.118-.594-.185-1.205-.247-1.815m-64.2,52.628a14.476,14.476,0,0,1-2.452,2.267,4.526,4.526,0,0,0-1.417,1.368c-.813.3-1.626.6-2.447.894-1.743.616-3.466,1.286-5.2,1.92.537-.395,1.076-.786,1.634-1.124a17.928,17.928,0,0,0,2.143-1.558,23.591,23.591,0,0,1,2.828-1.78,14.825,14.825,0,0,0,1.629-1.343c.692-.579,1.505-.961,2.186-1.555a20.1,20.1,0,0,1,2.09-1.591c.589-.4,1.069-.892,1.6-1.326a12.882,12.882,0,0,1-2.595,3.828m87.6-55.349a10.8,10.8,0,0,1,2.937.368,15.881,15.881,0,0,0-4.137.447,14.359,14.359,0,0,0-2.732.876c-.364.175-.7.368-1.027.559a12.005,12.005,0,0,0,1.489-1.436.363.363,0,0,0,.525-.406c-.157-.762,2.542-.418,2.944-.407m-14.05,7.167c.866-.173,1.586-.667,2.43-.923a19.9,19.9,0,0,0,3.459-1.048c.806-.412,1.582-.57,2.4-.91a11.707,11.707,0,0,0,1.727-.97,25.411,25.411,0,0,0-5.51,4.927c-1.079,1.256-2.295,2.37-3.394,3.594-1.156,1.288-2.027,2.837-3.16,4.165a95.342,95.342,0,0,1-7.386,8.276c-2.574,2.388-5.3,4.6-7.866,7a104.81,104.81,0,0,1-8.282,7.287c-1.336,1.012-2.688,2-3.994,3.052-1.4,1.13-2.962,1.958-4.377,3.048-1.343,1.035-2.771,1.854-4.133,2.846a39.115,39.115,0,0,1-4.7,3.192c-1.349.716-2.749,1.2-4.146,1.8-1.6.687-3.052,1.675-4.644,2.38q.278-.164.562-.326c1.329-.753,2.658-1.5,4.013-2.2a26.7,26.7,0,0,0,3.272-2.378,36.143,36.143,0,0,1,3.474-1.974c1.207-.685,2.04-1.773,3.227-2.457,2.5-1.444,4.252-3.731,6.872-5.013a11.565,11.565,0,0,0,2.918-1.989c.574-.538,1.1-1.147,1.715-1.634.585-.458,1.267-.739,1.857-1.194,2.326-1.789,4.471-3.9,6.723-5.786a23.525,23.525,0,0,0,2.923-2.595c.246-.29.438-.613.668-.914.476-.622,1.131-1,1.621-1.605,1.8-2.205,3.7-4.376,5.378-6.689.915-1.262,1.49-2.748,2.473-3.96a8.329,8.329,0,0,0,1.917-2.568c.044-.14-.173-.2-.22-.06-.389,1.163-1.5,1.82-2.235,2.741-.839,1.048-1.428,2.267-2.238,3.335-1.618,2.135-3.645,3.96-5.263,6.074-.583.763-1.311,1.278-1.923,2a21.51,21.51,0,0,1-2.9,2.944c-2.237,1.815-4.5,3.647-6.623,5.6-.99.913-2.212,1.415-3.186,2.325a16.5,16.5,0,0,1-3.609,2.929,15.537,15.537,0,0,0-3,1.74c-1.216,1.018-2.2,2.343-3.594,3.133a12.622,12.622,0,0,0-2.56,1.833,24.65,24.65,0,0,1-4.04,2.4,25.48,25.48,0,0,0-2.506,1.925,29.764,29.764,0,0,1-4.035,2.313c-2.81,1.591-5.545,3.622-8.632,4.6-1.479.468-2.661,1.441-4.105,1.967a17.169,17.169,0,0,0-3.047,1.409c-2.247.67-4.547,1.206-6.787,1.815-3.456.938-6.93,1.774-10.415,2.6a59.605,59.605,0,0,1-10.951,2.029c-3.756.173-7.509.426-11.263.667-3.566.228-7.165.394-10.712.857-1.356.176-2.354.9-3.628,1.3a19.044,19.044,0,0,0-4.252,1.9c-1.685,1-3.13,2.289-4.792,3.3-1.354.82-2.442,1.786-3.721,2.7-3,2.133-4.828,5.456-7.481,7.938a11.834,11.834,0,0,0-1.328,1.465,27.17,27.17,0,0,1,3.509-6.646c.7-.926,1.146-1.983,1.776-2.949.892-1.367,2.321-2.31,3.443-3.477,2.195-2.285,4.987-3.492,7.7-5.055,3.06-1.761,6.186-4.05,9.513-5.264a22.005,22.005,0,0,1,8.97-1.231,14.323,14.323,0,0,0,3.6-.029c1.611-.275,3.188-.124,4.788-.352a79.819,79.819,0,0,0,9.254-2.245c3.316-.888,6.151-2.809,9.091-4.522.81-.473,1.672-.911,2.492-1.4-.561.448-1.12.9-1.671,1.363-.805.678-1.79,1.008-2.642,1.607s-1.6,1.369-2.476,1.953a45.262,45.262,0,0,0-5.159,3.686.475.475,0,0,0-.157.315c-.6.18-1.209.354-1.822.507-.448.112-.262.731.17.677,3.656-.465,7.053-1.818,10.517-3.008,3.379-1.159,6.68-2.306,9.978-3.689,1.761-.738,3.552-1.3,5.348-1.941,1.863-.659,3.563-1.7,5.4-2.418a62.392,62.392,0,0,0,9.3-4.7c1.4-.849,2.68-1.885,4.03-2.81,1.542-1.057,3.2-1.918,4.726-3,1.412-1,2.881-1.889,4.309-2.862,1.493-1.015,2.777-2.3,4.17-3.441a55.947,55.947,0,0,0,7.422-8c2.237-2.705,4.445-5.444,6.414-8.354,2.273-3.36,4.086-7,6.438-10.31a24.915,24.915,0,0,0,2.256-3.454,3.111,3.111,0,0,0,.715,1.07c1.454,1.386,3.768.725,5.43.128.025-.01.05-.016.075-.024,1.313.591,2.767-.06,4.087-.324m10.289-9.676c.022.171.052.362.1.554a9.433,9.433,0,0,1-2.167,2.738,22.043,22.043,0,0,1-6.279,3.531c.2-.184.4-.368.632-.544a3.069,3.069,0,0,0,.857-.716,2.978,2.978,0,0,1,1.075-1.067.116.116,0,0,0-.115-.2,4.8,4.8,0,0,0-1.149.73c-.024.023-.025.07-.044.089a9.822,9.822,0,0,1-.906.8c-.5.422-.989.866-1.478,1.307-.071.023-.144.05-.215.072a13.741,13.741,0,0,1-2.546.46c.555-.271,1.1-.5,1.3-.645,1.138-.815,1.677-2.3,2.647-3.29.176-.179-.084-.43-.272-.273-.9.75-1.4,1.761-2.216,2.568a7.121,7.121,0,0,1-1.918,1.144,5.83,5.83,0,0,0-1.377.825c-.406.124-.806.272-1.208.415a6.993,6.993,0,0,0,1.021-1.066,16.719,16.719,0,0,1,4.371-4.408c.138-.089.017-.309-.127-.224a16.655,16.655,0,0,0-4.071,3.368,11.929,11.929,0,0,1-1.909,1.934,3.6,3.6,0,0,0-.722.814,4.177,4.177,0,0,1-1.03.106c.224-.311.424-.634.522-.78.586-.878.912-1.885,1.455-2.786a27.07,27.07,0,0,1,2.16-2.575,22.361,22.361,0,0,1,2.117-2.764c.127-.119-.058-.3-.188-.19a15.775,15.775,0,0,0-1.909,2.214c-.7.856-1.574,1.551-2.267,2.4a13.766,13.766,0,0,0-1.349,2.314,9.9,9.9,0,0,1-1.347,1.91,1.454,1.454,0,0,1-.412-.444,3.666,3.666,0,0,1,.127-.613.235.235,0,0,0,.059-.007l.353-.1a.46.46,0,0,0,.329-.551q-.1-.325-.2-.642a11.832,11.832,0,0,0,1.493-3.353,8.619,8.619,0,0,1,.225-2.1,7.855,7.855,0,0,0,.419-1.268,12.487,12.487,0,0,1,.194-1.8c.169-.566.5-1.111.705-1.674.062-.171-.208-.242-.273-.075-.248.645-.64,1.229-.833,1.894-.187.638-.11,1.337-.313,1.967a12.545,12.545,0,0,0-.7,1.62,7.369,7.369,0,0,1-.631,2.72c-.181.335-.39.7-.6,1.084a14.025,14.025,0,0,1-.668-3.134c-.129-1.673.621-2.88,1.051-4.433.412-1.487.538-3.033.955-4.523.372-1.338,1.154-2.541,1.415-3.9.027-.136-.181-.2-.21-.058-.308,1.493-1.237,2.937-1.7,4.413a44.6,44.6,0,0,1-1.581,5.27,7.608,7.608,0,0,0-.76,2.757,33.423,33.423,0,0,1,.96-14.08,31.167,31.167,0,0,1,1.783-3.806,30.432,30.432,0,0,0,1.225-3.546c.443-1.4,1.192-2.622,1.747-3.971a31.554,31.554,0,0,1,1.192-3.055,2.07,2.07,0,0,1,.132,1.9c-.33.59-.743.861-.661,1.61a.654.654,0,0,0,.448.6c.556.223.837.006,1.364-.167.109-.035.219-.065.328-.091a9.3,9.3,0,0,0,.989,6.081,19.615,19.615,0,0,0,1.887,3.194,15.1,15.1,0,0,0,2.741,2.149c1.313.964,2.833,2.157,1.909,3.946a3.877,3.877,0,0,0-.761,1.942c.025,1.222.963,2.42,1.319,3.552a17.477,17.477,0,0,0,1.449,3.63.126.126,0,0,0,.22-.124,41.666,41.666,0,0,1-1.456-4.169c-.538-1.53-1.553-2.711-.556-4.328a2.479,2.479,0,0,0,.006-3.229c-1.392-1.83-3.772-2.543-4.935-4.586-1.472-2.585-2.522-5.2-1.919-8.21a8.512,8.512,0,0,0,1.424-.257A3.531,3.531,0,0,0,147.9,139a17.836,17.836,0,0,0,.206,2.607,3.6,3.6,0,0,0-.6.5.359.359,0,0,0,.338.6c.152-.031.3-.058.448-.083.089.435.189.861.3,1.267a11.17,11.17,0,0,0,2.728,5.17c1.68,1.62,3.27,4.065,3.3,6.436.021,2.081.074,4.1,1.644,5.628l.013.01a7.928,7.928,0,0,1,.294,1.323m6.42-8.315a12.932,12.932,0,0,1-2.471,3.039,4.7,4.7,0,0,0-1.869,2.078,13.361,13.361,0,0,1-.805,1.612,8.729,8.729,0,0,0-1.37-2.394,9.322,9.322,0,0,1-.262-1.516c-.066-.867.023-1.739-.076-2.6-.215-1.87-1.538-3.763-2.671-5.219-.537-.688-1.3-1.164-1.839-1.838a15.423,15.423,0,0,1-1.435-3.065,8.766,8.766,0,0,1-.474-1.385,2.252,2.252,0,0,1,2.09.448,14.051,14.051,0,0,1,2.109,1.465,12.288,12.288,0,0,0,4.132,2.962,10.919,10.919,0,0,0,4.914.62,14.777,14.777,0,0,0,2.065-.335c.4-.09,1.438-.54,2.188-.684a10.779,10.779,0,0,0,.344,1.786.547.547,0,0,0-.14.044c-1.935.957-3.222,3.275-4.429,4.988m30,38.976c-.537,2.71-1.064,5.284-2.9,7.417a7.772,7.772,0,0,0-1.619,2.205,13.787,13.787,0,0,0-.306,2.443,19.679,19.679,0,0,1-1.3,3.106,6,6,0,0,1-2.167,2.856c-1.813-2.475-.774-5.929-.585-8.781.089-1.343.193-2.671.349-4.008a7.581,7.581,0,0,0-.578-3.472c-.924-2.7-1.653-5.571-3.31-7.937-.79-1.127-1.629-2.145-2.338-3.333a14.029,14.029,0,0,0-2.482-2.917,7.828,7.828,0,0,1-2.525-3.932c-.312-1.41-.2-2.836-.615-4.237-.809-2.736-2.206-5.3-2.447-8.193-.111-1.34.337-2.627.292-3.962a35.043,35.043,0,0,1-.228-4.588,9.271,9.271,0,0,0-.137-3.338c-.372-1.414-1.149-2.753-1.443-4.18-.237-1.153-.049-2.549-.507-3.686-.609-1.512-1.513-2.934-2.06-4.478a5.666,5.666,0,0,0-2.9-3.439c.3.022.593.049.89.081a2.418,2.418,0,0,1,.746.371c.126.093.319-.093.224-.222-.005-.007-.013-.014-.018-.022.173.03.346.059.519.1s.33.08.5.117a19.86,19.86,0,0,1,2.232,1.9,15.827,15.827,0,0,1,2.772,3.423,26.859,26.859,0,0,0,2.171,3.125,27.2,27.2,0,0,1,2.5,4.11c.346.6.693,1.2,1.026,1.793a.166.166,0,0,0,.134.242q.151.274.3.548c-.049.31-.126.624-.133.667a1.9,1.9,0,0,0,.052.765,17.252,17.252,0,0,1,.5,2.845c.074,1.07.184,1.778-.705,2.566a2.366,2.366,0,0,0-.86,1.774c-.136,1.959.172,3.925-.073,5.875a9.919,9.919,0,0,0-.147,2.571,8.147,8.147,0,0,0,.946,2.5,20.544,20.544,0,0,1,1.05,3.047,10.785,10.785,0,0,1,.7,3.511c-.068,1.73,1.31,2.816,2.387,3.98a18.824,18.824,0,0,1,3.589,5.924c.327.857.547,1.759.826,2.632a15.032,15.032,0,0,1,.573,3.278c.105,1.1.277,2.188.43,3.28.155,1.111.212,2.231.362,3.34a5.272,5.272,0,0,1,.087,1.95c-.091.4-.2.769-.251,1.172a6.6,6.6,0,0,1-.413,1.49,5.241,5.241,0,0,0-.233,1.372c0,.041.059.041.065,0a6.1,6.1,0,0,1,.513-1.739,3.741,3.741,0,0,0,.238-.909,9.769,9.769,0,0,0,.343-2.621q-.366-3.192-.758-6.381c-.125-1-.1-2.035-.315-3.025-.231-1.086-.621-2.16-.938-3.224a19,19,0,0,0-2.893-5.636c-.664-.889-1.475-1.626-2.195-2.463a4.884,4.884,0,0,1-.784-1.219,3.884,3.884,0,0,1-.181-1.675,11.188,11.188,0,0,0-.646-2.855,22.891,22.891,0,0,0-1.112-3.314,6.933,6.933,0,0,1-.983-3.161c.021-1.044.28-2.068.311-3.111.03-1.014-.062-2.04-.05-3.057.005-.506-.029-1.016.006-1.521a2.139,2.139,0,0,1,.918-1.623,2.346,2.346,0,0,0,.7-2.1,17.23,17.23,0,0,0-.363-2.883c-.06-.237-.16-.461-.215-.7a1.385,1.385,0,0,1,0-.65,12.331,12.331,0,0,1,1.5,5.946c-.081,2.549-.459,4.988.764,7.339,1.44,2.767,3.97,4.833,5.722,7.394,1.271,1.857,2.646,3.621,3.935,5.458.124.489.249.975.4,1.448.473,1.523.949,3.008,1.284,4.571a23.549,23.549,0,0,1,.915,4.438,17.7,17.7,0,0,0,.294,1.935c.053.421.035.844.077,1.266a5.815,5.815,0,0,1,.105,1.067.076.076,0,0,0,.149.021,7.544,7.544,0,0,0-.023-1.949c-.027-.8-.31-1.536-.326-2.336a22.135,22.135,0,0,0-.893-4.375c-.359-1.606-.83-3.134-1.325-4.7-.08-.25-.152-.5-.223-.761.36.526.713,1.059,1.05,1.6a38.486,38.486,0,0,1,2.014,3.372c.7,1.443.457,3.146.788,4.7a19.558,19.558,0,0,0-.737,3.789m24.1,45.371a4.913,4.913,0,0,1-.363-1.874,21.2,21.2,0,0,0-1.147-4.034c-.423-1.182-.391-2.515-.99-3.624a22.809,22.809,0,0,0-2.717-3.471c-1.918-2.31-4.053-4.271-6.134-6.409a13.948,13.948,0,0,1-3.656-8.576,66.052,66.052,0,0,0-1.171-8.883,27.375,27.375,0,0,0-3.569-8.233,17.073,17.073,0,0,1-2.129-4.32c-.359-1.428-.121-2.97-.618-4.359-.9-2.5-2.8-4.817-4.239-7.03a75.258,75.258,0,0,0-5.426-7.327c-1.838-2.188-4.323-4.25-4.609-7.284-.293-3.094.484-5.891-.7-8.9a30.412,30.412,0,0,0-2.353-4.438,43.192,43.192,0,0,0-2.588-4.358c-.814-1.043-1.726-2.019-2.508-3.1a21.874,21.874,0,0,0-2.663-3.3c-.376-.351-.927-.876-1.558-1.389.957.284,1.9.6,2.843.939,1.587.571,3.141,1.223,4.721,1.812a11.357,11.357,0,0,1,2.293,1.181c.831.537,1.82.674,2.609,1.241a8.516,8.516,0,0,1,2.883,3.2c.655,1.3,1.739,2.7,1.612,4.2-.239,2.836-.29,6.686,2.1,8.7,2.546,2.142,5.74,3.419,8.239,5.581a12.625,12.625,0,0,1,3.423,4.184c.7,1.642-.122,2.67-.211,4.265a9.18,9.18,0,0,0,.808,3.4,10.818,10.818,0,0,1,.836,2.752c.039.72-.133,1.425-.033,2.151.215,1.559.845,2.8.842,4.419a8.062,8.062,0,0,0,1.163,4.019c.752,1.448.86,2.694,2.1,3.822a23.493,23.493,0,0,0,3.591,2.83,8.161,8.161,0,0,0,3.524,1.112c-.032.069-.065.138-.091.21-.158.434-.212.9-.336,1.345-.285,1.02-.8,1.96-1.1,2.975-.017.058.075.1.1.042a27.734,27.734,0,0,0,1.144-2.85c.144-.482.2-.991.363-1.465a2.59,2.59,0,0,1,.1-.242,16.758,16.758,0,0,0,3.059-.091,3.171,3.171,0,0,1-.263.527,4.621,4.621,0,0,0-.581,1.246c-.338,1.128-.931,2.12-1.33,3.222-.41,1.136-.861,2.256-1.24,3.4-.32.97-1.03,1.742-1.3,2.721-.016.057.072.1.1.041.4-.844,1.061-1.522,1.38-2.409.426-1.182.842-2.366,1.277-3.545.423-1.149,1-2.192,1.36-3.365a10.21,10.21,0,0,1,.711-1.489,2.858,2.858,0,0,0,.148-.381c.317-.036.634-.075.954-.118.925-.122,1.89-.257,2.834-.457a14.306,14.306,0,0,0-.622,1.328,16.772,16.772,0,0,0-.845,1.741c-.591,1.449-1.065,2.941-1.758,4.347a37.334,37.334,0,0,1-2.261,3.53,13.458,13.458,0,0,0-2.011,3.449c-.017.06.078.105.106.045a25.259,25.259,0,0,1,2.121-3.368,33.853,33.853,0,0,0,2.26-3.531c.586-1.209,1.019-2.479,1.488-3.735a17.308,17.308,0,0,1,.929-2.163,13.755,13.755,0,0,1,.773-1.658c.005-.007,0-.016,0-.023q.531-.118,1.048-.273a2.381,2.381,0,0,0-.105.491,2.448,2.448,0,0,0,.06.569c-.034-.045-.071-.087-.1-.134-.066-.09-.212-.014-.155.088.082.143.175.283.273.421-.016.254-.067.506-.069.76a11.158,11.158,0,0,0,.328,2.55.084.084,0,0,0-.044.112.776.776,0,0,1,.067.2c-.135-.106-.273-.21-.417-.3-.106-.069-.2.1-.1.169a5.231,5.231,0,0,1,.525.431,7.18,7.18,0,0,1-.217.777c-.1.4-.115.812-.2,1.213-.169.8-.458,1.566-.655,2.354a30.186,30.186,0,0,0-.92,4.32c-.08.8-.308,1.575-.376,2.374a14.294,14.294,0,0,1-.279,2.448,5.763,5.763,0,0,0-.273,1.886,9.91,9.91,0,0,1,.35,1.969c-.013.1.146.118.174.024a3.564,3.564,0,0,0-.172-1.713,6.585,6.585,0,0,1,.361-2.536,19.828,19.828,0,0,0,.186-2.2c.107-.944.32-1.868.413-2.82a15.609,15.609,0,0,1,.581-2.53c.219-.809.395-1.629.628-2.437.246-.851.292-1.749.548-2.587q.035-.113.064-.213a21.871,21.871,0,0,0,1.261,3.408,7.7,7.7,0,0,1,.867,4.3,12,12,0,0,0-.125,1.46,14.455,14.455,0,0,1-.4,2.144,9.023,9.023,0,0,0,.112,3.563c.087.442.166.892.241,1.344a5.826,5.826,0,0,1-.326,1.279c-.177.405-.327.819-.5,1.226a11.921,11.921,0,0,0-.777,2.682c-.322,1.837-.624,3.876-1.93,5.315-.05.055.015.155.083.11,1.372-.912,1.758-3.239,1.994-4.726a14.808,14.808,0,0,1,.824-3.266c.2-.485.416-.977.577-1.47a3.574,3.574,0,0,0,.135-.66c.11.713.2,1.429.272,2.136a9.386,9.386,0,0,1,.059,1.619,11.45,11.45,0,0,1-.564,2.124,26.944,26.944,0,0,0-.774,4.364,44.215,44.215,0,0,1-1.1,4.709.122.122,0,0,0,.234.065,24.033,24.033,0,0,0,1.206-4.032c.227-1.4.318-2.806.649-4.194a15.049,15.049,0,0,0,.8-3.489,21.2,21.2,0,0,0-.438-3.537,17.611,17.611,0,0,1-.476-4.371,8.218,8.218,0,0,1,.233-1.238,5.015,5.015,0,0,0,.393.708,5.735,5.735,0,0,1,.805,1.686c.156.523.461.954.653,1.473a11.642,11.642,0,0,0,.648,1.437c.608,1.159,1.169,2.358,1.742,3.534a6.6,6.6,0,0,1,.6,3.412c0,.082.125.123.159.045.882-2-.9-4.388-1.7-6.1-.544-1.165-1.107-2.333-1.687-3.464a14.027,14.027,0,0,0-.591-1.533,9.055,9.055,0,0,1-.971-1.41c.046-.191.089-.382.125-.574.113-.609.075-1.219.143-1.831a6.876,6.876,0,0,0,.153-1.646,13.3,13.3,0,0,0-.477-1.9,7.374,7.374,0,0,0-.553-1.47,14.883,14.883,0,0,1-.812-2.069q-.166-.474-.319-.953c.4.287.761.65,1.157.949q1.544,1.157,3.094,2.305a24.517,24.517,0,0,1,2.83,2.571,19.589,19.589,0,0,1,2.69,2.7c.042.065.165.029.135-.052a7.9,7.9,0,0,0-2.209-2.441,37.828,37.828,0,0,0-2.926-2.744c-1.053-.821-2.156-1.591-3.233-2.383-.521-.383-1-.82-1.525-1.2-.047-.033-.091-.07-.137-.1a13.776,13.776,0,0,1-.615-3.073,4.759,4.759,0,0,1,.018-.675,8.259,8.259,0,0,0,1.437,1.36,29.135,29.135,0,0,1,2.723,2.394,13.378,13.378,0,0,0,1.036,1.045,11.879,11.879,0,0,0,1.245.745,10.135,10.135,0,0,0,2.753,1.389c.091.022.161-.116.067-.16a27.767,27.767,0,0,1-2.555-1.43c-.386-.233-.805-.424-1.177-.68a11.287,11.287,0,0,1-1.258-1.22c-.671-.632-1.33-1.319-2.062-1.882a14.708,14.708,0,0,1-2.193-1.92,7.83,7.83,0,0,1-.071-1.043c.021-.153.053-.285.082-.411.217-.069.433-.143.644-.226,1.651-.641,2.984-1.646,4.763-2.008a8.955,8.955,0,0,1,5.224.226c1.363.58,2.342,1.621,3.851,1.89.135.023.274.044.413.063,1.187,2.138-.2,5.819-.944,7.861-.453,1.238-1.3,2.141-1.5,3.486a8.354,8.354,0,0,0,.216,3.13c.328,1.361,1.2,2.456,1.569,3.784a12.815,12.815,0,0,1,.106,4.78c-.408,3.538-2.332,5.843-5.384,7.508a40.944,40.944,0,0,0-3.683,2.473,9.068,9.068,0,0,0-2.425,2.252c-.728,1.054-.616,2.309-1.228,3.369-.641,1.112-2.285,1.864-3.172,2.841-.379.418-.889,1.421-1.415.736" transform="translate(0 0)" fill="#424b60"/>
    </g>
  </g>
</svg>
