<svg id="Group_2069" data-name="Group 2069" xmlns="http://www.w3.org/2000/svg" width="17.48" height="17.48" viewBox="0 0 17.48 17.48">
  <path id="Path_64220" data-name="Path 64220" d="M219.461,138.676c2.334,0,2.61.009,3.532.051a4.842,4.842,0,0,1,1.622.3,2.889,2.889,0,0,1,1.658,1.658,4.843,4.843,0,0,1,.3,1.622c.042.922.051,1.2.051,3.532s-.009,2.61-.051,3.531a4.844,4.844,0,0,1-.3,1.623,2.889,2.889,0,0,1-1.658,1.658,4.825,4.825,0,0,1-1.622.3c-.922.042-1.2.051-3.532.051s-2.61-.009-3.531-.051a4.832,4.832,0,0,1-1.623-.3A2.895,2.895,0,0,1,212.648,151a4.827,4.827,0,0,1-.3-1.623c-.042-.921-.051-1.2-.051-3.531s.009-2.61.051-3.532a4.826,4.826,0,0,1,.3-1.622,2.9,2.9,0,0,1,1.658-1.658,4.848,4.848,0,0,1,1.623-.3c.921-.042,1.2-.051,3.531-.051m0-1.575c-2.374,0-2.671.011-3.6.053a6.426,6.426,0,0,0-2.122.406,4.469,4.469,0,0,0-2.555,2.556,6.4,6.4,0,0,0-.406,2.122c-.043.932-.053,1.23-.053,3.6s.01,2.671.053,3.6a6.4,6.4,0,0,0,.406,2.122,4.47,4.47,0,0,0,2.555,2.556,6.448,6.448,0,0,0,2.122.406c.932.042,1.23.052,3.6.052s2.671-.01,3.6-.052a6.443,6.443,0,0,0,2.122-.406,4.474,4.474,0,0,0,2.556-2.556,6.42,6.42,0,0,0,.406-2.122c.043-.932.053-1.23.053-3.6s-.01-2.671-.053-3.6a6.42,6.42,0,0,0-.406-2.122,4.474,4.474,0,0,0-2.556-2.556,6.421,6.421,0,0,0-2.122-.406c-.932-.042-1.23-.053-3.6-.053" transform="translate(-210.722 -137.101)" fill="#fff"/>
  <path id="Path_64221" data-name="Path 64221" d="M220.286,142.178a4.488,4.488,0,1,0,4.488,4.488,4.488,4.488,0,0,0-4.488-4.488m0,7.4a2.913,2.913,0,1,1,2.913-2.913,2.913,2.913,0,0,1-2.913,2.913" transform="translate(-211.546 -137.926)" fill="#fff"/>
  <path id="Path_64222" data-name="Path 64222" d="M227.571,141.763a1.049,1.049,0,1,1-1.049-1.049,1.049,1.049,0,0,1,1.049,1.049" transform="translate(-213.118 -137.688)" fill="#fff"/>
</svg>
