<svg xmlns="http://www.w3.org/2000/svg" width="16.985" height="13.803" viewBox="0 0 16.985 13.803">
  <path id="Path_64217" data-name="Path 64217" d="M44.444,151.534a9.911,9.911,0,0,0,15.247-8.8,7.064,7.064,0,0,0,1.738-1.8,6.949,6.949,0,0,1-2,.549,3.49,3.49,0,0,0,1.532-1.928,6.99,6.99,0,0,1-2.212.846,3.487,3.487,0,0,0-5.938,3.179,9.89,9.89,0,0,1-7.182-3.641,3.489,3.489,0,0,0,1.078,4.653,3.474,3.474,0,0,1-1.579-.436,3.49,3.49,0,0,0,2.8,3.462,3.488,3.488,0,0,1-1.573.059,3.486,3.486,0,0,0,3.255,2.421A7.007,7.007,0,0,1,44.444,151.534Z" transform="translate(-44.444 -139.296)" fill="#fff"/>
</svg>
