<svg id="Group_2071" data-name="Group 2071" xmlns="http://www.w3.org/2000/svg" width="17.444" height="17.447" viewBox="0 0 17.444 17.447">
  <path id="Path_64225" data-name="Path 64225" d="M116.979,253.228a8.565,8.565,0,0,0-17.115-.156c0,.124-.008.248-.008.373a8.434,8.434,0,0,0,1.227,4.39l-1.544,4.558,4.743-1.507a8.574,8.574,0,0,0,12.7-7.441C116.983,253.372,116.983,253.3,116.979,253.228Zm-8.56,7.361a7.171,7.171,0,0,1-3.961-1.182l-2.767.881.9-2.654a7.072,7.072,0,0,1-1.371-4.19,6.59,6.59,0,0,1,.036-.694,7.2,7.2,0,0,1,14.341.136c.016.185.023.368.023.557A7.18,7.18,0,0,1,108.419,260.588Z" transform="translate(-99.539 -244.945)" fill="#fff" fill-rule="evenodd"/>
  <path id="Path_64226" data-name="Path 64226" d="M113.27,256.069c-.213-.1-1.243-.61-1.435-.678s-.333-.1-.474.1-.545.677-.665.813-.245.157-.457.053a5.69,5.69,0,0,1-1.688-1.034,6.2,6.2,0,0,1-1.166-1.44c-.12-.208-.012-.321.092-.424s.209-.245.317-.365c.028-.036.053-.068.076-.1a2.3,2.3,0,0,0,.133-.248.378.378,0,0,0-.016-.365c-.053-.1-.474-1.131-.65-1.548s-.348-.345-.473-.345-.261-.02-.4-.02a.777.777,0,0,0-.561.261,2.332,2.332,0,0,0-.734,1.74,2.638,2.638,0,0,0,.108.709,4.721,4.721,0,0,0,.75,1.443,8.622,8.622,0,0,0,3.585,3.148c2.137.83,2.137.553,2.522.517a2.1,2.1,0,0,0,1.415-.99,1.716,1.716,0,0,0,.125-.991C113.619,256.226,113.479,256.173,113.27,256.069Z" transform="translate(-100.465 -245.854)" fill="#fff" fill-rule="evenodd"/>
</svg>
