<svg xmlns="http://www.w3.org/2000/svg" width="46" height="46" viewBox="0 0 46 46">
  <path id="Path_515" data-name="Path 515" d="M23,0A23,23,0,1,0,46,23,23,23,0,0,0,23,0ZM16.316,34.77h-5.6V17.917h5.6Zm-2.8-19.154h-.036a2.92,2.92,0,1,1,.074-5.823,2.921,2.921,0,1,1-.037,5.823Zm23,19.154h-5.6V25.754c0-2.266-.811-3.811-2.838-3.811A3.066,3.066,0,0,0,25.2,23.991a3.835,3.835,0,0,0-.184,1.367V34.77h-5.6s.073-15.271,0-16.852h5.6V20.3a5.561,5.561,0,0,1,5.048-2.782c3.685,0,6.449,2.409,6.449,7.585Z" fill="#fff"/>
</svg>
