<?xml version="1.0" standalone="no"?>
<!DOCTYPE svg PUBLIC "-//W3C//DTD SVG 20010904//EN"
 "http://www.w3.org/TR/2001/REC-SVG-20010904/DTD/svg10.dtd">
<svg version="1.0" xmlns="http://www.w3.org/2000/svg"
 width="260.000000pt" height="260.000000pt" viewBox="0 0 260.000000 260.000000"
 preserveAspectRatio="xMidYMid meet">
<metadata>
Created by potrace 1.11, written by Peter Selinger 2001-2013
</metadata>
<g transform="translate(0.000000,260.000000) scale(0.100000,-0.100000)"
fill="#000000" stroke="none">
<path d="M92 2565 c-19 -11 -45 -33 -56 -48 l-21 -28 0 -1198 c0 -1291 -2
-1235 52 -1260 17 -8 369 -11 1236 -11 l1212 0 27 25 c15 14 31 38 35 53 5 15
8 561 8 1214 l0 1187 -21 28 c-11 15 -32 34 -47 41 -20 10 -279 13 -1207 15
-1166 2 -1183 2 -1218 -18z m1388 -366 c82 -18 231 -82 313 -134 74 -47 164
-129 222 -200 78 -97 153 -265 184 -413 14 -68 14 -241 0 -318 -13 -74 -66
-231 -89 -264 -10 -14 -29 -47 -43 -75 -74 -144 -289 -322 -460 -380 -136 -46
-201 -57 -327 -57 -249 2 -455 84 -639 256 -44 42 -137 162 -159 206 -7 14
-24 45 -38 70 -30 52 -48 111 -70 225 -41 207 -6 417 99 607 62 110 110 173
193 249 131 121 303 208 459 235 91 15 270 12 355 -7z m-1076 -1573 c15 -13
26 -28 26 -35 0 -6 6 -11 14 -11 7 0 16 -9 19 -21 3 -11 2 -19 -2 -17 -9 3
-91 97 -91 104 0 9 10 3 34 -20z m136 -147 c10 -18 9 -20 -7 -17 -10 2 -19 11
-21 21 -5 24 15 21 28 -4z m56 -54 c10 -8 27 -15 37 -15 10 0 17 -8 17 -20 0
-11 7 -20 15 -20 8 0 15 -4 15 -10 0 -5 -2 -10 -5 -10 -7 0 -69 44 -95 68 -26
24 -15 30 16 7z m154 -105 c0 -5 -9 -6 -20 -3 -11 3 -17 9 -15 14 7 10 35 1
35 -11z m65 -30 c3 -5 -3 -10 -14 -10 -12 0 -21 5 -21 10 0 6 6 10 14 10 8 0
18 -4 21 -10z"/>
<path d="M1153 2125 c-240 -38 -445 -171 -576 -376 -61 -95 -95 -196 -117
-344 -12 -78 -8 -219 8 -294 9 -42 32 -54 32 -17 0 37 19 72 47 85 32 15 106
14 121 -1 7 -7 12 -38 12 -69 0 -73 14 -89 81 -89 27 0 49 3 49 8 10 575 10
652 -4 652 -19 0 -46 -39 -89 -131 -39 -82 -61 -99 -126 -99 -47 0 -74 19 -74
52 1 33 82 195 138 273 55 78 129 144 216 196 73 44 105 45 113 6 3 -12 7
-264 9 -559 4 -420 2 -541 -8 -554 -15 -22 -84 -31 -218 -30 -114 2 -151 16
-195 75 -23 32 -42 40 -42 19 0 -17 64 -111 125 -185 70 -84 200 -184 278
-213 164 -63 228 -80 292 -80 l60 0 -31 31 c-27 26 -35 29 -52 20 -46 -25 -82
-3 -82 48 0 20 -10 25 -65 33 -23 4 -32 46 -16 77 10 17 6 24 -24 47 -19 14
-35 31 -35 38 0 6 16 25 36 41 32 27 35 33 24 55 -18 40 2 80 39 80 27 0 31 5
41 40 12 44 42 60 78 41 31 -16 41 -14 54 14 17 38 48 43 75 11 21 -24 28 -27
67 -21 47 7 53 3 71 -50 7 -22 18 -31 39 -35 40 -7 54 -31 39 -70 -11 -28 -9
-32 17 -52 42 -31 45 -47 13 -80 -22 -24 -28 -39 -28 -76 0 -46 0 -47 -42 -60
-34 -11 -43 -19 -43 -36 0 -36 -30 -56 -73 -49 -30 4 -41 2 -52 -13 -23 -30
-18 -34 34 -34 59 0 255 65 330 110 131 77 208 150 287 272 47 72 94 176 94
206 0 10 4 22 9 27 14 14 33 140 32 211 -5 437 -299 786 -713 849 -113 17
-144 17 -255 0z m214 -56 c59 -25 87 -50 121 -109 l27 -45 6 -394 c4 -217 3
-405 -2 -417 -11 -30 -39 -44 -88 -44 -51 0 -71 20 -71 71 0 61 -14 79 -61 79
-62 0 -79 -13 -79 -63 0 -60 -17 -79 -77 -84 -45 -5 -52 -3 -71 22 -22 27 -22
33 -22 421 0 287 3 401 12 421 30 69 61 103 121 133 71 36 117 38 184 9z m340
-100 c134 -82 226 -180 284 -303 36 -76 40 -153 9 -181 -27 -25 -25 -57 6 -84
14 -12 36 -45 50 -74 20 -44 24 -67 24 -151 0 -95 -1 -100 -35 -156 -75 -124
-156 -170 -310 -177 -90 -5 -103 -3 -125 15 l-25 20 -2 551 c-2 485 -1 552 13
566 23 22 37 19 111 -26z m-780 -1225 c-3 -3 -12 -4 -19 -1 -8 3 -5 6 6 6 11
1 17 -2 13 -5z"/>
<path d="M1247 1909 l-27 -20 0 -253 c0 -183 3 -255 12 -264 19 -19 106 -15
115 6 5 9 6 128 3 264 -5 263 -6 267 -56 282 -13 4 -30 -1 -47 -15z"/>
<path d="M1757 1683 c-2 -5 -1 -47 1 -95 3 -75 7 -88 21 -88 25 0 61 42 61 71
0 14 -13 46 -30 72 -28 44 -44 56 -53 40z"/>
<path d="M1764 1337 c-2 -7 -3 -80 -2 -162 l3 -150 33 2 c41 1 78 33 103 88
23 49 24 81 3 131 -17 43 -42 67 -93 89 -41 18 -40 18 -47 2z"/>
<path d="M1217 871 c-47 -31 -61 -59 -59 -123 3 -95 46 -138 140 -138 36 0 57
6 78 22 43 33 49 47 50 121 2 67 2 68 -39 102 -35 30 -48 35 -91 35 -33 0 -61
-7 -79 -19z m137 -71 c20 -22 36 -46 36 -54 0 -27 -65 -86 -95 -86 -28 0 -105
66 -105 90 0 7 17 30 39 51 51 51 78 51 125 -1z"/>
</g>
</svg>
