<svg xmlns="http://www.w3.org/2000/svg" viewBox="0 0 52.29 46.88"><defs><style>.cls-1{fill:#fff;}</style></defs><title>Asset 4</title><g id="Layer_2" data-name="Layer 2"><g id="Layer_1-2" data-name="Layer 1"><path class="cls-1" d="M1201-3571.58a1,1,0,0,0-1,1,1,1,0,0,0,1,1,1,1,0,0,0,1-1,1,1,0,0,0-1-1" transform="translate(-1195.85 3598.17)"/><path class="cls-1" d="M1244.91-3562.66h0l-19.1,8.36a11.05,11.05,0,0,1-4.54,1,11,11,0,0,1-5.65-1.55l-5.34-3.18a11.26,11.26,0,0,0-4.18-1.27v-12.26h7.06a5.14,5.14,0,0,1,2.51.66l5.39,3a3.05,3.05,0,0,0,1.5.39h6.62a2,2,0,0,1,2,2,2,2,0,0,1-2,2h-10.38a1,1,0,0,0-1,1,1,1,0,0,0,1,1h10.38a4.07,4.07,0,0,0,1.91-.48l12.42-4.24a2,2,0,0,1,2.36.75,1.9,1.9,0,0,1-.93,2.74m-40.89,4.28a1,1,0,0,1-1,1h-5.1v-16.24h5.1a1,1,0,0,1,1,1Zm38.78-9.68-9.63,3.29a4.28,4.28,0,0,0,.06-.72,4.07,4.07,0,0,0-4.08-4.06h-6.62a1,1,0,0,1-.5-.13l-5.39-3a7.18,7.18,0,0,0-3.51-.92h-7.24a3.06,3.06,0,0,0-2.89-2h-6.12a1,1,0,0,0-1,1v18.26a1,1,0,0,0,1,1H1203a3.08,3.08,0,0,0,2.86-2,9.14,9.14,0,0,1,3.34,1l5.34,3.18a13,13,0,0,0,6.7,1.84,13,13,0,0,0,5.39-1.16l19.06-8.33a3.94,3.94,0,0,0,2-5.59,4,4,0,0,0-4.84-1.69" transform="translate(-1195.85 3598.17)"/><path class="cls-1" d="M1225.6-3573.56a1,1,0,0,0,.67.25,1,1,0,0,0,.67-.25c8.33-7.17,13.49-10.8,13.49-16.44,0-4.47-3.19-8.17-7.65-8.17a7.54,7.54,0,0,0-6.63,4.21,7.57,7.57,0,0,0-6.63-4.21,7.55,7.55,0,0,0-7.29,5.61,1,1,0,0,0,.69,1.26,1,1,0,0,0,1.27-.69,5.55,5.55,0,0,1,5.33-4.15c2.91,0,5,2.57,5.64,5a1,1,0,0,0,1,.74,1,1,0,0,0,1-.74s1.43-5,5.65-5c3.19,0,5.6,2.64,5.6,6.14,0,4.51-4.44,7.76-12.11,14.33-4.68-4-8.39-6.79-10.5-9.54a1,1,0,0,0-1.43-.19,1,1,0,0,0-.2,1.42c2.38,3.1,6.4,6.06,11.46,10.42" transform="translate(-1195.85 3598.17)"/><path class="cls-1" d="M1213.11-3589.23a1,1,0,0,0-1,1,1,1,0,0,0,1,1,1,1,0,0,0,1-1,1,1,0,0,0-1-1" transform="translate(-1195.85 3598.17)"/><path class="cls-1" d="M1228.14-3582.88l1,.91a3.42,3.42,0,0,1-2.74,1.18,3.47,3.47,0,0,1-3.45-2.37h-1.08v-.8h.94a2.09,2.09,0,0,1,0-.25,2.26,2.26,0,0,1,0-.26h-.94v-.79h1.08a3.46,3.46,0,0,1,3.45-2.38,3.42,3.42,0,0,1,2.74,1.18l-1,.9a2.15,2.15,0,0,0-1.68-.77,2,2,0,0,0-1.88,1.07h2.4v.79h-2.64a2.26,2.26,0,0,0,0,.26,2.09,2.09,0,0,0,0,.25H1227v.8h-2.4a2,2,0,0,0,1.88,1.06,2.13,2.13,0,0,0,1.68-.78" transform="translate(-1195.85 3598.17)"/></g></g></svg>