<svg xmlns="http://www.w3.org/2000/svg" viewBox="0 0 52.29 53.13"><defs><style>.cls-1{fill:#fff;}</style></defs><title>Asset 3</title><g id="Layer_2" data-name="Layer 2"><g id="Layer_1-2" data-name="Layer 1"><path class="cls-1" d="M1246.4-3629.12l-22.81-18a2.58,2.58,0,0,0-3.18,0l-22.81,18v-28.27l14.28,11.27a.86.86,0,0,0,1.22-.15.9.9,0,0,0-.15-1.25L1198.44-3659l6.13-4.84v6.84a.88.88,0,0,0,.87.89.88.88,0,0,0,.87-.89v-15.94a.88.88,0,0,1,.87-.88h29.64a.88.88,0,0,1,.87.88V-3657a.88.88,0,0,0,.87.89.88.88,0,0,0,.87-.89v-6.84l6.13,4.84L1231-3647.5a.9.9,0,0,0-.34.82.89.89,0,0,0,.54.71.86.86,0,0,0,.87-.13l14.3-11.29Zm-47.71,1.38,22.79-18a.84.84,0,0,1,1,0l22.79,18Zm49.45-31.05a1.16,1.16,0,0,0,0-.18.88.88,0,0,0,0-.15.42.42,0,0,0-.09-.14.69.69,0,0,0-.11-.13l0-.05-8.38-6.61v-6.86a2.63,2.63,0,0,0-2.61-2.65h-9.45l-3.78-3a2.56,2.56,0,0,0-3.18,0l-3.78,3h-9.45a2.63,2.63,0,0,0-2.61,2.65v6.86l-8.38,6.61,0,.05a.69.69,0,0,0-.11.13.55.55,0,0,0-.09.14.88.88,0,0,0,0,.15.57.57,0,0,0,0,.18s0,0,0,.05v30.11a2.73,2.73,0,0,0,.52,1.57s0,0,0,0l0,0a2.59,2.59,0,0,0,2.06,1h47.06a2.59,2.59,0,0,0,2.07-1.05l0,0v0a2.66,2.66,0,0,0,.52-1.57v-30.11a.43.43,0,0,1,0-.05" transform="translate(-1195.85 3679.1)"/><path class="cls-1" d="M1232.46-3657.85v-3.54A10.55,10.55,0,0,0,1222-3672a10.54,10.54,0,0,0-10.46,10.63,10.54,10.54,0,0,0,10.46,10.63.88.88,0,0,0,.87-.89.88.88,0,0,0-.87-.89,8.79,8.79,0,0,1-8.72-8.85,8.8,8.8,0,0,1,8.72-8.86,8.79,8.79,0,0,1,8.71,8.86v3.54a1.75,1.75,0,0,1-1.74,1.77,1.75,1.75,0,0,1-1.74-1.77v-3.54a.88.88,0,0,0-.87-.89.89.89,0,0,0-.88.89,3.51,3.51,0,0,1-3.48,3.54,3.52,3.52,0,0,1-3.49-3.54,3.52,3.52,0,0,1,3.49-3.55.87.87,0,0,0,.87-.88.88.88,0,0,0-.87-.89,5.25,5.25,0,0,0-5,3.86,5.36,5.36,0,0,0,2.28,6,5.16,5.16,0,0,0,6.28-.61,3.5,3.5,0,0,0,3.64,3.17,3.52,3.52,0,0,0,3.3-3.54" transform="translate(-1195.85 3679.1)"/></g></g></svg>