<svg id="Group_2238" data-name="Group 2238" xmlns="http://www.w3.org/2000/svg" width="31.189" height="31.234" viewBox="0 0 31.189 31.234">
  <path id="Path_1693" data-name="Path 1693" d="M25.007,44.948a3.072,3.072,0,0,0-2.228-1.022,3.177,3.177,0,0,0-2.255,1.015l-2.083,2.077c-.171-.092-.343-.178-.508-.264-.237-.119-.461-.231-.653-.349a22.641,22.641,0,0,1-5.425-4.944,13.357,13.357,0,0,1-1.78-2.808c.541-.494,1.042-1.009,1.529-1.5.185-.185.369-.376.554-.56a3.025,3.025,0,0,0,0-4.562l-1.8-1.8c-.2-.2-.415-.415-.613-.626-.4-.409-.811-.831-1.239-1.226A3.121,3.121,0,0,0,6.3,27.406a3.229,3.229,0,0,0-2.241.969l-.013.013L1.8,30.649A4.823,4.823,0,0,0,.372,33.715a11.556,11.556,0,0,0,.844,4.891,28.384,28.384,0,0,0,5.043,8.412,31.022,31.022,0,0,0,10.33,8.089,16.1,16.1,0,0,0,5.8,1.714c.138.007.283.013.415.013a4.967,4.967,0,0,0,3.8-1.635c.007-.013.02-.02.026-.033a14.983,14.983,0,0,1,1.154-1.193c.283-.27.574-.554.857-.85a3.289,3.289,0,0,0,1-2.281,3.168,3.168,0,0,0-1.015-2.261Zm2.36,6.942c-.007,0-.007.007,0,0-.257.277-.521.527-.8.8a17.33,17.33,0,0,0-1.272,1.318,3.178,3.178,0,0,1-2.479,1.048c-.1,0-.2,0-.3-.007a14.3,14.3,0,0,1-5.142-1.543,29.283,29.283,0,0,1-9.73-7.621,26.763,26.763,0,0,1-4.746-7.9,9.413,9.413,0,0,1-.738-4.127,3.026,3.026,0,0,1,.91-1.958l2.248-2.248a1.5,1.5,0,0,1,1-.468,1.41,1.41,0,0,1,.962.461l.02.02c.4.376.784.765,1.187,1.18.2.211.415.422.626.639l1.8,1.8a1.258,1.258,0,0,1,0,2.044c-.191.191-.376.382-.567.567-.554.567-1.081,1.094-1.655,1.609-.013.013-.026.02-.033.033a1.345,1.345,0,0,0-.343,1.5l.02.059a14.449,14.449,0,0,0,2.129,3.474l.007.007A24.2,24.2,0,0,0,16.318,47.9a9,9,0,0,0,.811.442c.237.119.461.231.653.349.026.013.053.033.079.046a1.429,1.429,0,0,0,.653.165,1.409,1.409,0,0,0,1-.455l2.255-2.255a1.491,1.491,0,0,1,1-.494,1.343,1.343,0,0,1,.949.481l.013.013,3.632,3.632A1.3,1.3,0,0,1,27.367,51.89Z" transform="translate(-0.345 -25.599)" fill="#fff"/>
  <path id="Path_1694" data-name="Path 1694" d="M245.676,87.691a8.484,8.484,0,0,1,6.909,6.909.884.884,0,0,0,.877.738,1.176,1.176,0,0,0,.152-.013.891.891,0,0,0,.732-1.028,10.259,10.259,0,0,0-8.359-8.359.9.9,0,0,0-1.028.725A.88.88,0,0,0,245.676,87.691Z" transform="translate(-228.819 -80.261)" fill="#fff"/>
  <path id="Path_1695" data-name="Path 1695" d="M263.574,13.778A16.892,16.892,0,0,0,249.809.014a.889.889,0,1,0-.29,1.754,15.088,15.088,0,0,1,12.3,12.3.884.884,0,0,0,.877.738,1.176,1.176,0,0,0,.152-.013A.873.873,0,0,0,263.574,13.778Z" transform="translate(-232.398 0)" fill="#fff"/>
</svg>
