<svg xmlns="http://www.w3.org/2000/svg" width="357" height="352.859" viewBox="0 0 357 352.859">
  <g id="Group_7161" data-name="Group 7161" transform="translate(-66.747 -66.588)">
    <path id="Path_1845" data-name="Path 1845" d="M236.918,347.74a.059.059,0,0,0,.06-.06.06.06,0,0,0-.06-.06.061.061,0,0,0-.06.06A.06.06,0,0,0,236.918,347.74Z" transform="translate(-3.683 -6.085)" fill="#fff"/>
    <path id="Path_1846" data-name="Path 1846" d="M227.456,345.229a.118.118,0,1,0-.118-.118A.118.118,0,0,0,227.456,345.229Z" transform="translate(-3.477 -6.028)" fill="#fff"/>
    <path id="Path_1847" data-name="Path 1847" d="M218.236,341.925a.148.148,0,1,0-.148-.148A.148.148,0,0,0,218.236,341.925Z" transform="translate(-3.277 -5.955)" fill="#fff"/>
    <path id="Path_1848" data-name="Path 1848" d="M209.317,337.941a.237.237,0,1,0-.237-.237A.238.238,0,0,0,209.317,337.941Z" transform="translate(-3.082 -5.865)" fill="#fff"/>
    <path id="Path_1849" data-name="Path 1849" d="M200.76,333.242a.326.326,0,1,0-.326-.326A.326.326,0,0,0,200.76,333.242Z" transform="translate(-2.895 -5.76)" fill="#fff"/>
    <path id="Path_1850" data-name="Path 1850" d="M192.621,327.833a.385.385,0,1,0-.385-.385A.386.386,0,0,0,192.621,327.833Z" transform="translate(-2.717 -5.64)" fill="#fff"/>
    <path id="Path_1851" data-name="Path 1851" d="M184.957,321.721a.385.385,0,1,0-.385-.385A.385.385,0,0,0,184.957,321.721Z" transform="translate(-2.551 -5.508)" fill="#fff"/>
    <path id="Path_1852" data-name="Path 1852" d="M177.818,314.947a.326.326,0,1,0-.326-.327A.327.327,0,0,0,177.818,314.947Z" transform="translate(-2.398 -5.364)" fill="#fff"/>
    <path id="Path_1853" data-name="Path 1853" d="M171.247,307.728a.385.385,0,1,0-.385-.385A.385.385,0,0,0,171.247,307.728Z" transform="translate(-2.254 -5.205)" fill="#fff"/>
    <path id="Path_1854" data-name="Path 1854" d="M165.293,299.911a.355.355,0,1,0-.355-.355A.355.355,0,0,0,165.293,299.911Z" transform="translate(-2.126 -5.037)" fill="#fff"/>
    <path id="Path_1855" data-name="Path 1855" d="M160,291.578a.267.267,0,1,0-.266-.267A.267.267,0,0,0,160,291.578Z" transform="translate(-2.013 -4.86)" fill="#fff"/>
    <path id="Path_1856" data-name="Path 1856" d="M155.388,282.81a.148.148,0,1,0-.148-.148A.148.148,0,0,0,155.388,282.81Z" transform="translate(-1.916 -4.675)" fill="#fff"/>
    <path id="Path_1857" data-name="Path 1857" d="M151.5,273.754a.089.089,0,1,0-.089-.089A.088.088,0,0,0,151.5,273.754Z" transform="translate(-1.833 -4.482)" fill="#fff"/>
    <path id="Path_1858" data-name="Path 1858" d="M148.357,264.44a.06.06,0,1,0-.059-.06A.06.06,0,0,0,148.357,264.44Z" transform="translate(-1.766 -4.281)" fill="#fff"/>
    <path id="Path_1859" data-name="Path 1859" d="M145.982,254.9a.03.03,0,1,0-.03-.03A.03.03,0,0,0,145.982,254.9Z" transform="translate(-1.715 -4.076)" fill="#fff"/>
    <path id="Path_1860" data-name="Path 1860" d="M337.505,338.87a.03.03,0,1,0-.029-.029A.029.029,0,0,0,337.505,338.87Z" transform="translate(-5.862 -5.894)" fill="#fff"/>
    <circle id="Ellipse_370" data-name="Ellipse 370" cx="0.119" cy="0.119" r="0.119" transform="translate(323.404 337.93)" fill="#fff"/>
    <path id="Path_1861" data-name="Path 1861" d="M320.526,349.158a.533.533,0,1,0-.533-.533A.533.533,0,0,0,320.526,349.158Z" transform="translate(-5.483 -6.095)" fill="#fff"/>
    <path id="Path_1862" data-name="Path 1862" d="M311.535,353.369a.83.83,0,1,0-.831-.83A.83.83,0,0,0,311.535,353.369Z" transform="translate(-5.282 -6.174)" fill="#fff"/>
    <circle id="Ellipse_371" data-name="Ellipse 371" cx="1.215" cy="1.215" r="1.215" transform="translate(295.984 348.318)" fill="#fff"/>
    <path id="Path_1863" data-name="Path 1863" d="M292.788,360.187a1.9,1.9,0,1,0-1.9-1.9A1.9,1.9,0,0,0,292.788,360.187Z" transform="translate(-4.853 -6.275)" fill="#fff"/>
    <path id="Path_1864" data-name="Path 1864" d="M283.15,362.213a2.1,2.1,0,1,0-2.1-2.1A2.1,2.1,0,0,0,283.15,362.213Z" transform="translate(-4.64 -6.31)" fill="#fff"/>
    <path id="Path_1865" data-name="Path 1865" d="M273.4,363.687a2.489,2.489,0,1,0-2.49-2.489A2.489,2.489,0,0,0,273.4,363.687Z" transform="translate(-4.421 -6.325)" fill="#fff"/>
    <path id="Path_1866" data-name="Path 1866" d="M263.6,364.372a2.815,2.815,0,1,0-2.816-2.816A2.816,2.816,0,0,0,263.6,364.372Z" transform="translate(-4.201 -6.326)" fill="#fff"/>
    <path id="Path_1867" data-name="Path 1867" d="M253.794,364.267a3.082,3.082,0,1,0-3.082-3.082A3.082,3.082,0,0,0,253.794,364.267Z" transform="translate(-3.983 -6.312)" fill="#fff"/>
    <path id="Path_1868" data-name="Path 1868" d="M244.048,363.4a3.32,3.32,0,1,0-3.32-3.32A3.319,3.319,0,0,0,244.048,363.4Z" transform="translate(-3.767 -6.283)" fill="#fff"/>
    <circle id="Ellipse_372" data-name="Ellipse 372" cx="3.379" cy="3.379" r="3.379" transform="translate(227.478 348.637)" fill="#fff"/>
    <path id="Path_1869" data-name="Path 1869" d="M224.943,359.157a3.438,3.438,0,1,0-3.438-3.438A3.438,3.438,0,0,0,224.943,359.157Z" transform="translate(-3.351 -6.186)" fill="#fff"/>
    <path id="Path_1870" data-name="Path 1870" d="M215.686,356.064a3.586,3.586,0,1,0-3.586-3.586A3.586,3.586,0,0,0,215.686,356.064Z" transform="translate(-3.147 -6.113)" fill="#fff"/>
    <path id="Path_1871" data-name="Path 1871" d="M206.7,352.173a3.616,3.616,0,1,0-3.616-3.616A3.616,3.616,0,0,0,206.7,352.173Z" transform="translate(-2.952 -6.027)" fill="#fff"/>
    <path id="Path_1872" data-name="Path 1872" d="M198.034,347.535a3.557,3.557,0,1,0-3.556-3.557A3.557,3.557,0,0,0,198.034,347.535Z" transform="translate(-2.766 -5.929)" fill="#fff"/>
    <path id="Path_1873" data-name="Path 1873" d="M189.733,342.347a3.586,3.586,0,1,0-3.587-3.586A3.586,3.586,0,0,0,189.733,342.347Z" transform="translate(-2.585 -5.816)" fill="#fff"/>
    <path id="Path_1874" data-name="Path 1874" d="M181.843,336.584a3.645,3.645,0,1,0-3.645-3.645A3.645,3.645,0,0,0,181.843,336.584Z" transform="translate(-2.413 -5.688)" fill="#fff"/>
    <path id="Path_1875" data-name="Path 1875" d="M174.412,330.19a3.646,3.646,0,1,0-3.645-3.646A3.646,3.646,0,0,0,174.412,330.19Z" transform="translate(-2.252 -5.55)" fill="#fff"/>
    <path id="Path_1876" data-name="Path 1876" d="M167.48,323.257a3.645,3.645,0,1,0-3.645-3.645A3.645,3.645,0,0,0,167.48,323.257Z" transform="translate(-2.102 -5.4)" fill="#fff"/>
    <path id="Path_1877" data-name="Path 1877" d="M161.086,315.827a3.645,3.645,0,1,0-3.645-3.645A3.646,3.646,0,0,0,161.086,315.827Z" transform="translate(-1.964 -5.239)" fill="#fff"/>
    <path id="Path_1878" data-name="Path 1878" d="M155.264,307.939a3.645,3.645,0,1,0-3.645-3.645A3.645,3.645,0,0,0,155.264,307.939Z" transform="translate(-1.838 -5.068)" fill="#fff"/>
    <path id="Path_1879" data-name="Path 1879" d="M150.049,299.609a3.616,3.616,0,1,0-3.615-3.616A3.616,3.616,0,0,0,150.049,299.609Z" transform="translate(-1.725 -4.889)" fill="#fff"/>
    <circle id="Ellipse_373" data-name="Ellipse 373" cx="3.645" cy="3.645" r="3.645" transform="translate(140.197 278.979)" fill="#fff"/>
    <path id="Path_1880" data-name="Path 1880" d="M141.547,281.985a3.645,3.645,0,1,0-3.645-3.645A3.645,3.645,0,0,0,141.547,281.985Z" transform="translate(-1.541 -4.506)" fill="#fff"/>
    <path id="Path_1881" data-name="Path 1881" d="M138.312,272.616a3.527,3.527,0,1,0-3.526-3.527A3.527,3.527,0,0,0,138.312,272.616Z" transform="translate(-1.473 -4.308)" fill="#fff"/>
    <path id="Path_1882" data-name="Path 1882" d="M135.779,262.973a3.349,3.349,0,1,0-3.349-3.349A3.349,3.349,0,0,0,135.779,262.973Z" transform="translate(-1.422 -4.107)" fill="#fff"/>
    <path id="Path_1883" data-name="Path 1883" d="M133.959,253.253a3.26,3.26,0,1,0-3.261-3.26A3.26,3.26,0,0,0,133.959,253.253Z" transform="translate(-1.385 -3.901)" fill="#fff"/>
    <circle id="Ellipse_374" data-name="Ellipse 374" cx="2.964" cy="2.964" r="2.964" transform="translate(128.536 233.598)" fill="#fff"/>
    <circle id="Ellipse_375" data-name="Ellipse 375" cx="2.727" cy="2.727" r="2.727" transform="translate(128.415 224.25)" fill="#fff"/>
    <path id="Path_1884" data-name="Path 1884" d="M132.881,223.019a2.341,2.341,0,1,0-2.341-2.341A2.341,2.341,0,0,0,132.881,223.019Z" transform="translate(-1.381 -3.286)" fill="#fff"/>
    <path id="Path_1885" data-name="Path 1885" d="M133.989,212.843a1.9,1.9,0,1,0-1.9-1.9A1.9,1.9,0,0,0,133.989,212.843Z" transform="translate(-1.415 -3.085)" fill="#fff"/>
    <path id="Path_1886" data-name="Path 1886" d="M135.818,202.921a1.6,1.6,0,1,0-1.6-1.6A1.6,1.6,0,0,0,135.818,202.921Z" transform="translate(-1.461 -2.883)" fill="#fff"/>
    <path id="Path_1887" data-name="Path 1887" d="M138.366,192.958a1.1,1.1,0,1,0-1.1-1.1A1.1,1.1,0,0,0,138.366,192.958Z" transform="translate(-1.527 -2.689)" fill="#fff"/>
    <path id="Path_1888" data-name="Path 1888" d="M141.613,183.3a.682.682,0,1,0-.681-.682A.682.682,0,0,0,141.613,183.3Z" transform="translate(-1.606 -2.498)" fill="#fff"/>
    <path id="Path_1889" data-name="Path 1889" d="M145.542,173.967a.326.326,0,1,0-.327-.326A.326.326,0,0,0,145.542,173.967Z" transform="translate(-1.699 -2.311)" fill="#fff"/>
    <path id="Path_1890" data-name="Path 1890" d="M150.128,165.038a.059.059,0,1,0-.059-.06A.059.059,0,0,0,150.128,165.038Z" transform="translate(-1.804 -2.129)" fill="#fff"/>
    <path id="Path_1891" data-name="Path 1891" d="M389.408,296.583a.059.059,0,1,0-.06-.06A.059.059,0,0,0,389.408,296.583Z" transform="translate(-6.985 -4.977)" fill="#fff"/>
    <path id="Path_1892" data-name="Path 1892" d="M384.549,305.363a.326.326,0,1,0-.326-.326A.326.326,0,0,0,384.549,305.363Z" transform="translate(-6.874 -5.156)" fill="#fff"/>
    <path id="Path_1893" data-name="Path 1893" d="M379.106,314.134a.948.948,0,1,0-.949-.948A.948.948,0,0,0,379.106,314.134Z" transform="translate(-6.743 -5.319)" fill="#fff"/>
    <path id="Path_1894" data-name="Path 1894" d="M373.114,322.483a1.541,1.541,0,1,0-1.542-1.541A1.541,1.541,0,0,0,373.114,322.483Z" transform="translate(-6.6 -5.474)" fill="#fff"/>
    <path id="Path_1895" data-name="Path 1895" d="M366.6,330.4a2.134,2.134,0,1,0-2.134-2.134A2.134,2.134,0,0,0,366.6,330.4Z" transform="translate(-6.446 -5.62)" fill="#fff"/>
    <path id="Path_1896" data-name="Path 1896" d="M359.6,337.708a2.578,2.578,0,1,0-2.579-2.578A2.578,2.578,0,0,0,359.6,337.708Z" transform="translate(-6.285 -5.759)" fill="#fff"/>
    <path id="Path_1897" data-name="Path 1897" d="M352.14,344.429a2.934,2.934,0,1,0-2.934-2.934A2.933,2.933,0,0,0,352.14,344.429Z" transform="translate(-6.116 -5.889)" fill="#fff"/>
    <path id="Path_1898" data-name="Path 1898" d="M344.263,350.534a3.2,3.2,0,1,0-3.2-3.2A3.2,3.2,0,0,0,344.263,350.534Z" transform="translate(-5.94 -6.01)" fill="#fff"/>
    <path id="Path_1899" data-name="Path 1899" d="M336.009,355.735a3.112,3.112,0,1,0-3.112-3.112A3.112,3.112,0,0,0,336.009,355.735Z" transform="translate(-5.763 -6.126)" fill="#fff"/>
    <path id="Path_1900" data-name="Path 1900" d="M327.413,360.237a2.9,2.9,0,1,0-2.9-2.9A2.9,2.9,0,0,0,327.413,360.237Z" transform="translate(-5.581 -6.232)" fill="#fff"/>
    <path id="Path_1901" data-name="Path 1901" d="M318.512,364.164a2.727,2.727,0,1,0-2.727-2.727A2.727,2.727,0,0,0,318.512,364.164Z" transform="translate(-5.392 -6.325)" fill="#fff"/>
    <circle id="Ellipse_376" data-name="Ellipse 376" cx="2.549" cy="2.549" r="2.549" transform="translate(301.603 355.965)" fill="#fff"/>
    <circle id="Ellipse_377" data-name="Ellipse 377" cx="2.43" cy="2.43" r="2.43" transform="translate(292.54 358.857)" fill="#fff"/>
    <path id="Path_1902" data-name="Path 1902" d="M290.411,372.281a2.342,2.342,0,1,0-2.341-2.342A2.342,2.342,0,0,0,290.411,372.281Z" transform="translate(-4.792 -6.518)" fill="#fff"/>
    <path id="Path_1903" data-name="Path 1903" d="M280.727,373.74a2.282,2.282,0,1,0-2.282-2.283A2.282,2.282,0,0,0,280.727,373.74Z" transform="translate(-4.584 -6.552)" fill="#fff"/>
    <path id="Path_1904" data-name="Path 1904" d="M270.957,374.7a2.4,2.4,0,1,0-2.4-2.4A2.4,2.4,0,0,0,270.957,374.7Z" transform="translate(-4.37 -6.567)" fill="#fff"/>
    <path id="Path_1905" data-name="Path 1905" d="M261.154,374.9a2.43,2.43,0,1,0-2.43-2.43A2.43,2.43,0,0,0,261.154,374.9Z" transform="translate(-4.157 -6.57)" fill="#fff"/>
    <path id="Path_1906" data-name="Path 1906" d="M251.362,374.45a2.489,2.489,0,1,0-2.489-2.49A2.49,2.49,0,0,0,251.362,374.45Z" transform="translate(-3.944 -6.558)" fill="#fff"/>
    <path id="Path_1907" data-name="Path 1907" d="M241.629,373.3a2.519,2.519,0,1,0-2.519-2.518A2.519,2.519,0,0,0,241.629,373.3Z" transform="translate(-3.732 -6.532)" fill="#fff"/>
    <path id="Path_1908" data-name="Path 1908" d="M232,371.534a2.608,2.608,0,1,0-2.608-2.608A2.608,2.608,0,0,0,232,371.534Z" transform="translate(-3.522 -6.49)" fill="#fff"/>
    <path id="Path_1909" data-name="Path 1909" d="M222.522,369.052a2.638,2.638,0,1,0-2.638-2.638A2.638,2.638,0,0,0,222.522,369.052Z" transform="translate(-3.316 -6.435)" fill="#fff"/>
    <path id="Path_1910" data-name="Path 1910" d="M213.241,365.894a2.638,2.638,0,1,0-2.638-2.638A2.638,2.638,0,0,0,213.241,365.894Z" transform="translate(-3.115 -6.367)" fill="#fff"/>
    <path id="Path_1911" data-name="Path 1911" d="M204.2,362.075a2.608,2.608,0,1,0-2.608-2.608A2.609,2.609,0,0,0,204.2,362.075Z" transform="translate(-2.92 -6.285)" fill="#fff"/>
    <path id="Path_1912" data-name="Path 1912" d="M195.443,357.64a2.578,2.578,0,1,0-2.579-2.578A2.578,2.578,0,0,0,195.443,357.64Z" transform="translate(-2.731 -6.19)" fill="#fff"/>
    <path id="Path_1913" data-name="Path 1913" d="M187.01,352.612a2.549,2.549,0,1,0-2.549-2.549A2.55,2.55,0,0,0,187.01,352.612Z" transform="translate(-2.549 -6.083)" fill="#fff"/>
    <path id="Path_1914" data-name="Path 1914" d="M178.942,347.014a2.519,2.519,0,1,0-2.519-2.519A2.519,2.519,0,0,0,178.942,347.014Z" transform="translate(-2.375 -5.963)" fill="#fff"/>
    <circle id="Ellipse_378" data-name="Ellipse 378" cx="2.49" cy="2.49" r="2.49" transform="translate(166.579 330.062)" fill="#fff"/>
    <path id="Path_1915" data-name="Path 1915" d="M164.052,334.275a2.519,2.519,0,1,0-2.519-2.519A2.519,2.519,0,0,0,164.052,334.275Z" transform="translate(-2.052 -5.687)" fill="#fff"/>
    <path id="Path_1916" data-name="Path 1916" d="M157.3,327.281a2.638,2.638,0,1,0-2.638-2.639A2.638,2.638,0,0,0,157.3,327.281Z" transform="translate(-1.904 -5.53)" fill="#fff"/>
    <path id="Path_1917" data-name="Path 1917" d="M151.056,319.722a2.638,2.638,0,1,0-2.638-2.638A2.638,2.638,0,0,0,151.056,319.722Z" transform="translate(-1.768 -5.367)" fill="#fff"/>
    <path id="Path_1918" data-name="Path 1918" d="M145.348,311.751a2.638,2.638,0,1,0-2.638-2.638A2.638,2.638,0,0,0,145.348,311.751Z" transform="translate(-1.645 -5.194)" fill="#fff"/>
    <path id="Path_1919" data-name="Path 1919" d="M140.2,303.405a2.638,2.638,0,1,0-2.638-2.638A2.638,2.638,0,0,0,140.2,303.405Z" transform="translate(-1.533 -5.013)" fill="#fff"/>
    <circle id="Ellipse_379" data-name="Ellipse 379" cx="2.667" cy="2.667" r="2.667" transform="translate(131.546 284.594)" fill="#fff"/>
    <path id="Path_1920" data-name="Path 1920" d="M131.7,285.837a2.727,2.727,0,1,0-2.727-2.727A2.727,2.727,0,0,0,131.7,285.837Z" transform="translate(-1.347 -4.629)" fill="#fff"/>
    <path id="Path_1921" data-name="Path 1921" d="M128.382,276.612a2.727,2.727,0,1,0-2.727-2.727A2.727,2.727,0,0,0,128.382,276.612Z" transform="translate(-1.276 -4.429)" fill="#fff"/>
    <path id="Path_1922" data-name="Path 1922" d="M125.707,267.266a2.815,2.815,0,1,0-2.816-2.815A2.815,2.815,0,0,0,125.707,267.266Z" transform="translate(-1.216 -4.223)" fill="#fff"/>
    <path id="Path_1923" data-name="Path 1923" d="M123.689,257.7a2.846,2.846,0,1,0-2.845-2.846A2.846,2.846,0,0,0,123.689,257.7Z" transform="translate(-1.171 -4.015)" fill="#fff"/>
    <path id="Path_1924" data-name="Path 1924" d="M122.339,248.02a2.875,2.875,0,1,0-2.875-2.874A2.874,2.874,0,0,0,122.339,248.02Z" transform="translate(-1.141 -3.804)" fill="#fff"/>
    <path id="Path_1925" data-name="Path 1925" d="M121.66,238.385a3.023,3.023,0,1,0-3.023-3.023A3.023,3.023,0,0,0,121.66,238.385Z" transform="translate(-1.124 -3.589)" fill="#fff"/>
    <circle id="Ellipse_380" data-name="Ellipse 380" cx="3.112" cy="3.112" r="3.112" transform="translate(117.424 219.069)" fill="#fff"/>
    <path id="Path_1926" data-name="Path 1926" d="M122.334,218.887a3.112,3.112,0,1,0-3.112-3.112A3.112,3.112,0,0,0,122.334,218.887Z" transform="translate(-1.136 -3.163)" fill="#fff"/>
    <circle id="Ellipse_381" data-name="Ellipse 381" cx="3.142" cy="3.142" r="3.142" transform="translate(119.377 199.971)" fill="#fff"/>
    <path id="Path_1927" data-name="Path 1927" d="M125.7,199.612a3.141,3.141,0,1,0-3.141-3.141A3.142,3.142,0,0,0,125.7,199.612Z" transform="translate(-1.208 -2.744)" fill="#fff"/>
    <path id="Path_1928" data-name="Path 1928" d="M128.372,190.18a3.142,3.142,0,1,0-3.141-3.141A3.142,3.142,0,0,0,128.372,190.18Z" transform="translate(-1.266 -2.54)" fill="#fff"/>
    <path id="Path_1929" data-name="Path 1929" d="M131.691,180.925a3.112,3.112,0,1,0-3.112-3.112A3.113,3.113,0,0,0,131.691,180.925Z" transform="translate(-1.339 -2.341)" fill="#fff"/>
    <circle id="Ellipse_382" data-name="Ellipse 382" cx="3.141" cy="3.141" r="3.141" transform="translate(131.072 163.551)" fill="#fff"/>
    <path id="Path_1930" data-name="Path 1930" d="M140.192,163.3a3.141,3.141,0,1,0-3.141-3.141A3.142,3.142,0,0,0,140.192,163.3Z" transform="translate(-1.522 -1.958)" fill="#fff"/>
    <path id="Path_1931" data-name="Path 1931" d="M145.341,154.75a2.934,2.934,0,1,0-2.934-2.934A2.934,2.934,0,0,0,145.341,154.75Z" transform="translate(-1.638 -1.782)" fill="#fff"/>
    <path id="Path_1932" data-name="Path 1932" d="M151.052,146.635a2.786,2.786,0,1,0-2.786-2.786A2.786,2.786,0,0,0,151.052,146.635Z" transform="translate(-1.765 -1.613)" fill="#fff"/>
    <path id="Path_1933" data-name="Path 1933" d="M157.3,138.7a2.4,2.4,0,1,0-2.4-2.4A2.4,2.4,0,0,0,157.3,138.7Z" transform="translate(-1.909 -1.457)" fill="#fff"/>
    <path id="Path_1934" data-name="Path 1934" d="M164.067,131.04a1.838,1.838,0,1,0-1.837-1.837A1.838,1.838,0,0,0,164.067,131.04Z" transform="translate(-2.067 -1.316)" fill="#fff"/>
    <path id="Path_1935" data-name="Path 1935" d="M171.3,124.036a1.452,1.452,0,1,0-1.452-1.452A1.451,1.451,0,0,0,171.3,124.036Z" transform="translate(-2.232 -1.181)" fill="#fff"/>
    <circle id="Ellipse_383" data-name="Ellipse 383" cx="1.037" cy="1.037" r="1.037" transform="translate(175.53 114.385)" fill="#fff"/>
    <circle id="Ellipse_384" data-name="Ellipse 384" cx="0.8" cy="0.8" r="0.8" transform="translate(183.661 109.174)" fill="#fff"/>
    <path id="Path_1936" data-name="Path 1936" d="M195.487,106.515a.593.593,0,1,0-.593-.593A.594.594,0,0,0,195.487,106.515Z" transform="translate(-2.775 -0.839)" fill="#fff"/>
    <path id="Path_1937" data-name="Path 1937" d="M204.248,101.993a.474.474,0,1,0-.475-.474A.474.474,0,0,0,204.248,101.993Z" transform="translate(-2.967 -0.746)" fill="#fff"/>
    <path id="Path_1938" data-name="Path 1938" d="M213.294,97.971a.237.237,0,1,0-.237-.238A.237.237,0,0,0,213.294,97.971Z" transform="translate(-3.168 -0.669)" fill="#fff"/>
    <path id="Path_1939" data-name="Path 1939" d="M222.578,94.667a.089.089,0,1,0-.089-.088A.089.089,0,0,0,222.578,94.667Z" transform="translate(-3.372 -0.604)" fill="#fff"/>
    <path id="Path_1940" data-name="Path 1940" d="M232.056,92.1a.03.03,0,1,0,0-.06.03.03,0,0,0,0,.06Z" transform="translate(-3.579 -0.551)" fill="#fff"/>
    <path id="Path_1941" data-name="Path 1941" d="M415.344,250.142a.059.059,0,1,0-.06-.06A.059.059,0,0,0,415.344,250.142Z" transform="translate(-7.547 -3.972)" fill="#fff"/>
    <path id="Path_1942" data-name="Path 1942" d="M413.773,260.082a.326.326,0,1,0-.326-.326A.326.326,0,0,0,413.773,260.082Z" transform="translate(-7.507 -4.176)" fill="#fff"/>
    <path id="Path_1943" data-name="Path 1943" d="M411.585,269.958a.652.652,0,1,0-.653-.652A.651.651,0,0,0,411.585,269.958Z" transform="translate(-7.453 -4.375)" fill="#fff"/>
    <path id="Path_1944" data-name="Path 1944" d="M408.787,279.676a.978.978,0,1,0-.978-.977A.978.978,0,0,0,408.787,279.676Z" transform="translate(-7.385 -4.572)" fill="#fff"/>
    <path id="Path_1945" data-name="Path 1945" d="M405.4,289.109a1.215,1.215,0,1,0-1.215-1.215A1.216,1.216,0,0,0,405.4,289.109Z" transform="translate(-7.306 -4.766)" fill="#fff"/>
    <path id="Path_1946" data-name="Path 1946" d="M401.423,298.247a1.393,1.393,0,1,0-1.392-1.392A1.392,1.392,0,0,0,401.423,298.247Z" transform="translate(-7.216 -4.956)" fill="#fff"/>
    <circle id="Ellipse_385" data-name="Ellipse 385" cx="1.334" cy="1.334" r="1.334" transform="translate(388.24 299.301) rotate(-9.257)" fill="#fff"/>
    <path id="Path_1947" data-name="Path 1947" d="M391.811,315.121a1.185,1.185,0,1,0-1.185-1.185A1.185,1.185,0,0,0,391.811,315.121Z" transform="translate(-7.013 -5.33)" fill="#fff"/>
    <path id="Path_1948" data-name="Path 1948" d="M386.206,322.988a1.008,1.008,0,1,0-1.008-1.008A1.008,1.008,0,0,0,386.206,322.988Z" transform="translate(-6.895 -5.508)" fill="#fff"/>
    <path id="Path_1949" data-name="Path 1949" d="M380.1,330.508a.859.859,0,1,0-.86-.859A.859.859,0,0,0,380.1,330.508Z" transform="translate(-6.766 -5.677)" fill="#fff"/>
    <path id="Path_1950" data-name="Path 1950" d="M373.508,337.65a.741.741,0,1,0-.741-.742A.741.741,0,0,0,373.508,337.65Z" transform="translate(-6.626 -5.837)" fill="#fff"/>
    <path id="Path_1951" data-name="Path 1951" d="M366.468,344.354a.622.622,0,1,0-.622-.622A.623.623,0,0,0,366.468,344.354Z" transform="translate(-6.476 -5.987)" fill="#fff"/>
    <path id="Path_1952" data-name="Path 1952" d="M359.006,350.594a.5.5,0,1,0-.5-.5A.5.5,0,0,0,359.006,350.594Z" transform="translate(-6.317 -6.128)" fill="#fff"/>
    <path id="Path_1953" data-name="Path 1953" d="M351.149,356.4a.445.445,0,1,0-.444-.445A.446.446,0,0,0,351.149,356.4Z" transform="translate(-6.148 -6.256)" fill="#fff"/>
    <circle id="Ellipse_386" data-name="Ellipse 386" cx="0.445" cy="0.445" r="0.445" transform="translate(336.518 354.487)" fill="#fff"/>
    <path id="Path_1954" data-name="Path 1954" d="M334.39,366.588a.474.474,0,1,0-.473-.475A.474.474,0,0,0,334.39,366.588Z" transform="translate(-5.785 -6.475)" fill="#fff"/>
    <path id="Path_1955" data-name="Path 1955" d="M325.554,370.958a.593.593,0,1,0-.593-.593A.592.592,0,0,0,325.554,370.958Z" transform="translate(-5.591 -6.565)" fill="#fff"/>
    <path id="Path_1956" data-name="Path 1956" d="M316.465,374.724a.681.681,0,1,0-.682-.681A.681.681,0,0,0,316.465,374.724Z" transform="translate(-5.392 -6.642)" fill="#fff"/>
    <path id="Path_1957" data-name="Path 1957" d="M307.157,377.93a.8.8,0,1,0-.8-.8A.8.8,0,0,0,307.157,377.93Z" transform="translate(-5.188 -6.707)" fill="#fff"/>
    <path id="Path_1958" data-name="Path 1958" d="M297.672,380.532a.919.919,0,1,0-.919-.919A.919.919,0,0,0,297.672,380.532Z" transform="translate(-4.98 -6.758)" fill="#fff"/>
    <path id="Path_1959" data-name="Path 1959" d="M288.045,382.522a1.037,1.037,0,1,0-1.037-1.037A1.038,1.038,0,0,0,288.045,382.522Z" transform="translate(-4.769 -6.796)" fill="#fff"/>
    <path id="Path_1960" data-name="Path 1960" d="M278.319,383.892a1.156,1.156,0,1,0-1.155-1.156A1.156,1.156,0,0,0,278.319,383.892Z" transform="translate(-4.556 -6.82)" fill="#fff"/>
    <circle id="Ellipse_387" data-name="Ellipse 387" cx="1.304" cy="1.304" r="1.304" transform="translate(262.887 375.226)" fill="#fff"/>
    <path id="Path_1961" data-name="Path 1961" d="M258.726,384.751a1.393,1.393,0,1,0-1.393-1.392A1.393,1.393,0,0,0,258.726,384.751Z" transform="translate(-4.127 -6.829)" fill="#fff"/>
    <path id="Path_1962" data-name="Path 1962" d="M248.94,384.239a1.511,1.511,0,1,0-1.512-1.512A1.511,1.511,0,0,0,248.94,384.239Z" transform="translate(-3.912 -6.813)" fill="#fff"/>
    <path id="Path_1963" data-name="Path 1963" d="M239.215,383.043a1.571,1.571,0,1,0-1.571-1.57A1.57,1.57,0,0,0,239.215,383.043Z" transform="translate(-3.7 -6.784)" fill="#fff"/>
    <path id="Path_1964" data-name="Path 1964" d="M229.589,381.257a1.66,1.66,0,1,0-1.659-1.659A1.66,1.66,0,0,0,229.589,381.257Z" transform="translate(-3.49 -6.741)" fill="#fff"/>
    <path id="Path_1965" data-name="Path 1965" d="M220.106,378.8a1.689,1.689,0,1,0-1.69-1.689A1.689,1.689,0,0,0,220.106,378.8Z" transform="translate(-3.284 -6.687)" fill="#fff"/>
    <path id="Path_1966" data-name="Path 1966" d="M210.8,375.739a1.719,1.719,0,1,0-1.719-1.719A1.719,1.719,0,0,0,210.8,375.739Z" transform="translate(-3.082 -6.619)" fill="#fff"/>
    <path id="Path_1967" data-name="Path 1967" d="M201.713,372.059a1.719,1.719,0,1,0-1.719-1.719A1.719,1.719,0,0,0,201.713,372.059Z" transform="translate(-2.885 -6.54)" fill="#fff"/>
    <path id="Path_1968" data-name="Path 1968" d="M192.879,367.835a1.749,1.749,0,1,0-1.749-1.749A1.748,1.748,0,0,0,192.879,367.835Z" transform="translate(-2.693 -6.447)" fill="#fff"/>
    <path id="Path_1969" data-name="Path 1969" d="M184.337,362.994a1.718,1.718,0,1,0-1.719-1.718A1.718,1.718,0,0,0,184.337,362.994Z" transform="translate(-2.509 -6.344)" fill="#fff"/>
    <path id="Path_1970" data-name="Path 1970" d="M176.121,357.646a1.719,1.719,0,1,0-1.719-1.719A1.719,1.719,0,0,0,176.121,357.646Z" transform="translate(-2.331 -6.228)" fill="#fff"/>
    <path id="Path_1971" data-name="Path 1971" d="M168.265,351.753a1.69,1.69,0,1,0-1.69-1.69A1.689,1.689,0,0,0,168.265,351.753Z" transform="translate(-2.162 -6.101)" fill="#fff"/>
    <path id="Path_1972" data-name="Path 1972" d="M160.8,345.427a1.719,1.719,0,1,0-1.719-1.719A1.719,1.719,0,0,0,160.8,345.427Z" transform="translate(-1.999 -5.963)" fill="#fff"/>
    <path id="Path_1973" data-name="Path 1973" d="M153.756,338.606a1.719,1.719,0,1,0-1.719-1.719A1.719,1.719,0,0,0,153.756,338.606Z" transform="translate(-1.847 -5.815)" fill="#fff"/>
    <path id="Path_1974" data-name="Path 1974" d="M147.164,331.349a1.719,1.719,0,1,0-1.719-1.719A1.719,1.719,0,0,0,147.164,331.349Z" transform="translate(-1.704 -5.658)" fill="#fff"/>
    <path id="Path_1975" data-name="Path 1975" d="M141.052,323.684a1.719,1.719,0,1,0-1.719-1.719A1.719,1.719,0,0,0,141.052,323.684Z" transform="translate(-1.572 -5.492)" fill="#fff"/>
    <path id="Path_1976" data-name="Path 1976" d="M135.443,315.643a1.719,1.719,0,1,0-1.719-1.719A1.719,1.719,0,0,0,135.443,315.643Z" transform="translate(-1.45 -5.318)" fill="#fff"/>
    <path id="Path_1977" data-name="Path 1977" d="M130.36,307.259a1.719,1.719,0,1,0-1.719-1.719A1.719,1.719,0,0,0,130.36,307.259Z" transform="translate(-1.34 -5.137)" fill="#fff"/>
    <path id="Path_1978" data-name="Path 1978" d="M125.825,298.6a1.749,1.749,0,1,0-1.749-1.748A1.748,1.748,0,0,0,125.825,298.6Z" transform="translate(-1.241 -4.948)" fill="#fff"/>
    <path id="Path_1979" data-name="Path 1979" d="M121.856,289.659a1.778,1.778,0,1,0-1.779-1.778A1.779,1.779,0,0,0,121.856,289.659Z" transform="translate(-1.155 -4.753)" fill="#fff"/>
    <circle id="Ellipse_388" data-name="Ellipse 388" cx="1.778" cy="1.778" r="1.778" transform="translate(115.61 272.348)" fill="#fff"/>
    <path id="Path_1980" data-name="Path 1980" d="M115.68,271.089a1.808,1.808,0,1,0-1.808-1.808A1.807,1.807,0,0,0,115.68,271.089Z" transform="translate(-1.02 -4.35)" fill="#fff"/>
    <path id="Path_1981" data-name="Path 1981" d="M113.5,261.56a1.837,1.837,0,1,0-1.837-1.837A1.838,1.838,0,0,0,113.5,261.56Z" transform="translate(-0.972 -4.142)" fill="#fff"/>
    <path id="Path_1982" data-name="Path 1982" d="M111.932,251.91a1.867,1.867,0,1,0-1.867-1.868A1.868,1.868,0,0,0,111.932,251.91Z" transform="translate(-0.938 -3.932)" fill="#fff"/>
    <path id="Path_1983" data-name="Path 1983" d="M110.991,242.151a1.867,1.867,0,1,0-1.868-1.867A1.866,1.866,0,0,0,110.991,242.151Z" transform="translate(-0.918 -3.721)" fill="#fff"/>
    <path id="Path_1984" data-name="Path 1984" d="M110.676,232.382a1.9,1.9,0,1,0-1.9-1.9A1.9,1.9,0,0,0,110.676,232.382Z" transform="translate(-0.91 -3.508)" fill="#fff"/>
    <path id="Path_1985" data-name="Path 1985" d="M110.991,222.553a1.867,1.867,0,1,0-1.868-1.867A1.866,1.866,0,0,0,110.991,222.553Z" transform="translate(-0.918 -3.296)" fill="#fff"/>
    <path id="Path_1986" data-name="Path 1986" d="M111.933,212.737a1.808,1.808,0,1,0-1.808-1.808A1.808,1.808,0,0,0,111.933,212.737Z" transform="translate(-0.939 -3.086)" fill="#fff"/>
    <circle id="Ellipse_389" data-name="Ellipse 389" cx="1.749" cy="1.749" r="1.749" transform="translate(110.776 196.625)" fill="#fff"/>
    <circle id="Ellipse_390" data-name="Ellipse 390" cx="1.63" cy="1.63" r="1.63" transform="translate(113.029 187.393)" fill="#fff"/>
    <circle id="Ellipse_391" data-name="Ellipse 391" cx="1.512" cy="1.512" r="1.512" transform="translate(115.871 181.333) rotate(-89.778)" fill="#fff"/>
    <path id="Path_1987" data-name="Path 1987" d="M121.865,174.466A1.363,1.363,0,1,0,120.5,173.1,1.363,1.363,0,0,0,121.865,174.466Z" transform="translate(-1.164 -2.277)" fill="#fff"/>
    <path id="Path_1988" data-name="Path 1988" d="M125.838,165.328a1.186,1.186,0,1,0-1.186-1.186A1.185,1.185,0,0,0,125.838,165.328Z" transform="translate(-1.254 -2.087)" fill="#fff"/>
    <path id="Path_1989" data-name="Path 1989" d="M130.375,156.49a1.038,1.038,0,1,0-1.037-1.037A1.038,1.038,0,0,0,130.375,156.49Z" transform="translate(-1.355 -1.902)" fill="#fff"/>
    <path id="Path_1990" data-name="Path 1990" d="M135.461,147.99a.919.919,0,1,0-.919-.919A.919.919,0,0,0,135.461,147.99Z" transform="translate(-1.468 -1.723)" fill="#fff"/>
    <circle id="Ellipse_392" data-name="Ellipse 392" cx="0.8" cy="0.8" r="0.8" transform="translate(138.68 136.682)" fill="#fff"/>
    <path id="Path_1991" data-name="Path 1991" d="M147.186,132.11a.741.741,0,1,0-.741-.741A.741.741,0,0,0,147.186,132.11Z" transform="translate(-1.726 -1.387)" fill="#fff"/>
    <path id="Path_1992" data-name="Path 1992" d="M153.776,124.911a.8.8,0,1,0-.8-.8A.8.8,0,0,0,153.776,124.911Z" transform="translate(-1.867 -1.228)" fill="#fff"/>
    <path id="Path_1993" data-name="Path 1993" d="M160.816,118.177a.889.889,0,1,0-.888-.889A.889.889,0,0,0,160.816,118.177Z" transform="translate(-2.018 -1.079)" fill="#fff"/>
    <path id="Path_1994" data-name="Path 1994" d="M168.278,112.024a1.1,1.1,0,1,0-1.1-1.1A1.1,1.1,0,0,0,168.278,112.024Z" transform="translate(-2.175 -0.936)" fill="#fff"/>
    <path id="Path_1995" data-name="Path 1995" d="M176.129,106.393a1.334,1.334,0,1,0-1.334-1.334A1.334,1.334,0,0,0,176.129,106.393Z" transform="translate(-2.34 -0.804)" fill="#fff"/>
    <path id="Path_1996" data-name="Path 1996" d="M184.343,101.16a1.452,1.452,0,1,0-1.452-1.452A1.452,1.452,0,0,0,184.343,101.16Z" transform="translate(-2.515 -0.686)" fill="#fff"/>
    <path id="Path_1997" data-name="Path 1997" d="M192.885,96.378A1.482,1.482,0,1,0,191.4,94.9,1.482,1.482,0,0,0,192.885,96.378Z" transform="translate(-2.699 -0.581)" fill="#fff"/>
    <path id="Path_1998" data-name="Path 1998" d="M201.719,92.095a1.452,1.452,0,1,0-1.452-1.452A1.451,1.451,0,0,0,201.719,92.095Z" transform="translate(-2.891 -0.489)" fill="#fff"/>
    <path id="Path_1999" data-name="Path 1999" d="M210.809,88.3a1.333,1.333,0,1,0-1.333-1.333A1.334,1.334,0,0,0,210.809,88.3Z" transform="translate(-3.09 -0.412)" fill="#fff"/>
    <path id="Path_2000" data-name="Path 2000" d="M220.116,85.1A1.215,1.215,0,1,0,218.9,83.88,1.215,1.215,0,0,0,220.116,85.1Z" transform="translate(-3.295 -0.348)" fill="#fff"/>
    <path id="Path_2001" data-name="Path 2001" d="M229.6,82.434a1.037,1.037,0,1,0-1.037-1.037A1.038,1.038,0,0,0,229.6,82.434Z" transform="translate(-3.504 -0.298)" fill="#fff"/>
    <circle id="Ellipse_393" data-name="Ellipse 393" cx="0.771" cy="0.771" r="0.771" transform="translate(234.744 78.495)" fill="#fff"/>
    <path id="Path_2002" data-name="Path 2002" d="M248.963,78.756a.474.474,0,1,0-.475-.475A.474.474,0,0,0,248.963,78.756Z" transform="translate(-3.935 -0.243)" fill="#fff"/>
    <path id="Path_2003" data-name="Path 2003" d="M258.752,77.867a.207.207,0,1,0-.207-.207A.208.208,0,0,0,258.752,77.867Z" transform="translate(-4.153 -0.235)" fill="#fff"/>
    <path id="Path_2004" data-name="Path 2004" d="M268.56,77.693a.029.029,0,0,0,.029-.029.029.029,0,1,0-.059,0A.029.029,0,0,0,268.56,77.693Z" transform="translate(-4.369 -0.239)" fill="#fff"/>
    <path id="Path_2005" data-name="Path 2005" d="M427.524,230.556a.03.03,0,1,0-.029-.029A.029.029,0,0,0,427.524,230.556Z" transform="translate(-7.811 -3.549)" fill="#fff"/>
    <path id="Path_2006" data-name="Path 2006" d="M427.229,240.443a.119.119,0,0,0,0-.238.119.119,0,1,0,0,.238Z" transform="translate(-7.803 -3.759)" fill="#fff"/>
    <path id="Path_2007" data-name="Path 2007" d="M426.349,250.265a.178.178,0,1,0-.178-.178A.178.178,0,0,0,426.349,250.265Z" transform="translate(-7.782 -3.969)" fill="#fff"/>
    <path id="Path_2008" data-name="Path 2008" d="M424.89,259.844a.06.06,0,0,0,.06-.06.059.059,0,1,0-.06.06Z" transform="translate(-7.753 -4.182)" fill="#fff"/>
    <path id="Path_2009" data-name="Path 2009" d="M373.306,352.332a.03.03,0,0,0,0-.06.03.03,0,1,0,0,.06Z" transform="translate(-6.637 -6.186)" fill="#fff"/>
    <path id="Path_2010" data-name="Path 2010" d="M365.827,358.7a.059.059,0,1,0-.06-.06A.059.059,0,0,0,365.827,358.7Z" transform="translate(-6.475 -6.322)" fill="#fff"/>
    <path id="Path_2011" data-name="Path 2011" d="M357.98,364.639a.118.118,0,1,0-.118-.118A.118.118,0,0,0,357.98,364.639Z" transform="translate(-6.303 -6.448)" fill="#fff"/>
    <path id="Path_2012" data-name="Path 2012" d="M349.8,370.1a.178.178,0,1,0-.178-.178A.178.178,0,0,0,349.8,370.1Z" transform="translate(-6.125 -6.564)" fill="#fff"/>
    <path id="Path_2013" data-name="Path 2013" d="M341.3,375.087a.267.267,0,1,0-.267-.267A.267.267,0,0,0,341.3,375.087Z" transform="translate(-5.939 -6.668)" fill="#fff"/>
    <path id="Path_2014" data-name="Path 2014" d="M332.534,379.531a.326.326,0,1,0-.326-.326A.326.326,0,0,0,332.534,379.531Z" transform="translate(-5.748 -6.762)" fill="#fff"/>
    <path id="Path_2015" data-name="Path 2015" d="M323.517,383.471a.415.415,0,1,0-.415-.415A.415.415,0,0,0,323.517,383.471Z" transform="translate(-5.551 -6.843)" fill="#fff"/>
    <path id="Path_2016" data-name="Path 2016" d="M314.285,386.865a.5.5,0,1,0-.5-.5A.5.5,0,0,0,314.285,386.865Z" transform="translate(-5.349 -6.913)" fill="#fff"/>
    <path id="Path_2017" data-name="Path 2017" d="M304.872,389.73a.622.622,0,1,0-.623-.622A.623.623,0,0,0,304.872,389.73Z" transform="translate(-5.142 -6.97)" fill="#fff"/>
    <path id="Path_2018" data-name="Path 2018" d="M295.312,391.97a.681.681,0,1,0-.682-.682A.682.682,0,0,0,295.312,391.97Z" transform="translate(-4.934 -7.016)" fill="#fff"/>
    <path id="Path_2019" data-name="Path 2019" d="M285.638,393.663a.77.77,0,1,0-.77-.771A.771.771,0,0,0,285.638,393.663Z" transform="translate(-4.723 -7.049)" fill="#fff"/>
    <path id="Path_2020" data-name="Path 2020" d="M275.886,394.775a.859.859,0,1,0-.86-.86A.859.859,0,0,0,275.886,394.775Z" transform="translate(-4.51 -7.069)" fill="#fff"/>
    <path id="Path_2021" data-name="Path 2021" d="M266.089,395.3a.949.949,0,1,0-.948-.949A.949.949,0,0,0,266.089,395.3Z" transform="translate(-4.296 -7.076)" fill="#fff"/>
    <path id="Path_2022" data-name="Path 2022" d="M256.284,395.242a1.038,1.038,0,1,0-1.037-1.037A1.037,1.037,0,0,0,256.284,395.242Z" transform="translate(-4.082 -7.071)" fill="#fff"/>
    <path id="Path_2023" data-name="Path 2023" d="M246.506,394.568a1.1,1.1,0,1,0-1.1-1.1A1.1,1.1,0,0,0,246.506,394.568Z" transform="translate(-3.869 -7.054)" fill="#fff"/>
    <path id="Path_2024" data-name="Path 2024" d="M236.789,393.309a1.156,1.156,0,1,0-1.156-1.155A1.156,1.156,0,0,0,236.789,393.309Z" transform="translate(-3.657 -7.024)" fill="#fff"/>
    <path id="Path_2025" data-name="Path 2025" d="M227.168,391.472a1.215,1.215,0,1,0-1.215-1.215A1.215,1.215,0,0,0,227.168,391.472Z" transform="translate(-3.447 -6.982)" fill="#fff"/>
    <circle id="Ellipse_394" data-name="Ellipse 394" cx="1.245" cy="1.245" r="1.245" transform="translate(213.193 379.617)" fill="#fff"/>
    <circle id="Ellipse_395" data-name="Ellipse 395" cx="1.274" cy="1.274" r="1.274" transform="translate(204.041 376.624)" fill="#fff"/>
    <circle id="Ellipse_396" data-name="Ellipse 396" cx="1.274" cy="1.274" r="1.274" transform="translate(195.112 373.119)" fill="#fff"/>
    <path id="Path_2026" data-name="Path 2026" d="M190.331,378.36a1.3,1.3,0,1,0-1.3-1.3A1.3,1.3,0,0,0,190.331,378.36Z" transform="translate(-2.648 -6.694)" fill="#fff"/>
    <path id="Path_2027" data-name="Path 2027" d="M181.7,373.714a1.3,1.3,0,1,0-1.3-1.3A1.3,1.3,0,0,0,181.7,373.714Z" transform="translate(-2.461 -6.594)" fill="#fff"/>
    <path id="Path_2028" data-name="Path 2028" d="M173.357,368.56a1.3,1.3,0,1,0-1.3-1.3A1.3,1.3,0,0,0,173.357,368.56Z" transform="translate(-2.28 -6.482)" fill="#fff"/>
    <path id="Path_2029" data-name="Path 2029" d="M165.341,362.888a1.274,1.274,0,1,0-1.275-1.275A1.274,1.274,0,0,0,165.341,362.888Z" transform="translate(-2.107 -6.36)" fill="#fff"/>
    <path id="Path_2030" data-name="Path 2030" d="M157.675,356.775A1.274,1.274,0,1,0,156.4,355.5,1.274,1.274,0,0,0,157.675,356.775Z" transform="translate(-1.941 -6.228)" fill="#fff"/>
    <circle id="Ellipse_397" data-name="Ellipse 397" cx="1.274" cy="1.274" r="1.274" transform="translate(147.331 341.579)" fill="#fff"/>
    <path id="Path_2031" data-name="Path 2031" d="M143.508,343.259a1.3,1.3,0,1,0-1.3-1.3A1.3,1.3,0,0,0,143.508,343.259Z" transform="translate(-1.634 -5.934)" fill="#fff"/>
    <circle id="Ellipse_398" data-name="Ellipse 398" cx="1.274" cy="1.274" r="1.274" transform="translate(134.289 327.523)" fill="#fff"/>
    <path id="Path_2032" data-name="Path 2032" d="M131.06,328.12a1.3,1.3,0,1,0-1.3-1.3A1.3,1.3,0,0,0,131.06,328.12Z" transform="translate(-1.364 -5.606)" fill="#fff"/>
    <circle id="Ellipse_399" data-name="Ellipse 399" cx="1.304" cy="1.304" r="1.304" transform="translate(122.988 311.98)" fill="#fff"/>
    <path id="Path_2033" data-name="Path 2033" d="M120.509,311.574a1.274,1.274,0,1,0-1.274-1.274A1.274,1.274,0,0,0,120.509,311.574Z" transform="translate(-1.137 -5.249)" fill="#fff"/>
    <path id="Path_2034" data-name="Path 2034" d="M115.992,302.9a1.3,1.3,0,1,0-1.3-1.3A1.3,1.3,0,0,0,115.992,302.9Z" transform="translate(-1.038 -5.06)" fill="#fff"/>
    <circle id="Ellipse_400" data-name="Ellipse 400" cx="1.334" cy="1.334" r="1.334" transform="translate(109.719 286.44)" fill="#fff"/>
    <circle id="Ellipse_401" data-name="Ellipse 401" cx="1.334" cy="1.334" r="1.334" transform="translate(106.349 277.46)" fill="#fff"/>
    <circle id="Ellipse_402" data-name="Ellipse 402" cx="1.334" cy="1.334" r="1.334" transform="translate(103.521 268.294)" fill="#fff"/>
    <path id="Path_2035" data-name="Path 2035" d="M103.344,265.93a1.363,1.363,0,1,0-1.363-1.364A1.363,1.363,0,0,0,103.344,265.93Z" transform="translate(-0.763 -4.257)" fill="#fff"/>
    <path id="Path_2036" data-name="Path 2036" d="M101.593,256.283a1.363,1.363,0,1,0-1.363-1.363A1.363,1.363,0,0,0,101.593,256.283Z" transform="translate(-0.725 -4.048)" fill="#fff"/>
    <path id="Path_2037" data-name="Path 2037" d="M100.422,246.577a1.393,1.393,0,1,0-1.393-1.392A1.393,1.393,0,0,0,100.422,246.577Z" transform="translate(-0.699 -3.837)" fill="#fff"/>
    <path id="Path_2038" data-name="Path 2038" d="M99.836,236.82a1.423,1.423,0,1,0-1.423-1.423A1.423,1.423,0,0,0,99.836,236.82Z" transform="translate(-0.686 -3.624)" fill="#fff"/>
    <path id="Path_2039" data-name="Path 2039" d="M99.836,226.986a1.393,1.393,0,1,0-1.393-1.392A1.392,1.392,0,0,0,99.836,226.986Z" transform="translate(-0.686 -3.413)" fill="#fff"/>
    <path id="Path_2040" data-name="Path 2040" d="M100.422,217.2a1.393,1.393,0,1,0-1.393-1.393A1.394,1.394,0,0,0,100.422,217.2Z" transform="translate(-0.699 -3.201)" fill="#fff"/>
    <path id="Path_2041" data-name="Path 2041" d="M101.594,207.408a1.333,1.333,0,1,0-1.333-1.333A1.334,1.334,0,0,0,101.594,207.408Z" transform="translate(-0.726 -2.991)" fill="#fff"/>
    <path id="Path_2042" data-name="Path 2042" d="M103.346,197.674a1.244,1.244,0,1,0-1.244-1.244A1.244,1.244,0,0,0,103.346,197.674Z" transform="translate(-0.766 -2.784)" fill="#fff"/>
    <path id="Path_2043" data-name="Path 2043" d="M105.672,188.063a1.156,1.156,0,1,0-1.155-1.156A1.156,1.156,0,0,0,105.672,188.063Z" transform="translate(-0.818 -2.58)" fill="#fff"/>
    <path id="Path_2044" data-name="Path 2044" d="M108.565,178.578a1.038,1.038,0,1,0-1.037-1.037A1.038,1.038,0,0,0,108.565,178.578Z" transform="translate(-0.883 -2.38)" fill="#fff"/>
    <circle id="Ellipse_403" data-name="Ellipse 403" cx="0.919" cy="0.919" r="0.919" transform="translate(110.134 165.262)" fill="#fff"/>
    <circle id="Ellipse_404" data-name="Ellipse 404" cx="0.8" cy="0.8" r="0.8" transform="translate(114.154 156.618)" fill="#fff"/>
    <path id="Path_2045" data-name="Path 2045" d="M120.522,151.393a.682.682,0,1,0-.682-.682A.682.682,0,0,0,120.522,151.393Z" transform="translate(-1.15 -1.807)" fill="#fff"/>
    <path id="Path_2046" data-name="Path 2046" d="M125.554,142.86a.563.563,0,1,0-.564-.564A.563.563,0,0,0,125.554,142.86Z" transform="translate(-1.261 -1.627)" fill="#fff"/>
    <path id="Path_2047" data-name="Path 2047" d="M131.079,134.643a.445.445,0,1,0-.445-.444A.444.444,0,0,0,131.079,134.643Z" transform="translate(-1.383 -1.454)" fill="#fff"/>
    <path id="Path_2048" data-name="Path 2048" d="M137.079,126.772a.326.326,0,1,0-.326-.326A.327.327,0,0,0,137.079,126.772Z" transform="translate(-1.516 -1.289)" fill="#fff"/>
    <path id="Path_2049" data-name="Path 2049" d="M143.532,119.273a.207.207,0,1,0-.207-.207A.207.207,0,0,0,143.532,119.273Z" transform="translate(-1.658 -1.132)" fill="#fff"/>
    <path id="Path_2050" data-name="Path 2050" d="M150.414,112.23a.148.148,0,1,0-.148-.149A.149.149,0,0,0,150.414,112.23Z" transform="translate(-1.808 -0.982)" fill="#fff"/>
    <path id="Path_2051" data-name="Path 2051" d="M157.7,105.612a.089.089,0,1,0-.088-.089A.089.089,0,0,0,157.7,105.612Z" transform="translate(-1.967 -0.841)" fill="#fff"/>
    <path id="Path_2052" data-name="Path 2052" d="M165.368,99.441a.029.029,0,1,0-.03-.029A.029.029,0,0,0,165.368,99.441Z" transform="translate(-2.135 -0.71)" fill="#fff"/>
    <path id="Path_2053" data-name="Path 2053" d="M173.385,93.8a.03.03,0,0,0,0-.06.03.03,0,0,0,0,.06Z" transform="translate(-2.308 -0.588)" fill="#fff"/>
    <path id="Path_2054" data-name="Path 2054" d="M181.725,88.644a.029.029,0,0,0,.029-.029.029.029,0,1,0-.059,0A.029.029,0,0,0,181.725,88.644Z" transform="translate(-2.489 -0.476)" fill="#fff"/>
    <path id="Path_2055" data-name="Path 2055" d="M190.359,84a.03.03,0,0,0,.029-.029.03.03,0,0,0-.06,0A.03.03,0,0,0,190.359,84Z" transform="translate(-2.676 -0.376)" fill="#fff"/>
    <path id="Path_2056" data-name="Path 2056" d="M199.255,79.877a.03.03,0,1,0-.03-.03A.03.03,0,0,0,199.255,79.877Z" transform="translate(-2.868 -0.286)" fill="#fff"/>
    <path id="Path_2057" data-name="Path 2057" d="M208.381,76.295a.03.03,0,1,0,0-.06.03.03,0,0,0,0,.06Z" transform="translate(-3.066 -0.209)" fill="#fff"/>
    <circle id="Ellipse_405" data-name="Ellipse 405" cx="0.03" cy="0.03" r="0.03" transform="translate(214.408 73.062)" fill="#fff"/>
    <circle id="Ellipse_406" data-name="Ellipse 406" cx="0.059" cy="0.059" r="0.059" transform="translate(223.662 70.62)" fill="#fff"/>
    <path id="Path_2058" data-name="Path 2058" d="M236.813,68.962a.09.09,0,0,0,.089-.09.089.089,0,0,0-.178,0A.09.09,0,0,0,236.813,68.962Z" transform="translate(-3.68 -0.048)" fill="#fff"/>
    <path id="Path_2059" data-name="Path 2059" d="M246.528,67.645a.089.089,0,1,0-.089-.088A.088.088,0,0,0,246.528,67.645Z" transform="translate(-3.891 -0.019)" fill="#fff"/>
    <path id="Path_2060" data-name="Path 2060" d="M256.305,66.913a.089.089,0,1,0-.089-.089A.089.089,0,0,0,256.305,66.913Z" transform="translate(-4.102 -0.003)" fill="#fff"/>
    <path id="Path_2061" data-name="Path 2061" d="M266.108,66.766a.089.089,0,1,0-.089-.089A.089.089,0,0,0,266.108,66.766Z" transform="translate(-4.315 0)" fill="#fff"/>
    <path id="Path_2062" data-name="Path 2062" d="M275.9,67.177a.059.059,0,1,0-.06-.06A.059.059,0,0,0,275.9,67.177Z" transform="translate(-4.527 -0.01)" fill="#fff"/>
    <path id="Path_2063" data-name="Path 2063" d="M285.654,68.173a.029.029,0,1,0-.029-.029A.03.03,0,0,0,285.654,68.173Z" transform="translate(-4.739 -0.033)" fill="#fff"/>
    <path id="Path_2064" data-name="Path 2064" d="M380.129,360.887a.03.03,0,1,0-.029-.029A.029.029,0,0,0,380.129,360.887Z" transform="translate(-6.785 -6.371)" fill="#fff"/>
    <path id="Path_2065" data-name="Path 2065" d="M372.638,367.212a.029.029,0,1,0-.029-.029A.029.029,0,0,0,372.638,367.212Z" transform="translate(-6.623 -6.508)" fill="#fff"/>
    <path id="Path_2066" data-name="Path 2066" d="M364.8,373.136a.059.059,0,1,0,0-.118.059.059,0,1,0,0,.118Z" transform="translate(-6.452 -6.635)" fill="#fff"/>
    <path id="Path_2067" data-name="Path 2067" d="M356.65,378.642a.118.118,0,1,0-.118-.118A.118.118,0,0,0,356.65,378.642Z" transform="translate(-6.275 -6.752)" fill="#fff"/>
    <path id="Path_2068" data-name="Path 2068" d="M348.2,383.652a.148.148,0,1,0-.148-.149A.149.149,0,0,0,348.2,383.652Z" transform="translate(-6.091 -6.859)" fill="#fff"/>
    <path id="Path_2069" data-name="Path 2069" d="M339.493,388.21a.207.207,0,1,0-.207-.207A.208.208,0,0,0,339.493,388.21Z" transform="translate(-5.901 -6.955)" fill="#fff"/>
    <path id="Path_2070" data-name="Path 2070" d="M330.542,392.272a.267.267,0,1,0-.266-.266A.267.267,0,0,0,330.542,392.272Z" transform="translate(-5.706 -7.04)" fill="#fff"/>
    <path id="Path_2071" data-name="Path 2071" d="M321.382,395.828a.326.326,0,1,0-.327-.327A.327.327,0,0,0,321.382,395.828Z" transform="translate(-5.506 -7.115)" fill="#fff"/>
    <path id="Path_2072" data-name="Path 2072" d="M312.039,398.862a.385.385,0,1,0-.385-.384A.385.385,0,0,0,312.039,398.862Z" transform="translate(-5.303 -7.178)" fill="#fff"/>
    <path id="Path_2073" data-name="Path 2073" d="M302.543,401.369a.445.445,0,1,0-.444-.444A.445.445,0,0,0,302.543,401.369Z" transform="translate(-5.096 -7.23)" fill="#fff"/>
    <path id="Path_2074" data-name="Path 2074" d="M292.927,403.34a.5.5,0,1,0-.5-.5A.5.5,0,0,0,292.927,403.34Z" transform="translate(-4.887 -7.27)" fill="#fff"/>
    <path id="Path_2075" data-name="Path 2075" d="M283.217,404.739a.533.533,0,1,0-.533-.533A.534.534,0,0,0,283.217,404.739Z" transform="translate(-4.676 -7.299)" fill="#fff"/>
    <path id="Path_2076" data-name="Path 2076" d="M273.447,405.622a.593.593,0,1,0-.593-.593A.592.592,0,0,0,273.447,405.622Z" transform="translate(-4.463 -7.315)" fill="#fff"/>
    <path id="Path_2077" data-name="Path 2077" d="M263.644,405.984a.682.682,0,1,0-.682-.682A.682.682,0,0,0,263.644,405.984Z" transform="translate(-4.249 -7.319)" fill="#fff"/>
    <path id="Path_2078" data-name="Path 2078" d="M253.842,405.738a.711.711,0,1,0-.711-.711A.712.712,0,0,0,253.842,405.738Z" transform="translate(-4.036 -7.313)" fill="#fff"/>
    <path id="Path_2079" data-name="Path 2079" d="M244.073,404.942a.741.741,0,1,0-.742-.741A.741.741,0,0,0,244.073,404.942Z" transform="translate(-3.823 -7.294)" fill="#fff"/>
    <path id="Path_2080" data-name="Path 2080" d="M234.363,403.63a.8.8,0,1,0-.8-.8A.8.8,0,0,0,234.363,403.63Z" transform="translate(-3.612 -7.263)" fill="#fff"/>
    <path id="Path_2081" data-name="Path 2081" d="M224.746,401.746a.83.83,0,1,0-.83-.83A.83.83,0,0,0,224.746,401.746Z" transform="translate(-3.403 -7.221)" fill="#fff"/>
    <path id="Path_2082" data-name="Path 2082" d="M215.252,399.326a.859.859,0,1,0-.86-.859A.859.859,0,0,0,215.252,399.326Z" transform="translate(-3.197 -7.167)" fill="#fff"/>
    <path id="Path_2083" data-name="Path 2083" d="M205.909,396.378a.889.889,0,1,0-.888-.889A.889.889,0,0,0,205.909,396.378Z" transform="translate(-2.994 -7.102)" fill="#fff"/>
    <path id="Path_2084" data-name="Path 2084" d="M196.75,392.882a.889.889,0,1,0-.889-.889A.888.888,0,0,0,196.75,392.882Z" transform="translate(-2.796 -7.027)" fill="#fff"/>
    <path id="Path_2085" data-name="Path 2085" d="M187.8,388.905a.919.919,0,1,0-.919-.919A.918.918,0,0,0,187.8,388.905Z" transform="translate(-2.601 -6.939)" fill="#fff"/>
    <circle id="Ellipse_407" data-name="Ellipse 407" cx="0.919" cy="0.919" r="0.919" transform="translate(175.758 375.726)" fill="#fff"/>
    <path id="Path_2086" data-name="Path 2086" d="M170.645,379.4a.889.889,0,1,0-.889-.889A.889.889,0,0,0,170.645,379.4Z" transform="translate(-2.23 -6.735)" fill="#fff"/>
    <path id="Path_2087" data-name="Path 2087" d="M162.493,373.949a.889.889,0,1,0-.889-.889A.889.889,0,0,0,162.493,373.949Z" transform="translate(-2.054 -6.617)" fill="#fff"/>
    <path id="Path_2088" data-name="Path 2088" d="M154.66,368.024a.859.859,0,1,0-.859-.86A.861.861,0,0,0,154.66,368.024Z" transform="translate(-1.885 -6.49)" fill="#fff"/>
    <path id="Path_2089" data-name="Path 2089" d="M147.168,361.727a.889.889,0,1,0-.889-.888A.889.889,0,0,0,147.168,361.727Z" transform="translate(-1.722 -6.352)" fill="#fff"/>
    <circle id="Ellipse_408" data-name="Ellipse 408" cx="0.889" cy="0.889" r="0.889" transform="translate(137.587 347.007)" fill="#fff"/>
    <circle id="Ellipse_409" data-name="Ellipse 409" cx="0.889" cy="0.889" r="0.889" transform="translate(130.997 340.037)" fill="#fff"/>
    <path id="Path_2090" data-name="Path 2090" d="M126.982,340.376a.889.889,0,1,0-.888-.888A.889.889,0,0,0,126.982,340.376Z" transform="translate(-1.285 -5.89)" fill="#fff"/>
    <circle id="Ellipse_410" data-name="Ellipse 410" cx="0.889" cy="0.889" r="0.889" transform="translate(119.041 325.044)" fill="#fff"/>
    <path id="Path_2091" data-name="Path 2091" d="M115.64,324.391a.889.889,0,1,0-.889-.889A.889.889,0,0,0,115.64,324.391Z" transform="translate(-1.039 -5.544)" fill="#fff"/>
    <path id="Path_2092" data-name="Path 2092" d="M110.66,315.917a.859.859,0,1,0-.86-.86A.86.86,0,0,0,110.66,315.917Z" transform="translate(-0.932 -5.361)" fill="#fff"/>
    <path id="Path_2093" data-name="Path 2093" d="M106.158,307.235a.889.889,0,1,0-.888-.889A.889.889,0,0,0,106.158,307.235Z" transform="translate(-0.834 -5.172)" fill="#fff"/>
    <path id="Path_2094" data-name="Path 2094" d="M102.154,298.314a.919.919,0,1,0-.919-.919A.918.918,0,0,0,102.154,298.314Z" transform="translate(-0.747 -4.978)" fill="#fff"/>
    <path id="Path_2095" data-name="Path 2095" d="M98.657,289.154a.919.919,0,1,0-.919-.919A.919.919,0,0,0,98.657,289.154Z" transform="translate(-0.671 -4.779)" fill="#fff"/>
    <path id="Path_2096" data-name="Path 2096" d="M95.68,279.813a.919.919,0,1,0-.919-.919A.919.919,0,0,0,95.68,279.813Z" transform="translate(-0.607 -4.577)" fill="#fff"/>
    <path id="Path_2097" data-name="Path 2097" d="M93.23,270.348a.948.948,0,1,0-.948-.948A.948.948,0,0,0,93.23,270.348Z" transform="translate(-0.553 -4.371)" fill="#fff"/>
    <circle id="Ellipse_411" data-name="Ellipse 411" cx="0.948" cy="0.948" r="0.948" transform="translate(89.858 254.673)" fill="#fff"/>
    <path id="Path_2098" data-name="Path 2098" d="M89.946,251.054a.978.978,0,1,0-.978-.978A.978.978,0,0,0,89.946,251.054Z" transform="translate(-0.481 -3.952)" fill="#fff"/>
    <path id="Path_2099" data-name="Path 2099" d="M89.122,241.284a.978.978,0,1,0-.978-.978A.978.978,0,0,0,89.122,241.284Z" transform="translate(-0.463 -3.74)" fill="#fff"/>
    <path id="Path_2100" data-name="Path 2100" d="M88.847,231.483a.978.978,0,1,0-.978-.977A.977.977,0,0,0,88.847,231.483Z" transform="translate(-0.457 -3.528)" fill="#fff"/>
    <path id="Path_2101" data-name="Path 2101" d="M89.122,221.683a.978.978,0,1,0-.978-.978A.978.978,0,0,0,89.122,221.683Z" transform="translate(-0.463 -3.316)" fill="#fff"/>
    <path id="Path_2102" data-name="Path 2102" d="M89.947,211.884a.949.949,0,1,0-.949-.949A.948.948,0,0,0,89.947,211.884Z" transform="translate(-0.482 -3.105)" fill="#fff"/>
    <path id="Path_2103" data-name="Path 2103" d="M91.318,202.146a.919.919,0,1,0-.919-.919A.919.919,0,0,0,91.318,202.146Z" transform="translate(-0.512 -2.895)" fill="#fff"/>
    <path id="Path_2104" data-name="Path 2104" d="M93.232,192.473a.859.859,0,1,0-.859-.86A.861.861,0,0,0,93.232,192.473Z" transform="translate(-0.555 -2.688)" fill="#fff"/>
    <circle id="Ellipse_412" data-name="Ellipse 412" cx="0.83" cy="0.83" r="0.83" transform="translate(94.243 178.807)" fill="#fff"/>
    <path id="Path_2105" data-name="Path 2105" d="M98.661,173.522a.741.741,0,1,0-.741-.742A.741.741,0,0,0,98.661,173.522Z" transform="translate(-0.675 -2.283)" fill="#fff"/>
    <path id="Path_2106" data-name="Path 2106" d="M102.16,164.275a.652.652,0,1,0-.653-.653A.652.652,0,0,0,102.16,164.275Z" transform="translate(-0.753 -2.087)" fill="#fff"/>
    <path id="Path_2107" data-name="Path 2107" d="M106.166,155.239a.563.563,0,1,0-.563-.564A.564.564,0,0,0,106.166,155.239Z" transform="translate(-0.841 -1.895)" fill="#fff"/>
    <path id="Path_2108" data-name="Path 2108" d="M110.669,146.441a.474.474,0,1,0-.475-.475A.474.474,0,0,0,110.669,146.441Z" transform="translate(-0.941 -1.709)" fill="#fff"/>
    <circle id="Ellipse_413" data-name="Ellipse 413" cx="0.415" cy="0.415" r="0.415" transform="translate(114.186 135.582)" fill="#fff"/>
    <path id="Path_2109" data-name="Path 2109" d="M121.1,129.7a.326.326,0,1,0-.326-.326A.326.326,0,0,0,121.1,129.7Z" transform="translate(-1.17 -1.352)" fill="#fff"/>
    <path id="Path_2110" data-name="Path 2110" d="M127,121.779a.237.237,0,1,0-.237-.237A.237.237,0,0,0,127,121.779Z" transform="translate(-1.299 -1.185)" fill="#fff"/>
    <path id="Path_2111" data-name="Path 2111" d="M133.324,114.23a.178.178,0,1,0-.178-.178A.179.179,0,0,0,133.324,114.23Z" transform="translate(-1.438 -1.024)" fill="#fff"/>
    <path id="Path_2112" data-name="Path 2112" d="M140.061,107.076a.148.148,0,1,0-.149-.149A.148.148,0,0,0,140.061,107.076Z" transform="translate(-1.584 -0.87)" fill="#fff"/>
    <path id="Path_2113" data-name="Path 2113" d="M147.186,100.283a.089.089,0,1,0-.089-.089A.089.089,0,0,0,147.186,100.283Z" transform="translate(-1.74 -0.726)" fill="#fff"/>
    <path id="Path_2114" data-name="Path 2114" d="M154.678,93.9a.029.029,0,0,0,.029-.029.029.029,0,1,0-.059,0A.029.029,0,0,0,154.678,93.9Z" transform="translate(-1.903 -0.59)" fill="#fff"/>
    <path id="Path_2115" data-name="Path 2115" d="M428.64,172.827a.03.03,0,0,0,.029-.03.03.03,0,0,0-.06,0A.03.03,0,0,0,428.64,172.827Z" transform="translate(-7.835 -2.299)" fill="#fff"/>
    <path id="Path_2116" data-name="Path 2116" d="M431.617,182.168a.03.03,0,1,0-.029-.029A.029.029,0,0,0,431.617,182.168Z" transform="translate(-7.9 -2.501)" fill="#fff"/>
    <path id="Path_2117" data-name="Path 2117" d="M386.951,369.44a.029.029,0,1,0-.03-.029A.029.029,0,0,0,386.951,369.44Z" transform="translate(-6.933 -6.556)" fill="#fff"/>
    <path id="Path_2118" data-name="Path 2118" d="M379.449,375.754a.03.03,0,1,0,0-.06.03.03,0,0,0,0,.06Z" transform="translate(-6.77 -6.693)" fill="#fff"/>
    <path id="Path_2119" data-name="Path 2119" d="M371.625,381.662a.029.029,0,1,0-.029-.029A.029.029,0,0,0,371.625,381.662Z" transform="translate(-6.601 -6.821)" fill="#fff"/>
    <path id="Path_2120" data-name="Path 2120" d="M363.5,387.178a.059.059,0,1,0-.06-.06A.059.059,0,0,0,363.5,387.178Z" transform="translate(-6.424 -6.939)" fill="#fff"/>
    <path id="Path_2121" data-name="Path 2121" d="M355.1,392.258a.089.089,0,1,0-.088-.089A.089.089,0,0,0,355.1,392.258Z" transform="translate(-6.242 -7.048)" fill="#fff"/>
    <path id="Path_2122" data-name="Path 2122" d="M346.436,396.888a.119.119,0,1,0-.118-.118A.118.118,0,0,0,346.436,396.888Z" transform="translate(-6.053 -7.147)" fill="#fff"/>
    <circle id="Ellipse_414" data-name="Ellipse 414" cx="0.148" cy="0.148" r="0.148" transform="translate(331.538 393.522)" fill="#fff"/>
    <path id="Path_2123" data-name="Path 2123" d="M328.451,404.745a.178.178,0,1,0-.178-.178A.178.178,0,0,0,328.451,404.745Z" transform="translate(-5.663 -7.314)" fill="#fff"/>
    <path id="Path_2124" data-name="Path 2124" d="M319.175,407.951a.207.207,0,1,0-.207-.207A.208.208,0,0,0,319.175,407.951Z" transform="translate(-5.461 -7.382)" fill="#fff"/>
    <path id="Path_2125" data-name="Path 2125" d="M309.744,410.663a.237.237,0,1,0-.237-.237A.237.237,0,0,0,309.744,410.663Z" transform="translate(-5.256 -7.44)" fill="#fff"/>
    <path id="Path_2126" data-name="Path 2126" d="M300.185,412.874a.267.267,0,1,0-.267-.267A.267.267,0,0,0,300.185,412.874Z" transform="translate(-5.049 -7.486)" fill="#fff"/>
    <path id="Path_2127" data-name="Path 2127" d="M290.523,414.577a.3.3,0,1,0-.3-.3A.3.3,0,0,0,290.523,414.577Z" transform="translate(-4.839 -7.522)" fill="#fff"/>
    <path id="Path_2128" data-name="Path 2128" d="M280.788,415.739a.3.3,0,1,0-.3-.3A.3.3,0,0,0,280.788,415.739Z" transform="translate(-4.628 -7.547)" fill="#fff"/>
    <path id="Path_2129" data-name="Path 2129" d="M271,416.443a.356.356,0,1,0-.355-.355A.355.355,0,0,0,271,416.443Z" transform="translate(-4.415 -7.56)" fill="#fff"/>
    <path id="Path_2130" data-name="Path 2130" d="M261.2,416.6a.385.385,0,1,0-.385-.385A.386.386,0,0,0,261.2,416.6Z" transform="translate(-4.202 -7.562)" fill="#fff"/>
    <path id="Path_2131" data-name="Path 2131" d="M251.4,416.243a.415.415,0,1,0-.415-.415A.415.415,0,0,0,251.4,416.243Z" transform="translate(-3.989 -7.553)" fill="#fff"/>
    <path id="Path_2132" data-name="Path 2132" d="M241.638,415.4a.474.474,0,1,0-.475-.474A.474.474,0,0,0,241.638,415.4Z" transform="translate(-3.777 -7.532)" fill="#fff"/>
    <path id="Path_2133" data-name="Path 2133" d="M231.937,413.977a.474.474,0,1,0-.474-.473A.474.474,0,0,0,231.937,413.977Z" transform="translate(-3.567 -7.501)" fill="#fff"/>
    <path id="Path_2134" data-name="Path 2134" d="M222.323,412.078a.5.5,0,1,0-.5-.5A.5.5,0,0,0,222.323,412.078Z" transform="translate(-3.358 -7.459)" fill="#fff"/>
    <path id="Path_2135" data-name="Path 2135" d="M212.825,409.645a.5.5,0,1,0-.5-.5A.5.5,0,0,0,212.825,409.645Z" transform="translate(-3.152 -7.406)" fill="#fff"/>
    <path id="Path_2136" data-name="Path 2136" d="M203.468,406.742a.534.534,0,1,0-.534-.533A.533.533,0,0,0,203.468,406.742Z" transform="translate(-2.949 -7.342)" fill="#fff"/>
    <path id="Path_2137" data-name="Path 2137" d="M194.279,403.321a.533.533,0,1,0-.533-.533A.533.533,0,0,0,194.279,403.321Z" transform="translate(-2.75 -7.268)" fill="#fff"/>
    <path id="Path_2138" data-name="Path 2138" d="M185.284,399.42a.533.533,0,1,0-.533-.533A.533.533,0,0,0,185.284,399.42Z" transform="translate(-2.555 -7.184)" fill="#fff"/>
    <path id="Path_2139" data-name="Path 2139" d="M176.507,395.05a.534.534,0,1,0-.533-.533A.533.533,0,0,0,176.507,395.05Z" transform="translate(-2.365 -7.089)" fill="#fff"/>
    <path id="Path_2140" data-name="Path 2140" d="M167.974,390.222a.533.533,0,1,0-.534-.533A.533.533,0,0,0,167.974,390.222Z" transform="translate(-2.18 -6.984)" fill="#fff"/>
    <circle id="Ellipse_415" data-name="Ellipse 415" cx="0.533" cy="0.533" r="0.533" transform="translate(157.172 377.015)" fill="#fff"/>
    <path id="Path_2141" data-name="Path 2141" d="M151.729,379.251a.533.533,0,1,0-.533-.533A.533.533,0,0,0,151.729,379.251Z" transform="translate(-1.829 -6.747)" fill="#fff"/>
    <path id="Path_2142" data-name="Path 2142" d="M144.063,373.138a.533.533,0,1,0-.533-.533A.533.533,0,0,0,144.063,373.138Z" transform="translate(-1.663 -6.615)" fill="#fff"/>
    <circle id="Ellipse_416" data-name="Ellipse 416" cx="0.533" cy="0.533" r="0.533" transform="translate(134.694 359.089)" fill="#fff"/>
    <path id="Path_2143" data-name="Path 2143" d="M129.753,359.742a.533.533,0,1,0-.534-.533A.533.533,0,0,0,129.753,359.742Z" transform="translate(-1.353 -6.324)" fill="#fff"/>
    <path id="Path_2144" data-name="Path 2144" d="M123.147,352.5a.534.534,0,1,0-.533-.533A.533.533,0,0,0,123.147,352.5Z" transform="translate(-1.21 -6.168)" fill="#fff"/>
    <path id="Path_2145" data-name="Path 2145" d="M116.934,344.912a.533.533,0,1,0-.534-.533A.533.533,0,0,0,116.934,344.912Z" transform="translate(-1.075 -6.003)" fill="#fff"/>
    <path id="Path_2146" data-name="Path 2146" d="M111.129,337.011a.534.534,0,1,0-.533-.533A.533.533,0,0,0,111.129,337.011Z" transform="translate(-0.949 -5.832)" fill="#fff"/>
    <circle id="Ellipse_417" data-name="Ellipse 417" cx="0.533" cy="0.533" r="0.533" transform="translate(104.383 322.093)" fill="#fff"/>
    <path id="Path_2147" data-name="Path 2147" d="M100.81,320.345a.534.534,0,1,0-.534-.533A.533.533,0,0,0,100.81,320.345Z" transform="translate(-0.726 -5.471)" fill="#fff"/>
    <path id="Path_2148" data-name="Path 2148" d="M96.324,311.656a.563.563,0,1,0-.564-.564A.564.564,0,0,0,96.324,311.656Z" transform="translate(-0.628 -5.282)" fill="#fff"/>
    <path id="Path_2149" data-name="Path 2149" d="M92.3,302.713a.563.563,0,1,0-.564-.564A.563.563,0,0,0,92.3,302.713Z" transform="translate(-0.541 -5.088)" fill="#fff"/>
    <path id="Path_2150" data-name="Path 2150" d="M88.763,293.57a.563.563,0,1,0-.564-.563A.562.562,0,0,0,88.763,293.57Z" transform="translate(-0.464 -4.89)" fill="#fff"/>
    <path id="Path_2151" data-name="Path 2151" d="M85.708,284.254a.563.563,0,1,0-.563-.564A.564.564,0,0,0,85.708,284.254Z" transform="translate(-0.398 -4.689)" fill="#fff"/>
    <path id="Path_2152" data-name="Path 2152" d="M83.15,274.789a.563.563,0,1,0-.564-.564A.564.564,0,0,0,83.15,274.789Z" transform="translate(-0.343 -4.484)" fill="#fff"/>
    <path id="Path_2153" data-name="Path 2153" d="M81.094,265.231a.592.592,0,1,0-.593-.592A.592.592,0,0,0,81.094,265.231Z" transform="translate(-0.298 -4.275)" fill="#fff"/>
    <path id="Path_2154" data-name="Path 2154" d="M79.547,255.55a.593.593,0,1,0-.593-.593A.593.593,0,0,0,79.547,255.55Z" transform="translate(-0.264 -4.066)" fill="#fff"/>
    <path id="Path_2155" data-name="Path 2155" d="M78.513,245.828a.622.622,0,1,0-.623-.622A.623.623,0,0,0,78.513,245.828Z" transform="translate(-0.241 -3.854)" fill="#fff"/>
    <path id="Path_2156" data-name="Path 2156" d="M78,236.037a.622.622,0,1,0-.622-.622A.623.623,0,0,0,78,236.037Z" transform="translate(-0.23 -3.642)" fill="#fff"/>
    <path id="Path_2157" data-name="Path 2157" d="M78,226.233a.623.623,0,1,0-.622-.623A.623.623,0,0,0,78,226.233Z" transform="translate(-0.23 -3.43)" fill="#fff"/>
    <path id="Path_2158" data-name="Path 2158" d="M78.514,216.413a.592.592,0,1,0-.593-.592A.592.592,0,0,0,78.514,216.413Z" transform="translate(-0.242 -3.218)" fill="#fff"/>
    <path id="Path_2159" data-name="Path 2159" d="M79.547,206.664a.593.593,0,1,0-.593-.594A.593.593,0,0,0,79.547,206.664Z" transform="translate(-0.264 -3.007)" fill="#fff"/>
    <path id="Path_2160" data-name="Path 2160" d="M81.095,196.952a.563.563,0,1,0-.564-.563A.562.562,0,0,0,81.095,196.952Z" transform="translate(-0.298 -2.798)" fill="#fff"/>
    <path id="Path_2161" data-name="Path 2161" d="M83.15,187.336a.533.533,0,1,0-.533-.533A.533.533,0,0,0,83.15,187.336Z" transform="translate(-0.344 -2.591)" fill="#fff"/>
    <path id="Path_2162" data-name="Path 2162" d="M85.71,177.814a.475.475,0,1,0-.474-.475A.474.474,0,0,0,85.71,177.814Z" transform="translate(-0.4 -2.388)" fill="#fff"/>
    <path id="Path_2163" data-name="Path 2163" d="M88.765,168.468a.445.445,0,1,0-.445-.445A.445.445,0,0,0,88.765,168.468Z" transform="translate(-0.467 -2.187)" fill="#fff"/>
    <circle id="Ellipse_418" data-name="Ellipse 418" cx="0.385" cy="0.385" r="0.385" transform="translate(91.378 156.507)" fill="#fff"/>
    <path id="Path_2164" data-name="Path 2164" d="M96.329,150.267a.326.326,0,1,0-.326-.326A.326.326,0,0,0,96.329,150.267Z" transform="translate(-0.633 -1.798)" fill="#fff"/>
    <path id="Path_2165" data-name="Path 2165" d="M100.815,141.52a.3.3,0,1,0-.3-.3A.3.3,0,0,0,100.815,141.52Z" transform="translate(-0.731 -1.61)" fill="#fff"/>
    <path id="Path_2166" data-name="Path 2166" d="M105.756,132.993a.237.237,0,1,0-.237-.237A.238.238,0,0,0,105.756,132.993Z" transform="translate(-0.84 -1.428)" fill="#fff"/>
    <path id="Path_2167" data-name="Path 2167" d="M111.136,124.767a.207.207,0,1,0-.207-.207A.208.208,0,0,0,111.136,124.767Z" transform="translate(-0.957 -1.251)" fill="#fff"/>
    <path id="Path_2168" data-name="Path 2168" d="M116.943,116.807a.148.148,0,1,0-.149-.149A.148.148,0,0,0,116.943,116.807Z" transform="translate(-1.084 -1.081)" fill="#fff"/>
    <path id="Path_2169" data-name="Path 2169" d="M123.156,109.194a.118.118,0,1,0-.118-.118A.119.119,0,0,0,123.156,109.194Z" transform="translate(-1.219 -0.917)" fill="#fff"/>
    <path id="Path_2170" data-name="Path 2170" d="M129.763,101.919a.089.089,0,1,0-.089-.089A.089.089,0,0,0,129.763,101.919Z" transform="translate(-1.363 -0.761)" fill="#fff"/>
    <path id="Path_2171" data-name="Path 2171" d="M136.742,95a.059.059,0,1,0-.059-.06A.059.059,0,0,0,136.742,95Z" transform="translate(-1.514 -0.613)" fill="#fff"/>
    <circle id="Ellipse_419" data-name="Ellipse 419" cx="0.03" cy="0.03" r="0.03" transform="translate(142.371 87.934)" fill="#fff"/>
    <circle id="Ellipse_420" data-name="Ellipse 420" cx="0.03" cy="0.03" r="0.03" transform="translate(379.314 377.357)" fill="#fff"/>
    <path id="Path_2172" data-name="Path 2172" d="M378.445,390.215a.03.03,0,1,0-.029-.03A.03.03,0,0,0,378.445,390.215Z" transform="translate(-6.748 -7.006)" fill="#fff"/>
    <path id="Path_2173" data-name="Path 2173" d="M370.344,395.738a.03.03,0,0,0,0-.06.03.03,0,0,0,0,.06Z" transform="translate(-6.573 -7.126)" fill="#fff"/>
    <circle id="Ellipse_421" data-name="Ellipse 421" cx="0.03" cy="0.03" r="0.03" transform="translate(355.556 393.555)" fill="#fff"/>
    <path id="Path_2174" data-name="Path 2174" d="M353.367,405.54a.03.03,0,1,0-.029-.03A.03.03,0,0,0,353.367,405.54Z" transform="translate(-6.205 -7.338)" fill="#fff"/>
    <path id="Path_2175" data-name="Path 2175" d="M344.533,409.822a.059.059,0,1,0-.059-.06A.059.059,0,0,0,344.533,409.822Z" transform="translate(-6.014 -7.429)" fill="#fff"/>
    <path id="Path_2176" data-name="Path 2176" d="M335.5,413.63a.059.059,0,1,0-.059-.059A.059.059,0,0,0,335.5,413.63Z" transform="translate(-5.818 -7.512)" fill="#fff"/>
    <path id="Path_2177" data-name="Path 2177" d="M326.284,417.013a.089.089,0,1,0-.089-.089A.089.089,0,0,0,326.284,417.013Z" transform="translate(-5.618 -7.584)" fill="#fff"/>
    <path id="Path_2178" data-name="Path 2178" d="M316.915,419.9a.089.089,0,1,0-.089-.089A.089.089,0,0,0,316.915,419.9Z" transform="translate(-5.415 -7.646)" fill="#fff"/>
    <circle id="Ellipse_422" data-name="Ellipse 422" cx="0.089" cy="0.089" r="0.089" transform="translate(302.115 414.446)" fill="#fff"/>
    <path id="Path_2179" data-name="Path 2179" d="M297.8,424.295a.119.119,0,1,0-.118-.119A.119.119,0,0,0,297.8,424.295Z" transform="translate(-5 -7.74)" fill="#fff"/>
    <path id="Path_2180" data-name="Path 2180" d="M288.107,425.756a.118.118,0,1,0-.118-.118A.118.118,0,0,0,288.107,425.756Z" transform="translate(-4.79 -7.772)" fill="#fff"/>
    <path id="Path_2181" data-name="Path 2181" d="M278.351,426.732a.118.118,0,1,0-.118-.118A.118.118,0,0,0,278.351,426.732Z" transform="translate(-4.579 -7.793)" fill="#fff"/>
    <path id="Path_2182" data-name="Path 2182" d="M268.558,427.221a.118.118,0,1,0-.118-.118A.119.119,0,0,0,268.558,427.221Z" transform="translate(-4.367 -7.804)" fill="#fff"/>
    <path id="Path_2183" data-name="Path 2183" d="M258.754,427.249a.148.148,0,1,0-.149-.148A.148.148,0,0,0,258.754,427.249Z" transform="translate(-4.154 -7.803)" fill="#fff"/>
    <path id="Path_2184" data-name="Path 2184" d="M248.961,426.76a.148.148,0,1,0-.148-.148A.148.148,0,0,0,248.961,426.76Z" transform="translate(-3.942 -7.792)" fill="#fff"/>
    <path id="Path_2185" data-name="Path 2185" d="M239.2,425.814a.178.178,0,1,0-.178-.178A.178.178,0,0,0,239.2,425.814Z" transform="translate(-3.73 -7.77)" fill="#fff"/>
    <path id="Path_2186" data-name="Path 2186" d="M229.509,424.352a.178.178,0,1,0-.178-.178A.178.178,0,0,0,229.509,424.352Z" transform="translate(-3.52 -7.739)" fill="#fff"/>
    <path id="Path_2187" data-name="Path 2187" d="M219.9,422.409a.178.178,0,1,0-.178-.177A.177.177,0,0,0,219.9,422.409Z" transform="translate(-3.312 -7.697)" fill="#fff"/>
    <path id="Path_2188" data-name="Path 2188" d="M210.4,419.99a.178.178,0,1,0-.178-.178A.177.177,0,0,0,210.4,419.99Z" transform="translate(-3.107 -7.644)" fill="#fff"/>
    <path id="Path_2189" data-name="Path 2189" d="M201.028,417.1a.178.178,0,1,0-.178-.178A.178.178,0,0,0,201.028,417.1Z" transform="translate(-2.904 -7.582)" fill="#fff"/>
    <path id="Path_2190" data-name="Path 2190" d="M191.815,413.747a.178.178,0,1,0-.178-.178A.178.178,0,0,0,191.815,413.747Z" transform="translate(-2.704 -7.509)" fill="#fff"/>
    <path id="Path_2191" data-name="Path 2191" d="M182.78,409.938a.178.178,0,1,0-.178-.178A.178.178,0,0,0,182.78,409.938Z" transform="translate(-2.509 -7.427)" fill="#fff"/>
    <path id="Path_2192" data-name="Path 2192" d="M173.946,405.684a.178.178,0,1,0-.178-.178A.177.177,0,0,0,173.946,405.684Z" transform="translate(-2.317 -7.335)" fill="#fff"/>
    <path id="Path_2193" data-name="Path 2193" d="M165.335,401.024a.207.207,0,1,0-.208-.207A.208.208,0,0,0,165.335,401.024Z" transform="translate(-2.13 -7.232)" fill="#fff"/>
    <path id="Path_2194" data-name="Path 2194" d="M156.969,395.882a.178.178,0,1,0-.178-.177A.177.177,0,0,0,156.969,395.882Z" transform="translate(-1.95 -7.122)" fill="#fff"/>
    <path id="Path_2195" data-name="Path 2195" d="M148.868,390.359a.178.178,0,1,0-.178-.178A.177.177,0,0,0,148.868,390.359Z" transform="translate(-1.774 -7.003)" fill="#fff"/>
    <path id="Path_2196" data-name="Path 2196" d="M141.053,384.439a.178.178,0,1,0-.178-.178A.177.177,0,0,0,141.053,384.439Z" transform="translate(-1.605 -6.875)" fill="#fff"/>
    <path id="Path_2197" data-name="Path 2197" d="M133.542,378.137a.178.178,0,1,0-.178-.178A.179.179,0,0,0,133.542,378.137Z" transform="translate(-1.442 -6.738)" fill="#fff"/>
    <path id="Path_2198" data-name="Path 2198" d="M126.354,371.468a.178.178,0,1,0-.177-.178A.177.177,0,0,0,126.354,371.468Z" transform="translate(-1.287 -6.594)" fill="#fff"/>
    <path id="Path_2199" data-name="Path 2199" d="M119.508,364.449a.178.178,0,1,0-.177-.178A.177.177,0,0,0,119.508,364.449Z" transform="translate(-1.139 -6.442)" fill="#fff"/>
    <path id="Path_2200" data-name="Path 2200" d="M113.021,357.1a.178.178,0,1,0-.178-.178A.179.179,0,0,0,113.021,357.1Z" transform="translate(-0.998 -6.283)" fill="#fff"/>
    <path id="Path_2201" data-name="Path 2201" d="M106.907,349.461a.207.207,0,1,0-.207-.207A.208.208,0,0,0,106.907,349.461Z" transform="translate(-0.865 -6.116)" fill="#fff"/>
    <path id="Path_2202" data-name="Path 2202" d="M101.184,341.471a.178.178,0,1,0-.178-.178A.177.177,0,0,0,101.184,341.471Z" transform="translate(-0.742 -5.944)" fill="#fff"/>
    <path id="Path_2203" data-name="Path 2203" d="M95.865,333.235a.178.178,0,1,0-.178-.178A.178.178,0,0,0,95.865,333.235Z" transform="translate(-0.627 -5.766)" fill="#fff"/>
    <path id="Path_2204" data-name="Path 2204" d="M90.963,324.744a.178.178,0,1,0-.178-.178A.177.177,0,0,0,90.963,324.744Z" transform="translate(-0.52 -5.582)" fill="#fff"/>
    <path id="Path_2205" data-name="Path 2205" d="M86.488,316.048a.207.207,0,1,0-.207-.207A.208.208,0,0,0,86.488,316.048Z" transform="translate(-0.423 -5.392)" fill="#fff"/>
    <path id="Path_2206" data-name="Path 2206" d="M82.456,307.111a.207.207,0,1,0-.207-.207A.208.208,0,0,0,82.456,307.111Z" transform="translate(-0.336 -5.199)" fill="#fff"/>
    <path id="Path_2207" data-name="Path 2207" d="M78.874,297.984a.207.207,0,1,0-.207-.207A.208.208,0,0,0,78.874,297.984Z" transform="translate(-0.258 -5.001)" fill="#fff"/>
    <path id="Path_2208" data-name="Path 2208" d="M75.751,288.69a.207.207,0,1,0-.207-.207A.207.207,0,0,0,75.751,288.69Z" transform="translate(-0.19 -4.8)" fill="#fff"/>
    <path id="Path_2209" data-name="Path 2209" d="M73.1,279.281a.237.237,0,1,0-.238-.237A.237.237,0,0,0,73.1,279.281Z" transform="translate(-0.132 -4.595)" fill="#fff"/>
    <circle id="Ellipse_423" data-name="Ellipse 423" cx="0.237" cy="0.237" r="0.237" transform="translate(70.591 264.86)" fill="#fff"/>
    <path id="Path_2210" data-name="Path 2210" d="M69.211,260.066a.237.237,0,1,0-.237-.237A.237.237,0,0,0,69.211,260.066Z" transform="translate(-0.048 -4.179)" fill="#fff"/>
    <circle id="Ellipse_424" data-name="Ellipse 424" cx="0.237" cy="0.237" r="0.237" transform="translate(67.733 245.895)" fill="#fff"/>
    <path id="Path_2211" data-name="Path 2211" d="M67.259,240.589a.267.267,0,1,0-.267-.267A.267.267,0,0,0,67.259,240.589Z" transform="translate(-0.005 -3.756)" fill="#fff"/>
    <path id="Path_2212" data-name="Path 2212" d="M67.014,230.787a.267.267,0,1,0-.267-.266A.267.267,0,0,0,67.014,230.787Z" transform="translate(0 -3.544)" fill="#fff"/>
    <path id="Path_2213" data-name="Path 2213" d="M67.259,220.986a.267.267,0,1,0-.267-.267A.267.267,0,0,0,67.259,220.986Z" transform="translate(-0.005 -3.332)" fill="#fff"/>
    <path id="Path_2214" data-name="Path 2214" d="M67.991,211.209a.267.267,0,1,0-.266-.267A.267.267,0,0,0,67.991,211.209Z" transform="translate(-0.021 -3.12)" fill="#fff"/>
    <path id="Path_2215" data-name="Path 2215" d="M69.21,201.48a.267.267,0,1,0-.266-.267A.267.267,0,0,0,69.21,201.48Z" transform="translate(-0.048 -2.909)" fill="#fff"/>
    <path id="Path_2216" data-name="Path 2216" d="M70.914,191.8a.237.237,0,1,0-.238-.238A.237.237,0,0,0,70.914,191.8Z" transform="translate(-0.085 -2.701)" fill="#fff"/>
    <path id="Path_2217" data-name="Path 2217" d="M73.1,182.236a.237.237,0,1,0-.238-.237A.238.238,0,0,0,73.1,182.236Z" transform="translate(-0.132 -2.494)" fill="#fff"/>
    <path id="Path_2218" data-name="Path 2218" d="M75.751,172.769a.207.207,0,1,0-.207-.207A.207.207,0,0,0,75.751,172.769Z" transform="translate(-0.19 -2.29)" fill="#fff"/>
    <path id="Path_2219" data-name="Path 2219" d="M78.874,163.475a.207.207,0,1,0-.207-.207A.208.208,0,0,0,78.874,163.475Z" transform="translate(-0.258 -2.089)" fill="#fff"/>
    <path id="Path_2220" data-name="Path 2220" d="M82.457,154.319a.178.178,0,1,0-.178-.178A.178.178,0,0,0,82.457,154.319Z" transform="translate(-0.336 -1.892)" fill="#fff"/>
    <path id="Path_2221" data-name="Path 2221" d="M86.49,145.353a.148.148,0,1,0-.148-.149A.149.149,0,0,0,86.49,145.353Z" transform="translate(-0.424 -1.699)" fill="#fff"/>
    <path id="Path_2222" data-name="Path 2222" d="M90.964,136.628a.148.148,0,1,0-.149-.149A.148.148,0,0,0,90.964,136.628Z" transform="translate(-0.521 -1.51)" fill="#fff"/>
    <path id="Path_2223" data-name="Path 2223" d="M95.866,128.108a.118.118,0,1,0-.118-.118A.118.118,0,0,0,95.866,128.108Z" transform="translate(-0.628 -1.327)" fill="#fff"/>
    <path id="Path_2224" data-name="Path 2224" d="M101.186,119.843a.089.089,0,1,0-.089-.089A.089.089,0,0,0,101.186,119.843Z" transform="translate(-0.744 -1.149)" fill="#fff"/>
    <circle id="Ellipse_425" data-name="Ellipse 425" cx="0.059" cy="0.059" r="0.059" transform="translate(105.983 110.757)" fill="#fff"/>
    <path id="Path_2225" data-name="Path 2225" d="M113.024,104.187a.059.059,0,1,0-.06-.059A.059.059,0,0,0,113.024,104.187Z" transform="translate(-1.001 -0.812)" fill="#fff"/>
    <path id="Path_2226" data-name="Path 2226" d="M119.511,96.807a.029.029,0,1,0-.029-.029A.03.03,0,0,0,119.511,96.807Z" transform="translate(-1.142 -0.653)" fill="#fff"/>
    <path id="Path_2227" data-name="Path 2227" d="M126.357,89.789a.03.03,0,1,0,0-.06.03.03,0,0,0,0,.06Z" transform="translate(-1.29 -0.501)" fill="#fff"/>
    <path id="Path_2228" data-name="Path 2228" d="M133.545,83.12a.03.03,0,0,0,0-.06.03.03,0,1,0,0,.06Z" transform="translate(-1.446 -0.357)" fill="#fff"/>
  </g>
</svg>
