<svg xmlns="http://www.w3.org/2000/svg" width="119.365" height="117.98" viewBox="0 0 119.365 117.98">
  <g id="Group_7591" data-name="Group 7591" transform="translate(0 0)">
    <path id="Path_1845" data-name="Path 1845" d="M236.878,347.661a.02.02,0,1,0,0-.04.02.02,0,1,0,0,.04Z" transform="translate(-181.212 -255.69)" fill="#fff"/>
    <path id="Path_1846" data-name="Path 1846" d="M227.378,345.071a.04.04,0,1,0-.04-.04A.04.04,0,0,0,227.378,345.071Z" transform="translate(-174.806 -253.921)" fill="#fff"/>
    <path id="Path_1847" data-name="Path 1847" d="M218.137,341.728a.05.05,0,1,0-.049-.049A.05.05,0,0,0,218.137,341.728Z" transform="translate(-168.582 -251.658)" fill="#fff"/>
    <path id="Path_1848" data-name="Path 1848" d="M209.159,337.625a.079.079,0,1,0-.079-.079A.079.079,0,0,0,209.159,337.625Z" transform="translate(-162.521 -248.857)" fill="#fff"/>
    <path id="Path_1849" data-name="Path 1849" d="M200.543,332.808a.109.109,0,1,0-.109-.109A.109.109,0,0,0,200.543,332.808Z" transform="translate(-156.703 -245.576)" fill="#fff"/>
    <path id="Path_1850" data-name="Path 1850" d="M192.365,327.32a.129.129,0,1,0-.129-.129A.129.129,0,0,0,192.365,327.32Z" transform="translate(-151.187 -241.857)" fill="#fff"/>
    <path id="Path_1851" data-name="Path 1851" d="M184.7,321.208a.129.129,0,1,0-.129-.129A.129.129,0,0,0,184.7,321.208Z" transform="translate(-146.03 -237.744)" fill="#fff"/>
    <path id="Path_1852" data-name="Path 1852" d="M177.6,314.512a.109.109,0,1,0-.109-.109A.109.109,0,0,0,177.6,314.512Z" transform="translate(-141.266 -233.265)" fill="#fff"/>
    <path id="Path_1853" data-name="Path 1853" d="M170.991,307.215a.129.129,0,1,0-.129-.129A.129.129,0,0,0,170.991,307.215Z" transform="translate(-136.804 -228.329)" fill="#fff"/>
    <path id="Path_1854" data-name="Path 1854" d="M165.057,299.438a.119.119,0,1,0-.119-.119A.119.119,0,0,0,165.057,299.438Z" transform="translate(-132.818 -223.109)" fill="#fff"/>
    <path id="Path_1855" data-name="Path 1855" d="M159.818,291.223a.089.089,0,1,0-.089-.089A.089.089,0,0,0,159.818,291.223Z" transform="translate(-129.313 -217.621)" fill="#fff"/>
    <path id="Path_1856" data-name="Path 1856" d="M155.289,282.613a.05.05,0,1,0-.049-.049A.05.05,0,0,0,155.289,282.613Z" transform="translate(-126.293 -211.881)" fill="#fff"/>
    <path id="Path_1857" data-name="Path 1857" d="M151.441,273.636a.03.03,0,1,0-.03-.03A.029.029,0,0,0,151.441,273.636Z" transform="translate(-123.716 -205.867)" fill="#fff"/>
    <path id="Path_1858" data-name="Path 1858" d="M148.318,264.361a.02.02,0,1,0-.02-.02A.02.02,0,0,0,148.318,264.361Z" transform="translate(-121.621 -199.639)" fill="#fff"/>
    <path id="Path_1859" data-name="Path 1859" d="M145.962,254.861a.01.01,0,1,0-.01-.01A.01.01,0,0,0,145.962,254.861Z" transform="translate(-120.043 -193.26)" fill="#fff"/>
    <path id="Path_1860" data-name="Path 1860" d="M337.486,338.83a.01.01,0,0,0,.01-.01.01.01,0,1,0-.02,0A.01.01,0,0,0,337.486,338.83Z" transform="translate(-248.916 -249.762)" fill="#fff"/>
    <ellipse id="Ellipse_370" data-name="Ellipse 370" cx="0.04" cy="0.04" rx="0.04" ry="0.04" transform="translate(85.815 90.725)" fill="#fff"/>
    <path id="Path_1861" data-name="Path 1861" d="M320.171,348.449a.178.178,0,1,0-.178-.178A.178.178,0,0,0,320.171,348.449Z" transform="translate(-237.152 -256.007)" fill="#fff"/>
    <path id="Path_1862" data-name="Path 1862" d="M310.982,352.264a.278.278,0,1,0-.278-.277A.278.278,0,0,0,310.982,352.264Z" transform="translate(-230.902 -258.441)" fill="#fff"/>
    <ellipse id="Ellipse_371" data-name="Ellipse 371" cx="0.406" cy="0.406" rx="0.406" ry="0.406" transform="translate(76.647 94.198)" fill="#fff"/>
    <path id="Path_1863" data-name="Path 1863" d="M291.525,357.662a.634.634,0,1,0-.634-.634A.634.634,0,0,0,291.525,357.662Z" transform="translate(-217.57 -261.594)" fill="#fff"/>
    <path id="Path_1864" data-name="Path 1864" d="M281.75,359.411a.7.7,0,1,0-.7-.7A.7.7,0,0,0,281.75,359.411Z" transform="translate(-210.946 -262.677)" fill="#fff"/>
    <path id="Path_1865" data-name="Path 1865" d="M271.744,360.373a.832.832,0,1,0-.833-.832A.832.832,0,0,0,271.744,360.373Z" transform="translate(-204.126 -263.151)" fill="#fff"/>
    <path id="Path_1866" data-name="Path 1866" d="M261.722,360.625a.941.941,0,1,0-.941-.941A.942.942,0,0,0,261.722,360.625Z" transform="translate(-197.31 -263.174)" fill="#fff"/>
    <path id="Path_1867" data-name="Path 1867" d="M251.742,360.163a1.031,1.031,0,1,0-1.03-1.03A1.031,1.031,0,0,0,251.742,360.163Z" transform="translate(-190.534 -262.743)" fill="#fff"/>
    <path id="Path_1868" data-name="Path 1868" d="M241.838,358.982a1.11,1.11,0,1,0-1.11-1.11A1.11,1.11,0,0,0,241.838,358.982Z" transform="translate(-183.816 -261.841)" fill="#fff"/>
    <ellipse id="Ellipse_372" data-name="Ellipse 372" cx="1.13" cy="1.13" rx="1.13" ry="1.13" transform="translate(53.741 94.305)" fill="#fff"/>
    <path id="Path_1869" data-name="Path 1869" d="M222.654,354.58a1.149,1.149,0,1,0-1.149-1.149A1.149,1.149,0,0,0,222.654,354.58Z" transform="translate(-170.881 -258.826)" fill="#fff"/>
    <path id="Path_1870" data-name="Path 1870" d="M213.3,351.29a1.2,1.2,0,1,0-1.2-1.2A1.2,1.2,0,0,0,213.3,351.29Z" transform="translate(-164.553 -256.546)" fill="#fff"/>
    <path id="Path_1871" data-name="Path 1871" d="M204.293,347.359a1.209,1.209,0,1,0-1.209-1.209A1.209,1.209,0,0,0,204.293,347.359Z" transform="translate(-158.486 -253.887)" fill="#fff"/>
    <path id="Path_1872" data-name="Path 1872" d="M195.667,342.8a1.189,1.189,0,1,0-1.189-1.189A1.189,1.189,0,0,0,195.667,342.8Z" transform="translate(-152.695 -250.846)" fill="#fff"/>
    <path id="Path_1873" data-name="Path 1873" d="M187.345,337.573a1.2,1.2,0,1,0-1.2-1.2A1.2,1.2,0,0,0,187.345,337.573Z" transform="translate(-147.089 -247.316)" fill="#fff"/>
    <path id="Path_1874" data-name="Path 1874" d="M179.417,331.731a1.219,1.219,0,1,0-1.219-1.219A1.219,1.219,0,0,0,179.417,331.731Z" transform="translate(-141.741 -243.358)" fill="#fff"/>
    <path id="Path_1875" data-name="Path 1875" d="M171.986,325.336a1.219,1.219,0,1,0-1.219-1.219A1.219,1.219,0,0,0,171.986,325.336Z" transform="translate(-136.74 -239.055)" fill="#fff"/>
    <path id="Path_1876" data-name="Path 1876" d="M165.054,318.4a1.219,1.219,0,1,0-1.219-1.219A1.219,1.219,0,0,0,165.054,318.4Z" transform="translate(-132.076 -234.39)" fill="#fff"/>
    <path id="Path_1877" data-name="Path 1877" d="M158.66,310.974a1.219,1.219,0,1,0-1.219-1.219A1.219,1.219,0,0,0,158.66,310.974Z" transform="translate(-127.774 -229.391)" fill="#fff"/>
    <path id="Path_1878" data-name="Path 1878" d="M152.838,303.086a1.219,1.219,0,1,0-1.219-1.219A1.219,1.219,0,0,0,152.838,303.086Z" transform="translate(-123.856 -224.083)" fill="#fff"/>
    <path id="Path_1879" data-name="Path 1879" d="M147.643,294.8a1.209,1.209,0,1,0-1.209-1.209A1.209,1.209,0,0,0,147.643,294.8Z" transform="translate(-120.367 -218.518)" fill="#fff"/>
    <ellipse id="Ellipse_373" data-name="Ellipse 373" cx="1.219" cy="1.219" rx="1.219" ry="1.219" transform="translate(24.558 71.014)" fill="#fff"/>
    <path id="Path_1880" data-name="Path 1880" d="M139.121,277.132a1.219,1.219,0,1,0-1.219-1.219A1.219,1.219,0,0,0,139.121,277.132Z" transform="translate(-114.626 -206.619)" fill="#fff"/>
    <path id="Path_1881" data-name="Path 1881" d="M135.965,267.921a1.179,1.179,0,1,0-1.179-1.179A1.179,1.179,0,0,0,135.965,267.921Z" transform="translate(-112.529 -200.474)" fill="#fff"/>
    <path id="Path_1882" data-name="Path 1882" d="M133.55,258.514a1.12,1.12,0,1,0-1.12-1.12A1.12,1.12,0,0,0,133.55,258.514Z" transform="translate(-110.944 -194.224)" fill="#fff"/>
    <path id="Path_1883" data-name="Path 1883" d="M131.788,248.913a1.09,1.09,0,1,0-1.09-1.09A1.09,1.09,0,0,0,131.788,248.913Z" transform="translate(-109.779 -187.804)" fill="#fff"/>
    <ellipse id="Ellipse_374" data-name="Ellipse 374" cx="0.991" cy="0.991" rx="0.991" ry="0.991" transform="translate(20.66 55.841)" fill="#fff"/>
    <ellipse id="Ellipse_375" data-name="Ellipse 375" cx="0.912" cy="0.912" rx="0.912" ry="0.912" transform="translate(20.619 52.716)" fill="#fff"/>
    <path id="Path_1884" data-name="Path 1884" d="M131.323,219.9a.783.783,0,1,0-.783-.783A.783.783,0,0,0,131.323,219.9Z" transform="translate(-109.672 -168.697)" fill="#fff"/>
    <path id="Path_1885" data-name="Path 1885" d="M132.726,210.318a.634.634,0,1,0-.634-.634A.634.634,0,0,0,132.726,210.318Z" transform="translate(-110.717 -162.448)" fill="#fff"/>
    <path id="Path_1886" data-name="Path 1886" d="M134.752,200.79a.535.535,0,1,0-.535-.535A.535.535,0,0,0,134.752,200.79Z" transform="translate(-112.147 -156.17)" fill="#fff"/>
    <path id="Path_1887" data-name="Path 1887" d="M137.636,191.5a.367.367,0,1,0-.366-.367A.367.367,0,0,0,137.636,191.5Z" transform="translate(-114.201 -150.145)" fill="#fff"/>
    <path id="Path_1888" data-name="Path 1888" d="M141.16,182.392a.228.228,0,1,0-.228-.228A.228.228,0,0,0,141.16,182.392Z" transform="translate(-116.665 -144.203)" fill="#fff"/>
    <path id="Path_1889" data-name="Path 1889" d="M145.324,173.533a.109.109,0,1,0-.109-.109A.109.109,0,0,0,145.324,173.533Z" transform="translate(-119.547 -138.402)" fill="#fff"/>
    <path id="Path_1890" data-name="Path 1890" d="M150.089,164.96a.02.02,0,1,0-.02-.02A.02.02,0,0,0,150.089,164.96Z" transform="translate(-122.813 -132.754)" fill="#fff"/>
    <path id="Path_1891" data-name="Path 1891" d="M389.368,296.5a.02.02,0,1,0-.02-.02A.02.02,0,0,0,389.368,296.5Z" transform="translate(-283.82 -221.268)" fill="#fff"/>
    <path id="Path_1892" data-name="Path 1892" d="M384.332,304.928a.109.109,0,1,0-.109-.109A.109.109,0,0,0,384.332,304.928Z" transform="translate(-280.372 -226.816)" fill="#fff"/>
    <path id="Path_1893" data-name="Path 1893" d="M378.474,312.872a.317.317,0,1,0-.317-.317A.317.317,0,0,0,378.474,312.872Z" transform="translate(-276.29 -231.882)" fill="#fff"/>
    <path id="Path_1894" data-name="Path 1894" d="M372.087,320.431a.515.515,0,1,0-.516-.515A.515.515,0,0,0,372.087,320.431Z" transform="translate(-271.859 -236.702)" fill="#fff"/>
    <path id="Path_1895" data-name="Path 1895" d="M365.178,327.56a.714.714,0,1,0-.714-.713A.713.713,0,0,0,365.178,327.56Z" transform="translate(-267.077 -241.231)" fill="#fff"/>
    <path id="Path_1896" data-name="Path 1896" d="M357.881,334.275a.862.862,0,1,0-.862-.862A.862.862,0,0,0,357.881,334.275Z" transform="translate(-262.067 -245.55)" fill="#fff"/>
    <path id="Path_1897" data-name="Path 1897" d="M350.187,340.523a.981.981,0,1,0-.981-.981A.981.981,0,0,0,350.187,340.523Z" transform="translate(-256.809 -249.594)" fill="#fff"/>
    <path id="Path_1898" data-name="Path 1898" d="M342.132,346.273a1.07,1.07,0,1,0-1.07-1.07A1.07,1.07,0,0,0,342.132,346.273Z" transform="translate(-251.329 -253.343)" fill="#fff"/>
    <path id="Path_1899" data-name="Path 1899" d="M333.938,351.592a1.041,1.041,0,1,0-1.041-1.041A1.041,1.041,0,0,0,333.938,351.592Z" transform="translate(-245.835 -256.962)" fill="#fff"/>
    <path id="Path_1900" data-name="Path 1900" d="M325.48,356.37a.971.971,0,1,0-.971-.971A.971.971,0,0,0,325.48,356.37Z" transform="translate(-240.191 -260.271)" fill="#fff"/>
    <path id="Path_1901" data-name="Path 1901" d="M316.7,360.534a.912.912,0,1,0-.912-.912A.912.912,0,0,0,316.7,360.534Z" transform="translate(-234.321 -263.153)" fill="#fff"/>
    <ellipse id="Ellipse_376" data-name="Ellipse 376" cx="0.852" cy="0.852" rx="0.852" ry="0.852" transform="translate(78.525 96.755)" fill="#fff"/>
    <ellipse id="Ellipse_377" data-name="Ellipse 377" cx="0.813" cy="0.813" rx="0.813" ry="0.813" transform="translate(75.495 97.722)" fill="#fff"/>
    <path id="Path_1902" data-name="Path 1902" d="M288.853,369.164a.783.783,0,1,0-.783-.783A.783.783,0,0,0,288.853,369.164Z" transform="translate(-215.672 -269.133)" fill="#fff"/>
    <path id="Path_1903" data-name="Path 1903" d="M279.208,370.7a.763.763,0,1,0-.763-.763A.763.763,0,0,0,279.208,370.7Z" transform="translate(-209.195 -270.194)" fill="#fff"/>
    <path id="Path_1904" data-name="Path 1904" d="M269.359,371.505a.8.8,0,1,0-.8-.8A.8.8,0,0,0,269.359,371.505Z" transform="translate(-202.541 -270.681)" fill="#fff"/>
    <path id="Path_1905" data-name="Path 1905" d="M259.537,371.664a.813.813,0,1,0-.813-.813A.812.812,0,0,0,259.537,371.664Z" transform="translate(-195.925 -270.775)" fill="#fff"/>
    <path id="Path_1906" data-name="Path 1906" d="M249.705,371.136a.832.832,0,1,0-.832-.833A.833.833,0,0,0,249.705,371.136Z" transform="translate(-189.297 -270.393)" fill="#fff"/>
    <path id="Path_1907" data-name="Path 1907" d="M239.952,369.943a.842.842,0,1,0-.842-.842A.842.842,0,0,0,239.952,369.943Z" transform="translate(-182.727 -269.577)" fill="#fff"/>
    <path id="Path_1908" data-name="Path 1908" d="M230.263,368.061a.872.872,0,1,0-.872-.872A.872.872,0,0,0,230.263,368.061Z" transform="translate(-176.188 -268.271)" fill="#fff"/>
    <path id="Path_1909" data-name="Path 1909" d="M220.766,365.541a.882.882,0,1,0-.882-.882A.882.882,0,0,0,220.766,365.541Z" transform="translate(-169.791 -266.561)" fill="#fff"/>
    <path id="Path_1910" data-name="Path 1910" d="M211.485,362.383a.882.882,0,1,0-.882-.882A.882.882,0,0,0,211.485,362.383Z" transform="translate(-163.545 -264.437)" fill="#fff"/>
    <path id="Path_1911" data-name="Path 1911" d="M202.464,358.6a.872.872,0,1,0-.872-.872A.872.872,0,0,0,202.464,358.6Z" transform="translate(-157.482 -261.906)" fill="#fff"/>
    <path id="Path_1912" data-name="Path 1912" d="M193.726,354.207a.862.862,0,1,0-.862-.862A.862.862,0,0,0,193.726,354.207Z" transform="translate(-151.609 -258.962)" fill="#fff"/>
    <path id="Path_1913" data-name="Path 1913" d="M185.313,349.219a.852.852,0,1,0-.852-.852A.853.853,0,0,0,185.313,349.219Z" transform="translate(-145.955 -255.618)" fill="#fff"/>
    <path id="Path_1914" data-name="Path 1914" d="M177.265,343.66a.842.842,0,1,0-.842-.842A.842.842,0,0,0,177.265,343.66Z" transform="translate(-140.546 -251.891)" fill="#fff"/>
    <ellipse id="Ellipse_378" data-name="Ellipse 378" cx="0.832" cy="0.832" rx="0.832" ry="0.832" transform="translate(33.379 88.094)" fill="#fff"/>
    <path id="Path_1915" data-name="Path 1915" d="M162.375,330.921a.842.842,0,1,0-.842-.842A.842.842,0,0,0,162.375,330.921Z" transform="translate(-130.527 -243.319)" fill="#fff"/>
    <path id="Path_1916" data-name="Path 1916" d="M155.544,323.769a.882.882,0,1,0-.882-.882A.882.882,0,0,0,155.544,323.769Z" transform="translate(-125.904 -238.454)" fill="#fff"/>
    <path id="Path_1917" data-name="Path 1917" d="M149.3,316.211a.882.882,0,1,0-.882-.882A.882.882,0,0,0,149.3,316.211Z" transform="translate(-121.702 -233.368)" fill="#fff"/>
    <path id="Path_1918" data-name="Path 1918" d="M143.592,308.24a.882.882,0,1,0-.882-.882A.882.882,0,0,0,143.592,308.24Z" transform="translate(-117.861 -228.005)" fill="#fff"/>
    <path id="Path_1919" data-name="Path 1919" d="M138.448,299.894a.882.882,0,1,0-.882-.882A.882.882,0,0,0,138.448,299.894Z" transform="translate(-114.4 -222.389)" fill="#fff"/>
    <ellipse id="Ellipse_379" data-name="Ellipse 379" cx="0.892" cy="0.892" rx="0.892" ry="0.892" transform="translate(21.666 72.892)" fill="#fff"/>
    <path id="Path_1920" data-name="Path 1920" d="M129.885,282.207a.912.912,0,1,0-.912-.912A.912.912,0,0,0,129.885,282.207Z" transform="translate(-108.618 -210.448)" fill="#fff"/>
    <path id="Path_1921" data-name="Path 1921" d="M126.567,272.982a.912.912,0,1,0-.912-.912A.912.912,0,0,0,126.567,272.982Z" transform="translate(-106.385 -204.24)" fill="#fff"/>
    <path id="Path_1922" data-name="Path 1922" d="M123.832,263.519a.941.941,0,1,0-.941-.941A.941.941,0,0,0,123.832,263.519Z" transform="translate(-104.525 -197.832)" fill="#fff"/>
    <path id="Path_1923" data-name="Path 1923" d="M121.8,253.914a.951.951,0,1,0-.951-.952A.952.952,0,0,0,121.8,253.914Z" transform="translate(-103.148 -191.356)" fill="#fff"/>
    <path id="Path_1924" data-name="Path 1924" d="M120.425,244.193a.961.961,0,1,0-.961-.961A.961.961,0,0,0,120.425,244.193Z" transform="translate(-102.219 -184.801)" fill="#fff"/>
    <path id="Path_1925" data-name="Path 1925" d="M119.648,234.361a1.011,1.011,0,1,0-1.011-1.011A1.011,1.011,0,0,0,119.648,234.361Z" transform="translate(-101.663 -178.119)" fill="#fff"/>
    <ellipse id="Ellipse_380" data-name="Ellipse 380" cx="1.04" cy="1.04" rx="1.04" ry="1.04" transform="translate(16.944 50.983)" fill="#fff"/>
    <path id="Path_1926" data-name="Path 1926" d="M120.263,214.745a1.04,1.04,0,1,0-1.041-1.041A1.04,1.04,0,0,0,120.263,214.745Z" transform="translate(-102.057 -164.88)" fill="#fff"/>
    <ellipse id="Ellipse_381" data-name="Ellipse 381" cx="1.05" cy="1.05" rx="1.05" ry="1.05" transform="translate(17.597 44.598)" fill="#fff"/>
    <path id="Path_1927" data-name="Path 1927" d="M123.608,195.43a1.05,1.05,0,1,0-1.05-1.05A1.051,1.051,0,0,0,123.608,195.43Z" transform="translate(-104.301 -151.87)" fill="#fff"/>
    <path id="Path_1928" data-name="Path 1928" d="M126.281,186a1.051,1.051,0,1,0-1.05-1.05A1.051,1.051,0,0,0,126.281,186Z" transform="translate(-106.1 -145.522)" fill="#fff"/>
    <path id="Path_1929" data-name="Path 1929" d="M129.62,176.783a1.04,1.04,0,1,0-1.041-1.041A1.041,1.041,0,0,0,129.62,176.783Z" transform="translate(-108.353 -139.336)" fill="#fff"/>
    <ellipse id="Ellipse_382" data-name="Ellipse 382" cx="1.05" cy="1.05" rx="1.05" ry="1.05" transform="translate(21.507 32.42)" fill="#fff"/>
    <path id="Path_1930" data-name="Path 1930" d="M138.1,159.117a1.05,1.05,0,1,0-1.05-1.05A1.051,1.051,0,0,0,138.1,159.117Z" transform="translate(-114.053 -127.435)" fill="#fff"/>
    <path id="Path_1931" data-name="Path 1931" d="M143.388,150.844a.981.981,0,1,0-.981-.981A.981.981,0,0,0,143.388,150.844Z" transform="translate(-117.657 -121.962)" fill="#fff"/>
    <path id="Path_1932" data-name="Path 1932" d="M149.2,142.926a.931.931,0,1,0-.932-.932A.932.932,0,0,0,149.2,142.926Z" transform="translate(-121.6 -116.701)" fill="#fff"/>
    <path id="Path_1933" data-name="Path 1933" d="M155.707,135.5a.8.8,0,1,0-.8-.8A.8.8,0,0,0,155.707,135.5Z" transform="translate(-126.067 -111.879)" fill="#fff"/>
    <path id="Path_1934" data-name="Path 1934" d="M162.844,128.593a.614.614,0,1,0-.614-.614A.614.614,0,0,0,162.844,128.593Z" transform="translate(-130.996 -107.483)" fill="#fff"/>
    <path id="Path_1935" data-name="Path 1935" d="M170.334,122.1a.486.486,0,1,0-.485-.485A.485.485,0,0,0,170.334,122.1Z" transform="translate(-136.123 -103.289)" fill="#fff"/>
    <ellipse id="Ellipse_383" data-name="Ellipse 383" cx="0.347" cy="0.347" rx="0.347" ry="0.347" transform="translate(36.372 15.982)" fill="#fff"/>
    <ellipse id="Ellipse_384" data-name="Ellipse 384" cx="0.268" cy="0.268" rx="0.268" ry="0.268" transform="translate(39.091 14.239)" fill="#fff"/>
    <path id="Path_1936" data-name="Path 1936" d="M195.092,105.725a.2.2,0,1,0-.2-.2A.2.2,0,0,0,195.092,105.725Z" transform="translate(-152.975 -92.656)" fill="#fff"/>
    <path id="Path_1937" data-name="Path 1937" d="M203.932,101.361a.159.159,0,1,0-.159-.159A.159.159,0,0,0,203.932,101.361Z" transform="translate(-158.95 -89.772)" fill="#fff"/>
    <path id="Path_1938" data-name="Path 1938" d="M213.136,97.655a.079.079,0,1,0-.079-.079A.079.079,0,0,0,213.136,97.655Z" transform="translate(-165.197 -87.385)" fill="#fff"/>
    <path id="Path_1939" data-name="Path 1939" d="M222.519,94.549a.03.03,0,1,0-.03-.029A.03.03,0,0,0,222.519,94.549Z" transform="translate(-171.543 -85.362)" fill="#fff"/>
    <path id="Path_1940" data-name="Path 1940" d="M232.037,92.06a.01.01,0,1,0,0-.02.01.01,0,0,0,0,.02Z" transform="translate(-177.961 -83.714)" fill="#fff"/>
    <path id="Path_1941" data-name="Path 1941" d="M415.3,250.064a.02.02,0,1,0-.02-.02A.02.02,0,0,0,415.3,250.064Z" transform="translate(-301.272 -190.019)" fill="#fff"/>
    <path id="Path_1942" data-name="Path 1942" d="M413.556,259.648a.109.109,0,1,0-.109-.109A.109.109,0,0,0,413.556,259.648Z" transform="translate(-300.036 -196.348)" fill="#fff"/>
    <path id="Path_1943" data-name="Path 1943" d="M411.15,269.091a.218.218,0,1,0-.218-.218A.218.218,0,0,0,411.15,269.091Z" transform="translate(-298.344 -202.555)" fill="#fff"/>
    <path id="Path_1944" data-name="Path 1944" d="M408.136,278.374a.327.327,0,1,0-.327-.327A.327.327,0,0,0,408.136,278.374Z" transform="translate(-296.242 -208.655)" fill="#fff"/>
    <path id="Path_1945" data-name="Path 1945" d="M404.587,287.492a.406.406,0,1,0-.406-.406A.406.406,0,0,0,404.587,287.492Z" transform="translate(-293.801 -214.683)" fill="#fff"/>
    <path id="Path_1946" data-name="Path 1946" d="M400.5,296.393a.466.466,0,1,0-.465-.466A.466.466,0,0,0,400.5,296.393Z" transform="translate(-291.009 -220.593)" fill="#fff"/>
    <ellipse id="Ellipse_385" data-name="Ellipse 385" cx="0.446" cy="0.446" rx="0.446" ry="0.446" transform="translate(107.493 77.809) rotate(-9.257)" fill="#fff"/>
    <path id="Path_1947" data-name="Path 1947" d="M391.022,313.543a.4.4,0,1,0-.4-.4A.4.4,0,0,0,391.022,313.543Z" transform="translate(-284.68 -232.226)" fill="#fff"/>
    <path id="Path_1948" data-name="Path 1948" d="M385.535,321.647a.337.337,0,1,0-.337-.337A.337.337,0,0,0,385.535,321.647Z" transform="translate(-281.028 -237.759)" fill="#fff"/>
    <path id="Path_1949" data-name="Path 1949" d="M379.525,329.364a.287.287,0,1,0-.288-.287A.287.287,0,0,0,379.525,329.364Z" transform="translate(-277.017 -243.019)" fill="#fff"/>
    <path id="Path_1950" data-name="Path 1950" d="M373.015,336.664a.248.248,0,1,0-.248-.248A.248.248,0,0,0,373.015,336.664Z" transform="translate(-272.663 -247.984)" fill="#fff"/>
    <path id="Path_1951" data-name="Path 1951" d="M366.054,343.526a.208.208,0,1,0-.208-.208A.208.208,0,0,0,366.054,343.526Z" transform="translate(-268.006 -252.655)" fill="#fff"/>
    <path id="Path_1952" data-name="Path 1952" d="M358.67,349.923a.168.168,0,1,0-.169-.169A.168.168,0,0,0,358.67,349.923Z" transform="translate(-263.064 -257.013)" fill="#fff"/>
    <path id="Path_1953" data-name="Path 1953" d="M350.854,355.808a.149.149,0,1,0-.148-.149A.149.149,0,0,0,350.854,355.808Z" transform="translate(-257.818 -260.999)" fill="#fff"/>
    <ellipse id="Ellipse_386" data-name="Ellipse 386" cx="0.149" cy="0.149" rx="0.149" ry="0.149" transform="translate(90.199 96.261)" fill="#fff"/>
    <path id="Path_1954" data-name="Path 1954" d="M334.074,365.957a.159.159,0,1,0-.158-.159A.159.159,0,0,0,334.074,365.957Z" transform="translate(-246.521 -267.815)" fill="#fff"/>
    <path id="Path_1955" data-name="Path 1955" d="M325.159,370.168a.2.2,0,1,0-.2-.2A.2.2,0,0,0,325.159,370.168Z" transform="translate(-240.495 -270.595)" fill="#fff"/>
    <path id="Path_1956" data-name="Path 1956" d="M316.011,373.817a.228.228,0,1,0-.228-.228A.228.228,0,0,0,316.011,373.817Z" transform="translate(-234.32 -273.01)" fill="#fff"/>
    <path id="Path_1957" data-name="Path 1957" d="M306.625,376.864a.268.268,0,1,0-.268-.268A.267.267,0,0,0,306.625,376.864Z" transform="translate(-227.977 -275.008)" fill="#fff"/>
    <path id="Path_1958" data-name="Path 1958" d="M297.06,379.309a.307.307,0,1,0-.307-.307A.307.307,0,0,0,297.06,379.309Z" transform="translate(-221.514 -276.6)" fill="#fff"/>
    <path id="Path_1959" data-name="Path 1959" d="M287.355,381.142a.347.347,0,1,0-.347-.347A.347.347,0,0,0,287.355,381.142Z" transform="translate(-214.957 -277.779)" fill="#fff"/>
    <path id="Path_1960" data-name="Path 1960" d="M277.55,382.353a.387.387,0,1,0-.386-.387A.387.387,0,0,0,277.55,382.353Z" transform="translate(-208.333 -278.541)" fill="#fff"/>
    <ellipse id="Ellipse_387" data-name="Ellipse 387" cx="0.436" cy="0.436" rx="0.436" ry="0.436" transform="translate(65.58 103.195)" fill="#fff"/>
    <path id="Path_1961" data-name="Path 1961" d="M257.8,382.9a.466.466,0,1,0-.466-.466A.466.466,0,0,0,257.8,382.9Z" transform="translate(-194.989 -278.801)" fill="#fff"/>
    <path id="Path_1962" data-name="Path 1962" d="M247.933,382.227a.505.505,0,1,0-.505-.505A.505.505,0,0,0,247.933,382.227Z" transform="translate(-188.325 -278.297)" fill="#fff"/>
    <path id="Path_1963" data-name="Path 1963" d="M238.169,380.952a.525.525,0,1,0-.525-.525A.525.525,0,0,0,238.169,380.952Z" transform="translate(-181.741 -277.412)" fill="#fff"/>
    <path id="Path_1964" data-name="Path 1964" d="M228.485,379.047a.555.555,0,1,0-.555-.555A.555.555,0,0,0,228.485,379.047Z" transform="translate(-175.205 -276.09)" fill="#fff"/>
    <path id="Path_1965" data-name="Path 1965" d="M218.981,376.55a.565.565,0,1,0-.565-.565A.565.565,0,0,0,218.981,376.55Z" transform="translate(-168.803 -274.396)" fill="#fff"/>
    <path id="Path_1966" data-name="Path 1966" d="M209.656,373.45a.575.575,0,1,0-.575-.575A.575.575,0,0,0,209.656,373.45Z" transform="translate(-162.521 -272.296)" fill="#fff"/>
    <path id="Path_1967" data-name="Path 1967" d="M200.569,369.771a.575.575,0,1,0-.575-.575A.575.575,0,0,0,200.569,369.771Z" transform="translate(-156.407 -269.821)" fill="#fff"/>
    <path id="Path_1968" data-name="Path 1968" d="M191.715,365.507a.585.585,0,1,0-.585-.585A.585.585,0,0,0,191.715,365.507Z" transform="translate(-150.442 -266.938)" fill="#fff"/>
    <path id="Path_1969" data-name="Path 1969" d="M183.193,360.706a.575.575,0,1,0-.575-.574A.574.574,0,0,0,183.193,360.706Z" transform="translate(-144.715 -263.722)" fill="#fff"/>
    <path id="Path_1970" data-name="Path 1970" d="M174.977,355.358a.575.575,0,1,0-.575-.575A.575.575,0,0,0,174.977,355.358Z" transform="translate(-139.186 -260.123)" fill="#fff"/>
    <path id="Path_1971" data-name="Path 1971" d="M167.14,349.5a.565.565,0,1,0-.565-.565A.565.565,0,0,0,167.14,349.5Z" transform="translate(-133.92 -256.197)" fill="#fff"/>
    <path id="Path_1972" data-name="Path 1972" d="M159.654,343.138a.575.575,0,1,0-.575-.575A.575.575,0,0,0,159.654,343.138Z" transform="translate(-128.876 -251.901)" fill="#fff"/>
    <path id="Path_1973" data-name="Path 1973" d="M152.612,336.317a.575.575,0,1,0-.575-.575A.575.575,0,0,0,152.612,336.317Z" transform="translate(-124.137 -247.311)" fill="#fff"/>
    <path id="Path_1974" data-name="Path 1974" d="M146.02,329.06a.575.575,0,1,0-.575-.575A.575.575,0,0,0,146.02,329.06Z" transform="translate(-119.702 -242.428)" fill="#fff"/>
    <path id="Path_1975" data-name="Path 1975" d="M139.908,321.4a.575.575,0,1,0-.575-.575A.575.575,0,0,0,139.908,321.4Z" transform="translate(-115.589 -237.27)" fill="#fff"/>
    <path id="Path_1976" data-name="Path 1976" d="M134.3,313.354a.575.575,0,1,0-.575-.575A.575.575,0,0,0,134.3,313.354Z" transform="translate(-111.815 -231.859)" fill="#fff"/>
    <path id="Path_1977" data-name="Path 1977" d="M129.216,304.971a.575.575,0,1,0-.575-.575A.575.575,0,0,0,129.216,304.971Z" transform="translate(-108.395 -226.218)" fill="#fff"/>
    <path id="Path_1978" data-name="Path 1978" d="M124.661,296.267a.585.585,0,1,0-.585-.585A.585.585,0,0,0,124.661,296.267Z" transform="translate(-105.323 -220.348)" fill="#fff"/>
    <path id="Path_1979" data-name="Path 1979" d="M120.672,287.292a.595.595,0,1,0-.595-.594A.595.595,0,0,0,120.672,287.292Z" transform="translate(-102.632 -214.296)" fill="#fff"/>
    <ellipse id="Ellipse_388" data-name="Ellipse 388" cx="0.595" cy="0.595" rx="0.595" ry="0.595" transform="translate(16.338 68.797)" fill="#fff"/>
    <path id="Path_1980" data-name="Path 1980" d="M114.477,268.682a.6.6,0,1,0-.6-.6A.6.6,0,0,0,114.477,268.682Z" transform="translate(-98.457 -201.76)" fill="#fff"/>
    <path id="Path_1981" data-name="Path 1981" d="M112.274,259.114a.614.614,0,1,0-.614-.614A.614.614,0,0,0,112.274,259.114Z" transform="translate(-96.968 -195.308)" fill="#fff"/>
    <path id="Path_1982" data-name="Path 1982" d="M110.689,249.425a.624.624,0,1,0-.624-.624A.625.625,0,0,0,110.689,249.425Z" transform="translate(-95.895 -188.775)" fill="#fff"/>
    <path id="Path_1983" data-name="Path 1983" d="M109.747,239.666a.624.624,0,1,0-.624-.624A.624.624,0,0,0,109.747,239.666Z" transform="translate(-95.261 -182.209)" fill="#fff"/>
    <path id="Path_1984" data-name="Path 1984" d="M109.413,229.857a.634.634,0,1,0-.634-.634A.634.634,0,0,0,109.413,229.857Z" transform="translate(-95.03 -175.595)" fill="#fff"/>
    <path id="Path_1985" data-name="Path 1985" d="M109.747,220.068a.624.624,0,1,0-.624-.624A.624.624,0,0,0,109.747,220.068Z" transform="translate(-95.261 -169.021)" fill="#fff"/>
    <path id="Path_1986" data-name="Path 1986" d="M110.73,210.33a.6.6,0,1,0-.6-.6A.6.6,0,0,0,110.73,210.33Z" transform="translate(-95.935 -162.496)" fill="#fff"/>
    <ellipse id="Ellipse_389" data-name="Ellipse 389" cx="0.585" cy="0.585" rx="0.585" ry="0.585" transform="translate(14.721 43.479)" fill="#fff"/>
    <ellipse id="Ellipse_390" data-name="Ellipse 390" cx="0.545" cy="0.545" rx="0.545" ry="0.545" transform="translate(15.475 40.392)" fill="#fff"/>
    <ellipse id="Ellipse_391" data-name="Ellipse 391" cx="0.505" cy="0.505" rx="0.505" ry="0.505" transform="translate(16.425 38.366) rotate(-89.778)" fill="#fff"/>
    <path id="Path_1987" data-name="Path 1987" d="M120.958,172.651a.456.456,0,1,0-.456-.456A.456.456,0,0,0,120.958,172.651Z" transform="translate(-102.918 -137.342)" fill="#fff"/>
    <path id="Path_1988" data-name="Path 1988" d="M125.048,163.749a.4.4,0,1,0-.4-.4A.4.4,0,0,0,125.048,163.749Z" transform="translate(-105.71 -131.432)" fill="#fff"/>
    <path id="Path_1989" data-name="Path 1989" d="M129.685,155.109a.347.347,0,1,0-.347-.347A.347.347,0,0,0,129.685,155.109Z" transform="translate(-108.864 -125.685)" fill="#fff"/>
    <path id="Path_1990" data-name="Path 1990" d="M134.849,146.767a.307.307,0,1,0-.307-.307A.307.307,0,0,0,134.849,146.767Z" transform="translate(-112.365 -120.126)" fill="#fff"/>
    <ellipse id="Ellipse_392" data-name="Ellipse 392" cx="0.268" cy="0.268" rx="0.268" ry="0.268" transform="translate(24.051 23.437)" fill="#fff"/>
    <path id="Path_1991" data-name="Path 1991" d="M146.693,131.124a.248.248,0,1,0-.248-.248A.248.248,0,0,0,146.693,131.124Z" transform="translate(-120.375 -109.679)" fill="#fff"/>
    <path id="Path_1992" data-name="Path 1992" d="M153.244,123.845a.268.268,0,1,0-.268-.268A.268.268,0,0,0,153.244,123.845Z" transform="translate(-124.769 -104.755)" fill="#fff"/>
    <path id="Path_1993" data-name="Path 1993" d="M160.225,116.993a.3.3,0,1,0-.3-.3A.3.3,0,0,0,160.225,116.993Z" transform="translate(-129.447 -100.105)" fill="#fff"/>
    <path id="Path_1994" data-name="Path 1994" d="M167.548,110.564a.367.367,0,1,0-.367-.367A.366.366,0,0,0,167.548,110.564Z" transform="translate(-134.327 -95.685)" fill="#fff"/>
    <path id="Path_1995" data-name="Path 1995" d="M175.241,104.617a.446.446,0,1,0-.446-.446A.446.446,0,0,0,175.241,104.617Z" transform="translate(-139.451 -91.576)" fill="#fff"/>
    <path id="Path_1996" data-name="Path 1996" d="M183.376,99.227a.485.485,0,1,0-.485-.485A.486.486,0,0,0,183.376,99.227Z" transform="translate(-144.899 -87.896)" fill="#fff"/>
    <path id="Path_1997" data-name="Path 1997" d="M191.9,94.405a.5.5,0,1,0-.5-.5A.5.5,0,0,0,191.9,94.405Z" transform="translate(-150.626 -84.638)" fill="#fff"/>
    <path id="Path_1998" data-name="Path 1998" d="M200.752,90.162a.485.485,0,1,0-.485-.485A.485.485,0,0,0,200.752,90.162Z" transform="translate(-156.591 -81.797)" fill="#fff"/>
    <path id="Path_1999" data-name="Path 1999" d="M209.921,86.525a.446.446,0,1,0-.446-.446A.446.446,0,0,0,209.921,86.525Z" transform="translate(-162.786 -79.403)" fill="#fff"/>
    <path id="Path_2000" data-name="Path 2000" d="M219.307,83.478a.406.406,0,1,0-.406-.406A.406.406,0,0,0,219.307,83.478Z" transform="translate(-169.129 -77.406)" fill="#fff"/>
    <path id="Path_2001" data-name="Path 2001" d="M228.913,81.053a.347.347,0,1,0-.347-.347A.347.347,0,0,0,228.913,81.053Z" transform="translate(-175.633 -75.855)" fill="#fff"/>
    <ellipse id="Ellipse_393" data-name="Ellipse 393" cx="0.258" cy="0.258" rx="0.258" ry="0.258" transform="translate(56.171 3.981)" fill="#fff"/>
    <path id="Path_2002" data-name="Path 2002" d="M248.647,78.124a.159.159,0,1,0-.159-.159A.159.159,0,0,0,248.647,78.124Z" transform="translate(-189.038 -74.137)" fill="#fff"/>
    <path id="Path_2003" data-name="Path 2003" d="M258.614,77.591a.069.069,0,1,0-.069-.069A.069.069,0,0,0,258.614,77.591Z" transform="translate(-195.805 -73.898)" fill="#fff"/>
    <path id="Path_2004" data-name="Path 2004" d="M268.541,77.653a.01.01,0,0,0,.01-.01.01.01,0,1,0-.02,0A.01.01,0,0,0,268.541,77.653Z" transform="translate(-202.524 -74.02)" fill="#fff"/>
    <path id="Path_2005" data-name="Path 2005" d="M427.5,230.516a.01.01,0,0,0,0-.02.01.01,0,0,0,0,.02Z" transform="translate(-309.489 -176.879)" fill="#fff"/>
    <path id="Path_2006" data-name="Path 2006" d="M427.15,240.285a.04.04,0,0,0,0-.079.04.04,0,1,0,0,.079Z" transform="translate(-309.23 -183.412)" fill="#fff"/>
    <path id="Path_2007" data-name="Path 2007" d="M426.231,250.029a.059.059,0,1,0-.06-.06A.06.06,0,0,0,426.231,250.029Z" transform="translate(-308.598 -189.942)" fill="#fff"/>
    <path id="Path_2008" data-name="Path 2008" d="M424.851,259.766a.02.02,0,0,0,.02-.02.02.02,0,1,0-.02.02Z" transform="translate(-307.696 -196.547)" fill="#fff"/>
    <path id="Path_2009" data-name="Path 2009" d="M373.286,352.292a.01.01,0,1,0-.01-.01A.01.01,0,0,0,373.286,352.292Z" transform="translate(-273.006 -258.82)" fill="#fff"/>
    <path id="Path_2010" data-name="Path 2010" d="M365.787,358.622a.02.02,0,1,0-.02-.02A.02.02,0,0,0,365.787,358.622Z" transform="translate(-267.953 -263.066)" fill="#fff"/>
    <path id="Path_2011" data-name="Path 2011" d="M357.9,364.481a.04.04,0,1,0-.04-.04A.04.04,0,0,0,357.9,364.481Z" transform="translate(-262.634 -266.982)" fill="#fff"/>
    <path id="Path_2012" data-name="Path 2012" d="M349.679,369.861a.06.06,0,1,0-.06-.06A.059.059,0,0,0,349.679,369.861Z" transform="translate(-257.087 -270.575)" fill="#fff"/>
    <path id="Path_2013" data-name="Path 2013" d="M341.126,374.732a.089.089,0,1,0-.089-.089A.089.089,0,0,0,341.126,374.732Z" transform="translate(-251.313 -273.813)" fill="#fff"/>
    <path id="Path_2014" data-name="Path 2014" d="M332.317,379.1a.109.109,0,1,0-.109-.109A.109.109,0,0,0,332.317,379.1Z" transform="translate(-245.372 -276.723)" fill="#fff"/>
    <path id="Path_2015" data-name="Path 2015" d="M323.241,382.918a.139.139,0,1,0-.139-.139A.139.139,0,0,0,323.241,382.918Z" transform="translate(-239.244 -279.255)" fill="#fff"/>
    <path id="Path_2016" data-name="Path 2016" d="M313.949,386.194a.168.168,0,1,0-.168-.169A.168.168,0,0,0,313.949,386.194Z" transform="translate(-232.972 -281.419)" fill="#fff"/>
    <path id="Path_2017" data-name="Path 2017" d="M304.457,388.9a.208.208,0,1,0-.208-.208A.208.208,0,0,0,304.457,388.9Z" transform="translate(-226.558 -283.188)" fill="#fff"/>
    <path id="Path_2018" data-name="Path 2018" d="M294.858,391.063a.228.228,0,1,0-.228-.228A.228.228,0,0,0,294.858,391.063Z" transform="translate(-220.086 -284.615)" fill="#fff"/>
    <path id="Path_2019" data-name="Path 2019" d="M285.125,392.637a.258.258,0,1,0-.257-.258A.258.258,0,0,0,285.125,392.637Z" transform="translate(-213.517 -285.635)" fill="#fff"/>
    <path id="Path_2020" data-name="Path 2020" d="M275.314,393.631a.287.287,0,1,0-.288-.288A.287.287,0,0,0,275.314,393.631Z" transform="translate(-206.895 -286.263)" fill="#fff"/>
    <path id="Path_2021" data-name="Path 2021" d="M265.458,394.039a.317.317,0,1,0-.317-.317A.317.317,0,0,0,265.458,394.039Z" transform="translate(-200.243 -286.498)" fill="#fff"/>
    <path id="Path_2022" data-name="Path 2022" d="M255.594,393.861a.347.347,0,1,0-.347-.347A.347.347,0,0,0,255.594,393.861Z" transform="translate(-193.586 -286.338)" fill="#fff"/>
    <path id="Path_2023" data-name="Path 2023" d="M245.776,393.107a.367.367,0,1,0-.366-.367A.367.367,0,0,0,245.776,393.107Z" transform="translate(-186.967 -285.804)" fill="#fff"/>
    <path id="Path_2024" data-name="Path 2024" d="M236.02,391.77a.386.386,0,1,0-.387-.386A.386.386,0,0,0,236.02,391.77Z" transform="translate(-180.388 -284.877)" fill="#fff"/>
    <path id="Path_2025" data-name="Path 2025" d="M226.359,389.855a.406.406,0,1,0-.406-.406A.406.406,0,0,0,226.359,389.855Z" transform="translate(-173.874 -283.562)" fill="#fff"/>
    <ellipse id="Ellipse_394" data-name="Ellipse 394" cx="0.416" cy="0.416" rx="0.416" ry="0.416" transform="translate(48.965 104.663)" fill="#fff"/>
    <ellipse id="Ellipse_395" data-name="Ellipse 395" cx="0.426" cy="0.426" rx="0.426" ry="0.426" transform="translate(45.905 103.662)" fill="#fff"/>
    <ellipse id="Ellipse_396" data-name="Ellipse 396" cx="0.426" cy="0.426" rx="0.426" ry="0.426" transform="translate(42.92 102.491)" fill="#fff"/>
    <path id="Path_2026" data-name="Path 2026" d="M189.463,376.624a.436.436,0,1,0-.436-.436A.436.436,0,0,0,189.463,376.624Z" transform="translate(-149.027 -274.619)" fill="#fff"/>
    <path id="Path_2027" data-name="Path 2027" d="M180.829,371.978a.436.436,0,1,0-.436-.436A.436.436,0,0,0,180.829,371.978Z" transform="translate(-143.218 -271.493)" fill="#fff"/>
    <path id="Path_2028" data-name="Path 2028" d="M172.489,366.824a.436.436,0,1,0-.436-.436A.436.436,0,0,0,172.489,366.824Z" transform="translate(-137.606 -268.025)" fill="#fff"/>
    <path id="Path_2029" data-name="Path 2029" d="M164.492,361.191a.426.426,0,1,0-.426-.426A.426.426,0,0,0,164.492,361.191Z" transform="translate(-132.231 -264.248)" fill="#fff"/>
    <path id="Path_2030" data-name="Path 2030" d="M156.827,355.078a.426.426,0,1,0-.426-.426A.426.426,0,0,0,156.827,355.078Z" transform="translate(-127.074 -260.135)" fill="#fff"/>
    <ellipse id="Ellipse_397" data-name="Ellipse 397" cx="0.426" cy="0.426" rx="0.426" ry="0.426" transform="translate(26.944 91.945)" fill="#fff"/>
    <path id="Path_2031" data-name="Path 2031" d="M142.64,341.523a.436.436,0,1,0-.436-.436A.436.436,0,0,0,142.64,341.523Z" transform="translate(-117.521 -251)" fill="#fff"/>
    <ellipse id="Ellipse_398" data-name="Ellipse 398" cx="0.426" cy="0.426" rx="0.426" ry="0.426" transform="translate(22.583 87.245)" fill="#fff"/>
    <path id="Path_2032" data-name="Path 2032" d="M130.192,326.384a.436.436,0,1,0-.436-.436A.436.436,0,0,0,130.192,326.384Z" transform="translate(-109.145 -240.814)" fill="#fff"/>
    <ellipse id="Ellipse_399" data-name="Ellipse 399" cx="0.436" cy="0.436" rx="0.436" ry="0.436" transform="translate(18.805 82.049)" fill="#fff"/>
    <path id="Path_2033" data-name="Path 2033" d="M119.661,309.877a.426.426,0,1,0-.426-.426A.426.426,0,0,0,119.661,309.877Z" transform="translate(-102.065 -229.72)" fill="#fff"/>
    <path id="Path_2034" data-name="Path 2034" d="M115.124,301.164a.436.436,0,1,0-.436-.436A.436.436,0,0,0,115.124,301.164Z" transform="translate(-99.006 -223.843)" fill="#fff"/>
    <ellipse id="Ellipse_400" data-name="Ellipse 400" cx="0.446" cy="0.446" rx="0.446" ry="0.446" transform="translate(14.368 73.509)" fill="#fff"/>
    <ellipse id="Ellipse_401" data-name="Ellipse 401" cx="0.446" cy="0.446" rx="0.446" ry="0.446" transform="translate(13.241 70.506)" fill="#fff"/>
    <ellipse id="Ellipse_402" data-name="Ellipse 402" cx="0.446" cy="0.446" rx="0.446" ry="0.446" transform="translate(12.296 67.442)" fill="#fff"/>
    <path id="Path_2035" data-name="Path 2035" d="M102.437,264.115a.456.456,0,1,0-.456-.456A.456.456,0,0,0,102.437,264.115Z" transform="translate(-90.455 -198.887)" fill="#fff"/>
    <path id="Path_2036" data-name="Path 2036" d="M100.686,254.468a.456.456,0,1,0-.456-.456A.456.456,0,0,0,100.686,254.468Z" transform="translate(-89.277 -192.395)" fill="#fff"/>
    <path id="Path_2037" data-name="Path 2037" d="M99.495,244.723a.466.466,0,1,0-.466-.465A.466.466,0,0,0,99.495,244.723Z" transform="translate(-88.469 -185.825)" fill="#fff"/>
    <path id="Path_2038" data-name="Path 2038" d="M98.889,234.926a.476.476,0,1,0-.476-.476A.476.476,0,0,0,98.889,234.926Z" transform="translate(-88.055 -179.22)" fill="#fff"/>
    <path id="Path_2039" data-name="Path 2039" d="M98.909,225.132a.466.466,0,1,0-.466-.465A.465.465,0,0,0,98.909,225.132Z" transform="translate(-88.075 -172.643)" fill="#fff"/>
    <path id="Path_2040" data-name="Path 2040" d="M99.495,215.346a.466.466,0,1,0-.466-.466A.466.466,0,0,0,99.495,215.346Z" transform="translate(-88.469 -166.057)" fill="#fff"/>
    <path id="Path_2041" data-name="Path 2041" d="M100.706,205.633a.446.446,0,1,0-.446-.446A.446.446,0,0,0,100.706,205.633Z" transform="translate(-89.297 -159.549)" fill="#fff"/>
    <path id="Path_2042" data-name="Path 2042" d="M102.518,196.017a.416.416,0,1,0-.416-.416A.416.416,0,0,0,102.518,196.017Z" transform="translate(-90.537 -153.118)" fill="#fff"/>
    <path id="Path_2043" data-name="Path 2043" d="M104.9,186.524a.386.386,0,1,0-.386-.387A.387.387,0,0,0,104.9,186.524Z" transform="translate(-92.162 -146.771)" fill="#fff"/>
    <path id="Path_2044" data-name="Path 2044" d="M107.875,177.2a.347.347,0,1,0-.347-.347A.347.347,0,0,0,107.875,177.2Z" transform="translate(-94.188 -140.548)" fill="#fff"/>
    <ellipse id="Ellipse_403" data-name="Ellipse 403" cx="0.307" cy="0.307" rx="0.307" ry="0.307" transform="translate(14.507 32.993)" fill="#fff"/>
    <ellipse id="Ellipse_404" data-name="Ellipse 404" cx="0.268" cy="0.268" rx="0.268" ry="0.268" transform="translate(15.851 30.102)" fill="#fff"/>
    <path id="Path_2045" data-name="Path 2045" d="M120.068,150.485a.228.228,0,1,0-.228-.228A.228.228,0,0,0,120.068,150.485Z" transform="translate(-102.472 -122.734)" fill="#fff"/>
    <path id="Path_2046" data-name="Path 2046" d="M125.178,142.11a.188.188,0,1,0-.188-.188A.188.188,0,0,0,125.178,142.11Z" transform="translate(-105.938 -117.152)" fill="#fff"/>
    <path id="Path_2047" data-name="Path 2047" d="M130.783,134.051a.149.149,0,1,0-.149-.149A.148.148,0,0,0,130.783,134.051Z" transform="translate(-109.736 -111.783)" fill="#fff"/>
    <path id="Path_2048" data-name="Path 2048" d="M136.862,126.338a.109.109,0,1,0-.109-.109A.109.109,0,0,0,136.862,126.338Z" transform="translate(-113.853 -106.646)" fill="#fff"/>
    <path id="Path_2049" data-name="Path 2049" d="M143.394,119a.069.069,0,1,0-.069-.069A.069.069,0,0,0,143.394,119Z" transform="translate(-118.275 -101.759)" fill="#fff"/>
    <path id="Path_2050" data-name="Path 2050" d="M150.315,112.033a.05.05,0,1,0-.049-.05A.05.05,0,0,0,150.315,112.033Z" transform="translate(-122.946 -97.1)" fill="#fff"/>
    <path id="Path_2051" data-name="Path 2051" d="M157.642,105.494a.03.03,0,1,0-.029-.03A.03.03,0,0,0,157.642,105.494Z" transform="translate(-127.889 -92.726)" fill="#fff"/>
    <path id="Path_2052" data-name="Path 2052" d="M165.348,99.4a.01.01,0,1,0-.01-.01A.01.01,0,0,0,165.348,99.4Z" transform="translate(-133.087 -88.654)" fill="#fff"/>
    <path id="Path_2053" data-name="Path 2053" d="M173.366,93.758a.01.01,0,1,0-.01-.01A.01.01,0,0,0,173.366,93.758Z" transform="translate(-138.483 -84.856)" fill="#fff"/>
    <path id="Path_2054" data-name="Path 2054" d="M181.706,88.6a.01.01,0,0,0,.01-.01.01.01,0,1,0-.02,0A.01.01,0,0,0,181.706,88.6Z" transform="translate(-144.094 -81.388)" fill="#fff"/>
    <path id="Path_2055" data-name="Path 2055" d="M190.339,83.959a.01.01,0,0,0,.01-.01.01.01,0,0,0-.02,0A.01.01,0,0,0,190.339,83.959Z" transform="translate(-149.903 -78.263)" fill="#fff"/>
    <path id="Path_2056" data-name="Path 2056" d="M199.235,79.837a.01.01,0,1,0-.01-.01A.01.01,0,0,0,199.235,79.837Z" transform="translate(-155.889 -75.489)" fill="#fff"/>
    <path id="Path_2057" data-name="Path 2057" d="M208.362,76.255a.01.01,0,1,0,0-.02.01.01,0,0,0,0,.02Z" transform="translate(-162.031 -73.079)" fill="#fff"/>
    <ellipse id="Ellipse_405" data-name="Ellipse 405" cx="0.01" cy="0.01" rx="0.01" ry="0.01" transform="translate(49.371 2.165)" fill="#fff"/>
    <ellipse id="Ellipse_406" data-name="Ellipse 406" cx="0.02" cy="0.02" rx="0.02" ry="0.02" transform="translate(52.465 1.348)" fill="#fff"/>
    <path id="Path_2058" data-name="Path 2058" d="M236.754,68.844a.03.03,0,0,0,.03-.03.03.03,0,1,0-.03.03Z" transform="translate(-181.122 -68.065)" fill="#fff"/>
    <path id="Path_2059" data-name="Path 2059" d="M246.469,67.527a.03.03,0,1,0-.03-.029A.029.029,0,0,0,246.469,67.527Z" transform="translate(-187.659 -67.18)" fill="#fff"/>
    <path id="Path_2060" data-name="Path 2060" d="M256.246,66.795a.03.03,0,1,0-.03-.03A.03.03,0,0,0,256.246,66.795Z" transform="translate(-194.238 -66.686)" fill="#fff"/>
    <path id="Path_2061" data-name="Path 2061" d="M266.049,66.648a.03.03,0,1,0-.03-.03A.03.03,0,0,0,266.049,66.648Z" transform="translate(-200.834 -66.588)" fill="#fff"/>
    <path id="Path_2062" data-name="Path 2062" d="M275.864,67.1a.02.02,0,1,0-.02-.02A.02.02,0,0,0,275.864,67.1Z" transform="translate(-207.445 -66.904)" fill="#fff"/>
    <path id="Path_2063" data-name="Path 2063" d="M285.635,68.134a.01.01,0,1,0-.01-.01A.01.01,0,0,0,285.635,68.134Z" transform="translate(-214.027 -67.614)" fill="#fff"/>
    <path id="Path_2064" data-name="Path 2064" d="M380.11,360.847a.01.01,0,1,0-.01-.01A.01.01,0,0,0,380.11,360.847Z" transform="translate(-277.597 -264.576)" fill="#fff"/>
    <path id="Path_2065" data-name="Path 2065" d="M372.619,367.173a.01.01,0,1,0-.01-.01A.01.01,0,0,0,372.619,367.173Z" transform="translate(-272.557 -268.833)" fill="#fff"/>
    <path id="Path_2066" data-name="Path 2066" d="M364.764,373.058a.02.02,0,1,0,0-.04.02.02,0,1,0,0,.04Z" transform="translate(-267.265 -272.78)" fill="#fff"/>
    <path id="Path_2067" data-name="Path 2067" d="M356.572,378.484a.04.04,0,1,0-.04-.04A.039.039,0,0,0,356.572,378.484Z" transform="translate(-261.739 -276.405)" fill="#fff"/>
    <path id="Path_2068" data-name="Path 2068" d="M348.106,383.455a.05.05,0,1,0-.049-.05A.05.05,0,0,0,348.106,383.455Z" transform="translate(-256.036 -279.736)" fill="#fff"/>
    <path id="Path_2069" data-name="Path 2069" d="M339.355,387.934a.069.069,0,1,0-.069-.069A.069.069,0,0,0,339.355,387.934Z" transform="translate(-250.134 -282.723)" fill="#fff"/>
    <path id="Path_2070" data-name="Path 2070" d="M330.365,391.917a.089.089,0,1,0-.089-.089A.089.089,0,0,0,330.365,391.917Z" transform="translate(-244.072 -285.377)" fill="#fff"/>
    <path id="Path_2071" data-name="Path 2071" d="M321.164,395.393a.109.109,0,1,0-.109-.109A.109.109,0,0,0,321.164,395.393Z" transform="translate(-237.867 -287.689)" fill="#fff"/>
    <path id="Path_2072" data-name="Path 2072" d="M311.782,398.35a.129.129,0,1,0-.129-.129A.129.129,0,0,0,311.782,398.35Z" transform="translate(-231.541 -289.652)" fill="#fff"/>
    <path id="Path_2073" data-name="Path 2073" d="M302.248,400.777a.149.149,0,1,0-.149-.148A.149.149,0,0,0,302.248,400.777Z" transform="translate(-225.112 -291.258)" fill="#fff"/>
    <path id="Path_2074" data-name="Path 2074" d="M292.592,402.669a.169.169,0,1,0-.168-.169A.168.168,0,0,0,292.592,402.669Z" transform="translate(-218.601 -292.505)" fill="#fff"/>
    <path id="Path_2075" data-name="Path 2075" d="M282.862,404.03a.178.178,0,1,0-.178-.178A.179.179,0,0,0,282.862,404.03Z" transform="translate(-212.048 -293.407)" fill="#fff"/>
    <path id="Path_2076" data-name="Path 2076" d="M273.052,404.832a.2.2,0,1,0-.2-.2A.2.2,0,0,0,273.052,404.832Z" transform="translate(-205.433 -293.92)" fill="#fff"/>
    <path id="Path_2077" data-name="Path 2077" d="M263.19,405.076a.228.228,0,1,0-.228-.228A.228.228,0,0,0,263.19,405.076Z" transform="translate(-198.777 -294.044)" fill="#fff"/>
    <path id="Path_2078" data-name="Path 2078" d="M253.369,404.791a.238.238,0,1,0-.238-.238A.238.238,0,0,0,253.369,404.791Z" transform="translate(-192.162 -293.839)" fill="#fff"/>
    <path id="Path_2079" data-name="Path 2079" d="M243.579,403.956a.248.248,0,1,0-.248-.248A.248.248,0,0,0,243.579,403.956Z" transform="translate(-185.568 -293.264)" fill="#fff"/>
    <path id="Path_2080" data-name="Path 2080" d="M233.831,402.565a.267.267,0,1,0-.268-.268A.268.268,0,0,0,233.831,402.565Z" transform="translate(-178.995 -292.301)" fill="#fff"/>
    <path id="Path_2081" data-name="Path 2081" d="M224.193,400.641a.278.278,0,1,0-.277-.277A.278.278,0,0,0,224.193,400.641Z" transform="translate(-172.504 -290.993)" fill="#fff"/>
    <path id="Path_2082" data-name="Path 2082" d="M214.68,398.182a.287.287,0,1,0-.288-.287A.287.287,0,0,0,214.68,398.182Z" transform="translate(-166.095 -289.325)" fill="#fff"/>
    <path id="Path_2083" data-name="Path 2083" d="M205.318,395.194a.3.3,0,1,0-.3-.3A.3.3,0,0,0,205.318,395.194Z" transform="translate(-159.789 -287.302)" fill="#fff"/>
    <path id="Path_2084" data-name="Path 2084" d="M196.158,391.7a.3.3,0,1,0-.3-.3A.3.3,0,0,0,196.158,391.7Z" transform="translate(-153.626 -284.949)" fill="#fff"/>
    <path id="Path_2085" data-name="Path 2085" d="M187.188,387.682a.307.307,0,1,0-.307-.307A.307.307,0,0,0,187.188,387.682Z" transform="translate(-147.583 -282.234)" fill="#fff"/>
    <ellipse id="Ellipse_407" data-name="Ellipse 407" cx="0.307" cy="0.307" rx="0.307" ry="0.307" transform="translate(36.448 103.362)" fill="#fff"/>
    <path id="Path_2086" data-name="Path 2086" d="M170.053,378.212a.3.3,0,1,0-.3-.3A.3.3,0,0,0,170.053,378.212Z" transform="translate(-136.06 -275.874)" fill="#fff"/>
    <path id="Path_2087" data-name="Path 2087" d="M161.9,372.765a.3.3,0,1,0-.3-.3A.3.3,0,0,0,161.9,372.765Z" transform="translate(-130.575 -272.209)" fill="#fff"/>
    <path id="Path_2088" data-name="Path 2088" d="M154.088,366.88a.287.287,0,1,0-.287-.288A.288.288,0,0,0,154.088,366.88Z" transform="translate(-125.324 -268.263)" fill="#fff"/>
    <path id="Path_2089" data-name="Path 2089" d="M146.576,360.543a.3.3,0,1,0-.3-.3A.3.3,0,0,0,146.576,360.543Z" transform="translate(-120.263 -263.986)" fill="#fff"/>
    <ellipse id="Ellipse_408" data-name="Ellipse 408" cx="0.297" cy="0.297" rx="0.297" ry="0.297" transform="translate(23.686 93.76)" fill="#fff"/>
    <ellipse id="Ellipse_409" data-name="Ellipse 409" cx="0.297" cy="0.297" rx="0.297" ry="0.297" transform="translate(21.482 91.429)" fill="#fff"/>
    <path id="Path_2090" data-name="Path 2090" d="M126.391,339.192a.3.3,0,1,0-.3-.3A.3.3,0,0,0,126.391,339.192Z" transform="translate(-106.681 -249.619)" fill="#fff"/>
    <ellipse id="Ellipse_410" data-name="Ellipse 410" cx="0.297" cy="0.297" rx="0.297" ry="0.297" transform="translate(17.485 86.416)" fill="#fff"/>
    <path id="Path_2091" data-name="Path 2091" d="M115.048,323.207a.3.3,0,1,0-.3-.3A.3.3,0,0,0,115.048,323.207Z" transform="translate(-99.048 -238.862)" fill="#fff"/>
    <path id="Path_2092" data-name="Path 2092" d="M110.088,314.773a.287.287,0,1,0-.288-.288A.287.287,0,0,0,110.088,314.773Z" transform="translate(-95.717 -233.201)" fill="#fff"/>
    <path id="Path_2093" data-name="Path 2093" d="M105.567,306.051a.3.3,0,1,0-.3-.3A.3.3,0,0,0,105.567,306.051Z" transform="translate(-92.669 -227.319)" fill="#fff"/>
    <path id="Path_2094" data-name="Path 2094" d="M101.542,297.091a.307.307,0,1,0-.307-.307A.307.307,0,0,0,101.542,297.091Z" transform="translate(-89.953 -221.276)" fill="#fff"/>
    <path id="Path_2095" data-name="Path 2095" d="M98.045,287.931a.307.307,0,1,0-.307-.307A.307.307,0,0,0,98.045,287.931Z" transform="translate(-87.6 -215.113)" fill="#fff"/>
    <path id="Path_2096" data-name="Path 2096" d="M95.068,278.59a.307.307,0,1,0-.307-.307A.307.307,0,0,0,95.068,278.59Z" transform="translate(-85.597 -208.827)" fill="#fff"/>
    <path id="Path_2097" data-name="Path 2097" d="M92.6,269.086a.317.317,0,1,0-.317-.317A.317.317,0,0,0,92.6,269.086Z" transform="translate(-83.929 -202.419)" fill="#fff"/>
    <ellipse id="Ellipse_411" data-name="Ellipse 411" cx="0.317" cy="0.317" rx="0.317" ry="0.317" transform="translate(7.727 62.888)" fill="#fff"/>
    <path id="Path_2098" data-name="Path 2098" d="M89.3,249.751a.327.327,0,1,0-.327-.327A.327.327,0,0,0,89.3,249.751Z" transform="translate(-81.699 -189.395)" fill="#fff"/>
    <path id="Path_2099" data-name="Path 2099" d="M88.471,239.982a.327.327,0,1,0-.327-.327A.327.327,0,0,0,88.471,239.982Z" transform="translate(-81.145 -182.822)" fill="#fff"/>
    <path id="Path_2100" data-name="Path 2100" d="M88.2,230.181a.327.327,0,1,0-.327-.327A.327.327,0,0,0,88.2,230.181Z" transform="translate(-80.96 -176.227)" fill="#fff"/>
    <path id="Path_2101" data-name="Path 2101" d="M88.471,220.38a.327.327,0,1,0-.327-.327A.327.327,0,0,0,88.471,220.38Z" transform="translate(-81.145 -169.632)" fill="#fff"/>
    <path id="Path_2102" data-name="Path 2102" d="M89.315,210.621A.317.317,0,1,0,89,210.3.317.317,0,0,0,89.315,210.621Z" transform="translate(-81.719 -163.079)" fill="#fff"/>
    <path id="Path_2103" data-name="Path 2103" d="M90.706,200.923a.307.307,0,1,0-.307-.307A.307.307,0,0,0,90.706,200.923Z" transform="translate(-82.662 -156.566)" fill="#fff"/>
    <path id="Path_2104" data-name="Path 2104" d="M92.66,191.329a.287.287,0,1,0-.287-.288A.288.288,0,0,0,92.66,191.329Z" transform="translate(-83.99 -150.137)" fill="#fff"/>
    <ellipse id="Ellipse_412" data-name="Ellipse 412" cx="0.277" cy="0.277" rx="0.277" ry="0.277" transform="translate(9.194 37.521)" fill="#fff"/>
    <path id="Path_2105" data-name="Path 2105" d="M98.168,172.536a.248.248,0,1,0-.248-.248A.248.248,0,0,0,98.168,172.536Z" transform="translate(-87.723 -137.545)" fill="#fff"/>
    <path id="Path_2106" data-name="Path 2106" d="M101.725,163.407a.218.218,0,1,0-.218-.218A.218.218,0,0,0,101.725,163.407Z" transform="translate(-90.136 -131.442)" fill="#fff"/>
    <path id="Path_2107" data-name="Path 2107" d="M105.791,154.49a.188.188,0,1,0-.188-.188A.188.188,0,0,0,105.791,154.49Z" transform="translate(-92.893 -125.482)" fill="#fff"/>
    <path id="Path_2108" data-name="Path 2108" d="M110.353,145.81a.159.159,0,1,0-.159-.159A.159.159,0,0,0,110.353,145.81Z" transform="translate(-95.982 -119.681)" fill="#fff"/>
    <ellipse id="Ellipse_413" data-name="Ellipse 413" cx="0.139" cy="0.139" rx="0.139" ry="0.139" transform="translate(15.861 23.069)" fill="#fff"/>
    <path id="Path_2109" data-name="Path 2109" d="M120.883,129.265a.109.109,0,1,0-.109-.109A.109.109,0,0,0,120.883,129.265Z" transform="translate(-103.101 -108.615)" fill="#fff"/>
    <path id="Path_2110" data-name="Path 2110" d="M126.839,121.463a.079.079,0,1,0-.079-.079A.079.079,0,0,0,126.839,121.463Z" transform="translate(-107.129 -103.406)" fill="#fff"/>
    <path id="Path_2111" data-name="Path 2111" d="M133.206,113.993a.06.06,0,1,0-.06-.059A.06.06,0,0,0,133.206,113.993Z" transform="translate(-111.426 -98.406)" fill="#fff"/>
    <path id="Path_2112" data-name="Path 2112" d="M139.962,106.879a.05.05,0,1,0-.05-.05A.05.05,0,0,0,139.962,106.879Z" transform="translate(-115.979 -93.632)" fill="#fff"/>
    <path id="Path_2113" data-name="Path 2113" d="M147.127,100.165a.03.03,0,1,0-.03-.03A.03.03,0,0,0,147.127,100.165Z" transform="translate(-120.813 -89.141)" fill="#fff"/>
    <path id="Path_2114" data-name="Path 2114" d="M154.659,93.86a.01.01,0,0,0,.01-.01.01.01,0,1,0-.02,0A.01.01,0,0,0,154.659,93.86Z" transform="translate(-125.895 -84.925)" fill="#fff"/>
    <path id="Path_2115" data-name="Path 2115" d="M428.62,172.787a.01.01,0,0,0,.01-.01.01.01,0,0,0-.01-.01.01.01,0,0,0-.01.01A.01.01,0,0,0,428.62,172.787Z" transform="translate(-310.239 -138.034)" fill="#fff"/>
    <path id="Path_2116" data-name="Path 2116" d="M431.6,182.128a.01.01,0,1,0-.01-.01A.01.01,0,0,0,431.6,182.128Z" transform="translate(-312.243 -144.319)" fill="#fff"/>
    <path id="Path_2117" data-name="Path 2117" d="M386.931,369.4a.01.01,0,1,0-.01-.01A.01.01,0,0,0,386.931,369.4Z" transform="translate(-282.187 -270.332)" fill="#fff"/>
    <path id="Path_2118" data-name="Path 2118" d="M379.43,375.714a.01.01,0,1,0,0-.02.01.01,0,0,0,0,.02Z" transform="translate(-277.14 -274.58)" fill="#fff"/>
    <path id="Path_2119" data-name="Path 2119" d="M371.606,381.623a.01.01,0,1,0-.01-.01A.01.01,0,0,0,371.606,381.623Z" transform="translate(-271.875 -278.556)" fill="#fff"/>
    <path id="Path_2120" data-name="Path 2120" d="M363.46,387.1a.02.02,0,1,0-.02-.02A.02.02,0,0,0,363.46,387.1Z" transform="translate(-266.387 -282.228)" fill="#fff"/>
    <path id="Path_2121" data-name="Path 2121" d="M355.036,392.14a.03.03,0,1,0-.029-.03A.03.03,0,0,0,355.036,392.14Z" transform="translate(-260.713 -285.606)" fill="#fff"/>
    <path id="Path_2122" data-name="Path 2122" d="M346.358,396.73a.04.04,0,1,0-.04-.04A.04.04,0,0,0,346.358,396.73Z" transform="translate(-254.866 -288.681)" fill="#fff"/>
    <ellipse id="Ellipse_414" data-name="Ellipse 414" cx="0.05" cy="0.05" rx="0.05" ry="0.05" transform="translate(88.534 109.312)" fill="#fff"/>
    <path id="Path_2123" data-name="Path 2123" d="M328.333,404.508a.06.06,0,1,0-.06-.06A.06.06,0,0,0,328.333,404.508Z" transform="translate(-242.724 -293.889)" fill="#fff"/>
    <path id="Path_2124" data-name="Path 2124" d="M319.037,407.675a.069.069,0,1,0-.069-.069A.07.07,0,0,0,319.037,407.675Z" transform="translate(-236.463 -296.006)" fill="#fff"/>
    <path id="Path_2125" data-name="Path 2125" d="M309.586,410.347a.079.079,0,1,0-.079-.079A.079.079,0,0,0,309.586,410.347Z" transform="translate(-230.097 -297.791)" fill="#fff"/>
    <path id="Path_2126" data-name="Path 2126" d="M300.007,412.519a.089.089,0,1,0-.089-.089A.089.089,0,0,0,300.007,412.519Z" transform="translate(-223.644 -299.239)" fill="#fff"/>
    <path id="Path_2127" data-name="Path 2127" d="M290.326,414.182a.1.1,0,1,0-.1-.1A.1.1,0,0,0,290.326,414.182Z" transform="translate(-217.123 -300.345)" fill="#fff"/>
    <path id="Path_2128" data-name="Path 2128" d="M280.591,415.344a.1.1,0,1,0-.1-.1A.1.1,0,0,0,280.591,415.344Z" transform="translate(-210.573 -301.127)" fill="#fff"/>
    <path id="Path_2129" data-name="Path 2129" d="M270.767,415.97a.119.119,0,1,0-.119-.119A.119.119,0,0,0,270.767,415.97Z" transform="translate(-203.949 -301.521)" fill="#fff"/>
    <path id="Path_2130" data-name="Path 2130" d="M260.943,416.089a.129.129,0,1,0-.129-.129A.129.129,0,0,0,260.943,416.089Z" transform="translate(-197.332 -301.588)" fill="#fff"/>
    <path id="Path_2131" data-name="Path 2131" d="M251.126,415.69a.139.139,0,1,0-.139-.139A.139.139,0,0,0,251.126,415.69Z" transform="translate(-190.719 -301.307)" fill="#fff"/>
    <path id="Path_2132" data-name="Path 2132" d="M241.322,414.765a.158.158,0,1,0-.159-.159A.159.159,0,0,0,241.322,414.765Z" transform="translate(-184.109 -300.657)" fill="#fff"/>
    <path id="Path_2133" data-name="Path 2133" d="M231.621,413.346a.159.159,0,1,0-.159-.158A.158.158,0,0,0,231.621,413.346Z" transform="translate(-177.581 -299.702)" fill="#fff"/>
    <path id="Path_2134" data-name="Path 2134" d="M221.987,411.407a.168.168,0,1,0-.168-.168A.168.168,0,0,0,221.987,411.407Z" transform="translate(-171.093 -298.384)" fill="#fff"/>
    <path id="Path_2135" data-name="Path 2135" d="M212.489,408.974a.168.168,0,1,0-.168-.168A.169.169,0,0,0,212.489,408.974Z" transform="translate(-164.702 -296.747)" fill="#fff"/>
    <path id="Path_2136" data-name="Path 2136" d="M203.113,406.032a.178.178,0,1,0-.179-.178A.178.178,0,0,0,203.113,406.032Z" transform="translate(-158.385 -294.754)" fill="#fff"/>
    <path id="Path_2137" data-name="Path 2137" d="M193.924,402.612a.178.178,0,1,0-.178-.178A.178.178,0,0,0,193.924,402.612Z" transform="translate(-152.203 -292.453)" fill="#fff"/>
    <path id="Path_2138" data-name="Path 2138" d="M184.929,398.711a.178.178,0,1,0-.178-.178A.178.178,0,0,0,184.929,398.711Z" transform="translate(-146.15 -289.828)" fill="#fff"/>
    <path id="Path_2139" data-name="Path 2139" d="M176.152,394.34a.178.178,0,1,0-.178-.178A.178.178,0,0,0,176.152,394.34Z" transform="translate(-140.244 -286.887)" fill="#fff"/>
    <path id="Path_2140" data-name="Path 2140" d="M167.619,389.513a.178.178,0,1,0-.179-.178A.178.178,0,0,0,167.619,389.513Z" transform="translate(-134.502 -283.639)" fill="#fff"/>
    <ellipse id="Ellipse_415" data-name="Ellipse 415" cx="0.178" cy="0.178" rx="0.178" ry="0.178" transform="translate(30.234 103.793)" fill="#fff"/>
    <path id="Path_2141" data-name="Path 2141" d="M151.374,378.542a.178.178,0,1,0-.178-.178A.178.178,0,0,0,151.374,378.542Z" transform="translate(-123.571 -276.256)" fill="#fff"/>
    <path id="Path_2142" data-name="Path 2142" d="M143.708,372.429a.178.178,0,1,0-.178-.178A.178.178,0,0,0,143.708,372.429Z" transform="translate(-118.413 -272.143)" fill="#fff"/>
    <ellipse id="Ellipse_416" data-name="Ellipse 416" cx="0.178" cy="0.178" rx="0.178" ry="0.178" transform="translate(22.718 97.8)" fill="#fff"/>
    <path id="Path_2143" data-name="Path 2143" d="M129.4,359.033a.178.178,0,1,0-.179-.178A.178.178,0,0,0,129.4,359.033Z" transform="translate(-108.783 -263.129)" fill="#fff"/>
    <path id="Path_2144" data-name="Path 2144" d="M122.792,351.787a.178.178,0,1,0-.178-.178A.178.178,0,0,0,122.792,351.787Z" transform="translate(-104.339 -258.253)" fill="#fff"/>
    <path id="Path_2145" data-name="Path 2145" d="M116.579,344.2a.178.178,0,1,0-.179-.178A.178.178,0,0,0,116.579,344.2Z" transform="translate(-100.158 -253.15)" fill="#fff"/>
    <path id="Path_2146" data-name="Path 2146" d="M110.774,336.3a.178.178,0,1,0-.178-.178A.178.178,0,0,0,110.774,336.3Z" transform="translate(-96.252 -247.833)" fill="#fff"/>
    <ellipse id="Ellipse_417" data-name="Ellipse 417" cx="0.178" cy="0.178" rx="0.178" ry="0.178" transform="translate(12.584 85.43)" fill="#fff"/>
    <path id="Path_2147" data-name="Path 2147" d="M100.455,319.635a.178.178,0,1,0-.179-.178A.178.178,0,0,0,100.455,319.635Z" transform="translate(-89.308 -236.619)" fill="#fff"/>
    <path id="Path_2148" data-name="Path 2148" d="M95.948,310.907a.188.188,0,1,0-.188-.188A.188.188,0,0,0,95.948,310.907Z" transform="translate(-86.269 -230.732)" fill="#fff"/>
    <path id="Path_2149" data-name="Path 2149" d="M91.929,301.964a.188.188,0,1,0-.188-.188A.188.188,0,0,0,91.929,301.964Z" transform="translate(-83.565 -224.715)" fill="#fff"/>
    <path id="Path_2150" data-name="Path 2150" d="M88.387,292.821a.188.188,0,1,0-.188-.188A.188.188,0,0,0,88.387,292.821Z" transform="translate(-81.182 -218.563)" fill="#fff"/>
    <path id="Path_2151" data-name="Path 2151" d="M85.333,283.5a.188.188,0,1,0-.188-.188A.188.188,0,0,0,85.333,283.5Z" transform="translate(-79.127 -212.294)" fill="#fff"/>
    <path id="Path_2152" data-name="Path 2152" d="M82.774,274.039a.188.188,0,1,0-.188-.188A.188.188,0,0,0,82.774,274.039Z" transform="translate(-77.405 -205.925)" fill="#fff"/>
    <path id="Path_2153" data-name="Path 2153" d="M80.7,264.442a.2.2,0,1,0-.2-.2A.2.2,0,0,0,80.7,264.442Z" transform="translate(-76.002 -199.454)" fill="#fff"/>
    <path id="Path_2154" data-name="Path 2154" d="M79.152,254.76a.2.2,0,1,0-.2-.2A.2.2,0,0,0,79.152,254.76Z" transform="translate(-74.961 -192.939)" fill="#fff"/>
    <path id="Path_2155" data-name="Path 2155" d="M78.1,245a.208.208,0,1,0-.208-.208A.208.208,0,0,0,78.1,245Z" transform="translate(-74.245 -186.358)" fill="#fff"/>
    <path id="Path_2156" data-name="Path 2156" d="M77.581,235.209a.208.208,0,1,0-.208-.208A.208.208,0,0,0,77.581,235.209Z" transform="translate(-73.897 -179.77)" fill="#fff"/>
    <path id="Path_2157" data-name="Path 2157" d="M77.581,225.4a.208.208,0,1,0-.208-.208A.208.208,0,0,0,77.581,225.4Z" transform="translate(-73.897 -173.172)" fill="#fff"/>
    <path id="Path_2158" data-name="Path 2158" d="M78.119,215.624a.2.2,0,1,0-.2-.2A.2.2,0,0,0,78.119,215.624Z" transform="translate(-74.266 -166.605)" fill="#fff"/>
    <path id="Path_2159" data-name="Path 2159" d="M79.152,205.874a.2.2,0,1,0-.2-.2A.2.2,0,0,0,79.152,205.874Z" transform="translate(-74.961 -160.045)" fill="#fff"/>
    <path id="Path_2160" data-name="Path 2160" d="M80.719,196.2a.188.188,0,1,0-.188-.188A.188.188,0,0,0,80.719,196.2Z" transform="translate(-76.022 -153.55)" fill="#fff"/>
    <path id="Path_2161" data-name="Path 2161" d="M82.8,186.627a.178.178,0,1,0-.178-.178A.178.178,0,0,0,82.8,186.627Z" transform="translate(-77.426 -147.12)" fill="#fff"/>
    <path id="Path_2162" data-name="Path 2162" d="M85.394,177.182a.159.159,0,1,0-.158-.159A.159.159,0,0,0,85.394,177.182Z" transform="translate(-79.188 -140.791)" fill="#fff"/>
    <path id="Path_2163" data-name="Path 2163" d="M88.469,167.876a.149.149,0,1,0-.149-.149A.149.149,0,0,0,88.469,167.876Z" transform="translate(-81.263 -134.543)" fill="#fff"/>
    <ellipse id="Ellipse_418" data-name="Ellipse 418" cx="0.129" cy="0.129" rx="0.129" ry="0.129" transform="translate(8.235 30.065)" fill="#fff"/>
    <path id="Path_2164" data-name="Path 2164" d="M96.112,149.833a.109.109,0,1,0-.109-.109A.109.109,0,0,0,96.112,149.833Z" transform="translate(-86.433 -122.455)" fill="#fff"/>
    <path id="Path_2165" data-name="Path 2165" d="M100.618,141.125a.1.1,0,1,0-.1-.1A.1.1,0,0,0,100.618,141.125Z" transform="translate(-89.472 -116.609)" fill="#fff"/>
    <path id="Path_2166" data-name="Path 2166" d="M105.6,132.677a.079.079,0,1,0-.079-.079A.08.08,0,0,0,105.6,132.677Z" transform="translate(-92.836 -110.951)" fill="#fff"/>
    <path id="Path_2167" data-name="Path 2167" d="M111,124.491a.069.069,0,1,0-.069-.069A.069.069,0,0,0,111,124.491Z" transform="translate(-96.476 -105.456)" fill="#fff"/>
    <path id="Path_2168" data-name="Path 2168" d="M116.844,116.61a.05.05,0,1,0-.05-.05A.05.05,0,0,0,116.844,116.61Z" transform="translate(-100.423 -100.18)" fill="#fff"/>
    <path id="Path_2169" data-name="Path 2169" d="M123.078,109.036a.04.04,0,1,0-.04-.04A.04.04,0,0,0,123.078,109.036Z" transform="translate(-104.624 -95.097)" fill="#fff"/>
    <path id="Path_2170" data-name="Path 2170" d="M129.7,101.8a.03.03,0,1,0-.03-.03A.03.03,0,0,0,129.7,101.8Z" transform="translate(-109.09 -90.241)" fill="#fff"/>
    <path id="Path_2171" data-name="Path 2171" d="M136.7,94.925a.02.02,0,1,0-.02-.02A.02.02,0,0,0,136.7,94.925Z" transform="translate(-113.806 -85.628)" fill="#fff"/>
    <ellipse id="Ellipse_419" data-name="Ellipse 419" cx="0.01" cy="0.01" rx="0.01" ry="0.01" transform="translate(25.285 7.137)" fill="#fff"/>
    <ellipse id="Ellipse_420" data-name="Ellipse 420" cx="0.01" cy="0.01" rx="0.01" ry="0.01" transform="translate(104.508 103.908)" fill="#fff"/>
    <path id="Path_2172" data-name="Path 2172" d="M378.426,390.175a.01.01,0,1,0-.01-.01A.01.01,0,0,0,378.426,390.175Z" transform="translate(-276.464 -284.311)" fill="#fff"/>
    <path id="Path_2173" data-name="Path 2173" d="M370.325,395.7a.01.01,0,0,0,0-.02.01.01,0,0,0,0,.02Z" transform="translate(-271.013 -288.027)" fill="#fff"/>
    <ellipse id="Ellipse_421" data-name="Ellipse 421" cx="0.01" cy="0.01" rx="0.01" ry="0.01" transform="translate(96.565 109.323)" fill="#fff"/>
    <path id="Path_2174" data-name="Path 2174" d="M353.348,405.5a.01.01,0,0,0,.01-.01.01.01,0,0,0-.02,0A.01.01,0,0,0,353.348,405.5Z" transform="translate(-259.59 -294.623)" fill="#fff"/>
    <path id="Path_2175" data-name="Path 2175" d="M344.494,409.744a.02.02,0,1,0-.02-.02A.02.02,0,0,0,344.494,409.744Z" transform="translate(-253.625 -297.465)" fill="#fff"/>
    <path id="Path_2176" data-name="Path 2176" d="M335.459,413.552a.02.02,0,1,0-.02-.02A.02.02,0,0,0,335.459,413.552Z" transform="translate(-247.546 -300.027)" fill="#fff"/>
    <path id="Path_2177" data-name="Path 2177" d="M326.225,416.895a.03.03,0,1,0-.03-.03A.03.03,0,0,0,326.225,416.895Z" transform="translate(-241.326 -302.263)" fill="#fff"/>
    <path id="Path_2178" data-name="Path 2178" d="M316.856,419.785a.03.03,0,1,0-.03-.03A.03.03,0,0,0,316.856,419.785Z" transform="translate(-235.021 -304.208)" fill="#fff"/>
    <ellipse id="Ellipse_422" data-name="Ellipse 422" cx="0.03" cy="0.03" rx="0.03" ry="0.03" transform="translate(78.697 116.309)" fill="#fff"/>
    <path id="Path_2179" data-name="Path 2179" d="M297.724,424.137a.04.04,0,1,0-.04-.04A.04.04,0,0,0,297.724,424.137Z" transform="translate(-222.141 -307.123)" fill="#fff"/>
    <path id="Path_2180" data-name="Path 2180" d="M288.029,425.6a.04.04,0,1,0-.04-.04A.039.039,0,0,0,288.029,425.6Z" transform="translate(-215.617 -308.107)" fill="#fff"/>
    <path id="Path_2181" data-name="Path 2181" d="M278.273,426.574a.04.04,0,1,0-.04-.04A.04.04,0,0,0,278.273,426.574Z" transform="translate(-209.053 -308.764)" fill="#fff"/>
    <path id="Path_2182" data-name="Path 2182" d="M268.48,427.063a.04.04,0,1,0-.04-.04A.04.04,0,0,0,268.48,427.063Z" transform="translate(-202.463 -309.093)" fill="#fff"/>
    <path id="Path_2183" data-name="Path 2183" d="M258.655,427.052a.05.05,0,1,0-.05-.049A.05.05,0,0,0,258.655,427.052Z" transform="translate(-195.845 -309.072)" fill="#fff"/>
    <path id="Path_2184" data-name="Path 2184" d="M248.862,426.563a.05.05,0,1,0-.049-.049A.049.049,0,0,0,248.862,426.563Z" transform="translate(-189.256 -308.743)" fill="#fff"/>
    <path id="Path_2185" data-name="Path 2185" d="M239.086,425.577a.06.06,0,1,0-.06-.06A.06.06,0,0,0,239.086,425.577Z" transform="translate(-182.671 -308.066)" fill="#fff"/>
    <path id="Path_2186" data-name="Path 2186" d="M229.391,424.116a.059.059,0,1,0-.06-.06A.06.06,0,0,0,229.391,424.116Z" transform="translate(-176.147 -307.083)" fill="#fff"/>
    <path id="Path_2187" data-name="Path 2187" d="M219.781,422.173a.059.059,0,1,0-.06-.059A.059.059,0,0,0,219.781,422.173Z" transform="translate(-169.681 -305.775)" fill="#fff"/>
    <path id="Path_2188" data-name="Path 2188" d="M210.279,419.753a.06.06,0,1,0-.06-.06A.059.059,0,0,0,210.279,419.753Z" transform="translate(-163.287 -304.147)" fill="#fff"/>
    <path id="Path_2189" data-name="Path 2189" d="M200.91,416.864a.059.059,0,1,0-.06-.06A.06.06,0,0,0,200.91,416.864Z" transform="translate(-156.983 -302.203)" fill="#fff"/>
    <path id="Path_2190" data-name="Path 2190" d="M191.7,413.51a.06.06,0,1,0-.06-.06A.059.059,0,0,0,191.7,413.51Z" transform="translate(-150.784 -299.946)" fill="#fff"/>
    <path id="Path_2191" data-name="Path 2191" d="M182.662,409.7a.059.059,0,1,0-.06-.06A.06.06,0,0,0,182.662,409.7Z" transform="translate(-144.704 -297.384)" fill="#fff"/>
    <path id="Path_2192" data-name="Path 2192" d="M173.828,405.447a.06.06,0,1,0-.06-.059A.059.059,0,0,0,173.828,405.447Z" transform="translate(-138.76 -294.52)" fill="#fff"/>
    <path id="Path_2193" data-name="Path 2193" d="M165.2,400.748a.069.069,0,1,0-.07-.069A.069.069,0,0,0,165.2,400.748Z" transform="translate(-132.945 -291.345)" fill="#fff"/>
    <path id="Path_2194" data-name="Path 2194" d="M156.851,395.646a.059.059,0,1,0-.06-.059A.059.059,0,0,0,156.851,395.646Z" transform="translate(-127.336 -287.926)" fill="#fff"/>
    <path id="Path_2195" data-name="Path 2195" d="M148.75,390.123a.059.059,0,1,0-.06-.06A.059.059,0,0,0,148.75,390.123Z" transform="translate(-121.885 -284.209)" fill="#fff"/>
    <path id="Path_2196" data-name="Path 2196" d="M140.935,384.2a.059.059,0,1,0-.06-.06A.059.059,0,0,0,140.935,384.2Z" transform="translate(-116.627 -280.226)" fill="#fff"/>
    <path id="Path_2197" data-name="Path 2197" d="M133.424,377.9a.06.06,0,1,0-.06-.06A.06.06,0,0,0,133.424,377.9Z" transform="translate(-111.573 -275.985)" fill="#fff"/>
    <path id="Path_2198" data-name="Path 2198" d="M126.236,371.231a.06.06,0,1,0-.059-.059A.059.059,0,0,0,126.236,371.231Z" transform="translate(-106.737 -271.497)" fill="#fff"/>
    <path id="Path_2199" data-name="Path 2199" d="M119.39,364.212a.06.06,0,1,0-.059-.06A.059.059,0,0,0,119.39,364.212Z" transform="translate(-102.13 -266.774)" fill="#fff"/>
    <path id="Path_2200" data-name="Path 2200" d="M112.9,356.861a.06.06,0,1,0-.06-.059A.06.06,0,0,0,112.9,356.861Z" transform="translate(-97.764 -261.828)" fill="#fff"/>
    <path id="Path_2201" data-name="Path 2201" d="M106.769,349.185a.069.069,0,1,0-.069-.069A.069.069,0,0,0,106.769,349.185Z" transform="translate(-93.631 -256.649)" fill="#fff"/>
    <path id="Path_2202" data-name="Path 2202" d="M101.066,341.235a.059.059,0,1,0-.06-.06A.059.059,0,0,0,101.066,341.235Z" transform="translate(-89.799 -251.313)" fill="#fff"/>
    <path id="Path_2203" data-name="Path 2203" d="M95.747,333a.06.06,0,1,0-.06-.06A.06.06,0,0,0,95.747,333Z" transform="translate(-86.22 -245.771)" fill="#fff"/>
    <path id="Path_2204" data-name="Path 2204" d="M90.845,324.507a.06.06,0,1,0-.06-.06A.059.059,0,0,0,90.845,324.507Z" transform="translate(-82.922 -240.057)" fill="#fff"/>
    <path id="Path_2205" data-name="Path 2205" d="M86.35,315.772a.069.069,0,1,0-.069-.069A.069.069,0,0,0,86.35,315.772Z" transform="translate(-79.891 -234.166)" fill="#fff"/>
    <path id="Path_2206" data-name="Path 2206" d="M82.318,306.835a.069.069,0,1,0-.069-.069A.069.069,0,0,0,82.318,306.835Z" transform="translate(-77.178 -228.153)" fill="#fff"/>
    <path id="Path_2207" data-name="Path 2207" d="M78.736,297.708a.069.069,0,1,0-.069-.069A.069.069,0,0,0,78.736,297.708Z" transform="translate(-74.768 -222.011)" fill="#fff"/>
    <path id="Path_2208" data-name="Path 2208" d="M75.613,288.414a.069.069,0,1,0-.069-.069A.069.069,0,0,0,75.613,288.414Z" transform="translate(-72.666 -215.757)" fill="#fff"/>
    <path id="Path_2209" data-name="Path 2209" d="M72.938,278.965a.079.079,0,1,0-.079-.079A.079.079,0,0,0,72.938,278.965Z" transform="translate(-70.859 -209.387)" fill="#fff"/>
    <ellipse id="Ellipse_423" data-name="Ellipse 423" cx="0.079" cy="0.079" rx="0.079" ry="0.079" transform="translate(1.285 66.294)" fill="#fff"/>
    <path id="Path_2210" data-name="Path 2210" d="M69.053,259.75a.079.079,0,1,0-.079-.079A.079.079,0,0,0,69.053,259.75Z" transform="translate(-68.246 -196.457)" fill="#fff"/>
    <ellipse id="Ellipse_424" data-name="Ellipse 424" cx="0.079" cy="0.079" rx="0.079" ry="0.079" transform="translate(0.33 59.953)" fill="#fff"/>
    <path id="Path_2211" data-name="Path 2211" d="M67.081,240.234a.089.089,0,1,0-.089-.089A.089.089,0,0,0,67.081,240.234Z" transform="translate(-66.912 -183.311)" fill="#fff"/>
    <path id="Path_2212" data-name="Path 2212" d="M66.836,230.432a.089.089,0,1,0-.089-.089A.089.089,0,0,0,66.836,230.432Z" transform="translate(-66.747 -176.716)" fill="#fff"/>
    <path id="Path_2213" data-name="Path 2213" d="M67.081,220.631a.089.089,0,1,0-.089-.089A.089.089,0,0,0,67.081,220.631Z" transform="translate(-66.912 -170.12)" fill="#fff"/>
    <path id="Path_2214" data-name="Path 2214" d="M67.814,210.854a.089.089,0,1,0-.089-.089A.089.089,0,0,0,67.814,210.854Z" transform="translate(-67.405 -163.541)" fill="#fff"/>
    <path id="Path_2215" data-name="Path 2215" d="M69.033,201.125a.089.089,0,1,0-.089-.089A.089.089,0,0,0,69.033,201.125Z" transform="translate(-68.225 -156.996)" fill="#fff"/>
    <path id="Path_2216" data-name="Path 2216" d="M70.756,191.48a.079.079,0,1,0-.079-.08A.079.079,0,0,0,70.756,191.48Z" transform="translate(-69.391 -150.518)" fill="#fff"/>
    <path id="Path_2217" data-name="Path 2217" d="M72.938,181.921a.079.079,0,1,0-.079-.079A.079.079,0,0,0,72.938,181.921Z" transform="translate(-70.859 -144.086)" fill="#fff"/>
    <path id="Path_2218" data-name="Path 2218" d="M75.613,172.493a.069.069,0,1,0-.069-.069A.069.069,0,0,0,75.613,172.493Z" transform="translate(-72.666 -137.756)" fill="#fff"/>
    <path id="Path_2219" data-name="Path 2219" d="M78.736,163.2a.069.069,0,1,0-.069-.069A.069.069,0,0,0,78.736,163.2Z" transform="translate(-74.768 -131.502)" fill="#fff"/>
    <path id="Path_2220" data-name="Path 2220" d="M82.339,154.082a.06.06,0,1,0-.06-.06A.06.06,0,0,0,82.339,154.082Z" transform="translate(-77.198 -125.381)" fill="#fff"/>
    <path id="Path_2221" data-name="Path 2221" d="M86.391,145.156a.05.05,0,1,0-.049-.05A.05.05,0,0,0,86.391,145.156Z" transform="translate(-79.932 -119.388)" fill="#fff"/>
    <path id="Path_2222" data-name="Path 2222" d="M90.865,136.431a.05.05,0,1,0-.05-.05A.05.05,0,0,0,90.865,136.431Z" transform="translate(-82.942 -113.517)" fill="#fff"/>
    <path id="Path_2223" data-name="Path 2223" d="M95.788,127.95a.04.04,0,1,0-.04-.04A.04.04,0,0,0,95.788,127.95Z" transform="translate(-86.261 -107.824)" fill="#fff"/>
    <path id="Path_2224" data-name="Path 2224" d="M101.127,119.725a.03.03,0,1,0-.03-.03A.03.03,0,0,0,101.127,119.725Z" transform="translate(-89.861 -102.302)" fill="#fff"/>
    <ellipse id="Ellipse_425" data-name="Ellipse 425" cx="0.02" cy="0.02" rx="0.02" ry="0.02" transform="translate(13.119 14.769)" fill="#fff"/>
    <path id="Path_2225" data-name="Path 2225" d="M112.984,104.109a.02.02,0,1,0-.02-.02A.02.02,0,0,0,112.984,104.109Z" transform="translate(-97.846 -91.808)" fill="#fff"/>
    <path id="Path_2226" data-name="Path 2226" d="M119.492,96.768a.01.01,0,1,0-.01-.01A.01.01,0,0,0,119.492,96.768Z" transform="translate(-102.232 -86.882)" fill="#fff"/>
    <path id="Path_2227" data-name="Path 2227" d="M126.338,89.749a.01.01,0,1,0,0-.02.01.01,0,0,0,0,.02Z" transform="translate(-106.838 -82.159)" fill="#fff"/>
    <path id="Path_2228" data-name="Path 2228" d="M133.525,83.08a.01.01,0,0,0,0-.02.01.01,0,1,0,0,.02Z" transform="translate(-111.674 -77.671)" fill="#fff"/>
  </g>
</svg>
