<svg xmlns="http://www.w3.org/2000/svg" width="13.725" height="23.114" viewBox="0 0 13.725 23.114">
  <g id="Group_7157" data-name="Group 7157" transform="translate(-944.999 -995.887)">
    <path id="Path_64633" data-name="Path 64633" d="M22.028,220.537H1.083a1.083,1.083,0,0,1,0-2.167H22.028a1.083,1.083,0,1,1,0,2.167" transform="translate(1171.313 995.887) rotate(90)" fill="#fff"/>
    <path id="Path_64634" data-name="Path 64634" d="M224.783,146.84a1.084,1.084,0,0,1-.766-1.85l5.012-5.012-5.012-5.012a1.084,1.084,0,1,1,1.533-1.533l5.778,5.778a1.083,1.083,0,0,1,0,1.532l-5.778,5.778a1.075,1.075,0,0,1-.767.319" transform="translate(1091.839 787.355) rotate(90)" fill="#fff"/>
  </g>
</svg>
