<svg xmlns="http://www.w3.org/2000/svg" width="30.731" height="16.206" viewBox="0 0 30.731 16.206">
  <g id="eye" transform="translate(0 -121)">
    <g id="Group_7146" data-name="Group 7146" transform="translate(-0.001 121)">
      <g id="Group_7145" data-name="Group 7145" transform="translate(0 0)">
        <path id="Path_69341" data-name="Path 69341" d="M30.5,128.5c-.274-.306-6.872-7.5-15.136-7.5S.5,128.2.229,128.5a.9.9,0,0,0,0,1.2c.274.306,6.872,7.5,15.136,7.5s14.862-7.2,15.136-7.5A.9.9,0,0,0,30.5,128.5Zm-15.136,6.9a6.3,6.3,0,1,1,6.3-6.3A6.31,6.31,0,0,1,15.365,135.405Z" transform="translate(0.001 -121)" fill="#fff"/>
      </g>
    </g>
    <g id="Group_7148" data-name="Group 7148" transform="translate(10.863 124.601)">
      <g id="Group_7147" data-name="Group 7147" transform="translate(0 0)">
        <path id="Path_69342" data-name="Path 69342" d="M186.4,183.7a2.692,2.692,0,0,1,1.134-2.193A4.443,4.443,0,0,0,185.5,181a4.5,4.5,0,1,0,4.425,5.26A2.685,2.685,0,0,1,186.4,183.7Z" transform="translate(-181 -181)" fill="#fff"/>
      </g>
    </g>
  </g>
</svg>
