<svg xmlns="http://www.w3.org/2000/svg" width="25.443" height="25.443" viewBox="0 0 25.443 25.443">
  <g id="Group_1737" data-name="Group 1737" transform="translate(-10.286 -11.209)">
    <g id="Instagram" transform="translate(10.286 11.209)">
      <path id="Path_3" data-name="Path 3" d="M12.721,2.262A39.007,39.007,0,0,1,17.81,2.4a6.556,6.556,0,0,1,2.4.424,4.964,4.964,0,0,1,2.4,2.4,6.556,6.556,0,0,1,.424,2.4c0,1.272.141,1.7.141,5.089a39.007,39.007,0,0,1-.141,5.089,6.556,6.556,0,0,1-.424,2.4,4.964,4.964,0,0,1-2.4,2.4,6.556,6.556,0,0,1-2.4.424c-1.272,0-1.7.141-5.089.141a39.007,39.007,0,0,1-5.089-.141,6.556,6.556,0,0,1-2.4-.424,4.964,4.964,0,0,1-2.4-2.4,6.556,6.556,0,0,1-.424-2.4c0-1.272-.141-1.7-.141-5.089A39.007,39.007,0,0,1,2.4,7.633a6.556,6.556,0,0,1,.424-2.4,5.077,5.077,0,0,1,.989-1.414A2.39,2.39,0,0,1,5.23,2.827a6.556,6.556,0,0,1,2.4-.424,39.007,39.007,0,0,1,5.089-.141m0-2.262a41.765,41.765,0,0,0-5.23.141,8.726,8.726,0,0,0-3.11.565A5.533,5.533,0,0,0,2.12,2.12,5.533,5.533,0,0,0,.707,4.382a6.44,6.44,0,0,0-.565,3.11A41.765,41.765,0,0,0,0,12.721a41.765,41.765,0,0,0,.141,5.23,8.726,8.726,0,0,0,.565,3.11A5.533,5.533,0,0,0,2.12,23.323a5.533,5.533,0,0,0,2.262,1.414,8.726,8.726,0,0,0,3.11.565,41.764,41.764,0,0,0,5.23.141,41.764,41.764,0,0,0,5.23-.141,8.726,8.726,0,0,0,3.11-.565,5.93,5.93,0,0,0,3.675-3.675,8.726,8.726,0,0,0,.565-3.11c0-1.413.141-1.838.141-5.23a41.764,41.764,0,0,0-.141-5.23,8.726,8.726,0,0,0-.565-3.11A5.533,5.533,0,0,0,23.323,2.12,5.533,5.533,0,0,0,21.061.707a8.726,8.726,0,0,0-3.11-.565A41.765,41.765,0,0,0,12.721,0m0,6.219a6.4,6.4,0,0,0-6.5,6.5,6.5,6.5,0,1,0,6.5-6.5m0,10.743a4.165,4.165,0,0,1-4.24-4.241,4.165,4.165,0,0,1,4.24-4.24,4.165,4.165,0,0,1,4.241,4.24,4.165,4.165,0,0,1-4.241,4.241m6.785-12.58a1.555,1.555,0,1,0,1.555,1.555,1.569,1.569,0,0,0-1.555-1.555" fill="#fff" fill-rule="evenodd"/>
    </g>
  </g>
</svg>
