<svg id="Group_2244" data-name="Group 2244" xmlns="http://www.w3.org/2000/svg" width="23.52" height="32.472" viewBox="0 0 23.52 32.472">
  <g id="Group_2241" data-name="Group 2241" transform="translate(0)">
    <g id="Group_2240" data-name="Group 2240" transform="translate(0)">
      <path id="Path_1696" data-name="Path 1696" d="M82.333,0a11.773,11.773,0,0,0-11.76,11.76c0,8.047,10.524,19.862,10.972,20.361a1.059,1.059,0,0,0,1.576,0c.448-.5,10.972-12.313,10.972-20.361A11.774,11.774,0,0,0,82.333,0Zm0,29.791c-3.542-4.207-9.642-12.508-9.642-18.031a9.642,9.642,0,0,1,19.285,0C91.975,17.283,85.876,25.582,82.333,29.791Z" transform="translate(-70.573)" fill="#fff"/>
    </g>
  </g>
  <g id="Group_2243" data-name="Group 2243" transform="translate(5.843 5.843)">
    <g id="Group_2242" data-name="Group 2242" transform="translate(0)">
      <path id="Path_1697" data-name="Path 1697" d="M168.623,92.134a5.917,5.917,0,1,0,5.917,5.917A5.922,5.922,0,0,0,168.623,92.134Zm0,9.716a3.8,3.8,0,1,1,3.8-3.8A3.8,3.8,0,0,1,168.623,101.849Z" transform="translate(-162.709 -92.134)" fill="#fff"/>
    </g>
  </g>
</svg>
