<svg xmlns="http://www.w3.org/2000/svg" width="228" height="53.622" viewBox="0 0 228 53.622">
  <g id="Group_7153" data-name="Group 7153" transform="translate(-1136.277 -1558.075)">
    <g id="Group_7151" data-name="Group 7151" transform="translate(1136.277 1558.075)">
      <g id="Group_7150" data-name="Group 7150" transform="translate(0 0)">
        <path id="Path_69345" data-name="Path 69345" d="M1479.094,1595.075l-16.265.14,5.618,12.221,15.915-.328-2.532-5.782h-7.121l7.046-.171-1.266-2.894h-9.743l9.642-.234Z" transform="translate(-1451.999 -1595.075)" fill="#be1522" fill-rule="evenodd"/>
        <path id="Path_69346" data-name="Path 69346" d="M2228.206,1595.075l-16.267.141,1.108,2.411,16.1-.389-.946-2.162Zm-14.866,3.187,1.144,2.492,16.035-.388-.92-2.1Zm1.408,3.065,2.809,6.11,15.915-.328-2.531-5.782Z" transform="translate(-2168.068 -1595.075)" fill="#be1522" fill-rule="evenodd"/>
        <path id="Path_69347" data-name="Path 69347" d="M2979.72,1595.075l-16.267.141.744,1.618,16.12-.39-.6-1.369Zm-14.867,3.187.782,1.7,16.053-.389-.574-1.309Zm1.41,3.065,1.173,2.553h16.137l-1.118-2.553Zm1.782,3.877,1.027,2.233,15.914-.328-.754-1.724Z" transform="translate(-2886.435 -1595.075)" fill="#be1522" fill-rule="evenodd"/>
        <path id="Path_69348" data-name="Path 69348" d="M1233.542,1861.841l-16.265.14,5.618,12.221,15.914-.328Z" transform="translate(-1217.277 -1850.075)" fill="#be1522" fill-rule="evenodd"/>
        <path id="Path_69349" data-name="Path 69349" d="M1982.652,1861.841l-16.265.14L1972,1874.2l15.915-.328-2.624-5.994-14.164-.73h13.844Z" transform="translate(-1933.346 -1850.075)" fill="#be1522" fill-rule="evenodd"/>
        <path id="Path_69350" data-name="Path 69350" d="M2742.651,1861.841l-15.835.115,2.187,5.9h16.282l-2.634-6.018Zm-15.835.115h-.039l0,0,.037-.005Zm4.521,12.212,16.58-.292-1.99-4.547-16.434-.143Z" transform="translate(-2660.198 -1850.075)" fill="#be1522" fill-rule="evenodd"/>
        <path id="Path_69351" data-name="Path 69351" d="M1734.694,2130.882l-16.266.141,5.62,12.222,15.914-.328Z" transform="translate(-1696.324 -2107.249)" fill="#be1522" fill-rule="evenodd"/>
        <path id="Path_69352" data-name="Path 69352" d="M3235.32,2130.882l-16.266.141,2.264,4.926h16.219l-2.217-5.066Zm-13.409,6.357,2.762,6.005,15.914-.328-2.4-5.494Z" transform="translate(-3130.762 -2107.25)" fill="#be1522" fill-rule="evenodd"/>
        <path id="Path_69353" data-name="Path 69353" d="M1486.735,2410.473l-16.267.141,5.62,12.222,15.293-.315v-.476c0-.273.007-.577.024-.9Z" transform="translate(-1459.302 -2374.509)" fill="#be1522" fill-rule="evenodd"/>
        <path id="Path_69354" data-name="Path 69354" d="M3023.409,2410.473l-14.5.126c-.023.247-.077.661-.1,1.079l1.927.044h.25l0,.009a3.224,3.224,0,0,1,2.7,1.791,6.054,6.054,0,0,1,.406.858c.024-.015.05-.03.076-.044l-.2-.391,1.683.009-.064-.116,3.176.134c3.484.147,4.163,5.382,4.163,8.071v.524l2.551-.044,3.2-.017Z" transform="translate(-2929.788 -2374.509)" fill="#be1522" fill-rule="evenodd"/>
        <path id="Path_69355" data-name="Path 69355" d="M2015.973,2025.82l.049-.028c-.017.009-.034.019-.049.028Zm20.438,3.463-3.469.247.061-.294-3.86-.052.4,1.007,20.7-.721-13.833-.188Zm9.635-11.876-.229,2.3.037,0v-.006h.621c.493,0,.76.632.879,1.033a3.69,3.69,0,0,1,.155.744h0a4.468,4.468,0,0,1,.018.454v.014h0c0,.434-.057.527.25.83.232-.331.4-.924.9-.924s.526,1.283.526,1.865v.572l.538-.082.036-.394v-.86c0-.458-.357-1.962-.717-1.962h-.019c.116-.166,1.266-.105,1.547-.1a18.2,18.2,0,0,1,1.1,3.026,25.757,25.757,0,0,0-.356-3.023l.787,0a12.89,12.89,0,0,1,1.316,2.489,14.782,14.782,0,0,0-.45-2.484,1.539,1.539,0,0,1,1.422.955,7.221,7.221,0,0,1,.618,1.724l1.7.112a.5.5,0,0,1,.119-.114,2.164,2.164,0,0,1,.761-.431.177.177,0,0,1,.109.045l.4-.025a26.67,26.67,0,0,1,2.574,4.686,16.715,16.715,0,0,0-1.626-4.716l.685,0a13.193,13.193,0,0,1,2.385,4.846,10.013,10.013,0,0,0-1.22-4.838c1.912.08,2.477,4.122,2.477,6.311v.431a7.169,7.169,0,0,1-.605,3.125,4.763,4.763,0,0,1-.77,1.1c-.354.356-.86.323-1.541.323l-2.934.019c-.512.05-1-.218-1.1-1.492-4.315.843-30.474,1.793-32.238.041-.009.025,0,.042.047.045a3.448,3.448,0,0,1-1.032,1.885,2.919,2.919,0,0,1-2.314.6l-.287.011c-1.238-.054-1.681-.009-2.227-.758a9.892,9.892,0,0,0-1.929-1.927,4.02,4.02,0,0,0-.588-.366l-1.983.121a1.068,1.068,0,0,1-.513.759,1.718,1.718,0,0,1-1.2.263l-2.578-.036c-1.144-.016-1.062.133-1.818-1.1a6.93,6.93,0,0,1-.771-2.615c-.314-2.624-.242-5.372.705-6.954a2.484,2.484,0,0,1,.728-.83,2.989,2.989,0,0,1,.631-.092l1.884,3.594-1.12-3.6.551-.014,1.813,3.586-1.024-3.581.654,0,1.454,3.573a22.988,22.988,0,0,0-.466-3.552,1.177,1.177,0,0,1,.946.827l9.154-1.1c-.348-.245-.673-.507-.724-.7l-.573-.622c-.217-.323-.767-.961-1.106-1.523a2.338,2.338,0,0,1-.317-1.537c.04-.22.09-.405.122-.633.075-.428.1-.775.163-1.223a1.877,1.877,0,0,1,1.262-1.511c.915-.366,2.6-1.845,3.651-1.845h.145a3.982,3.982,0,0,1,1.2.237,5.347,5.347,0,0,1,.465-2.225,7.8,7.8,0,0,0,5.178,3.334l-1.057.853c-.1.078-.212.194-.327.308a.943.943,0,0,1,.465.027l.228.071.066.271c-.251.269-.148.194-.493.3-.067.013-.456.108-.482.1a.787.787,0,0,1-.25-.121,9.075,9.075,0,0,1,.274,1.187.469.469,0,0,1-.287.24h-.24c-.253,0-.287-.982-.287-1.291a1.285,1.285,0,0,1,.006-.13,1.172,1.172,0,0,1-.209.053v.742a3,3,0,0,0,.347,1.066.4.4,0,0,1-.152.555c-.054-.1-.1-.2-.152-.3-.257-.546-.433-1.076-.711-1.6l-.044-.022.242-.5-.025-.014a3.266,3.266,0,0,0-.252.564,6.633,6.633,0,0,0-5.27.7,5.954,5.954,0,0,1,5.019.219v.115c.125.356.293.837.526.956v.239a3.56,3.56,0,0,0,.378,1.432,7.177,7.177,0,0,0,.965,1.114c.138.115.277.236.429.353a5.672,5.672,0,0,0,3.385.926h.063a11.637,11.637,0,0,0-.533-1.332c-.452,0-1.867-.47-1.867-.82,0-.262.962-.548,1.209-.548-.1-.2-.189-.4-.277-.609-.572.029-1.567.057-1.794.057a.3.3,0,0,1-.334-.335c0-.645.42-.67,1.051-.67h.049a4.346,4.346,0,0,1,.739.1c.153-.292.249-.5.354-.7-.426-.034-1.379-.186-1.379-.4,1-3.291,7.666-3.467,9.579-2.076a2.579,2.579,0,0,1,1.312,1.661c-.1.124-.41.195-.445.12l-.021-.042c-2.155-.084-4.295.121-6.451.118-1.491.161-1.716.75-1.755,1.24a9.736,9.736,0,0,0,.8,3.674c.452,1.237.975.571,1.861,1.187a2.606,2.606,0,0,1,1.014.9c.056.09.173.317.287.561h5.437v-.647c0-.62.916-.961,1.144-1.562a26.189,26.189,0,0,0-.522-3.173,1.783,1.783,0,0,0,.191-.526v-.12l.05,0a.982.982,0,0,0,.591-.353.921.921,0,0,0,.283-.569v-.67a.982.982,0,0,0-.275-.786l-.053-.039a1.552,1.552,0,0,0-.774-.731.834.834,0,0,1,.01.148v.191a1.259,1.259,0,0,1-1.1,1.1c-.135,0-.287-.2-.287-.334,0-.037.614-.617.717-.813l-.1-.478.013-.016a6.136,6.136,0,0,0-.427-.586,2.469,2.469,0,0,0-.912-.713,6.482,6.482,0,0,0-2.518-.685,4.854,4.854,0,0,1,1.385-.383h.86c1.4,0,2.039,1.278,2.669,2.112.311.413.668.989.945,1.446.211.346.839,1.123.784,1.607Zm-1.4,4.622-.079.528a.821.821,0,0,0,.036-.246l.049,0,.053-.173-.059-.112Zm.254-5.662a.813.813,0,0,0-.191-.622c0,.719.009,1.861-.622,1.914.056.075.009.1.143.1a1.012,1.012,0,0,0,.67-.717v-.67Zm-15.3,1.422a5.706,5.706,0,0,1-.621-1.721c-.278.2-.152,1.721.478,1.721Zm14.838-1.841a1.084,1.084,0,0,0-.286-.908.705.705,0,0,1,.047.239c0,.648-.67,1.2-.67,1.387v.287c0,.274.06.384.24.478a.566.566,0,0,0,.525-.574,8.053,8.053,0,0,0,.144-.909Zm-5.47-5.713v-.768c-.118.031-.561.28-.734.365a3.725,3.725,0,0,1-.814.286,7.011,7.011,0,0,1-5.066-.393c-1.682-.682-2.18-1.326-2.18-3.223v-.43h1.673a26.952,26.952,0,0,0,3.526-.25c.977-.155,2.26-.294,3.212-.516a3.524,3.524,0,0,0-.03-.5c-5.906.742-10.119.561-9.728-1.909.247,1.9,4.993,2.125,9.559,1.3-.039-.152-.077-.3-.118-.439-5.326.582-9,.277-8.635-2.037.226,1.749,4.257,2.078,8.454,1.479a4.087,4.087,0,0,0-1.083-1.669,6.387,6.387,0,0,0-8.492-.277c-2.565,2.144-2.263,4.338-1.587,7.445a3.721,3.721,0,0,0,.954,1.916,18.549,18.549,0,0,0,3.808,2.263c.832.359.977.465,1.817.113a15.9,15.9,0,0,1,4.507-.367c.5-.332.85-.571.936-1.242-6.121,1.553-9.728-.282-10.129-3.743,2.076,4.477,6.216,4.3,10.149,2.6Zm-14.5,21.163c.179-.679.3-1.193.037-.407a16.808,16.808,0,0,0-.59-6.016c-1.064-1.1-1.464-1.4-4.231-1.079-1.19.135-1.491,1-2.124,1.9,3.122-3.247,3.407,1.047,4.12,3.144l.151-3.574,1.226,3.34-.017-2.736.026.054h0l.026.055h0l.026.055.027.057a15.711,15.711,0,0,1,1.344,4.893c-.009.111-.016.215-.02.314Zm-16.827-5.584c.156-.609.469-1.169,1.071-1.159-.092-.374-.76-.21-1.19.457-.736,1.144-.5,4.3.047,5.493.71,1.552,2.058.838,1.754-1.02a2.517,2.517,0,0,1-.261.875c-.489.792-1.009.1-1.164-.466-.112-.407-.2-.915-.285-1.4a6.7,6.7,0,0,1,.029-2.785Zm2.036.985-.042.22.057.168-.016-.388Zm5.019.511a10.792,10.792,0,0,1,1.356-1.153,9.965,9.965,0,0,1,1.25-.619c-.017.033-.033.066-.049.1a10.168,10.168,0,0,0-.34,6.413.806.806,0,0,0-.12-.009c-2.164,0-4.418.159-6.6.24h-.234a.069.069,0,0,1-.04-.009c-.168-.093-.222-.7-.234-.865,0,0,4.465-.744,5.189-.819l-5.2-.319v.195c0-.224,0-.448.007-.673l5.341-.462-5.3-.342c0-.1-.009.1,0,0a6.41,6.41,0,0,1,.129-.965,1.506,1.506,0,0,1,.155-.43h0a2.206,2.206,0,0,1,.2.128,3.539,3.539,0,0,0,.324.216l0,0,.265.133h.339l.409-.052.343-.049.216-.043h.325l1.311.187.684-.59c.057-.04.113-.08.168-.122.066-.01.113-.032.113-.092Zm5.151,4.788a1.334,1.334,0,0,1-1.966-.757c-.48-1.088-.635-4.685,1.038-5.019-1.953-.639-1.854,2.505-1.887,3.355a4.2,4.2,0,0,0,.585,2.686,1.206,1.206,0,0,0,2.23-.265Zm29.779-1.033c6.341-.28,5.175-1.45,6.5-2.544l-.011,2.481-6.486.062Zm-14.98.774.4,1.008,19.276-.4-19.679-.6Zm-6.691-11.466.558-2.424-1.814,2.065.455-2.417-2.367,2.77,1.224-3.628-2.734,2.655-2.607-.752,2.138,2.025,1.843.4,3.119-.6.186-.094Zm6.005.1.043.094-.043-.094Zm14.851,6.535a1.776,1.776,0,0,0,.96-1.511l-13.764.181.495.894a2,2,0,0,0,1.675.865c2.564-.046,6.675.342,9.118-.048l.03-.005.03-.005h.01l.019,0,.029-.005.02,0,.009,0,.057-.01h0l.053-.009h0l.012,0,.016,0,.029,0,.02,0h.007l.054-.01h0l.023,0,.027-.005.013,0,.013,0,.027-.005.021,0h0l.026,0,.026-.005h0l.021,0,.026,0,.021-.005h0l.026-.005.022,0h.006l.039-.008.024-.005.042-.009h0l.01,0,.024,0,.006,0,.027-.006.034-.009.017,0,.032-.008.021-.006.023-.006.009,0,.023-.007.033-.009.02-.006h0l.021-.006h0l.021-.007.03-.009.02-.007.033-.011.014-.005h0l.02-.007h0l.02-.007.026-.01.021-.007.029-.011.014-.006h0l.02-.008h0l.02-.008.025-.01.021-.01.006,0,.017-.009.019-.009Zm-24.784-13.674c-1.355.984-2.883,2.643-3.135,3.774a14.93,14.93,0,0,1,5.455-1.863l-2.819.252,2.181-1.041-.486-.453,1.661-.537A2.205,2.205,0,0,0,2024.027,2013.336Z" transform="translate(-1972.016 -1981.922)" fill="#fff" fill-rule="evenodd"/>
        <path id="Path_69356" data-name="Path 69356" d="M3040.974,2470.561a.974.974,0,0,1-.047-.239v-.095c0-.159.086-.14.24-.144v.478Z" transform="translate(-2960.492 -2431.489)" fill="#fff" fill-rule="evenodd"/>
        <path id="Path_69357" data-name="Path 69357" d="M2651.269,2391.683a42.415,42.415,0,0,0-6.3.379c-.618.294-.394.733-.206,1.733l.194,1.034c.29,1.538.043.879,1.326,1.39a3.275,3.275,0,0,1,1.407,1.041c.949,1.218.641.8,1.7.835l1.9-.035c1.092-.02,1.266-.468,1.686-1.2.669-1.173.516-.817.2-2.206l-.346-1.536C2652.69,2392.385,2652.406,2391.656,2651.269,2391.683Z" transform="translate(-2581.613 -2356.547)" fill="#fff" fill-rule="evenodd"/>
      </g>
    </g>
    <g id="Group_7152" data-name="Group 7152" transform="translate(1258.63 1571.307)">
      <path id="Path_69358" data-name="Path 69358" d="M1378.478,2946.74v-13.056h3.811v4.6l3.954-4.6h4.338l-4.6,5.352,4.927,7.7h-4.055l-3.224-5.271-1.338,1.5v3.771Z" transform="translate(-1378.457 -2933.684)" fill="#fff"/>
      <path id="Path_69359" data-name="Path 69359" d="M1662.533,2946.74l5.008-13.056h4.034l5.008,13.056h-3.974l-1.095-2.778h-3.933l-1.075,2.778Zm5.555-5.515h2.92l-1.459-3.832Z" transform="translate(-1649.984 -2933.684)" fill="#fff"/>
      <path id="Path_69360" data-name="Path 69360" d="M2013.266,2946.74v-13.056h6.792a5.225,5.225,0,0,1,2.625.588,3.716,3.716,0,0,1,1.531,1.632,5.494,5.494,0,0,1,.507,2.423,4.137,4.137,0,0,1-.658,2.322,4.273,4.273,0,0,1-1.754,1.53,1.869,1.869,0,0,1,.385.436,5.78,5.78,0,0,1,.365.7l1.5,3.426h-3.974l-1.379-3.142a1.157,1.157,0,0,0-.4-.517,1.2,1.2,0,0,0-.658-.152h-1.075v3.811Zm3.811-6.731h2.007a1.786,1.786,0,0,0,1.288-.437,1.644,1.644,0,0,0,.456-1.246q0-1.723-1.622-1.723h-2.129Z" transform="translate(-1985.247 -2933.684)" fill="#fff"/>
      <path id="Path_69361" data-name="Path 69361" d="M2290.441,2946.74v-10.218h-3.669v-2.839h11.151v2.839h-3.67v10.218Z" transform="translate(-2246.689 -2933.684)" fill="#fff"/>
      <path id="Path_69362" data-name="Path 69362" d="M2562.56,2946.74v-13.056h7.177a4.369,4.369,0,0,1,3.021.933,3.42,3.42,0,0,1,1.034,2.676,3.528,3.528,0,0,1-.375,1.7,3.025,3.025,0,0,1-.983,1.095,3.11,3.11,0,0,1,1.328.943,2.885,2.885,0,0,1,.5,1.835,3.633,3.633,0,0,1-1.135,2.858,4.678,4.678,0,0,1-3.224,1.014Zm3.669-7.846h2.473q1.4,0,1.4-1.257a1.27,1.27,0,0,0-.334-.953,1.659,1.659,0,0,0-1.166-.324h-2.373Zm0,5.191h2.636a1.671,1.671,0,0,0,1.135-.325,1.374,1.374,0,0,0,.365-1.074,1.207,1.207,0,0,0-.365-.953,1.819,1.819,0,0,0-1.216-.324h-2.555Z" transform="translate(-2510.314 -2933.684)" fill="#fff"/>
      <path id="Path_69363" data-name="Path 69363" d="M2834.662,2946.74l5.008-13.056h4.034l5.008,13.056h-3.974l-1.095-2.778h-3.933l-1.075,2.778Zm5.555-5.515h2.92l-1.459-3.832Z" transform="translate(-2770.414 -2933.684)" fill="#fff"/>
      <path id="Path_69364" data-name="Path 69364" d="M3185.4,2946.74v-13.056h3.811v4.865h4.5v-4.865h3.811v13.056h-3.811v-4.865h-4.5v4.865Z" transform="translate(-3105.678 -2933.684)" fill="#fff"/>
      <path id="Path_69365" data-name="Path 69365" d="M3501.64,2946.74v-13.056h3.244l4.927,6.913v-6.913h3.812v13.056h-3.264l-4.907-6.893v6.893Z" transform="translate(-3407.974 -2933.684)" fill="#fff"/>
      <path id="Path_69366" data-name="Path 69366" d="M1380.007,3298.361l-2-8.575h1.425l1.451,6.431,1.624-5.392v-1.039h1.185l1.824,6.431,1.478-6.431h1.411l-1.984,8.575H1385l-1.718-6-1.824,6Z" transform="translate(-1378.01 -3274.08)" fill="#fff"/>
      <path id="Path_69367" data-name="Path 69367" d="M1630.308,3347.549a2.307,2.307,0,0,1-1.738-.626,2.54,2.54,0,0,1-.606-1.838V3341.1h1.451v3.981a1.383,1.383,0,0,0,.346,1.039,1.487,1.487,0,0,0,1.065.333,2.413,2.413,0,0,0,.985-.2,2.562,2.562,0,0,0,.786-.532V3341.1h1.438v6.311h-1.318l-.067-.652a3.906,3.906,0,0,1-1.012.559A3.679,3.679,0,0,1,1630.308,3347.549Z" transform="translate(-1616.94 -3323.135)" fill="#fff"/>
      <path id="Path_69368" data-name="Path 69368" d="M1803.948,3347.4v-9.187h1.251l.08.626a2.855,2.855,0,0,1,.932-.573,3.475,3.475,0,0,1,1.2-.186,2.908,2.908,0,0,1,2.117.739,3.308,3.308,0,0,1,.758,2.443,3.63,3.63,0,0,1-.785,2.55,2.78,2.78,0,0,1-2.143.846,3.489,3.489,0,0,1-1.957-.532v3.275Zm3.036-3.834q1.837,0,1.837-2.317a2.418,2.418,0,0,0-.413-1.591,1.758,1.758,0,0,0-1.385-.473,2.182,2.182,0,0,0-1.624.666v3.155a2.581,2.581,0,0,0,.686.406A2.4,2.4,0,0,0,1806.984,3343.57Z" transform="translate(-1785.161 -3320.248)" fill="#fff"/>
      <path id="Path_69369" data-name="Path 69369" d="M1979.649,3347.4v-9.187h1.251l.08.626a2.853,2.853,0,0,1,.932-.573,3.474,3.474,0,0,1,1.2-.186,2.909,2.909,0,0,1,2.117.739,3.308,3.308,0,0,1,.758,2.443,3.63,3.63,0,0,1-.786,2.55,2.78,2.78,0,0,1-2.143.846,3.489,3.489,0,0,1-1.957-.532v3.275Zm3.036-3.834q1.837,0,1.837-2.317a2.418,2.418,0,0,0-.413-1.591,1.758,1.758,0,0,0-1.385-.473,2.182,2.182,0,0,0-1.624.666v3.155a2.585,2.585,0,0,0,.686.406A2.4,2.4,0,0,0,1982.685,3343.57Z" transform="translate(-1953.113 -3320.248)" fill="#fff"/>
      <path id="Path_69370" data-name="Path 69370" d="M2152.756,3344.662a3.7,3.7,0,0,1-2.557-.812,3.18,3.18,0,0,1-.905-2.49,3.506,3.506,0,0,1,.772-2.4,2.957,2.957,0,0,1,2.344-.879,2.873,2.873,0,0,1,2.163.752,2.675,2.675,0,0,1,.726,1.937v1.171h-4.62a1.6,1.6,0,0,0,.665,1.265,3.312,3.312,0,0,0,1.7.346,5.427,5.427,0,0,0,.985-.093,4.837,4.837,0,0,0,.879-.24v1.065a4.218,4.218,0,0,1-.979.28A7.165,7.165,0,0,1,2152.756,3344.662Zm-2.077-3.662h3.342v-.439a1.393,1.393,0,0,0-.359-1.019,1.657,1.657,0,0,0-1.212-.366,1.783,1.783,0,0,0-1.391.439A2.091,2.091,0,0,0,2150.679,3341Z" transform="translate(-2115.275 -3320.248)" fill="#fff"/>
      <path id="Path_69371" data-name="Path 69371" d="M2317.441,3344.529v-6.311h1.332l.079.733a5.8,5.8,0,0,1,1.079-.533,5.979,5.979,0,0,1,1.239-.333v1.1a7.871,7.871,0,0,0-.805.193q-.433.127-.819.28a4.491,4.491,0,0,0-.652.313v4.554Z" transform="translate(-2276.006 -3320.248)" fill="#fff"/>
      <path id="Path_69372" data-name="Path 69372" d="M2416.673,3306.572a1.964,1.964,0,0,1-1.512-.54,2.081,2.081,0,0,1-.5-1.471v-3.3h-.932v-1.132h.932v-1.451l1.438-.439v1.891h1.677l-.093,1.132H2416.1v3.222a.971.971,0,0,0,.253.766,1.248,1.248,0,0,0,.825.22,2.4,2.4,0,0,0,.759-.133v1.026A3.347,3.347,0,0,1,2416.673,3306.572Z" transform="translate(-2368.048 -3282.158)" fill="#fff"/>
      <path id="Path_69373" data-name="Path 69373" d="M2530.4,3344.662a2.881,2.881,0,0,1-1.112-.213,1.855,1.855,0,0,1-.819-.646,1.811,1.811,0,0,1-.306-1.073,1.859,1.859,0,0,1,.619-1.458,2.805,2.805,0,0,1,1.91-.553h2.024v-.279a1.557,1.557,0,0,0-.14-.719.83.83,0,0,0-.506-.386,3.66,3.66,0,0,0-1.072-.12,6.4,6.4,0,0,0-2.09.333v-1.079a5.117,5.117,0,0,1,1.038-.28,7.69,7.69,0,0,1,1.318-.106,3.405,3.405,0,0,1,2.11.559,2.16,2.16,0,0,1,.726,1.824v4.061h-1.239l-.093-.639a2.587,2.587,0,0,1-.952.573A4.3,4.3,0,0,1,2530.4,3344.662Zm.386-1.038a2.737,2.737,0,0,0,1.138-.22,2.15,2.15,0,0,0,.793-.592v-1.105h-2a1.409,1.409,0,0,0-.926.247.938.938,0,0,0-.286.752.774.774,0,0,0,.333.706A1.756,1.756,0,0,0,2530.785,3343.623Z" transform="translate(-2477.433 -3320.248)" fill="#fff"/>
      <path id="Path_69374" data-name="Path 69374" d="M2700.877,3289.84a1.637,1.637,0,0,1-1.171-.38,1.676,1.676,0,0,1-.4-1.258v-7.469h1.452v7.336a.721.721,0,0,0,.133.506.54.54,0,0,0,.4.133,2.3,2.3,0,0,0,.612-.08v1.052a2.416,2.416,0,0,1-.486.126A3.854,3.854,0,0,1,2700.877,3289.84Z" transform="translate(-2641.028 -3265.426)" fill="#fff"/>
    </g>
  </g>
</svg>
