<svg xmlns="http://www.w3.org/2000/svg" width="38.985" height="19.762" viewBox="0 0 38.985 19.762">
  <g id="Group_6444" data-name="Group 6444" transform="translate(-1091.001 -875)">
    <path id="Path_1689" data-name="Path 1689" d="M81.189,105.006l.043-.011.037-.009.042-.015.037-.013.038-.018.037-.018.035-.021.036-.022.036-.027.03-.023c.018-.015.036-.031.053-.047l.009-.008.009-.01c.016-.017.032-.034.047-.052s.016-.022.024-.033.017-.022.025-.034.016-.025.023-.038.013-.021.019-.033.013-.026.019-.04.011-.023.016-.035.01-.026.014-.039.01-.026.014-.039.007-.027.01-.04.007-.026.01-.04.005-.032.007-.048,0-.022,0-.034a.84.84,0,0,0,0-.084V86.105a.845.845,0,0,0-.845-.845H54.37l-.048,0-.038,0-.043.007-.04.008-.04.01-.039.012-.039.014-.036.015-.04.019-.033.018-.039.023-.031.021-.035.026-.031.026-.03.027-.032.033-.016.016-.008.01-.03.038-.021.029-.025.039-.02.032c-.007.013-.013.026-.02.039s-.012.024-.017.036-.01.026-.015.039-.01.025-.014.038-.008.026-.011.039-.007.027-.01.041,0,.026-.007.039,0,.029-.007.044,0,.025,0,.037,0,.032,0,.047,0,.009,0,.014v5.214a.845.845,0,0,0,1.691,0V87.983l7.517,6.655a.856.856,0,0,0-.112.093l-7.4,7.4V96.579a.845.845,0,0,0-1.691,0v1.033H49.178a.845.845,0,1,0,0,1.691h4.368v4.873a.845.845,0,0,0,.845.845H81.024c.028,0,.056,0,.083,0l.038-.006Zm-1.01-2.87-7.4-7.4-.015-.013L78.326,90a.845.845,0,1,0-1.094-1.289l-9.512,8.07-11.1-9.825H80.179v15.184ZM63.838,95.927a.842.842,0,0,0,.147-.2l3.162,2.8a.846.846,0,0,0,1.108.012l3.223-2.734a.849.849,0,0,0,.1.122l7.4,7.4H56.433Z" transform="translate(1048.116 789.74)" fill="#fff"/>
    <path id="Path_1690" data-name="Path 1690" d="M.845,157.367H15.124a.845.845,0,1,0,0-1.691H.845a.845.845,0,1,0,0,1.691Z" transform="translate(1091.001 727.262)" fill="#fff"/>
    <path id="Path_1691" data-name="Path 1691" d="M13.97,116.036h6.411a.845.845,0,1,0,0-1.691H13.97a.845.845,0,1,0,0,1.691Z" transform="translate(1079.356 763.935)" fill="#fff"/>
    <path id="Path_1692" data-name="Path 1692" d="M7.046,226.51H.845a.845.845,0,1,0,0,1.691h6.2a.845.845,0,1,0,0-1.691Z" transform="translate(1091.001 664.412)" fill="#fff"/>
  </g>
</svg>
