<svg id="Group_7156" data-name="Group 7156" xmlns="http://www.w3.org/2000/svg" width="31.943" height="31.943" viewBox="0 0 31.943 31.943">
  <g id="Group_7155" data-name="Group 7155">
    <path id="Path_69375" data-name="Path 69375" d="M31.008,30.072H23.49a6.582,6.582,0,1,1,6.582-6.582,1.57,1.57,0,1,1-3.14,0A3.448,3.448,0,1,0,26,25.845a3.439,3.439,0,0,0,5.948-2.356,8.456,8.456,0,0,0-10.585-8.182A9.956,9.956,0,1,0,8.477,18.844,12.986,12.986,0,0,0,0,31.008a.936.936,0,0,0,.936.936H31.008a.936.936,0,1,0,0-1.872ZM23.49,25.06a1.57,1.57,0,1,1,1.57-1.57A1.572,1.572,0,0,1,23.49,25.06ZM4.879,9.957a8.086,8.086,0,1,1,8.086,8.086A8.095,8.095,0,0,1,4.879,9.957ZM1.911,30.072A11.1,11.1,0,0,1,15.682,20.25a8.444,8.444,0,0,0,2.51,9.821Z" fill="#fff"/>
  </g>
</svg>
