<svg xmlns="http://www.w3.org/2000/svg" width="25.655" height="17.962" viewBox="0 0 25.655 17.962">
  <path id="youtube-4" d="M25.126-3.271a3.214,3.214,0,0,0-2.261-2.261c-2.008-.549-10.038-.549-10.038-.549s-8.03,0-10.038.528A3.279,3.279,0,0,0,.528-3.271,33.866,33.866,0,0,0,0,2.9,33.741,33.741,0,0,0,.528,9.07,3.214,3.214,0,0,0,2.79,11.331c2.029.549,10.038.549,10.038.549s8.03,0,10.038-.528a3.214,3.214,0,0,0,2.261-2.261,33.877,33.877,0,0,0,.528-6.171A32.147,32.147,0,0,0,25.126-3.271ZM10.27,6.745V-.947L16.948,2.9Zm0,0" transform="translate(0 6.082)" fill="#fff"/>
</svg>
