<svg id="Component_289_42" data-name="Component 289 – 42" xmlns="http://www.w3.org/2000/svg" width="16.541" height="38.594" viewBox="0 0 16.541 38.594">
  <g id="Group_178415" data-name="Group 178415" transform="translate(576.289 885.985) rotate(180)">
    <g id="Group_178416" data-name="Group 178416">
      <g id="Group_178415-2" data-name="Group 178415">
        <path id="Path_118197" data-name="Path 118197" d="M575.37,856.579a.92.92,0,0,1-.65-.269l-6.7-6.7-6.7,6.7a.919.919,0,0,1-1.3-1.3l7.351-7.351a.919.919,0,0,1,1.3,0l7.351,7.351a.918.918,0,0,1-.65,1.568Z" fill="#17244d"/>
      </g>
    </g>
    <g id="Group_178417" data-name="Group 178417">
      <path id="Path_118198" data-name="Path 118198" d="M568.019,885.985a.919.919,0,0,1-.919-.919V848.31a.919.919,0,0,1,1.838,0v36.756A.919.919,0,0,1,568.019,885.985Z" fill="#17244d"/>
    </g>
  </g>
</svg>
