<svg xmlns="http://www.w3.org/2000/svg" width="851.909" height="497.305" viewBox="0 0 851.909 497.305">
  <g id="Group_178788" data-name="Group 178788" transform="translate(-898.715 -636.754)" opacity="0.04">
    <path id="Path_120245" data-name="Path 120245" d="M1050.545,898.077,950.477,1000.225v129.6h-51.76V636.754h51.76V934.71l287.591-297.956h59.476L1085.535,860.035l226.7,269.794h-61.59Z" transform="translate(-0.002 0.003)" fill="#154271"/>
    <path id="Path_120246" data-name="Path 120246" d="M930.822,860.534c0-126.317,95.959-220.413,226.352-220.413,129.152,0,225.715,93.475,225.715,220.413s-96.563,220.432-225.715,220.432C1026.781,1080.965,930.822,986.852,930.822,860.534Zm406.544,0c0-103.405-76.87-179.554-180.192-179.554-103.959,0-181.434,76.149-181.434,179.554s77.475,179.555,181.434,179.555C1260.5,1040.089,1337.366,963.94,1337.366,860.534Z" transform="translate(367.735 53.094)" fill="#154271"/>
    <rect id="Rectangle_150247" data-name="Rectangle 150247" width="264.256" height="33.528" transform="translate(1392.468 636.754)" fill="#154271"/>
  </g>
</svg>
