<svg xmlns="http://www.w3.org/2000/svg" width="233" height="125.821" viewBox="0 0 233 125.821">
  <g id="Group_178776" data-name="Group 178776" transform="translate(-5692.645 -993.065)">
    <path id="Path_120464" data-name="Path 120464" d="M5844.346,990.294a6.239,6.239,0,1,0-6.237-6.24A6.241,6.241,0,0,0,5844.346,990.294Z" transform="translate(18.647 99.137)" fill="#17244d" stroke="#fff" stroke-width="5"/>
    <path id="Path_120501" data-name="Path 120501" d="M5844.346,990.294a6.239,6.239,0,1,0-6.237-6.24A6.241,6.241,0,0,0,5844.346,990.294Z" transform="translate(18.647 45.227)" fill="#17244d" stroke="#fff" stroke-width="5"/>
    <path id="Path_120519" data-name="Path 120519" d="M5844.346,990.294a6.239,6.239,0,1,0-6.237-6.24A6.241,6.241,0,0,0,5844.346,990.294Z" transform="translate(18.647 17.749)" fill="#17244d" stroke="#fff" stroke-width="5"/>
    <path id="Path_120492" data-name="Path 120492" d="M5844.346,990.294a6.239,6.239,0,1,0-6.237-6.24A6.241,6.241,0,0,0,5844.346,990.294Z" transform="translate(18.647 126.092)" fill="#17244d" stroke="#fff" stroke-width="5"/>
    <path id="Path_120502" data-name="Path 120502" d="M5844.346,990.294a6.239,6.239,0,1,0-6.237-6.24A6.241,6.241,0,0,0,5844.346,990.294Z" transform="translate(18.647 72.182)" fill="#17244d" stroke="#fff" stroke-width="5"/>
    <path id="Path_120485" data-name="Path 120485" d="M5844.346,990.294a6.239,6.239,0,1,0-6.237-6.24A6.241,6.241,0,0,0,5844.346,990.294Z" transform="translate(72.558 99.137)" fill="#17244d" stroke="#fff" stroke-width="5"/>
    <path id="Path_120511" data-name="Path 120511" d="M5844.346,990.294a6.239,6.239,0,1,0-6.237-6.24A6.241,6.241,0,0,0,5844.346,990.294Z" transform="translate(72.558 45.227)" fill="#17244d" stroke="#fff" stroke-width="5"/>
    <path id="Path_120521" data-name="Path 120521" d="M5844.346,990.294a6.239,6.239,0,1,0-6.237-6.24A6.241,6.241,0,0,0,5844.346,990.294Z" transform="translate(72.558 17.749)" fill="#17244d" stroke="#fff" stroke-width="5"/>
    <path id="Path_120494" data-name="Path 120494" d="M5844.346,990.294a6.239,6.239,0,1,0-6.237-6.24A6.241,6.241,0,0,0,5844.346,990.294Z" transform="translate(72.558 126.092)" fill="#17244d" stroke="#fff" stroke-width="5"/>
    <path id="Path_120512" data-name="Path 120512" d="M5844.346,990.294a6.239,6.239,0,1,0-6.237-6.24A6.241,6.241,0,0,0,5844.346,990.294Z" transform="translate(72.558 72.182)" fill="#17244d" stroke="#fff" stroke-width="5"/>
    <path id="Path_120465" data-name="Path 120465" d="M5820.522,990.294a6.239,6.239,0,1,0-6.241-6.24A6.241,6.241,0,0,0,5820.522,990.294Z" transform="translate(15.517 99.137)" fill="#17244d" stroke="#fff" stroke-width="5"/>
    <path id="Path_120500" data-name="Path 120500" d="M5820.522,990.294a6.239,6.239,0,1,0-6.241-6.24A6.241,6.241,0,0,0,5820.522,990.294Z" transform="translate(15.517 45.227)" fill="#17244d" stroke="#fff" stroke-width="5"/>
    <path id="Path_120518" data-name="Path 120518" d="M5820.522,990.294a6.239,6.239,0,1,0-6.241-6.24A6.241,6.241,0,0,0,5820.522,990.294Z" transform="translate(15.517 17.749)" fill="#17244d" stroke="#fff" stroke-width="5"/>
    <path id="Path_120491" data-name="Path 120491" d="M5820.522,990.294a6.239,6.239,0,1,0-6.241-6.24A6.241,6.241,0,0,0,5820.522,990.294Z" transform="translate(15.517 126.092)" fill="#17244d" stroke="#fff" stroke-width="5"/>
    <path id="Path_120503" data-name="Path 120503" d="M5820.522,990.294a6.239,6.239,0,1,0-6.241-6.24A6.241,6.241,0,0,0,5820.522,990.294Z" transform="translate(15.517 72.182)" fill="#17244d" stroke="#fff" stroke-width="5"/>
    <path id="Path_120481" data-name="Path 120481" d="M5820.522,990.294a6.239,6.239,0,1,0-6.241-6.24A6.241,6.241,0,0,0,5820.522,990.294Z" transform="translate(69.428 99.137)" fill="#17244d" stroke="#fff" stroke-width="5"/>
    <path id="Path_120509" data-name="Path 120509" d="M5820.522,990.294a6.239,6.239,0,1,0-6.241-6.24A6.241,6.241,0,0,0,5820.522,990.294Z" transform="translate(69.428 45.227)" fill="#17244d" stroke="#fff" stroke-width="5"/>
    <path id="Path_120520" data-name="Path 120520" d="M5820.522,990.294a6.239,6.239,0,1,0-6.241-6.24A6.241,6.241,0,0,0,5820.522,990.294Z" transform="translate(69.428 17.749)" fill="#17244d" stroke="#fff" stroke-width="5"/>
    <path id="Path_120493" data-name="Path 120493" d="M5820.522,990.294a6.239,6.239,0,1,0-6.241-6.24A6.241,6.241,0,0,0,5820.522,990.294Z" transform="translate(69.428 126.092)" fill="#17244d" stroke="#fff" stroke-width="5"/>
    <path id="Path_120510" data-name="Path 120510" d="M5820.522,990.294a6.239,6.239,0,1,0-6.241-6.24A6.241,6.241,0,0,0,5820.522,990.294Z" transform="translate(69.428 72.182)" fill="#17244d" stroke="#fff" stroke-width="5"/>
    <path id="Path_120466" data-name="Path 120466" d="M5796.694,990.294a6.239,6.239,0,1,0-6.24-6.24A6.241,6.241,0,0,0,5796.694,990.294Z" transform="translate(12.507 99.137)" fill="#17244d" stroke="#fff" stroke-width="5"/>
    <path id="Path_120499" data-name="Path 120499" d="M5796.694,990.294a6.239,6.239,0,1,0-6.24-6.24A6.241,6.241,0,0,0,5796.694,990.294Z" transform="translate(12.507 45.227)" fill="#17244d" stroke="#fff" stroke-width="5"/>
    <path id="Path_120517" data-name="Path 120517" d="M5796.694,990.294a6.239,6.239,0,1,0-6.24-6.24A6.241,6.241,0,0,0,5796.694,990.294Z" transform="translate(12.507 17.749)" fill="#17244d" stroke="#fff" stroke-width="5"/>
    <path id="Path_120490" data-name="Path 120490" d="M5796.694,990.294a6.239,6.239,0,1,0-6.24-6.24A6.241,6.241,0,0,0,5796.694,990.294Z" transform="translate(12.507 126.092)" fill="#17244d" stroke="#fff" stroke-width="5"/>
    <path id="Path_120504" data-name="Path 120504" d="M5796.694,990.294a6.239,6.239,0,1,0-6.24-6.24A6.241,6.241,0,0,0,5796.694,990.294Z" transform="translate(12.507 72.182)" fill="#17244d" stroke="#fff" stroke-width="5"/>
    <path id="Path_120467" data-name="Path 120467" d="M5772.866,990.294a6.239,6.239,0,1,0-6.239-6.24A6.24,6.24,0,0,0,5772.866,990.294Z" transform="translate(9.376 99.137)" fill="#17244d" stroke="#fff" stroke-width="5"/>
    <path id="Path_120498" data-name="Path 120498" d="M5772.866,990.294a6.239,6.239,0,1,0-6.239-6.24A6.24,6.24,0,0,0,5772.866,990.294Z" transform="translate(9.376 45.227)" fill="#17244d" stroke="#fff" stroke-width="5"/>
    <path id="Path_120516" data-name="Path 120516" d="M5772.866,990.294a6.239,6.239,0,1,0-6.239-6.24A6.24,6.24,0,0,0,5772.866,990.294Z" transform="translate(9.376 17.749)" fill="#17244d" stroke="#fff" stroke-width="5"/>
    <path id="Path_120489" data-name="Path 120489" d="M5772.866,990.294a6.239,6.239,0,1,0-6.239-6.24A6.24,6.24,0,0,0,5772.866,990.294Z" transform="translate(9.376 126.092)" fill="#17244d" stroke="#fff" stroke-width="5"/>
    <path id="Path_120505" data-name="Path 120505" d="M5772.866,990.294a6.239,6.239,0,1,0-6.239-6.24A6.24,6.24,0,0,0,5772.866,990.294Z" transform="translate(9.376 72.182)" fill="#17244d" stroke="#fff" stroke-width="5"/>
    <path id="Path_120468" data-name="Path 120468" d="M5749.039,990.294a6.239,6.239,0,1,0-6.239-6.24A6.24,6.24,0,0,0,5749.039,990.294Z" transform="translate(6.243 99.137)" fill="#17244d" stroke="#fff" stroke-width="5"/>
    <path id="Path_120497" data-name="Path 120497" d="M5749.039,990.294a6.239,6.239,0,1,0-6.239-6.24A6.24,6.24,0,0,0,5749.039,990.294Z" transform="translate(6.243 45.227)" fill="#17244d" stroke="#fff" stroke-width="5"/>
    <path id="Path_120515" data-name="Path 120515" d="M5749.039,990.294a6.239,6.239,0,1,0-6.239-6.24A6.24,6.24,0,0,0,5749.039,990.294Z" transform="translate(6.243 17.749)" fill="#17244d" stroke="#fff" stroke-width="5"/>
    <path id="Path_120488" data-name="Path 120488" d="M5749.039,990.294a6.239,6.239,0,1,0-6.239-6.24A6.24,6.24,0,0,0,5749.039,990.294Z" transform="translate(6.243 126.092)" fill="#17244d" stroke="#fff" stroke-width="5"/>
    <path id="Path_120506" data-name="Path 120506" d="M5749.039,990.294a6.239,6.239,0,1,0-6.239-6.24A6.24,6.24,0,0,0,5749.039,990.294Z" transform="translate(6.243 72.182)" fill="#17244d" stroke="#fff" stroke-width="5"/>
    <path id="Path_120469" data-name="Path 120469" d="M5725.212,990.294a6.239,6.239,0,1,0-6.239-6.24A6.239,6.239,0,0,0,5725.212,990.294Z" transform="translate(3.129 99.137)" fill="#17244d" stroke="#fff" stroke-width="5"/>
    <path id="Path_120496" data-name="Path 120496" d="M5725.212,990.294a6.239,6.239,0,1,0-6.239-6.24A6.239,6.239,0,0,0,5725.212,990.294Z" transform="translate(3.129 45.227)" fill="#17244d" stroke="#fff" stroke-width="5"/>
    <path id="Path_120514" data-name="Path 120514" d="M5725.212,990.294a6.239,6.239,0,1,0-6.239-6.24A6.239,6.239,0,0,0,5725.212,990.294Z" transform="translate(3.129 17.749)" fill="#17244d" stroke="#fff" stroke-width="5"/>
    <path id="Path_120487" data-name="Path 120487" d="M5725.212,990.294a6.239,6.239,0,1,0-6.239-6.24A6.239,6.239,0,0,0,5725.212,990.294Z" transform="translate(3.129 126.092)" fill="#17244d" stroke="#fff" stroke-width="5"/>
    <path id="Path_120507" data-name="Path 120507" d="M5725.212,990.294a6.239,6.239,0,1,0-6.239-6.24A6.239,6.239,0,0,0,5725.212,990.294Z" transform="translate(3.129 72.182)" fill="#17244d" stroke="#fff" stroke-width="5"/>
    <path id="Path_120470" data-name="Path 120470" d="M5701.384,990.294a6.239,6.239,0,1,0-6.238-6.24A6.241,6.241,0,0,0,5701.384,990.294Z" transform="translate(-0.001 99.137)" fill="#17244d" stroke="#fff" stroke-width="5"/>
    <path id="Path_120495" data-name="Path 120495" d="M5701.384,990.294a6.239,6.239,0,1,0-6.238-6.24A6.241,6.241,0,0,0,5701.384,990.294Z" transform="translate(-0.001 45.227)" fill="#17244d" stroke="#fff" stroke-width="5"/>
    <path id="Path_120513" data-name="Path 120513" d="M5701.384,990.294a6.239,6.239,0,1,0-6.238-6.24A6.241,6.241,0,0,0,5701.384,990.294Z" transform="translate(-0.001 17.749)" fill="#17244d" stroke="#fff" stroke-width="5"/>
    <path id="Path_120486" data-name="Path 120486" d="M5701.384,990.294a6.239,6.239,0,1,0-6.238-6.24A6.241,6.241,0,0,0,5701.384,990.294Z" transform="translate(-0.001 126.092)" fill="#17244d" stroke="#fff" stroke-width="5"/>
    <path id="Path_120508" data-name="Path 120508" d="M5701.384,990.294a6.239,6.239,0,1,0-6.238-6.24A6.241,6.241,0,0,0,5701.384,990.294Z" transform="translate(-0.001 72.182)" fill="#17244d" stroke="#fff" stroke-width="5"/>
  </g>
</svg>
