<svg xmlns="http://www.w3.org/2000/svg" width="32.304" height="40.884" viewBox="0 0 32.304 40.884">
  <path id="Path_120253" data-name="Path 120253" d="M52.55,57.548a7.3,7.3,0,0,0-5.141,6.715c-.024,1.321-.018,2.665-.012,3.965q0,.73,0,1.46a1.928,1.928,0,0,0,.77,1.548,2.381,2.381,0,0,0,1.6.425l16.882,0H77.315a5.518,5.518,0,0,0,.6-.028,1.927,1.927,0,0,0,1.752-1.866l.008-.885c.017-1.784.035-3.63-.025-5.44A7.254,7.254,0,0,0,74.2,56.9c-1.065-.242-2.151-.475-3.2-.7l-1.129-.242a2.234,2.234,0,0,1-1.6-1.656c-.029-.162-.052-.326-.075-.489-.034-.239-.069-.485-.122-.722a.835.835,0,0,1,.29-.856c1.232-1.186,2.445-2.506,2.579-4.435l.005-.08.078-.019a1.974,1.974,0,0,0,1.281-.871,2.774,2.774,0,0,0,.117-2.935.7.7,0,0,1-.035-.57,9.731,9.731,0,0,0,.992-3.867,3.209,3.209,0,0,0-.686-2.422.619.619,0,0,1-.125-.406,1.661,1.661,0,0,0-.846-1.549,1.625,1.625,0,0,1-.483-.481,5.312,5.312,0,0,0-1.692-1.808A12.882,12.882,0,0,0,62.81,30.78a4.21,4.21,0,0,0-4.144,2.3.491.491,0,0,1-.374.193c-.138.01-.277.009-.412.008h-.127a2.468,2.468,0,0,0-.469.034,2.924,2.924,0,0,0-2.228,2.05,4.5,4.5,0,0,0-.169.619,3.462,3.462,0,0,1-.264.84c-.223.432-.281.745.083,1.063l.073.064-.1.15c-.024.034-.042.061-.059.089l-.053.088c-.272.451-.507.84-.087,1.3a.3.3,0,0,1,.023.275c-.005.025-.011.05-.014.073-.014.109-.039.22-.063.327a1.353,1.353,0,0,0-.051.609,18.03,18.03,0,0,0,.795,2.3.875.875,0,0,1,.008.866,2.8,2.8,0,0,0-.072,2.375,2.088,2.088,0,0,0,1.317,1.239.512.512,0,0,1,.29.372,6.115,6.115,0,0,0,1.817,3.438c.081.081.169.161.257.242a2.461,2.461,0,0,1,.782,1,2.279,2.279,0,0,1-.087,1.136c-.039.16-.079.325-.1.481l0,.023a.361.361,0,0,1-.037.134c-.045.081-.089.164-.132.246a2.085,2.085,0,0,1-1.256,1.253c-1.339.377-2.7.777-4.008,1.164Zm1.355,3.974h0A1.624,1.624,0,1,1,53.9,64.77h0a1.609,1.609,0,0,1-1.619-1.619A1.632,1.632,0,0,1,53.905,61.522ZM67.98,56.649l-1.772,2.76-1.67-1.793L67.722,55.5l.063.054C68.318,56,68.334,56.1,67.98,56.649Zm-3.912.13a.427.427,0,0,1-.229.057.544.544,0,0,1-.28-.071c-1.028-.664-2.052-1.343-3.043-2.019a.58.58,0,0,1-.2-.453,2.9,2.9,0,0,1,.071-.5c.015-.076.031-.156.046-.241l.031-.182.145.115a4.635,4.635,0,0,0,6.427-.007l.145-.117.032.184c.017.1.034.184.05.268a4.045,4.045,0,0,1,.082.547.5.5,0,0,1-.2.383C65.963,55.539,64.985,56.187,64.069,56.779Zm7.076-10.12-.207.15.033-.253a3.36,3.36,0,0,0,.008-.577c-.021-.505-.044-1.028.579-1.364l.1-.053.051.1A1.629,1.629,0,0,1,71.145,46.659Zm-14.479-.513c-.005.125-.011.251-.009.377l0,.2-.17-.1a1.544,1.544,0,0,1-.571-1.9l.05-.113.107.063C56.715,45.04,56.69,45.6,56.666,46.146Zm0-3.852c0,.231,0,.461,0,.692V43.6l-.192-.217a5.219,5.219,0,0,1-1.21-2.691.589.589,0,0,1,.058-.34,1.265,1.265,0,0,0-.088-1.361l-.063-.094.1-.06c.528-.332.611-.745.281-1.382a.784.784,0,0,1,.042-.551l.011-.037c.043-.141.083-.283.123-.425a6.48,6.48,0,0,1,.429-1.215,1.936,1.936,0,0,1,2.364-.969c.57.159.651.116.869-.462a3.162,3.162,0,0,1,2.812-2.066,9.533,9.533,0,0,1,4,.557A16.327,16.327,0,0,1,68.629,33.3a4.654,4.654,0,0,1,1.95,1.978,1.593,1.593,0,0,0,.557.53.831.831,0,0,1,.466,1.009.773.773,0,0,0,.157.564,2.356,2.356,0,0,1,.706,1.822,8.368,8.368,0,0,1-.94,3.757c-.041.078-.087.154-.145.249l-.1.165-.137.231-.064-.261c-.022-.089-.041-.17-.059-.246-.034-.146-.064-.27-.1-.393a4.248,4.248,0,0,0-3.913-3.083,9.528,9.528,0,0,1-4.048-1.1,4.25,4.25,0,0,0-6.294,3.774Zm2.158,8.114a4.639,4.639,0,0,1-1.238-3.18c-.018-1.541-.038-3.287,0-5.015a3.467,3.467,0,0,1,3.37-3.4h.019l.019.006c.152.049.309.09.464.132a4.9,4.9,0,0,1,1.018.355,10.593,10.593,0,0,0,4.588,1.237A3.181,3.181,0,0,1,69.283,41.6a3.392,3.392,0,0,1,.888,2.436l0,.053c-.045.894-.092,1.818-.083,2.726a5.183,5.183,0,0,1-1.594,3.963c-.2.2-.4.4-.606.6-.489.49-.994,1-1.532,1.451a3.812,3.812,0,0,1-2.477,1.033,3.288,3.288,0,0,1-.727-.083,4.842,4.842,0,0,1-2.275-1.293C60.164,51.818,59.474,51.117,58.822,50.407Zm.788,5.381a2.831,2.831,0,0,0,.12-.257l.049-.129,3.33,2.212-1.665,1.8-.077-.119q-.228-.355-.455-.7c-.5-.771-.973-1.5-1.422-2.265C59.409,56.186,59.5,56,59.61,55.788Zm-1.436,1.066a.536.536,0,0,1,.716.269c.549.884,1.124,1.774,1.68,2.634l.309.479c.159.246.306.371.452.385s.319-.087.524-.306q.571-.61,1.139-1.223l.653-.7a.416.416,0,0,1,.065-.054l.137-.1.363.387.67.715.358.386c.2.213.394.427.593.637a.637.637,0,0,0,.484.261.62.62,0,0,0,.416-.331c.653-1,1.346-2.073,2.013-3.147a.611.611,0,0,1,.766-.337c1.127.264,2.236.5,3.41.759l1.234.268.107.023-.41,1.9-.075.011c-.122.019-.243.033-.361.047a4.049,4.049,0,0,0-.7.123A3.05,3.05,0,0,0,70.536,62.2c-.169.641-.31,1.3-.447,1.943l-.063.293c-.1.474.008.644.488.757l.181.043c.162.039.33.08.495.11.323.061.545-.059.61-.327.084-.341-.168-.5-.393-.569-.056-.018-.113-.031-.19-.05l-.259-.064.029-.108c.065-.241.122-.483.178-.723a10.35,10.35,0,0,1,.463-1.583,2.119,2.119,0,0,1,2.732-1.081,2.163,2.163,0,0,1,1.4,2.375c-.067.459-.177.919-.283,1.365-.049.2-.1.409-.143.616l-.021.1-.1-.012-.169-.022c-.106-.014-.2-.027-.3-.032a.446.446,0,0,0-.2.858,5.923,5.923,0,0,0,1.058.244.438.438,0,0,0,.5-.389q.068-.294.138-.587c.159-.671.323-1.364.434-2.053A3.049,3.049,0,0,0,75.1,60.221a.467.467,0,0,1-.278-.6c.076-.279.137-.563.2-.863.028-.131.057-.266.089-.4l.031-.138.126.064a6.261,6.261,0,0,1,2.586,2.409,6.477,6.477,0,0,1,.917,3.425q0,1.425,0,2.85,0,1.247,0,2.494c0,.888-.4,1.285-1.291,1.285H49.6a1.308,1.308,0,0,1-.972-.314,1.33,1.33,0,0,1-.31-.978c0-.515-.005-1.031-.01-1.547-.013-1.234-.026-2.509.042-3.762a6.3,6.3,0,0,1,3.571-5.374l.129-.071.032.143c.039.174.078.345.117.513.109.475.213.924.289,1.383.033.194-.185.422-.28.51a2.545,2.545,0,1,0,3.5,3.691,2.544,2.544,0,0,0-1.853-4.333h-.438l-.486-2.182.092-.032.148-.054c.106-.039.21-.078.316-.109l1.431-.417C55.988,57.5,57.092,57.181,58.174,56.854Z" transform="translate(-47.391 -30.778)" fill="#fff"/>
</svg>
