<svg xmlns="http://www.w3.org/2000/svg" width="23.947" height="22.083" viewBox="0 0 23.947 22.083">
  <g id="delivery" transform="translate(0 -11.595)">
    <path id="Path_64532" data-name="Path 64532" d="M141.592,76.9v7.317h4.664V82.928h-3.377V76.9Z" transform="translate(-130.206 -60.051)" fill="#0066b0"/>
    <path id="Path_64533" data-name="Path 64533" d="M24.772,22.714A11.122,11.122,0,0,0,2.683,20.867H.9l3.08,5.307,3.17-5.307H5.3A8.55,8.55,0,1,1,15.507,31.055v2.623A11.16,11.16,0,0,0,24.772,22.714Z" transform="translate(-0.825 0)" fill="#0066b0"/>
    <path id="Path_64534" data-name="Path 64534" d="M1.961,214.374l.818-.87A12.879,12.879,0,0,0,3.873,212.2a1.764,1.764,0,0,0,.3-1.012,1.691,1.691,0,0,0-.559-1.341,2.281,2.281,0,0,0-1.555-.49,2.011,2.011,0,0,0-1.508.584A1.914,1.914,0,0,0,0,211.374l.008.036H1.379a1.139,1.139,0,0,1,.181-.694.573.573,0,0,1,.5-.273.655.655,0,0,1,.529.2.826.826,0,0,1,.177.555,1.282,1.282,0,0,1-.174.576,3.953,3.953,0,0,1-.53.756l-1.93,2.043v.934H4.309v-1.126H1.973l-.012-.012Z" transform="translate(0 -181.86)" fill="#0066b0"/>
    <path id="Path_64535" data-name="Path 64535" d="M58.048,210.628H56.681V210.6l-2.441,3.907.068.861h2.373v1.287h1.367v-1.287h.643v-1.045h-.643Zm-1.367,3.7h-1.2l1.038-1.728.123-.182.04,0Z" transform="translate(-49.879 -183.006)" fill="#0066b0"/>
    <path id="Path_64536" data-name="Path 64536" d="M120.613,216.008v-2.6a4.294,4.294,0,0,0-.017-.536,1.9,1.9,0,0,0-.357-.972,1.333,1.333,0,0,0-1.092-.486,1.211,1.211,0,0,0-.628.168,1.068,1.068,0,0,0-.479.471V209.9h-1.447v6.111h1.447V212.72c0-.072.134-.128.234-.168a.9.9,0,0,1,.345-.06.567.567,0,0,1,.473.2,1.186,1.186,0,0,1,.154.71v2.611h1.367Z" transform="translate(-107.217 -182.356)" fill="#0066b0"/>
  </g>
</svg>
