<svg xmlns="http://www.w3.org/2000/svg" width="20.242" height="17.681" viewBox="0 0 20.242 17.681">
  <g id="Group_2211" data-name="Group 2211" transform="translate(0 -28.756)">
    <g id="Group_2115" data-name="Group 2115" transform="translate(0 28.756)">
      <g id="Group_2114" data-name="Group 2114" transform="translate(0 0)">
        <path id="Path_459" data-name="Path 459" d="M20.147,34.432l-2.931-2.071V29.338a.651.651,0,0,0-.558-.582H3.815a.651.651,0,0,0-.558.582v3L.209,34.432A.512.512,0,0,0,0,34.8v11.05a.675.675,0,0,0,.582.582H19.891c.256,0,.349-.3.349-.582V34.8C20.24,34.665,20.263,34.525,20.147,34.432Zm-2.931-.954,2,1.373-2,1.512ZM4.188,29.687h12.1v7.4l-6.049,4.56-6.049-4.56v-7.4Zm-.931,3.769v2.931l-2-1.535ZM.931,35.805l6.514,4.932-6.514,4.4Zm1.117,9.7,6.188-4.164L9.887,42.6a.558.558,0,0,0,.326.116c.093,0,.14-.047.233-.116l1.722-1.326,6.258,4.234Zm17.262-.535L12.935,40.69l6.374-4.885Z" transform="translate(0 -28.756)" fill="#e4003a"/>
        <path id="Path_460" data-name="Path 460" d="M136.3,97.6H138.4a.465.465,0,1,0,0-.931H136.3a.465.465,0,1,0,0,.931Z" transform="translate(-129.788 -93.65)" fill="#e4003a"/>
        <path id="Path_461" data-name="Path 461" d="M136.3,144.626h7.445a.465.465,0,0,0,0-.931H136.3a.465.465,0,1,0,0,.931Z" transform="translate(-129.788 -138.577)" fill="#e4003a"/>
        <path id="Path_462" data-name="Path 462" d="M144.212,191.18a.465.465,0,0,0-.465-.465H136.3a.465.465,0,1,0,0,.931h7.445A.465.465,0,0,0,144.212,191.18Z" transform="translate(-129.788 -183.503)" fill="#e4003a"/>
      </g>
    </g>
  </g>
</svg>
