<svg xmlns="http://www.w3.org/2000/svg" width="20.931" height="20.96" viewBox="0 0 20.931 20.96">
  <g id="Group_162548" data-name="Group 162548" transform="translate(238.048 -254.527)">
    <g id="qMyzFr.tif" transform="translate(-238.048 254.527)">
      <g id="Group_162547" data-name="Group 162547">
        <path id="Path_83479" data-name="Path 83479" d="M-219.472,275.486a3.577,3.577,0,0,1-1.97-1.289c-1.428-1.444-2.872-2.873-4.3-4.315a.313.313,0,0,0-.446-.07,7.688,7.688,0,0,1-3.755.93,8.052,8.052,0,0,1-7.615-5.338,8.1,8.1,0,0,1,5.8-10.668,8.106,8.106,0,0,1,9.82,6.659,8.093,8.093,0,0,1-.792,4.937l-.154.306c.079.083.158.169.24.251,1.457,1.457,2.908,2.92,4.373,4.369a3.39,3.39,0,0,1,1.159,1.755v.589c-.024.073-.05.145-.07.219a2.132,2.132,0,0,1-1.568,1.574c-.12.034-.242.061-.364.091Zm-4.083-12.865a6.4,6.4,0,0,0-6.487-6.376,6.386,6.386,0,0,0-6.289,6.478,6.421,6.421,0,0,0,6.641,6.3A6.452,6.452,0,0,0-223.555,262.621Z" transform="translate(238.048 -254.527)" fill="#e4003a"/>
      </g>
    </g>
    <circle id="Ellipse_9583" data-name="Ellipse 9583" cx="1.978" cy="1.978" r="1.978" transform="translate(-234.275 256.849)" fill="#e4003a"/>
  </g>
</svg>
