<svg xmlns="http://www.w3.org/2000/svg" width="25.095" height="25.095" viewBox="0 0 25.095 25.095">
  <path id="Path_64460" data-name="Path 64460" d="M10.587,0h3.921a1.173,1.173,0,0,1,1.176,1.176V9.411h4.3a.978.978,0,0,1,.691,1.671l-7.455,7.46a.95.95,0,0,1-1.338,0l-7.465-7.46a.978.978,0,0,1,.691-1.671h4.3V1.176A1.173,1.173,0,0,1,10.587,0ZM25.095,18.429v5.489a1.173,1.173,0,0,1-1.176,1.176H1.176A1.173,1.173,0,0,1,0,23.918V18.429a1.173,1.173,0,0,1,1.176-1.176h7.19l2.4,2.4a2.512,2.512,0,0,0,3.558,0l2.4-2.4h7.19A1.173,1.173,0,0,1,25.095,18.429Zm-6.078,4.313a.98.98,0,1,0-.98.98A.983.983,0,0,0,19.017,22.742Zm3.137,0a.98.98,0,1,0-.98.98A.983.983,0,0,0,22.154,22.742Z" fill="#2b56a3"/>
</svg>
