<svg xmlns="http://www.w3.org/2000/svg" width="70.261" height="70.298" viewBox="0 0 70.261 70.298">
  <g id="Group_6746" data-name="Group 6746" transform="translate(0)">
    <g id="Group_6745" data-name="Group 6745">
      <path id="Path_64632" data-name="Path 64632" d="M66.874,204.751V161.423a1.171,1.171,0,0,0-1.171-1.171H53.993a1.171,1.171,0,0,0-1.171,1.171v43.328H50.48V177.817a1.171,1.171,0,0,0-1.171-1.171H37.6a1.171,1.171,0,0,0-1.171,1.171v26.934H34.086V166.107a1.171,1.171,0,0,0-1.171-1.171H21.2a1.171,1.171,0,0,0-1.171,1.171v38.644H17.691V182.5a1.171,1.171,0,0,0-1.171-1.171H4.81A1.171,1.171,0,0,0,3.639,182.5v22.249H.126v2.342H70.387v-2.342Zm-51.525,0H5.981V183.672h9.368Zm16.394,0H22.375V167.278h9.368Zm16.394,0H38.77V178.988h9.368Zm16.394,0H55.164V162.594h9.368Z" transform="translate(-0.126 -136.795)" fill="#3a3a39"/>
      <path id="Path_64633" data-name="Path 64633" d="M34.746,31.855a5.855,5.855,0,0,0,8.114-8.113l8.289-8.29a5.8,5.8,0,0,0,3.21.979,5.877,5.877,0,0,0,1.028-.09,5.813,5.813,0,0,0,2.972-1.485L65.306,20.2a5.855,5.855,0,1,0,10.342-1.141l8.286-8.286a5.873,5.873,0,1,0-1.656-1.656L73.992,17.4a5.855,5.855,0,0,0-7.368.744c-.022.022-.035.048-.056.069l-6.847-5.263a5.855,5.855,0,1,0-10.232.849L41.2,22.086a5.855,5.855,0,1,0-6.458,9.769ZM87.158,2.379a3.513,3.513,0,1,1-3.513,3.513A3.513,3.513,0,0,1,87.158,2.379ZM68.278,19.8a3.513,3.513,0,1,1,4.969,4.968,3.6,3.6,0,0,1-4.967,0A3.513,3.513,0,0,1,68.278,19.8ZM51.492,8.561h0a3.491,3.491,0,0,1,2.267-1.445,3.664,3.664,0,0,1,.617-.053,3.513,3.513,0,1,1-2.885,1.5Zm-16,15.926,0,0a3.513,3.513,0,1,1,4.967,4.97,3.6,3.6,0,0,1-4.967,0A3.513,3.513,0,0,1,35.49,24.487Z" transform="translate(-27.436 0)" fill="#3a3a39"/>
    </g>
  </g>
</svg>
