<svg id="laser-cutting-machine" xmlns="http://www.w3.org/2000/svg" width="70.28" height="70.28" viewBox="0 0 70.28 70.28">
  <path id="Path_65779" data-name="Path 65779" d="M70.147,1H2.134A1.133,1.133,0,0,0,1,2.134V6.668A1.133,1.133,0,0,0,2.134,7.8h15.4L24,14.271a1.129,1.129,0,0,0,.8.332h2.267V39.541a1.106,1.106,0,0,0,.207.618l-.017.011,4.425,6.639,1.086,4.343a1.134,1.134,0,0,0,1.1.858h1.134v10.2h2.267V52.01h1.134a1.134,1.134,0,0,0,1.1-.858l1.086-4.343,4.425-6.639L45,40.159a1.106,1.106,0,0,0,.207-.618V14.6h2.267a1.129,1.129,0,0,0,.8-.332L54.746,7.8h15.4A1.133,1.133,0,0,0,71.28,6.668V2.134A1.133,1.133,0,0,0,70.147,1ZM18.473,5.534,16.205,3.267h3.6l2.267,2.267Zm-3.206,0h-3.6L9.4,3.267H13Zm10.007,0L23.007,3.267h3.6L28.87,5.534Zm6.8,0L29.808,3.267h3.6l2.267,2.267Zm6.8,0L36.609,3.267h3.6l2.267,2.267Zm6.8,0L43.411,3.267h3.6l2.267,2.267Zm6.8,0L50.212,3.267h3.6l2.267,2.267Zm4.534-2.267h3.6l2.267,2.267h-3.6Zm-53.746,0H6.2L8.466,5.534h-5.2ZM35.007,28.205h2.267v3.4a1.134,1.134,0,1,1-2.267,0Zm2.267-2.267H35.007v-6.8h2.267ZM36.14,35.007a3.4,3.4,0,0,0,3.4-3.4V19.137h3.4v19.27h-13.6V19.137h3.4V31.606A3.4,3.4,0,0,0,36.14,35.007Zm-2.794,10.2-3.023-4.534h4.684v2.267h2.267V40.674h4.684l-3.023,4.534Zm1.412,4.534-.568-2.267h3.9l-.568,2.267ZM42.941,16.87h-13.6V14.6h13.6Zm4.065-4.534H25.274L20.74,7.8h30.8Zm22.007-6.8H66.082L63.815,3.267h5.2Z" transform="translate(-1 -1)" fill="#3a3a39"/>
  <path id="Path_65780" data-name="Path 65780" d="M33.873,57H4.4a3.4,3.4,0,1,0,0,6.8H33.873a1.133,1.133,0,0,0,1.134-1.134V58.134A1.133,1.133,0,0,0,33.873,57Zm-1.134,4.534H4.4a1.134,1.134,0,1,1,0-2.267H32.739Z" transform="translate(-1 6.479)" fill="#3a3a39"/>
  <path id="Path_65781" data-name="Path 65781" d="M63.606,57H34.134A1.133,1.133,0,0,0,33,58.134v4.534A1.133,1.133,0,0,0,34.134,63.8H63.606a3.4,3.4,0,0,0,0-6.8Zm0,4.534H35.267V59.267H63.606a1.134,1.134,0,0,1,0,2.267Z" transform="translate(3.274 6.479)" fill="#3a3a39"/>
  <path id="Path_65782" data-name="Path 65782" d="M0,0H6.413V2.267H0Z" transform="translate(37.729 60.407) rotate(-45)" fill="#3a3a39"/>
  <path id="Path_65783" data-name="Path 65783" d="M0,0H2.267V6.413H0Z" transform="translate(26.394 57.476) rotate(-45)" fill="#3a3a39"/>
  <path id="Path_65784" data-name="Path 65784" d="M19,53h4.534v2.267H19Z" transform="translate(1.404 5.945)" fill="#3a3a39"/>
  <path id="Path_65785" data-name="Path 65785" d="M41,53h4.534v2.267H41Z" transform="translate(4.342 5.945)" fill="#3a3a39"/>
</svg>
