<svg id="puzzle" xmlns="http://www.w3.org/2000/svg" width="70.384" height="70.535" viewBox="0 0 70.384 70.535">
  <path id="Path_65777" data-name="Path 65777" d="M8.414,27.374a1.032,1.032,0,0,0,1.429-.295,5.293,5.293,0,0,1,7.949-1.039,5.262,5.262,0,0,1,1.752,3.629,5.632,5.632,0,0,0,1.671,3.643,1.243,1.243,0,0,0,1.756,0l7-7a1.177,1.177,0,0,1,1.573-.081c.028.031.054.063.084.093l6.359,6.358a3.455,3.455,0,0,1-1.661.551,7.37,7.37,0,0,0-3.286.995,1.032,1.032,0,1,0,1.044,1.779,5.3,5.3,0,0,1,2.363-.715,5.634,5.634,0,0,0,3.642-1.671,1.362,1.362,0,0,0-.276-2.05l-6.719-6.719a1.155,1.155,0,0,1-.006-1.652l6.35-6.35a3.445,3.445,0,0,1,.522,1.615,7.314,7.314,0,0,0,2.433,5.044,7.4,7.4,0,0,0,9.893-.075,7.351,7.351,0,0,0-4.538-12.739,3.51,3.51,0,0,1-1.631-.524l6.349-6.349a1.176,1.176,0,0,1,1.663,0l7.15,7.15a1.032,1.032,0,0,0,1.459,0l.289-.289A5.664,5.664,0,0,0,64.7,7.028a5.289,5.289,0,1,1,5.591,5.6A5.632,5.632,0,0,0,66.648,14.3l-.289.289a1.032,1.032,0,0,0,0,1.459l7.15,7.15a1.177,1.177,0,0,1,0,1.663l-1.569,1.569A1.032,1.032,0,0,0,73.4,27.891l1.569-1.569a3.243,3.243,0,0,0,0-4.581l-6.385-6.385a3.484,3.484,0,0,1,1.828-.665,7.315,7.315,0,0,0,5.044-2.433,7.4,7.4,0,0,0-.076-9.893A7.351,7.351,0,0,0,62.64,6.9a3.538,3.538,0,0,1-.666,1.844L55.589,2.362a3.243,3.243,0,0,0-4.581,0L43.969,9.4a1.189,1.189,0,0,0,0,1.682,5.664,5.664,0,0,0,3.654,1.671,5.289,5.289,0,1,1-5.6,5.591A5.633,5.633,0,0,0,40.35,14.7a1.19,1.19,0,0,0-1.681,0l-7.039,7.039a3.224,3.224,0,0,0-.941,2.169,3.224,3.224,0,0,0-2.175.942L22.155,31.21a3.455,3.455,0,0,1-.551-1.661A7.315,7.315,0,0,0,19.17,24.5a7.357,7.357,0,0,0-11.051,1.44,1.032,1.032,0,0,0,.295,1.429Z" transform="translate(-6.93 0)" fill="#3a3a39"/>
  <path id="Path_65778" data-name="Path 65778" d="M63.906,217.85a3.516,3.516,0,0,1-1.677-.553l1.421-1.421a1.032,1.032,0,0,0-1.459-1.459l-2.214,2.214a1.069,1.069,0,0,0,.149,1.608,5.664,5.664,0,0,0,3.654,1.671,5.289,5.289,0,1,1-5.6,5.591,5.633,5.633,0,0,0-1.671-3.642,1.069,1.069,0,0,0-1.608-.149l-7.15,7.15a1.177,1.177,0,0,1-1.574.081c-.028-.031-.054-.063-.084-.093l-7-7a1.27,1.27,0,0,0-1.765.009,5.664,5.664,0,0,0-1.671,3.654,5.287,5.287,0,1,1-10.409-1.591,1.032,1.032,0,1,0-2-.487,7.346,7.346,0,0,0,6.992,9.1l.148,0a7.35,7.35,0,0,0,7.333-6.9,3.516,3.516,0,0,1,.553-1.677l6.358,6.358c.032.032.065.063.1.094a1.177,1.177,0,0,1-.093,1.558l-7.15,7.15a1.145,1.145,0,0,0,.289,1.748,5.664,5.664,0,0,0,3.654,1.671,5.289,5.289,0,1,1-5.6,5.591,5.632,5.632,0,0,0-1.671-3.642A1.148,1.148,0,0,0,32.4,244.2l-7.15,7.15a1.177,1.177,0,0,1-1.663,0l-7.15-7.15a1.073,1.073,0,0,0-1.608.149A5.664,5.664,0,0,0,13.162,248a5.289,5.289,0,1,1-5.591-5.6,5.633,5.633,0,0,0,3.642-1.671,1.068,1.068,0,0,0,.149-1.608l-7.15-7.15a1.177,1.177,0,0,1,0-1.663l7-7a1.242,1.242,0,0,0,0-1.756,5.664,5.664,0,0,0-3.654-1.671,5.289,5.289,0,0,1-4.812-4.015,1.032,1.032,0,0,0-2,.491,7.352,7.352,0,0,0,6.691,5.584,3.515,3.515,0,0,1,1.677.553l-6.358,6.358a3.243,3.243,0,0,0,0,4.581l6.359,6.359a3.454,3.454,0,0,1-1.661.551,7.314,7.314,0,0,0-5.044,2.433,7.4,7.4,0,0,0,.075,9.893,7.351,7.351,0,0,0,12.739-4.538,3.515,3.515,0,0,1,.553-1.677l6.358,6.358a3.243,3.243,0,0,0,4.581,0l6.385-6.385a3.483,3.483,0,0,1,.665,1.828,7.352,7.352,0,1,0,7.788-7.77,3.537,3.537,0,0,1-1.844-.666l6.385-6.385a3.223,3.223,0,0,0,.941-2.165,3.216,3.216,0,0,0,2.175-.946l6.359-6.359a3.454,3.454,0,0,1,.551,1.661,7.314,7.314,0,0,0,2.433,5.044,7.4,7.4,0,0,0,9.893-.075,7.351,7.351,0,0,0-4.538-12.739Z" transform="translate(-0.549 -184.618)" fill="#3a3a39"/>
</svg>
