<svg xmlns="http://www.w3.org/2000/svg" xmlns:xlink="http://www.w3.org/1999/xlink" width="509.235" height="385.395" viewBox="0 0 509.235 385.395">
  <defs>
    <clipPath id="clip-path">
      <path id="Path_64640" data-name="Path 64640" d="M0,48.2H239.293v-220.1H0Z" transform="translate(0 171.893)" fill="none"/>
    </clipPath>
    <clipPath id="clip-path-2">
      <rect id="Rectangle_3476" data-name="Rectangle 3476" width="332.475" height="343.544" fill="none"/>
    </clipPath>
    <clipPath id="clip-path-3">
      <path id="Path_64640-2" data-name="Path 64640" d="M0,103.08H298.957V-171.893H0Z" transform="translate(0 171.893)" fill="#ccc"/>
    </clipPath>
    <clipPath id="clip-path-4">
      <rect id="Rectangle_3476-2" data-name="Rectangle 3476" width="415.372" height="429.202" fill="#ccc"/>
    </clipPath>
  </defs>
  <g id="Group_7046" data-name="Group 7046" transform="translate(152.021 -2305.319)">
    <g id="Group_6752" data-name="Group 6752" transform="translate(200.874 2635.376) rotate(2)" style="mix-blend-mode: multiply;isolation: isolate">
      <g id="Group_6751" data-name="Group 6751" transform="translate(-88.794 -169.979)" clip-path="url(#clip-path)">
        <g id="Group_6750" data-name="Group 6750" transform="translate(-49.775 -63.873)" style="mix-blend-mode: multiply;isolation: isolate">
          <g id="Group_6749" data-name="Group 6749">
            <g id="Group_6748" data-name="Group 6748" clip-path="url(#clip-path-2)">
              <g id="Group_6747" data-name="Group 6747" transform="translate(49.775 63.872)">
                <path id="Path_64639" data-name="Path 64639" d="M.357,24.45C-2.263,19.037-1.661,10.607,1.7,5.621L58.684-78.858c3.362-4.986,10.953-8.7,16.953-8.3L176.669-80.4c6,.4,12.989,5.114,15.608,10.528L236.39,21.272c2.62,5.412,2.018,13.843-1.344,18.829l-56.983,84.478c-3.362,4.986-10.953,8.7-16.953,8.3L60.078,126.12c-6-.4-12.989-5.114-15.608-10.528Z" transform="translate(1.273 87.188)" fill="#1b5cb1"/>
              </g>
            </g>
          </g>
        </g>
      </g>
    </g>
    <g id="Group_6751-2" data-name="Group 6751" transform="translate(-142.425 2305.319) rotate(2)" clip-path="url(#clip-path-3)">
      <g id="Group_6750-2" data-name="Group 6750" transform="translate(-62.186 -79.798)" style="mix-blend-mode: multiply;isolation: isolate">
        <g id="Group_6749-2" data-name="Group 6749">
          <g id="Group_6748-2" data-name="Group 6748" clip-path="url(#clip-path-4)">
            <g id="Group_6747-2" data-name="Group 6747" transform="translate(62.186 79.797)">
              <path id="Path_64639-2" data-name="Path 64639" d="M.763,52.285c-3.273-6.762-2.521-17.294,1.681-23.523L73.634-76.78c4.2-6.229,13.684-10.871,21.18-10.371l126.223,8.445c7.5.5,16.227,6.389,19.5,13.153L295.648,48.314c3.273,6.762,2.521,17.294-1.68,23.523L222.778,177.38c-4.2,6.229-13.684,10.871-21.18,10.371L75.376,179.306c-7.5-.5-16.227-6.389-19.5-13.153Z" transform="translate(1.273 87.188)" fill="#ccc"/>
            </g>
          </g>
        </g>
      </g>
    </g>
  </g>
</svg>
