<svg xmlns="http://www.w3.org/2000/svg" xmlns:xlink="http://www.w3.org/1999/xlink" width="541.634" height="501.003" viewBox="0 0 541.634 501.003">
  <defs>
    <clipPath id="clip-path">
      <path id="Path_64640" data-name="Path 64640" d="M0,311.079H525.1V-171.893H0Z" transform="translate(0 171.893)" fill="none"/>
    </clipPath>
    <clipPath id="clip-path-2">
      <rect id="Rectangle_3476" data-name="Rectangle 3476" width="729.573" height="753.863" fill="none"/>
    </clipPath>
  </defs>
  <g id="Group_6752" data-name="Group 6752" transform="translate(99.663 172.974) rotate(2)" style="mix-blend-mode: multiply;isolation: isolate">
    <g id="Group_6751" data-name="Group 6751" transform="translate(-88.794 -169.979)" clip-path="url(#clip-path)">
      <g id="Group_6750" data-name="Group 6750" transform="translate(-109.226 -140.16)" style="mix-blend-mode: multiply;isolation: isolate">
        <g id="Group_6749" data-name="Group 6749">
          <g id="Group_6748" data-name="Group 6748" clip-path="url(#clip-path-2)">
            <g id="Group_6747" data-name="Group 6747" transform="translate(109.226 140.158)">
              <path id="Path_64639" data-name="Path 64639" d="M2.3,157.786c-5.749-11.877-4.428-30.376,2.953-41.317L130.3-68.908C137.674-79.849,154.33-88,167.5-87.123L389.2-72.291c13.166.879,28.5,11.222,34.251,23.1l96.8,200c5.749,11.877,4.428,30.376-2.95,41.317L392.257,377.507c-7.378,10.941-24.034,19.095-37.2,18.215l-221.7-14.833c-13.166-.879-28.5-11.222-34.251-23.1Z" transform="translate(1.273 87.188)" fill="#1b5cb1"/>
            </g>
          </g>
        </g>
      </g>
    </g>
  </g>
</svg>
