<svg id="cart" xmlns="http://www.w3.org/2000/svg" width="46.642" height="46.734" viewBox="0 0 46.642 46.734">
  <path id="Path_65816" data-name="Path 65816" d="M44.815,10.953H41.173l-8.5-8.5-7.53,7.53V0H12.822V5.248h1.369V1.369h9.584V2.738H18.984V4.107h4.792V5.477H20.809V6.846h2.966v4.107H14.191V6.618H12.822v4.336h-2.3L10.295,9.21A3.4,3.4,0,0,0,8.031,6.417L6.414,5.851A2.971,2.971,0,1,0,5.951,7.14l1.627.57A2.043,2.043,0,0,1,8.937,9.385l3.041,23.567L9.943,36.615a2.51,2.51,0,0,0,2.194,3.729h1.519a3.879,3.879,0,1,0,5.909,0H36.475a3.879,3.879,0,1,0,5.909,0h2.157V38.975h-32.4a1.141,1.141,0,0,1-1-1.7l1.949-3.508H30.042V32.4H27.609V28.022h6.846V32.4H31.411v1.369H41.724L45.39,15.536a2.328,2.328,0,0,0-.575-4.583ZM3.466,7.12a1.6,1.6,0,1,1,1.6-1.6A1.6,1.6,0,0,1,3.466,7.12ZM39.429,40.344a2.51,2.51,0,1,1-2.51,2.51A2.513,2.513,0,0,1,39.429,40.344Zm-22.819,0a2.51,2.51,0,1,1-2.51,2.51A2.513,2.513,0,0,1,16.61,40.344ZM18.025,32.4H13.287l-.565-4.381h5.3Zm0-5.75h-5.48l-.648-5.02h6.128Zm0-6.389h-6.3l-.6-4.655h6.9ZM26.24,32.4H19.394V28.022H26.24Zm0-5.75H19.394v-5.02H26.24Zm8.215,0H27.609v-5.02h6.846Zm0-6.389H27.609V15.608h6.846ZM40.6,32.4H35.824V28.022h5.66Zm1.156-5.75H35.824v-5.02h6.944ZM43.7,16.977H40.251v1.369h3.178l-.385,1.917H35.824V15.608h8.155Zm1.111-2.738H23.264v1.369H26.24v4.655H19.394V15.608h2.5V14.239H10.944L10.7,12.322H32.737V10.953H26.113l6.562-6.562,6.562,6.562H34.106v1.369H44.815a.958.958,0,0,1,0,1.917Z" transform="translate(-0.5)" fill="#3a3a39"/>
  <path id="Path_65817" data-name="Path 65817" d="M169.5,462h1.369v1.369H169.5Z" transform="translate(-154.074 -419.83)" fill="#3a3a39"/>
  <path id="Path_65818" data-name="Path 65818" d="M419.5,462h1.369v1.369H419.5Z" transform="translate(-381.255 -419.83)" fill="#3a3a39"/>
  <path id="Path_65819" data-name="Path 65819" d="M173,30h1.369v1.369H173Z" transform="translate(-157.255 -27.262)" fill="#3a3a39"/>
  <path id="Path_65820" data-name="Path 65820" d="M406,186h1.369v1.369H406Z" transform="translate(-368.987 -169.023)" fill="#3a3a39"/>
</svg>
