<svg xmlns="http://www.w3.org/2000/svg" width="46.96" height="46.96" viewBox="0 0 46.96 46.96">
  <path id="optimization" d="M54.58,16.229l-2.119,2.119H49.655a.783.783,0,0,0-.783.783v2.806L46.2,24.609H43.394a.783.783,0,0,0-.783.783V28.2l-2.672,2.672H37.132a.783.783,0,0,0-.783.783V34.46l-3.455,3.455H30.219a9.357,9.357,0,0,1,4.2-6.351l-.844-1.318a10.958,10.958,0,0,0,5.9,20.192H49.533A14.87,14.87,0,0,1,24.609,39.48H23.044a16.416,16.416,0,0,0,.472,3.913H17.565V35.567h6.261a.783.783,0,0,0,.723-.483l1.264-3.052a.783.783,0,0,0-.17-.853l-4.428-4.427,5.534-5.534,4.427,4.428a.782.782,0,0,0,.853.17l3.052-1.264a.783.783,0,0,0,.483-.723V17.565h7.827v4.7h1.565V16.783A.783.783,0,0,0,44.176,16H34.784a.783.783,0,0,0-.783.783V23.3l-2.086.864L27.3,19.557a.783.783,0,0,0-1.107,0L19.557,26.2a.783.783,0,0,0,0,1.107l4.611,4.611L23.3,34H16.783a.783.783,0,0,0-.783.783v9.392a.783.783,0,0,0,.783.783H23.3l.864,2.086-4.611,4.611a.783.783,0,0,0,0,1.107L26.2,59.4a.783.783,0,0,0,1.107,0l4.611-4.611L34,55.657v6.521a.783.783,0,0,0,.783.783h9.392a.783.783,0,0,0,.783-.783V55.657l2.086-.864L51.656,59.4a.783.783,0,0,0,1.107,0L59.4,52.763a.783.783,0,0,0,0-1.107l-1.218-1.218h3.992a.783.783,0,0,0,.783-.783V23.044a.783.783,0,0,0-.783-.783H55.916a.783.783,0,0,0-.783.783v5.479H49.655a.783.783,0,0,0-.783.783v3.913H43.394a.783.783,0,0,0-.783.783v4.7H37.132a.783.783,0,0,0-.783.783v3.131H30.625a9.349,9.349,0,0,1-.537-3.131h3.131a.783.783,0,0,0,.553-.229l3.684-3.684h2.806a.783.783,0,0,0,.783-.783V31.978l2.672-2.672h2.806a.783.783,0,0,0,.783-.783V25.716l2.672-2.672h2.806a.783.783,0,0,0,.783-.783V19.455l1.89-1.89h7.5V16H55.134a.783.783,0,0,0-.553.229ZM26.751,57.743l-5.534-5.534L25.428,48a16.564,16.564,0,0,0,5.534,5.534Zm8.816,3.651V55.444a16.434,16.434,0,0,0,7.827,0v5.952Zm22.177-9.186-5.534,5.534L48,53.533a16.441,16.441,0,0,0,3.731-3.1h4.242ZM56.7,23.827h4.7V48.872H56.7Zm-6.261,6.261h4.7V48.872h-4.7Zm-6.261,4.7h4.7V48.872h-4.7Zm-6.261,5.479h4.7v8.609H39.48a9.412,9.412,0,0,1-1.565-.131Zm-1.565,3.913v4.159a9.443,9.443,0,0,1-5-4.159ZM39.48,34H37.915V32.436H39.48Zm6.261-6.261H44.176V26.175h1.565ZM52,21.479H50.438V19.913H52Z" transform="translate(-16 -16)" fill="#3a3a39"/>
</svg>
