<svg id="vessel" xmlns="http://www.w3.org/2000/svg" width="49.002" height="47.584" viewBox="0 0 49.002 47.584">
  <path id="Path_65821" data-name="Path 65821" d="M104.532,272.54h-6.26a2.215,2.215,0,0,0-2.212,2.212v1.939a.6.6,0,0,0,.6.6h7.869a.6.6,0,0,0,.6-.6v-3.548A.6.6,0,0,0,104.532,272.54Zm-5.974,3.548H97.267v-1.335a1.007,1.007,0,0,1,1.006-1.006h.286Zm2.872,0H99.765v-2.341h1.665Zm2.5,0h-1.292v-2.341h1.292Z" transform="translate(-87.643 -247.085)" fill="#3a3a39"/>
  <path id="Path_65822" data-name="Path 65822" d="M116.02,366.82h-.586a.6.6,0,0,0,0,1.207h.586a.6.6,0,0,0,0-1.207Z" transform="translate(-104.525 -331.884)" fill="#3a3a39"/>
  <path id="Path_65823" data-name="Path 65823" d="M138.57,367.423a.6.6,0,0,0,.6.6h17.048a.6.6,0,1,0,0-1.207H139.173A.6.6,0,0,0,138.57,367.423Z" transform="translate(-125.878 -331.884)" fill="#3a3a39"/>
  <path id="Path_65824" data-name="Path 65824" d="M277.343,207.564a.6.6,0,0,0,.6-.6v-4.367a.6.6,0,0,0-1.207,0v4.367A.6.6,0,0,0,277.343,207.564Z" transform="translate(-250.154 -183.629)" fill="#3a3a39"/>
  <path id="Path_65825" data-name="Path 65825" d="M313.663,207.564a.6.6,0,0,0,.6-.6v-4.367a.6.6,0,0,0-1.207,0v4.367A.6.6,0,0,0,313.663,207.564Z" transform="translate(-282.821 -183.629)" fill="#3a3a39"/>
  <path id="Path_65826" data-name="Path 65826" d="M349.993,207.564a.6.6,0,0,0,.6-.6v-4.367a.6.6,0,1,0-1.207,0v4.367A.6.6,0,0,0,349.993,207.564Z" transform="translate(-315.498 -183.629)" fill="#3a3a39"/>
  <path id="Path_65827" data-name="Path 65827" d="M84.854,456.125a3.747,3.747,0,0,1-2.756-1.22,4.911,4.911,0,0,0-7.1,0,3.725,3.725,0,0,1-5.513,0,4.911,4.911,0,0,0-7.1,0,3.725,3.725,0,0,1-5.513,0,4.909,4.909,0,0,0-7.094,0,3.725,3.725,0,0,1-5.514,0,4.905,4.905,0,0,0-3.548-1.515.6.6,0,1,0,0,1.207,3.749,3.749,0,0,1,2.757,1.22,4.91,4.91,0,0,0,7.1,0,3.723,3.723,0,0,1,5.512,0,4.91,4.91,0,0,0,7.1,0,3.725,3.725,0,0,1,5.515,0,4.91,4.91,0,0,0,7.095,0,3.725,3.725,0,0,1,5.514,0,4.9,4.9,0,0,0,3.547,1.515.6.6,0,1,0,0-1.207Z" transform="translate(-37.328 -409.748)" fill="#3a3a39"/>
  <path id="Path_65828" data-name="Path 65828" d="M60.758,50.887h-1V48.392a.6.6,0,0,0-.6-.6H57.8V20.013a.6.6,0,0,0-.6-.6H54.352a.6.6,0,0,0-.6.6v1.949h-11.8a.6.6,0,0,0-.6.6v2.041a.6.6,0,0,0,.6.6h.58v1.759a.554.554,0,0,1-.272.475,1.72,1.72,0,0,0,.432,3.143v1.47L35.8,36.015l-.412.417a1.1,1.1,0,0,0-.14.535v7.467a.6.6,0,0,0,.6.6h14.7a.6.6,0,0,0,.6-.6V36.972a1.1,1.1,0,0,0-.144-.544L51,36.414a1.1,1.1,0,0,0-.395-.4L43.9,32.061V30.468a1.721,1.721,0,0,0,.955-1.5.62.62,0,0,0-.547-.642.6.6,0,0,0-.659.6.514.514,0,1,1-.775-.443,1.766,1.766,0,0,0,.865-1.514V25.21h10.01V47.788H32.564V41.741a.6.6,0,0,0-.6-.6h-1.8v-7.66a.6.6,0,0,0-.6-.6H25.715a.6.6,0,0,0-.6.6v7.66h-.464A8.02,8.02,0,0,0,17.8,45.019L14.29,50.887H12.964a.6.6,0,0,0-.541.871l3.53,7.131-.2,0a.6.6,0,0,0,0,1.207,3.635,3.635,0,0,1,1.057.142,4.566,4.566,0,0,1,1.7,1.078,4.912,4.912,0,0,0,7.095,0,3.724,3.724,0,0,1,5.512,0,4.911,4.911,0,0,0,7.1,0,3.727,3.727,0,0,1,5.515,0,4.911,4.911,0,0,0,7.095,0,3.727,3.727,0,0,1,5.514,0,6.649,6.649,0,0,0,1.563,1.1,4.582,4.582,0,0,0,1.985.414.6.6,0,1,0,0-1.207,3.715,3.715,0,0,1-1.013-.131l2.471-9.852a.6.6,0,0,0-.585-.75ZM49.947,43.83H36.459V37.285H49.947ZM43.292,33.1l5.046,2.973H38.117ZM54.955,20.617h1.638V47.788H54.955ZM42.555,24v-.835H53.748V24ZM26.318,34.081h2.637v1.676H26.318Zm0,2.883h2.637v4.173H26.318Zm-7.482,8.675a6.807,6.807,0,0,1,5.811-3.295h6.709v8.543H15.7ZM57.77,60.928c-.219-.162-.427-.342-.641-.528a4.913,4.913,0,0,0-7.1,0,3.725,3.725,0,0,1-5.513,0,4.913,4.913,0,0,0-7.1,0,3.726,3.726,0,0,1-5.513,0,4.91,4.91,0,0,0-7.094,0,3.726,3.726,0,0,1-5.514,0,6.1,6.1,0,0,0-1.864-1.227l-3.5-7.08h22.39a.6.6,0,0,0,0-1.207H32.564V49H58.55v1.892H38.8a.6.6,0,0,0,0,1.207h21.18Z" transform="translate(-12.36 -19.41)" fill="#3a3a39"/>
</svg>
