<svg id="factory" xmlns="http://www.w3.org/2000/svg" width="47.133" height="47.133" viewBox="0 0 47.133 47.133">
  <path id="Path_65829" data-name="Path 65829" d="M41.963,19.245h-5.9l-1.52,12.163H28.368V19.245H25.327V16.2H20.766V8.6H19.173L18.413,1H14l-.76,7.6H11.643V5.561H5.561V8.6H4.041V26.574a9.844,9.844,0,0,0,0,14.23v7.329H46.613V31.409h-3.13Zm-1.343,1.52.19,1.52h-3.6l.19-1.52Zm-3.6,3.041H41l.95,7.6H36.07Zm-10.174,7.6H20.49a9.9,9.9,0,0,0-7.326-7.326V20.766H26.847ZM13.706,41.551a10.537,10.537,0,0,0,1.057-2.54h2.564A8.39,8.39,0,0,1,13.706,41.551Zm-9.269-2.54H7a10.506,10.506,0,0,0,1.057,2.54A8.4,8.4,0,0,1,4.437,39.011ZM8.059,25.828A10.506,10.506,0,0,0,7,28.368H4.437A8.4,8.4,0,0,1,8.059,25.828ZM8.6,14.684H5.561v-1.52H8.6Zm0,1.52v1.52H5.561V16.2Zm0,3.041v1.52H5.561v-1.52Zm6.825,13.684a20.849,20.849,0,0,0-.311-3.041h3.205a8.3,8.3,0,0,1,.885,3.041Zm-7.569,0a18.937,18.937,0,0,1,.35-3.041h5.35a18.851,18.851,0,0,1,.35,3.041Zm6.05,1.52a18.937,18.937,0,0,1-.35,3.041H8.208a18.851,18.851,0,0,1-.35-3.041Zm.856-6.082a10.506,10.506,0,0,0-1.057-2.54,8.384,8.384,0,0,1,3.622,2.54Zm-1.593,0H8.595c.6-1.88,1.471-3.041,2.287-3.041S12.57,26.488,13.17,28.368Zm-6.521,1.52a20.849,20.849,0,0,0-.311,3.041H2.559a8.286,8.286,0,0,1,.885-3.041Zm-.311,4.561a20.849,20.849,0,0,0,.311,3.041H3.443a8.3,8.3,0,0,1-.885-3.041ZM8.6,39.011h4.576c-.6,1.88-1.471,3.041-2.287,3.041S9.2,40.891,8.6,39.011Zm9.727-1.52H15.117a20.849,20.849,0,0,0,.311-3.041h3.779a8.3,8.3,0,0,1-.885,3.041Zm5.484-18.245H16.2v-1.52h7.6ZM19.245,16.2H14.684v3.041H11.643v4.6c-.252-.02-.5-.039-.76-.039s-.509.019-.76.039V10.123h9.123ZM15.372,2.52h1.664L17.644,8.6H14.763ZM7.082,7.082h3.041V8.6H7.082ZM8.6,10.123v1.52H5.561v-1.52ZM5.561,22.286H8.6v1.8a9.8,9.8,0,0,0-3.041,1.292ZM5.561,42A9.812,9.812,0,0,0,16.2,42v4.609H5.561Zm18.245,4.609H20.766V40.531h3.041Zm9.123,0H29.888V40.531h3.041Zm9.123,0H39.011V40.531h3.041Zm1.52,0v-7.6H37.49v7.6H34.449v-7.6H28.368v7.6H25.327v-7.6H19.245v7.6h-1.52V40.8A9.876,9.876,0,0,0,20.49,35.97h24.6V46.613Zm1.52-12.163H20.727c.02-.252.039-.5.039-.76s-.019-.509-.039-.76H45.092Z" transform="translate(-1 -1)" fill="#3a3a39"/>
  <path id="Path_65830" data-name="Path 65830" d="M55.842,10.041H54.3A3.426,3.426,0,0,0,50.9,7H49V8.52h1.9a1.9,1.9,0,0,1,1.9,1.9v1.14h3.041a2.281,2.281,0,1,1,0,4.561H53.561A2.283,2.283,0,0,0,51.281,18.4v.76H52.8V18.4a.761.761,0,0,1,.76-.76h2.281a3.8,3.8,0,0,0,0-7.6Z" transform="translate(-12.51 -2.439)" fill="#3a3a39"/>
  <path id="Path_65831" data-name="Path 65831" d="M39.281,17.643H44.6a.761.761,0,0,1,.76.76v.76h1.52V18.4A2.283,2.283,0,0,0,44.6,16.123H39.281a.76.76,0,1,1,0-1.52h4.561v-1.52h-1.52a2.281,2.281,0,0,1,0-4.561H44.6V7H42.321a3.805,3.805,0,0,0-3.8,3.8,3.762,3.762,0,0,0,.78,2.281h-.02a2.281,2.281,0,1,0,0,4.561Z" transform="translate(-9.632 -2.439)" fill="#3a3a39"/>
  <path id="Path_65832" data-name="Path 65832" d="M31,29h1.52v1.52H31Z" transform="translate(-8.194 -7.714)" fill="#3a3a39"/>
  <path id="Path_65833" data-name="Path 65833" d="M23,29h1.52v1.52H23Z" transform="translate(-6.275 -7.714)" fill="#3a3a39"/>
  <path id="Path_65834" data-name="Path 65834" d="M19,29h1.52v1.52H19Z" transform="translate(-5.316 -7.714)" fill="#3a3a39"/>
  <path id="Path_65835" data-name="Path 65835" d="M27,29h1.52v1.52H27Z" transform="translate(-7.234 -7.714)" fill="#3a3a39"/>
  <path id="Path_65836" data-name="Path 65836" d="M27,33h1.52v1.52H27Z" transform="translate(-7.234 -8.673)" fill="#3a3a39"/>
  <path id="Path_65837" data-name="Path 65837" d="M31,33h1.52v1.52H31Z" transform="translate(-8.194 -8.673)" fill="#3a3a39"/>
  <path id="Path_65838" data-name="Path 65838" d="M27,37h1.52v1.52H27Z" transform="translate(-7.234 -9.632)" fill="#3a3a39"/>
  <path id="Path_65839" data-name="Path 65839" d="M31,37h1.52v1.52H31Z" transform="translate(-8.194 -9.632)" fill="#3a3a39"/>
</svg>
