<svg id="office-chair" xmlns="http://www.w3.org/2000/svg" width="37.755" height="47.218" viewBox="0 0 37.755 47.218">
  <g id="Group_6994" data-name="Group 6994" transform="translate(0 0)">
    <path id="Path_65840" data-name="Path 65840" d="M83.522,15.732H80.376a2.361,2.361,0,0,0-.787.142V9.44A9.635,9.635,0,0,0,69.789,0H63.858a9.336,9.336,0,0,0-9.439,9.233q0,.1,0,.206v6.434a2.361,2.361,0,0,0-.787-.142H50.487a2.36,2.36,0,0,0,0,4.719h.787v4.837a2.25,2.25,0,0,0,2.242,2.242H54.53a3.146,3.146,0,0,0,3.036,2.36h5.506v2.36a.787.787,0,0,0,.787.787h.787V35.4a.149.149,0,0,1-.126.149l-6.513,1.085A3.933,3.933,0,0,0,54.8,39.738l-.315,1.573a3.146,3.146,0,1,0,4.656,2.737,3.1,3.1,0,0,0-.063-.606l.653-2.619,4.877-.614v1.77a3.146,3.146,0,1,0,4.719,0V40.218l4.877.614.669,2.619a3.1,3.1,0,0,0,0,.6A3.146,3.146,0,1,0,79.526,41.3l-.315-1.573A3.933,3.933,0,0,0,76,36.623L69.49,35.538a.149.149,0,0,1-.126-.142v-2.36h.787a.787.787,0,0,0,.787-.787V29.89h5.506a3.146,3.146,0,0,0,3.036-2.36h1.015a2.25,2.25,0,0,0,2.242-2.242V20.452h.787a2.36,2.36,0,1,0,0-4.719Zm-29.1,10.225h-.9a.669.669,0,0,1-.669-.669V20.452h.787a2.361,2.361,0,0,0,.787-.142Zm-.787-7.079H50.487a.787.787,0,0,1,0-1.573h3.146a.787.787,0,1,1,0,1.573Zm2.36,26.743a1.573,1.573,0,1,1,1.573-1.573A1.573,1.573,0,0,1,55.993,45.622Zm11.012,0a1.573,1.573,0,1,1,1.573-1.573A1.573,1.573,0,0,1,67,45.622Zm12.585-1.573a1.573,1.573,0,1,1-1.573-1.573A1.573,1.573,0,0,1,79.589,44.048Zm-3.846-5.876a2.36,2.36,0,0,1,1.927,1.864l.173.865a3.146,3.146,0,0,0-1.785.692l-.4-1.667a.787.787,0,0,0-.669-.59L68.7,38.55a.821.821,0,0,0-.9.779v1.683a2.863,2.863,0,0,0-1.573,0V39.329a.785.785,0,0,0-.881-.779l-6.292.787a.787.787,0,0,0-.669.59l-.425,1.683a3.146,3.146,0,0,0-1.785-.708l.173-.881a2.36,2.36,0,0,1,1.927-1.864l6.513-1.085A1.715,1.715,0,0,0,66.218,35.4v-2.36h1.573V35.4a1.715,1.715,0,0,0,1.439,1.691Zm-6.379-6.709H64.645V29.89h4.719Zm6.513-3.146H58.132a2.124,2.124,0,0,1-2.139-1.856,1.573,1.573,0,0,1,1.573-1.29H76.443a1.573,1.573,0,0,1,1.573,1.29A2.124,2.124,0,0,1,75.877,28.317Zm2.139-4.279a3.076,3.076,0,0,0-1.573-.44H57.566a3.076,3.076,0,0,0-1.573.44V9.44a7.779,7.779,0,0,1,7.692-7.866h6.1A8.062,8.062,0,0,1,78.016,9.44Zm3.146,1.251a.669.669,0,0,1-.669.669h-.9V20.31a2.361,2.361,0,0,0,.787.142h.787Zm2.36-6.41H80.376a.787.787,0,0,1,0-1.573h3.146a.787.787,0,0,1,0,1.573Z" transform="translate(-48.127 0)" fill="#3a3a39"/>
  </g>
</svg>
