<svg id="project-management_1_" data-name="project-management (1)" xmlns="http://www.w3.org/2000/svg" width="47.037" height="47.024" viewBox="0 0 47.037 47.024">
  <g id="Group_6996" data-name="Group 6996" transform="translate(0 0.194)">
    <g id="Group_6995" data-name="Group 6995">
      <path id="Path_65841" data-name="Path 65841" d="M46.368,14.208h0l0,0-3.036-.433a.78.78,0,0,1-.358-1.4l2.454-1.84a.78.78,0,0,0,.156-1.093L42.772,5.7a.78.78,0,0,0-1.093-.156l-2.453,1.84a.78.78,0,0,1-1.244-.734l.434-3.036a.781.781,0,0,0-.662-.883h0L33.12,2.065a.781.781,0,0,0-.884.662h0L31.8,5.763a.78.78,0,0,1-1.4.358l-1.84-2.454a.78.78,0,0,0-1.093-.156l-2.345,1.76a15.1,15.1,0,0,0-3.192,0A14.829,14.829,0,0,0,8.86,18.568c-.021.221-.029.44-.04.66H8.586a.781.781,0,0,0-.763.624l-.539,2.565-2.16-1.49a.781.781,0,0,0-1,.091L1.787,23.359a.781.781,0,0,0-.091.994L3.179,26.51l-2.565.539A.781.781,0,0,0,0,27.813v3.122a.781.781,0,0,0,.62.764l2.565.539L1.7,34.4a.781.781,0,0,0,.091.994l2.341,2.341a.781.781,0,0,0,1,.091l2.157-1.487L7.825,38.9a.781.781,0,0,0,.763.624h3.122a.781.781,0,0,0,.764-.62l.539-2.565,2.157,1.483a.781.781,0,0,0,.994-.091l1.212-1.216V38.74a3.112,3.112,0,0,0,1.561,2.688v4.336a3.122,3.122,0,0,0,3.122,3.122h3.122A3.122,3.122,0,0,0,28.3,45.765V41.428a3.112,3.112,0,0,0,1.561-2.688V35.651a3.824,3.824,0,0,1,1.805-3.186,14.978,14.978,0,0,0,1.837-1.4L32.466,29.9a13.287,13.287,0,0,1-1.645,1.257,5.376,5.376,0,0,0-2.518,4.5V38.74A1.561,1.561,0,0,1,26.743,40.3H20.5a1.561,1.561,0,0,1-1.561-1.561V35.586a5.251,5.251,0,0,0-2.476-4.405A13.229,13.229,0,0,1,23.453,6.752a.85.85,0,0,0-.03.085.78.78,0,0,0,.149.578l1.84,2.453a.764.764,0,0,1,.047.866.776.776,0,0,1-.78.375l-3.036-.434a.781.781,0,0,0-.883.662h0L20.1,15.974a.781.781,0,0,0,.662.883h0l3.036.434a.78.78,0,0,1,.358,1.4L21.7,20.528a.78.78,0,0,0-.156,1.093l2.81,3.746a.78.78,0,0,0,1.093.156l2.454-1.84a.78.78,0,0,1,1.24.734l-.433,3.036a.781.781,0,0,0,.662.884h0L34,29a.865.865,0,0,0,.11.007.78.78,0,0,0,.773-.67l.433-3.036a.781.781,0,0,1,1.4-.358l1.84,2.453a.78.78,0,0,0,1.093.156l3.746-2.81a.78.78,0,0,0,.156-1.093L41.714,21.2a.767.767,0,0,1-.047-.866.758.758,0,0,1,.78-.375l3.036.433a.781.781,0,0,0,.884-.662h0l.662-4.636A.78.78,0,0,0,46.368,14.208ZM20.5,41.862h6.244v1.561H20.5Zm0,3.122h6.244v.78a1.561,1.561,0,0,1-1.561,1.561H22.06A1.561,1.561,0,0,1,20.5,45.765Zm-6.214-13.46a14.753,14.753,0,0,0,1.334.972,3.81,3.81,0,0,1,1.573,2l-1.674,1.671L13.9,35.047a1.561,1.561,0,0,0-2.413.964l-.409,1.949H9.219L8.81,36.014A1.561,1.561,0,0,0,6.4,35.05L4.775,36.165,3.353,34.746l1.117-1.62a1.561,1.561,0,0,0-.963-2.414L1.561,30.3V28.447l1.946-.41a1.561,1.561,0,0,0,.964-2.409L3.353,24l1.422-1.419L6.4,23.7a1.561,1.561,0,0,0,2.413-.965l.137-.649a14.863,14.863,0,0,0,.619,2.647,4.683,4.683,0,1,0,4.72,6.79Zm-1.212-1.1a3.117,3.117,0,1,1-2.927-4.173h.03A14.782,14.782,0,0,0,13.073,30.425ZM44.928,18.731l-2.263-.323a2.341,2.341,0,0,0-2.2,3.723l1.371,1.829-2.5,1.873-1.372-1.828a2.342,2.342,0,0,0-4.191,1.073l-.316,2.267-3.09-.442.323-2.263a2.342,2.342,0,0,0-3.723-2.2l-1.829,1.371-1.873-2.5,1.828-1.372a2.342,2.342,0,0,0-1.073-4.191l-2.263-.323.442-3.09,2.263.323a2.342,2.342,0,0,0,2.2-3.723L25.289,7.1l2.5-1.873,1.372,1.829A2.342,2.342,0,0,0,33.35,5.984l.323-2.263,3.09.441L36.44,6.425a2.341,2.341,0,0,0,3.723,2.2l1.829-1.371,1.873,2.5-1.829,1.372a2.342,2.342,0,0,0,1.073,4.191l2.263.323Z" transform="translate(0 -2.057)" fill="#3a3a39"/>
    </g>
  </g>
  <g id="Group_6998" data-name="Group 6998" transform="translate(27.317 7.425)">
    <g id="Group_6997" data-name="Group 6997">
      <path id="Path_65842" data-name="Path 65842" d="M286.244,76.171a6.244,6.244,0,1,0,6.244,6.244A6.244,6.244,0,0,0,286.244,76.171Zm0,10.927a4.683,4.683,0,1,1,4.683-4.683A4.683,4.683,0,0,1,286.244,87.1Z" transform="translate(-280 -76.171)" fill="#3a3a39"/>
    </g>
  </g>
  <g id="Group_7000" data-name="Group 7000" transform="translate(22.84 34.536)">
    <g id="Group_6999" data-name="Group 6999">
      <rect id="Rectangle_3528" data-name="Rectangle 3528" width="1.561" height="2.341" fill="#3a3a39"/>
    </g>
  </g>
  <g id="Group_7002" data-name="Group 7002" transform="translate(12.687 8.9)">
    <g id="Group_7001" data-name="Group 7001">
      <path id="Path_65843" data-name="Path 65843" d="M137.564,109.262a9.366,9.366,0,0,1-1.581-16.65l-.834-1.321A10.927,10.927,0,0,0,137,110.714a4.983,4.983,0,0,1,3.2,4.652h1.561A6.53,6.53,0,0,0,137.564,109.262Z" transform="translate(-130.044 -91.291)" fill="#3a3a39"/>
    </g>
  </g>
  <g id="Group_7004" data-name="Group 7004" transform="translate(38.45 29.073)">
    <g id="Group_7003" data-name="Group 7003">
      <rect id="Rectangle_3529" data-name="Rectangle 3529" width="5.463" height="1.561" fill="#3a3a39"/>
    </g>
  </g>
  <g id="Group_7006" data-name="Group 7006" transform="translate(37.17 33.155)">
    <g id="Group_7005" data-name="Group 7005" transform="translate(0 0)">
      <rect id="Rectangle_3530" data-name="Rectangle 3530" width="1.561" height="6.096" transform="matrix(0.64, -0.768, 0.768, 0.64, 0, 1.199)" fill="#3a3a39"/>
    </g>
  </g>
  <g id="Group_7008" data-name="Group 7008" transform="translate(33.767 35.317)">
    <g id="Group_7007" data-name="Group 7007">
      <rect id="Rectangle_3531" data-name="Rectangle 3531" width="1.561" height="5.463" fill="#3a3a39"/>
    </g>
  </g>
  <g id="Group_7010" data-name="Group 7010" transform="translate(0.797 11.925)">
    <g id="Group_7009" data-name="Group 7009" transform="translate(0 0)">
      <rect id="Rectangle_3532" data-name="Rectangle 3532" width="6.436" height="1.56" transform="translate(0 1.561) rotate(-14.035)" fill="#3a3a39"/>
    </g>
  </g>
  <g id="Group_7012" data-name="Group 7012" transform="translate(2.093 4.243)">
    <g id="Group_7011" data-name="Group 7011" transform="translate(0 0)">
      <rect id="Rectangle_3533" data-name="Rectangle 3533" width="1.56" height="6.714" transform="matrix(0.581, -0.814, 0.814, 0.581, 0, 1.27)" fill="#3a3a39"/>
    </g>
  </g>
  <g id="Group_7014" data-name="Group 7014" transform="translate(8.781 0)">
    <g id="Group_7013" data-name="Group 7013" transform="translate(0 0)">
      <rect id="Rectangle_3534" data-name="Rectangle 3534" width="1.561" height="6.445" transform="matrix(0.969, -0.248, 0.248, 0.969, 0, 0.387)" fill="#3a3a39"/>
    </g>
  </g>
</svg>
