<svg id="werkzeuge" xmlns="http://www.w3.org/2000/svg" width="105.996" height="106" viewBox="0 0 105.996 106">
  <path id="Path_64634" data-name="Path 64634" d="M339.41,155.148a2.07,2.07,0,1,0,2.07,2.069A2.069,2.069,0,0,0,339.41,155.148Zm0,0" transform="translate(-267.604 -123.028)" fill="#3a3a39"/>
  <path id="Path_64635" data-name="Path 64635" d="M157.715,336.84a2.07,2.07,0,1,0,2.07,2.07A2.07,2.07,0,0,0,157.715,336.84Zm0,0" transform="translate(-123.525 -267.104)" fill="#3a3a39"/>
  <path id="Path_64636" data-name="Path 64636" d="M103.924,12.736a2.069,2.069,0,0,0-1.938.558L93.4,21.944H89.289l-4.53-4.693V13.079l8.46-8.586a2.07,2.07,0,0,0-.814-3.414A20.719,20.719,0,0,0,65.792,26.066l-15.25,15.25L25.136,15.852v-5a2.07,2.07,0,0,0-1.005-1.775L9.492.294A2.069,2.069,0,0,0,6.963.606L1.108,6.46A2.072,2.072,0,0,0,.8,8.99L9.579,23.628a2.07,2.07,0,0,0,1.774,1.005l5,0L41.759,50.1,26.567,65.292A20.716,20.716,0,0,0,1.58,91.9a2.07,2.07,0,0,0,3.431.8l8.582-8.65H17.73l4.714,4.714V92.9l-8.65,8.582a2.07,2.07,0,0,0,.8,3.431,20.708,20.708,0,0,0,23.414-7.542,20.472,20.472,0,0,0,3.2-17.446l12.2-12.2L56.2,70.764l-1.283,1.282a2.071,2.071,0,0,0,2.928,2.928l1.161-1.161L85.231,102.3c.019.021.04.041.06.061A12.423,12.423,0,0,0,102.86,84.79c-.021-.021-.043-.041-.065-.061L74.266,58.556l1.148-1.148a2.07,2.07,0,0,0-2.928-2.928l-1.274,1.275-3.042-2.792L80.431,40.7a20.714,20.714,0,0,0,24.986-26.612A2.068,2.068,0,0,0,103.924,12.736ZM18.674,21.1a2.049,2.049,0,0,0-1.465-.587l-4.682,0L5.179,8.246,8.748,4.677,21,12.026v4.682a2.07,2.07,0,0,0,.6,1.462L47.615,44.245l-2.928,2.928ZM71.335,61.487,99.961,87.748A8.282,8.282,0,0,1,88.247,99.46L61.938,70.882Zm-3.054-2.8-9.151,9.149L56.336,64.8l8.9-8.9Zm17.513-21.42A16.545,16.545,0,0,1,80.5,36.4a2.074,2.074,0,0,0-2.124.5L37.4,77.878A2.07,2.07,0,0,0,36.9,80a16.579,16.579,0,0,1-15.7,21.853,16.958,16.958,0,0,1-1.805-.1l6.576-6.525a2.07,2.07,0,0,0,.612-1.469V87.908a2.07,2.07,0,0,0-.607-1.464l-5.927-5.927a2.07,2.07,0,0,0-1.464-.607H12.731a2.073,2.073,0,0,0-1.47.612L4.737,87.1a16.748,16.748,0,0,1-.1-1.805,16.579,16.579,0,0,1,21.854-15.7,2.069,2.069,0,0,0,2.124-.5L69.6,28.117a2.07,2.07,0,0,0,.5-2.124A16.577,16.577,0,0,1,85.793,4.14a16.919,16.919,0,0,1,1.859.1l-6.439,6.535a2.069,2.069,0,0,0-.6,1.452v5.857a2.068,2.068,0,0,0,.581,1.438l5.72,5.927a2.069,2.069,0,0,0,1.49.632h5.857a2.069,2.069,0,0,0,1.469-.612l6.524-6.575a16.748,16.748,0,0,1,.1,1.805A16.581,16.581,0,0,1,85.794,37.264Zm0,0" transform="translate(-0.5 0.001)" fill="#3a3a39"/>
  <path id="Path_64637" data-name="Path 64637" d="M210.438,184.032l-25.907,25.907a2.07,2.07,0,1,0,2.928,2.928l25.907-25.907a2.07,2.07,0,1,0-2.928-2.928Zm0,0" transform="translate(-145.95 -145.451)" fill="#3a3a39"/>
  <path id="Path_64638" data-name="Path 64638" d="M364.549,367.209a2.07,2.07,0,1,0,2.923-2.932l-18.661-18.6a2.07,2.07,0,0,0-2.923,2.932Zm0,0" transform="translate(-273.899 -273.631)" fill="#3a3a39"/>
</svg>
