<svg id="consult" xmlns="http://www.w3.org/2000/svg" width="111.676" height="98.646" viewBox="0 0 111.676 98.646">
  <path id="Path_64641" data-name="Path 64641" d="M119.035,36.4a19.958,19.958,0,0,0-10.548,5.619L105,45.5a5.6,5.6,0,0,0-5.718-.664l-9.678,4.4a3.722,3.722,0,0,0-1.092,6.021l4.68,4.681a1.861,1.861,0,0,0,1.316.545,1.819,1.819,0,0,0,.588-.095l2.048-.685L95.874,62.26a5.583,5.583,0,0,0-4,1.629c-1.531,1.533-5.347,7.817-2.631,10.529a3.508,3.508,0,0,0,2.577.952,14.284,14.284,0,0,0,7.951-3.583,5.567,5.567,0,0,0,1.629-4l2.556-1.276-.685,2.047a1.862,1.862,0,0,0,.451,1.9L108.4,75.15a3.717,3.717,0,0,0,2.631,1.091,3.8,3.8,0,0,0,.665-.059,3.723,3.723,0,0,0,2.726-2.122l4.4-9.678a5.612,5.612,0,0,0-.668-5.711l3.488-3.49a19.955,19.955,0,0,0,5.619-10.548c.611-3.35.227-5.664-1.171-7.06S122.387,35.787,119.035,36.4ZM95.01,56.5,91.144,52.63l9.678-4.4a1.844,1.844,0,0,1,1.463-.015l-6.464,6.464a1.832,1.832,0,0,0-.471,1.7Zm2.131,12.657a11.556,11.556,0,0,1-5.154,2.52,11.55,11.55,0,0,1,2.52-5.152,1.862,1.862,0,0,1,2.634,2.632Zm2.632-5.266-.361-.361.876-1.756,1.612,1.612-1.755.876Zm15.664-1.053-4.4,9.678-3.868-3.867.114-.344a1.948,1.948,0,0,0,.389.075,1.865,1.865,0,0,0,1.316-.545l6.462-6.463A1.861,1.861,0,0,1,115.437,62.835ZM123.6,43.96a16.256,16.256,0,0,1-4.594,8.582L107.665,63.9l-2.634-2.632,7.9-7.9L110.3,50.735l-7.9,7.9L99.767,56l11.354-11.344a16.254,16.254,0,0,1,8.58-4.588c2.419-.444,3.5-.122,3.763.139S124.035,41.542,123.6,43.96Zm0,0" transform="translate(-67.08 -27.715)" fill="#3a3a39"/>
  <path id="Path_64642" data-name="Path 64642" d="M205.341,64.355l-3.947-1.316-1.179,3.536L203.28,67.6l1.022,3.065,3.536-1.179-1.316-3.947A1.863,1.863,0,0,0,205.341,64.355Zm0,0" transform="translate(-153.633 -48.373)" fill="#3a3a39"/>
  <path id="Path_64643" data-name="Path 64643" d="M81.9,46.531V9.306A9.317,9.317,0,0,0,72.589,0H9.306A9.317,9.317,0,0,0,0,9.306V46.531a9.317,9.317,0,0,0,9.306,9.306h8.347L26.4,68.087a1.861,1.861,0,0,0,3.378-1.081V55.838H72.589A9.317,9.317,0,0,0,81.9,46.531ZM27.919,52.115a1.861,1.861,0,0,0-1.861,1.861V61.2l-5.93-8.3a1.862,1.862,0,0,0-1.515-.78H9.306a5.584,5.584,0,0,1-5.584-5.584V9.306A5.584,5.584,0,0,1,9.306,3.723H72.589a5.584,5.584,0,0,1,5.584,5.584V46.531a5.584,5.584,0,0,1-5.584,5.584Zm0,0" fill="#3a3a39"/>
  <path id="Path_64644" data-name="Path 64644" d="M212.867,152H196.115v3.723h16.751a5.584,5.584,0,0,1,5.584,5.584v33.5a5.584,5.584,0,0,1-5.584,5.584H196.115a1.86,1.86,0,0,0-1.43.67l-6.015,7.218v-6.026a1.861,1.861,0,0,0-1.861-1.861h-33.5a5.584,5.584,0,0,1-5.584-5.584V176.2H144v18.613a9.317,9.317,0,0,0,9.306,9.306h31.641v9.306a1.861,1.861,0,0,0,3.291,1.191l8.747-10.5h15.881a9.317,9.317,0,0,0,9.306-9.306v-33.5A9.317,9.317,0,0,0,212.867,152Zm0,0" transform="translate(-110.497 -116.636)" fill="#3a3a39"/>
  <path id="Path_64645" data-name="Path 64645" d="M200,256h52.115v3.723H200Zm0,0" transform="translate(-153.469 -196.44)" fill="#3a3a39"/>
  <path id="Path_64646" data-name="Path 64646" d="M200,304h52.115v3.723H200Zm0,0" transform="translate(-153.469 -233.272)" fill="#3a3a39"/>
  <path id="Path_64647" data-name="Path 64647" d="M376,208h11.168v3.723H376Zm0,0" transform="translate(-288.521 -159.607)" fill="#3a3a39"/>
</svg>
