<svg id="diagramm" xmlns="http://www.w3.org/2000/svg" width="111.843" height="111.901" viewBox="0 0 111.843 111.901">
  <g id="Group_6746" data-name="Group 6746" transform="translate(0)">
    <g id="Group_6745" data-name="Group 6745">
      <path id="Path_64632" data-name="Path 64632" d="M106.376,231.086v-68.97a1.864,1.864,0,0,0-1.864-1.864H85.872a1.864,1.864,0,0,0-1.864,1.864v68.97H80.28V188.213a1.864,1.864,0,0,0-1.864-1.864H59.775a1.864,1.864,0,0,0-1.864,1.864v42.873H54.183V169.572a1.864,1.864,0,0,0-1.864-1.864H33.679a1.864,1.864,0,0,0-1.864,1.864v61.513H28.087V195.669a1.864,1.864,0,0,0-1.864-1.864H7.582a1.864,1.864,0,0,0-1.864,1.864v35.417H.126v3.728H111.968v-3.728Zm-82.018,0H9.446V197.533H24.359Zm26.1,0H35.543V171.436H50.455Zm26.1,0H61.639V190.077H76.552Zm26.1,0H87.736V163.98h14.912Z" transform="translate(-0.126 -122.912)" fill="#3a3a39"/>
      <path id="Path_64633" data-name="Path 64633" d="M36.3,50.707A9.32,9.32,0,0,0,49.216,37.793L62.409,24.6a9.225,9.225,0,0,0,5.109,1.558,9.355,9.355,0,0,0,1.637-.144,9.254,9.254,0,0,0,4.731-2.364l11.059,8.5a9.32,9.32,0,1,0,16.463-1.816l13.19-13.19a9.348,9.348,0,1,0-2.636-2.636L98.773,27.7a9.32,9.32,0,0,0-11.729,1.184c-.035.035-.056.076-.089.11l-10.9-8.377a9.32,9.32,0,1,0-16.288,1.351L46.58,35.157A9.32,9.32,0,1,0,36.3,50.707Zm83.43-46.92a5.592,5.592,0,1,1-5.592,5.592A5.592,5.592,0,0,1,119.73,3.787ZM89.678,31.523a5.593,5.593,0,1,1,7.91,7.908,5.73,5.73,0,0,1-7.907,0A5.592,5.592,0,0,1,89.678,31.523ZM62.957,13.628h0a5.557,5.557,0,0,1,3.609-2.3,5.833,5.833,0,0,1,.982-.084,5.593,5.593,0,1,1-4.592,2.385ZM37.485,38.979l0,0a5.593,5.593,0,0,1,7.907,7.911,5.73,5.73,0,0,1-7.907,0A5.592,5.592,0,0,1,37.485,38.979Z" transform="translate(-24.664 0)" fill="#3a3a39"/>
    </g>
  </g>
</svg>
