<svg id="industrial-robot" xmlns="http://www.w3.org/2000/svg" width="111.453" height="111.65" viewBox="0 0 111.453 111.65">
  <path id="Path_64648" data-name="Path 64648" d="M115.543,335.848a5.092,5.092,0,1,1-5.092,5.092A5.1,5.1,0,0,1,115.543,335.848Zm0,6.912a1.821,1.821,0,1,0-1.821-1.821A1.823,1.823,0,0,0,115.543,342.76Z" transform="translate(-33.169 -262.611)" fill="#3a3a39"/>
  <path id="Path_64649" data-name="Path 64649" d="M97.287,37.735a7.962,7.962,0,1,1,7.962,7.962A7.971,7.971,0,0,1,97.287,37.735Zm12.654,0a4.691,4.691,0,1,0-4.691,4.691A4.7,4.7,0,0,0,109.941,37.735Z" transform="translate(-22.875 -23.281)" fill="#3a3a39"/>
  <path id="Path_64650" data-name="Path 64650" d="M267.758,135.79a5.092,5.092,0,1,1-5.092,5.092A5.1,5.1,0,0,1,267.758,135.79Zm0,6.912a1.821,1.821,0,1,0-1.821-1.821A1.823,1.823,0,0,0,267.758,142.7Z" transform="translate(-218.577 -106.179)" fill="#3a3a39"/>
  <path id="Path_64651" data-name="Path 64651" d="M1.654,63.986l10.53-10.528V46.091a4.064,4.064,0,0,1-3.436-4.008,1.635,1.635,0,0,1,3.271,0,.791.791,0,0,0,.79.79H22.973a.791.791,0,0,0,.79-.79V32.537l-3.938-1.823a4.6,4.6,0,0,0-3.868,0l-1.972.913A3.4,3.4,0,0,0,12.019,34.7a1.635,1.635,0,1,1-3.271,0,6.683,6.683,0,0,1,3.863-6.045l1.972-.913a7.862,7.862,0,0,1,6.617,0l4.48,2.074,14.562-1.491a11.35,11.35,0,0,1,20.54,4.234l12.906-6.915a14.458,14.458,0,0,1-5.141-8.936l-8.26,5.758a1.636,1.636,0,1,1-1.871-2.683l10.054-7.01A14.453,14.453,0,1,1,90.494,26.7l2.981,42.935A14.4,14.4,0,0,1,97.28,79.4V90.581a7.534,7.534,0,0,1,7.619,5.76c2.508-.062,4.9.888,5.519,3.6L111.792,106a4.673,4.673,0,0,1-4.511,5.649H70.631a1.635,1.635,0,0,1,0-3.271h36.65a1.368,1.368,0,0,0,1.321-1.654l-1.375-6.058a1.347,1.347,0,0,0-1.321-1.055H59.743a1.348,1.348,0,0,0-1.321,1.055l-1.374,6.057a1.368,1.368,0,0,0,1.321,1.654h4.339a1.635,1.635,0,0,1,0,3.271H58.368A4.672,4.672,0,0,1,53.858,106l1.374-6.058c.616-2.714,3.011-3.664,5.519-3.6a7.532,7.532,0,0,1,7.619-5.76V79.4a14.4,14.4,0,0,1,3.805-9.762L75.02,28.643,60.883,36.218a11.349,11.349,0,0,1-20.641,4.861L27.035,39.726v2.357A4.064,4.064,0,0,1,23.6,46.091v7.366L34.13,63.986a4.248,4.248,0,0,1,0,5.94,31.221,31.221,0,0,1-7.972,5.332c-3.632,1.9-7.209-2.981-4.294-5.871l2.457-2.436-5.1-5.1a1.886,1.886,0,0,0-2.663,0L11.415,67l2.607,2.808c2.791,3.006-.991,7.766-4.556,5.684a35.131,35.131,0,0,1-7.46-5.213A4.319,4.319,0,0,1,1.654,63.986ZM94.009,14.455A11.184,11.184,0,1,0,82.825,25.639,11.2,11.2,0,0,0,94.009,14.455ZM82.825,28.91a14.4,14.4,0,0,1-4.495-.719L75.647,66.858a14.4,14.4,0,0,1,14.356,0L87.318,28.191a14.4,14.4,0,0,1-4.494.719ZM64.176,96.341h37.3a4.131,4.131,0,0,0-3.787-2.489H67.963A4.131,4.131,0,0,0,64.176,96.341Zm7.465-5.76H94.009V79.4a11.184,11.184,0,1,0-22.368,0V90.581ZM49.632,42.787A8.084,8.084,0,1,0,41.548,34.7,8.093,8.093,0,0,0,49.632,42.787ZM38.661,37.629a11.338,11.338,0,0,1,0-5.852L27.035,32.968v3.47ZM15.455,46.145V52.5h4.874V46.145ZM3.967,67.612a32.885,32.885,0,0,0,7.149,5.053c.456.267.772-.352.509-.634l-3.68-3.963A1.636,1.636,0,0,1,7.988,65.8l6.259-6.259a5.16,5.16,0,0,1,7.289,0L27.8,65.8a1.651,1.651,0,0,1,0,2.318L24.167,71.71c-.278.275.021.887.475.649a27.989,27.989,0,0,0,7.175-4.747.937.937,0,0,0,0-1.314L21.287,55.771H14.5L3.967,66.3A.937.937,0,0,0,3.967,67.612Z" transform="translate(-0.451 0)" fill="#3a3a39"/>
</svg>
