<svg xmlns="http://www.w3.org/2000/svg" width="52.913" height="70.535" viewBox="0 0 52.913 70.535">
  <g id="Group_6928" data-name="Group 6928" transform="translate(-658 -1191)">
    <g id="Group_6921" data-name="Group 6921" transform="translate(680.138 1207.184)">
      <g id="Group_6920" data-name="Group 6920">
        <g id="Group_6913" data-name="Group 6913">
          <g id="Group_6911" data-name="Group 6911" transform="translate(0 5.303)">
            <path id="Path_65786" data-name="Path 65786" d="M236.911,158.041H225.69a1.033,1.033,0,0,1,0-2.066h11.22a1.033,1.033,0,0,1,0,2.066Z" transform="translate(-224.657 -155.975)" fill="#3a3a39"/>
          </g>
          <g id="Group_6912" data-name="Group 6912">
            <path id="Path_65787" data-name="Path 65787" d="M248.131,119.544H225.69a1.033,1.033,0,1,1,0-2.066h22.441a1.033,1.033,0,0,1,0,2.066Z" transform="translate(-224.657 -117.478)" fill="#3a3a39"/>
          </g>
        </g>
        <g id="Group_6916" data-name="Group 6916" transform="translate(0 17.315)">
          <g id="Group_6914" data-name="Group 6914" transform="translate(0 5.304)">
            <path id="Path_65788" data-name="Path 65788" d="M236.911,283.728H225.69a1.033,1.033,0,0,1,0-2.066h11.22a1.033,1.033,0,0,1,0,2.066Z" transform="translate(-224.657 -281.662)" fill="#3a3a39"/>
          </g>
          <g id="Group_6915" data-name="Group 6915">
            <path id="Path_65789" data-name="Path 65789" d="M248.131,245.23H225.69a1.033,1.033,0,0,1,0-2.066h22.441a1.033,1.033,0,0,1,0,2.066Z" transform="translate(-224.657 -243.164)" fill="#3a3a39"/>
          </g>
        </g>
        <g id="Group_6919" data-name="Group 6919" transform="translate(0 34.63)">
          <g id="Group_6917" data-name="Group 6917" transform="translate(0 5.304)">
            <path id="Path_65790" data-name="Path 65790" d="M236.911,409.415H225.69a1.033,1.033,0,0,1,0-2.066h11.22a1.033,1.033,0,0,1,0,2.066Z" transform="translate(-224.657 -407.349)" fill="#3a3a39"/>
          </g>
          <g id="Group_6918" data-name="Group 6918">
            <path id="Path_65791" data-name="Path 65791" d="M248.131,370.917H225.69a1.033,1.033,0,1,1,0-2.066h22.441a1.033,1.033,0,1,1,0,2.066Z" transform="translate(-224.657 -368.851)" fill="#3a3a39"/>
          </g>
        </g>
      </g>
    </g>
    <g id="Group_6922" data-name="Group 6922" transform="translate(672.442 1191)">
      <path id="Path_65792" data-name="Path 65792" d="M189.739,9.733H171.87a3.084,3.084,0,0,1-3.08-3.08V3.08A3.084,3.084,0,0,1,171.87,0h17.868a3.084,3.084,0,0,1,3.08,3.08V6.653a3.083,3.083,0,0,1-3.08,3.08ZM171.87,2.066a1.015,1.015,0,0,0-1.014,1.014V6.653a1.015,1.015,0,0,0,1.014,1.014h17.868a1.015,1.015,0,0,0,1.014-1.014V3.08a1.015,1.015,0,0,0-1.014-1.014Z" transform="translate(-168.79 0)" fill="#3a3a39"/>
    </g>
    <g id="Group_6926" data-name="Group 6926" transform="translate(664.267 1205.799)">
      <g id="Group_6923" data-name="Group 6923">
        <path id="Path_65793" data-name="Path 65793" d="M116.814,117.564h-4.592a2.777,2.777,0,0,1-2.774-2.774V110.2a2.777,2.777,0,0,1,2.774-2.774h4.592a2.777,2.777,0,0,1,2.774,2.774v4.592A2.777,2.777,0,0,1,116.814,117.564Zm-4.592-8.073a.708.708,0,0,0-.708.708v4.592a.708.708,0,0,0,.708.708h4.592a.708.708,0,0,0,.708-.708V110.2a.708.708,0,0,0-.708-.708Z" transform="translate(-109.448 -107.424)" fill="#3a3a39"/>
      </g>
      <g id="Group_6924" data-name="Group 6924" transform="translate(0 17.315)">
        <path id="Path_65794" data-name="Path 65794" d="M116.814,243.25h-4.592a2.777,2.777,0,0,1-2.774-2.774v-4.592a2.777,2.777,0,0,1,2.774-2.774h4.592a2.777,2.777,0,0,1,2.774,2.774v4.592A2.777,2.777,0,0,1,116.814,243.25Zm-4.592-8.074a.708.708,0,0,0-.708.708v4.592a.708.708,0,0,0,.708.708h4.592a.708.708,0,0,0,.708-.708v-4.592a.708.708,0,0,0-.708-.708Z" transform="translate(-109.448 -233.11)" fill="#3a3a39"/>
      </g>
      <g id="Group_6925" data-name="Group 6925" transform="translate(0 34.63)">
        <path id="Path_65795" data-name="Path 65795" d="M116.814,368.936h-4.592a2.777,2.777,0,0,1-2.774-2.774V361.57a2.777,2.777,0,0,1,2.774-2.774h4.592a2.777,2.777,0,0,1,2.774,2.774v4.592A2.777,2.777,0,0,1,116.814,368.936Zm-4.592-8.074a.708.708,0,0,0-.708.708v4.592a.708.708,0,0,0,.708.708h4.592a.708.708,0,0,0,.708-.708V361.57a.708.708,0,0,0-.708-.708Z" transform="translate(-109.448 -358.796)" fill="#3a3a39"/>
      </g>
    </g>
    <g id="Group_6927" data-name="Group 6927" transform="translate(658 1194.833)">
      <path id="Path_65796" data-name="Path 65796" d="M112.395,94.528H68.434a4.481,4.481,0,0,1-4.476-4.476V32.3a4.481,4.481,0,0,1,4.476-4.476h6.192a1.033,1.033,0,1,1,0,2.066H68.434a2.412,2.412,0,0,0-2.41,2.409V90.051a2.412,2.412,0,0,0,2.41,2.41h43.961a2.412,2.412,0,0,0,2.41-2.41V32.3a2.412,2.412,0,0,0-2.41-2.409H106.2a1.033,1.033,0,0,1,0-2.066h6.192a4.481,4.481,0,0,1,4.476,4.476V90.051A4.481,4.481,0,0,1,112.395,94.528Z" transform="translate(-63.958 -27.826)" fill="#3a3a39"/>
    </g>
  </g>
</svg>
