<svg xmlns="http://www.w3.org/2000/svg" width="69.54" height="69.52" viewBox="0 0 69.54 69.52">
  <g id="project-management" transform="translate(0 -0.067)">
    <g id="Group_6930" data-name="Group 6930" transform="translate(0 0.354)">
      <g id="Group_6929" data-name="Group 6929" transform="translate(0)">
        <path id="Path_65797" data-name="Path 65797" d="M68.549,20.021h0l0,0-4.489-.64a1.154,1.154,0,0,1-.53-2.065l3.628-2.721a1.154,1.154,0,0,0,.231-1.615L63.233,7.438a1.154,1.154,0,0,0-1.615-.231L57.991,9.928a1.154,1.154,0,0,1-1.839-1.086l.642-4.489a1.154,1.154,0,0,0-.978-1.306h0l-6.849-.978a1.154,1.154,0,0,0-1.306.978h0l-.642,4.489a1.154,1.154,0,0,1-2.065.53l-2.72-3.628a1.154,1.154,0,0,0-1.615-.231l-3.467,2.6a22.326,22.326,0,0,0-4.719,0A21.924,21.924,0,0,0,13.1,26.467c-.031.327-.043.651-.059.975h-.346a1.154,1.154,0,0,0-1.128.923l-.8,3.792-3.194-2.2a1.154,1.154,0,0,0-1.471.134L2.641,33.55a1.154,1.154,0,0,0-.134,1.47L4.7,38.208l-3.793.8A1.154,1.154,0,0,0,0,40.135V44.75a1.154,1.154,0,0,0,.916,1.13l3.793.8L2.517,49.865a1.154,1.154,0,0,0,.134,1.47L6.112,54.8a1.154,1.154,0,0,0,1.471.134l3.188-2.2.8,3.793a1.154,1.154,0,0,0,1.128.923h4.615a1.154,1.154,0,0,0,1.13-.916l.8-3.793,3.188,2.192A1.154,1.154,0,0,0,23.9,54.8L25.69,53v3.289A4.6,4.6,0,0,0,28,60.263v6.411a4.616,4.616,0,0,0,4.615,4.615h4.615a4.616,4.616,0,0,0,4.615-4.615V60.263a4.6,4.6,0,0,0,2.308-3.974V51.722a5.654,5.654,0,0,1,2.669-4.71,22.144,22.144,0,0,0,2.716-2.077L48,43.216a19.643,19.643,0,0,1-2.431,1.859,7.948,7.948,0,0,0-3.722,6.647v4.567A2.308,2.308,0,0,1,39.536,58.6H30.305A2.308,2.308,0,0,1,28,56.289V51.626a7.763,7.763,0,0,0-3.66-6.512A19.557,19.557,0,0,1,34.673,9a1.256,1.256,0,0,0-.045.126,1.154,1.154,0,0,0,.22.855l2.72,3.627a1.13,1.13,0,0,1,.069,1.281,1.147,1.147,0,0,1-1.154.555L31.995,14.8a1.154,1.154,0,0,0-1.306.978h0l-.98,6.853a1.154,1.154,0,0,0,.978,1.306h0l4.489.642a1.154,1.154,0,0,1,.53,2.065l-3.627,2.72a1.154,1.154,0,0,0-.231,1.615L36,36.519a1.154,1.154,0,0,0,1.615.231l3.628-2.72a1.154,1.154,0,0,1,1.834,1.086l-.64,4.489a1.154,1.154,0,0,0,.978,1.306h0l6.854.98a1.278,1.278,0,0,0,.163.01,1.154,1.154,0,0,0,1.143-.99l.64-4.489a1.154,1.154,0,0,1,2.065-.53L57,39.519a1.154,1.154,0,0,0,1.615.231L64.159,35.6a1.154,1.154,0,0,0,.231-1.615l-2.72-3.627a1.134,1.134,0,0,1-.069-1.281,1.12,1.12,0,0,1,1.154-.554l4.489.64a1.154,1.154,0,0,0,1.306-.978h0l.978-6.854A1.154,1.154,0,0,0,68.549,20.021ZM30.305,60.9h9.231v2.308H30.305Zm0,4.615h9.231v1.154a2.308,2.308,0,0,1-2.308,2.308H32.613a2.308,2.308,0,0,1-2.308-2.308Zm-9.186-19.9a21.809,21.809,0,0,0,1.972,1.437,5.632,5.632,0,0,1,2.325,2.953l-2.475,2.47-2.4-1.652a2.308,2.308,0,0,0-3.568,1.425l-.6,2.881H13.63l-.6-2.877a2.308,2.308,0,0,0-3.568-1.425l-2.4,1.648-2.1-2.1,1.651-2.4a2.308,2.308,0,0,0-1.424-3.569l-2.877-.606V41.072l2.877-.606A2.308,2.308,0,0,0,6.609,36.9L4.957,34.5l2.1-2.1,2.4,1.652a2.308,2.308,0,0,0,3.567-1.426l.2-.96a21.974,21.974,0,0,0,.915,3.913,6.923,6.923,0,1,0,6.977,10.039ZM19.327,44A4.609,4.609,0,1,1,15,37.827h.044A21.853,21.853,0,0,0,19.327,44ZM66.421,26.708l-3.346-.478a3.462,3.462,0,0,0-3.259,5.5l2.027,2.7-3.692,2.769-2.029-2.7a3.462,3.462,0,0,0-6.2,1.587l-.467,3.351-4.568-.653.478-3.346a3.462,3.462,0,0,0-5.5-3.26l-2.7,2.027-2.769-3.692,2.7-2.029a3.462,3.462,0,0,0-1.587-6.2l-3.346-.478.653-4.568,3.346.478a3.462,3.462,0,0,0,3.26-5.5L37.387,9.516l3.692-2.769,2.029,2.7a3.462,3.462,0,0,0,6.2-1.587l.478-3.346,4.568.652-.478,3.346a3.462,3.462,0,0,0,5.5,3.259l2.7-2.027,2.769,3.692-2.7,2.029a3.462,3.462,0,0,0,1.587,6.2l3.346.478Z" transform="translate(0 -2.057)" fill="#3a3a39"/>
      </g>
    </g>
    <g id="Group_6932" data-name="Group 6932" transform="translate(40.385 11.044)">
      <g id="Group_6931" data-name="Group 6931">
        <path id="Path_65798" data-name="Path 65798" d="M289.231,76.171a9.231,9.231,0,1,0,9.231,9.231A9.231,9.231,0,0,0,289.231,76.171Zm0,16.154a6.923,6.923,0,1,1,6.923-6.923A6.923,6.923,0,0,1,289.231,92.325Z" transform="translate(-280 -76.171)" fill="#3a3a39"/>
      </g>
    </g>
    <g id="Group_6934" data-name="Group 6934" transform="translate(33.767 51.124)">
      <g id="Group_6933" data-name="Group 6933">
        <rect id="Rectangle_3499" data-name="Rectangle 3499" width="2.308" height="3.462" fill="#3a3a39"/>
      </g>
    </g>
    <g id="Group_6936" data-name="Group 6936" transform="translate(18.757 13.224)">
      <g id="Group_6935" data-name="Group 6935">
        <path id="Path_65799" data-name="Path 65799" d="M141.161,117.859a13.847,13.847,0,0,1-2.338-24.616l-1.233-1.952a16.154,16.154,0,0,0,2.734,28.715,7.366,7.366,0,0,1,4.731,6.877h2.308A9.654,9.654,0,0,0,141.161,117.859Z" transform="translate(-130.044 -91.291)" fill="#3a3a39"/>
      </g>
    </g>
    <g id="Group_6938" data-name="Group 6938" transform="translate(56.844 43.047)">
      <g id="Group_6937" data-name="Group 6937">
        <rect id="Rectangle_3500" data-name="Rectangle 3500" width="8.077" height="2.308" fill="#3a3a39"/>
      </g>
    </g>
    <g id="Group_6940" data-name="Group 6940" transform="translate(54.952 49.083)">
      <g id="Group_6939" data-name="Group 6939" transform="translate(0 0)">
        <rect id="Rectangle_3501" data-name="Rectangle 3501" width="2.308" height="9.012" transform="matrix(0.64, -0.768, 0.768, 0.64, 0, 1.773)" fill="#3a3a39"/>
      </g>
    </g>
    <g id="Group_6942" data-name="Group 6942" transform="translate(49.921 52.278)">
      <g id="Group_6941" data-name="Group 6941">
        <rect id="Rectangle_3502" data-name="Rectangle 3502" width="2.308" height="8.077" fill="#3a3a39"/>
      </g>
    </g>
    <g id="Group_6944" data-name="Group 6944" transform="translate(1.178 17.696)">
      <g id="Group_6943" data-name="Group 6943" transform="translate(0 0)">
        <rect id="Rectangle_3503" data-name="Rectangle 3503" width="9.515" height="2.307" transform="translate(0 2.307) rotate(-14.035)" fill="#3a3a39"/>
      </g>
    </g>
    <g id="Group_6946" data-name="Group 6946" transform="translate(3.095 6.34)">
      <g id="Group_6945" data-name="Group 6945" transform="translate(0 0)">
        <rect id="Rectangle_3504" data-name="Rectangle 3504" width="2.307" height="9.926" transform="matrix(0.581, -0.814, 0.814, 0.581, 0, 1.877)" fill="#3a3a39"/>
      </g>
    </g>
    <g id="Group_6948" data-name="Group 6948" transform="translate(12.981 0.067)">
      <g id="Group_6947" data-name="Group 6947" transform="translate(0 0)">
        <rect id="Rectangle_3505" data-name="Rectangle 3505" width="2.308" height="9.528" transform="matrix(0.969, -0.248, 0.248, 0.969, 0, 0.572)" fill="#3a3a39"/>
      </g>
    </g>
  </g>
</svg>
