<svg xmlns="http://www.w3.org/2000/svg" width="69.301" height="69.298" viewBox="0 0 69.301 69.298">
  <g id="rocket_1_" data-name="rocket (1)" transform="translate(0 -0.001)">
    <path id="Path_65800" data-name="Path 65800" d="M24.937,55.052a1.45,1.45,0,0,1-1.022-.422L5.357,36.072A1.446,1.446,0,0,1,5.3,34.088L19.209,18.507C28.931,7.133,44.763-.227,58.569.007a1.442,1.442,0,0,1,1.409,1.409C60.3,15.23,52.854,31.054,41.451,40.8L25.9,54.685A1.43,1.43,0,0,1,24.937,55.052ZM8.363,35,24.992,51.625l14.562-13C49.967,29.725,56.883,15.542,57.1,2.891c-12.65.211-26.831,7.127-35.713,17.516Z" transform="translate(9.312 0)" fill="#3a3a39"/>
    <path id="Path_65801" data-name="Path 65801" d="M16.019,40.764a1.34,1.34,0,0,1-.413-.064,1.428,1.428,0,0,1-1.022-1.115L12.6,25.763a1.444,1.444,0,1,1,2.859-.41l1.548,10.8a33.712,33.712,0,0,0,7.871-21.538,1.444,1.444,0,0,1,2.888,0A36.567,36.567,0,0,1,17.136,40.3a1.623,1.623,0,0,1-1.117.465Z" transform="translate(23.761 24.857)" fill="#3a3a39"/>
    <path id="Path_65802" data-name="Path 65802" d="M16.52,21.335a1.246,1.246,0,0,1-.205-.014L2.492,19.34a1.444,1.444,0,0,1-.809-2.457A36.65,36.65,0,0,1,27.464,6.155a1.444,1.444,0,0,1,0,2.888A33.7,33.7,0,0,0,5.911,16.911l10.814,1.551a1.444,1.444,0,0,1-.205,2.873Z" transform="translate(2.368 11.616)" fill="#3a3a39"/>
    <path id="Path_65803" data-name="Path 65803" d="M21.849,18.8a7.216,7.216,0,1,1,5.105-2.111A7.2,7.2,0,0,1,21.849,18.8Zm0-11.544a4.328,4.328,0,1,0,3.064,1.265,4.322,4.322,0,0,0-3.064-1.265Zm4.083,8.414h.029Z" transform="translate(27.624 8.242)" fill="#3a3a39"/>
    <path id="Path_65804" data-name="Path 65804" d="M1.444,39.1A1.441,1.441,0,0,1,.061,37.24C.535,35.661,4.776,21.7,7.866,18.613A8.925,8.925,0,1,1,20.488,31.234C17.4,34.324,3.439,38.566,1.86,39.039a1.587,1.587,0,0,1-.416.058Zm12.734-20.21a6.028,6.028,0,0,0-4.271,1.764C8.242,22.32,5.469,29.773,3.639,35.459c5.683-1.831,13.138-4.6,14.8-6.269a6.034,6.034,0,0,0-4.265-10.3Z" transform="translate(0 30.202)" fill="#3a3a39"/>
  </g>
</svg>
