<svg xmlns="http://www.w3.org/2000/svg" width="32.649" height="32.649" viewBox="0 0 32.649 32.649">
  <g id="Group_2165" data-name="Group 2165" transform="translate(-0.001)">
    <g id="Group_2162" data-name="Group 2162" transform="translate(0.001)">
      <g id="Group_2161" data-name="Group 2161" transform="translate(0)">
        <path id="Path_1637" data-name="Path 1637" d="M32.65,16.869V.544A.544.544,0,0,0,32.106,0H7.075a.544.544,0,0,0-.544.544V6.53H.545A.544.544,0,0,0,0,7.074V23.4a.544.544,0,0,0,.544.544H4.9a.536.536,0,0,0,.122-.024L8.2,32.3a.544.544,0,0,0,.7.316l.006,0,23.4-9.25a.544.544,0,0,0,.307-.706v0l-2.058-5.241h1.553A.544.544,0,0,0,32.65,16.869ZM1.089,22.854V7.618H24.56L21.635,8.706H2.722a.544.544,0,0,0-.544.544V21.222a.544.544,0,0,0,.544.544H4.2l.412,1.088ZM25.576,6.53H9.8V3.265H29.385V14.148H29.27L26.627,7.419a.544.544,0,0,0-.507-.341v0A.544.544,0,0,0,25.576,6.53ZM7.039,10.94a2.173,2.173,0,0,0-1.795,3.866l-1.978.736V9.795H18.71L8.653,13.538A2.163,2.163,0,0,0,7.039,10.94Zm.58,2.12a1.088,1.088,0,1,1-1.088-1.088A1.088,1.088,0,0,1,7.619,13.06ZM3.791,20.678H3.266V19.293Zm27.61,1.87L9.02,31.4l-5.6-14.754L25.809,8.315Zm.161-6.223H30.125L29.7,15.236h.232a.544.544,0,0,0,.544-.544V2.721a.544.544,0,0,0-.544-.544H9.251a.544.544,0,0,0-.544.544V6.53H7.619V1.088H31.562Z" transform="translate(-0.001)" fill="#fff"/>
      </g>
    </g>
    <g id="Group_2164" data-name="Group 2164" transform="translate(4.896 9.794)">
      <g id="Group_2163" data-name="Group 2163">
        <path id="Path_1638" data-name="Path 1638" d="M96.969,155.768l-.519-1.36a.532.532,0,0,0-.182-.478l-3.652-9.588a.544.544,0,0,0-.7-.316l-.006,0-19.589,7.618a.544.544,0,0,0-.312.7l4.353,11.427a.544.544,0,0,0,.51.35.533.533,0,0,0,.2-.037l19.589-7.618A.544.544,0,0,0,96.969,155.768ZM78.072,154a.544.544,0,0,0-.112.3l-.53,8.483-.246.1-3.966-10.41,18.575-7.222,3,7.863-5.69-3.064a.544.544,0,0,0-.8.479v1.16l-4.051-2.7a.544.544,0,0,0-.841.381l-.974,7.3-3.6-2.766A.544.544,0,0,0,78.072,154Zm.475,8.346.435-6.96,5.863,4.511Zm7.454-2.9a.512.512,0,0,0-.092-.106l-2.482-1.909.941-7.062,4.171,2.781a.544.544,0,0,0,.846-.453v-1.266l6,3.228.378.991Z" transform="translate(-71.972 -143.99)" fill="#fff"/>
      </g>
    </g>
  </g>
</svg>
