<svg xmlns="http://www.w3.org/2000/svg" xmlns:xlink="http://www.w3.org/1999/xlink" width="87" height="86.616" viewBox="0 0 87 86.616">
  <defs>
    <clipPath id="clip-path">
      <path id="Path_294" data-name="Path 294" d="M0,49.136H87V-37.48H0Z" transform="translate(0 37.48)" fill="#fff"/>
    </clipPath>
  </defs>
  <g id="Group_2133" data-name="Group 2133" transform="translate(0 37.48)">
    <g id="Group_1932" data-name="Group 1932" transform="translate(0 -37.48)" clip-path="url(#clip-path)">
      <g id="Group_1930" data-name="Group 1930" transform="translate(0.001 -0.002)">
        <path id="Path_292" data-name="Path 292" d="M48.651,12.75h0l0,0-5.616-.8a1.443,1.443,0,0,1-.663-2.584l4.539-3.4A1.445,1.445,0,0,0,47.2,3.936L42-2.993a1.445,1.445,0,0,0-2.022-.289L35.442.123a1.441,1.441,0,0,1-2.022-.277,1.448,1.448,0,0,1-.28-1.082l.8-5.616a1.444,1.444,0,0,0-1.225-1.634h0L24.148-9.711a1.444,1.444,0,0,0-1.634,1.225h0l-.8,5.616a1.443,1.443,0,0,1-1.634,1.225,1.439,1.439,0,0,1-.95-.562l-3.4-4.539a1.442,1.442,0,0,0-2.02-.289L9.367-3.778a27.71,27.71,0,0,0-5.9,0A27.426,27.426,0,0,0-20.723,20.815c-.039.409-.053.813-.074,1.22h-.432a1.44,1.44,0,0,0-1.412,1.156l-1,4.742-4-2.755a1.447,1.447,0,0,0-1.842.166l-4.331,4.331a1.446,1.446,0,0,0-.166,1.84l2.743,3.989-4.744,1a1.44,1.44,0,0,0-1.135,1.412V43.69A1.438,1.438,0,0,0-35.964,45.1l4.744,1-2.743,3.989a1.446,1.446,0,0,0,.166,1.84l4.331,4.331a1.444,1.444,0,0,0,1.842.166l3.989-2.75,1,4.747a1.444,1.444,0,0,0,1.412,1.153h5.775a1.44,1.44,0,0,0,1.414-1.146l1-4.744,3.989,2.743a1.444,1.444,0,0,0,1.84-.169l2.242-2.249v4.116A5.756,5.756,0,0,0-2.082,63.1v8.021a5.772,5.772,0,0,0,5.773,5.773H9.466a5.774,5.774,0,0,0,5.775-5.773V63.1a5.759,5.759,0,0,0,2.886-4.971V52.411a7.073,7.073,0,0,1,3.339-5.893,27.633,27.633,0,0,0,3.4-2.6l-1.925-2.152A24.5,24.5,0,0,1,19.9,44.094a9.941,9.941,0,0,0-4.657,8.317v5.715a2.888,2.888,0,0,1-2.889,2.886H.8a2.886,2.886,0,0,1-2.886-2.886V52.291a9.714,9.714,0,0,0-4.58-8.146A24.467,24.467,0,0,1,6.268-1.04c-.021.051-.039.1-.055.157A1.453,1.453,0,0,0,6.487.187l3.4,4.536a1.411,1.411,0,0,1,.086,1.6,1.438,1.438,0,0,1-1.444.7l-5.616-.8A1.446,1.446,0,0,0,1.283,7.442v0L.058,16.018a1.444,1.444,0,0,0,1.225,1.634h0l5.616.8a1.443,1.443,0,0,1,.663,2.584l-4.536,3.4a1.442,1.442,0,0,0-.289,2.02l5.2,6.931a1.445,1.445,0,0,0,2.022.287l4.539-3.4a1.445,1.445,0,0,1,2.295,1.359l-.8,5.616a1.444,1.444,0,0,0,1.223,1.634h0l8.574,1.225a1.5,1.5,0,0,0,.2.014,1.444,1.444,0,0,0,1.431-1.239l.8-5.616a1.444,1.444,0,0,1,2.584-.663l3.4,4.539a1.445,1.445,0,0,0,2.022.289l6.928-5.2a1.445,1.445,0,0,0,.289-2.022l-3.4-4.536a1.416,1.416,0,0,1-.088-1.6,1.4,1.4,0,0,1,1.444-.693l5.616.8a1.444,1.444,0,0,0,1.634-1.223h0l1.225-8.576a1.444,1.444,0,0,0-1.225-1.634M.8,63.9H12.352v2.886H.8Zm0,5.775H12.352v1.444a2.886,2.886,0,0,1-2.886,2.886H3.691A2.886,2.886,0,0,1,.8,71.119ZM-10.688,44.781a27.638,27.638,0,0,0,2.466,1.8,7.041,7.041,0,0,1,2.91,3.7l-3.1,3.09-3-2.066a2.887,2.887,0,0,0-4.017.737,2.9,2.9,0,0,0-.448,1.045l-.756,3.605h-3.432l-.756-3.6a2.888,2.888,0,0,0-3.42-2.232,2.9,2.9,0,0,0-1.045.448l-3,2.061-2.63-2.623,2.066-3a2.887,2.887,0,0,0-.737-4.017,2.878,2.878,0,0,0-1.045-.448l-3.6-.758V39.086l3.6-.758A2.886,2.886,0,0,0-28.4,34.906a2.909,2.909,0,0,0-.441-1.033l-2.068-3,2.63-2.625,3,2.066a2.885,2.885,0,0,0,4.014-.74,2.9,2.9,0,0,0,.448-1.045l.252-1.2a27.621,27.621,0,0,0,1.144,4.895,8.66,8.66,0,0,0-7.573,9.625,8.661,8.661,0,0,0,9.625,7.575,8.662,8.662,0,0,0,6.679-4.64m-2.242-2.036a5.764,5.764,0,0,1-7.377,3.473,5.766,5.766,0,0,1-3.476-7.377,5.767,5.767,0,0,1,5.438-3.813h.055a27.3,27.3,0,0,0,5.359,7.716M45.989,21.118l-4.188-.6a4.331,4.331,0,0,0-4.077,6.887l2.537,3.381-4.62,3.464-2.537-3.381a4.332,4.332,0,0,0-7.753,1.985l-.585,4.192-5.715-.816.6-4.188a4.331,4.331,0,0,0-6.887-4.077L9.383,30.5l-3.467-4.62L9.3,23.346a4.329,4.329,0,0,0-1.985-7.751L3.127,15l.816-5.715,4.188.6a4.332,4.332,0,0,0,4.079-6.887L9.662-.393l4.62-3.464,2.54,3.381a4.331,4.331,0,0,0,6.062.869,4.329,4.329,0,0,0,1.689-2.852l.6-4.188,5.715.816-.6,4.185a4.334,4.334,0,0,0,3.674,4.9,4.332,4.332,0,0,0,3.212-.825L40.556-.1l3.467,4.62L40.639,7.053a4.332,4.332,0,0,0,1.985,7.753l4.185.6Z" transform="translate(37.11 9.725)" fill="#fff"/>
      </g>
      <g id="Group_1931" data-name="Group 1931" transform="translate(50.527 13.373)">
        <path id="Path_293" data-name="Path 293" d="M6.551,0A11.549,11.549,0,1,0,18.1,11.548,11.547,11.547,0,0,0,6.551,0m0,20.21a8.662,8.662,0,1,1,8.662-8.662A8.662,8.662,0,0,1,6.551,20.21" transform="translate(4.997)" fill="#fff"/>
      </g>
    </g>
    <path id="Path_295" data-name="Path 295" d="M18.28-9.995h2.886v4.331H18.28Z" transform="translate(23.965 36.033)" fill="#fff"/>
    <g id="Group_1934" data-name="Group 1934" transform="translate(0 -37.48)" clip-path="url(#clip-path)">
      <g id="Group_1933" data-name="Group 1933" transform="translate(23.467 16.102)">
        <path id="Path_296" data-name="Path 296" d="M7.89,18.856a17.323,17.323,0,0,1-2.926-30.8L3.423-14.383A20.213,20.213,0,0,0,6.841,21.544a9.215,9.215,0,0,1,5.921,8.6h2.886A12.078,12.078,0,0,0,7.89,18.856" transform="translate(6.018 14.383)" fill="#fff"/>
      </g>
    </g>
  </g>
</svg>
