<svg id="Group_178790" data-name="Group 178790" xmlns="http://www.w3.org/2000/svg" width="58.123" height="37.384" viewBox="0 0 58.123 37.384">
  <path id="Path_85546" data-name="Path 85546" d="M5107.2,234.98a14.6,14.6,0,0,1,4.284-3.757,10.962,10.962,0,0,1,5.209-1.419,11.55,11.55,0,1,1,1.173,23.041,11.5,11.5,0,0,1-6.008-1.685h0c-2.183,4.2,5.39,14.588,5.39,14.588a.8.8,0,0,1,.083,1.106.785.785,0,0,1-1.058.124,46.362,46.362,0,0,1-4.339-3.591,36.08,36.08,0,0,1-4.284-4.809,22.6,22.6,0,0,1-3.081-5.711,18.908,18.908,0,0,1-1.127-6.538,19.39,19.39,0,0,1,.977-6.012A17.513,17.513,0,0,1,5107.2,234.98Z" transform="translate(-5071.293 -229.744)" fill="#d3be87"/>
  <path id="Path_85547" data-name="Path 85547" d="M5488.98,240.315a17.45,17.45,0,0,1,2.781-5.336,14.6,14.6,0,0,1,4.283-3.757,10.964,10.964,0,0,1,5.209-1.419,11.55,11.55,0,1,1,1.173,23.041,11.489,11.489,0,0,1-6.007-1.685h0c-2.181,4.2,5.39,14.588,5.39,14.588a.8.8,0,0,1,.084,1.106.787.787,0,0,1-1.06.124,46.558,46.558,0,0,1-4.339-3.591,36.107,36.107,0,0,1-4.283-4.809,22.625,22.625,0,0,1-3.082-5.711,18.9,18.9,0,0,1-1.126-6.538A19.406,19.406,0,0,1,5488.98,240.315Z" transform="translate(-5488.003 -229.744)" fill="#d3be87"/>
</svg>
