<svg xmlns="http://www.w3.org/2000/svg" width="20.342" height="20.326" viewBox="0 0 20.342 20.326">
  <g id="call_1_" data-name="call (1)" transform="translate(-0.911 -0.886)">
    <g id="Group_2117" data-name="Group 2117" transform="translate(1 1.018)">
      <g id="Group_2116" data-name="Group 2116" transform="translate(0 0)">
        <path id="Path_1474" data-name="Path 1474" d="M20.593,16.54l-4.073-2.716a1.189,1.189,0,0,0-1.592.259l-1.186,1.525a.507.507,0,0,1-.65.137l-.226-.124a13.637,13.637,0,0,1-3.554-2.791A13.693,13.693,0,0,1,6.521,9.274L6.4,9.049A.508.508,0,0,1,6.531,8.4L8.056,7.21a1.189,1.189,0,0,0,.259-1.592L5.6,1.546A1.182,1.182,0,0,0,4,1.187L2.3,2.21a2.4,2.4,0,0,0-1.1,1.422C.593,5.866,1.054,9.722,6.735,15.4c4.519,4.519,7.883,5.734,10.2,5.734a5.94,5.94,0,0,0,1.576-.206,2.4,2.4,0,0,0,1.422-1.1l1.024-1.7A1.183,1.183,0,0,0,20.593,16.54Zm-.219,1.251-1.022,1.7a1.733,1.733,0,0,1-1.023.793c-2.063.566-5.667.1-11.12-5.356S1.287,5.872,1.853,3.809a1.736,1.736,0,0,1,.794-1.024l1.7-1.022a.513.513,0,0,1,.692.156L6.517,4.134,7.755,5.991a.516.516,0,0,1-.112.691L6.118,7.868a1.174,1.174,0,0,0-.311,1.506l.121.22A14.224,14.224,0,0,0,8.835,13.3a14.239,14.239,0,0,0,3.708,2.906l.22.121a1.174,1.174,0,0,0,1.506-.311l1.186-1.525a.516.516,0,0,1,.691-.112L20.219,17.1A.513.513,0,0,1,20.374,17.79Z" transform="translate(-1 -1.018)" fill="#145aaa" stroke="#1450a0" stroke-width="0.15"/>
        <path id="Path_1475" data-name="Path 1475" d="M282.963,69.995a5.706,5.706,0,0,1,5.7,5.7.335.335,0,0,0,.671,0,6.378,6.378,0,0,0-6.371-6.371.335.335,0,1,0,0,.671Z" transform="translate(-271.562 -66.64)" fill="#145aaa" stroke="#1450a0" stroke-width="0.15"/>
        <path id="Path_1476" data-name="Path 1476" d="M282.963,121.195a3.693,3.693,0,0,1,3.688,3.688.335.335,0,0,0,.671,0,4.364,4.364,0,0,0-4.359-4.359.335.335,0,1,0,0,.671Z" transform="translate(-271.562 -115.828)" fill="#145aaa" stroke="#1450a0" stroke-width="0.15"/>
        <path id="Path_1477" data-name="Path 1477" d="M282.963,172.395a1.679,1.679,0,0,1,1.676,1.677.335.335,0,0,0,.671,0,2.35,2.35,0,0,0-2.347-2.347.335.335,0,1,0,0,.671Z" transform="translate(-271.562 -165.016)" fill="#145aaa" stroke="#1450a0" stroke-width="0.15"/>
      </g>
    </g>
  </g>
</svg>
