<svg xmlns="http://www.w3.org/2000/svg" width="60.39" height="80.669" viewBox="0 0 60.39 80.669">
  <g id="Group_6803" data-name="Group 6803" transform="translate(-234.283 -134.305)">
    <rect id="Rectangle_3508" data-name="Rectangle 3508" width="3.355" height="37.237" transform="translate(269.811 172.301)" fill="none" stroke="#262626" stroke-linecap="round" stroke-linejoin="round" stroke-width="1.5"/>
    <path id="Path_64682" data-name="Path 64682" d="M273.927,209.537h15.636a4.36,4.36,0,0,1,4.36,4.36v.327H249.055V213.9a4.36,4.36,0,0,1,4.36-4.36Z" fill="none" stroke="#262626" stroke-linecap="round" stroke-linejoin="round" stroke-width="1.5"/>
    <g id="Group_6802" data-name="Group 6802">
      <g id="Group_6801" data-name="Group 6801">
        <circle id="Ellipse_284" data-name="Ellipse 284" cx="8.643" cy="8.643" r="8.643" transform="translate(275.778 171.066)" fill="none" stroke="#262626" stroke-linecap="round" stroke-linejoin="round" stroke-width="1.5"/>
        <circle id="Ellipse_285" data-name="Ellipse 285" cx="3.087" cy="3.087" r="3.087" transform="translate(281.334 176.622)" fill="none" stroke="#262626" stroke-linecap="round" stroke-linejoin="round" stroke-width="1.5"/>
        <circle id="Ellipse_286" data-name="Ellipse 286" cx="12.347" cy="12.347" r="12.347" transform="translate(237.503 162.423)" fill="none" stroke="#262626" stroke-linecap="round" stroke-linejoin="round" stroke-width="1.5"/>
        <path id="Path_64683" data-name="Path 64683" d="M236.1,164.288a17.289,17.289,0,0,1,29.4,17.818" fill="none" stroke="#262626" stroke-linecap="round" stroke-linejoin="round" stroke-width="1.5"/>
        <circle id="Ellipse_287" data-name="Ellipse 287" cx="4.939" cy="4.939" r="4.939" transform="translate(244.911 169.831)" fill="none" stroke="#262626" stroke-linecap="round" stroke-linejoin="round" stroke-width="1.5"/>
        <g id="Group_6799" data-name="Group 6799">
          <line id="Line_226" data-name="Line 226" y2="2.469" transform="translate(249.849 159.954)" fill="none" stroke="#262626" stroke-linecap="round" stroke-linejoin="round" stroke-width="1.5"/>
          <line id="Line_227" data-name="Line 227" y2="2.469" transform="translate(249.849 187.117)" fill="none" stroke="#262626" stroke-linecap="round" stroke-linejoin="round" stroke-width="1.5"/>
          <line id="Line_228" data-name="Line 228" x2="1.234" y2="2.137" transform="translate(242.441 161.939)" fill="none" stroke="#262626" stroke-linecap="round" stroke-linejoin="round" stroke-width="1.5"/>
          <line id="Line_229" data-name="Line 229" x2="1.234" y2="2.137" transform="translate(256.024 185.464)" fill="none" stroke="#262626" stroke-linecap="round" stroke-linejoin="round" stroke-width="1.5"/>
          <line id="Line_230" data-name="Line 230" x2="2.137" y2="1.234" transform="translate(237.018 167.362)" fill="none" stroke="#262626" stroke-linecap="round" stroke-linejoin="round" stroke-width="1.5"/>
          <line id="Line_231" data-name="Line 231" x2="2.137" y2="1.234" transform="translate(260.544 180.944)" fill="none" stroke="#262626" stroke-linecap="round" stroke-linejoin="round" stroke-width="1.5"/>
          <line id="Line_232" data-name="Line 232" x2="2.469" transform="translate(235.033 174.77)" fill="none" stroke="#262626" stroke-linecap="round" stroke-linejoin="round" stroke-width="1.5"/>
          <line id="Line_233" data-name="Line 233" x2="2.469" transform="translate(262.196 174.77)" fill="none" stroke="#262626" stroke-linecap="round" stroke-linejoin="round" stroke-width="1.5"/>
          <line id="Line_234" data-name="Line 234" y1="1.234" x2="2.137" transform="translate(237.018 180.944)" fill="none" stroke="#262626" stroke-linecap="round" stroke-linejoin="round" stroke-width="1.5"/>
          <line id="Line_235" data-name="Line 235" y1="1.234" x2="2.137" transform="translate(260.544 167.362)" fill="none" stroke="#262626" stroke-linecap="round" stroke-linejoin="round" stroke-width="1.5"/>
          <line id="Line_236" data-name="Line 236" y1="2.137" x2="1.234" transform="translate(242.441 185.464)" fill="none" stroke="#262626" stroke-linecap="round" stroke-linejoin="round" stroke-width="1.5"/>
          <line id="Line_237" data-name="Line 237" y1="2.137" x2="1.234" transform="translate(256.024 161.939)" fill="none" stroke="#262626" stroke-linecap="round" stroke-linejoin="round" stroke-width="1.5"/>
        </g>
        <path id="Path_64684" data-name="Path 64684" d="M242.441,158.719V155.1a2.47,2.47,0,0,1,1.1-2.055l2.6-1.736h11.324a2.469,2.469,0,0,1,1.746.723l2.981,2.981h23.459a2.469,2.469,0,0,1,2.469,2.469V171.9" fill="none" stroke="#262626" stroke-linecap="round" stroke-linejoin="round" stroke-width="1.5"/>
        <line id="Line_238" data-name="Line 238" y2="16.051" transform="translate(252.319 135.26)" fill="none" stroke="#262626" stroke-linecap="round" stroke-linejoin="round" stroke-width="1.5"/>
        <line id="Line_239" data-name="Line 239" x1="6.914" y1="19.755" transform="translate(263.431 135.26)" fill="none" stroke="#262626" stroke-linecap="round" stroke-linejoin="round" stroke-width="1.5"/>
        <path id="Path_64685" data-name="Path 64685" d="M246.145,151.311l1.6-13.864a2.47,2.47,0,0,1,2.453-2.187h16.937" fill="none" stroke="#262626" stroke-linecap="round" stroke-linejoin="round" stroke-width="1.5"/>
        <line id="Line_240" data-name="Line 240" y1="7.408" transform="translate(272.074 159.954)" fill="none" stroke="#262626" stroke-linecap="round" stroke-linejoin="round" stroke-width="1.5"/>
        <line id="Line_241" data-name="Line 241" y1="7.408" transform="translate(277.012 159.954)" fill="none" stroke="#262626" stroke-linecap="round" stroke-linejoin="round" stroke-width="1.5"/>
        <line id="Line_242" data-name="Line 242" y1="7.408" transform="translate(281.951 159.954)" fill="none" stroke="#262626" stroke-linecap="round" stroke-linejoin="round" stroke-width="1.5"/>
        <g id="Group_6800" data-name="Group 6800">
          <line id="Line_243" data-name="Line 243" y2="9.877" transform="translate(277.012 137.73)" fill="none" stroke="#262626" stroke-linecap="round" stroke-linejoin="round" stroke-width="1.5"/>
        </g>
        <path id="Rectangle_3509" data-name="Rectangle 3509" d="M1,0H3.939a1,1,0,0,1,1,1V7.408a0,0,0,0,1,0,0H0a0,0,0,0,1,0,0V1A1,1,0,0,1,1,0Z" transform="translate(274.543 147.607)" fill="none" stroke="#262626" stroke-linecap="round" stroke-linejoin="round" stroke-width="1.5"/>
      </g>
    </g>
  </g>
</svg>
