<svg xmlns="http://www.w3.org/2000/svg" width="85.478" height="73.13" viewBox="0 0 85.478 73.13">
  <g id="Group_6787" data-name="Group 6787" transform="translate(-454.327 -22.523)">
    <rect id="Rectangle_3504" data-name="Rectangle 3504" width="6.08" height="30.652" transform="translate(471.366 59.566)" fill="none" stroke="#373737" stroke-linecap="round" stroke-linejoin="round" stroke-width="1.5"/>
    <path id="Path_64665" data-name="Path 64665" d="M475.812,90.218h9.014c1.388,0,2.513,1.952,2.513,4.36V94.9H461.475v-.326c0-2.408,1.125-4.36,2.513-4.36Z" fill="none" stroke="#373737" stroke-linecap="round" stroke-linejoin="round" stroke-width="1.5"/>
    <rect id="Rectangle_3505" data-name="Rectangle 3505" width="6.08" height="30.652" transform="translate(506.365 59.566)" fill="none" stroke="#373737" stroke-linecap="round" stroke-linejoin="round" stroke-width="1.5"/>
    <path id="Path_64666" data-name="Path 64666" d="M510.811,90.218h9.013c1.388,0,2.513,1.952,2.513,4.36V94.9H496.473v-.326c0-2.408,1.125-4.36,2.513-4.36Z" fill="none" stroke="#373737" stroke-linecap="round" stroke-linejoin="round" stroke-width="1.5"/>
    <g id="Group_6786" data-name="Group 6786">
      <path id="Path_64667" data-name="Path 64667" d="M524.576,64.206c4.536-5.6,10.845-6.783,14.479-15.565H455.7V59.513l1.72,2.581" fill="none" stroke="#373737" stroke-linecap="round" stroke-linejoin="round" stroke-width="1.5"/>
      <path id="Path_64668" data-name="Path 64668" d="M468.482,67.5l-3.518-3.219a4.042,4.042,0,0,0-5.513-.119l-4.067,3.453" fill="none" stroke="#373737" stroke-linecap="round" stroke-linejoin="round" stroke-width="1.5"/>
      <path id="Path_64669" data-name="Path 64669" d="M503.417,65.623l-1.824-1.5a4.043,4.043,0,0,0-5.519.224l-3.27,3.1a4.05,4.05,0,0,1-5.613.146L483.276,64.2a4.158,4.158,0,0,0-2.682-1.06" fill="none" stroke="#373737" stroke-linecap="round" stroke-linejoin="round" stroke-width="1.5"/>
      <path id="Path_64670" data-name="Path 64670" d="M527.577,70.061l-7.66-6a3.992,3.992,0,0,0-4.328-.483" fill="none" stroke="#373737" stroke-linecap="round" stroke-linejoin="round" stroke-width="1.5"/>
      <path id="Path_64671" data-name="Path 64671" d="M508.251,39.581l-9.955-9.06h-13.6" fill="none" stroke="#373737" stroke-linecap="round" stroke-linejoin="round" stroke-width="1.5"/>
      <path id="Path_64672" data-name="Path 64672" d="M492.985,30.521l-4.666-7.248H474.835l-2.824,7.248h-5.436l-7.248,18.12h63.42l-8.154-9.06H497.379" fill="none" stroke="#373737" stroke-linecap="round" stroke-linejoin="round" stroke-width="1.5"/>
      <line id="Line_205" data-name="Line 205" x1="3.624" transform="translate(490.131 39.581)" fill="none" stroke="#373737" stroke-linecap="round" stroke-linejoin="round" stroke-width="1.5"/>
      <line id="Line_206" data-name="Line 206" x1="3.624" transform="translate(482.883 39.581)" fill="none" stroke="#373737" stroke-linecap="round" stroke-linejoin="round" stroke-width="1.5"/>
      <line id="Line_207" data-name="Line 207" x1="3.624" transform="translate(475.635 39.581)" fill="none" stroke="#373737" stroke-linecap="round" stroke-linejoin="round" stroke-width="1.5"/>
      <line id="Line_208" data-name="Line 208" x1="3.624" transform="translate(468.387 39.581)" fill="none" stroke="#373737" stroke-linecap="round" stroke-linejoin="round" stroke-width="1.5"/>
    </g>
  </g>
</svg>
