<svg xmlns="http://www.w3.org/2000/svg" width="90.503" height="61.667" viewBox="0 0 90.503 61.667">
  <g id="Group_6781" data-name="Group 6781" transform="translate(-123.158 -32.373)">
    <line id="Line_199" data-name="Line 199" x1="12.107" transform="translate(148.585 67.289)" fill="none" stroke="#373737" stroke-linecap="round" stroke-linejoin="round" stroke-width="1.5"/>
    <line id="Line_200" data-name="Line 200" x1="13.34" transform="translate(173.144 67.289)" fill="none" stroke="#373737" stroke-linecap="round" stroke-linejoin="round" stroke-width="1.5"/>
    <path id="Path_64646" data-name="Path 64646" d="M173.144,45.4l14.777.281s-8.448-5.935-12.209-6.683a26.414,26.414,0,0,0-3.018-.378" fill="none" stroke="#373737" stroke-linecap="round" stroke-linejoin="round" stroke-width="1.5"/>
    <path id="Path_64647" data-name="Path 64647" d="M160.684,38.295a36.338,36.338,0,0,0-5.4.327,12.707,12.707,0,0,0-9.715,6.727l14.8-.275" fill="none" stroke="#373737" stroke-linecap="round" stroke-linejoin="round" stroke-width="1.5"/>
    <path id="Path_64648" data-name="Path 64648" d="M160.691,35.069c-1.9.023-3.461.083-4.308.182-12.836,1.493-13.762,8.871-16.629,9.846-3.991,1.357-9.483,1.077-11.379,2.15s-2.2,2.132-2.584,7.213c-.017.229-.146.731-.162.96" fill="none" stroke="#373737" stroke-linecap="round" stroke-linejoin="round" stroke-width="1.5"/>
    <path id="Path_64649" data-name="Path 64649" d="M208.585,64.746l2.976.075s1.693-.964,1.27-6.464-1.548-9.37-11.927-11.087c-3.032-.5-6.357-1.316-6.357-1.316s-11.4-8.567-17.35-10.117a29.756,29.756,0,0,0-4.5-.5" fill="none" stroke="#373737" stroke-linecap="round" stroke-linejoin="round" stroke-width="1.5"/>
    <line id="Line_201" data-name="Line 201" x2="16.917" transform="translate(173.144 64.068)" fill="none" stroke="#373737" stroke-linecap="round" stroke-linejoin="round" stroke-width="1.5"/>
    <line id="Line_202" data-name="Line 202" x2="13.31" transform="translate(147.381 64.068)" fill="none" stroke="#373737" stroke-linecap="round" stroke-linejoin="round" stroke-width="1.5"/>
    <path id="Path_64650" data-name="Path 64650" d="M125.629,55.42c-1.288,1.387-1.65.36-1.65,3.956s-.673,4.336,1.726,4.336h2.6" fill="none" stroke="#373737" stroke-linecap="round" stroke-linejoin="round" stroke-width="1.5"/>
    <path id="Path_64651" data-name="Path 64651" d="M141.667,61.777a3.808,3.808,0,1,1-3.808-3.807A3.807,3.807,0,0,1,141.667,61.777Z" fill="none" stroke="#373737" stroke-linecap="round" stroke-linejoin="round" stroke-width="1.5"/>
    <path id="Path_64652" data-name="Path 64652" d="M203.337,61.777a3.808,3.808,0,1,1-3.807-3.807A3.807,3.807,0,0,1,203.337,61.777Z" fill="none" stroke="#373737" stroke-linecap="round" stroke-linejoin="round" stroke-width="1.5"/>
    <path id="Path_64653" data-name="Path 64653" d="M145,61.777a7.14,7.14,0,1,1-7.14-7.139A7.139,7.139,0,0,1,145,61.777Z" fill="none" stroke="#373737" stroke-linecap="round" stroke-linejoin="round" stroke-width="1.5"/>
    <path id="Path_64654" data-name="Path 64654" d="M206.669,61.777a7.14,7.14,0,1,1-7.139-7.139A7.139,7.139,0,0,1,206.669,61.777Z" fill="none" stroke="#373737" stroke-linecap="round" stroke-linejoin="round" stroke-width="1.5"/>
    <line id="Line_203" data-name="Line 203" x2="1.587" transform="translate(148.585 51.439)" fill="none" stroke="#373737" stroke-linecap="round" stroke-linejoin="round" stroke-width="1.5"/>
    <path id="Path_64655" data-name="Path 64655" d="M127.033,49.783h3.942l-.64,4.971h-3.3" fill="none" stroke="#373737" stroke-linecap="round" stroke-linejoin="round" stroke-width="1.5"/>
    <path id="Path_64656" data-name="Path 64656" d="M211.021,51.928s-4.154.357-6.692-.6c0,0,.554,5.341,8.316,5.21" fill="none" stroke="#373737" stroke-linecap="round" stroke-linejoin="round" stroke-width="1.5"/>
    <rect id="Rectangle_3499" data-name="Rectangle 3499" width="6.778" height="55.48" transform="translate(163.214 33.123)" fill="none" stroke="#373737" stroke-linecap="round" stroke-linejoin="round" stroke-width="1.5"/>
    <path id="Path_64657" data-name="Path 64657" d="M170.27,88.6h15.636a4.36,4.36,0,0,1,4.36,4.36v.327H145.4v-.327a4.36,4.36,0,0,1,4.36-4.36Z" fill="none" stroke="#373737" stroke-linecap="round" stroke-linejoin="round" stroke-width="1.5"/>
  </g>
</svg>
