<svg xmlns="http://www.w3.org/2000/svg" xmlns:xlink="http://www.w3.org/1999/xlink" width="88" height="88.195" viewBox="0 0 88 88.195">
  <defs>
    <clipPath id="clip-path">
      <rect id="Rectangle_3238" data-name="Rectangle 3238" width="88" height="88" transform="translate(0.194 0.194)" fill="#fff"/>
    </clipPath>
  </defs>
  <g id="Group_6571" data-name="Group 6571" transform="translate(-228.194 -106.47)">
    <g id="Group_6572" data-name="Group 6572" transform="translate(228 106.276)">
      <g id="Group_6571-2" data-name="Group 6571" clip-path="url(#clip-path)">
        <path id="Path_64484" data-name="Path 64484" d="M258.889,154.771a1.295,1.295,0,0,0,.121-2.583l-3.361-.321a8.209,8.209,0,0,1,.059-2.255,9.38,9.38,0,0,0,.977-.693c5.5-4.446,8.167-8.31,8.167-11.809,0-.359-.015-.719-.044-1.072,0-.007,0-.014,0-.02-.033-.334-.055-1.035-.068-1.946H265.9a4.434,4.434,0,0,0,3.4-7.285,24.175,24.175,0,0,0-.379-11.278c-1.234-4.009-5-6.888-10.879-8.324-7.534-1.844-16.89-1.165-19.634,4.682a5.807,5.807,0,0,0-4.1,2.361c-2.215,2.961-2.315,8.155-1.64,12.3a4.435,4.435,0,0,0,3.16,7.546h1.064c-.021.916-.051,1.617-.085,1.966-.03.334-.044.694-.044,1.071,0,3.5,2.67,7.36,8.161,11.8a9.411,9.411,0,0,0,.923.661,8.158,8.158,0,0,1,.066,2.3l-12.93,1.322a5.571,5.571,0,0,0-4.95,5.569v34.607a1.294,1.294,0,0,0,2.589,0V158.757a2.986,2.986,0,0,1,2.639-2.989l12.6-1.288a5.123,5.123,0,0,0,9.854-.008l3.056.292a1.144,1.144,0,0,0,.125.006Zm8.856-25.136a1.848,1.848,0,0,1-1.845,1.847h-1.183c0-1.2,0-2.5,0-3.695H265.9a1.849,1.849,0,0,1,1.845,1.848Zm-30.813,1.847h-1.105a1.847,1.847,0,0,1,0-3.695h1.113c.006,1.249,0,2.525-.008,3.695Zm13.848,24.123a2.539,2.539,0,0,1-2.527-2.343,8.21,8.21,0,0,0,.3-2.539,9.25,9.25,0,0,0,2.237.275h.042a9.263,9.263,0,0,0,2.183-.262,8.176,8.176,0,0,0,.3,2.526,2.539,2.539,0,0,1-2.527,2.343Zm.042-7.2h-.031a6.738,6.738,0,0,1-4.239-1.507c-4.712-3.813-7.2-7.2-7.2-9.793,0-.3.012-.584.033-.83.145-1.466.183-7.631.113-11.472a2.118,2.118,0,0,1,1.139-1.931,14.163,14.163,0,0,1,1.952-.666,1.295,1.295,0,0,0-.672-2.5,16.562,16.562,0,0,0-2.354.811l-.058.027a4.715,4.715,0,0,0-2.6,4.319c0,.11,0,.22.005.334h-1.086a4.433,4.433,0,0,0-.729.059c-.432-3.332-.312-7.349,1.282-9.479a3.208,3.208,0,0,1,2.377-1.347,2.465,2.465,0,0,0,2-1.486c1.207-2.543,4.3-3.5,6.692-3.848a27.114,27.114,0,0,1,9.975.6c3.451.842,7.817,2.666,9.025,6.587a20.8,20.8,0,0,1,.465,9.028,4.427,4.427,0,0,0-1.013-.117h-1.179v-.342a4.7,4.7,0,0,0-2.623-4.315l-.044-.02c-3.251-1.447-8.665-2.117-14.129-1.748a1.294,1.294,0,0,0,.174,2.583c4.979-.335,10.028.261,12.878,1.52a2.107,2.107,0,0,1,1.155,1.931v.037l.1,11.415c.023.279.035.565.035.849,0,2.6-2.492,5.982-7.209,9.8a6.726,6.726,0,0,1-4.231,1.5Zm0,0" transform="translate(-228.024 -106.276)" fill="#fff"/>
        <path id="Path_64485" data-name="Path 64485" d="M464.9,159.629l-12.986-1.407a1.276,1.276,0,0,0-.3,0,8.277,8.277,0,0,1,.068-2.178,9.178,9.178,0,0,0,.976-.693c5.5-4.446,8.167-8.309,8.167-11.809,0-.359-.015-.719-.044-1.072,0-.006,0-.014,0-.02-.033-.334-.055-1.035-.068-1.946h1.162a4.436,4.436,0,0,0,0-8.873h-1.179V128.4a1.294,1.294,0,1,0-2.589,0v1.875a10.188,10.188,0,0,1-10.179-4.565,1.294,1.294,0,0,0-1.088-.6h-.173a1.3,1.3,0,0,0-1.086.6,10.184,10.184,0,0,1-10.109,4.575v-8.26a4.87,4.87,0,0,1,4.863-4.866h12.565a5.215,5.215,0,0,1,5.208,5.211,1.294,1.294,0,1,0,2.589,0,7.811,7.811,0,0,0-6.5-7.693v-.764a7.577,7.577,0,1,0-15.154,0v.769a7.466,7.466,0,0,0-6.156,7.342v9.342c0,.088,0,.178,0,.268H431.8a4.437,4.437,0,0,0,0,8.874h1.064c-.023.918-.051,1.618-.085,1.965s-.045.694-.045,1.071c0,3.5,2.67,7.361,8.161,11.8a9.2,9.2,0,0,0,.923.662,6.883,6.883,0,0,1-.1,3.028,1.307,1.307,0,0,0-.086.465,5.124,5.124,0,0,0,10.081,1.3l12.906,1.4a2.989,2.989,0,0,1,2.654,3v28.218a1.295,1.295,0,1,0,2.589,0V165.2a5.576,5.576,0,0,0-4.957-5.576Zm-4.212-25.406h1.183a1.848,1.848,0,0,1,0,3.7h-1.183c0-1.2,0-2.5,0-3.7Zm-19.063-20.31a4.988,4.988,0,1,1,9.976,0v.656h-9.976Zm-8.723,24h-1.1a1.847,1.847,0,0,1,0-3.695h1.112c.005,1.248,0,2.524-.008,3.695ZM446.75,162.04a2.539,2.539,0,0,1-2.528-2.343,8.185,8.185,0,0,0,.3-2.539,9.248,9.248,0,0,0,2.238.275h.041a9.261,9.261,0,0,0,2.183-.262,8.179,8.179,0,0,0,.3,2.526,2.54,2.54,0,0,1-2.527,2.343Zm.041-7.2h-.017a6.779,6.779,0,0,1-4.252-1.507c-4.712-3.813-7.2-7.2-7.2-9.793,0-.3.012-.584.033-.83.125-1.262.171-6.073.136-9.814a12.941,12.941,0,0,0,1.518.09,12.705,12.705,0,0,0,9.743-4.519,12.708,12.708,0,0,0,9.744,4.519,12.932,12.932,0,0,0,1.607-.1c0,.139,0,.281,0,.423-.008,3.84-.016,8.19.1,9.384.023.279.034.564.034.848,0,2.594-2.492,5.982-7.208,9.8a6.725,6.725,0,0,1-4.232,1.5Zm0,0" transform="translate(-381.474 -106.321)" fill="#fff"/>
      </g>
    </g>
    <path id="Path_64486" data-name="Path 64486" d="M372.556,317.118H370.4a8.092,8.092,0,0,1,.1-2.3c3.248-2.785,4.829-5.265,4.829-7.56,0-.252-.01-.5-.031-.75,0-.006,0-.014,0-.02-.012-.125-.022-.333-.03-.6h0a3.565,3.565,0,1,0,.035-7.13h-.069a9.648,9.648,0,0,0-.645-3.166,1.294,1.294,0,0,0-2.415.932,7.093,7.093,0,0,1,.476,2.564l.066,7.645c.014.172.022.349.022.526,0,1.571-1.647,3.768-4.641,6.191a4.046,4.046,0,0,1-2.548.9h-.018a4.049,4.049,0,0,1-2.551-.907c-2.99-2.42-4.638-4.617-4.638-6.187,0-.187.007-.363.021-.51.1-1,.107-5.276.069-7.67a7.119,7.119,0,0,1,7.109-7.106,7.027,7.027,0,0,1,3.313.817,1.294,1.294,0,1,0,1.208-2.289,9.7,9.7,0,0,0-14.214,8.255h-.076a3.565,3.565,0,1,0,.035,7.13h.011c-.009.282-.021.5-.032.621-.022.234-.032.487-.032.751,0,2.3,1.583,4.777,4.832,7.563a8.115,8.115,0,0,1,.1,2.3h-1.916a9.368,9.368,0,0,0-9.355,9.36v7.85a1.294,1.294,0,1,0,2.589,0v-7.85a6.776,6.776,0,0,1,6.766-6.77h1.815a5.124,5.124,0,0,0,9.917,0h2.051a6.776,6.776,0,0,1,6.766,6.77v7.85a1.294,1.294,0,1,0,2.589,0v-7.85a9.368,9.368,0,0,0-9.355-9.36Zm2.686-15.776h.067a.973.973,0,0,1,.768.372.974.974,0,0,1-.8,1.58h-.032c0-.64,0-1.311,0-1.952Zm-19.377,1.952h-.053a.974.974,0,0,1-.8-1.58.973.973,0,0,1,.768-.372h.091c0,.664,0,1.329,0,1.952Zm9.682,17.657a2.54,2.54,0,0,1-2.527-2.343,7.633,7.633,0,0,0,.3-2.054,6.611,6.611,0,0,0,2.215.384h.03a6.62,6.62,0,0,0,2.217-.384,7.624,7.624,0,0,0,.3,2.054,2.54,2.54,0,0,1-2.528,2.343Zm0,0" transform="translate(-93.47 -140.958)" fill="#fff"/>
    <path id="Path_64487" data-name="Path 64487" d="M316.057,246.592a1.3,1.3,0,0,0-1.295,1.295,1.477,1.477,0,1,1-2.954,0,1.295,1.295,0,1,0-2.59,0,4.066,4.066,0,1,0,8.132,0,1.294,1.294,0,0,0-1.294-1.295Zm0,0" transform="translate(-62.524 -108.019)" fill="#fff"/>
    <path id="Path_64488" data-name="Path 64488" d="M316.078,224.731a1.294,1.294,0,0,0,1.746-.549.29.29,0,0,1,.514,0,1.294,1.294,0,1,0,2.3-1.2,2.878,2.878,0,0,0-5.1,0,1.3,1.3,0,0,0,.549,1.747Zm0,0" transform="translate(-67.269 -88.653)" fill="#fff"/>
    <path id="Path_64489" data-name="Path 64489" d="M500.779,274.35a1.3,1.3,0,0,0-1.295,1.295,1.477,1.477,0,1,1-2.954,0,1.295,1.295,0,1,0-2.59,0,4.066,4.066,0,1,0,8.132,0,1.294,1.294,0,0,0-1.294-1.295Zm0,0" transform="translate(-204.727 -129.387)" fill="#fff"/>
    <path id="Path_64490" data-name="Path 64490" d="M500.8,252.488a1.3,1.3,0,0,0,1.747-.549.289.289,0,0,1,.512,0,1.294,1.294,0,0,0,2.3-1.2,2.878,2.878,0,0,0-5.1,0,1.3,1.3,0,0,0,.549,1.746Zm0,0" transform="translate(-209.472 -110.022)" fill="#fff"/>
    <path id="Path_64491" data-name="Path 64491" d="M270.561,356.03a1.3,1.3,0,0,0-1.295,1.295v28.311a1.295,1.295,0,1,0,2.59,0V357.325a1.3,1.3,0,0,0-1.295-1.295Zm0,0" transform="translate(-31.767 -192.266)" fill="#fff"/>
    <path id="Path_64492" data-name="Path 64492" d="M560.779,383.788a1.3,1.3,0,0,0-1.295,1.295V407a1.295,1.295,0,1,0,2.59,0V385.083a1.3,1.3,0,0,0-1.295-1.295Zm0,0" transform="translate(-255.183 -213.635)" fill="#fff"/>
    <path id="Path_64493" data-name="Path 64493" d="M380.7,452.428a1.294,1.294,0,0,0-1.295,1.294v6.123a1.295,1.295,0,1,0,2.59,0v-6.123a1.294,1.294,0,0,0-1.295-1.294Zm0,0" transform="translate(-116.556 -266.475)" fill="#fff"/>
    <path id="Path_64494" data-name="Path 64494" d="M451.229,452.428a1.294,1.294,0,0,0-1.295,1.294v6.123a1.294,1.294,0,1,0,2.589,0v-6.123a1.294,1.294,0,0,0-1.294-1.294Zm0,0" transform="translate(-170.849 -266.475)" fill="#fff"/>
    <path id="Path_64495" data-name="Path 64495" d="M410.716,364.855a.288.288,0,0,1-.512,0,1.295,1.295,0,1,0-2.3,1.2,2.878,2.878,0,0,0,5.1,0,1.294,1.294,0,1,0-2.3-1.2Zm0,0" transform="translate(-138.384 -198.524)" fill="#fff"/>
  </g>
</svg>
