<svg xmlns="http://www.w3.org/2000/svg" xmlns:xlink="http://www.w3.org/1999/xlink" width="102" height="79" viewBox="0 0 102 79">
  <defs>
    <clipPath id="clip-path">
      <rect id="Rectangle_3311" data-name="Rectangle 3311" width="102" height="79" transform="translate(0.444 0.312)" fill="#fff"/>
    </clipPath>
  </defs>
  <g id="Group_6620" data-name="Group 6620" transform="translate(0.267 -0.123)">
    <g id="Group_6618" data-name="Group 6618" transform="translate(-0.712 -0.189)" clip-path="url(#clip-path)">
      <path id="Path_64602" data-name="Path 64602" d="M101.365,26.578,51.9.194a1.647,1.647,0,0,0-1.552,0L.874,26.578a1.648,1.648,0,0,0,0,2.909l13.969,7.45V57.714h3.3V38.7l4.947,2.638V51.352a6.533,6.533,0,0,0-3.565,10.356,33.679,33.679,0,0,0-1.382,9.465v4.68a1.651,1.651,0,0,0,.912,1.476l1.822.912a8.641,8.641,0,0,0,7.724,0l1.822-.912a1.646,1.646,0,0,0,.912-1.474v-4.68a33.679,33.679,0,0,0-1.382-9.465,6.533,6.533,0,0,0-3.565-10.356V43.094L50.342,55.872a1.66,1.66,0,0,0,1.553,0L84.1,38.7V56.9A53.409,53.409,0,0,1,52.106,67.608H50.132A53.061,53.061,0,0,1,33.5,64.937L32.465,68.07a56.355,56.355,0,0,0,17.666,2.836H52.1A56.718,56.718,0,0,0,86.76,59.015a1.649,1.649,0,0,0,.637-1.3V36.937l13.969-7.45a1.649,1.649,0,0,0,0-2.909M28.033,74.834l-.912.455a5.429,5.429,0,0,1-4.774,0l-.91-.455V71.173a30.385,30.385,0,0,1,.9-7.331,6.389,6.389,0,0,0,4.8,0,30.385,30.385,0,0,1,.9,7.331Zm0-17.12a3.3,3.3,0,1,1-3.3-3.3,3.3,3.3,0,0,1,3.3,3.3m23.086-5.168-23.6-12.587L47.947,29.065a8.378,8.378,0,0,0,3.171.617c3.7,0,6.6-2.173,6.6-4.947s-2.9-4.947-6.6-4.947-6.6,2.173-6.6,4.947a4,4,0,0,0,.615,2.091L24.014,38.091,5.153,28.032,51.118,3.517,97.084,28.032Zm-3.3-27.812c0-.673,1.285-1.649,3.3-1.649s3.3.976,3.3,1.649-1.285,1.649-3.3,1.649-3.3-.976-3.3-1.649" transform="translate(0.523 0.159)" fill="#fff"/>
    </g>
  </g>
</svg>
