<svg id="Group_6622" data-name="Group 6622" xmlns="http://www.w3.org/2000/svg" xmlns:xlink="http://www.w3.org/1999/xlink" width="82.404" height="82.402" viewBox="0 0 82.404 82.402">
  <defs>
    <clipPath id="clip-path">
      <rect id="Rectangle_3312" data-name="Rectangle 3312" width="82.404" height="82.402" fill="#fff"/>
    </clipPath>
  </defs>
  <g id="Group_6621" data-name="Group 6621" clip-path="url(#clip-path)">
    <path id="Path_64603" data-name="Path 64603" d="M129.035,65.46a1.724,1.724,0,0,1-1.215-.5L105.752,42.892a1.719,1.719,0,0,1-.069-2.359l16.54-18.528c11.561-13.525,30.387-22.277,46.8-22A1.714,1.714,0,0,1,170.7,1.682c.381,16.426-8.471,35.242-22.03,46.827l-18.5,16.516a1.7,1.7,0,0,1-1.14.436m-19.709-23.85L129.1,61.385l17.316-15.458c12.381-10.582,20.6-27.448,20.859-42.49-15.042.251-31.9,8.474-42.466,20.828Z" transform="translate(-88.308 0)" fill="#fff"/>
    <path id="Path_64604" data-name="Path 64604" d="M272.626,313.747a1.59,1.59,0,0,1-.491-.076,1.7,1.7,0,0,1-1.215-1.325l-2.355-16.436a1.717,1.717,0,1,1,3.4-.488l1.84,12.841a40.087,40.087,0,0,0,9.36-25.611,1.717,1.717,0,1,1,3.434,0,43.481,43.481,0,0,1-12.642,30.541,1.929,1.929,0,0,1-1.329.553" transform="translate(-225.325 -235.72)" fill="#fff"/>
    <path id="Path_64605" data-name="Path 64605" d="M44.913,149.333a1.472,1.472,0,0,1-.244-.017l-16.436-2.355a1.717,1.717,0,0,1-.961-2.922,43.58,43.58,0,0,1,30.655-12.756,1.717,1.717,0,1,1,0,3.434A40.077,40.077,0,0,0,32.3,144.073l12.859,1.844a1.717,1.717,0,0,1-.244,3.416" transform="translate(-22.453 -110.153)" fill="#fff"/>
    <path id="Path_64606" data-name="Path 64606" d="M320.787,110.317a8.58,8.58,0,1,1,6.071-2.51,8.557,8.557,0,0,1-6.071,2.51m0-13.727a5.147,5.147,0,1,0,3.643,1.5,5.139,5.139,0,0,0-3.643-1.5m4.855,10.005h0Z" transform="translate(-261.959 -78.162)" fill="#fff"/>
    <path id="Path_64607" data-name="Path 64607" d="M1.718,368.812A1.713,1.713,0,0,1,.073,366.6c.563-1.878,5.607-18.476,9.281-22.15a10.612,10.612,0,0,1,15.008,15.008c-3.674,3.674-20.272,8.718-22.15,9.281a1.888,1.888,0,0,1-.494.069M16.86,344.781a7.167,7.167,0,0,0-5.078,2.1C9.8,348.863,6.5,357.725,4.327,364.486c6.757-2.177,15.623-5.473,17.6-7.454a7.174,7.174,0,0,0-5.071-12.251" transform="translate(0 -286.411)" fill="#fff"/>
  </g>
</svg>
