<svg xmlns="http://www.w3.org/2000/svg" width="79.255" height="94.809" viewBox="0 0 79.255 94.809">
  <g id="Group_6575" data-name="Group 6575" transform="translate(-260 -106.276)">
    <path id="Path_64478" data-name="Path 64478" d="M339.255,242.3a7.128,7.128,0,0,0-2.346-5.29,7.139,7.139,0,0,0-4.79-12.43H309.508c2.03-5.52,4.387-14.8.347-20.957a19.3,19.3,0,0,0-5.272-5.468c-.738-.548-2.466-1.832-4.224-1.107-1.687.7-2.194,2.712-2.447,4.389l-.015.092c-.491,3.224-1.4,9.224-3.575,14.341-2.488,5.861-5.745,8.711-9.957,8.711H280.5a6.231,6.231,0,0,0-6.149-5.254h-8.129A6.224,6.224,0,0,0,260,225.543v9.768a1.852,1.852,0,0,0,3.7,0v-9.768a2.519,2.519,0,0,1,2.514-2.516h8.129a2.521,2.521,0,0,1,2.52,2.516v36.165a2.521,2.521,0,0,1-2.52,2.515h-8.129a2.518,2.518,0,0,1-2.514-2.515v-9.769a1.852,1.852,0,1,0-3.7,0v9.769a6.226,6.226,0,0,0,6.218,6.219h8.129a6.233,6.233,0,0,0,6.149-5.255s5.645,0,6.042.028l.075.132a15.64,15.64,0,0,0,1.187,1.837c2.131,2.848,7.3,4.611,10.877,4.611h29.369a6.481,6.481,0,0,0,5.752-9.466,7.137,7.137,0,0,0,3.11-12.227,7.131,7.131,0,0,0,2.346-5.29Zm-28.025,23.28H298.677c-2.864,0-6.709-1.519-7.913-3.128a11.992,11.992,0,0,1-.926-1.437c-1.154-2.046-2.1-2.049-5.232-2.044h-4.035V228.281h3.8c5.781,0,10.277-3.69,13.366-10.967,2.354-5.546,3.313-11.846,3.827-15.231l.015-.094a8.615,8.615,0,0,1,.263-1.235c.14.088.317.207.539.372a15.629,15.629,0,0,1,4.383,4.526c3.476,5.3.435,14.673-1.033,18.458a3.233,3.233,0,0,0,.1,3.012,3.134,3.134,0,0,0,2.694,1.159h2.234a7.126,7.126,0,0,0,1.5,8.761,7.136,7.136,0,0,0,.038,10.545,7.13,7.13,0,0,0,.141,10.7,6.47,6.47,0,0,0-1.2,7.291Zm16.816,0H317.082a2.78,2.78,0,0,1,0-5.561h10.964a2.78,2.78,0,0,1,0,5.561Zm4.072-9.264H317.082a3.436,3.436,0,0,1,0-6.873h15.036a3.436,3.436,0,0,1,0,6.873Zm0-10.576H317.082a3.439,3.439,0,0,1,0-6.879h15.036a3.439,3.439,0,0,1,0,6.879Zm0-10.582H317a3.437,3.437,0,0,1,0-6.874h15.114a3.437,3.437,0,0,1,0,6.874Zm0,0" transform="translate(0 -68.196)" fill="#fff"/>
    <path id="Path_64479" data-name="Path 64479" d="M380.606,337.211a1.853,1.853,0,0,0-1.583,2.087,9.539,9.539,0,0,1-1.6,7.249c-1.75,2.288-4.765,3.724-8.962,4.268a1.852,1.852,0,1,0,.475,3.673c5.213-.675,9.058-2.589,11.429-5.691a13.14,13.14,0,0,0,2.323-10,1.851,1.851,0,0,0-2.086-1.584Zm0,0" transform="translate(-80.47 -173.904)" fill="#fff"/>
    <path id="Path_64480" data-name="Path 64480" d="M427.137,120.4a1.851,1.851,0,0,0,1.852-1.852V108.128a1.852,1.852,0,0,0-3.7,0v10.419a1.852,1.852,0,0,0,1.852,1.852Zm0,0" transform="translate(-124.476)" fill="#fff"/>
    <path id="Path_64481" data-name="Path 64481" d="M484.439,142.961a1.852,1.852,0,0,0,2.566-.519l5.741-8.65a1.852,1.852,0,1,0-3.085-2.049l-5.741,8.65a1.853,1.853,0,0,0,.519,2.568Zm0,0" transform="translate(-168.402 -18.556)" fill="#fff"/>
    <path id="Path_64482" data-name="Path 64482" d="M349.739,142.442a1.852,1.852,0,0,0,3.085-2.049l-5.747-8.651a1.852,1.852,0,0,0-3.084,2.049Zm0,0" transform="translate(-63.022 -18.556)" fill="#fff"/>
    <path id="Path_64483" data-name="Path 64483" d="M261.852,382.574A1.854,1.854,0,1,0,260,380.718v.011a1.847,1.847,0,0,0,1.852,1.846Zm0,0" transform="translate(0 -205.288)" fill="#fff"/>
  </g>
</svg>
