<svg id="checked" xmlns="http://www.w3.org/2000/svg" width="71" height="71" viewBox="0 0 71 71">
  <g id="Group_6812" data-name="Group 6812" transform="translate(16.858 8.92)">
    <g id="Group_6811" data-name="Group 6811">
      <path id="Path_64686" data-name="Path 64686" d="M173.68,65.113a2.675,2.675,0,0,0-3.784,0l-32.1,32.017L126.212,84.546a2.676,2.676,0,0,0-3.937,3.625L135.744,102.8a2.673,2.673,0,0,0,1.911.863h.057a2.679,2.679,0,0,0,1.889-.78L173.674,68.9A2.675,2.675,0,0,0,173.68,65.113Z" transform="translate(-121.568 -64.327)" fill="#fff"/>
    </g>
  </g>
  <g id="Group_6814" data-name="Group 6814">
    <g id="Group_6813" data-name="Group 6813">
      <path id="Path_64687" data-name="Path 64687" d="M68.324,32.824A2.676,2.676,0,0,0,65.648,35.5,30.148,30.148,0,1,1,35.5,5.352,2.676,2.676,0,1,0,35.5,0,35.5,35.5,0,1,0,71,35.5,2.676,2.676,0,0,0,68.324,32.824Z" fill="#fff"/>
    </g>
  </g>
</svg>
