<svg id="telephone" xmlns="http://www.w3.org/2000/svg" width="20.121" height="20.121" viewBox="0 0 20.121 20.121">
  <g id="Group_2168" data-name="Group 2168">
    <g id="Group_2167" data-name="Group 2167">
      <path id="Path_1483" data-name="Path 1483" d="M249.006,264a1.006,1.006,0,1,0,1.006,1.006A1.006,1.006,0,0,0,249.006,264Zm0,1.341a.335.335,0,1,1,.335-.335A.335.335,0,0,1,249.006,265.341Z" transform="translate(-237.604 -252.934)" fill="#145aaa"/>
      <path id="Path_1484" data-name="Path 1484" d="M313.006,264a1.006,1.006,0,1,0,1.006,1.006A1.006,1.006,0,0,0,313.006,264Zm0,1.341a.335.335,0,1,1,.335-.335A.335.335,0,0,1,313.006,265.341Z" transform="translate(-298.921 -252.934)" fill="#145aaa"/>
      <path id="Path_1485" data-name="Path 1485" d="M377.006,264a1.006,1.006,0,1,0,1.006,1.006A1.006,1.006,0,0,0,377.006,264Zm0,1.341a.335.335,0,1,1,.335-.335A.335.335,0,0,1,377.006,265.341Z" transform="translate(-360.239 -252.934)" fill="#145aaa"/>
      <path id="Path_1486" data-name="Path 1486" d="M249.006,328a1.006,1.006,0,1,0,1.006,1.006A1.006,1.006,0,0,0,249.006,328Zm0,1.341a.335.335,0,1,1,.335-.335A.335.335,0,0,1,249.006,329.341Z" transform="translate(-237.604 -314.251)" fill="#145aaa"/>
      <path id="Path_1487" data-name="Path 1487" d="M313.006,328a1.006,1.006,0,1,0,1.006,1.006A1.006,1.006,0,0,0,313.006,328Zm0,1.341a.335.335,0,1,1,.335-.335A.335.335,0,0,1,313.006,329.341Z" transform="translate(-298.921 -314.251)" fill="#145aaa"/>
      <path id="Path_1488" data-name="Path 1488" d="M377.006,328a1.006,1.006,0,1,0,1.006,1.006A1.006,1.006,0,0,0,377.006,328Zm0,1.341a.335.335,0,1,1,.335-.335A.335.335,0,0,1,377.006,329.341Z" transform="translate(-360.239 -314.251)" fill="#145aaa"/>
      <path id="Path_1489" data-name="Path 1489" d="M249.006,392a1.006,1.006,0,1,0,1.006,1.006A1.006,1.006,0,0,0,249.006,392Zm0,1.341a.335.335,0,1,1,.335-.335A.335.335,0,0,1,249.006,393.341Z" transform="translate(-237.604 -375.568)" fill="#145aaa"/>
      <path id="Path_1490" data-name="Path 1490" d="M313.006,392a1.006,1.006,0,1,0,1.006,1.006A1.006,1.006,0,0,0,313.006,392Zm0,1.341a.335.335,0,1,1,.335-.335A.335.335,0,0,1,313.006,393.341Z" transform="translate(-298.921 -375.568)" fill="#145aaa"/>
      <path id="Path_1491" data-name="Path 1491" d="M377.006,392a1.006,1.006,0,1,0,1.006,1.006A1.006,1.006,0,0,0,377.006,392Zm0,1.341a.335.335,0,1,1,.335-.335A.335.335,0,0,1,377.006,393.341Z" transform="translate(-360.239 -375.568)" fill="#145aaa"/>
      <path id="Path_1492" data-name="Path 1492" d="M19.115,5.366H17.773V1.546L16.231,0H10.4V5.366H7.378V5.03A1.679,1.679,0,0,0,5.7,3.353H3.689A1.679,1.679,0,0,0,2.012,5.03v.335H1.006A1.006,1.006,0,0,0,0,6.372V19.115a1.006,1.006,0,0,0,1.006,1.006H19.115a1.006,1.006,0,0,0,1.006-1.006V6.372A1.006,1.006,0,0,0,19.115,5.366ZM11.066.671h4.887L17.1,1.823V9.39H11.066ZM2.683,5.03A1.006,1.006,0,0,1,3.689,4.024H5.7A1.006,1.006,0,0,1,6.707,5.03v11.4A1.006,1.006,0,0,1,5.7,17.438H3.689a1.006,1.006,0,0,1-1.006-1.006ZM19.45,19.115a.335.335,0,0,1-.335.335H1.006a.335.335,0,0,1-.335-.335V6.372a.335.335,0,0,1,.335-.335H2.012v10.4a1.679,1.679,0,0,0,1.677,1.677H5.7a1.679,1.679,0,0,0,1.677-1.677V6.036H10.4V9.39H9.39v.671h9.39V9.39H17.773V6.036h1.341a.335.335,0,0,1,.335.335Z" fill="#145aaa"/>
    </g>
  </g>
</svg>
