<svg id="Group_6512" data-name="Group 6512" xmlns="http://www.w3.org/2000/svg" xmlns:xlink="http://www.w3.org/1999/xlink" width="99.647" height="82.206" viewBox="0 0 99.647 82.206">
  <defs>
    <clipPath id="clip-path">
      <rect id="Rectangle_3304" data-name="Rectangle 3304" width="99.647" height="82.206" fill="#373737"/>
    </clipPath>
  </defs>
  <g id="Group_6511" data-name="Group 6511" clip-path="url(#clip-path)">
    <path id="Path_64595" data-name="Path 64595" d="M97.375,63.429H83.526V50.492H97.375a2.275,2.275,0,0,0,2.272-2.272V33.987a2.275,2.275,0,0,0-2.272-2.272H83.526V18.129a2.275,2.275,0,0,0-2.272-2.272H67.411V2.272A2.275,2.275,0,0,0,65.139,0h-7.6a1.46,1.46,0,0,0,0,2.919h6.957V15.857H35.17V2.919H51.648a1.46,1.46,0,1,0,0-2.919H2.28A2.275,2.275,0,0,0,.008,2.272V17.164A1.53,1.53,0,0,0,0,17.317V33.175a1.468,1.468,0,0,0,.008.153V48.879A1.465,1.465,0,0,0,0,49.032V54.2a1.46,1.46,0,1,0,2.919,0V50.492h13.2V63.429H2.919v-3.37a1.46,1.46,0,0,0-2.919,0v4.83a1.469,1.469,0,0,0,.008.153V79.934A2.274,2.274,0,0,0,2.28,82.206H97.375a2.275,2.275,0,0,0,2.272-2.272V65.7a2.275,2.275,0,0,0-2.272-2.272m-15.309-28.8H96.727V47.572H67.411V34.634ZM51.283,18.777H80.606V31.715H51.283Zm13.2,15.857V47.572H35.17V34.634H64.485ZM48.364,18.777V31.715H19.041V18.777ZM2.928,2.919H32.25V15.857H2.928ZM2.919,18.777h13.2V31.715H2.919Zm.008,28.8V34.634H32.25V47.572H2.928ZM32.25,79.287H2.928V66.349H32.25Zm1.46-15.857H19.041V50.492H48.364V63.429ZM64.485,79.287H35.17V66.349H64.485Zm1.467-15.857H51.284V50.492H80.606V63.429ZM96.727,79.287H67.411V66.349H96.727Z" fill="#373737"/>
  </g>
</svg>
