<svg xmlns="http://www.w3.org/2000/svg" xmlns:xlink="http://www.w3.org/1999/xlink" width="81.019" height="81.022" viewBox="0 0 81.019 81.022">
  <defs>
    <clipPath id="clip-path">
      <rect id="Rectangle_3308" data-name="Rectangle 3308" width="81.019" height="81.022" fill="#373737"/>
    </clipPath>
  </defs>
  <g id="Group_6515" data-name="Group 6515" clip-path="url(#clip-path)">
    <path id="Path_64597" data-name="Path 64597" d="M.213,7.494l5.4,9.448a1.349,1.349,0,0,0,.843.64l5.037,1.259L28.77,36.118l1.909-1.908L13.132,16.663a1.345,1.345,0,0,0-.626-.355l-4.84-1.214-4.6-8.049L7.009,3.1l8.052,4.6,1.215,4.84a1.347,1.347,0,0,0,.355.627L34.178,30.719l1.908-1.909L18.81,11.534,17.551,6.5a1.352,1.352,0,0,0-.64-.845L7.463.256a1.35,1.35,0,0,0-1.62.217l-5.4,5.4A1.349,1.349,0,0,0,.213,7.494" transform="translate(-0.035 -0.068)" fill="#373737"/>
    <rect id="Rectangle_3306" data-name="Rectangle 3306" width="41.994" height="2.699" transform="translate(24.692 54.387) rotate(-45.001)" fill="#373737"/>
    <path id="Path_64598" data-name="Path 64598" d="M62.088,399.106a1.35,1.35,0,0,0-1.157-.655h-8.1a1.349,1.349,0,0,0-1.157.655l-4.049,6.748a1.349,1.349,0,0,0,0,1.39l4.049,6.749a1.349,1.349,0,0,0,1.157.655h8.1a1.351,1.351,0,0,0,1.157-.655l4.049-6.749a1.35,1.35,0,0,0,0-1.39Zm-1.921,12.842H53.6l-3.239-5.4,3.239-5.4h6.571l3.239,5.4Z" transform="translate(-40.685 -341.759)" fill="#373737"/>
    <path id="Path_64599" data-name="Path 64599" d="M64.787,32.4a16.141,16.141,0,0,0,15.7-20.111,1.349,1.349,0,0,0-2.263-.629l-8.4,8.4-6.666-2.221-2.223-6.665,8.4-8.4A1.35,1.35,0,0,0,68.7.5,16.147,16.147,0,0,0,48.591,16.2a15.839,15.839,0,0,0,.328,3.163L19.359,48.921a15.922,15.922,0,0,0-3.162-.328,16.2,16.2,0,1,0,16.2,16.2,15.882,15.882,0,0,0-.328-3.163l7.077-7.077,3.095,3.1a1.35,1.35,0,0,0,1.909,0l.675-.675a1.514,1.514,0,0,1,2.143,2.138l0,0-.675.675a1.35,1.35,0,0,0,0,1.908l16.1,16.1A10.894,10.894,0,1,0,77.863,62.459l-.069-.07-16.1-16.1a1.349,1.349,0,0,0-1.908,0l-.675.675a1.514,1.514,0,0,1-2.144-2.138l0,0,.675-.675a1.349,1.349,0,0,0,0-1.908l-3.095-3.1,7.077-7.076a15.89,15.89,0,0,0,3.162.328m5.3,45.891a8.2,8.2,0,0,1-2.871-.524L77.761,67.222a8.185,8.185,0,0,1-7.671,11.066M54.8,43.207a4.212,4.212,0,0,0,5.939,5.931L75.885,64.3c.164.165.318.339.467.515l-11.54,11.54c-.177-.148-.351-.3-.516-.467L49.137,60.727A4.213,4.213,0,0,0,43.2,54.8l-2.159-2.159,11.6-11.583Zm5.45-13.575L29.631,60.245a1.352,1.352,0,0,0-.357,1.283,13.587,13.587,0,1,1-9.815-9.816,1.362,1.362,0,0,0,1.283-.356L51.354,20.742a1.348,1.348,0,0,0,.355-1.282A13.432,13.432,0,0,1,65.554,2.724l-7.12,7.123a1.349,1.349,0,0,0-.327,1.38l2.7,8.1a1.351,1.351,0,0,0,.855.853l8.1,2.7a1.35,1.35,0,0,0,1.38-.325l7.12-7.12c.016.258.024.512.024.766a13.428,13.428,0,0,1-16.76,13.078,1.351,1.351,0,0,0-1.283.355h.007Z" transform="translate(0 0)" fill="#373737"/>
    <rect id="Rectangle_3307" data-name="Rectangle 3307" width="2.699" height="19.088" transform="matrix(0.707, -0.707, 0.707, 0.707, 54.387, 56.296)" fill="#373737"/>
  </g>
</svg>
