<svg id="Group_6441" data-name="Group 6441" xmlns="http://www.w3.org/2000/svg" xmlns:xlink="http://www.w3.org/1999/xlink" width="113.768" height="112.251" viewBox="0 0 113.768 112.251">
  <defs>
    <clipPath id="clip-path">
      <rect id="Rectangle_3238" data-name="Rectangle 3238" width="113.768" height="112.251" fill="#373737"/>
    </clipPath>
  </defs>
  <g id="Group_6440" data-name="Group 6440" clip-path="url(#clip-path)">
    <path id="Path_64467" data-name="Path 64467" d="M3.179,61.079A28.8,28.8,0,0,1,23.916,33.43l1.53-.045c.082,0,.163,0,.245,0,.321,0,.638-.016.953-.04L62.97,32.287A1.591,1.591,0,0,0,64.513,30.7V23.271a1.585,1.585,0,0,0,.082-.5,1.6,1.6,0,0,0-.022-.25,3.677,3.677,0,0,1,.23-.776,3.729,3.729,0,0,1,1.345-1.633,3.687,3.687,0,0,1,1.187-.525,8.4,8.4,0,0,1,.885-.047H80.3a8.429,8.429,0,0,1,.869.045,3.776,3.776,0,0,1,.417.123,3.717,3.717,0,0,1,2.355,2.78,1.61,1.61,0,0,0,.067.241v8.206A1.591,1.591,0,0,0,85.4,32.512a28.576,28.576,0,0,1,8.647,2.506l3.932,2.245a28.942,28.942,0,0,1,9.148,10.117,28.653,28.653,0,0,1,3.462,13.7v5.8a28.647,28.647,0,0,1-3.609,13.967,28.937,28.937,0,0,1-7.865,9.031,16.212,16.212,0,0,0-31.18,5.794H31.97c-.943,0-1.876-.047-2.8-.136a1.589,1.589,0,0,0-1.742,1.582v7.077a.153.153,0,0,1-.012.061.163.163,0,0,1-.059.071.148.148,0,0,1-.088.026h-3.16a.154.154,0,0,1-.061-.012.169.169,0,0,1-.072-.059.152.152,0,0,1-.026-.088V95.709A1.585,1.585,0,0,0,22.865,94.2,28.8,28.8,0,0,1,3.179,66.88ZM17.9,26.067a9.4,9.4,0,1,1,16.455-1.6,9.442,9.442,0,0,1-3.407,4.136,9.334,9.334,0,0,1-4.426,1.567l-1.069.031A9.363,9.363,0,0,1,17.9,26.067m21.029-1.708v5.453l-4.587.134a12.537,12.537,0,0,0,3.421-5.587ZM42.1,11.415h5.51V21.18H42.1Zm0,18.3V24.359h5.51v5.2Zm19.231-5.359v4.8l-10.542.309V24.359Zm8.818-9.152a3.683,3.683,0,0,1,2.015-.594h.067a1.589,1.589,0,0,0,1.589-1.589v-5.2a1.589,1.589,0,0,0-1.589-1.589h-1.3a.079.079,0,0,1-.033-.006.09.09,0,0,1-.039-.033.078.078,0,0,1-.014-.047v-.7a.084.084,0,0,1,.006-.033.093.093,0,0,1,.033-.039.078.078,0,0,1,.047-.014h6.662a.081.081,0,0,1,.033.006.094.094,0,0,1,.039.033.076.076,0,0,1,.014.047v.7a.079.079,0,0,1-.006.033.092.092,0,0,1-.033.039.075.075,0,0,1-.047.014h-1.3A1.59,1.59,0,0,0,74.7,7.818v5.2a1.589,1.589,0,0,0,1.589,1.589h.067a3.7,3.7,0,0,1,3.011,1.542c.034.047.065.1.1.146h-10.4a3.742,3.742,0,0,1,1.1-1.093M91.126,15a7.273,7.273,0,1,1,7.341,2.532,1.588,1.588,0,0,0-1.227,1.547v2.1h-.874v-2.1a1.588,1.588,0,0,0-1.227-1.547A7.281,7.281,0,0,1,91.126,15m4.087,17.051a31.755,31.755,0,0,0-8.027-2.492v-5.2h8.027Zm.894,69.085a13.009,13.009,0,1,1,1.02-5.055,13.038,13.038,0,0,1-1.02,5.055M20.773,96.831v7.363a3.337,3.337,0,0,0,3.338,3.338h3.16a3.338,3.338,0,0,0,3.338-3.338V98.819c.451.019.9.031,1.362.031H68.213a16.051,16.051,0,0,0,1.034,3.528,16.168,16.168,0,0,0,30.789-9.241A31.932,31.932,0,0,0,113.768,66.88v-5.8A31.939,31.939,0,0,0,99.721,34.6l-.1-.065-1.225-.7v-9.48h7.95a1.589,1.589,0,0,0,0-3.179h-5.923v-.917a10.449,10.449,0,1,0-7.231,0V20.6H86.681a6.88,6.88,0,0,0-3.591-3.71A6.886,6.886,0,0,0,77.876,11.6V9.393a3.261,3.261,0,0,0,2.98-3.25v-.7a3.265,3.265,0,0,0-3.265-3.265H70.929a3.264,3.264,0,0,0-3.265,3.265v.7a3.261,3.261,0,0,0,2.98,3.251v2.211a6.832,6.832,0,0,0-1.079.338,6.891,6.891,0,0,0-4.137,4.951,6.877,6.877,0,0,0-3.8,4.286H50.792V11.415h3.226a1.589,1.589,0,0,0,0-3.179H35.79a1.589,1.589,0,1,0,0,3.179h3.135V21.18h-.664c0-.122.007-.244.007-.367a12.579,12.579,0,1,0-19.61,10.428q.349.236.715.448A31.984,31.984,0,0,0,0,61.079v5.8A31.981,31.981,0,0,0,20.773,96.831" transform="translate(0 0)" fill="#373737"/>
    <path id="Path_64468" data-name="Path 64468" d="M402.937,26.029a1.7,1.7,0,0,0,.961-3.11l-.365-2.02-.339-1.88a.261.261,0,0,0-.514,0l-.339,1.88-.365,2.02a1.7,1.7,0,0,0,.961,3.11" transform="translate(-306.134 -14.348)" fill="#373737"/>
    <path id="Path_64469" data-name="Path 64469" d="M397.928,53.038a1.589,1.589,0,0,0-1.589-1.589h-6.278a1.589,1.589,0,1,0,0,3.179h6.278a1.589,1.589,0,0,0,1.589-1.589" transform="translate(-296.398 -39.255)" fill="#373737"/>
    <path id="Path_64470" data-name="Path 64470" d="M32.118,198.484a27.058,27.058,0,0,0,15.2,4.653h6.516a1.589,1.589,0,0,0,0-3.179H47.319a23.879,23.879,0,0,1-9.34-1.89A24.179,24.179,0,0,1,27.4,189.355a23.876,23.876,0,0,1-4.108-13.42v-5.8a23.89,23.89,0,0,1,1.89-9.34A24.184,24.184,0,0,1,33.9,150.218a23.876,23.876,0,0,1,13.42-4.107h6.516a1.589,1.589,0,0,0,0-3.179H47.319a27.064,27.064,0,0,0-10.58,2.142,27.358,27.358,0,0,0-11.969,9.86,27.057,27.057,0,0,0-4.653,15.2v5.8a27.068,27.068,0,0,0,2.142,10.58,27.359,27.359,0,0,0,9.86,11.969" transform="translate(-15.349 -109.055)" fill="#373737"/>
    <path id="Path_64471" data-name="Path 64471" d="M332.747,380.36a5.259,5.259,0,0,1-1.9,2.3,5.244,5.244,0,0,1-4.961.482,5.259,5.259,0,0,1-2.3-1.9,5.242,5.242,0,0,1-.482-4.961,5.259,5.259,0,0,1,1.9-2.3,5.245,5.245,0,0,1,4.961-.482,5.26,5.26,0,0,1,2.3,1.9,5.247,5.247,0,0,1,.482,4.961m-.118-9.011a8.4,8.4,0,1,0,3.046,3.7,8.38,8.38,0,0,0-3.046-3.7" transform="translate(-243.783 -282.237)" fill="#373737"/>
  </g>
</svg>
