<svg xmlns="http://www.w3.org/2000/svg" xmlns:xlink="http://www.w3.org/1999/xlink" width="31.21" height="80.102" viewBox="0 0 31.21 80.102">
  <defs>
    <clipPath id="clip-path">
      <rect id="Rectangle_3303" data-name="Rectangle 3303" width="31.21" height="80.102" fill="#303030"/>
    </clipPath>
  </defs>
  <g id="Group_6509" data-name="Group 6509" clip-path="url(#clip-path)">
    <path id="Path_64594" data-name="Path 64594" d="M31.118,10.36c0-.009.006-.02.009-.03a1.154,1.154,0,0,0,.059-.191A1.179,1.179,0,0,0,31.21,9.9V1.179A1.179,1.179,0,0,0,30.031,0H1.179A1.179,1.179,0,0,0,0,1.179V9.9a1.179,1.179,0,0,0,.024.234,1.138,1.138,0,0,0,.059.191c0,.01.005.021.009.03a1.156,1.156,0,0,0,.11.2c.006.009.015.017.021.026a1.2,1.2,0,0,0,.127.152v0l7.8,7.656v8.035l-1.294.454a1.179,1.179,0,0,0,.705,2.25l.076-.027.512-.18v4.393l-1.294.455a1.181,1.181,0,0,0,.782,2.229l.512-.18v4.393l-1.294.454a1.179,1.179,0,0,0,.705,2.25l.076-.027.512-.18v4.393l-1.294.454a1.179,1.179,0,1,0,.705,2.25q.039-.012.076-.027l.512-.18V54l-1.294.455a1.179,1.179,0,1,0,.705,2.25q.039-.012.076-.027l.512-.18V60.9l-1.294.454a1.179,1.179,0,0,0,.705,2.25q.039-.012.076-.027l.512-.18v3.288a1.161,1.161,0,0,0,.031.259c.005.024.015.047.022.071a1.155,1.155,0,0,0,.064.173c.005.011.007.023.013.034l6.28,12.241a1.179,1.179,0,0,0,2.1,0l6.28-12.241c.005-.011.007-.023.013-.034a1.154,1.154,0,0,0,.064-.173c.007-.024.017-.047.022-.071a1.161,1.161,0,0,0,.031-.259V58.155l1.294-.454a1.179,1.179,0,0,0-.782-2.224l-.512.18V51.264l1.294-.454a1.179,1.179,0,0,0-.782-2.224l-.512.18V44.373l1.294-.455a1.179,1.179,0,0,0-.769-2.228l-.012,0-.512.18v-4.4l1.294-.454a1.179,1.179,0,0,0-.782-2.224l-.512.18V30.586l1.294-.455a1.179,1.179,0,1,0-.769-2.228l-.013,0-.512.18V23.694l1.294-.455a1.179,1.179,0,1,0-.769-2.228l-.013,0-.512.18V18.4l7.793-7.658,0,0a1.183,1.183,0,0,0,.127-.152c.006-.009.015-.016.021-.026a1.156,1.156,0,0,0,.11-.2M28.852,8.725H2.358V2.358H28.852ZM4.062,11.083H27.148L21.4,16.726H9.81ZM15.605,76.342l-4.349-8.478h8.7Zm5.1-10.837H10.5V62.568l10.2-3.582Zm0-9.021L10.5,60.069V55.676l10.2-3.584Zm0-6.892L10.5,53.177V48.783l10.2-3.584Zm0-6.893L10.5,46.284V41.891l10.2-3.584Zm0-6.892L10.5,39.391V35l10.2-3.585Zm0-6.893L10.5,32.5V28.106l10.2-3.584ZM10.5,25.606V19.085h10.2v2.938Z" fill="#303030"/>
  </g>
</svg>
