<?xml version="1.0" standalone="no"?>
<!DOCTYPE svg PUBLIC "-//W3C//DTD SVG 20010904//EN"
 "http://www.w3.org/TR/2001/REC-SVG-20010904/DTD/svg10.dtd">
<svg version="1.0" xmlns="http://www.w3.org/2000/svg"
 width="260.000000pt" height="260.000000pt" viewBox="0 0 260.000000 260.000000"
 preserveAspectRatio="xMidYMid meet">
<metadata>
Created by potrace 1.11, written by Peter Selinger 2001-2013
</metadata>
<g transform="translate(0.000000,260.000000) scale(0.100000,-0.100000)"
fill="#000000" stroke="none">
<path d="M2131 2581 c-18 -10 -38 -26 -44 -37 -10 -18 -9 -18 8 -4 11 8 -6
-10 -36 -41 -31 -31 -78 -91 -105 -135 -27 -43 -81 -127 -121 -187 -80 -119
-172 -301 -258 -507 -71 -169 -185 -474 -185 -494 0 -8 -4 -18 -10 -21 -5 -3
-10 1 -10 9 0 60 -154 428 -214 511 -12 17 -28 44 -36 60 -26 53 -111 130
-155 141 -97 25 -298 -56 -340 -136 -31 -60 -26 -76 125 -350 34 -63 66 -117
69 -120 44 -36 163 -253 255 -464 70 -163 130 -235 196 -240 29 -2 109 5 205
19 125 18 168 60 213 210 19 61 39 126 44 145 6 19 21 51 33 70 12 19 31 62
44 95 12 33 33 85 46 115 13 30 27 66 31 80 3 14 14 34 24 45 9 11 23 36 30
55 8 19 29 60 47 91 19 31 35 66 38 78 2 12 20 48 39 80 20 32 56 100 80 152
24 52 56 111 70 131 14 21 38 64 53 95 15 32 32 65 39 73 23 29 157 295 164
328 7 27 4 38 -16 61 -13 16 -41 37 -62 48 -20 10 -49 27 -63 36 -36 24 -134
33 -156 15 -12 -9 -15 -9 -9 0 8 14 10 15 -33 -7z m-407 -799 c3 -5 -1 -9 -9
-9 -8 0 -12 4 -9 9 3 4 7 8 9 8 2 0 6 -4 9 -8z m-33 -49 c-12 -20 -14 -14 -5
12 4 9 9 14 11 11 3 -2 0 -13 -6 -23z m-243 -508 c-6 -14 -13 -23 -15 -21 -5
5 15 46 22 46 3 0 -1 -11 -7 -25z"/>
<path d="M1228 2585 c-2 -2 -34 -5 -72 -9 -318 -30 -665 -218 -872 -471 -120
-147 -226 -369 -250 -524 -3 -20 -8 -39 -10 -43 -18 -29 -25 -367 -11 -480 44
-337 288 -673 632 -871 212 -122 478 -187 719 -174 61 3 125 9 141 12 422 81
753 333 949 722 42 85 65 144 30 81 -8 -16 -19 -28 -24 -28 -6 0 -24 -22 -41
-50 -36 -59 -47 -66 -20 -13 63 125 105 259 116 366 8 77 -8 92 -25 25 -33
-127 -76 -253 -116 -336 -25 -52 -47 -92 -50 -89 -3 2 9 33 25 68 56 121 95
260 105 374 l6 60 -14 -45 c-7 -25 -23 -83 -34 -130 -30 -122 -98 -277 -162
-367 -53 -75 -210 -245 -210 -228 0 5 -10 -1 -22 -12 -138 -124 -392 -218
-642 -239 -33 -3 -62 -7 -66 -9 -3 -2 -28 1 -55 6 -28 5 -72 12 -100 15 -71 8
-247 69 -335 116 -101 54 -196 125 -269 203 -33 36 -64 65 -69 65 -4 0 -19 19
-31 42 -113 209 -155 306 -166 381 -3 27 -8 59 -11 70 -10 53 -14 231 -5 217
8 -11 10 0 8 38 -1 28 1 52 5 52 4 0 5 16 4 35 -2 19 0 35 6 35 5 0 6 10 3 21
-5 14 -4 19 4 15 7 -4 9 -1 5 7 -3 8 -1 18 5 21 6 4 8 12 5 19 -13 35 128 332
148 312 3 -3 5 1 5 8 0 21 35 67 46 60 6 -4 7 -1 2 6 -5 9 20 40 74 93 88 86
82 97 -20 37 -28 -16 -53 -28 -55 -26 -2 2 9 22 25 44 50 69 181 170 285 218
21 10 41 26 43 35 5 19 57 53 67 43 3 -3 6 -1 6 5 0 6 9 14 21 17 11 4 18 9
16 12 -7 6 -150 -43 -210 -73 -165 -83 -329 -227 -435 -382 -64 -93 -156 -277
-147 -292 3 -4 0 -10 -5 -12 -6 -2 -12 -10 -14 -18 -1 -8 -8 -35 -15 -60 -26
-90 -41 -179 -42 -250 0 -30 -3 -49 -6 -42 -10 25 -20 11 -18 -27 1 -22 -2
-38 -6 -35 -4 2 -6 18 -4 34 3 21 1 28 -7 24 -7 -5 -8 -2 -3 7 5 7 10 36 12
64 3 62 29 190 55 273 10 34 16 68 12 74 -5 7 -3 8 6 3 10 -6 12 -4 7 9 -5 11
-3 15 5 10 7 -5 9 0 6 14 -4 12 -3 20 1 17 4 -2 15 12 24 31 23 47 21 57 -3
14 -11 -19 -19 -31 -20 -27 0 15 83 167 99 180 8 7 5 -2 -7 -20 -12 -17 -22
-35 -22 -39 0 -4 23 26 51 67 28 41 61 85 72 99 12 14 8 12 -8 -5 -17 -16 -40
-43 -52 -60 -12 -16 -23 -27 -23 -23 0 6 49 70 113 145 143 169 436 334 672
379 11 2 31 6 45 9 87 19 278 27 367 16 34 -4 60 -4 57 0 -10 16 -265 29 -356
18 -27 -3 -48 -2 -48 2 0 8 161 28 248 31 116 3 57 29 -75 33 -40 1 -74 1 -75
0z m-111 -71 c-3 -3 -12 -4 -19 -1 -8 3 -5 6 6 6 11 1 17 -2 13 -5z"/>
<path d="M1338 2471 c13 -8 120 -15 112 -8 -3 3 -32 7 -64 10 -33 3 -54 2 -48
-2z"/>
<path d="M1740 2456 c20 -7 60 -26 89 -40 29 -15 51 -23 48 -19 -9 14 -109 61
-142 68 -28 5 -27 4 5 -9z"/>
<path d="M1759 2330 c35 -17 66 -28 68 -26 5 4 -73 41 -107 50 -14 4 4 -7 39
-24z"/>
<path d="M1388 2273 c7 -3 16 -2 19 1 4 3 -2 6 -13 5 -11 0 -14 -3 -6 -6z"/>
<path d="M1058 2253 c6 -2 18 -2 25 0 6 3 1 5 -13 5 -14 0 -19 -2 -12 -5z"/>
<path d="M725 2112 c-16 -11 -37 -27 -45 -37 -8 -11 6 -4 33 15 41 29 53 40
45 40 -2 0 -16 -8 -33 -18z"/>
<path d="M2337 2033 c-14 -13 -6 -38 32 -97 21 -34 55 -92 76 -131 23 -40 40
-64 43 -55 3 8 0 16 -6 18 -7 2 -12 8 -12 14 0 16 -48 107 -92 175 -22 34 -37
67 -33 73 7 11 2 14 -8 3z"/>
<path d="M220 1840 c-6 -11 -8 -20 -6 -20 3 0 10 9 16 20 6 11 8 20 6 20 -3 0
-10 -9 -16 -20z"/>
<path d="M92 1315 c0 -16 2 -22 5 -12 2 9 2 23 0 30 -3 6 -5 -1 -5 -18z"/>
<path d="M2505 879 c-4 -6 -5 -12 -2 -15 2 -3 7 2 10 11 7 17 1 20 -8 4z"/>
<path d="M1505 530 c-3 -6 1 -7 9 -4 18 7 21 14 7 14 -6 0 -13 -4 -16 -10z"/>
</g>
</svg>
