<svg xmlns="http://www.w3.org/2000/svg" width="20.271" height="20.271" viewBox="0 0 20.271 20.271">
  <path id="language_1_" data-name="language (1)" d="M10.06,0a10.06,10.06,0,1,0,10.06,10.06A10.06,10.06,0,0,0,10.06,0Zm8.7,13.585-2.861.494a15.013,15.013,0,0,0,.526-3.683h3.015a9.327,9.327,0,0,1-.681,3.189ZM.679,10.4H3.694a15.013,15.013,0,0,0,.526,3.683L1.36,13.585A9.328,9.328,0,0,1,.679,10.4Zm.681-3.86,2.861-.494a15.013,15.013,0,0,0-.526,3.683H.679A9.327,9.327,0,0,1,1.36,6.536ZM10.4,5.384a23.07,23.07,0,0,1,3.595.328l1.184.2a14.394,14.394,0,0,1,.582,3.808H10.4Zm3.709-.333A23.77,23.77,0,0,0,10.4,4.714V.69c1.923.185,3.593,1.945,4.539,4.507Zm-4.38-.338a23.766,23.766,0,0,0-3.709.338l-.83.144C6.133,2.633,7.8.872,9.725.688Zm-3.595,1a23.064,23.064,0,0,1,3.595-.328V9.725H4.365a14.4,14.4,0,0,1,.582-3.808ZM4.365,10.4h5.36v4.341a23.07,23.07,0,0,1-3.595-.328l-1.184-.2A14.4,14.4,0,0,1,4.365,10.4Zm1.651,4.673a23.85,23.85,0,0,0,3.709.34v4.024c-1.923-.185-3.593-1.945-4.539-4.507Zm4.38.34a23.848,23.848,0,0,0,3.709-.34l.83-.144c-.946,2.562-2.616,4.323-4.539,4.507Zm3.595-1a23.064,23.064,0,0,1-3.595.328V10.4h5.36a14.4,14.4,0,0,1-.582,3.808Zm2.436-4.683A15.013,15.013,0,0,0,15.9,6.042l2.861.494a9.328,9.328,0,0,1,.681,3.189Zm2-3.928-2.743-.473a9.247,9.247,0,0,0-2.668-4.175A9.434,9.434,0,0,1,18.422,5.8ZM7.109,1.148A9.247,9.247,0,0,0,4.441,5.324L1.7,5.8A9.434,9.434,0,0,1,7.109,1.148ZM1.7,14.324l2.743.473a9.247,9.247,0,0,0,2.668,4.175A9.434,9.434,0,0,1,1.7,14.324Zm11.313,4.648A9.247,9.247,0,0,0,15.679,14.8l2.743-.473a9.434,9.434,0,0,1-5.411,4.648Zm0,0" transform="translate(0.075 0.075)" fill="#145aaa" stroke="#1450a0" stroke-width="0.15"/>
</svg>
