<svg id="Group_178915" data-name="Group 178915" xmlns="http://www.w3.org/2000/svg" xmlns:xlink="http://www.w3.org/1999/xlink" width="60" height="38.004" viewBox="0 0 60 38.004">
  <defs>
    <clipPath id="clip-path">
      <rect id="Rectangle_150566" data-name="Rectangle 150566" width="60" height="38.004" fill="#27acba"/>
    </clipPath>
  </defs>
  <g id="Group_178914" data-name="Group 178914" clip-path="url(#clip-path)">
    <path id="Path_120600" data-name="Path 120600" d="M9.222,16.118c-.078-1.313-.239-2.555-.211-3.793A12.976,12.976,0,0,1,33.523,7.042c.191.362.36.439.769.324a9.994,9.994,0,0,1,12.1,6.229.588.588,0,0,0,.721.457,11.989,11.989,0,0,1,3.157,23.731,14.234,14.234,0,0,1-2.609.209q-18.19.02-36.381.006A11.006,11.006,0,0,1,8.717,16.233c.2-.041.393-.09.505-.115M29.513,35.98V36q9,0,18-.006a14.279,14.279,0,0,0,2.052-.133A9.994,9.994,0,1,0,46.3,16.143c-.565.092-1.051.048-1.338-.508a4.693,4.693,0,0,1-.289-.822,7.948,7.948,0,0,0-8.992-5.706,12.423,12.423,0,0,0-1.906.57,1.068,1.068,0,0,1-1.521-.637c-.082-.168-.149-.344-.231-.512a10.619,10.619,0,0,0-9.387-6.442,10.867,10.867,0,0,0-11.6,11.025,17.651,17.651,0,0,0,.538,3.374c.19.928-.088,1.4-1.024,1.521-.515.069-1.038.1-1.545.213a8.978,8.978,0,0,0,1.453,17.742c6.353.072,12.708.019,19.062.019" transform="translate(0.001 0)" fill="#27acba"/>
  </g>
</svg>
