<svg id="Group_178921" data-name="Group 178921" xmlns="http://www.w3.org/2000/svg" xmlns:xlink="http://www.w3.org/1999/xlink" width="49.292" height="60" viewBox="0 0 49.292 60">
  <defs>
    <clipPath id="clip-path">
      <rect id="Rectangle_150569" data-name="Rectangle 150569" width="49.292" height="60" fill="#27acba"/>
    </clipPath>
  </defs>
  <g id="Group_178920" data-name="Group 178920" clip-path="url(#clip-path)">
    <path id="Path_120606" data-name="Path 120606" d="M46.6,60a3.05,3.05,0,0,1-1.791-1.654c-.487-.955-1.048-1.873-1.535-2.828s-.918-1.933-1.4-2.954c-.094.15-.173.267-.242.39a10.09,10.09,0,0,1-5.684,4.707,28.423,28.423,0,0,1-6.674,1.449c-.633.059-1.06-.208-1.143-.728s.253-.928.895-1a28.32,28.32,0,0,0,6.332-1.377,8.132,8.132,0,0,0,5.412-5.555,1.793,1.793,0,0,0,.036-.905c-.553-2.253-1.12-4.5-1.722-6.742a2.029,2.029,0,0,0-.619-1.062c-.824-.612-1.736-1.1-2.592-1.675a21.066,21.066,0,0,1-3.041-2.143,3.783,3.783,0,0,1-.011-5.761,19.61,19.61,0,0,1,2.889-2.057c.227-.153.416-.242.335-.572-.257-1.038-.492-2.082-.743-3.157-1.407.049-2.025-.762-2.31-2.013-.2-.88-.533-1.73.09-2.579.064-.087-.019-.3-.059-.444q-.736-2.74-1.481-5.477a1.421,1.421,0,0,1-.131-.506c.136-.917-.477-1.28-1.142-1.624a1.573,1.573,0,0,1-.469-.347,2.6,2.6,0,0,0-2.111-.748,26.1,26.1,0,0,0-15.511,4.2C6.769,20.385,3.21,25.262,2.139,31.721A20.049,20.049,0,0,0,6.506,48.07a24.812,24.812,0,0,0,17.159,9.247c.387.046.778.071,1.166.109.624.061.974.431.927.975-.044.509-.423.815-1.042.775a27.585,27.585,0,0,1-9.074-2.122C10.112,54.706,5.618,51.094,2.834,45.718-1.4,37.536-.883,29.485,4.364,21.934,8.588,15.855,14.647,12.5,21.886,11.274c1.914-.324,3.877-.355,5.837-.523-.1-.363-.241-.821-.332-1.289a5.44,5.44,0,0,1,.6-3.57,31,31,0,0,0,2.288-4.859A1.632,1.632,0,0,1,32.86.364,42.091,42.091,0,0,0,36.7,3.019c3.728,2.108,3.935,6.088,2.186,8.926-.2.319-.112.538-.036.876.216.963.984,1.241,1.679,1.692A42.246,42.246,0,0,1,44.645,17.4a7.158,7.158,0,0,1-1.462,12.1c-.1.052-.2.107-.344.182.615,1.962,1.225,3.911,1.837,5.859.438,1.4.883,2.788,1.314,4.185a.9.9,0,0,1-.384,1.169.769.769,0,0,1-1.014-.151,1.81,1.81,0,0,1-.331-.67Q42.028,32.989,39.808,25.9c-.069-.221-.144-.44-.232-.71l-2.571.7c.552,2.391,1.083,4.726,1.631,7.057C39.8,37.9,40.95,42.862,42.154,47.807a37.451,37.451,0,0,0,4.42,10.03c.106.18.382.259.578.385.126-.235.359-.469.361-.706a40.991,40.991,0,0,0-1.776-12.7c-.052-.168-.115-.333-.154-.5a.868.868,0,0,1,.558-1.081.841.841,0,0,1,1.115.572c.273.854.515,1.718.741,2.586a43.948,43.948,0,0,1,1.295,11.194A2.43,2.43,0,0,1,47.542,60ZM31.817,2.005c-.154.4-.311.922-.55,1.406-.545,1.1-1.194,2.154-1.674,3.28a4.936,4.936,0,0,0-.465,2.187c.144,1.981,1.435,3.165,3.142,3.957a.9.9,0,0,0,.558,0q1.9-.494,3.781-1.025a.9.9,0,0,0,.467-.3C38.6,9.385,38.868,6.29,35.858,4.574c-1.384-.789-2.694-1.707-4.042-2.569M42.293,27.929a5.385,5.385,0,0,0,1.447-9c-1.038-.907-2.218-1.651-3.336-2.464a5.215,5.215,0,0,0-.535-.288c.269.989.519,1.865.744,2.747a1.526,1.526,0,0,0,.662,1.02A2.333,2.333,0,0,1,42,20.962a8.44,8.44,0,0,1,.39,1.405,1.906,1.906,0,0,1-.8,2.2.552.552,0,0,0-.212.439c.279.971.6,1.932.911,2.925m-7.53-6.951,4.263-1.172c-.545-2.017-1.072-3.952-1.589-5.89-.1-.376-.313-.431-.658-.332-1.069.3-2.139.6-3.217.875-.436.11-.51.331-.387.725.162.521.288,1.053.432,1.58.38,1.387.761,2.774,1.156,4.215M38.3,39.342l-1.805-7.8a24.719,24.719,0,0,0-2.289,1.691,2.23,2.23,0,0,0-.027,3.6,7.454,7.454,0,0,0,1.434,1.093c.836.492,1.716.909,2.687,1.416M34.426,22.889l.493,1.746,5.842-1.6L40.272,21.3l-5.846,1.593" transform="translate(0 0.001)" fill="#27acba"/>
    <path id="Path_120607" data-name="Path 120607" d="M40.389,200.852a5.349,5.349,0,1,1-5.329-5.393,5.356,5.356,0,0,1,5.329,5.393m-1.758-.053a3.591,3.591,0,1,0-3.594,3.629,3.6,3.6,0,0,0,3.594-3.629" transform="translate(-25.043 -164.857)" fill="#27acba"/>
    <path id="Path_120608" data-name="Path 120608" d="M65.713,135.1a4.7,4.7,0,1,1,4.71-4.671,4.678,4.678,0,0,1-4.71,4.671m-.018-1.758a2.938,2.938,0,1,0-2.908-2.965,2.931,2.931,0,0,0,2.908,2.965" transform="translate(-51.474 -106.025)" fill="#27acba"/>
    <path id="Path_120609" data-name="Path 120609" d="M73.8,274.12a4.581,4.581,0,1,1,4.576,4.575A4.6,4.6,0,0,1,73.8,274.12m1.758.008a2.823,2.823,0,1,0,2.807-2.852,2.81,2.81,0,0,0-2.807,2.852" transform="translate(-62.249 -227.321)" fill="#27acba"/>
    <path id="Path_120610" data-name="Path 120610" d="M137.006,100.287a4.59,4.59,0,1,1-4.648-4.559,4.573,4.573,0,0,1,4.648,4.559m-4.553,2.844a2.823,2.823,0,1,0-2.867-2.793,2.811,2.811,0,0,0,2.867,2.793" transform="translate(-107.814 -80.74)" fill="#27acba"/>
    <path id="Path_120611" data-name="Path 120611" d="M147.372,291.788a4.582,4.582,0,1,1-.013,9.163,4.582,4.582,0,0,1,.013-9.163m.007,1.758a2.824,2.824,0,1,0,2.825,2.82,2.8,2.8,0,0,0-2.825-2.82" transform="translate(-120.431 -246.105)" fill="#27acba"/>
  </g>
</svg>
