<svg id="Group_178919" data-name="Group 178919" xmlns="http://www.w3.org/2000/svg" xmlns:xlink="http://www.w3.org/1999/xlink" width="61.205" height="60" viewBox="0 0 61.205 60">
  <defs>
    <clipPath id="clip-path">
      <rect id="Rectangle_150568" data-name="Rectangle 150568" width="61.205" height="60" fill="#27acba"/>
    </clipPath>
  </defs>
  <g id="Group_178918" data-name="Group 178918" clip-path="url(#clip-path)">
    <path id="Path_120603" data-name="Path 120603" d="M0,36.576a1.42,1.42,0,0,1,1.134-.637,4.144,4.144,0,0,0,3.21-1.969c-.176-.051-.346-.09-.509-.149a13.852,13.852,0,0,1-1.612-.613,2.268,2.268,0,0,1-1.1-3.462,2.512,2.512,0,0,1,3.836-.819,4.3,4.3,0,0,1,1.726,3.149.659.659,0,0,0,.208.451,4.594,4.594,0,0,0,.149-.509A16.832,16.832,0,0,1,15.356,20c.591-.354,1.125-.269,1.4.208s.115.954-.508,1.329a14.668,14.668,0,0,0-6.6,7.686,17.922,17.922,0,0,0,.709,14.544,14.681,14.681,0,0,0,6.252,6.316,2.629,2.629,0,0,1,1.455,2.078c.291,1.826.7,3.633,1.031,5.453a.614.614,0,0,0,.716.6c1.215-.018,2.431-.024,3.645,0,.483.011.671-.194.746-.642.164-.981.365-1.955.545-2.934.211-1.145.7-1.564,1.845-1.455a38.978,38.978,0,0,0,9.353-.212,1.423,1.423,0,0,1,1.681,1.308c.21,1.074.431,2.146.6,3.227.079.507.275.723.811.708,1.174-.031,2.351-.035,3.525,0,.548.017.727-.227.815-.712.381-2.094.8-4.182,1.174-6.277A1.7,1.7,0,0,1,45.5,49.95a17.762,17.762,0,0,0,7.283-6.71,2.82,2.82,0,0,1,1.685-1.252q1.765-.553,3.525-1.12a1.676,1.676,0,0,0,1.416-1.914c0-1.235.005-2.47,0-3.705a1.568,1.568,0,0,0-1.219-1.69c-.716-.242-1.434-.476-2.158-.694a3,3,0,0,1-2.115-2.084,14.034,14.034,0,0,0-2.348-4.4q-.147-.188-.306-.367c-.022-.025-.069-.027-.146-.054-.078.172-.165.343-.235.521a4.529,4.529,0,0,1-4.683,3,6.869,6.869,0,0,1-7.1-6.971c-.018-1.067.119-2.137.19-3.295-.4-.094-.877-.219-1.357-.306a.452.452,0,0,0-.343.152c-.537.613-1.02,1.278-1.595,1.852-.558.556-1.206,1.023-1.859,1.567.473.15.924.283,1.369.436.631.216.882.633.719,1.166a.9.9,0,0,1-1.271.521,23.787,23.787,0,0,0-7.28-1.169,23.435,23.435,0,0,0-7.118,1.06c-.19.059-.381.118-.574.16a.878.878,0,0,1-.522-1.675c.5-.188,1.013-.324,1.591-.505-.172-.137-.284-.236-.4-.321a12.157,12.157,0,1,1,17.6-15.82q.612,1.124-.195,1.554c-.51.271-.944.045-1.363-.672a10.164,10.164,0,0,0-9.5-5.406,10.358,10.358,0,0,0-3.57,19.93,1.981,1.981,0,0,0,.926.1,25.923,25.923,0,0,1,6.079,0,2.133,2.133,0,0,0,1.088-.164,10.151,10.151,0,0,0,6.205-8.742c.049-.5.14-.966.722-1.1a.856.856,0,0,1,1.069.94,11.534,11.534,0,0,1-.871,4c-.05.127-.1.256-.17.45.873.128,1.6.553,2.568.069a29.826,29.826,0,0,1,7.149-2.628c.194-.041.392-.07.589-.1,1.965-.254,2.841.4,3.145,2.4a19.6,19.6,0,0,1-.265,6.416,1.041,1.041,0,0,0,.2.778,16.482,16.482,0,0,1,3.552,6.023,1.411,1.411,0,0,0,1.01,1q1.144.339,2.272.727A3.312,3.312,0,0,1,61.2,35.117q.018,2.062,0,4.124a3.3,3.3,0,0,1-2.325,3.2c-1.261.429-2.542.8-3.8,1.245a1.746,1.746,0,0,0-.863.657,19.408,19.408,0,0,1-7.426,6.929,1.032,1.032,0,0,0-.587.807c-.355,2-.741,3.99-1.129,5.982a2.191,2.191,0,0,1-2.345,1.93q-1.942.013-3.885,0a2.171,2.171,0,0,1-2.286-1.854c-.231-1.086-.427-2.179-.639-3.27-1.6.094-3.16.22-4.725.267-1.546.046-3.1.01-4.71.01-.164.851-.354,1.825-.537,2.8a2.238,2.238,0,0,1-2.432,2.049c-1.215.006-2.43,0-3.645,0a2.274,2.274,0,0,1-2.528-2.087c-.353-1.857-.7-3.714-1.086-5.564a1.047,1.047,0,0,0-.446-.622,17.057,17.057,0,0,1-8.791-12.49c-.256-1.583-.269-3.205-.4-4.929-.212-.147-.359.063-.539.346a6.425,6.425,0,0,1-3.9,3.039,7.724,7.724,0,0,1-.943.132A1.14,1.14,0,0,1,0,37.174ZM50.529,19.259c-.068-.711-.1-1.428-.211-2.133-.132-.867-.294-.968-1.15-.806A32.049,32.049,0,0,0,41.734,19a1.222,1.222,0,0,0-.6.81,16.023,16.023,0,0,0-.219,3.138,4.741,4.741,0,0,0,4,4.578c3.089.577,3.856-.266,4.625-2.522a20.25,20.25,0,0,0,.992-5.749M4.921,32.326A2.5,2.5,0,0,0,3.7,30.249c-.434-.227-.809-.03-1.1.489-.243.438-.016.7.338.849.606.259,1.235.465,1.979.74" transform="translate(0 0)" fill="#27acba"/>
    <path id="Path_120604" data-name="Path 120604" d="M156.105,48.122l-.6.706-.655-.631.12-.138a7.927,7.927,0,0,1-1.542-.376,5.3,5.3,0,0,1-1.448-.991.823.823,0,0,1,.078-1.23c.389-.4.721-.125,1.034.143a3.028,3.028,0,0,0,1.918.839c0-1.146.009-2.277-.013-3.407a.558.558,0,0,0-.294-.363c-.37-.191-.772-.317-1.142-.508a2.791,2.791,0,0,1,.4-5.142,3.3,3.3,0,0,0,.88-.347l.622-.7.638.6-.1.085c.646.172,1.3.315,1.934.528a.737.737,0,0,1,.533.935.682.682,0,0,1-1.026.532c-.456-.176-.917-.337-1.494-.547,0,1.124-.007,2.108.011,3.092,0,.1.144.216.249.275.207.116.436.191.651.294a3.084,3.084,0,0,1,1.929,3.305,2.981,2.981,0,0,1-2.5,2.811c-.095.025-.19.046-.286.069l.095.169m-.233-1.781a1.33,1.33,0,0,0,1.352-1.295,1.675,1.675,0,0,0-1.352-1.833Zm-.791-5.322V38.271c-.926.108-1.4.487-1.465,1.158-.076.75.4,1.28,1.465,1.59" transform="translate(-127.508 -30.232)" fill="#27acba"/>
    <path id="Path_120605" data-name="Path 120605" d="M288.278,202.7a2.914,2.914,0,0,1-2.919-2.676.917.917,0,0,1,.771-1.088c.54-.062.9.244,1,.857.123.735.534,1.136,1.156,1.126.6-.009,1-.4,1.109-1.1.1-.64.486-.96,1.046-.874a.926.926,0,0,1,.731,1.119,2.911,2.911,0,0,1-2.893,2.639" transform="translate(-239.788 -167.164)" fill="#27acba"/>
  </g>
</svg>
