<svg id="Group_178917" data-name="Group 178917" xmlns="http://www.w3.org/2000/svg" xmlns:xlink="http://www.w3.org/1999/xlink" width="60.009" height="60" viewBox="0 0 60.009 60">
  <defs>
    <clipPath id="clip-path">
      <rect id="Rectangle_150567" data-name="Rectangle 150567" width="60.009" height="60" fill="#27acba"/>
    </clipPath>
  </defs>
  <g id="Group_178916" data-name="Group 178916" clip-path="url(#clip-path)">
    <path id="Path_120601" data-name="Path 120601" d="M55.547,60c-.557-.572-1.109-1.149-1.673-1.714q-4.2-4.206-8.405-8.406c-.15-.15-.306-.293-.447-.275a13.517,13.517,0,0,1-2.1.53,2.7,2.7,0,0,1-2.172-.973c-.93-.943-1.866-1.881-2.723-2.746a28.77,28.77,0,0,1-3.41,1.724,12.7,12.7,0,0,1-14-3.121c-4.084-4-8.1-8.079-12.136-12.128a2.293,2.293,0,0,1-.3-.426A13.831,13.831,0,0,1,6.039,33.71a4.467,4.467,0,0,1-5.878-3.1c-.047-.165-.107-.327-.161-.491V28.828a5.6,5.6,0,0,1,.5-1.35,18.036,18.036,0,0,1,1.771-2.149c1.4-1.455,2.851-2.866,4.3-4.317-.175-.185-.317-.341-.467-.491-1.46-1.46-2.911-2.929-4.385-4.374A5.847,5.847,0,0,1,0,13.711V12.539a8.414,8.414,0,0,1,.73-1.374,2.974,2.974,0,0,1,4.32-.451c1.384,1.231,2.658,2.585,3.972,3.894.648.645,1.276,1.308,1.873,1.922l5.6-5.592c-.084-.09-.22-.246-.366-.392-1.7-1.7-3.409-3.384-5.09-5.1a3.124,3.124,0,1,1,4.457-4.362Q18.01,3.58,20.5,6.1c.15.151.274.328.431.519.212-.2.355-.32.488-.454C23,4.59,24.557,3,26.15,1.446a4.491,4.491,0,0,1,7.4,1.182,4.3,4.3,0,0,1-.453,4.591c-.189.269-.417.511-.649.791.155.162.3.317.445.466q6.047,6.049,12.1,12.1A12.947,12.947,0,0,1,48.972,30.88a12.567,12.567,0,0,1-2.132,6.3c-.159.241-.328.475-.514.743.885.884,1.741,1.737,2.6,2.591,1.471,1.471,1.619,2.7.509,4.486.134.141.276.3.424.444q4.866,4.868,9.741,9.727a1.274,1.274,0,0,1,.413,1.022C59.984,57.461,60,58.731,60,60ZM9.487,31.038a1.4,1.4,0,0,0,.11.143c4.209,4.211,8.368,8.474,12.642,12.618a10.824,10.824,0,0,0,15.306.187c2.38-2.193,4.638-4.528,6.848-6.9a9.945,9.945,0,0,0,2.593-6.38,11.036,11.036,0,0,0-3.475-8.8Q37.469,15.9,31.454,9.869c-.145-.145-.3-.283-.409-.388L9.487,31.038m22.489-26.5a2.52,2.52,0,0,0-.833-1.837,2.551,2.551,0,0,0-3.708.274Q15.211,15.2,2.991,27.425a4.621,4.621,0,0,0-.465.525,2.518,2.518,0,0,0,1.457,3.942,2.615,2.615,0,0,0,2.584-.87q6.746-6.76,13.5-13.509Q25.54,12.045,31.012,6.579a2.939,2.939,0,0,0,.965-2.037M45.061,39.506,39.53,45.041c.916.932,1.851,1.921,2.83,2.864a.906.906,0,0,0,1.367-.064q2.07-2.026,4.1-4.1a.946.946,0,0,0,.026-1.46c-.919-.952-1.873-1.871-2.789-2.78m1.3,8.622a2.941,2.941,0,0,1,.518.341c2.944,2.933,5.913,5.841,8.8,8.832a2.414,2.414,0,0,0,2.28.664,2.407,2.407,0,0,0-.766-2.408c-2.949-2.843-5.816-5.771-8.708-8.672a3.822,3.822,0,0,1-.375-.528l-1.745,1.771M19.534,7.974c-.114-.121-.244-.264-.38-.4Q16.7,5.113,14.236,2.655a3.308,3.308,0,0,0-.578-.487,1,1,0,0,0-1.2.08.938.938,0,0,0-.393,1.077,2.2,2.2,0,0,0,.507.822c1.281,1.309,2.586,2.594,3.876,3.894.5.509.99,1.037,1.486,1.557l1.6-1.623M9.55,17.963c-1.863-1.864-3.7-3.717-5.558-5.551a1.127,1.127,0,0,0-1.666-.057,1.112,1.112,0,0,0,.116,1.664c.925.949,1.871,1.876,2.807,2.814.907.909,1.811,1.82,2.724,2.737L9.55,17.963" transform="translate(0 0)" fill="#27acba"/>
    <path id="Path_120602" data-name="Path 120602" d="M143.385,134.705c-1.025,1.027-2,2.007-2.979,2.984-.927.926-1.623.794-2.1-.405-1.24-3.093-2.463-6.192-3.723-9.276a1.35,1.35,0,0,1,.344-1.674c1.523-1.486,3.013-3,4.521-4.506.846-.843,1.538-.694,1.991.422.431,1.061.857,2.124,1.32,3.271l2.349-2.357c.165-.166.324-.339.5-.5a1,1,0,0,1,1.768.548c.354,1.738.668,3.484.995,5.228.65,3.468,1.293,6.937,1.953,10.4.105.552.066,1.024-.471,1.311-.568.3-1,.027-1.4-.376-1.664-1.675-3.334-3.344-5.063-5.077m2.368-9.331c-.217.2-.359.331-.493.465-.706.7-1.394,1.422-2.119,2.1a.992.992,0,0,1-1.712-.346c-.084-.175-.147-.361-.219-.542l-1.19-2.964c-1.086,1.083-2.095,2.112-3.133,3.11a.624.624,0,0,0-.152.809c.945,2.329,1.871,4.665,2.806,7,.061.151.144.293.243.492.934-.938,1.81-1.827,2.7-2.706a1.076,1.076,0,0,1,1.805-.006c1.013,1,2.016,2.013,3.026,3.019.113.113.24.212.483.423l-2.04-10.857" transform="translate(-113.384 -102.301)" fill="#27acba"/>
  </g>
</svg>
