<svg id="Group_178847" data-name="Group 178847" xmlns="http://www.w3.org/2000/svg" xmlns:xlink="http://www.w3.org/1999/xlink" width="228" height="52.028" viewBox="0 0 228 52.028">
  <defs>
    <clipPath id="clip-path">
      <rect id="Rectangle_150528" data-name="Rectangle 150528" width="228" height="52.028" fill="none"/>
    </clipPath>
    <linearGradient id="linear-gradient" x1="0.5" x2="0.5" y2="1" gradientUnits="objectBoundingBox">
      <stop offset="0" stop-color="#6ae69e"/>
      <stop offset="0.276" stop-color="#3ec0b0"/>
      <stop offset="1" stop-color="#27acba"/>
    </linearGradient>
  </defs>
  <g id="Group_178847-2" data-name="Group 178847" clip-path="url(#clip-path)">
    <path id="Path_120583" data-name="Path 120583" d="M55.987.286A.5.5,0,0,0,55.41.009a3.371,3.371,0,0,0-1.259.7l-.03.022c-.267.185-.82.537-1.265.819-.247.158-.472.3-.621.4-.546.356-.994.667-1.46.992-.4.28-.819.57-1.326.907-.759.5-1.541,1.06-2.3,1.6-.8.567-1.623,1.154-2.45,1.7-.539.357-1.046.72-1.536,1.071s-1.009.723-1.55,1.08c-.276.182-.543.386-.8.582a8.627,8.627,0,0,1-1.622,1.045v-.01l-.184-1.494q-.275-2.234-.554-4.468l-.007-.056a9.012,9.012,0,0,0-.239-1.463.534.534,0,0,0-.663-.295c-.443.143-.394.7-.359,1.11.08.951.114,2.012.148,3.038.034,1.048.07,2.131.153,3.12a.081.081,0,0,1-.032.074.091.091,0,0,1-.088.015c-.141-.046-.282-.09-.425-.129q-.546-.149-1.093-.294c-.407-.109-.814-.218-1.22-.329-.187-.052-.373-.109-.559-.165-.289-.088-.578-.176-.872-.247-.882-.212-1.847-.431-3.034-.689-.453-.1-.909-.183-1.365-.268L28.413,8.3q-.948-.178-1.9-.349l-.545-.1c-.508-.094-1.034-.191-1.558-.268s-1.07-.141-1.607-.2-1.049-.123-1.572-.2l-.255-.038c-.393-.058-.8-.119-1.207-.154-.927-.079-1.866-.108-2.775-.136-.528-.017-1.056-.033-1.584-.058a24.49,24.49,0,0,0-5.237.3A8.879,8.879,0,0,0,6.145,8.827a10.4,10.4,0,0,0-2.793,3.395,31.459,31.459,0,0,0-1.644,3.467,17.258,17.258,0,0,0-.739,2.456l-.083.4c-.206.978-.4,1.9-.539,2.921l-.03.216A24.9,24.9,0,0,0,0,25.106c.036,1.867.044,2.256.218,4.178a25.347,25.347,0,0,0,.8,3.642,12.575,12.575,0,0,0,.592,1.442c.124.269.253.547.384.866a11.059,11.059,0,0,0,3.876,4.5,30.737,30.737,0,0,0,3.879,2.463c.373.2.651.354.936.511l.622.341c-.076.106-.164.225-.261.349l-.327.42c-.366.471-.6.766-1.071,1.415-.02.027-.481.665-.149,1.083a.705.705,0,0,0,.521.278,1.063,1.063,0,0,0,.8-.4c.807-.844,1.6-1.656,2.249-2.3.063.019.145.054.187.072l.08.033c.65.253,1.245.51,1.876.783.295.127.593.256.9.385l.341.145c.662.281,1.347.571,2.04.822,1.027.372,2.069.7,2.861.942,1.4.43,2.853.875,4.306,1.27.129.035.241.061.34.084a1.4,1.4,0,0,1,.3.087s.043.046.085.3a24.8,24.8,0,0,0,.575,2.5c.17.593.5.713.736.713a.816.816,0,0,0,.116-.009.753.753,0,0,0,.616-.885c-.012-.2-.024-.475-.036-.78-.019-.462-.039-.966-.069-1.376.166.041.334.087.507.134.246.067.493.134.742.191.547.125,1.095.228,1.628.308.557.083,1.116.15,1.676.217l.588.071c.281.035.562.075.842.114.664.094,1.35.191,2.038.22.715.03,1.435-.006,2.132-.041.294-.015.587-.029.881-.039a9.109,9.109,0,0,0,5.689-2.133,19.009,19.009,0,0,0,3.468-4.006,17.733,17.733,0,0,0,1.175-2.057c.185-.361.371-.722.568-1.074a14.066,14.066,0,0,0,.676-1.375c.354-.831.7-1.717,1.03-2.634.324-.9.659-1.83.918-2.789.238-.883.409-1.77.593-2.829.054-.312.113-.624.172-.937a21.526,21.526,0,0,0,.426-3.065,18.351,18.351,0,0,0-.634-6.634,8.448,8.448,0,0,0-1.417-2.786,14.708,14.708,0,0,0-4.459-3.392c-.368-.206-.742-.4-1.114-.566-1.462-.668-2.8-1.22-4.088-1.686-.5-.181-.8-.3-1.1-.422l-.157-.063c.164-.138.854-.713,1.4-1.106.511-.368,1.014-.752,1.516-1.135.576-.439,1.171-.893,1.767-1.313.91-.643,1.841-1.289,2.758-1.923q.47-.325.935-.652c.555-.388,1.109-.776,1.674-1.157,1.037-.7,2.645-1.93,3.709-2.743l.516-.393c.347-.264.779-.592.607-1" transform="translate(0 0)" fill="#161615"/>
    <path id="Path_120584" data-name="Path 120584" d="M157.26,17.075H142.735V60.45h9.836V45.874h4.944c7.984,0,16.517-3.88,16.517-14.772,0-9.177-5.8-14.027-16.772-14.027M164.384,31.1c0,4.472-2.428,6.646-7.425,6.646h-4.388V25.2H156.7c5.312,0,7.681,1.82,7.681,5.9" transform="translate(-83.562 -9.996)" fill="#161615"/>
    <path id="Path_120585" data-name="Path 120585" d="M231.779,39.814a25.685,25.685,0,0,0-13.659,4.317l-.163.1,3.532,6.7.187-.109c3.554-2.069,5.956-2.913,8.29-2.913,2.969,0,4.539,1.412,4.794,4.315-12.342,1.37-17.85,5.112-17.85,12.117,0,5.9,3.974,10.026,9.663,10.026,3.164,0,6.205-1.344,9.3-4.111l.675,3.323h8.045V54.755c0-9.914-4.31-14.941-12.809-14.941m-5.454,23.757c0-2.615,2.765-4.288,8.45-5.109v5.364c-1.661,1.688-3.024,2.664-5.018,2.664-2.213,0-3.432-1.036-3.432-2.918" transform="translate(-126.987 -23.309)" fill="#161615"/>
    <path id="Path_120586" data-name="Path 120586" d="M307.623,63.4c-1.851,2.571-3.228,3.44-5.432,3.44-2.3,0-3.732-.995-3.732-5.944V41.714h-9.814V62.135c0,8.853,3.38,13.342,10.047,13.342,3.918,0,7.014-1.623,10.021-5.26l.67,4.472h8.054V41.714h-9.814Z" transform="translate(-168.983 -24.421)" fill="#161615"/>
    <path id="Path_120587" data-name="Path 120587" d="M377.041,52.914a3.787,3.787,0,0,1-1.1.126c-.722,0-1.493-.662-1.493-2.519V17.074h-9.814V50.127c0,7.478,2.9,11.113,8.861,11.113a12.263,12.263,0,0,0,4.8-.821l.146-.065L377.26,52.86Z" transform="translate(-213.469 -9.996)" fill="#161615"/>
    <path id="Path_120588" data-name="Path 120588" d="M447.59,17.075l-4.956,20.176c-.517,2.043-.983,4.047-1.435,5.984-.565,2.427-1.149,4.934-1.832,7.516-.612-2.317-1.131-4.572-1.634-6.756s-1.023-4.439-1.632-6.744l-5.023-20.02-.04-.157H392.29v8.56h11.471V60.45H413.6V25.635h9.541l10.2,34.815h11.629l12.69-43.375Z" transform="translate(-229.661 -9.996)" fill="#161615"/>
    <path id="Path_120589" data-name="Path 120589" d="M37.6,62.045c-1.409-.15-2.035-.158-3.441-.336-1.106-.14-2.21-.309-3.3-.527-.838-.167-1.657-.428-2.482-.655-.775-.212-1.554-.412-2.319-.657-.873-.279-1.737-.588-2.594-.911s-1.729-.67-2.579-1.039c-.812-.353-1.615-.729-2.4-1.133-.86-.442-1.711-.9-2.54-1.4a16.746,16.746,0,0,1-4.485-3.547,9.663,9.663,0,0,1-1.467-2.656,18.151,18.151,0,0,1-1.053-6.069c-.049-1.233.06-2.474.129-3.709a21.318,21.318,0,0,1,.239-2.456c.172-.985.407-1.962.674-2.925a25.679,25.679,0,0,1,.879-2.651,9.889,9.889,0,0,1,4.095-5.328,8.09,8.09,0,0,1,3.067-.881,38.4,38.4,0,0,1,4.511-.073c1.055.015,2.112.082,3.161.187.884.088,1.759.265,2.638.4.585.09,1.172.163,1.754.268.711.129,1.418.282,2.126.429.434.091.868.18,1.3.291,1.764.456,3.545.861,5.283,1.4,1.416.44,2.777,1.054,4.168,1.577a20.309,20.309,0,0,1,5.247,2.895,6.2,6.2,0,0,1,2.187,3.027,13.118,13.118,0,0,1,.644,5.274c-.08,1-.086,2.017-.228,3.011-.148,1.037-.406,2.06-.641,3.084-.184.8-.369,1.6-.619,2.381-.294.917-.639,1.82-1,2.713-.369.91-.761,1.814-1.189,2.7a18.716,18.716,0,0,1-3.65,5.258A7.033,7.033,0,0,1,39.4,61.971c-.329.036-.662.044-.992.064,0,.044-.794-.034-.8.01" transform="translate(-5.226 -14.673)" fill="url(#linear-gradient)"/>
  </g>
</svg>
