<svg xmlns="http://www.w3.org/2000/svg" width="86.053" height="82.866" viewBox="0 0 86.053 82.866">
  <g id="_24-hours" data-name="24-hours" transform="translate(0 -9.405)">
    <g id="Group_7287" data-name="Group 7287" transform="translate(16.503 9.405)">
      <g id="Group_7286" data-name="Group 7286" transform="translate(0 0)">
        <path id="Path_68127" data-name="Path 68127" d="M155.849,22.772l-.474-8.013a2.393,2.393,0,0,0-4.777.271l.136,2.355a40.363,40.363,0,0,0-52.62,3.829,2.4,2.4,0,0,0,0,3.388,2.451,2.451,0,0,0,3.388,0,35.544,35.544,0,0,1,45.877-3.744l-2.067.136a2.391,2.391,0,0,0,.136,4.777c.051,0,8.149-.474,8.149-.474A2.4,2.4,0,0,0,155.849,22.772Z" transform="translate(-97.414 -9.405)" fill="#484848"/>
      </g>
    </g>
    <g id="Group_7289" data-name="Group 7289" transform="translate(0 37.517)">
      <g id="Group_7288" data-name="Group 7288" transform="translate(0)">
        <path id="Path_68128" data-name="Path 68128" d="M36.515,221.89a35.582,35.582,0,0,1-26.157-37.847l1.135,1.711a2.522,2.522,0,0,0,3.3.678,2.36,2.36,0,0,0,.678-3.3l-4.4-6.709a2.382,2.382,0,0,0-3.3-.695l-6.692,4.4A2.385,2.385,0,1,0,3.7,184.11l1.982-1.3a40.379,40.379,0,0,0,29.6,43.692,2.552,2.552,0,0,0,2.931-1.694A2.341,2.341,0,0,0,36.515,221.89Z" transform="translate(0 -175.341)" fill="#484848"/>
      </g>
    </g>
    <g id="Group_7291" data-name="Group 7291" transform="translate(53.151 37.515)">
      <g id="Group_7290" data-name="Group 7290" transform="translate(0 0)">
        <path id="Path_68129" data-name="Path 68129" d="M345.261,177.1a2.394,2.394,0,1,0-4.625,1.237,35.607,35.607,0,0,1-19.7,41.591l.915-1.847a2.387,2.387,0,0,0-4.269-2.135l-3.592,7.166a2.377,2.377,0,0,0,1.067,3.2l7.166,3.592a2.624,2.624,0,0,0,3.2-1.067,2.33,2.33,0,0,0-1.067-3.2l-2.152-1.084A40.346,40.346,0,0,0,345.261,177.1Z" transform="translate(-313.732 -175.33)" fill="#484848"/>
      </g>
    </g>
    <g id="Group_7293" data-name="Group 7293" transform="translate(26.893 38.713)">
      <g id="Group_7292" data-name="Group 7292" transform="translate(0 0)">
        <path id="Path_68130" data-name="Path 68130" d="M166.532,202.006l4.3-4.489c1.677-1.745,4.388-4.218,4.388-7.827a7.432,7.432,0,0,0-7.742-7.285c-4.574,0-7.624,3.524-8.742,5.252l4.252,2.524c1.338-2.135,2.761-3.2,4.252-3.2,2.9,0,2.8,2,2.8,2.8,0,2.1-2.507,4.456-3.913,5.9l-6.98,7.149v3.947h16.789v-4.76Z" transform="translate(-158.739 -182.405)" fill="#484848"/>
      </g>
    </g>
    <g id="Group_7295" data-name="Group 7295" transform="translate(47.171 39.256)">
      <g id="Group_7294" data-name="Group 7294">
        <path id="Path_68131" data-name="Path 68131" d="M293.11,199.124v-4.151h-5.1v4.151H284.64L292.7,185.6h-5.777l-8.488,14.061v4.049h9.572v5.692h5.1v-5.692H295.8v-4.591Z" transform="translate(-278.439 -185.605)" fill="#484848"/>
      </g>
    </g>
    <g id="Group_7297" data-name="Group 7297" transform="translate(65.993 33.377)">
      <g id="Group_7296" data-name="Group 7296" transform="translate(0 0)">
        <path id="Path_68132" data-name="Path 68132" d="M393.876,153.717a2.97,2.97,0,0,0-2.185.983v-3.795h-2.152v10.639h2.152v-4.168c0-.61.152-1.83,1.609-1.83.864,0,1.3.593,1.3,1.779v4.218h2.152v-4.676A2.934,2.934,0,0,0,393.876,153.717Z" transform="translate(-389.539 -150.905)" fill="#484848"/>
      </g>
    </g>
  </g>
</svg>
