<svg xmlns="http://www.w3.org/2000/svg" width="62.097" height="72.549" viewBox="0 0 62.097 72.549">
  <g id="Group_7329" data-name="Group 7329" transform="translate(-930.084 -3603.515)">
    <ellipse id="Ellipse_686" data-name="Ellipse 686" cx="18.166" cy="18.331" rx="18.166" ry="18.331" transform="translate(932.525 3639.296) rotate(-80)" fill="#9fcffa" opacity="0.433"/>
    <ellipse id="Ellipse_687" data-name="Ellipse 687" cx="24.112" cy="24.277" rx="24.112" ry="24.277" transform="translate(931.553 3667.633) rotate(-80)" fill="#0090df" opacity="0.307"/>
    <g id="Group_7325" data-name="Group 7325">
      <g id="office-building" transform="translate(930.084 3603.516)">
        <g id="Group_7101" data-name="Group 7101" transform="translate(0 0)">
          <g id="Group_7100" data-name="Group 7100" transform="translate(0 0)">
            <path id="Path_67900" data-name="Path 67900" d="M59.065,69.052h-.77V54.031a.91.91,0,0,0-1.819,0V69.052h-19.3V44.325H55.732a.744.744,0,0,1,.743.743v4.677a.91.91,0,1,0,1.819,0V45.068a2.566,2.566,0,0,0-2.563-2.563H37.179V25.975a2.575,2.575,0,0,0-2.347-2.553V21.6a2.575,2.575,0,0,0-2.362-2.555L8.912,17.2a2.564,2.564,0,0,0-2.763,2.555v1.457A2.563,2.563,0,0,0,3.8,23.761v45.29h-.77a3.032,3.032,0,0,0,0,6.064H59.065a3.032,3.032,0,1,0,0-6.064Zm-51.1-49.3a.743.743,0,0,1,.8-.741l23.558,1.846a.747.747,0,0,1,.685.741v1.681L7.968,21.316V19.751Zm-2.347,4.01a.743.743,0,0,1,.8-.741l28.252,2.214a.747.747,0,0,1,.685.741V69.052H32.818V56.028a1.5,1.5,0,0,0-1.5-1.5H22.866a1.5,1.5,0,0,0-1.5,1.5v5.9a.91.91,0,0,0,1.819,0V56.346H31V69.052H23.184v-2.87a.91.91,0,1,0-1.819,0v2.87H5.621ZM59.065,73.3H3.032a1.213,1.213,0,1,1,0-2.426H59.065a1.213,1.213,0,1,1,0,2.426Z" transform="translate(0 -17.188)"/>
            <path id="Path_67901" data-name="Path 67901" d="M64.533,119.674h3.682a1.571,1.571,0,0,0,1.57-1.57v-2.833a1.571,1.571,0,0,0-1.57-1.57H64.533a1.571,1.571,0,0,0-1.57,1.57V118.1A1.571,1.571,0,0,0,64.533,119.674Zm.25-4.153h3.183v2.334H64.782Z" transform="translate(-55.327 -101.997)"/>
            <path id="Path_67902" data-name="Path 67902" d="M140.227,119.674h3.682a1.571,1.571,0,0,0,1.57-1.57v-2.833a1.571,1.571,0,0,0-1.57-1.57h-3.682a1.571,1.571,0,0,0-1.57,1.57V118.1A1.571,1.571,0,0,0,140.227,119.674Zm.249-4.153h3.183v2.334h-3.183Z" transform="translate(-121.84 -101.997)"/>
            <path id="Path_67903" data-name="Path 67903" d="M215.92,119.674H219.6a1.571,1.571,0,0,0,1.57-1.57v-2.833a1.571,1.571,0,0,0-1.57-1.57H215.92a1.571,1.571,0,0,0-1.57,1.57V118.1a1.571,1.571,0,0,0,1.57,1.57Zm.249-4.153h3.183v2.334h-3.183Z" transform="translate(-188.353 -101.997)"/>
            <path id="Path_67904" data-name="Path 67904" d="M64.533,187.11h3.682a1.571,1.571,0,0,0,1.57-1.57v-2.833a1.571,1.571,0,0,0-1.57-1.57H64.533a1.571,1.571,0,0,0-1.57,1.57v2.833A1.571,1.571,0,0,0,64.533,187.11Zm.25-4.153h3.183v2.334H64.782Z" transform="translate(-55.327 -161.254)"/>
            <path id="Path_67905" data-name="Path 67905" d="M140.227,187.11h3.682a1.571,1.571,0,0,0,1.57-1.57v-2.833a1.571,1.571,0,0,0-1.57-1.57h-3.682a1.571,1.571,0,0,0-1.57,1.57v2.833A1.571,1.571,0,0,0,140.227,187.11Zm.249-4.153h3.183v2.334h-3.183Z" transform="translate(-121.84 -161.254)"/>
            <path id="Path_67906" data-name="Path 67906" d="M215.92,187.11H219.6a1.571,1.571,0,0,0,1.57-1.57v-2.833a1.571,1.571,0,0,0-1.57-1.57H215.92a1.571,1.571,0,0,0-1.57,1.57v2.833a1.571,1.571,0,0,0,1.57,1.57Zm.249-4.153h3.183v2.334h-3.183Z" transform="translate(-188.353 -161.254)"/>
            <path id="Path_67907" data-name="Path 67907" d="M64.533,254.547h3.682a1.571,1.571,0,0,0,1.57-1.57v-2.833a1.571,1.571,0,0,0-1.57-1.57H64.533a1.571,1.571,0,0,0-1.57,1.57v2.833A1.571,1.571,0,0,0,64.533,254.547Zm.25-4.153h3.183v2.334H64.782Z" transform="translate(-55.327 -220.512)"/>
            <path id="Path_67908" data-name="Path 67908" d="M72.858,325.052H64.709a1.748,1.748,0,0,0-1.746,1.746v2.479a1.748,1.748,0,0,0,1.746,1.746h8.149a1.748,1.748,0,0,0,1.746-1.746V326.8A1.748,1.748,0,0,0,72.858,325.052Zm-.073,4.153h-8v-2.334h8Z" transform="translate(-55.327 -287.714)"/>
            <path id="Path_67909" data-name="Path 67909" d="M140.227,254.547h3.682a1.571,1.571,0,0,0,1.57-1.57v-2.833a1.571,1.571,0,0,0-1.57-1.57h-3.682a1.571,1.571,0,0,0-1.57,1.57v2.833A1.571,1.571,0,0,0,140.227,254.547Zm.249-4.153h3.183v2.334h-3.183Z" transform="translate(-121.84 -220.512)"/>
            <path id="Path_67910" data-name="Path 67910" d="M215.92,254.547H219.6a1.571,1.571,0,0,0,1.57-1.57v-2.833a1.571,1.571,0,0,0-1.57-1.57H215.92a1.571,1.571,0,0,0-1.57,1.57v2.833a1.571,1.571,0,0,0,1.57,1.57Zm.249-4.153h3.183v2.334h-3.183Z" transform="translate(-188.353 -220.512)"/>
            <path id="Path_67911" data-name="Path 67911" d="M329.412,279.173a1.675,1.675,0,0,0-1.673-1.673h-3.715a1.675,1.675,0,0,0-1.673,1.673v2.946a1.675,1.675,0,0,0,1.673,1.673h3.715a1.675,1.675,0,0,0,1.673-1.673Zm-1.819,2.8H324.17v-2.655h3.423Z" transform="translate(-283.255 -245.929)"/>
            <path id="Path_67912" data-name="Path 67912" d="M327.739,346.717h-3.715a1.675,1.675,0,0,0-1.673,1.673v2.946a1.675,1.675,0,0,0,1.673,1.673h3.715a1.675,1.675,0,0,0,1.673-1.673V348.39A1.675,1.675,0,0,0,327.739,346.717Zm-.146,4.474H324.17v-2.655h3.423Z" transform="translate(-283.255 -306.751)"/>
            <path id="Path_67913" data-name="Path 67913" d="M399.173,279.173A1.675,1.675,0,0,0,397.5,277.5h-3.715a1.675,1.675,0,0,0-1.673,1.673v2.946a1.675,1.675,0,0,0,1.673,1.673H397.5a1.675,1.675,0,0,0,1.673-1.673Zm-1.819,2.8h-3.423v-2.655h3.423Z" transform="translate(-344.556 -245.929)"/>
            <path id="Path_67914" data-name="Path 67914" d="M397.5,346.717h-3.715a1.675,1.675,0,0,0-1.673,1.673v2.946a1.675,1.675,0,0,0,1.673,1.673H397.5a1.675,1.675,0,0,0,1.673-1.673V348.39A1.675,1.675,0,0,0,397.5,346.717Zm-.146,4.474h-3.423v-2.655h3.423Z" transform="translate(-344.556 -306.751)"/>
          </g>
        </g>
      </g>
    </g>
  </g>
</svg>
