<svg xmlns="http://www.w3.org/2000/svg" width="58.77" height="66.984" viewBox="0 0 58.77 66.984">
  <g id="Group_7326" data-name="Group 7326" transform="translate(-1198 -3608.08)">
    <ellipse id="Ellipse_681" data-name="Ellipse 681" cx="24.112" cy="24.277" rx="24.112" ry="24.277" transform="translate(1199.553 3666.633) rotate(-80)" fill="#0090df" opacity="0.307"/>
    <ellipse id="Ellipse_678" data-name="Ellipse 678" cx="18.166" cy="18.331" rx="18.166" ry="18.331" transform="translate(1200.525 3663.296) rotate(-80)" fill="#9fcffa" opacity="0.433"/>
    <g id="employee" transform="translate(1198 3608.08)">
      <g id="Group_7097" data-name="Group 7097" transform="translate(0 0)">
        <path id="Path_67859" data-name="Path 67859" d="M57.909,62.789a.861.861,0,0,0-.861.861V69.4a.145.145,0,0,1-.145.145H53.632V56.969a.861.861,0,0,0-1.722,0V69.547H45.589L47.3,67.665a1.377,1.377,0,0,0,.333-1.1l0-.026L45.706,55.172l.354-.533.092.065a1.348,1.348,0,0,0,1.986-.5h0l1.957-3.922,4.47,1.731A4.285,4.285,0,0,1,57.047,55.9v3.731a.861.861,0,1,0,1.722,0V55.9a6,6,0,0,0-3.552-5.479l-.016-.007-7.612-2.948V45.9A6.286,6.286,0,0,0,49.862,42a3,3,0,0,0,1.6-.7,2.964,2.964,0,0,0,.361-4.121V34.847a8.238,8.238,0,0,0-13.6-6.265,2.959,2.959,0,0,0-.666-1.791V24.469a8.245,8.245,0,1,0-16.489,0v2.383a2.808,2.808,0,0,0-.666,1.723,8.208,8.208,0,0,0-3.247-1.7.861.861,0,0,0-.439,1.665,6.525,6.525,0,0,1,4.857,6.307v1.288c-.037-.008-.157-.028-.161-.029a.992.992,0,0,0-.206-.582c-.22-.317-.616-.711-1.889-2.079a1.361,1.361,0,0,0-1.744-.213,12.3,12.3,0,0,1-7.287,2.006,1.376,1.376,0,0,0-1.514.881l-.244.049V34.847A6.565,6.565,0,0,1,13.169,28.6a.861.861,0,1,0-.5-1.649,8.31,8.31,0,0,0-4.2,2.932,8.17,8.17,0,0,0-1.66,4.962v2.384a2.806,2.806,0,0,0-.668,1.815A2.972,2.972,0,0,0,8.774,42a6.359,6.359,0,0,0,2.4,4v1.467l-7.6,2.948-.016.006A6,6,0,0,0,0,55.9V69.4a1.869,1.869,0,0,0,1.867,1.867H28.379a1.855,1.855,0,0,0,1.006-.3,1.854,1.854,0,0,0,1.006.3H56.9A1.869,1.869,0,0,0,58.77,69.4V63.65A.861.861,0,0,0,57.909,62.789ZM8.689,40.218a1.243,1.243,0,0,1-.827-1.172,1.272,1.272,0,0,1,.827-1.12Zm39.793,9.443-1.69,3.387-1.9-1.352L47,49.087Zm-4.838.835-2.226-2.748v-.826a6.943,6.943,0,0,0,2.237.366h0a6.365,6.365,0,0,0,2.211-.4v.867Zm1.011,3.145-.317.477H42.95l-.317-.477,1.011-.718ZM29.382,40.117l-2.226-2.748v-.826a6.942,6.942,0,0,0,2.237.366h0a6.363,6.363,0,0,0,2.211-.4v.867Zm1.011,3.146-.317.477H28.689l-.317-.477,1.011-.718ZM22.6,31.535a3.079,3.079,0,0,0,.432.083,6.359,6.359,0,0,0,2.4,4V37.09l-1.756.681a2.951,2.951,0,0,0-.38-.6V34.847A8.224,8.224,0,0,0,22.6,31.535Zm11.354-.912a4.643,4.643,0,0,1-9.284,0V26.591a14.1,14.1,0,0,0,7.851-2.134c.776.832,1.238,1.316,1.433,1.541C33.957,28.141,33.957,28.968,33.957,30.623Zm1.643.994a3.1,3.1,0,0,0,.43-.083,8.2,8.2,0,0,0-.7,3.313v2.383a2.938,2.938,0,0,0-.34.5l-1.665-.645V35.521A6.287,6.287,0,0,0,35.6,31.617ZM26.022,38.71l2.113,2.609-1.441,1.024,0,0-.457.325-1.69-3.387Zm5.342,1.7,1.376-1.7,1.481.573-1.69,3.387-.458-.326h0l-1.444-1.026ZM31.8,44.26l.092.065a1.348,1.348,0,0,0,1.986-.5h0l1.453-2.912A3.022,3.022,0,0,0,37.294,42a6.258,6.258,0,0,0,2.4,4v1.467l-7.319,2.838-.933-5.513Zm8.486,4.828L42.4,51.7l-1.9,1.35-1.69-3.387ZM48.219,41a4.643,4.643,0,0,1-9.284,0V36.97a14.1,14.1,0,0,0,7.851-2.134c.776.832,1.238,1.316,1.433,1.541C48.219,38.52,48.219,39.347,48.219,41Zm2.549-1.957a1.243,1.243,0,0,1-.827,1.172V37.876A1.241,1.241,0,0,1,50.768,39.046Zm-13.714-4.2a6.523,6.523,0,1,1,13.045,0v1.288c-.039-.008-.147-.027-.161-.029a.992.992,0,0,0-.206-.582c-.226-.325-.618-.713-1.889-2.079a1.362,1.362,0,0,0-1.744-.213,12.325,12.325,0,0,1-7.351,2,1.354,1.354,0,0,0-1.45.885l-.244.049V34.847Zm.159,3.078v2.291a1.24,1.24,0,0,1-.827-1.171A1.271,1.271,0,0,1,37.213,37.925Zm-.707-9.259a1.239,1.239,0,0,1-.43.941,1.274,1.274,0,0,1-.4.232V27.5A1.241,1.241,0,0,1,36.506,28.667ZM29.315,17.946a6.53,6.53,0,0,1,6.523,6.523v1.288c-.039-.008-.147-.027-.161-.029a1.043,1.043,0,0,0-.244-.635c-.23-.312-.655-.741-1.851-2.026a1.361,1.361,0,0,0-1.744-.213,12.3,12.3,0,0,1-7.421,2,1.368,1.368,0,0,0-1.381.888l-.244.049V24.469h0A6.53,6.53,0,0,1,29.315,17.946Zm-6.364,9.6v2.293a1.243,1.243,0,0,1-.827-1.172A1.272,1.272,0,0,1,22.951,27.546Zm-1.534,10.33a1.243,1.243,0,0,1,0,2.341ZM21.337,42a3.019,3.019,0,0,0,2.046-1.188l1.506,3.018h0a1.347,1.347,0,0,0,1.986.5l.092-.065.354.533L26.388,50.3l-7.324-2.836V45.9h0A6.293,6.293,0,0,0,21.337,42ZM15.12,50.5l-2.226-2.748v-.826a6.94,6.94,0,0,0,2.237.366h0a6.362,6.362,0,0,0,2.211-.4v.867Zm1.011,3.145-.317.477H14.427l-.317-.477,1.011-.718Zm2.347-4.554,1.481.573-1.69,3.387-.458-.326h0L16.365,51.7ZM10.411,41V36.97a14.11,14.11,0,0,0,7.851-2.134c.769.825,1.238,1.316,1.433,1.541V41a4.643,4.643,0,0,1-9.284,0Zm1.349,8.086L13.874,51.7l-1.441,1.024,0,0-.457.325-1.69-3.387ZM6.86,69.547V56.969a.861.861,0,0,0-1.722,0V69.547H1.867a.145.145,0,0,1-.145-.145V55.9A4.285,4.285,0,0,1,4.2,52.017L8.67,50.285l1.957,3.922h0a1.348,1.348,0,0,0,1.986.5l.092-.065.354.533L11.136,66.535c0,.008,0,.017,0,.026a1.378,1.378,0,0,0,.334,1.1l1.711,1.882H6.86Zm6-2.9,1.828-10.8h.856l1.829,10.8-2.257,2.482ZM28.524,69.4a.145.145,0,0,1-.145.145H25.108V56.969a.861.861,0,0,0-1.722,0V69.547H17.065l1.711-1.882a1.377,1.377,0,0,0,.333-1.1l0-.026L17.182,55.172l.354-.533.092.065a1.347,1.347,0,0,0,1.986-.5h0l1.957-3.922,4.47,1.731A4.276,4.276,0,0,1,28.524,55.9V69.4Zm.861-16.629a6.13,6.13,0,0,0-1.4-1.56l.973-5.752h.856l.974,5.755A6.134,6.134,0,0,0,29.385,52.773Zm6,16.774h0V56.969a.861.861,0,0,0-1.722,0V69.547H30.391a.145.145,0,0,1-.145-.145V55.9a4.115,4.115,0,0,1,1-2.758,4.634,4.634,0,0,1,1.476-1.126l4.468-1.732,1.957,3.922h0a1.347,1.347,0,0,0,1.986.5l.092-.065.354.533L39.66,66.535c0,.008,0,.017,0,.026a1.378,1.378,0,0,0,.334,1.1L41.7,69.547H35.383Zm6-2.9,1.829-10.8h.856l1.829,10.8-2.257,2.482Z" transform="translate(0 -16.224)"/>
      </g>
    </g>
  </g>
</svg>
