<svg xmlns="http://www.w3.org/2000/svg" width="73.572" height="53.043" viewBox="0 0 73.572 53.043">
  <g id="Group_7322" data-name="Group 7322" transform="translate(-1483.092 -3373.298)">
    <g id="team" transform="translate(1483.092 3378.064)">
      <g id="Group_7129" data-name="Group 7129" transform="translate(47.153 19.255)">
        <g id="Group_7128" data-name="Group 7128">
          <path id="Path_67919" data-name="Path 67919" d="M399.831,229.507c-2.092-1.046-6.013-1.058-6.179-1.058a.9.9,0,1,0,0,1.8,15.548,15.548,0,0,1,5.374.868.9.9,0,0,0,.805-1.611Z" transform="translate(-392.751 -228.449)"/>
        </g>
      </g>
      <g id="Group_7131" data-name="Group 7131" transform="translate(0 0)">
        <g id="Group_7130" data-name="Group 7130">
          <path id="Path_67920" data-name="Path 67920" d="M58.722,101.2,55,100.137a.378.378,0,0,1-.273-.361V98.534a6.767,6.767,0,0,0,.861-.706,6.624,6.624,0,0,0,2.027-4.792V91.323l.36-.719a5.744,5.744,0,0,0,.6-2.556v-4.64a.9.9,0,0,0-.9-.9H49.016A5.721,5.721,0,0,0,43.3,88.222v.054a4.776,4.776,0,0,0,.5,2.125l.461.922v1.471a7.026,7.026,0,0,0,2.888,5.681v1.3c0,.2,0,.284-.744.5l-1.815.518-5.249-1.909a.9.9,0,0,0-.245-.689l-1.677-1.762V93.471c.177-.146.352-.3.522-.455a10.568,10.568,0,0,0,3.33-7.683V82.971a10.408,10.408,0,0,0,.963-4.377V68.966a.9.9,0,0,0-.9-.9H27.858a8.612,8.612,0,0,0-8.6,8.6v1.926a10.408,10.408,0,0,0,.963,4.377V85a11,11,0,0,0,3.851,8.4v3.028l-1.677,1.762a.9.9,0,0,0-.245.689l-5.54,2.014a4.722,4.722,0,0,0-1.113.583l-.87-.435a6.877,6.877,0,0,0,3.449-2.791.9.9,0,0,0,0-.805c-.649-1.3-.728-3.678-.791-5.59-.021-.637-.041-1.238-.079-1.773a7.833,7.833,0,0,0-7.638-7.576,7.832,7.832,0,0,0-7.638,7.576c-.038.536-.058,1.137-.079,1.774-.063,1.912-.142,4.291-.791,5.59a.9.9,0,0,0,0,.805,6.876,6.876,0,0,0,3.453,2.789L2.094,102.25A3.769,3.769,0,0,0,0,105.639v6.652a.9.9,0,1,0,1.8,0v-6.652a1.977,1.977,0,0,1,1.1-1.778l3.009-1.5,1.047.995a3.787,3.787,0,0,0,5.22,0l1.047-.995.981.491a4.742,4.742,0,0,0-.724,2.514v6.93a.9.9,0,1,0,1.8,0v-6.93a2.96,2.96,0,0,1,1.942-2.773l5.841-2.124,2.432,3.648a1.856,1.856,0,0,0,1.367.821q.093.009.186.009a1.856,1.856,0,0,0,1.315-.546l1.483-1.483v9.379a.9.9,0,0,0,1.8,0v-9.379L33.13,104.4a1.855,1.855,0,0,0,1.315.546q.092,0,.186-.009A1.856,1.856,0,0,0,36,104.112l2.432-3.647,5.841,2.124a2.96,2.96,0,0,1,1.942,2.773v6.93a.9.9,0,1,0,1.8,0v-6.93a4.76,4.76,0,0,0-1.332-3.295L46.9,102a4.938,4.938,0,0,0,.838-.3l2.3,2.3v8.292a.9.9,0,1,0,1.8,0V104l2.283-2.283a2.142,2.142,0,0,0,.383.152l3.719,1.063a2,2,0,0,1,1.442,1.911v7.449a.9.9,0,1,0,1.8,0v-7.449A3.805,3.805,0,0,0,58.722,101.2ZM5.777,99.609a6.473,6.473,0,0,1-2.89-1.855A9.925,9.925,0,0,0,3.4,95.6,6.715,6.715,0,0,0,5.777,98.53Zm5.158,2.437a1.987,1.987,0,0,1-2.739,0l-.837-.8a1.863,1.863,0,0,0,.219-.879v-.96a6.7,6.7,0,0,0,3.976,0v.959a1.863,1.863,0,0,0,.219.88ZM9.566,97.912A4.882,4.882,0,0,1,4.69,93.036a.895.895,0,0,0-1.048-.887c0-.077.005-.155.008-.232.02-.619.039-1.2.075-1.706a6.685,6.685,0,0,1,1.82-4.2,5.595,5.595,0,0,1,8.042,0,6.685,6.685,0,0,1,1.82,4.2c.036.5.055,1.086.075,1.705l.005.161a8.091,8.091,0,0,0-4.448-3.25,11.3,11.3,0,0,0-3.425-.543.9.9,0,0,0-.623.275L5.367,90.245a.9.9,0,0,0,1.3,1.25l1.352-1.4c1.164.057,4.91.492,6.366,3.7A4.864,4.864,0,0,1,9.566,97.912Zm3.788,1.7V98.538A6.661,6.661,0,0,0,15.731,95.6a9.913,9.913,0,0,0,.513,2.151A6.5,6.5,0,0,1,13.354,99.612ZM22.019,85V82.77a.9.9,0,0,0-.09-.392,8.637,8.637,0,0,1-.873-3.784V76.669a6.809,6.809,0,0,1,6.8-6.8H40.437v8.727a8.637,8.637,0,0,1-.873,3.784.9.9,0,0,0-.09.392v2.564a8.644,8.644,0,0,1-2.76,6.369,8.959,8.959,0,0,1-.691.585l-.015.011a8.658,8.658,0,0,1-5.843,1.743A8.919,8.919,0,0,1,22.019,85Zm5.07,18.118a.057.057,0,0,1-.05.018.057.057,0,0,1-.046-.027l-2.8-4.2.9-.947,4.248,2.9Zm3.657-3.475L25.87,96.314V94.633a10.138,10.138,0,0,0,4.177,1.206q.356.023.708.023a10.43,10.43,0,0,0,4.867-1.193v1.645Zm3.753,3.465a.057.057,0,0,1-.046.027.055.055,0,0,1-.05-.018l-2.253-2.253,4.248-2.9.9.947Zm16.442-.76L48.9,100.31a2.471,2.471,0,0,0,.056-.535v-.38a6.314,6.314,0,0,0,1.783.315c.069,0,.138,0,.207,0a6.688,6.688,0,0,0,1.985-.3v.363a2.153,2.153,0,0,0,.065.525Zm3.4-5.817a4.839,4.839,0,0,1-3.546,1.374,5.041,5.041,0,0,1-4.726-5.116V91.11a.9.9,0,0,0-.1-.4L45.414,89.6a2.966,2.966,0,0,1-.311-1.32v-.054a3.918,3.918,0,0,1,3.913-3.913h7.765v3.74a3.934,3.934,0,0,1-.413,1.75l-.455.909a.9.9,0,0,0-.1.4v1.925A4.838,4.838,0,0,1,54.338,96.536Z" transform="translate(0 -68.066)"/>
        </g>
      </g>
      <g id="Group_7133" data-name="Group 7133" transform="translate(55.818 37.548)">
        <g id="Group_7132" data-name="Group 7132">
          <path id="Path_67921" data-name="Path 67921" d="M465.823,380.814a.9.9,0,0,0-.9.9v5.777a.9.9,0,0,0,1.8,0v-5.777A.9.9,0,0,0,465.823,380.814Z" transform="translate(-464.923 -380.814)"/>
        </g>
      </g>
      <g id="Group_7135" data-name="Group 7135" transform="translate(3.851 38.738)">
        <g id="Group_7134" data-name="Group 7134">
          <path id="Path_67922" data-name="Path 67922" d="M32.977,390.728a.9.9,0,0,0-.9.9v4.586a.9.9,0,1,0,1.8,0v-4.586A.9.9,0,0,0,32.977,390.728Z" transform="translate(-32.077 -390.728)"/>
        </g>
      </g>
      <g id="Group_7137" data-name="Group 7137" transform="translate(23.107 8.18)">
        <g id="Group_7136" data-name="Group 7136">
          <path id="Path_67923" data-name="Path 67923" d="M207.476,138.877c-3.406-3.406-10.531-2.755-13.437-2.317a1.849,1.849,0,0,0-1.579,1.842v2.074a.9.9,0,1,0,1.8,0V138.4a.06.06,0,0,1,.047-.061,28.448,28.448,0,0,1,5.85-.286c2.808.187,4.842.892,6.045,2.1a.9.9,0,0,0,1.273-1.273Z" transform="translate(-192.46 -136.203)"/>
        </g>
      </g>
      <g id="Group_7139" data-name="Group 7139" transform="translate(19.256 39.474)">
        <g id="Group_7138" data-name="Group 7138">
          <path id="Path_67924" data-name="Path 67924" d="M161.284,396.853a.9.9,0,0,0-.9.9V401.6a.9.9,0,1,0,1.8,0v-3.851A.9.9,0,0,0,161.284,396.853Z" transform="translate(-160.384 -396.853)"/>
        </g>
      </g>
      <g id="Group_7141" data-name="Group 7141" transform="translate(40.437 39.474)">
        <g id="Group_7140" data-name="Group 7140">
          <path id="Path_67925" data-name="Path 67925" d="M337.706,396.853a.9.9,0,0,0-.9.9V401.6a.9.9,0,1,0,1.8,0v-3.851A.9.9,0,0,0,337.706,396.853Z" transform="translate(-336.806 -396.853)"/>
        </g>
      </g>
    </g>
    <ellipse id="Ellipse_677" data-name="Ellipse 677" cx="16.069" cy="16.215" rx="16.069" ry="16.215" transform="translate(1525.77 3376.772) rotate(16)" fill="#9fcffa" opacity="0.433"/>
    <ellipse id="Ellipse_680" data-name="Ellipse 680" cx="21.328" cy="21.474" rx="21.328" ry="21.474" transform="translate(1500.932 3373.298) rotate(16)" fill="#0090df" opacity="0.307"/>
  </g>
</svg>
