<svg xmlns="http://www.w3.org/2000/svg" width="109.802" height="92.332" viewBox="0 0 109.802 92.332">
  <g id="Group_7325" data-name="Group 7325" transform="translate(-620.451 -3334.398)">
    <ellipse id="Ellipse_672" data-name="Ellipse 672" cx="30.753" cy="31.004" rx="30.753" ry="31.004" transform="translate(692.076 3426.729) rotate(-142)" fill="#0090df" opacity="0.307"/>
    <ellipse id="Ellipse_673" data-name="Ellipse 673" cx="27.69" cy="27.942" rx="27.69" ry="27.942" transform="translate(664.092 3412.531) rotate(-142)" fill="#9fcffa" opacity="0.433"/>
    <g id="computer" transform="translate(653.281 3361.926)">
      <g id="Group_7098" data-name="Group 7098" transform="translate(18.388 24.219)">
        <path id="Path_67881" data-name="Path 67881" d="M233.88,271.757H236.6a.672.672,0,0,0,0-1.343H233.88a.672.672,0,0,0,0,1.343Z" transform="translate(-233.208 -270.414)"/>
      </g>
      <g id="Group_7099" data-name="Group 7099" transform="translate(0 0)">
        <path id="Path_67882" data-name="Path 67882" d="M139.443,92.408a.672.672,0,0,0-.947.075l-6.976,8.167a.672.672,0,0,0,1.022.873l6.976-8.167A.672.672,0,0,0,139.443,92.408Z" transform="translate(-122.093 -83.986)"/>
        <path id="Path_67883" data-name="Path 67883" d="M131.584,115.024a.672.672,0,0,0,.948-.056l1.886-2.121a.672.672,0,1,0-1-.892l-1.886,2.121a.672.672,0,0,0,.056.948Z" transform="translate(-122.093 -101.723)"/>
        <path id="Path_67884" data-name="Path 67884" d="M81.7,408.935a1.377,1.377,0,0,0-1.317-.964H57.652a.672.672,0,1,0,0,1.343H80.378a.038.038,0,0,1,.037.027l2.07,6.53a.038.038,0,0,1-.037.05H47.672a.038.038,0,0,1-.037-.05l2.07-6.53a.038.038,0,0,1,.037-.027H54.62a.672.672,0,1,0,0-1.343H49.742a1.377,1.377,0,0,0-1.317.964l-2.07,6.53a1.382,1.382,0,0,0,1.317,1.8H82.448a1.382,1.382,0,0,0,1.317-1.8Z" transform="translate(-44.643 -371.432)"/>
        <path id="Path_67885" data-name="Path 67885" d="M66.053,0H30.591A2.689,2.689,0,0,0,27.9,2.686v22.75a2.689,2.689,0,0,0,2.686,2.686h13.19a31.5,31.5,0,0,1-.468,4.844H40.422a.672.672,0,0,0,0,1.343h15.8a.672.672,0,0,0,0-1.343H53.332a31.5,31.5,0,0,1-.468-4.844h13.19a2.689,2.689,0,0,0,2.686-2.686V2.686A2.69,2.69,0,0,0,66.053,0ZM44.685,32.967a35.572,35.572,0,0,0,.44-4.844H51.52a35.571,35.571,0,0,0,.44,4.844ZM67.4,25.437a1.344,1.344,0,0,1-1.343,1.343H30.591a1.344,1.344,0,0,1-1.343-1.343V23H67.4v2.434Zm0-3.778H65.632V11.744a.672.672,0,1,0-1.343,0v9.915H32.356V4.554a.178.178,0,0,1,.178-.178H64.111a.178.178,0,0,1,.178.178V8.67a.672.672,0,1,0,1.343,0V4.554a1.523,1.523,0,0,0-1.521-1.521H32.534a1.523,1.523,0,0,0-1.521,1.521V21.659H29.248V2.686a1.344,1.344,0,0,1,1.343-1.343H66.053A1.344,1.344,0,0,1,67.4,2.686Z" transform="translate(-27.905 0)"/>
        <path id="Path_67886" data-name="Path 67886" d="M123.215,438.935H122.3a.672.672,0,1,0,0,1.343h.911a.672.672,0,0,0,0-1.343Z" transform="translate(-113.238 -399.623)"/>
        <path id="Path_67887" data-name="Path 67887" d="M163.012,440.278h.911a.672.672,0,1,0,0-1.343h-.911a.672.672,0,1,0,0,1.343Z" transform="translate(-150.3 -399.623)"/>
        <path id="Path_67888" data-name="Path 67888" d="M203.72,440.278h.911a.672.672,0,1,0,0-1.343h-.911a.672.672,0,0,0,0,1.343Z" transform="translate(-187.362 -399.623)"/>
        <path id="Path_67889" data-name="Path 67889" d="M244.429,440.278h.911a.672.672,0,1,0,0-1.343h-.911a.672.672,0,0,0,0,1.343Z" transform="translate(-224.425 -399.623)"/>
        <path id="Path_67890" data-name="Path 67890" d="M285.137,440.278h.911a.672.672,0,0,0,0-1.343h-.911a.672.672,0,1,0,0,1.343Z" transform="translate(-261.487 -399.623)"/>
        <path id="Path_67891" data-name="Path 67891" d="M325.846,440.278h.911a.672.672,0,0,0,0-1.343h-.911a.672.672,0,0,0,0,1.343Z" transform="translate(-298.55 -399.623)"/>
        <path id="Path_67892" data-name="Path 67892" d="M365.6,440.278h.911a.672.672,0,1,0,0-1.343H365.6a.672.672,0,1,0,0,1.343Z" transform="translate(-334.748 -399.623)"/>
        <path id="Path_67893" data-name="Path 67893" d="M123.215,465.778H122.3a.672.672,0,1,0,0,1.343h.911a.672.672,0,0,0,0-1.343Z" transform="translate(-113.238 -424.061)"/>
        <path id="Path_67894" data-name="Path 67894" d="M163.012,467.121h.911a.672.672,0,1,0,0-1.343h-.911a.672.672,0,1,0,0,1.343Z" transform="translate(-150.3 -424.061)"/>
        <path id="Path_67895" data-name="Path 67895" d="M203.72,467.121h.911a.672.672,0,1,0,0-1.343h-.911a.672.672,0,1,0,0,1.343Z" transform="translate(-187.362 -424.061)"/>
        <path id="Path_67896" data-name="Path 67896" d="M244.429,467.121h.911a.672.672,0,1,0,0-1.343h-.911a.672.672,0,0,0,0,1.343Z" transform="translate(-224.425 -424.061)"/>
        <path id="Path_67897" data-name="Path 67897" d="M285.137,467.121h.911a.672.672,0,0,0,0-1.343h-.911a.672.672,0,1,0,0,1.343Z" transform="translate(-261.487 -424.061)"/>
        <path id="Path_67898" data-name="Path 67898" d="M325.846,467.121h.911a.672.672,0,0,0,0-1.343h-.911a.672.672,0,0,0,0,1.343Z" transform="translate(-298.55 -424.061)"/>
        <path id="Path_67899" data-name="Path 67899" d="M365.6,467.121h.911a.672.672,0,1,0,0-1.343H365.6a.672.672,0,1,0,0,1.343Z" transform="translate(-334.748 -424.061)"/>
      </g>
    </g>
  </g>
</svg>
