<svg xmlns="http://www.w3.org/2000/svg" width="71.094" height="67.852" viewBox="0 0 71.094 67.852">
  <g id="Group_7328" data-name="Group 7328" transform="translate(-650.803 -3618.395)">
    <ellipse id="Ellipse_685" data-name="Ellipse 685" cx="24.112" cy="24.277" rx="24.112" ry="24.277" transform="translate(693.357 3686.246) rotate(-144)" fill="#0090df" opacity="0.307"/>
    <g id="programming-2" transform="translate(650.803 3618.395)">
      <path id="Path_67860" data-name="Path 67860" d="M45.637,7A10.637,10.637,0,1,0,56.275,17.637,10.65,10.65,0,0,0,45.637,7Zm0,19.341a8.7,8.7,0,1,1,8.7-8.7A8.714,8.714,0,0,1,45.637,26.341Z" transform="translate(-2.121 -1.198)"/>
      <path id="Path_67861" data-name="Path 67861" d="M58.312,12.985a14.443,14.443,0,0,0-.889-2.156l1.269-2.465-5.1-5.1L51.127,4.534a14.443,14.443,0,0,0-2.156-.889L48.122,1H40.909l-.847,2.644a14.442,14.442,0,0,0-2.156.889L35.442,3.264l-5.1,5.1,1.186,2.306H3.9a2.9,2.9,0,0,0-2.9,2.9V54.187a2.9,2.9,0,0,0,2.9,2.9H38.409a6.764,6.764,0,1,0,7.074-9.593V35.813H43.549V47.495a6.7,6.7,0,0,0-5.725,7.659H3.9a.969.969,0,0,1-.967-.967V24.209H31.528l-1.187,2.305,5.1,5.1,2.465-1.269a14.442,14.442,0,0,0,2.156.889l.848,2.645h7.213l.847-2.644a14.442,14.442,0,0,0,2.156-.889l2.465,1.269,5.1-5.1-1.269-2.464a14.461,14.461,0,0,0,.889-2.156l2.645-.85V13.832Zm-13.8,36.366a4.835,4.835,0,1,1-4.835,4.835A4.841,4.841,0,0,1,44.516,49.351ZM2.934,13.571A.969.969,0,0,1,3.9,12.6h26.96c-.045.128-.1.251-.139.381l-2.645.848v7.213l2.644.847c.042.13.095.253.139.381H2.934Zm56.088,6.064-2.278.73-.141.5a12.45,12.45,0,0,1-1.115,2.7l-.254.454,1.093,2.123L53.22,29.25,51.1,28.158l-.453.253a12.488,12.488,0,0,1-2.7,1.115l-.5.141-.729,2.277H42.321l-.73-2.278-.5-.141a12.537,12.537,0,0,1-2.7-1.115l-.453-.253-2.123,1.092-3.105-3.105L33.8,24.021l-.254-.454a12.469,12.469,0,0,1-1.115-2.7l-.141-.5-2.278-.729V15.244l2.278-.73.141-.5a12.537,12.537,0,0,1,1.115-2.7l.253-.453L32.707,8.735,35.812,5.63l2.123,1.092.453-.253a12.489,12.489,0,0,1,2.7-1.115l.5-.141.729-2.278h4.391l.73,2.278.5.141a12.537,12.537,0,0,1,2.7,1.115l.453.253L53.22,5.63l3.105,3.105-1.092,2.123.253.453a12.489,12.489,0,0,1,1.115,2.7l.141.5,2.278.729Z" transform="translate(-1 -1)"/>
      <path id="Path_67862" data-name="Path 67862" d="M48.2,14.56l2.466,3.288L48.2,21.136l1.547,1.16,3.336-4.448L49.747,13.4Z" transform="translate(-2.556 -1.409)"/>
      <path id="Path_67863" data-name="Path 67863" d="M42.086,13.4,38.75,17.848,42.086,22.3l1.547-1.16-2.466-3.288,2.466-3.288Z" transform="translate(-2.245 -1.409)"/>
      <path id="Path_67864" data-name="Path 67864" d="M0,0H13.676V1.934H0Z" transform="translate(41.606 23.075) rotate(-81.837)"/>
      <path id="Path_67865" data-name="Path 67865" d="M16.6,15H6.934A1.936,1.936,0,0,0,5,16.934v1.934A1.936,1.936,0,0,0,6.934,20.8H16.6a1.936,1.936,0,0,0,1.934-1.934V16.934A1.936,1.936,0,0,0,16.6,15Zm-3.868,1.934v1.934H10.8V16.934Zm-5.8,0H8.868v1.934H6.934Zm7.736,1.934V16.934H16.6v1.934Z" transform="translate(-1.132 -1.462)"/>
      <path id="Path_67866" data-name="Path 67866" d="M45.9,58.8A2.9,2.9,0,1,0,43,55.9,2.9,2.9,0,0,0,45.9,58.8Zm0-3.868a.967.967,0,1,1-.967.967A.969.969,0,0,1,45.9,54.934Z" transform="translate(-2.385 -2.715)"/>
      <path id="Path_67867" data-name="Path 67867" d="M58.8,48.683V45.2l-3.868-3.868V34H53v8.137L56.868,46v2.679a2.9,2.9,0,1,0,1.934,0Zm-.967,3.69a.967.967,0,1,1,.967-.967A.969.969,0,0,1,57.835,52.374Z" transform="translate(-2.715 -2.088)"/>
      <path id="Path_67868" data-name="Path 67868" d="M38.736,42.137V34H36.8v7.336L32.934,45.2v3.479a2.9,2.9,0,1,0,1.934,0V46ZM33.9,52.374a.967.967,0,1,1,.967-.967A.969.969,0,0,1,33.9,52.374Z" transform="translate(-1.989 -2.088)"/>
      <path id="Path_67869" data-name="Path 67869" d="M9.835,28.934H10.8V27H9.835a2.9,2.9,0,0,0-2.9,2.9.969.969,0,0,1-.967.967H5V32.8h.967a.969.969,0,0,1,.967.967,2.9,2.9,0,0,0,2.9,2.9H10.8V34.736H9.835a.969.969,0,0,1-.967-.967,2.882,2.882,0,0,0-.754-1.934A2.882,2.882,0,0,0,8.868,29.9.969.969,0,0,1,9.835,28.934Z" transform="translate(-1.132 -1.857)"/>
      <path id="Path_67870" data-name="Path 67870" d="M13,27H24.6v1.934H13Z" transform="translate(-1.396 -1.857)"/>
      <path id="Path_67871" data-name="Path 67871" d="M13,31H24.6v1.934H13Z" transform="translate(-1.396 -1.989)"/>
      <path id="Path_67872" data-name="Path 67872" d="M23,35h1.934v1.934H23Z" transform="translate(-1.725 -2.121)"/>
      <path id="Path_67873" data-name="Path 67873" d="M13,35h7.736v1.934H13Z" transform="translate(-1.396 -2.121)"/>
      <path id="Path_67874" data-name="Path 67874" d="M26.868,49.769a.969.969,0,0,1,.967-.967H28.8V46.868h-.967a.969.969,0,0,1-.967-.967,2.9,2.9,0,0,0-2.9-2.9H23v1.934h.967a.969.969,0,0,1,.967.967,2.882,2.882,0,0,0,.754,1.934,2.878,2.878,0,0,0-.754,1.934.969.969,0,0,1-.967.967H23V52.67h.967A2.9,2.9,0,0,0,26.868,49.769Z" transform="translate(-1.725 -2.385)"/>
      <path id="Path_67875" data-name="Path 67875" d="M9,51H20.6v1.934H9Z" transform="translate(-1.264 -2.649)"/>
      <path id="Path_67876" data-name="Path 67876" d="M13,47h7.736v1.934H13Z" transform="translate(-1.396 -2.517)"/>
      <path id="Path_67877" data-name="Path 67877" d="M9,47h1.934v1.934H9Z" transform="translate(-1.264 -2.517)"/>
      <path id="Path_67878" data-name="Path 67878" d="M9,43H20.6v1.934H9Z" transform="translate(-1.264 -2.385)"/>
      <path id="Path_67879" data-name="Path 67879" d="M5,39H24.341v1.934H5Z" transform="translate(-1.132 -2.253)"/>
    </g>
  </g>
</svg>
