<svg xmlns="http://www.w3.org/2000/svg" width="72.078" height="71.234" viewBox="0 0 72.078 71.234">
  <g id="Group_7321" data-name="Group 7321" transform="translate(-1199.614 -3355.106)">
    <g id="graduated" transform="translate(1216.586 3368.907)">
      <path id="Path_67880" data-name="Path 67880" d="M86.295,31.413l-2.822-.829-6.139-4.01v-.919a8.172,8.172,0,0,0,3.225-5.739,1.876,1.876,0,0,0,1.575-1.849V15.54c0-.01,0-.019,0-.029v-3.2a1.389,1.389,0,0,0,.581-1.133V8.248l4.237-.722a1.5,1.5,0,0,0,.2-2.912L72.868.071a1.494,1.494,0,0,0-.911,0L57.674,4.614a1.507,1.507,0,0,0-.468,2.622v3.83h-.035a1.46,1.46,0,0,0-1.459,1.459v1.9l-.942,5.527a1.568,1.568,0,0,0,1.545,1.831H59.5a1.568,1.568,0,0,0,1.545-1.831l-.942-5.527v-1.9a1.46,1.46,0,0,0-1.459-1.459h-.035V7.652l3.5.6v2.929a1.39,1.39,0,0,0,.578,1.131v5.759a1.876,1.876,0,0,0,1.575,1.849,8.172,8.172,0,0,0,3.222,5.737v.923l-6.138,4.009-2.82.828a7.162,7.162,0,0,0-5.148,6.876v2.1a.7.7,0,1,0,1.409,0v-2.1a5.788,5.788,0,0,1,4.136-5.524l2.627-.771,10.5,6.237a.713.713,0,0,0,.72,0l10.5-6.237,2.627.771a5.789,5.789,0,0,1,4.135,5.524v6.8a1.584,1.584,0,0,1-1.582,1.582h-3.1V43.638a.7.7,0,0,0-1.409,0v3.036H60.888V43.638a.7.7,0,0,0-1.409,0v3.036h-3.1A1.584,1.584,0,0,1,54.8,45.091V43.68a.7.7,0,1,0-1.409,0v1.411a2.994,2.994,0,0,0,2.991,2.991H88.451a2.994,2.994,0,0,0,2.991-2.991v-6.8a7.162,7.162,0,0,0-5.147-6.876ZM59.5,20.376H56.316a.159.159,0,0,1-.157-.186l.852-5h1.8l.852,5a.159.159,0,0,1-.157.186Zm-.8-7.85v1.257H57.121V12.525a.05.05,0,0,1,.05-.05h1.478A.05.05,0,0,1,58.7,12.525ZM69.9,35.044l.28.431L62.985,31.2l4.564-2.981A14.8,14.8,0,0,0,69.9,35.044Zm0-3.04a18.111,18.111,0,0,0,5.048,0,13.453,13.453,0,0,1-1.186,2.272l-1.338,2.057-1.338-2.057A13.453,13.453,0,0,1,69.891,32Zm5.043,3.04a14.793,14.793,0,0,0,2.346-6.823L81.844,31.2l-7.191,4.273Zm4.12-22.472h1.669v2.263h-.829a.842.842,0,0,1-.841-.841V12.572ZM58.1,5.956,72.385,1.413a.093.093,0,0,1,.057,0L86.725,5.956a.079.079,0,0,1,.065.1c-.005.073-.047.08-.078.086l-4.723.8-1.773-.219a.7.7,0,1,0-.173,1.4l1.259.156v2.888H63.526V8.276l7.288-.9a13.047,13.047,0,0,1,3.2,0l2.758.341a.7.7,0,1,0,.173-1.4l-2.758-.341a14.449,14.449,0,0,0-3.544,0l-7.8.966-4.724-.8c-.031-.005-.072-.012-.078-.086a.079.079,0,0,1,.065-.1Zm6,8.879V12.572h1.672v1.422a.842.842,0,0,1-.841.841H64.1Zm1.55,4.718a1.091,1.091,0,0,0-1.085-1.023.465.465,0,0,1-.465-.465V16.244h.83a2.252,2.252,0,0,0,2.249-2.249V12.572H77.645v1.422a2.252,2.252,0,0,0,2.249,2.249h.83v1.822a.465.465,0,0,1-.465.465,1.091,1.091,0,0,0-1.085,1.023,6.774,6.774,0,0,1-13.52,0Zm6.76,7.751a8.129,8.129,0,0,0,3.51-.8v.446a13.423,13.423,0,0,1-.475,3.538,16.631,16.631,0,0,1-6.07,0,13.422,13.422,0,0,1-.475-3.538c0-.015,0-.029,0-.044s0-.006,0-.009v-.395A8.13,8.13,0,0,0,72.414,27.3Z" transform="translate(-53.387 0)"/>
    </g>
    <ellipse id="Ellipse_676" data-name="Ellipse 676" cx="17.981" cy="18.145" rx="17.981" ry="18.145" transform="matrix(0.375, 0.927, -0.927, 0.375, 1258.221, 3379.402)" fill="#9fcffa" opacity="0.433"/>
    <ellipse id="Ellipse_679" data-name="Ellipse 679" cx="23.866" cy="24.029" rx="23.866" ry="24.029" transform="matrix(0.375, 0.927, -0.927, 0.375, 1244.174, 3355.106)" fill="#0090df" opacity="0.307"/>
  </g>
</svg>
