<svg xmlns="http://www.w3.org/2000/svg" width="99.572" height="77.616" viewBox="0 0 99.572 77.616">
  <g id="Group_7326" data-name="Group 7326" transform="translate(-906.868 -3334.916)">
    <ellipse id="Ellipse_670" data-name="Ellipse 670" cx="21.751" cy="21.949" rx="21.751" ry="21.949" transform="matrix(-0.927, 0.375, -0.375, -0.927, 963.646, 3396.235)" fill="#9fcffa" opacity="0.433"/>
    <ellipse id="Ellipse_671" data-name="Ellipse 671" cx="28.869" cy="29.067" rx="28.869" ry="29.067" transform="matrix(-0.927, 0.375, -0.375, -0.927, 1006.439, 3388.817)" fill="#0090df" opacity="0.307"/>
    <g id="binoculars" transform="translate(931.625 3360.354)">
      <path id="Path_67926" data-name="Path 67926" d="M41.424,208.266a8.455,8.455,0,1,0,8.454,8.455A8.464,8.464,0,0,0,41.424,208.266Zm0,1.474a6.993,6.993,0,0,1,6.77,5.28,6.98,6.98,0,0,1-13.54,0A6.993,6.993,0,0,1,41.424,209.74Zm0,13.961a6.992,6.992,0,0,1-6.784-5.338,8.447,8.447,0,0,0,13.568,0A6.992,6.992,0,0,1,41.424,223.7Zm0,0" transform="translate(-29.772 -188.07)"/>
      <path id="Path_67927" data-name="Path 67927" d="M48.891,24.519s-.142-.358-.2-.491L42.411,8.8a8.326,8.326,0,0,0-3.889-4.24l-.591-1.432a5.063,5.063,0,0,0-9.743,1.931v1.7a8.308,8.308,0,0,0-1.844,5.225v.562H23.3v-.562a8.308,8.308,0,0,0-1.844-5.225v-1.7a5.063,5.063,0,0,0-9.743-1.931l-.591,1.432A8.326,8.326,0,0,0,7.237,8.8L5.625,12.712a.737.737,0,1,0,1.362.562L8.6,9.366a6.875,6.875,0,0,1,13.23,2.622v11A11.639,11.639,0,0,0,4.406,19.532L6,15.675a.737.737,0,1,0-1.363-.562L.957,24.028c-.058.133-.215.525-.222.55A11.652,11.652,0,1,0,23.3,28.65v-.474h3.042v.474a11.652,11.652,0,1,0,22.546-4.131ZM14.954,3.639a8.421,8.421,0,0,0-1.947.229l.072-.174a3.589,3.589,0,0,1,6.906,1.369V5.33A8.306,8.306,0,0,0,14.954,3.639Zm18.3-2.165a3.588,3.588,0,0,1,3.317,2.22l.072.174a8.4,8.4,0,0,0-1.948-.229,8.306,8.306,0,0,0-5.03,1.691V5.063A3.593,3.593,0,0,1,33.252,1.474ZM27.819,11.988A6.874,6.874,0,0,1,41.049,9.366l4.194,10.166a11.639,11.639,0,0,0-17.423,3.451Zm-1.474,2.037V21.1H23.3V14.025Zm-14.693,24.8A10.178,10.178,0,1,1,21.829,28.65,10.189,10.189,0,0,1,11.652,38.828ZM23.3,26.7V22.574h3.042V26.7ZM38,38.828A10.178,10.178,0,1,1,48.174,28.65,10.189,10.189,0,0,1,38,38.828Zm0,0" transform="translate(0 0)"/>
      <path id="Path_67928" data-name="Path 67928" d="M318.829,211.493a.737.737,0,0,0-.145,1.032,6.923,6.923,0,0,1,1.192,2.488,6.98,6.98,0,0,1-13.542.007,6.982,6.982,0,0,1,10.673-4.089.737.737,0,1,0,.825-1.222,8.458,8.458,0,1,0,2.03,1.928A.736.736,0,0,0,318.829,211.493ZM313.1,223.7a6.991,6.991,0,0,1-6.783-5.337,8.447,8.447,0,0,0,13.567,0A6.992,6.992,0,0,1,313.1,223.7Zm0,0" transform="translate(-275.107 -188.07)"/>
    </g>
  </g>
</svg>
