<svg xmlns="http://www.w3.org/2000/svg" width="120.508" height="124.834" viewBox="0 0 120.508 124.834">
  <g id="Group_7321" data-name="Group 7321" transform="translate(-314.5 -2390)">
    <g id="programming" transform="translate(350.666 2430.492)">
      <path id="Path_67671" data-name="Path 67671" d="M81,16.949A18.87,18.87,0,0,0,79,12.153l1.58-3.16L75.35,3.759l-3.16,1.58a18.812,18.812,0,0,0-4.8-1.994L66.278,0h-7.4L57.76,3.345a18.764,18.764,0,0,0-4.8,1.994L49.8,3.759,44.568,8.992l1.58,3.16a18.918,18.918,0,0,0-1.994,4.8l-3.344,1.117v3.7H6.8a6.81,6.81,0,0,0-6.8,6.8V69.378a6.81,6.81,0,0,0,6.8,6.8H24.486v5.441H19.045v2.721H65.3V81.621H59.855V76.18H77.54a6.81,6.81,0,0,0,6.8-6.8V18.064ZM57.135,81.621H27.207V76.18H57.135ZM77.54,73.459H6.8a4.086,4.086,0,0,1-4.081-4.081v-1.36h78.9v1.36A4.086,4.086,0,0,1,77.54,73.459ZM81.621,65.3H2.721V28.567A4.086,4.086,0,0,1,6.8,24.486H40.811v.981l3.344,1.115a18.87,18.87,0,0,0,1.994,4.8l-1.58,3.16L49.8,39.772l3.16-1.58a18.811,18.811,0,0,0,4.8,1.994l1.115,3.345h7.4l1.115-3.345a18.764,18.764,0,0,0,4.8-1.994l3.16,1.58,5.234-5.234L79,31.378A18.943,18.943,0,0,0,81,26.583l.624-.208Zm0-41.792-2.936.98-.164.757A16.2,16.2,0,0,1,76.3,30.575l-.418.652L77.275,34l-2.461,2.461-2.776-1.389-.652.42a16.209,16.209,0,0,1-5.332,2.217l-.757.164-.981,2.936H60.835l-.98-2.936-.757-.164a16.2,16.2,0,0,1-5.332-2.217l-.652-.42-2.776,1.389L47.877,34l1.389-2.775-.418-.652a16.175,16.175,0,0,1-2.217-5.334l-.164-.757-2.936-.98V20.025l2.936-.98.164-.757a16.2,16.2,0,0,1,2.217-5.334l.418-.652L47.877,9.528l2.461-2.461,2.776,1.389.652-.42A16.209,16.209,0,0,1,59.1,5.819l.757-.164.981-2.935h3.481l.98,2.936.757.164a16.2,16.2,0,0,1,5.332,2.217l.652.42,2.776-1.389,2.461,2.461L75.886,12.3l.418.652a16.176,16.176,0,0,1,2.217,5.334l.164.757,2.936.98Zm0,0" fill="#484848"/>
      <path id="Path_67672" data-name="Path 67672" d="M301.6,48a13.6,13.6,0,1,0,13.6,13.6A13.619,13.619,0,0,0,301.6,48Zm0,24.486A10.883,10.883,0,1,1,312.486,61.6,10.9,10.9,0,0,1,301.6,72.486Zm0,0" transform="translate(-239.027 -39.838)" fill="#484848"/>
      <path id="Path_67673" data-name="Path 67673" d="M341.441,96a5.441,5.441,0,1,0,5.441,5.441A5.447,5.447,0,0,0,341.441,96Zm0,8.162a2.721,2.721,0,1,1,2.721-2.721A2.723,2.723,0,0,1,341.441,104.162Zm0,0" transform="translate(-278.865 -79.676)" fill="#484848"/>
      <path id="Path_67674" data-name="Path 67674" d="M34.721,172.081v1.36A2.723,2.723,0,0,1,32,176.162v2.721a2.723,2.723,0,0,1,2.721,2.721v1.36a4.086,4.086,0,0,0,4.081,4.081h1.36v-2.721H38.8a1.362,1.362,0,0,1-1.36-1.36V181.6a5.428,5.428,0,0,0-1.846-4.081,5.428,5.428,0,0,0,1.846-4.081v-1.36a1.362,1.362,0,0,1,1.36-1.36h1.36V168H38.8A4.086,4.086,0,0,0,34.721,172.081Zm0,0" transform="translate(-26.559 -139.433)" fill="#484848"/>
      <path id="Path_67675" data-name="Path 67675" d="M269.441,245.441v-1.36A4.086,4.086,0,0,0,265.36,240H264v2.721h1.36a1.362,1.362,0,0,1,1.36,1.36v1.36a5.428,5.428,0,0,0,1.846,4.081,5.428,5.428,0,0,0-1.846,4.081v1.36a1.362,1.362,0,0,1-1.36,1.36H264v2.721h1.36a4.086,4.086,0,0,0,4.081-4.081V253.6a2.723,2.723,0,0,1,2.721-2.721v-2.721A2.723,2.723,0,0,1,269.441,245.441Zm0,0" transform="translate(-219.108 -199.189)" fill="#484848"/>
      <path id="Path_67676" data-name="Path 67676" d="M96,176h25.847v2.721H96Zm0,0" transform="translate(-79.676 -146.072)" fill="#484848"/>
      <path id="Path_67677" data-name="Path 67677" d="M128,208h20.405v2.721H128Zm0,0" transform="translate(-106.234 -172.631)" fill="#484848"/>
      <path id="Path_67678" data-name="Path 67678" d="M96,208h2.721v2.721H96Zm0,0" transform="translate(-79.676 -172.631)" fill="#484848"/>
      <path id="Path_67679" data-name="Path 67679" d="M96,240h25.847v2.721H96Zm0,0" transform="translate(-79.676 -199.189)" fill="#484848"/>
      <path id="Path_67680" data-name="Path 67680" d="M96,272h25.847v2.721H96Zm0,0" transform="translate(-79.676 -225.748)" fill="#484848"/>
      <path id="Path_67681" data-name="Path 67681" d="M232,304h2.721v2.721H232Zm0,0" transform="translate(-192.55 -252.307)" fill="#484848"/>
      <path id="Path_67682" data-name="Path 67682" d="M96,304h20.405v2.721H96Zm0,0" transform="translate(-79.676 -252.307)" fill="#484848"/>
      <path id="Path_67683" data-name="Path 67683" d="M96,336h25.847v2.721H96Zm0,0" transform="translate(-79.676 -278.865)" fill="#484848"/>
    </g>
    <circle id="Ellipse_660" data-name="Ellipse 660" cx="34" cy="34" r="34" transform="translate(314.5 2429)" fill="#0076ff" opacity="0.211"/>
    <circle id="Ellipse_658" data-name="Ellipse 658" cx="44.5" cy="44.5" r="44.5" transform="translate(345.5 2390)" fill="#0090df" opacity="0.211"/>
  </g>
</svg>
