<svg xmlns="http://www.w3.org/2000/svg" width="194.912" height="92.313" viewBox="0 0 194.912 92.313">
  <g id="Group_7322" data-name="Group 7322" transform="translate(-853.427 -2433.061)">
    <ellipse id="Ellipse_659" data-name="Ellipse 659" cx="31.881" cy="31.881" rx="31.881" ry="31.881" transform="matrix(0.259, 0.966, -0.966, 0.259, 994.145, 2447.281)" fill="#0090df" opacity="0.211"/>
    <g id="windows" transform="translate(991.035 2459)">
      <g id="Group_7013" data-name="Group 7013" transform="translate(0.392 4.852)">
        <g id="Group_7012" data-name="Group 7012">
          <path id="Path_67694" data-name="Path 67694" d="M23.384,43.595c-23.175,3.063-20.481,2.7-22,2.939a1.18,1.18,0,0,0-1,1.17V65.872a1.185,1.185,0,0,0,1.185,1.185h0c7.24-.006,14.55-.2,21.962-.2a1.186,1.186,0,0,0,1.184-1.184V44.77A1.185,1.185,0,0,0,23.384,43.595Zm-.328,21.594c-7.1.013-14.072.187-21,.2V48.115c.984-.158-1.434.169,21-2.795Z" transform="translate(-0.392 -43.584)"/>
        </g>
      </g>
      <g id="Group_7015" data-name="Group 7015" transform="translate(0.392 28.885)">
        <g id="Group_7014" data-name="Group 7014" transform="translate(0)">
          <path id="Path_67695" data-name="Path 67695" d="M23.511,259.462c-6.425.159-22.044-.009-21.933-.009a1.185,1.185,0,0,0-1.185,1.185V278.8a1.189,1.189,0,0,0,1.026,1.174c.117.016,21.834,2.953,22.12,2.953a1.186,1.186,0,0,0,1.185-1.185v-21.1A1.184,1.184,0,0,0,23.511,259.462Zm-.453,21.729q-10.811-1.425-21-2.813V261.131c6.907.013,13.886.16,21,0Z" transform="translate(-0.393 -259.453)"/>
        </g>
      </g>
      <g id="Group_7017" data-name="Group 7017" transform="translate(25.687 0)">
        <g id="Group_7016" data-name="Group 7016" transform="translate(0 0)">
          <path id="Path_67696" data-name="Path 67696" d="M257.872.012c-4.632.661-9.138,1.3-13.639,1.955a.834.834,0,1,0,.241,1.65c4.3-.628,8.557-1.23,13.083-1.875V26.254c-9.357.01-18.936.191-28.282.2V5.951c1.659-.247,4.3-.712,11.311-1.76a.834.834,0,0,0-.247-1.649c-7.021,1.05-9.511,1.492-11.721,1.821a1.192,1.192,0,0,0-1.011,1.172v21.4a1.184,1.184,0,0,0,1.185,1.185c9.18,0,19.6-.2,29.249-.2a1.186,1.186,0,0,0,1.183-1.184V1.185A1.186,1.186,0,0,0,257.872.012Z" transform="translate(-227.608 0)"/>
        </g>
      </g>
      <g id="Group_7019" data-name="Group 7019" transform="translate(25.687 29.087)">
        <g id="Group_7018" data-name="Group 7018">
          <path id="Path_67697" data-name="Path 67697" d="M258.391,275.122a.834.834,0,0,0,.834-.834V262.455a1.186,1.186,0,0,0-1.185-1.185H228.793a1.186,1.186,0,0,0-1.185,1.185v21.4a1.191,1.191,0,0,0,1.018,1.173c9.632,1.371,19.58,2.575,29.226,4.138A1.184,1.184,0,0,0,259.225,288v-9.82a.834.834,0,1,0-1.667,0v9.252c-9.359-1.5-18.946-2.67-28.282-3.994v-20.5h28.282v11.351A.834.834,0,0,0,258.391,275.122Z" transform="translate(-227.608 -261.27)"/>
        </g>
      </g>
    </g>
    <g id="android" transform="translate(913 2463)">
      <g id="Group_7011" data-name="Group 7011">
        <path id="Path_67688" data-name="Path 67688" d="M35.361,5.677l2.5-4.162A1,1,0,1,0,36.143.486L33.508,4.878a14.716,14.716,0,0,0-10.014,0L20.859.486a1,1,0,0,0-1.715,1.029l2.5,4.162A15,15,0,0,0,13.5,19a1,1,0,0,0,1,1h28a1,1,0,0,0,1-1A15.008,15.008,0,0,0,35.361,5.677ZM15.539,18a13,13,0,0,1,25.924,0Z"/>
        <path id="Path_67689" data-name="Path 67689" d="M35.478,11.364H34.16a.659.659,0,0,0-.659.659v1.318A.659.659,0,0,0,34.16,14h1.319a.659.659,0,0,0,.659-.659V12.023A.66.66,0,0,0,35.478,11.364Z"/>
        <path id="Path_67690" data-name="Path 67690" d="M22.841,11.364H21.522a.659.659,0,0,0-.659.659v1.318a.659.659,0,0,0,.659.659h1.319a.659.659,0,0,0,.659-.659V12.023A.659.659,0,0,0,22.841,11.364Z"/>
        <path id="Path_67691" data-name="Path 67691" d="M42.5,21h-28a1,1,0,0,0-1,1V42.172A4.837,4.837,0,0,0,18.334,47H19.5v6.006a4,4,0,0,0,8,0V47h2v6.006a4,4,0,0,0,8,0V47h1.166A4.836,4.836,0,0,0,43.5,42.172V22A1,1,0,0,0,42.5,21Zm-1,21.171A2.834,2.834,0,0,1,38.666,45H36.5a1,1,0,0,0-1,1v7.006a2,2,0,0,1-4,0V46a1,1,0,0,0-1-1h-4a1,1,0,0,0-1,1v7.006a2,2,0,0,1-4,0V46a1,1,0,0,0-1-1H18.335A2.836,2.836,0,0,1,15.5,42.172V23h26Z"/>
        <path id="Path_67692" data-name="Path 67692" d="M48,21a3.506,3.506,0,0,0-3.5,3.5V38.5a3.5,3.5,0,1,0,7,0V24.5A3.506,3.506,0,0,0,48,21Zm1.5,17.5a1.5,1.5,0,1,1-3,0V24.5a1.5,1.5,0,1,1,3,0Z"/>
        <path id="Path_67693" data-name="Path 67693" d="M9,21a3.506,3.506,0,0,0-3.5,3.5V38.5a3.5,3.5,0,1,0,7,0V24.5A3.506,3.506,0,0,0,9,21Zm1.5,17.5a1.5,1.5,0,1,1-3,0V24.5a1.5,1.5,0,1,1,3,0Z"/>
      </g>
    </g>
    <g id="apple" transform="translate(806.684 2463)">
      <g id="Group_7006" data-name="Group 7006" transform="translate(46.744 12.67)">
        <g id="Group_7005" data-name="Group 7005" transform="translate(0)">
          <path id="Path_67685" data-name="Path 67685" d="M89.221,147.256a10.556,10.556,0,0,1-5.72-7.542.776.776,0,0,0-1.529.269,12.1,12.1,0,0,0,6.541,8.655,27.922,27.922,0,0,1-3.255,6.472c-1.9,2.781-4.058,5.933-7.259,5.994s-4.375-2.047-8.49-2.047-5.424,1.99-8.471,2.111c-2.868.11-5.168-2.863-7.466-6.185-4.247-6.143-7.614-17.522-3.231-25.131a11.929,11.929,0,0,1,8.326-5.918.776.776,0,0,0-.257-1.532A13.477,13.477,0,0,0,49,129.077c-4.686,8.133-1.309,20.125,3.3,26.789,1.9,2.741,4.744,6.858,8.6,6.857,3.473,0,4.778-2.113,8.617-2.113,3.744,0,4.844,2.116,8.518,2.047,4-.076,6.5-3.732,8.511-6.67a29.515,29.515,0,0,0,3.445-6.853A1.546,1.546,0,0,0,89.221,147.256Z" transform="translate(-46.744 -122.392)"/>
        </g>
      </g>
      <g id="Group_7008" data-name="Group 7008" transform="translate(67.582 0)">
        <g id="Group_7007" data-name="Group 7007" transform="translate(0 0)">
          <path id="Path_67686" data-name="Path 67686" d="M260.038,1.5A1.542,1.542,0,0,0,258.26.018c-6.034.922-10.4,6.754-10.206,11.875a1.536,1.536,0,0,0,1.529,1.475h.043C255.273,13.209,260.162,7.342,260.038,1.5ZM249.605,11.815a10.378,10.378,0,0,1,2.607-6.7,11.13,11.13,0,0,1,6.274-3.557C258.579,6.493,254.431,11.661,249.605,11.815Z" transform="translate(-248.048 0)"/>
        </g>
      </g>
      <g id="Group_7010" data-name="Group 7010" transform="translate(61.386 12.35)">
        <g id="Group_7009" data-name="Group 7009" transform="translate(0)">
          <path id="Path_67687" data-name="Path 67687" d="M215.05,124.082a12.8,12.8,0,0,0-9.507-4.751c-4.41-.326-8.17,2.367-9.906,2.367-1.421,0-3.869-1.5-6.516-2.041a.776.776,0,1,0-.31,1.522c2.59.527,4.942,2.072,6.825,2.072,2.264,0,5.731-2.672,9.791-2.371a11.267,11.267,0,0,1,8.389,4.147,12.524,12.524,0,0,0-5.135,8.329.777.777,0,0,0,.669.871.794.794,0,0,0,.1.007.777.777,0,0,0,.769-.675,10.963,10.963,0,0,1,4.509-7.275A1.541,1.541,0,0,0,215.05,124.082Z" transform="translate(-188.19 -119.303)"/>
        </g>
      </g>
    </g>
    <ellipse id="Ellipse_661" data-name="Ellipse 661" cx="24.358" cy="24.358" rx="24.358" ry="24.358" transform="matrix(0.259, 0.966, -0.966, 0.259, 961.408, 2433.061)" fill="#0076ff" opacity="0.211"/>
  </g>
</svg>
