<svg xmlns="http://www.w3.org/2000/svg" width="81.662" height="84.942" viewBox="0 0 81.662 84.942">
  <g id="Group_7323" data-name="Group 7323" transform="translate(-1473.664 -2434.938)">
    <circle id="Ellipse_656" data-name="Ellipse 656" cx="30.5" cy="30.5" r="30.5" transform="matrix(0.07, 0.998, -0.998, 0.07, 1534.516, 2451.002)" fill="#0090df" opacity="0.211"/>
    <circle id="Ellipse_657" data-name="Ellipse 657" cx="23" cy="23" r="23" transform="matrix(0.07, 0.998, -0.998, 0.07, 1552.117, 2434.938)" fill="#0076ff" opacity="0.211"/>
    <g id="barcode" transform="translate(1477.5 2410.33)">
      <path id="Path_67698" data-name="Path 67698" d="M29.787,234.287H2.645A2.648,2.648,0,0,0,0,236.932v18.1a2.649,2.649,0,0,0,2.645,2.645H29.787a2.648,2.648,0,0,0,2.645-2.645v-18.1A2.648,2.648,0,0,0,29.787,234.287Zm.377,20.743a.378.378,0,0,1-.377.377H2.645a.378.378,0,0,1-.377-.377v-18.1a.378.378,0,0,1,.377-.377H29.787a.378.378,0,0,1,.377.377Z" transform="translate(0 -159.766)"/>
      <path id="Path_67699" data-name="Path 67699" d="M156.685,265.019a1.134,1.134,0,0,0-1.134,1.134V277.98a1.134,1.134,0,1,0,2.268,0V266.153A1.134,1.134,0,0,0,156.685,265.019Z" transform="translate(-132.031 -185.851)"/>
      <path id="Path_67700" data-name="Path 67700" d="M128.781,265.019a1.134,1.134,0,0,0-1.134,1.134V277.98a1.134,1.134,0,1,0,2.268,0V266.153A1.134,1.134,0,0,0,128.781,265.019Z" transform="translate(-108.346 -185.851)"/>
      <path id="Path_67701" data-name="Path 67701" d="M100.877,265.019a1.134,1.134,0,0,0-1.134,1.134V277.98a1.134,1.134,0,1,0,2.268,0V266.153A1.134,1.134,0,0,0,100.877,265.019Z" transform="translate(-84.661 -185.851)"/>
      <path id="Path_67702" data-name="Path 67702" d="M45.07,265.019a1.134,1.134,0,0,0-1.134,1.134V277.98a1.134,1.134,0,1,0,2.268,0V266.153A1.134,1.134,0,0,0,45.07,265.019Z" transform="translate(-37.293 -185.851)"/>
      <path id="Path_67703" data-name="Path 67703" d="M161.233,91.93h-3.558a5.824,5.824,0,0,0-5.817,5.817v5.985a3.552,3.552,0,0,1-3.547,3.549h-2.932a4.7,4.7,0,0,1-4.687-4.4l2.686-.582a6.072,6.072,0,0,0,4.759-6.689L144.625,67.54a10.922,10.922,0,0,0-2.794-21.48h-6.5a1.134,1.134,0,1,0,0,2.268h6.5a8.654,8.654,0,1,1,0,17.309H114.655a2.268,2.268,0,0,1-2.1-1.4l-6.023-14.462a1.046,1.046,0,0,1,.966-1.447h22.537a1.134,1.134,0,0,0,0-2.268H107.5a3.315,3.315,0,0,0-3.3,3.62h-2.226a1.89,1.89,0,0,0-1.744,2.616l4.507,10.82a1.881,1.881,0,0,0,1.746,1.168h3.637l.344.825a4.531,4.531,0,0,0,4.193,2.8H124.8a12.214,12.214,0,0,1,.638,4c0,.208-.01.416-.018.625a8.71,8.71,0,0,0,.167,2.556,6.408,6.408,0,0,0,4.817,4.324,10.458,10.458,0,0,0,2.305.294l.156,1.238a1.134,1.134,0,0,0,2.25-.284l-1.607-12.75s8.688-.006,8.872-.016l3.5,27.993a3.812,3.812,0,0,1-2.988,4.2l-9.316,2.02a2.338,2.338,0,0,1-2.834-2.285v-1.39a2.351,2.351,0,0,1,1.842-2.285l.7-.153a4.068,4.068,0,0,0,3.191-4.489l-.7-5.545a1.134,1.134,0,1,0-2.25.284l.7,5.539a1.809,1.809,0,0,1-1.421,1.995l-.7.153a4.632,4.632,0,0,0-3.629,4.5v1.39a4.609,4.609,0,0,0,4.6,4.607,4.639,4.639,0,0,0,.983-.106l4.4-.953a6.974,6.974,0,0,0,6.92,6.187h2.932a5.823,5.823,0,0,0,5.815-5.817V97.747a3.553,3.553,0,0,1,3.549-3.549h3.558a1.134,1.134,0,1,0,0-2.268Zm-54.5-29.913L102.54,51.948h2.441l4.193,10.069Zm25.69,15.4a7.886,7.886,0,0,1-1.47-.212,4.162,4.162,0,0,1-3.167-2.686,6.912,6.912,0,0,1-.1-1.91c.008-.227.016-.453.019-.678a14.418,14.418,0,0,0-.533-4.026h4.049Z" transform="translate(-84.949)"/>
    </g>
  </g>
</svg>
