<svg id="Component_90_6" data-name="Component 90 – 6" xmlns="http://www.w3.org/2000/svg" width="34.672" height="34.723" viewBox="0 0 34.672 34.723">
  <g id="Group_2239" data-name="Group 2239" transform="translate(-0.345 0)">
    <g id="Group_2238" data-name="Group 2238" transform="translate(0.345 0)">
      <path id="Path_1693" data-name="Path 1693" d="M27.761,46.907a3.415,3.415,0,0,0-2.477-1.136A3.532,3.532,0,0,0,22.778,46.9l-2.316,2.308c-.191-.1-.381-.2-.564-.293-.264-.132-.513-.256-.726-.388a25.17,25.17,0,0,1-6.031-5.5,14.849,14.849,0,0,1-1.979-3.122c.6-.55,1.158-1.121,1.7-1.671.205-.205.41-.418.616-.623a3.362,3.362,0,0,0,0-5.071l-2-2c-.227-.227-.462-.462-.682-.7-.44-.454-.9-.923-1.378-1.363a3.469,3.469,0,0,0-2.455-1.077,3.59,3.59,0,0,0-2.492,1.077l-.015.015L1.965,31.012a5.362,5.362,0,0,0-1.59,3.408,12.847,12.847,0,0,0,.938,5.438,31.554,31.554,0,0,0,5.606,9.351A34.487,34.487,0,0,0,18.4,58.2a17.892,17.892,0,0,0,6.449,1.905c.154.007.315.015.462.015A5.522,5.522,0,0,0,29.542,58.3c.007-.015.022-.022.029-.037a16.658,16.658,0,0,1,1.282-1.326c.315-.3.638-.616.953-.945a3.656,3.656,0,0,0,1.107-2.536,3.522,3.522,0,0,0-1.129-2.514Zm2.624,7.717c-.007,0-.007.007,0,0-.286.308-.579.586-.894.894a19.269,19.269,0,0,0-1.414,1.466,3.533,3.533,0,0,1-2.756,1.165c-.11,0-.227,0-.337-.007a15.9,15.9,0,0,1-5.716-1.715A32.554,32.554,0,0,1,8.451,47.955a29.752,29.752,0,0,1-5.277-8.787,10.464,10.464,0,0,1-.821-4.588A3.364,3.364,0,0,1,3.365,32.4l2.5-2.5a1.666,1.666,0,0,1,1.114-.52,1.568,1.568,0,0,1,1.07.513l.022.022c.447.418.872.85,1.319,1.312.227.235.462.469.7.711l2,2a1.4,1.4,0,0,1,0,2.272c-.213.213-.418.425-.63.63-.616.63-1.2,1.217-1.839,1.788-.015.015-.029.022-.037.037A1.5,1.5,0,0,0,9.2,40.333l.022.066a16.062,16.062,0,0,0,2.367,3.862l.007.007A26.9,26.9,0,0,0,18.1,50.19a10.006,10.006,0,0,0,.9.491c.264.132.513.256.726.388.029.015.059.037.088.051a1.589,1.589,0,0,0,.726.183,1.567,1.567,0,0,0,1.114-.506l2.506-2.506a1.658,1.658,0,0,1,1.107-.55,1.493,1.493,0,0,1,1.055.535l.015.015,4.038,4.038A1.449,1.449,0,0,1,30.385,54.624Z" transform="translate(-0.345 -25.398)" fill="#0090df"/>
      <path id="Path_1694" data-name="Path 1694" d="M245.758,87.888a9.432,9.432,0,0,1,7.68,7.68.983.983,0,0,0,.975.821,1.307,1.307,0,0,0,.169-.015.99.99,0,0,0,.813-1.143,11.4,11.4,0,0,0-9.293-9.293,1,1,0,0,0-1.143.806A.979.979,0,0,0,245.758,87.888Z" transform="translate(-227.018 -79.628)" fill="#0090df"/>
      <path id="Path_1695" data-name="Path 1695" d="M265.226,15.317a18.779,18.779,0,0,0-15.3-15.3.988.988,0,1,0-.322,1.949A16.773,16.773,0,0,1,263.277,15.64a.983.983,0,0,0,.975.821,1.308,1.308,0,0,0,.169-.015A.971.971,0,0,0,265.226,15.317Z" transform="translate(-230.569 0)" fill="#0090df"/>
    </g>
  </g>
</svg>
