<svg xmlns="http://www.w3.org/2000/svg" xmlns:xlink="http://www.w3.org/1999/xlink" width="126.5" height="110.08" viewBox="0 0 126.5 110.08">
  <defs>
    <clipPath id="clip-path">
      <rect id="Rectangle_5259" data-name="Rectangle 5259" width="89" height="89" fill="#484848"/>
    </clipPath>
  </defs>
  <g id="Group_7383" data-name="Group 7383" transform="translate(-240.5 -1829.92)">
    <ellipse id="Ellipse_365" data-name="Ellipse 365" cx="29.435" cy="29.435" rx="29.435" ry="29.435" transform="matrix(0.643, 0.766, -0.766, 0.643, 307.48, 1829.92)" fill="#0090df" opacity="0.211"/>
    <ellipse id="Ellipse_364" data-name="Ellipse 364" cx="22.37" cy="22.37" rx="22.37" ry="22.37" transform="matrix(0.643, 0.766, -0.766, 0.643, 274.773, 1831.236)" fill="#0076ff" opacity="0.211"/>
    <g id="Group_6247" data-name="Group 6247" transform="translate(278 1851)">
      <rect id="Rectangle_5252" data-name="Rectangle 5252" width="21" height="2" transform="translate(34 63)" fill="#484848"/>
      <rect id="Rectangle_5253" data-name="Rectangle 5253" width="2" height="2" transform="translate(29 63)" fill="#484848"/>
      <g id="Group_6240" data-name="Group 6240">
        <g id="Group_6239" data-name="Group 6239" clip-path="url(#clip-path)">
          <path id="Path_67160" data-name="Path 67160" d="M87.365,5.923H66.634V4.442A4.456,4.456,0,0,0,62.192,0H26.654a4.456,4.456,0,0,0-4.442,4.442v5.923H1.481A1.481,1.481,0,0,0,0,11.846V29.615A1.481,1.481,0,0,0,1.481,31.1H22.211v2.962a7.4,7.4,0,0,0-7.4,7.4v6.056L17.769,78.54v8.825a1.481,1.481,0,0,0,1.481,1.481H51.827a1.481,1.481,0,0,0,1.481-1.481V78.954l5.508-7.878h3.376a4.456,4.456,0,0,0,4.442-4.442V65.154h1.481a5.9,5.9,0,0,0,3.88-10.365,5.85,5.85,0,0,0,0-8.885,5.85,5.85,0,0,0,0-8.885,5.9,5.9,0,0,0-3.88-10.365H66.634V23.692H87.365a1.481,1.481,0,0,0,1.481-1.481V7.4a1.481,1.481,0,0,0-1.481-1.481M55.854,2.962,55.4,4.8a1.481,1.481,0,0,1-1.436,1.125H34.887A1.481,1.481,0,0,1,33.45,4.8l-.459-1.836ZM2.962,13.327H29.615V28.134H2.962ZM50.346,85.884H20.731V79.961H50.346ZM51.057,77H20.6L17.769,47.384V41.461a4.456,4.456,0,0,1,4.442-4.442H32.577a4.442,4.442,0,0,1,0,8.885H23.692a1.481,1.481,0,0,0-1.481,1.481v19.25a4.456,4.456,0,0,0,4.442,4.442H55.2ZM63.673,66.634a1.481,1.481,0,0,1-1.481,1.481H26.654a1.481,1.481,0,0,1-1.481-1.481V48.865h7.4a7.4,7.4,0,1,0,0-14.808h-7.4V31.1H31.1a1.481,1.481,0,0,0,1.481-1.481V11.846A1.481,1.481,0,0,0,31.1,10.365H25.173V4.442a1.481,1.481,0,0,1,1.481-1.481h3.287l.637,2.562a4.442,4.442,0,0,0,4.309,3.361H53.959a4.442,4.442,0,0,0,4.309-3.361L58.9,2.962h3.287a1.481,1.481,0,0,1,1.481,1.481V5.923H60.711A1.481,1.481,0,0,0,59.23,7.4V22.211a1.481,1.481,0,0,0,1.481,1.481h2.962v2.962H62.192a5.9,5.9,0,0,0-3.88,10.365,5.85,5.85,0,0,0,0,8.885,5.85,5.85,0,0,0,0,8.885,5.9,5.9,0,0,0,3.88,10.365h1.481Zm4.442-4.442H62.192a2.962,2.962,0,1,1,0-5.923h5.923a2.962,2.962,0,0,1,0,5.923m0-8.885H62.192a2.962,2.962,0,1,1,0-5.923h5.923a2.962,2.962,0,1,1,0,5.923m0-8.885H62.192a2.962,2.962,0,1,1,0-5.923h5.923a2.962,2.962,0,1,1,0,5.923m0-14.808a2.962,2.962,0,0,1,0,5.923H62.192a2.962,2.962,0,0,1,0-5.923Zm17.769-8.885H62.192V8.885H85.884Z" fill="#484848"/>
          <rect id="Rectangle_5254" data-name="Rectangle 5254" width="4" height="4" transform="translate(5 16)" fill="#484848"/>
          <rect id="Rectangle_5255" data-name="Rectangle 5255" width="14" height="4" transform="translate(12 16)" fill="#484848"/>
          <rect id="Rectangle_5256" data-name="Rectangle 5256" width="21" height="3" transform="translate(5 22)" fill="#484848"/>
          <rect id="Rectangle_5257" data-name="Rectangle 5257" width="6" height="3" transform="translate(65 13)" fill="#484848"/>
          <rect id="Rectangle_5258" data-name="Rectangle 5258" width="8" height="3" transform="translate(75 13)" fill="#484848"/>
        </g>
      </g>
    </g>
  </g>
</svg>
