<svg id="computer" xmlns="http://www.w3.org/2000/svg" width="98.115" height="98.115" viewBox="0 0 98.115 98.115">
  <path id="Path_68119" data-name="Path 68119" d="M48,160h6.33v3.165H48Zm0,0" transform="translate(-38.505 -128.35)" fill="#484848"/>
  <path id="Path_68120" data-name="Path 68120" d="M93.368,25.32a4.754,4.754,0,0,0,4.748-4.748V4.748A4.754,4.754,0,0,0,93.368,0H71.213a4.754,4.754,0,0,0-4.748,4.748V20.573a4.754,4.754,0,0,0,4.748,4.748H75.96v3.165H72.8V31.65h7.913V47.475H74.177a11.065,11.065,0,0,0-4.557-2.7c.008-.16.011-.314.011-.47a12.651,12.651,0,0,0-23.323-6.8,12.594,12.594,0,0,0-5.162-1.11,12.73,12.73,0,0,0-11.831,8.166,11,11,0,0,0-3.34,1.329H14.243V41.145h6.33A4.754,4.754,0,0,0,25.32,36.4V4.748A4.754,4.754,0,0,0,20.573,0H4.748A4.754,4.754,0,0,0,0,4.748V36.4a4.754,4.754,0,0,0,4.748,4.748h6.33v7.913h11.53a11.016,11.016,0,0,0-1.538,3.165H14.243V69.63H7.913a4.754,4.754,0,0,0-4.748,4.748V88.62H0v4.748a4.754,4.754,0,0,0,4.748,4.748h25.32a4.754,4.754,0,0,0,4.748-4.748V88.62H31.65V74.378A4.754,4.754,0,0,0,26.9,69.63h-9.5V55.388h3.165A11.092,11.092,0,0,0,31.65,66.465H66.465a11.086,11.086,0,0,0,10.951-9.5h6.457V69.63H72.8V98.115h25.32V69.63H87.038V53.805H77.41a10.953,10.953,0,0,0-.984-3.165h7.447V31.65h7.913V28.485H88.62V25.32Zm-71.213,0H3.165V9.5h18.99ZM4.748,3.165H20.573a1.584,1.584,0,0,1,1.583,1.583V6.33H3.165V4.748A1.584,1.584,0,0,1,4.748,3.165ZM3.165,36.4V28.485h18.99V36.4a1.584,1.584,0,0,1-1.583,1.583H4.748A1.584,1.584,0,0,1,3.165,36.4ZM31.65,93.368a1.584,1.584,0,0,1-1.583,1.583H4.748a1.584,1.584,0,0,1-1.583-1.583V91.785H31.65Zm-3.165-18.99V88.62H6.33V74.378A1.584,1.584,0,0,1,7.913,72.8H26.9A1.584,1.584,0,0,1,28.485,74.378ZM75.96,94.95v-9.5H94.95v9.5ZM94.95,82.29H75.96V72.8H94.95ZM66.465,63.3H31.65a7.909,7.909,0,0,1-.95-15.762l1.039-.125.293-1a9.468,9.468,0,0,1,14.079-5.43l1.511.932.753-1.61A9.473,9.473,0,0,1,66.34,45.774L66.1,47.339l1.565.237a7.907,7.907,0,0,1-1.2,15.724ZM71.213,3.165H93.368A1.584,1.584,0,0,1,94.95,4.748V15.825H69.63V4.748A1.584,1.584,0,0,1,71.213,3.165ZM69.63,20.573V18.99H94.95v1.583a1.584,1.584,0,0,1-1.583,1.583H71.213A1.584,1.584,0,0,1,69.63,20.573Zm15.825,7.913h-6.33V25.32h6.33Zm0,0" transform="translate(0 0)" fill="#484848"/>
  <path id="Path_68121" data-name="Path 68121" d="M400,384h3.165v3.165H400Zm0,0" transform="translate(-320.875 -308.04)" fill="#484848"/>
  <path id="Path_68122" data-name="Path 68122" d="M448,448h3.165v3.165H448Zm0,0" transform="translate(-359.38 -359.38)" fill="#484848"/>
  <path id="Path_68123" data-name="Path 68123" d="M432,384h6.33v3.165H432Zm0,0" transform="translate(-346.545 -308.04)" fill="#484848"/>
  <path id="Path_68124" data-name="Path 68124" d="M400,448h6.33v3.165H400Zm0,0" transform="translate(-320.875 -359.38)" fill="#484848"/>
</svg>
