<svg xmlns="http://www.w3.org/2000/svg" width="78" height="77.996" viewBox="0 0 78 77.996">
  <g id="customer" transform="translate(0 -0.013)">
    <g id="Group_7283" data-name="Group 7283" transform="translate(0 35.958)">
      <g id="Group_7282" data-name="Group 7282" transform="translate(0)">
        <path id="Path_68125" data-name="Path 68125" d="M75.56,238.493a6.852,6.852,0,0,0-9.436.57l-6.716,7.21a6.868,6.868,0,0,0-6.547-4.823H40.875c-.909,0-1.214-.347-2.794-1.564a16.029,16.029,0,0,0-21.076.05L12.6,243.814a6.827,6.827,0,0,0-6.284-.079L1.264,246.26a2.287,2.287,0,0,0-1.022,3.067l13.71,27.42a2.287,2.287,0,0,0,3.067,1.022l5.053-2.527a6.85,6.85,0,0,0,3.787-6.372h27a16.071,16.071,0,0,0,12.8-6.4l10.97-14.627A6.836,6.836,0,0,0,75.56,238.493ZM20.026,271.155l-3.009,1.505L5.351,249.327l3.01-1.505a2.284,2.284,0,0,1,3.065,1.022l9.623,19.246A2.285,2.285,0,0,1,20.026,271.155ZM72.97,245.1,62,259.73a11.478,11.478,0,0,1-9.14,4.57h-28.6L15.7,247.173l4.325-3.807a11.453,11.453,0,0,1,15.1,0c2.535,2.232,4.111,2.654,5.754,2.654H52.861a2.285,2.285,0,0,1,0,4.57H41.19a2.285,2.285,0,0,0,0,4.57h13.2a6.874,6.874,0,0,0,5.016-2.183l10.06-10.8a2.285,2.285,0,0,1,3.5,2.925Z" transform="translate(0 -235.959)" fill="#484848"/>
      </g>
    </g>
    <g id="Group_7285" data-name="Group 7285" transform="translate(27.573 0.013)">
      <g id="Group_7284" data-name="Group 7284" transform="translate(0 0)">
        <path id="Path_68126" data-name="Path 68126" d="M201.468,15.606A9.1,9.1,0,0,0,204,9.305a9.265,9.265,0,0,0-9.14-9.292,9.416,9.416,0,0,0-9.292,9.292,8.97,8.97,0,0,0,2.613,6.319,13.94,13.94,0,0,0-7.183,12.114v2.285a2.286,2.286,0,0,0,2.285,2.285h23a2.286,2.286,0,0,0,2.285-2.285V27.738A13.929,13.929,0,0,0,201.468,15.606ZM194.856,4.583a4.711,4.711,0,0,1,4.57,4.722,4.576,4.576,0,0,1-4.57,4.57,4.711,4.711,0,0,1-4.722-4.57A4.847,4.847,0,0,1,194.856,4.583Zm-9.292,23.155a9.416,9.416,0,0,1,9.292-9.292A9.227,9.227,0,0,1,204,27.738Z" transform="translate(-180.994 -0.013)" fill="#484848"/>
      </g>
    </g>
  </g>
</svg>
