<svg xmlns="http://www.w3.org/2000/svg" width="95.493" height="86.727" viewBox="0 0 95.493 86.727">
  <g id="data-management" transform="translate(0 -23.501)">
    <g id="Group_7281" data-name="Group 7281" transform="translate(0 23.501)">
      <path id="Path_68116" data-name="Path 68116" d="M93.348,98.1H88.681a5.094,5.094,0,0,0,.564-2.333V57.817a1.4,1.4,0,0,0-2.8,0V95.771A2.334,2.334,0,0,1,84.116,98.1l-72.737,0a2.334,2.334,0,0,1-2.331-2.331l0-48.49a2.334,2.334,0,0,1,2.331-2.331l37.117,0a3.2,3.2,0,0,0-.175,2.8H13.242a1.4,1.4,0,0,0-1.4,1.4V78.689a1.4,1.4,0,1,0,2.8,0V50.546H37.613c-.191.762-.4,1.695-.506,2.414a.4.4,0,0,1-.2.289L34.568,54.6a.405.405,0,0,1-.352.029c-.794-.32-1.93-.656-2.743-.882a3.212,3.212,0,0,0-3.638,1.484l-1.264,2.184a3.205,3.205,0,0,0,.534,3.9c.6.588,1.458,1.4,2.133,1.925a.4.4,0,0,1,.149.315v2.691a.4.4,0,0,1-.149.316A28.663,28.663,0,0,0,27.1,68.482a3.205,3.205,0,0,0-.534,3.9l1.264,2.184a3.211,3.211,0,0,0,3.638,1.484c.813-.225,1.948-.561,2.743-.882a.406.406,0,0,1,.352.029l2.339,1.347a.4.4,0,0,1,.2.289,28.6,28.6,0,0,0,.6,2.8,3.212,3.212,0,0,0,3.109,2.409h2.532a3.211,3.211,0,0,0,3.109-2.409,28.568,28.568,0,0,0,.6-2.8.4.4,0,0,1,.2-.289l2.34-1.347a.405.405,0,0,1,.352-.029c.794.32,1.93.656,2.743.882a3.213,3.213,0,0,0,3.638-1.484L57.6,72.38a3.205,3.205,0,0,0-.534-3.9,28.654,28.654,0,0,0-2.133-1.925.4.4,0,0,1-.15-.316V63.55a.4.4,0,0,1,.149-.316,28.66,28.66,0,0,0,2.133-1.925,3.205,3.205,0,0,0,.534-3.9l-1.264-2.184A3.211,3.211,0,0,0,52.7,53.742c-.813.225-1.948.561-2.743.882A.408.408,0,0,1,49.6,54.6l-2.34-1.348a.4.4,0,0,1-.2-.289c-.1-.719-.315-1.652-.506-2.414h3.355A3.211,3.211,0,0,0,53.409,51.8c.813-.225,1.949-.562,2.743-.882a.407.407,0,0,1,.352.029L58.843,52.3a.4.4,0,0,1,.2.289,28.648,28.648,0,0,0,.6,2.8A3.212,3.212,0,0,0,62.756,57.8h2.532A3.211,3.211,0,0,0,68.4,55.389a28.513,28.513,0,0,0,.6-2.8.4.4,0,0,1,.2-.289L71.54,50.95a.406.406,0,0,1,.352-.029c.794.32,1.93.656,2.743.882a3.213,3.213,0,0,0,3.494-1.258h2.72l0,41.963-66.208,0V84.727a1.4,1.4,0,1,0-2.8,0v9.181a1.4,1.4,0,0,0,1.4,1.4l69.006,0a1.4,1.4,0,0,0,1.4-1.4l0-44.76a1.4,1.4,0,0,0-1.4-1.4H79.725a3.2,3.2,0,0,0-.175-2.8h4.563a2.334,2.334,0,0,1,2.331,2.331v4.6a1.4,1.4,0,0,0,2.8,0v-4.6a5.135,5.135,0,0,0-5.129-5.129h-7.36a.413.413,0,0,1-.033-.157V39.3a.4.4,0,0,1,.15-.316c.675-.526,1.533-1.337,2.133-1.925a3.205,3.205,0,0,0,.534-3.9l-1.264-2.184A3.211,3.211,0,0,0,74.635,29.5c-.814.226-1.95.562-2.743.882a.408.408,0,0,1-.352-.029L69.2,29a.4.4,0,0,1-.2-.289,28.634,28.634,0,0,0-.6-2.8A3.212,3.212,0,0,0,65.288,23.5H62.756a3.211,3.211,0,0,0-3.109,2.409,28.56,28.56,0,0,0-.6,2.8.4.4,0,0,1-.2.289L56.5,30.349a.406.406,0,0,1-.352.029c-.792-.32-1.929-.656-2.743-.882a3.212,3.212,0,0,0-3.638,1.484l-1.264,2.184a3.205,3.205,0,0,0,.534,3.9c.6.588,1.457,1.4,2.133,1.925a.4.4,0,0,1,.149.315v2.691a.413.413,0,0,1-.033.157l-39.913,0a5.135,5.135,0,0,0-5.129,5.129l0,48.49A5.1,5.1,0,0,0,6.813,98.1H2.145A2.147,2.147,0,0,0,0,100.249v3.73a6.255,6.255,0,0,0,6.248,6.248H71.594a1.4,1.4,0,1,0,0-2.8H6.248a3.454,3.454,0,0,1-3.45-3.45V100.9h34.97v.839a3.641,3.641,0,0,0,3.637,3.637H54.088a3.641,3.641,0,0,0,3.637-3.637V100.9H92.7v3.077a3.454,3.454,0,0,1-3.45,3.45H77.632a1.4,1.4,0,0,0,0,2.8H89.245a6.255,6.255,0,0,0,6.248-6.248v-3.73A2.147,2.147,0,0,0,93.348,98.1Zm-49.6-47.248A25.3,25.3,0,0,1,44.3,53.35a3.178,3.178,0,0,0,1.574,2.322l2.34,1.348a3.182,3.182,0,0,0,2.794.2,25.6,25.6,0,0,1,2.444-.781.413.413,0,0,1,.469.19l1.264,2.184a.409.409,0,0,1-.07.5,25.35,25.35,0,0,1-1.9,1.717,3.175,3.175,0,0,0-1.228,2.523v2.691a3.175,3.175,0,0,0,1.228,2.523,25.367,25.367,0,0,1,1.9,1.718.409.409,0,0,1,.07.5l-1.264,2.184a.415.415,0,0,1-.469.19A25.566,25.566,0,0,1,51,72.572a3.181,3.181,0,0,0-2.795.2l-2.339,1.347a3.179,3.179,0,0,0-1.574,2.322h0a25.279,25.279,0,0,1-.543,2.493.414.414,0,0,1-.4.312H40.82a.415.415,0,0,1-.4-.312,25.3,25.3,0,0,1-.543-2.493A3.179,3.179,0,0,0,38.3,74.119l-2.339-1.347a3.18,3.18,0,0,0-2.794-.2,25.6,25.6,0,0,1-2.444.781.413.413,0,0,1-.469-.19l-1.264-2.184a.409.409,0,0,1,.07-.5,25.414,25.414,0,0,1,1.9-1.718,3.175,3.175,0,0,0,1.227-2.522V63.55a3.174,3.174,0,0,0-1.228-2.522,25.366,25.366,0,0,1-1.9-1.718.409.409,0,0,1-.07-.5l1.264-2.184a.415.415,0,0,1,.469-.19,25.568,25.568,0,0,1,2.444.781,3.182,3.182,0,0,0,2.795-.2L38.3,55.672a3.178,3.178,0,0,0,1.574-2.323,25.28,25.28,0,0,1,.543-2.493.414.414,0,0,1,.394-.311h2.542a.414.414,0,0,1,.4.311ZM51,35.064a.409.409,0,0,1-.07-.5l1.264-2.184a.415.415,0,0,1,.469-.19,25.483,25.483,0,0,1,2.444.781,3.181,3.181,0,0,0,2.795-.2l2.339-1.347A3.178,3.178,0,0,0,61.814,29.1a25.233,25.233,0,0,1,.543-2.493.414.414,0,0,1,.4-.312h2.532a.415.415,0,0,1,.4.312,25.252,25.252,0,0,1,.543,2.493,3.178,3.178,0,0,0,1.574,2.322l2.34,1.348a3.18,3.18,0,0,0,2.794.2,25.57,25.57,0,0,1,2.444-.78.413.413,0,0,1,.469.19l1.264,2.184a.409.409,0,0,1-.07.5,25.391,25.391,0,0,1-1.895,1.717A3.174,3.174,0,0,0,73.924,39.3v2.691a3.175,3.175,0,0,0,1.228,2.523,25.334,25.334,0,0,1,1.9,1.718.409.409,0,0,1,.07.5l-1.264,2.184a.415.415,0,0,1-.469.19,25.566,25.566,0,0,1-2.444-.781,3.181,3.181,0,0,0-2.795.2l-2.339,1.347a3.179,3.179,0,0,0-1.574,2.322h0a25.279,25.279,0,0,1-.543,2.493.414.414,0,0,1-.4.312H62.756a.415.415,0,0,1-.4-.312,25.3,25.3,0,0,1-.543-2.493,3.179,3.179,0,0,0-1.574-2.322L57.9,48.525a3.18,3.18,0,0,0-2.794-.2,25.564,25.564,0,0,1-2.444.781.413.413,0,0,1-.469-.19l-.248-.428c-.008-.015-.017-.029-.025-.043l-.992-1.713a.409.409,0,0,1,.07-.5,25.442,25.442,0,0,1,1.9-1.718,3.175,3.175,0,0,0,1.227-2.522V39.3a3.174,3.174,0,0,0-1.227-2.522A25.351,25.351,0,0,1,51,35.064Zm3.929,66.678a.84.84,0,0,1-.839.839H41.405a.84.84,0,0,1-.839-.839V100.9H54.927Z" transform="translate(0 -23.501)"/>
      <path id="Path_68117" data-name="Path 68117" d="M309.976,89.838a7.617,7.617,0,1,0-7.633-7.617A7.634,7.634,0,0,0,309.976,89.838ZM307.8,86.52h4.359a4.832,4.832,0,0,1-4.359,0Zm2.18-9.12a4.833,4.833,0,0,1,4.835,4.82,4.781,4.781,0,0,1-.242,1.5h-9.186a4.815,4.815,0,0,1,4.593-6.322Z" transform="translate(-245.953 -65.072)"/>
      <path id="Path_68118" data-name="Path 68118" d="M184.73,212.22a7.633,7.633,0,1,0,7.633-7.617A7.634,7.634,0,0,0,184.73,212.22Zm12.468,0a4.835,4.835,0,1,1-4.835-4.82A4.833,4.833,0,0,1,197.2,212.22Z" transform="translate(-150.276 -170.826)"/>
    </g>
  </g>
</svg>
