<svg id="Group_6248" data-name="Group 6248" xmlns="http://www.w3.org/2000/svg" xmlns:xlink="http://www.w3.org/1999/xlink" width="88.037" height="86.74" viewBox="0 0 88.037 86.74">
  <defs>
    <clipPath id="clip-path">
      <rect id="Rectangle_5260" data-name="Rectangle 5260" width="88.037" height="86.74" fill="#484848"/>
    </clipPath>
  </defs>
  <g id="Group_6242" data-name="Group 6242" clip-path="url(#clip-path)">
    <path id="Path_67161" data-name="Path 67161" d="M163.285,237.328h4.608a1.29,1.29,0,0,0,1.29-1.29v-4.608a1.29,1.29,0,0,0-1.29-1.29h-4.608a1.29,1.29,0,0,0-1.29,1.29v4.608a1.29,1.29,0,0,0,1.29,1.29m1.29-4.608H166.6v2.028h-2.028Z" transform="translate(-134.14 -190.569)" fill="#484848"/>
    <path id="Path_67162" data-name="Path 67162" d="M310.812,237.328h4.608a1.29,1.29,0,0,0,1.29-1.29v-4.608a1.29,1.29,0,0,0-1.29-1.29h-4.608a1.29,1.29,0,0,0-1.29,1.29v4.608a1.29,1.29,0,0,0,1.29,1.29m1.29-4.608h2.028v2.028H312.1Z" transform="translate(-256.3 -190.569)" fill="#484848"/>
    <path id="Path_67163" data-name="Path 67163" d="M237.049,237.328h4.608a1.29,1.29,0,0,0,1.29-1.29v-4.608a1.29,1.29,0,0,0-1.29-1.29h-4.608a1.29,1.29,0,0,0-1.29,1.29v4.608a1.29,1.29,0,0,0,1.29,1.29m1.29-4.608h2.028v2.028h-2.028Z" transform="translate(-195.221 -190.569)" fill="#484848"/>
    <path id="Path_67164" data-name="Path 67164" d="M163.285,170.229h4.608a1.29,1.29,0,0,0,1.29-1.29v-4.608a1.29,1.29,0,0,0-1.29-1.29h-4.608a1.29,1.29,0,0,0-1.29,1.29v4.608a1.29,1.29,0,0,0,1.29,1.29m1.29-4.608H166.6v2.028h-2.028Z" transform="translate(-134.14 -135.007)" fill="#484848"/>
    <path id="Path_67165" data-name="Path 67165" d="M310.812,170.229h4.608a1.29,1.29,0,0,0,1.29-1.29v-4.608a1.29,1.29,0,0,0-1.29-1.29h-4.608a1.29,1.29,0,0,0-1.29,1.29v4.608a1.29,1.29,0,0,0,1.29,1.29m1.29-4.608h2.028v2.028H312.1Z" transform="translate(-256.3 -135.007)" fill="#484848"/>
    <path id="Path_67166" data-name="Path 67166" d="M237.049,170.229h4.608a1.29,1.29,0,0,0,1.29-1.29v-4.608a1.29,1.29,0,0,0-1.29-1.29h-4.608a1.29,1.29,0,0,0-1.29,1.29v4.608a1.29,1.29,0,0,0,1.29,1.29m1.29-4.608h2.028v2.028h-2.028Z" transform="translate(-195.221 -135.007)" fill="#484848"/>
    <path id="Path_67167" data-name="Path 67167" d="M86.748,79.553H85.2V47.577a1.29,1.29,0,0,0-1.29-1.29H81.09v-13.6a1.29,1.29,0,0,0-1.29-1.29H73.643V26.555a1.29,1.29,0,1,0-2.579,0v4.838H66.2V22.251a1.29,1.29,0,0,0-1.29-1.29H60.382V15.183a1.29,1.29,0,0,0-1.29-1.29H55.615V8.116a1.29,1.29,0,0,0-1.29-1.29H45.394V1.29a1.29,1.29,0,1,0-2.579,0V6.826H33.884a1.29,1.29,0,0,0-1.29,1.29v5.778H29.118a1.29,1.29,0,0,0-1.29,1.29v5.778H23.3a1.29,1.29,0,0,0-1.29,1.29V37.362H19.951V19.752a1.29,1.29,0,1,0-2.579,0v5.462a14.016,14.016,0,0,0-4.348,2.011A12.828,12.828,0,0,0,7.617,37.362H4.3a1.29,1.29,0,0,0-1.29,1.29v31.5a1.29,1.29,0,1,0,2.579,0V39.942H22.013v35H4.3a1.29,1.29,0,0,0-1.29,1.29v3.318H1.29a1.29,1.29,0,0,0,0,2.579H22.013v3.318a1.29,1.29,0,0,0,1.29,1.29h41.6a1.29,1.29,0,0,0,1.29-1.29V82.133H86.748a1.29,1.29,0,0,0,0-2.579M10.2,37.362a10.225,10.225,0,0,1,7.17-9.467v9.467Zm68.309,8.925H66.2V33.972H78.511ZM35.174,9.405H53.036v4.488H35.174ZM24.593,23.541h9.146a1.29,1.29,0,0,0,0-2.579H30.407V16.473H57.8v4.489H39.888a1.29,1.29,0,1,0,0,2.579H63.617V47.577a1.29,1.29,0,0,0,1.29,1.29H82.622V74.946H66.2V53.694a1.29,1.29,0,0,0-2.579,0v25.86H60.409V76.235a1.29,1.29,0,0,0-1.29-1.29h-3.5v-22.4a1.29,1.29,0,0,0-1.29-1.29H33.938a1.29,1.29,0,0,0-1.29,1.29v22.4h-3.5a1.29,1.29,0,0,0-1.29,1.29v3.318H24.593Zm28.443,51.4H45.421V53.831h7.615Zm-10.194,0H35.227V53.831h7.615Zm14.987,4.608h-27.4V77.525h27.4ZM5.588,77.525H22.013v2.028H5.588Zm58.029,6.636H24.593V82.133H63.617v2.028ZM66.2,77.525H82.622v2.028H66.2Z" fill="#484848"/>
    <path id="Path_67168" data-name="Path 67168" d="M59.355,259.517H64.33a1.29,1.29,0,0,0,0-2.579H59.355a1.29,1.29,0,0,0,0,2.579" transform="translate(-48.081 -212.758)" fill="#484848"/>
    <path id="Path_67169" data-name="Path 67169" d="M59.355,294.861H64.33a1.29,1.29,0,0,0,0-2.579H59.355a1.29,1.29,0,0,0,0,2.579" transform="translate(-48.081 -242.025)" fill="#484848"/>
    <path id="Path_67170" data-name="Path 67170" d="M59.355,330.205H64.33a1.29,1.29,0,1,0,0-2.579H59.355a1.29,1.29,0,1,0,0,2.579" transform="translate(-48.081 -271.291)" fill="#484848"/>
    <path id="Path_67171" data-name="Path 67171" d="M59.355,365.55H64.33a1.29,1.29,0,1,0,0-2.579H59.355a1.29,1.29,0,0,0,0,2.579" transform="translate(-48.081 -300.559)" fill="#484848"/>
    <path id="Path_67172" data-name="Path 67172" d="M59.355,400.894H64.33a1.29,1.29,0,1,0,0-2.579H59.355a1.29,1.29,0,0,0,0,2.579" transform="translate(-48.081 -329.826)" fill="#484848"/>
    <path id="Path_67173" data-name="Path 67173" d="M410.729,320.185H415.7a1.29,1.29,0,0,0,0-2.579h-4.976a1.29,1.29,0,0,0,0,2.579" transform="translate(-339.037 -262.994)" fill="#484848"/>
    <path id="Path_67174" data-name="Path 67174" d="M410.729,355.53H415.7a1.29,1.29,0,1,0,0-2.579h-4.976a1.29,1.29,0,1,0,0,2.579" transform="translate(-339.037 -292.262)" fill="#484848"/>
    <path id="Path_67175" data-name="Path 67175" d="M410.729,390.874H415.7a1.29,1.29,0,1,0,0-2.579h-4.976a1.29,1.29,0,0,0,0,2.579" transform="translate(-339.037 -321.528)" fill="#484848"/>
    <path id="Path_67176" data-name="Path 67176" d="M414.6,224.513a1.286,1.286,0,1,0-1.286-1.286,1.286,1.286,0,0,0,1.286,1.286" transform="translate(-342.242 -183.779)" fill="#484848"/>
  </g>
</svg>
