<svg id="Group_6246" data-name="Group 6246" xmlns="http://www.w3.org/2000/svg" xmlns:xlink="http://www.w3.org/1999/xlink" width="66.811" height="85.564" viewBox="0 0 66.811 85.564">
  <defs>
    <clipPath id="clip-path">
      <rect id="Rectangle_5251" data-name="Rectangle 5251" width="66.811" height="85.564" fill="#484848"/>
    </clipPath>
  </defs>
  <rect id="Rectangle_5248" data-name="Rectangle 5248" width="2.679" height="2.512" transform="translate(26.707 58.941)" fill="#484848"/>
  <rect id="Rectangle_5249" data-name="Rectangle 5249" width="2.679" height="2.512" transform="translate(32.066 58.941)" fill="#484848"/>
  <rect id="Rectangle_5250" data-name="Rectangle 5250" width="2.679" height="2.512" transform="translate(37.424 58.941)" fill="#484848"/>
  <g id="Group_6237" data-name="Group 6237">
    <g id="Group_6236" data-name="Group 6236" clip-path="url(#clip-path)">
      <path id="Path_67158" data-name="Path 67158" d="M63.012,36.674A33.69,33.69,0,0,0,52.892,25.025l-1.467,2.039A31.214,31.214,0,0,1,58.98,34.83H50.55a36.7,36.7,0,0,0-2.9-6.2,24.755,24.755,0,0,0,3.081-11.3,17.33,17.33,0,0,0-34.661,0,24.752,24.752,0,0,0,3.082,11.3,36.693,36.693,0,0,0-2.9,6.2H7.83a31.214,31.214,0,0,1,7.555-7.766l-1.467-2.039A33.4,33.4,0,1,0,63.012,36.674m-30.862,46.3c-4.08-.52-7.919-3.568-10.92-8.713a33.781,33.781,0,0,1-2.284-4.77h13.2Zm2.512,0V69.49h13.2a33.754,33.754,0,0,1-2.284,4.77c-3,5.145-6.84,8.193-10.92,8.713m0-15.995V64.216H32.149v2.763H18.066a49.334,49.334,0,0,1-2.143-13.563H32.149v2.763h2.512V53.416H50.888a49.328,49.328,0,0,1-2.143,13.563ZM2.539,53.416H13.411a52.328,52.328,0,0,0,2.032,13.563H6.3A30.676,30.676,0,0,1,2.539,53.416m22.5-16.075A66.835,66.835,0,0,0,32.149,44.7V50.9H15.924a49.827,49.827,0,0,1,2.159-13.563Zm16.722,0h6.961A49.82,49.82,0,0,1,50.887,50.9H34.661V44.7a66.823,66.823,0,0,0,7.105-7.358M53.4,53.416H64.271a30.68,30.68,0,0,1-3.765,13.563H51.368A52.343,52.343,0,0,0,53.4,53.416m7.116-16.075c.091.166.183.331.271.5A30.947,30.947,0,0,1,64.27,50.9H53.4a52.244,52.244,0,0,0-2.027-13.563ZM47.854,34.829H43.737q1.367-1.842,2.47-3.639a34.619,34.619,0,0,1,1.647,3.639M33.405,2.513A14.836,14.836,0,0,1,48.224,17.331C48.224,28.293,36.6,39.56,33.4,42.45c-3.2-2.888-14.818-14.144-14.818-25.119A14.836,14.836,0,0,1,33.405,2.513M20.6,31.19q1.1,1.8,2.469,3.639H18.957A34.62,34.62,0,0,1,20.6,31.19M6.024,37.84c.088-.167.18-.333.271-.5h9.143A52.244,52.244,0,0,0,13.411,50.9H2.54A30.94,30.94,0,0,1,6.024,37.84M7.843,69.49h8.423a36.874,36.874,0,0,0,2.793,6.035,25.272,25.272,0,0,0,4.723,5.991A31.034,31.034,0,0,1,7.843,69.49M43.028,81.517a25.272,25.272,0,0,0,4.723-5.991,36.916,36.916,0,0,0,2.794-6.035h8.423A31.034,31.034,0,0,1,43.028,81.517" transform="translate(0 -0.001)" fill="#484848"/>
      <path id="Path_67159" data-name="Path 67159" d="M152.2,44.034a11.972,11.972,0,1,0-11.972,11.972A11.986,11.986,0,0,0,152.2,44.034m-11.972-9.461a9.458,9.458,0,0,1,7.85,4.186h-15.7a9.459,9.459,0,0,1,7.85-4.186m-9.048,6.7h18.1a9.456,9.456,0,0,1,0,5.526h-18.1a9.456,9.456,0,0,1,0-5.526m1.2,8.037h15.7a9.453,9.453,0,0,1-15.7,0" transform="translate(-106.818 -26.704)" fill="#484848"/>
    </g>
  </g>
</svg>
