<svg xmlns="http://www.w3.org/2000/svg" width="113.137" height="70.709" viewBox="0 0 113.137 70.709">
  <g id="hand-shake" transform="translate(0 -96.003)">
    <g id="Group_7266" data-name="Group 7266" transform="translate(16.494 101.01)">
      <g id="Group_7265" data-name="Group 7265" transform="translate(0 0)">
        <path id="Path_68075" data-name="Path 68075" d="M147.48,162.135c-2.22-4.629-10.164-11.055-17.838-17.263-4.28-3.46-8.325-6.732-10.9-9.31a2.356,2.356,0,0,0-2.465-.552c-1.589.575-2.569,1.018-3.342,1.362a7.8,7.8,0,0,1-3.163.867,2.356,2.356,0,0,0-1.725,1.032c-3.333,4.983-6.784,4.558-9.089,3.785-.735-.245-.867-.561-.938-.863-.495-2.069,1.989-6.887,5.209-10.107,7.66-7.665,11.611-9.584,19.955-5.855,9.466,4.233,18.95,7.547,19.045,7.58a2.358,2.358,0,1,0,1.551-4.455c-.094-.033-9.39-3.281-18.668-7.434-10.809-4.832-16.74-1.65-25.211,6.826-3.224,3.224-7.6,9.749-6.472,14.533a5.83,5.83,0,0,0,4.049,4.247c5.341,1.763,10.215.075,13.845-4.742a11.9,11.9,0,0,0,3.54-1.122c.443-.2.962-.429,1.65-.707,2.7,2.531,6.336,5.478,10.168,8.575,6.93,5.6,14.788,11.96,16.556,15.637a2.762,2.762,0,0,1-.7,3.54,2.6,2.6,0,0,1-2.9.57,2.356,2.356,0,0,0-3.682,2.192,2.848,2.848,0,0,1-1.806,2.654c-1.509.764-3.083.632-3.672.085a2.356,2.356,0,0,0-3.955,1.5,4.479,4.479,0,0,1-2.781,3.611,2.485,2.485,0,0,1-2.706-.42,2.385,2.385,0,0,0-2.154-.547,2.354,2.354,0,0,0-1.655,1.485c-.089.236-.292.8-2.5.8a13.573,13.573,0,0,1-5.775-1.975c-1.655-1.089-12.03-8.829-20.992-16.334-1.259-1.061-3.437-3.333-5.36-5.341-1.707-1.782-3.267-3.4-4.068-4.078a2.358,2.358,0,0,0-3.045,3.6c.731.618,2.145,2.112,3.705,3.738,2.1,2.2,4.276,4.469,5.737,5.695,8.778,7.349,19.328,15.283,21.43,16.664a18.083,18.083,0,0,0,8.368,2.744,8.112,8.112,0,0,0,5.35-1.574,7.337,7.337,0,0,0,5.36-.057,9.285,9.285,0,0,0,4.907-4.53,9.115,9.115,0,0,0,5.916-.853,8,8,0,0,0,3.936-4.111,7.709,7.709,0,0,0,5.407-1.937A7.494,7.494,0,0,0,147.48,162.135Z" transform="translate(-74.642 -118.658)" fill="#484848"/>
      </g>
    </g>
    <g id="Group_7268" data-name="Group 7268" transform="translate(23.57 105.43)">
      <g id="Group_7267" data-name="Group 7267" transform="translate(0 0)">
        <path id="Path_68076" data-name="Path 68076" d="M130.236,138.663H109.023a2.357,2.357,0,1,0,0,4.714h21.213a2.357,2.357,0,0,0,0-4.714Z" transform="translate(-106.666 -138.663)" fill="#484848"/>
      </g>
    </g>
    <g id="Group_7270" data-name="Group 7270" transform="translate(85.032 138.424)">
      <g id="Group_7269" data-name="Group 7269" transform="translate(0 0)">
        <path id="Path_68077" data-name="Path 68077" d="M396.016,289.023a2.351,2.351,0,0,0-3.271-.641l-6.892,4.629a2.357,2.357,0,0,0,2.631,3.913l6.892-4.629A2.359,2.359,0,0,0,396.016,289.023Z" transform="translate(-384.811 -287.977)" fill="#484848"/>
      </g>
    </g>
    <g id="Group_7272" data-name="Group 7272" transform="translate(63.643 136.069)">
      <g id="Group_7271" data-name="Group 7271">
        <path id="Path_68078" data-name="Path 68078" d="M305.977,291.967c-1.688-1.329-9.235-9.056-13.9-13.921a2.357,2.357,0,1,0-3.4,3.262c1.212,1.263,11.9,12.4,14.383,14.364a2.347,2.347,0,0,0,1.457.5,2.382,2.382,0,0,0,1.857-.9A2.355,2.355,0,0,0,305.977,291.967Z" transform="translate(-288.016 -277.317)" fill="#484848"/>
      </g>
    </g>
    <g id="Group_7274" data-name="Group 7274" transform="translate(56.57 143.144)">
      <g id="Group_7273" data-name="Group 7273">
        <path id="Path_68079" data-name="Path 68079" d="M271.622,321.639c-2.824-2.258-9.918-9.8-11.521-11.54a2.359,2.359,0,0,0-3.474,3.191c.085.09,8.551,9.23,12.049,12.03a2.358,2.358,0,0,0,2.946-3.682Z" transform="translate(-256.005 -309.337)" fill="#484848"/>
      </g>
    </g>
    <g id="Group_7276" data-name="Group 7276" transform="translate(47.143 147.852)">
      <g id="Group_7275" data-name="Group 7275">
        <path id="Path_68080" data-name="Path 68080" d="M229.006,342.985c-3.361-2.833-10.239-10.154-11.582-11.592a2.358,2.358,0,0,0-3.446,3.22c1.933,2.069,8.514,9.046,11.988,11.978a2.359,2.359,0,0,0,3.041-3.606Z" transform="translate(-213.343 -330.644)" fill="#484848"/>
      </g>
    </g>
    <g id="Group_7278" data-name="Group 7278" transform="translate(0 96.003)">
      <g id="Group_7277" data-name="Group 7277">
        <path id="Path_68081" data-name="Path 68081" d="M27.549,101.362c-4.04-3.828-20.195-5.068-25.05-5.355A2.355,2.355,0,0,0,0,98.359v42.426a2.358,2.358,0,0,0,2.357,2.357H16.5a2.355,2.355,0,0,0,2.239-1.626c.344-1.056,8.467-25.984,9.536-38.24A2.345,2.345,0,0,0,27.549,101.362Zm-12.77,37.067H4.714V100.886c7.576.6,15.75,1.9,18.72,3.342C22.184,114.552,16.532,132.894,14.779,138.429Z" transform="translate(0 -96.003)" fill="#484848"/>
      </g>
    </g>
    <g id="Group_7280" data-name="Group 7280" transform="translate(80.223 100.716)">
      <g id="Group_7279" data-name="Group 7279" transform="translate(0 0)">
        <path id="Path_68082" data-name="Path 68082" d="M393.6,117.33c-18.507,0-28.775,4.738-29.2,4.936a2.345,2.345,0,0,0-1.259,1.466,2.377,2.377,0,0,0,.259,1.914c2.913,4.691,12.035,30.74,13.789,37.095a2.357,2.357,0,0,0,2.272,1.73H393.6a2.358,2.358,0,0,0,2.357-2.357V119.687A2.355,2.355,0,0,0,393.6,117.33Zm-2.357,42.426H381.225c-2.234-7.279-8.834-26.257-12.516-34.1a76.77,76.77,0,0,1,22.538-3.583Z" transform="translate(-363.046 -117.33)" fill="#484848"/>
      </g>
    </g>
  </g>
</svg>
