<svg xmlns="http://www.w3.org/2000/svg" width="38.313" height="19.422" viewBox="0 0 38.313 19.422">
  <g id="Group_2272" data-name="Group 2272" transform="translate(0 -0.001)">
    <path id="Path_1689" data-name="Path 1689" d="M80.623,104.666l.043-.01.036-.009.041-.014.036-.013.037-.017.036-.018.035-.02.035-.021.036-.026.03-.022c.018-.015.035-.03.052-.047l.009-.008.009-.01c.016-.016.031-.033.046-.051s.016-.021.024-.032.017-.022.024-.033.015-.025.023-.038.013-.021.019-.032.013-.026.019-.039.011-.023.016-.035.01-.026.014-.039.009-.025.013-.038.007-.026.01-.04.007-.026.01-.039,0-.031.007-.047,0-.022,0-.033a.827.827,0,0,0,0-.083V86.091a.831.831,0,0,0-.831-.831H54.266l-.047,0-.037,0-.042.006-.039.008-.039.01-.038.012-.039.014-.036.015-.039.019-.032.018-.038.023-.03.02-.035.026-.031.026-.029.027-.032.033-.016.016-.008.01-.03.037-.021.028-.025.038-.019.032c-.007.012-.013.025-.019.038s-.012.023-.017.035-.01.025-.015.038-.01.025-.014.038-.007.026-.011.039-.007.026-.01.04,0,.025-.007.038,0,.029-.007.043,0,.024,0,.036,0,.031,0,.047,0,.009,0,.014v5.124a.831.831,0,0,0,1.662,0V87.936l7.387,6.54a.841.841,0,0,0-.11.092l-7.277,7.277v-5.46a.831.831,0,0,0-1.662,0V97.4H49.164a.831.831,0,1,0,0,1.662h4.293v4.789a.831.831,0,0,0,.831.831H80.46c.027,0,.055,0,.082,0l.038-.005Zm-.993-2.821-7.277-7.277-.014-.013,5.471-4.642a.831.831,0,0,0-1.075-1.267l-9.348,7.931L56.48,86.922H79.63v14.923Zm-16.059-6.1a.828.828,0,0,0,.145-.2L66.823,98.3a.831.831,0,0,0,1.088.012l3.167-2.687a.834.834,0,0,0,.1.12l7.277,7.277H56.294Z" transform="translate(-42.978 -85.259)" fill="#0090df"/>
    <path id="Path_1690" data-name="Path 1690" d="M.831,157.338H14.864a.831.831,0,1,0,0-1.662H.831a.831.831,0,1,0,0,1.662Z" transform="translate(0 -147.874)" fill="#0090df"/>
    <path id="Path_1691" data-name="Path 1691" d="M13.956,116.007h6.3a.831.831,0,1,0,0-1.662h-6.3a.831.831,0,0,0,0,1.662Z" transform="translate(-11.671 -111.122)" fill="#0090df"/>
    <path id="Path_1692" data-name="Path 1692" d="M6.924,226.51H.831a.831.831,0,1,0,0,1.662H6.924a.831.831,0,1,0,0-1.662Z" transform="translate(0 -210.861)" fill="#0090df"/>
  </g>
</svg>
