<svg xmlns="http://www.w3.org/2000/svg" xmlns:xlink="http://www.w3.org/1999/xlink" width="812" height="477.753" viewBox="0 0 812 477.753">
  <defs>
    <clipPath id="clip-path">
      <rect id="Rectangle_3076" data-name="Rectangle 3076" width="812" height="477.753" fill="none"/>
    </clipPath>
  </defs>
  <g id="Group_7086" data-name="Group 7086" transform="translate(-968 -5895.54)">
    <g id="Group_6997" data-name="Group 6997" transform="translate(968 5895.537)">
      <g id="Group_2361" data-name="Group 2361" transform="translate(0 0.003)" clip-path="url(#clip-path)">
        <path id="Path_1719" data-name="Path 1719" d="M1426.87,372.276c-4.6-5.342-5.924-11.744-6.458-18.64-.188-2.433-3.121-4.586-3.508-7.075-.79-5.089-5.246-9.391-3.093-15.13.275-.733-.64-1.928-2.57-4.172-.46,1.146-.6,2.772-1.443,3.342-2.014,1.371-4.556.776-4.108-1.852.972-5.7-2.815-8.739-5.454-12.559-1.388-2.007-2.429-4.262-3.817-6.745l-3.608,4.217c-2.666-.353-5.761-.468-5.918,4.646-.044,1.436-2.439,2.825-3.8,4.185-2.29,2.283-4.622,4.521-6.926,6.789-.541.532-.941,1.373-1.575,1.619-4.111,1.59-4.687,4.158-3.973,8.571.731,4.517.6,9.655-2.954,13.5a7.439,7.439,0,0,1-3.713,2.015c-.367.081-1.3-1.772-1.736-2.837-2.613-6.34-5.261-12.669-7.68-19.087a45.941,45.941,0,0,1-2.489-9.163c-.411-2.683-.085-5.482-.085-8.343-2.362.368-4.19.956-5.966.826-1.193-.088-3.178-1.033-3.325-1.865-.811-4.6-4.2-6.8-7.42-9.267-.548-.421-.833-1.2-1.558-.8l-9.278-1.814c-4.02,3.14-11.665,1.139-13.742-5-3.2,2.471-6.649,3.284-9.919.5-2.573-2.189-4.787-4.816-7.16-7.249l.806-1.144h-6.45c2.624,3.283,4.744,6.032,6.97,8.689,1.534,1.832,4.092,2.408,4.061,5.978-.026,3.038,5.812,3.414,8.218.574a24.943,24.943,0,0,0,1.864-2.754c3.34,2.848,6.379,5.413,9.389,8.014,2.421,2.092,1.916,4.174-.09,6.226-.721.738-1.975,1.47-2.028,2.27-.5,7.647-7.463,8.247-11.945,11.481-2.51,1.812-5.3,3.218-7.957,4.825-4.369,2.645-10.411,1.25-13.87,6.527-1.319,2.013-5.375-.854-4.8-4.3,1.321-7.95-3.979-12.893-7.184-18.836-1.444-2.677-2.7-5.454-4.118-8.148-1.2-2.285-2.508-4.51-3.752-6.77-.983-1.787-1.872-3.633-2.938-5.366a9.118,9.118,0,0,0-2.269-2.643c-1.809-1.3-3.781-2.367-7.019-4.347,2.683,3.88,4.569,6.845,6.7,9.618,1.934,2.518,4.73,4.595,2.591,8.426a2.419,2.419,0,0,0,.23,2.2c5.493,6.043,6.94,14.2,10.8,21.073,1.34,2.384,3.915,4.08,5.122,6.5,4.779,9.593,12.5,11.183,20.8,4.013.205-.178.554-.185,1.117-.358l3.3,3.818c-2.4,5.9-4.072,12.078-7.274,17.272a51.36,51.36,0,0,1-11.586,12.775c-9.543,7.635-12.994,19.233-9.665,31.192,1.641,5.894,3.832,12.44-.182,18.558-.4.611-.88,1.605-1.382,1.645-5.319.413-6.5,5.953-10.108,8.5-1.013.715-.964,3.348-.966,5.1,0,2.432.779,4.91.5,7.28-.168,1.419-1.617,2.764-2.688,3.96-.754.841-2.682,1.43-2.644,2.038.325,5.188-3.374,8.642-5.1,12.909a15.933,15.933,0,0,1-2.879,3.958c-1.423,1.68-3.046,3.19-4.419,4.908-1.313,1.641-9.611,4.006-11.734,3.774-1.62-.177-3.957.153-4.919,1.232-2.658,2.984-5.13,1.5-7.236-.034-2.343-1.709-4.177-4.146-1.746-6.8-1.467-3.481-2.736-6.738-4.213-9.894-.782-1.671-2.276-3.05-2.827-4.767-.9-2.815-1.263-5.808-1.921-8.71-.973-4.285-1.11-9.092-3.2-12.72-4.284-7.424-5.218-14.17.159-21.282,3.7-4.9-.154-9.781-.374-14.667a22.391,22.391,0,0,0-1.679-8.392c-1.249-2.645-3.477-4.865-5.491-7.067-2.281-2.493-4.4-4.36-1.7-8.372,1.485-2.2,1.093-5.934.923-8.94-.05-.887-2.131-2.041-3.456-2.393-3.679-.975-8.029-.636-8.659-6.179-.066-.584-1.991-1.4-3-1.326-1.92.137-4.139.343-5.634,1.4a16.48,16.48,0,0,1-12.369,2.819,8.664,8.664,0,0,0-6.544,2c-2.611,2.712-4.813,2.075-6.536-.1-5.272-6.639-10.219-13.544-15.283-20.354-.345-.464-.527-1.353-.914-1.438-4.768-1.051-1.911-3.722-1.083-6.033l-4.078-3.462c7.439-3.707,3.539-10.209,4.09-15.823.538-5.47.759-11.358,3-16.155,1.952-4.182,6.3-7.366,10.007-10.481,2.5-2.1,3.588-4.252,3.38-7.468-.231-3.582.453-6.153,4.962-7.071,1.972-.4,3.259-4.29,4.9-6.657a46.035,46.035,0,0,0,5.137,1.846c1.044.249,2.6.386,3.273-.2,6.046-5.246,13.491-5.461,20.778-6.265a38.928,38.928,0,0,1,7.061-.469c1.5.111,4.135,1.053,4.18,1.759.172,2.72,3.346,6.165-1.843,8.075q.075.69.15,1.381c2.7,1.087,5.426,2.111,8.091,3.279,2.784,1.22,5.514,2.567,8.259,3.88,1.823.871,3.629,1.778,5.452,2.673.7-2.366.949-4.4,1.866-6.046,1.518-2.731,3.433-2.919,6.425-1.3,3.406,1.84,6.43,4.934,10.929,4.539,1.335-.118,2.8,1.324,2.993,1.423,3.155-.616,5.508-1.822,7.382-1.287,3.961,1.131,5.855-.563,6.818-3.914a51.111,51.111,0,0,0,1.827-11.1c-4.849,1.893-9.056-2.519-13.88.065-1.216.651-5.174-1.961-6.434-4-1.313-2.12-.963-5.349-1.16-8.106-.04-.569.715-1.2,1.182-1.919l-5.936-.877-4.021,4.755,3.251,2.5c-.826,1.335-1.4,3.357-2.387,3.594-1.435.345-4.062-.081-4.619-1.08-2.245-4.03-3.6-8.575-5.879-12.583-1.13-1.988-3.684-3.082-5.337-4.832-2.417-2.56-4.59-5.358-6.9-8.026a21.039,21.039,0,0,0-1.909-1.688c-.7,1.079-1.656,1.886-1.716,2.755-.168,2.457,6.246,9.58,8.324,10.847,2.883,1.758,5.291,4.32,7.9,6.539l-.921,1.238-2.994-.806-4.681,9.667-5.026-3.1q.182-.53.364-1.061l4.753-.565c1.721-4.9-2.466-6.467-4.83-8.816-3.186-3.166-6.721-5.97-10.106-8.929l.573-1.621-7.516,3.764-6.355-1.573.688,1.536c-2.554,2.957-4.979,6.045-7.713,8.819-1.457,1.478-3.557,1.972-1.931,5.03.544,1.024-1.968,3.518-2.678,5.491-1.388,3.856-4.018,2.1-6.413,1.783-2.086-.273-4.478,4.119-6.334-.453-.184-.455-1.105-1.072-1.387-.943-4.658,2.14-5.479-1.813-6.865-4.564-.444-.882-.527-2.675.025-3.235,2.928-2.974,2.118-6.424,1.675-9.886-.4-3.1.561-5.241,4-5.031,2.241.136,4.449.764,6.686,1.07,2.071.283,4.159.431,6.493.664.416-2.718,1.645-5.723,1.036-8.274-.541-2.268-3.123-4.03-4.8-6.022-.709-.845-1.4-1.709-2.094-2.564.827-.508,1.661-1.006,2.479-1.529,1.6-1.023,3.2-2.061,4.635-2.991,2.262-.908,4.521-1.473,6.4-2.661,2.145-1.356,3.951-3.268,6.923-5.808-.321-5.657,6.1-4.561,10.86-6.708-.386-1.621-.4-3.545-1.256-4.93-2.8-4.53-2.673-5.242,2.567-7.057a8.1,8.1,0,0,1-.832-2.279,2.2,2.2,0,0,1,.855-1.664,1.853,1.853,0,0,1,1.58.264c.422,2.363.745,4.749.991,7.139.22,2.142-.224,4.583.677,6.331.47.912,3.214.569,4.919.868,4.759.835,8.48-3.339,13.823-2.176,3.8.827,3.582-5.03,4.641-8.162a40.468,40.468,0,0,0,1.031-5.1l5.156,3.2,1.217-.928c-2.986-2.7-3.978-5.333.99-8.327-7.084-.014-9.605-3.847-9.918-9.01-.116-1.918,1.675-4.036,2.826-5.918a16.646,16.646,0,0,1,2.559-2.449c1.264-1.3,2.473-2.649,4.366-4.69-1.711-.514-3.8-1.83-5.491-1.422-1.271.307-1.915,2.917-3.036,4.339-1.681,2.13-3.194,4.707-5.4,6.031-3.652,2.2-5.074,5.625-2.3,8.85,3.31,3.842,3.687,6.711-.479,10.449-2.558,2.294-3.661,6.208-5.7,9.192-.6.881-2.18,1.071-3.31,1.578-.383-.982-.719-1.985-1.157-2.941-1.177-2.566-2.006-5.454-3.757-7.53-.952-1.129-3.575-1.368-5.31-1.1-2.239.345-4.342,1.6-6.522,2.467-1.519-4.222-2.953-7.733-4.035-11.353-1-3.329,1.213-6.885,4.843-8.222,6.369-2.346,10.071-7.022,12.9-13.227,1.905-4.179,4.36-8.537,10.212-9.343,3.335-.459,6.392-3.014,9.933-4.806l-3.676-4.866h9.43v-2.622c3.719-1.262,7.187,2.83,10.705.024.227-.181,1.36.258,1.546.661,2.966,6.4,10.2,6.015,14.869,9.7,1.519,1.2,3.673,1.549,5.242,2.7,1.2.88,2.861,2.625,2.647,3.61-.326,1.5-1.918,3.535-3.284,3.826-2.789.594-5.785.178-8.965.178a11.9,11.9,0,0,0,5.3,9.778c.134-1.866.269-3.76.405-5.653l5.292,2.523c3.858-.127-4.013-4.681,1.579-5.558a79.332,79.332,0,0,0,8.027-2.154l-2.738-8.3c3.695-1.2,5.964-.538,6.508,3.313.425,3.009,2.29,3.615,3.95,1.6,4.408-5.343,10.512-4.978,16.325-5.876,2.216-.342,4.371-1.1,7.1-1.8l1.835,2.4.873-.15c-.156-1.729-.311-3.459-.493-5.469,7.074-1.4,12.83.825,17.273,7.034l1.024-1.226c-.922-1.532-1.79-3.1-2.778-4.588-2.075-3.122-5.317-5.975-.649-9.765,1.034-.839.63-3.31,1.407-4.736.837-1.536,2.237-3.734,3.479-3.795,1.341-.066,3.567,1.745,4.035,3.2,1.4,4.348,2.146,8.918,3.129,13.406.1.448-.061,1,.135,1.372,2.761,5.3,4.1,10.153-4.467,12.147l1.161,1.482c1.739-.362,3.762-.29,5.134-1.216,1.23-.83,1.951-2.677,2.541-4.217,2.177-5.688,2.121-5.71,7.1-3.011-.643-3.829-1.637-4.371-5.283-3.455-.946.237-2.964-.3-3.062-.782-.974-4.8-1.666-9.652-2.37-14.5-.05-.347.441-.774.927-1.565l5.865,9.33,1.312-.64c-.165-1.043-.827-2.577-.4-3.029.98-1.025,3-2.455,3.709-2.062,3.027,1.681,5.731,3.965,9.267,5.622-1.608-1.9-3.3-3.73-4.8-5.717-.987-1.311-2.53-3.025-2.28-4.227.245-1.181,2.345-2.51,3.8-2.763,2.568-.446,5.265-.125,8.369-.125l-3.177-4.792c1.534-.888,3.037-1.841,4.609-2.651,3.579-1.845,7.717-.941,11.552-3.157,2.818-1.628,7.376-.157,11.157-.024a15.531,15.531,0,0,1,2.21.4c.277-1.369.234-2.682.8-3.615,1.012-1.672,2.178-4.048,3.672-4.4,1.59-.374,4.113.793,5.374,2.124,2.02,2.133,3.132,3.86,6.488,1.6,2.787-1.881,11.787,1.9,12.33,5.218.339,2.062-1.638,4.943-3.3,6.785-1.315,1.46-3.767,1.82-5.633,2.825a7.758,7.758,0,0,0-2.6,2.445c13.888-4.351,20.092-4.086,33.971,1.749,3.845-4.933,9.235-6.023,12.623-2.174.909,1.033.425,3.335.68,6.156,4.428,3.077,7.988,3.159,9.52.3l16.568,1.592c-2.871-4.552-.389-6.08,2.175-6.9,4.987.928,8.444,4.53,13.521,3.253,1.849-.465,4.366.539,6.2,1.567,4.581,2.563,8.526,5.966,14.622,3.7,3.488-1.294,7.431.059,10.084,3.572a32.765,32.765,0,0,0,4.063,3.886c6-5.85,11.92-.622,18.064-1.326.668-2.894,2.594-2.737,5.922-2.843,6.6-.21,11.752,3.735,17.836,4.49a3.446,3.446,0,0,1,2.088.839c3.142,3.7,8,4.091,11.777,6.5a7.335,7.335,0,0,1,1.9,2.382c4.647.469,8.815.815,12.937,1.471.273.043.729,2.882.137,3.624-.817,1.025-2.552,1.292-4.159,2a7.371,7.371,0,0,1,1.187,2.2,15.181,15.181,0,0,1-.169,3.268,12.066,12.066,0,0,1-3.562-.363,61.7,61.7,0,0,1-9.606-4.654c-1.885-1.221-3.139-3.45-5.332-5.984v6.121l-4.309,3.055c2.532,3.036,8.748,3.223,6.787,9.4-8.547-1.735-12.17.466-15.236,8.579-2.83-.681-6.037-2.578-8.164-1.715-3.733,1.513-8.924,2.581-8.69,8.076l5.6,5.615-8.8,20.84c-1.644-1.327-2.972-1.854-3.32-2.768-2.356-6.183-7.292-12.055-5.16-18.991,1.393-4.528,4.776-8.6,7.876-12.353,2.745-3.325,3.125-3.069.687-6.39a28.573,28.573,0,0,0-1.724,2.593c-1.109,2.129-2.051,1.889-3.806.425-1.574-1.313-4.482-3.013-5.614-2.372a10,10,0,0,0-4.058,5.981c-1.465,6.287-3.165,7.088-8.237,3.4-.851-.62-2.584-.179-3.862.05-1.852.331-3.641,1.2-5.491,1.326-2.853.2-5.847-.538-8.567.087a11.747,11.747,0,0,0-5.669,3.838c-1.444,1.67-1.959,4.137-3.132,6.1a63.043,63.043,0,0,1-3.844,5.2l5.74,4.893c2.793-2.691,5.1-2.592,7.379.815a10.735,10.735,0,0,1,1.977,5.066c.417,8.5.84,17.054-4.409,24.561-2.617,3.742-4.021,9-10.474,7.165-.852-.242-2.75,1.41-3.363,2.608-1.5,2.934-2.535,6.116-3.588,8.769,2.007,3.334,4.676,6.848,6.335,10.8a4.883,4.883,0,0,1-4.279,6.945c-1.048,0-2.911-1.405-3.011-2.324-.56-5.141-2.079-9.5-7.365-11.827l2.354-3.209c-3.946-3.5-6.07,2.512-9.617,1.421-.38-1.679-.8-3.524-1.345-5.955-2.173,2.1-4.157,3.666-5.617,5.63a3.585,3.585,0,0,0,.511,3.469c.922.72,2.587.685,3.906.588,1.777-.13,3.84-1.381,5.217-.791,2.074.889,2.574,2.876.036,4.48-4.972,3.142-5.653,5.438-1.457,9.8,4.3,4.466,3.266,10.29,5.155,15.31a3.486,3.486,0,0,1-.632,2.535c-1.521,2.408-3.847,4.074-3.836,7.678.005,1.718-3.35,3.26-4.735,5.211-2.487,3.5-5.406,4.467-9.748,4.477-3.149.007-6.292,2.96-9.733,4.753l-2.162-3.368a21.89,21.89,0,0,1-2.311,3.623c-4.277,4.33-4.383,6.055.5,10.074,5.522,4.547,7.657,10.418,4.943,16.777-1.711,4.007-5.741,6.989-9.155,10.919-2.419-3.658,1.468-10.942-6.087-8.459a9.55,9.55,0,0,1-.634-.959,40.312,40.312,0,0,0-2.443-4.976c-.177-.272-2.526.309-2.57.663a23.177,23.177,0,0,0,.023,5.7c.709,5.642,5.306,8.615,8.654,12.346,3.4,3.791,2.314,8.092,1.933,12.268-.044.485-3.208.674-4.925,1l-1.507-.809M1250.93,238.6l-4.442-5.762c-.671,2.213-1.018,3.617-1.527,4.956-.425,1.12-.862,2.944-1.6,3.121-6.623,1.579-3.8,7.364-6.294,12.252,6.841-1.518,12.313-2.8,17.824-3.881.843-.165,1.856.655,2.807.966,3.454,1.126,6.875,2.408,10.4,3.23,1.007.235,3.13-.683,3.313-1.434.312-1.28-.033-3.42-.934-4.187a50.091,50.091,0,0,0-9.367-6.485c-1.355-.7-3.542.185-5.33.477-2.595.424-5.172.965-7.756,1.457l-1.02-2.078,3.928-2.633m48.6-3.279-.975-1.07c-1.55,0-3.367-.533-4.6.1-3.089,1.6-6.382,3.3-8.64,5.834-1.053,1.183-.587,4.793.407,6.614,1.841,3.374,4.577,6.242,7.023,9.427-4.245,5.958-4.139,7.49,1.923,11.013,1.288.749,3.686.394,5.135-.344.882-.449,1.449-2.69,1.243-3.973-.483-2.988-1.534-5.878-2.316-8.819a6.744,6.744,0,0,1,.058-1.61l3.245,1.353c.1-.882.1-.882-4.343-2.888-.171-1.006-.367-2.172-.561-3.318-5.147-.589-5.968-2.3-2.9-6.6a57.5,57.5,0,0,1,5.3-5.722m16.8,7.91c2.65,1.144,4.068,2.03,5.6,2.359,2.846.61,2.681-1.6,2.566-3.4-.105-1.641-.48-3.264-.716-4.9-.065-.452.053-1.267-.1-1.316-1.17-.375-3.246-1.133-3.45-.791a88.2,88.2,0,0,0-3.9,8.05M1254,236.943l.332,1.446,4.132,1.1,5.554-5.929-.48-.628L1254,236.943" transform="translate(-792.234 -75.992)" fill="#ddd"/>
        <path id="Path_1720" data-name="Path 1720" d="M173.477,216.515c.532-3.722,3.12-6.027,6.033-7.508.8-.405,3.763,1.651,4.32,3.129,1.1,2.929,1.222,6.241,1.871,10.13,2.513-1.7,4.637-5.444,5.462-.279.256,1.6.039,3.281.939,5.257,1.679-3.03,2.986-6.4,5.2-8.938,1-1.144,4.09-1.321,5.71-.644,1.035.433,1.319,3.206,1.543,4.981.121.961-.617,2.023-.919,3.054-.5,1.713-.485,4.383-1.552,4.944-1.739.914-4.173.493-6.317.554-.979.028-2.793-.33-2.824-.189-1.215,5.461-4.805,2.579-7.1,2.126.89,1.642,2.9,3.766,2.465,4.926-.638,1.683-3.277,2.457-4.663,3.992-5.288,5.861-13.717,8.953-15.829,17.627l1.2-.007c1,1.89,2.477,3.68,2.9,5.7.555,2.672,1.785,2.883,4.113,2.942a10.8,10.8,0,0,1,5.448,2.216c3.549,2.494,6.635,5.879,11.744,4.97,1.754,4.531-3.361,9.7,1.1,13.905,5.324-.121,6.952-3.046,6.416-8.051-.3-2.765.066-5.2,3.132-7,1.156-.677,1.007-4.375.771-6.623-.315-3.015-2.638-6.05,1.4-8.479.714-.43.313-2.783.425-4.249.161-2.1-.036-4.322.564-6.288.873-2.86,2.548-4.631,5.674-2.072.713.584,1.967.433,2.921.772a33.6,33.6,0,0,1,5.88,2.348,8.981,8.981,0,0,1,3.923,4.173c.4,2.977-.2,7.648,1.389,8.629,6,3.7,6.717-3.7,9.927-6.354,2.135,3.442,3.924,6.833,6.209,9.831,1.436,1.884-2.813,3.156.157,5.424,1.524,1.165,2.444,3.3,4.729,4.057.816.272,1.181,1.952,2.175,3.759,2.642.839,4.849,5.741,3.144,9.174-.184.371-.553.863-.888.91-7.062.966-13.049,6.212-21.043,4.422-2.92-.654-6.739,2.847-9.856,5.2,3.782.365,6.443-5.72,10.711-1.24-2.019,4.468-1.046,6.221,3.788,7.735,1.4.437,2.582,1.57,3.865,2.384-1.23.972-2.428,1.988-3.7,2.9a44.52,44.52,0,0,1-5.978,4.037c-1.28.636-2.962.434-4.464.609l-.471-1.7,7.662-6.5-.937-1.353c-1.534,1.091-3.113,2.124-4.593,3.286-2.479,1.947-4.621,4.675-7.4,5.806-4.088,1.662-6.141,3.573-4.169,7.314-3.425,1.944-6.562,3.594-9.544,5.5a7.534,7.534,0,0,0-2.07,2.831c-1.025,1.89-1.915,3.856-3.275,6.636.948,6.272.886,6.4-5.91,10.19-9.026,5.038-10.076,7.524-7.981,18.083.806,4.064,1.335,8.184,2.156,13.316-6.474-3.183-8.387-7.4-8.077-12.936a5.235,5.235,0,0,0-.142-2.193c-1.529-3.694-12.008-6.24-14.739-3.459-.685.7-.451,2.33-.839,4.809l-7.127-3.924-1.2,2.111c-1.023-.735-2.054-1.475-3.08-2.218-.266.094-.636.106-.791.3-3.862,4.792-9.765,8.5-9.673,15.546a47.289,47.289,0,0,0,2.283,14.771c.578,1.655,4.9,2.834,7.4,2.653a8.732,8.732,0,0,0,6.237-3.989c1.7-3.4,3.758-5.147,7.357-4.823,2.365.214,3.422,1.592,2.724,4.142-1.164,4.25-2.223,8.53-3.17,12.193l11.475,2.322c-.716,3.719-1.419,6.511-1.766,9.347-.76,6.223,2.6,8.779,8.669,7.965,2.39-.321,5.1,1.8,8.087,2.975.805-5.455,6.116-7.833,10.4-10.852,1.571-1.107,5.555-.522,7.295.822,5.054,3.906,9.889,6.477,16.247,3.287a3.245,3.245,0,0,1,3.729.946c1.955,2.348,3.8,4.806,5.9,7.014,2.116,2.227,4.483,4.207,6.828,6.378,4.176-4.2,7.115.394,9.884,2.739,6.156,5.215,7.19,10.065,4.644,14.943,1.814.507,3.718,1.111,5.658,1.549a6.856,6.856,0,0,0,2.441-.056c3.348-.493,5.9.372,8.578,2.881,1.86,1.744,5.3,1.672,7.97,2.609,2.65.931,5.536,1.659,7.744,3.285,3.263,2.4,7.152,4.962,7.435,9.466.161,2.571-1.195,5.49-2.541,7.855-2.246,3.945-5.056,7.556-7.564,11.351a2.462,2.462,0,0,0-.282,1.788c2.375,8.583-2.431,15.965-4.191,23.79-.408,1.813-4.488,3.277-7.115,3.97-7.275,1.918-9.3,5.276-10.924,12.847-.957,4.453-2.067,9.938-6.884,12.8-.6.355-.825,1.333-1.27,1.99-1.787,2.636-3.151,5.882-5.559,7.649-1.4,1.026-4.487-.331-6.77-.61.461,3.26,6.008,6.412,2.134,10.087-2.719,2.579-7.108,3.337-11.088,5.053-.929,8.041-.929,8.041-6.494,5.509-.134.24-.445.583-.376.706,3.289,5.828,2.731,10.05-2.452,14.545-2.355,2.043-2.539,3.02.4,4.479a4.219,4.219,0,0,1,1.922,3.434,28.781,28.781,0,0,1-2.615,7.447c-2.881,5.79-2.97,5.744-2.317,10.631l10.469,6.181c-7.974,3.942-11.17,2.94-11.783-3.511l-1.983,3.683c-3.965-4.882-7.618-9.339-11.214-13.843-.66-.827-1.713-2.007-1.526-2.749,1.193-4.741-1.533-9.553.632-14.342,1.3-2.871,1.785-6.193-1.3-8.72a3,3,0,0,1-.774-1.855c-.486-4.383-1.087-8.768-1.249-13.167a18.438,18.438,0,0,1,1.229-6.063c1.3-4.069,3.072-7.921.771-12.378-.8-1.542-.414-3.932-.053-5.833,1.115-5.883,3.238-11.677,3.542-17.581a90.13,90.13,0,0,0-1.636-19.9c-.369-2.123-2.972-4.677-5.119-5.493-6.906-2.626-9.894-8.21-12.457-14.537-2.151-5.309-4.632-10.488-7.184-15.613-.637-1.281-3.01-2.121-3.02-3.179-.023-2.445.912-4.9,1.745-8.635-1.859-3.586-1.256-7.235,2.9-11.443,5.966-6.034,6.9-12.155,2.886-18.337-.576-.888-.762-2.039-1.849-2.86-1.537,4.516-3.072,4.684-5.934,2.685-2.935-2.05-6.795-2.837-9.472-5.121-1.967-1.679-2.952-4.781-3.888-7.427-1.339-3.785-4.392-4.666-7.615-5.708A12.92,12.92,0,0,1,154.3,406.2c-2.385-2.449-4.509-4.175-8.24-2.883a7.117,7.117,0,0,1-5.217-.846c-5.765-3.35-11.381-6.972-16.962-10.635a3.228,3.228,0,0,1-1.147-2.655c.85-4.361-1.9-7.052-3.979-10.214-3.668-5.579-8.321-10.549-9.934-17.456-.454-1.945-2.7-3.457-4.117-5.167l-1.42.838,13.143,25.376c-5.112,1-7.343-2.258-7.818-4.825-.874-4.724-3.482-7.179-7.939-8.785,2.828-3.765,1.73-6.551-1.075-9a2.153,2.153,0,0,1-.77-1.112c-.806-5.673-1.7-11.261-8.247-13.221.748-3.171-5.005-4.66-2.128-8.452.169-.222-.288-1.239-.7-1.57-6.139-4.925-2.656-11.123-1.9-16.75.579-4.312,2.34-8.451,3.449-12.7a5.905,5.905,0,0,0,.03-3.395c-2.349-5.961-3.456-12.208-4.472-18.492a2.613,2.613,0,0,0-.936-1.357c-2.691-2.275-4.38-4.851-2.836-7.866-1.981-2.449-3.643-4.569-5.378-6.624a14.738,14.738,0,0,0-3.267-3.375c-1.876-1.115-4.5-1.242-5.974-2.676-2.957-2.877-5.7-5.408-10.232-4.567-.667.124-1.508-1.634-2.447-1.924-1.911-.591-4.038-4.994-5.912.609-.809,2.42-3.831,4.246-6.16,5.883-.947.665-2.723.11-4.121.11l-.76-1.424,6.736-7.664a5.493,5.493,0,0,0-2.384-.423c-2.158.558-8.653,9.655-8.719,12.038-.014.514.614,1.051.588,1.558a21.089,21.089,0,0,1-.642,4.931c-.109.365-2.481.5-2.527.342a34.569,34.569,0,0,1-.807-4.743c-2.009,1.647-4.092,3.839-6.589,5.3A163.329,163.329,0,0,1,6.854,280.52c-1.5.671-3.691-.258-6.854-.587,7.62-6.876,18.606-6.148,23.266-16.7-3.537.431-5.846,1.192-8,.879-4.875-.708-.594-3.692-1.112-5.55-4.739.356-5.036-.05-4.52-4.341.114-.948-1.15-2.067-1.49-2.63,1.6-2.277,2.632-4.759,4.469-6.055,1.9-1.342,4.683-1.317,6.9-2.3a9.625,9.625,0,0,0,4.073-4.049c-6.89,4.855-10.188.9-12.829-4.91,4.561-6,11.557-1.714,18.264-3.584a25.85,25.85,0,0,0-3.079-1.5c-1.434-.437-3.229-.311-4.3-1.164-1.718-1.368-2.97-3.342-4.419-5.06,1.813-.653,3.589-1.669,5.45-1.869,2.447-.262,4.54-.478,4.979-3.512.084-.58.331-1.448.735-1.62,3.274-1.393,6.577-2.728,9.928-3.918a25.088,25.088,0,0,1,4.719-1c.858-.127,2.424-.22,2.536.091,1.685,4.72,4.015,1.741,6.463.227,1.9,4.774,5.629,2.869,9.052,3.124,9.049.673,17.9,2.54,26.165,6.641a23.467,23.467,0,0,0,2.913,1.017c3.648-5.854,8.31-8.651,12.154-6.891l-3.234,2.415.382.763a21.382,21.382,0,0,0,3.975-2.187c.974-.827,1.529-2.165,2.6-3.769,2.548,5.282,6.511,5.271,10.866,4.174a4.968,4.968,0,0,1,2.2.276c4.492,1.081,8.956,2.294,13.472,3.26,3.122.668,3.719,1.316,3.417,5.776,5.119-6.069,7.3,1.426,11.033,2.147,1.278-6.493,2.528-7.007,7.764-3.572,3.034,1.99,9.011,1.5,12.135-.892,2.209-1.69,4.365-2.22,6.358,2.183,1.566-2.36,3.358-3.98,3.569-5.792.125-1.066-2.26-2.435-3.516-3.669Z" transform="translate(0 -145.496)" fill="#ddd"/>
        <path id="Path_1721" data-name="Path 1721" d="M878.277,65.5c-2.776,8.923-9.889,13.473-18.772,11.782-3.633-.691-5.226,1.278-5.579,4.306-.388,3.326-2.273,4.452-5.076,4.843-2.4.335-4.791.758-7.2.922-3.334.227-4.519,1.582-5.35,5.237-1.287,5.658-4.035,11.026-6.632,16.277-.522,1.055-3.99,1.98-4.649,1.362-4.452-4.176-10.865-6.6-11.369-14.436-.255-3.961-2.8-7.722-3.922-11.686-.922-3.255-.706-6.335,2.774-8.429,1.463-.881,2.388-2.687,3.557-4.072-1.365-1.081-2.718-2.177-4.1-3.235-.451-.345-.974-.592-2-1.2l4.351-2.516q.056-.659.113-1.318l-4.27-.464c-1.382-4.965-2.455-10.34-4.391-15.372-2.169-5.638-4.323-6.44-10.284-5.76-4.8.547-9.729,1.542-13.826-2.3a18.917,18.917,0,0,1-1.792-2.456l7.6-1.026q.01-.885.021-1.769c-1.7-.166-3.4-.336-5.1-.5-1.9-.178-3.792-.346-5.689-.519,1.534-1.047,3.018-2.181,4.61-3.126,3.584-2.127,7.221-4.161,11.406-6.559-.721-3.89,1.187-6.248,6.1-6.07a3.863,3.863,0,0,0,2.912-1.9c1.9-4.044,5.848-4.651,9.3-5.651,1.66-.481,3.842.9,6,1.5,1.908-2.352,3.885-2.381,5.093.2a13.741,13.741,0,0,0,2.222,2.7c.434-1.13.874-2.258,1.3-3.392.151-.4.265-.824.641-2.008l8.894,2.253c.162-1.533.379-3.592.6-5.688.575-.131,1.129-.452,1.4-.289,4.165,2.537,6.909,1.526,10.784-1.836C852.426-.57,858.984-.372,864.944.588c.787.127,1.416,1.264,2.8,2.581L859.68,5.826q.04.56.079,1.122c6.891-.192,13.982-6.389,20.69-1.115q.029.733.058,1.465l-9.286,1.527,2.451,5.244,6.657-3.244,1.054.992-4.122,6.948c1.895-.924,3.094-1.169,3.792-1.906,4.172-4.4,9.672-4.776,15.079-5.068,1.7-.092,3.468,1.214,5.2,1.879-1.293,1.269-2.376,3.105-3.92,3.7-3.926,1.505-8.057,2.454-12.516,3.744l4.148,2.433a65.038,65.038,0,0,0-6.1,4.445c-.876.8-1.172,2.261-1.731,3.423a26.318,26.318,0,0,1,3.094.968c1.444.644,2.819,1.447,4.223,2.182-.7,1.226-1.153,2.767-2.164,3.614-2.362,1.981-2.215,3.751.722,5.243.667.339,1.28.787,3.143,1.95L879.055,55.38l-4.246-1.439-1.084,1.116c.895.946,1.825,1.86,2.676,2.844a54.133,54.133,0,0,1,4.2,5.249c.113.17-1.513,1.542-2.333,2.356-1.651-.849-3.342-1.628-4.941-2.568-2.4-1.411-4.108-1.25-5.344,3.165l10.294-.607" transform="translate(-544.916 -0.003)" fill="#ddd"/>
        <path id="Path_1722" data-name="Path 1722" d="M2283.683,1091.3c.6,2.041,1.128,3.561,1.482,5.122.435,1.908.1,4.4,1.194,5.672a16.409,16.409,0,0,1,4.369,12.229c-.182,2.737.338,4.88,3.338,5.63a2.565,2.565,0,0,1,1.508.918c3.028,5.058,6.035,10.13,8.912,15.276a5.787,5.787,0,0,1,.354,3.1c-.39,4.75-.863,9.493-1.353,14.234a5.558,5.558,0,0,1-.645,2.613c-2.583,3.508-5.384,6.852-7.932,10.384-1.349,1.87-2.322,4.02-3.5,6.019a8.562,8.562,0,0,1-1.568,2.215c-5.989,5.118-17.778,5.419-23.66.479-.865-.726-1.692-2.573-1.378-3.495,1.542-4.546-.786-5.138-4.727-4.752.881-1.794,1.639-3.333,2.9-5.9l-6.966,6.026a25.05,25.05,0,0,1-.97-2.709,9.4,9.4,0,0,0-13.209-6.6c-1.714.77-3.735.8-5.575,1.318-1.824.515-4.523.684-5.228,1.94-2.787,4.967-7.113,4.269-11.5,4.342-2.068.034-4.123.951-6.183,1.467q.039.665.076,1.33a34.622,34.622,0,0,1-4.092-1.766c-3.634-2.133-3.821-4.132-1.077-7.343a5.174,5.174,0,0,0,1.438-3.374c-.335-2.664-.58-5.678-1.971-7.8-3.383-5.155-1.282-10.85-2.28-16.2-.512-2.743-.066-5.488,3.921-4.907.282.041.742,0,.865-.184,3.677-5.455,10.341-4.553,15.093-7.462,2.651-1.623,4.162-5.175,6.757-8.615,1.585-1.364,4.467-3.161,6.435-5.694,3.138-4.038,4.094-4.458,7.225-.765,1.736,2.048,3.083,1.622,3.328-.645.48-4.442,2.831-6.076,7.622-5.559l-3.178-4.387c2.049,0,3.336-.239,4.5.046,3,.737,5.92,1.839,8.928,2.541,2.614.609,2.292,1.975,1.2,3.643-1.035,1.583-2.183,3.089-3.511,4.951,3.367,2.5,6.281,4.807,9.364,6.849.716.474,2.694.411,2.916-.026,1.064-2.088,2.417-4.4,2.383-6.611-.069-4.536-.708-9,4.4-13.557" transform="translate(-1547.171 -759.868)" fill="#ddd"/>
        <path id="Path_1723" data-name="Path 1723" d="M677.843,213.669l3.723,5.8c-1.887,0-3.236.408-4.1-.078a36.612,36.612,0,0,1-6.736-4.655c-3.148-2.867-5.773-6.484-10.78-3.118-.581.391-2.713-1.61-4.127-2.5.967-1.451,1.7-3.2,2.981-4.25.934-.76,2.608-.563,3.945-.831,4.284-.859,7.072-4.058,6.848-7.835-.2-3.3-1.5-4.146-7.1-4.4,0-.839.325-1.912-.063-2.5a30.981,30.981,0,0,0-3.384-4.1c-5.054,4.048-10.435-2.662-15.582.562-1.413.885-4.284.691-3.273-2.866a2.008,2.008,0,0,0-.776-1.7c-4.148-2.5-2.132-6.09-1.089-8.925,1.211-3.294,3.8-5.5,8-3.971l-1.639,6.445,1.1.531c2.294-3.978,3.033-10.442,9.844-7.573,4.516,1.9-.792,4.574-.216,6.142,2.846-.926,5.438-1.991,8.13-2.592,3.841-.857,4.653,2.235,5.943,4.922a7.629,7.629,0,0,0,3.326,2.872,50.168,50.168,0,0,0,5.49,2.168c5.861,2.292,6.511,4.351,2.236,10.342,2.53,1.409,4.974,2.731,7.38,4.12,1.911,1.1,5.471,2.536,5.35,3.388-.38,2.676-2.058,5.207-3.52,7.613-.166.273-2.427-.284-3.233-1.012-1.33-1.2-2.077-3.094-3.455-4.2-.579-.464-2.138.336-3.252.561.287,1.192.219,2.727.939,3.5,1.281,1.378,4.009,2.039,4.375,3.467.583,2.271-.276,4.925-.647,8.634l-6.153-4.47-.49.5" transform="translate(-446.847 -116.28)" fill="#ddd"/>
        <path id="Path_1724" data-name="Path 1724" d="M679.882,31.5c-7.577,1.19-16.494,7.872-20.713-4.148,2.553-1.415,4.767-3.022,7.233-3.855,1.305-.441,3.039.606,4.6.718s4.058.511,4.583-.285c1.915-2.9,4.338-2.736,7.147-2.5,1.266.106,2.6-.6,4.4-1.059l3.336,3.171c2.52-4.819,6.7-4.2,10.817-3.9,3.306.241,6.671.094,9.906.7,1.643.307,3.056,1.89,4.573,2.9-1.222.887-2.333,2.217-3.689,2.569a76.637,76.637,0,0,1-8.468,1.3c1.577,6.851-3.872,12.084-10.66,10.7-1.6-.327-3.893.583-5.245,1.7-3.369,2.789-6.38,6.026-9.719,9.261,1.6,2.561.667,5.99-3.525,6.485a69.757,69.757,0,0,1-16.165-.194c-1.683-.2-3.082-2.912-3.909-3.758,3.62-2.264,6.209-4.358,9.144-5.614,5.2-2.224.535-6.155,1.926-9.655l4,1.553a40.493,40.493,0,0,1,5.119-3.111,38.892,38.892,0,0,1,5.5-1.449l-.189-1.525" transform="translate(-459.101 -13.539)" fill="#ddd"/>
        <path id="Path_1725" data-name="Path 1725" d="M436.748,175.848c2.581-.627,5-4.23,7.823-.453,3.583-2.833,4.418,1.182,6.913,3.483-1.209-6.234,4.488-6.061,6.575-9.114.232-.34,2.189.541,2.45.613-1.244,3.2-3.424,6.066-2.965,8.388.487,2.467,3.476,4.422,5.628,6.893l-2.537,1c1.248,5.571,1.074,5.731-4.8,5.922-4.527.147-9.135,1.1-13.552.5-4.584-.619-8.981-2.67-13.46-4.095l-.07-2.048,7.223-2.284q.007-.268.014-.536a22.781,22.781,0,0,1-4.812-.085c-1.114-.245-2.062-1.275-3.084-1.956.919-.743,1.806-1.533,2.766-2.218,1.93-1.377,3.9-2.7,5.852-4.04a.481.481,0,0,0,.037.032" transform="translate(-300.342 -118.154)" fill="#ddd"/>
        <path id="Path_1726" data-name="Path 1726" d="M2193.609,957.488c-3.716,2.135-6.547,1.064-8.4-3.227-.939-2.178-2.6-4.035-3.558-6.207a7.047,7.047,0,0,1-.344-4.215c.121-.509,2.093-.368,2.991-.915,2.809-1.709,5.787-3.292,8.178-5.507,3.12-2.89,5.741-6.338,8.877-9.885l8.57,3.511c-1.148,1.733-1.9,3.487-3.173,4.655-2.34,2.148-3.1,3.906-.406,6.434.749.7.94,2.839.476,3.909a108.835,108.835,0,0,1-5.262,10.165c-.847,1.5-1.833,3.584-3.141,3.94-1.127.307-2.8-1.462-4.811-2.658" transform="translate(-1530.242 -645.84)" fill="#ddd"/>
        <path id="Path_1727" data-name="Path 1727" d="M2391.228,1014.78c3.772-2.66,6.9-5.124,10.3-7.092.945-.547,2.776.186,4.09.654a103.476,103.476,0,0,0,13.65,4.317c1.241,1.624,2.551,3.2,3.705,4.884,1.63,2.381,4.484,3.912,4.034,7.772-.131,1.131,2.9,2.574,4.365,3.995a30.255,30.255,0,0,1,2.439,3.014c-1.281.484-2.543,1.319-3.844,1.385-3.953.2-6.3-2.27-8.29-5.453-2.441-3.9-4.088-3.956-6.673-.344-1.889,2.638-3.785,3.676-6.826,1.58-1.177-.812-3.009-.644-4.544-.918-.948-.169-1.9-.331-2.845-.5.265-.941.235-2.348.841-2.741,3.169-2.051,1.514-4.245-.148-5.592-2.04-1.654-4.68-2.554-7.088-3.719-1.025-.5-2.119-.84-3.161-1.246" transform="translate(-1677.639 -701.516)" fill="#ddd"/>
        <path id="Path_1728" data-name="Path 1728" d="M1651.135,1115.659c-.912,2.732-1.814,5.092-2.486,7.518-1.611,5.821-4.392,11.268-4.667,17.529-.207,4.714-3.635,7.241-7.657,8.835-.532.211-1.4-.21-2.022-.52-3.091-1.541-4.738-9.83-2.655-12.678,1.606-2.2,3.14-3.946,1.363-7.454-2.37-4.679.73-8.176,6.208-10.284,2.194-.845,3.559-4.093,5.134-6.366a43.655,43.655,0,0,0,2.475-4.619c.962,1.521,2,3,2.86,4.576a32.268,32.268,0,0,1,1.447,3.464" transform="translate(-1144.079 -771.233)" fill="#ddd"/>
        <path id="Path_1729" data-name="Path 1729" d="M1230.618,387.394c.959,1.936,1.69,3.526,2.52,5.061,1.733,3.207,2.527,6.985,5.938,9.19.718.464,1.121,2.781.63,3.6-2,3.339-4.6,5.707-9.015,5.643-2.482-.036-4.983,1.319-8.743,2.418l3.4-5.237c-.135-3.029-.231-5.2-.343-7.719l4.562-2.064-8.168-7.1c2.215-4.23,1.926-4.88-3.028-6.536l1.646-3.9,1.927,3.829c2.9-7.881,6.1-.888,9.291-.58l-.617,3.394" transform="translate(-854.786 -265.116)" fill="#ddd"/>
        <path id="Path_1730" data-name="Path 1730" d="M2082.7,952.463l1.508.809c1.187,2.914,2.366,5.83,3.564,8.738.92,2.237,1.817,3.312,3.967.8.5-.586,2.952.558,3.433.666-.845,3.389-1.258,5.515-1.923,7.557-.471,1.444-.988,3.509-2.03,3.943-1.009.42-3.216-.478-4.03-1.507-4.782-6.042-10.386-11.4-12.672-19.386-.823-2.872-4.812-4.808-7.365-7.161-1.036-.956-2.1-1.886-3.146-2.827.581-.607,1.255-1.794,1.723-1.716a12.458,12.458,0,0,1,4.658,1.582c4.182,2.707,8.219,5.646,12.312,8.5" transform="translate(-1448.07 -656.178)" fill="#ddd"/>
        <path id="Path_1731" data-name="Path 1731" d="M1684.229,123.485c-1.935.827-3.149,1.266-4.293,1.847-5.356,2.721-10.993,5.016-15.968,8.334-7.784,5.191-7.959,8.862-1.744,15.294-2.591,3.168-7.1,2.552-9.552-.214-4.591-5.173-2.077-9.285.565-14.03,4.046-7.267,10.756-9.1,18-10.409a13.217,13.217,0,0,0,5.224-2.325c2.747-2,4.914-1.6,7.764,1.5" transform="translate(-1157.697 -84.081)" fill="#ddd"/>
        <path id="Path_1732" data-name="Path 1732" d="M1358.835,72.009c2.434-1.253,3.958-2.624,5.476-2.617,1.054.005,2.089,1.917,3.151,2.958a25.616,25.616,0,0,0,4.1,3.849c1.909,1.168,4.218,1.648,6.167,2.761a2.972,2.972,0,0,1,1.09,2.647,4.014,4.014,0,0,1-2.663,1.9,21.663,21.663,0,0,1-4.561-.119l-3.005-4.156c-1.047,1.695-2.123,3.372-3.13,5.091-.565.968-1.016,2-1.518,3.01-.95-.615-2.193-1.02-2.8-1.887-1.765-2.536-5.867-4.371-2.181-8.451-2.623.636-4.738,1.768-6.487,1.342-1.055-.256-1.892-2.876-2.154-4.543-.161-1.023.772-2.426,1.591-3.288.255-.269,1.712.848,2.673,1.026,1.7.314,3.441.393,4.247.476" transform="translate(-947.348 -48.318)" fill="#ddd"/>
        <path id="Path_1733" data-name="Path 1733" d="M400.6,168s-.039-.031-.037-.032c-4.251,1.74-8.6,3.282-12.724,5.29-2.866,1.395-5.3,3.518-8.606.881-2.784-2.219-4.039-4.205-.484-6.737a1.057,1.057,0,0,0,.314-.33c1.247-2.257,2.1-4.925,3.853-6.647,1.348-1.324,3.824-1.458,5.464-2.009,3.069,1.15,5.936,2.26,8.828,3.3,3,1.077,4.489,2.945,3.392,6.286" transform="translate(-264.195 -110.306)" fill="#ddd"/>
        <path id="Path_1734" data-name="Path 1734" d="M2369.983,587.6c-.564,1.784-1.822,3.6-1.414,4.839,2.277,6.918-4.524,11.151-11.519,8.4.069,1.125.133,2.137.173,2.792-1.772.427-3.57,1.419-5.073,1.076-1.736-.4-3.213-1.969-5.859-3.738l8.887-5.374q.378.495.758.99l1.336-4.151c5.008.047,6.416-1.994,6.072-8.282a9.84,9.84,0,0,1,.371-3.838,2.559,2.559,0,0,1,2.221-1.02,2.891,2.891,0,0,1,1.753,1.669c.891,2.195,1.566,4.481,2.293,6.636" transform="translate(-1646.112 -403.354)" fill="#ddd"/>
        <path id="Path_1735" data-name="Path 1735" d="M1109.687,288.413l-9.5-2.6,1.448-4.6-4.685.473c-.5-5.545.5-6.088,5.745-5.425,3.581.453,7.308-.329,10.972-.5,2.131-.1,4.849-2.243,5.826,1.822.855,3.559.237,6.363-3.287,7.969-2.238,1.02-4.5,1.985-6.516,2.871" transform="translate(-769.516 -191.55)" fill="#ddd"/>
        <path id="Path_1736" data-name="Path 1736" d="M628.746,120.416c.126,6.182,4.3,6.954,8.709,7.284a43.232,43.232,0,0,0,5.455-.1c5.234-.274,5.986.673,4.909,5.516-5.73,0-11.3.015-16.869-.007-2.655-.011-10.766-5.988-10.9-8.6-.066-1.317,1.459-3.4,2.747-3.931,1.65-.686,3.785-.167,5.945-.167" transform="translate(-435.016 -83.715)" fill="#ddd"/>
        <path id="Path_1737" data-name="Path 1737" d="M2279.841,976.638c.118.824.493,2.993.421,3.008-3.458.742-6.953,1.3-10.647,1.908.086.332.446,1.746.881,3.443l5.492-1.74-3.082,7.156c.524.9,1.657,2.122,1.947,3.527.316,1.535-.149,3.236-.272,4.865a32.512,32.512,0,0,1-4.1-3.077c-.417-.416-.066-1.627-.066-2.767-.642.434-1,.539-1.066.741-.48,1.5-.9,3.013-1.341,4.524-.725-.38-1.974-.638-2.093-1.16-.675-2.983-4.931-5.035-2.23-8.909,1.284-1.841,3.311-3.8,3.365-5.749.149-5.4,2.822-4.874,6.538-4.12,1.57.318,3.432-.848,6.25-1.649" transform="translate(-1587.536 -680.031)" fill="#ddd"/>
        <path id="Path_1738" data-name="Path 1738" d="M2623.157,1395.331c1.475.932,3.527,1.531,4.061,2.795.4.948-.936,2.923-1.877,4.14-3.326,4.3-6.695,8.589-10.3,12.642-1.4,1.57-3.684,3.669-5.21,3.4-1.59-.276-3.668-3.025-3.835-4.853-.153-1.693,1.561-4.1,3.115-5.306,3.713-2.88,7.931-5.081,11.7-7.9,1.112-.832,1.394-2.812,2.354-4.922" transform="translate(-1828.305 -971.566)" fill="#ddd"/>
        <path id="Path_1739" data-name="Path 1739" d="M634.585,68.76c-1.574-1.675-3.177-3.323-4.711-5.035-.989-1.105-2.873-2.622-2.632-3.407a24.561,24.561,0,0,1,4.057-8.225c.547-.675,3.892.3,5.466,1.315,5.457,3.5,6.292,5.921,4.8,10.474-1.035,3.164-2.955,4.469-6.983,4.878" transform="translate(-440.046 -36.118)" fill="#ddd"/>
        <path id="Path_1740" data-name="Path 1740" d="M491.082,135.284c-7.922,1.189-14.37,2.34-20.865,3.047-2.9.315-4.77-1.169-3.275-4.523.308-.691,1.272-1.571,1.9-1.542a9.329,9.329,0,0,0,8.944-4.781c.4-.631,2.231-1.133,2.729-.761,3.482,2.6,6.788,5.446,10.571,8.559" transform="translate(-327.228 -88.15)" fill="#ddd"/>
        <path id="Path_1741" data-name="Path 1741" d="M816.656,490.646c-.886-5.9.926-8.852,7.657-12.6l1.379,4.122c5.152,1.05,7.139,6.151,4.287,11.973-1.709-2.591-6.07.392-7.191-4.044-.08-.315-3.833.331-6.131.554" transform="translate(-572.803 -332.86)" fill="#ddd"/>
        <path id="Path_1742" data-name="Path 1742" d="M2683.2,1357.526c-2.155-.349-4.377-6.047-1.625-9.314,2.878-3.417,2.385-6.033.424-9.328-.623-1.047-.532-2.568-.584-3.879-.006-.135,1.671-.656,1.848-.426a13.613,13.613,0,0,1,1.819,3.323c1.294,3.3,2.791,6.324,6.933,6.666,1.119,3.257-.007,5.387-2.863,7.231-2.017,1.3-3.557,3.369-5.952,5.726" transform="translate(-1880.441 -929.225)" fill="#ddd"/>
        <path id="Path_1743" data-name="Path 1743" d="M2180.556,1057.526c-4.091-1.613-8.321,3.355-12.65-1.562-1.164-1.322-4.67-.293-6.973-.869-1.49-.373-2.75-1.7-4.114-2.6,1.277-1.094,2.607-3.172,3.823-3.106a63.457,63.457,0,0,1,12.362,2c2.858.74,5.508,2.31,8.251,3.509q-.348,1.318-.7,2.635" transform="translate(-1513.181 -730.685)" fill="#ddd"/>
        <path id="Path_1744" data-name="Path 1744" d="M1201.5,422.928c3.816.039,5.77.579,4.512,4.02a6.216,6.216,0,0,0-.385,2.674c.324,3.128-.4,4.263-3.927,5.463-5.233,1.781-7.83,4.023-6.2-4.359.517-2.649-.822-4.462,2.915-4.952,1.33-.174,2.426-2.2,3.082-2.847" transform="translate(-838.402 -294.485)" fill="#ddd"/>
        <path id="Path_1745" data-name="Path 1745" d="M547.665,171.642l4.06,2.7a22.66,22.66,0,0,1-.658-4.146c.046-.9.462-2.416.966-2.533a15.686,15.686,0,0,1,5.273-.243c.359.041.632,1.709.776,2.655a15.628,15.628,0,0,1,.431,4.818c-.3,1.767-.869,4.17-2.109,4.89-1.156.671-4.06.085-4.926-1-1.577-1.972-6.306-2.441-3.814-7.143" transform="translate(-383.732 -116.496)" fill="#ddd"/>
        <path id="Path_1746" data-name="Path 1746" d="M586.13,779.223c1.951-.713,3.882-1.967,5.858-2.044,7.138-.278,12.75,4.115,18.755,7.118,2.166,1.083,1.832,2.821-.6,3.938-3.646,1.676-5.714.905-7.482-3.092-1.58-3.569-9.018-6.378-13.579-5.125-.8.22-1.6.455-2.4.683l-.56-1.477" transform="translate(-411.217 -541.14)" fill="#ddd"/>
        <path id="Path_1747" data-name="Path 1747" d="M2405.914,540.687c-2.8,0-4.5.078-6.183-.03a6.412,6.412,0,0,1-2.8-.74,2.134,2.134,0,0,1,.007-1.977c2.67-2.683,2.492-5.675,1.439-8.981-.218-.684.606-1.712.5-1.435,2.978,2.034,5.922,3.655,8.323,5.882.934.866,1.11,3.216.767,4.68-.3,1.3-1.806,2.314-2.052,2.6" transform="translate(-1681.473 -367.282)" fill="#ddd"/>
        <path id="Path_1748" data-name="Path 1748" d="M2249.26,136.682c5.654-8.513,6.477,1.253,10.06.716-.351.921-.484,1.674-.666,1.686a116.05,116.05,0,0,1-13.493.553c-1.044-.053-2.238-2.466-2.81-4.006-.221-.6,1.149-2.591,1.688-2.549a13.092,13.092,0,0,1,4.291,1.583c.312.147.391.8.93,2.017" transform="translate(-1573.173 -92.665)" fill="#ddd"/>
        <path id="Path_1749" data-name="Path 1749" d="M2274.527,823.84c-2.636,2.5-5.268,1.981-7.61-.158-.847-.773-1.7-2.462-1.432-3.4a41.167,41.167,0,0,1,3.307-7.852,2.91,2.91,0,0,1,2.562-1.224,3.808,3.808,0,0,1,2.246,2.413c.52,3.388.652,6.837.927,10.225" transform="translate(-1589.385 -564.808)" fill="#ddd"/>
        <path id="Path_1750" data-name="Path 1750" d="M2298.8,913.737c-.987-1.141-1.99-2.249-2.935-3.407-.843-1.036-1.622-2.128-2.49-3.275l-3.394,2.347-1.17-.792c1.083-1.874,2.14-3.766,3.351-5.549.045-.068,1.588.915,2.6,1.507,1.725-1.518,3.649-4.377,6.558-1.575,2.7,2.6,1.735,6.376-2.52,10.744" transform="translate(-1605.782 -627.929)" fill="#ddd"/>
        <path id="Path_1751" data-name="Path 1751" d="M1419.791,70.274c-2.514-.638-4.274-.551-5.013-1.392-1.263-1.439-1.886-3.46-2.779-5.236a25.089,25.089,0,0,1,4.878-1.143c2.951-.11,5.918.114,8.872.283a12.723,12.723,0,0,1,2.4.605c-.212.818-.164,2.051-.679,2.385-2.7,1.749-5.535,3.27-7.677,4.5" transform="translate(-990.631 -43.502)" fill="#ddd"/>
        <path id="Path_1752" data-name="Path 1752" d="M422.467,124.352l-3.476-3.515a22.407,22.407,0,0,1,3.739-3.063,68.326,68.326,0,0,1,9.134-3.97c.84-.288,3,.7,3.02,1.176.058,1.339-.822,3.924-1.08,3.892-3.679-.455-5.263,2.43-7.5,4.355-.714.615-1.95.6-3.839,1.124" transform="translate(-293.956 -79.207)" fill="#ddd"/>
        <path id="Path_1753" data-name="Path 1753" d="M2386.259,452.582c-1.671-6.719-3.077-12.379-4.433-17.836.812-.5,1.13-.855,1.313-.793,1.664.564,5.782,9.076,5.611,10.764-.105,1.043.607,2.177.975,3.263.546,1.614,1.112,3.221,1.669,4.832l-5.136-.23" transform="translate(-1671.042 -302.157)" fill="#ddd"/>
        <path id="Path_1754" data-name="Path 1754" d="M554.345,129.584c1.009-.389,2.392-1.379,3.719-1.307s3.632,1.172,3.659,1.892c.062,1.674-.493,4.139-1.68,4.957-4.267,2.941-10.18.111-10.913-4.986-.119-.829.706-1.8,1.095-2.7l4.12,2.146" transform="translate(-385.25 -88.736)" fill="#ddd"/>
        <path id="Path_1755" data-name="Path 1755" d="M666.994,809.056l4.181-.483c.709-1.445,1.041-3.477,2.136-4.082,2.536-1.4,7.533,1.836,10.329,6.226H667.088q-.047-.831-.094-1.661" transform="translate(-467.95 -559.936)" fill="#ddd"/>
        <path id="Path_1756" data-name="Path 1756" d="M2444.987,1403.423c-1.291,6.713-3.306,9.041-7.292,8.021-3.4-.869-3.16-3.619-2.468-6.258.89-3.392,3.784-3.877,9.76-1.764" transform="translate(-1708.21 -976.317)" fill="#ddd"/>
        <path id="Path_1757" data-name="Path 1757" d="M597.067,178.075c-.8-10.384,3.012-13.079,13.127-9.053l-13.127,9.053" transform="translate(-418.818 -116.449)" fill="#ddd"/>
        <path id="Path_1758" data-name="Path 1758" d="M1913.583,53.246c-1.438.431-3.136.5-4.269,1.355-4.433,3.332-6.742,1.026-8.715-2.9,2.479-1.57,4.694-3.434,7.239-4.373,1.114-.412,3.246.722,4.281,1.791.914.943.947,2.77,1.369,4.207Z" transform="translate(-1333.424 -32.892)" fill="#ddd"/>
        <path id="Path_1759" data-name="Path 1759" d="M551.953,83.411c2.487,1.826,4.772,3.148,6.552,4.979.767.789.489,2.632.686,4-1.816.07-3.713.495-5.421.091-1.264-.3-2.4-1.562-3.379-2.6a34.447,34.447,0,0,1-2.671-3.639l4.234-2.827" transform="translate(-384.269 -58.08)" fill="#ddd"/>
        <path id="Path_1760" data-name="Path 1760" d="M646.446,300.17c-1.987,1.372-3.543,2.561-5.21,3.556a31.152,31.152,0,0,1-3.662,1.62c-.687-1.785-1.795-3.544-1.9-5.363a4.213,4.213,0,0,1,2.386-3.156c3.423-1.148,6.488-.5,8.384,3.343" transform="translate(-445.976 -206.325)" fill="#ddd"/>
        <path id="Path_1761" data-name="Path 1761" d="M1931.578,67.108c4.616-.18,5.542,3.478,7.24,7.021-4.843,1.843-8.47-.008-12.435-2.227l5.283-4.863-.088.07" transform="translate(-1351.512 -46.679)" fill="#ddd"/>
        <path id="Path_1762" data-name="Path 1762" d="M1975.161,89.15c-1.974-1.847-4.281-3.337-4.075-3.934.676-1.966,2.518-5.209,3.445-5.055,2.168.362,4.064,2.412,6.07,3.779l-5.439,5.211" transform="translate(-1382.866 -55.813)" fill="#ddd"/>
        <path id="Path_1763" data-name="Path 1763" d="M1938.394,899.372c5.23,2.789,5.894,6,5.315,9.445a4.292,4.292,0,0,1-2.738,2.781c-.755.177-2.664-1.328-2.745-2.206a88.419,88.419,0,0,1,.167-10.02" transform="translate(-1359.746 -626.232)" fill="#ddd"/>
        <path id="Path_1764" data-name="Path 1764" d="M608.463,94.388c-2.084,1.776-3.533,3.853-4.506,3.643-1.462-.315-3.538-2.194-3.588-3.479-.048-1.245,1.968-3.288,3.392-3.633,1-.242,2.529,1.775,4.7,3.469" transform="translate(-421.207 -63.294)" fill="#ddd"/>
        <path id="Path_1765" data-name="Path 1765" d="M2337.169,657.056a28.659,28.659,0,0,1,1.01,5.309,22.064,22.064,0,0,1-1,4.644c-.823-1-1.62-2.026-2.472-3-2.9-3.312-2.785-3.76,2.457-6.953" transform="translate(-1636.654 -457.507)" fill="#ddd"/>
        <path id="Path_1766" data-name="Path 1766" d="M817.4,1526.191l-9.837,2.851v-5c3.283.2,6.709-3.144,9.837,2.15" transform="translate(-566.568 -1060.587)" fill="#ddd"/>
        <path id="Path_1767" data-name="Path 1767" d="M2267.75,749.787c.552,1.479,1.437,2.932,1.555,4.446a9.626,9.626,0,0,1-1.093,4.171c-.081.194-1.991.07-2.228-.37a9.333,9.333,0,0,1-1.431-4.427c.048-1.294,1.173-2.548,1.822-3.819l1.375,0" transform="translate(-1588.764 -522.076)" fill="#ddd"/>
        <path id="Path_1768" data-name="Path 1768" d="M564.042,230.968c-.705,1.206-1.178,3.11-2.171,3.452-1.46.5-3.292-.106-4.966-.241.248-1.271.11-3.247.831-3.657,1.264-.719,3.057-.606,4.623-.573.615.013,1.216.751,1.827,1.162l-.144-.143" transform="translate(-390.714 -160.096)" fill="#ddd"/>
        <path id="Path_1769" data-name="Path 1769" d="M2309.7,141.852a62.013,62.013,0,0,1,7.622.094c1.04.137,1.952,1.292,2.922,1.986-.878.682-1.751,1.933-2.637,1.943-3.032.034-6.4.324-7.907-4.023" transform="translate(-1620.441 -98.723)" fill="#ddd"/>
        <path id="Path_1770" data-name="Path 1770" d="M498.453,91.039l-8.5,1.687-.9-1.506c1.67-1.26,3.193-3.1,5.058-3.591,1.423-.375,3.281.958,4.946,1.531l-.611,1.878" transform="translate(-343.115 -60.972)" fill="#ddd"/>
        <path id="Path_1771" data-name="Path 1771" d="M2261.848,884.659l-5.111,10.9c-1.746-4.161-1.746-4.161,3.463-11.594l1.647.695" transform="translate(-1582.549 -615.503)" fill="#ddd"/>
        <path id="Path_1772" data-name="Path 1772" d="M2526.72,1029.695c.83,5.039-.85,7.611-4.182,7.165a3.509,3.509,0,0,1-2.193-1.679c-.179-.319.714-1.5,1.345-1.993.779-.6,1.847-.8,2.689-1.343a20.736,20.736,0,0,0,2.341-2.151" transform="translate(-1768.208 -716.975)" fill="#ddd"/>
        <path id="Path_1773" data-name="Path 1773" d="M2177.348,800.533c2.743,2.864,1.7,5.169-.342,7.055-.509.472-2.807.084-3.01-.429-1.249-3.167.435-5.1,3.352-6.626" transform="translate(-1524.94 -557.41)" fill="#ddd"/>
        <path id="Path_1774" data-name="Path 1774" d="M2571.206,205.1c1.657-4.786,3.687-6.468,7-5.3.612.216.709,1.946,1.044,2.978l-8.046,2.322" transform="translate(-1803.908 -138.876)" fill="#ddd"/>
        <path id="Path_1775" data-name="Path 1775" d="M2340.924,974.209c-4.975-2.234-4.982-2.792,0-10.578Z" transform="translate(-1639.727 -670.975)" fill="#ddd"/>
        <path id="Path_1776" data-name="Path 1776" d="M500.223,106.96c-.021,5.474-5.276,3.15-6.965,6.117-1.2-5.221-1.2-5.221,6.965-6.117" transform="translate(-345.66 -74.477)" fill="#ddd"/>
        <path id="Path_1777" data-name="Path 1777" d="M2279.539,1074.714l-8.726,4.867c3-7.248,4.18-7.895,8.726-4.867" transform="translate(-1593.158 -747.135)" fill="#ddd"/>
        <path id="Path_1778" data-name="Path 1778" d="M2542.628,1015.935l-4.175-7.761c5.647.372,7.063,2.975,4.175,7.761" transform="translate(-1780.929 -701.99)" fill="#ddd"/>
        <path id="Path_1779" data-name="Path 1779" d="M2395.01,1006.087c1.583-6.51,1.957-6.656,7.859-3.433l-7.859,3.433" transform="translate(-1680.292 -696.712)" fill="#ddd"/>
        <path id="Path_1780" data-name="Path 1780" d="M2633.54,1194.619c5.419-1.9,6.9-.777,6.373,4.775l-6.373-4.775" transform="translate(-1847.64 -831.216)" fill="#ddd"/>
        <path id="Path_1781" data-name="Path 1781" d="M600.8,151.268c-.434-1.242-1.507-2.758-1.136-3.656a4.748,4.748,0,0,1,3.289-2.242,3.2,3.2,0,0,1,2.515,1.965c.084,1.386-.746,2.831-1.2,4.251l-3.472-.317" transform="translate(-420.66 -101.216)" fill="#ddd"/>
        <path id="Path_1782" data-name="Path 1782" d="M595.707,66.721l4,2.875-3.215,2.4-2.5-3.536,1.716-1.736" transform="translate(-416.732 -46.459)" fill="#ddd"/>
        <path id="Path_1783" data-name="Path 1783" d="M2301.086,864.61,2295.3,861.9c.592-.86,1.1-2.373,1.792-2.465,2.6-.347,4.181.884,3.993,5.171" transform="translate(-1610.338 -598.388)" fill="#ddd"/>
        <path id="Path_1784" data-name="Path 1784" d="M882.261,233.682l-7.527.917c1.286-1.931,1.821-3.569,2.553-3.666,1.635-.217,3.369.334,5.063.572q-.045,1.088-.09,2.176" transform="translate(-613.696 -160.765)" fill="#ddd"/>
        <path id="Path_1785" data-name="Path 1785" d="M707.642,262.949l2.406-4.654a18.179,18.179,0,0,1,2.188,1.455,49.575,49.575,0,0,1-2.512,4.383l-2.082-1.184" transform="translate(-496.468 -179.851)" fill="#ddd"/>
        <path id="Path_1786" data-name="Path 1786" d="M1344.849,594.387c-1.383-5.065-1.257-5.378,3.025-5.592-.545,2.171-1.034,4.115-1.523,6.059l-1.5-.467" transform="translate(-942.969 -409.977)" fill="#ddd"/>
        <path id="Path_1787" data-name="Path 1787" d="M2273.919,862.952l4.193,3.56-.266,1.061c-1.4,0-3.118.5-4.111-.152-.848-.554-.863-2.425-1.247-3.713l1.432-.756" transform="translate(-1594.332 -600.872)" fill="#ddd"/>
        <path id="Path_1788" data-name="Path 1788" d="M642.276,823.753c-1.9,0-3.795.039-5.682-.091a10.5,10.5,0,0,1-.229-2.031l5.826-.291q.043,1.206.086,2.413" transform="translate(-446.461 -571.898)" fill="#ddd"/>
      </g>
    </g>
    <g id="Group_7067" data-name="Group 7067" transform="translate(432 15)">
      <circle id="Ellipse_407" data-name="Ellipse 407" cx="2" cy="2" r="2" transform="translate(1123 6041)" fill="#0090df"/>
      <g id="Ellipse_408" data-name="Ellipse 408" transform="translate(1121 6039)" fill="none" stroke="#fff" stroke-width="1">
        <circle cx="4" cy="4" r="4" stroke="none"/>
        <circle cx="4" cy="4" r="3.5" fill="none"/>
      </g>
    </g>
    <g id="Group_7068" data-name="Group 7068" transform="translate(-61 -46)">
      <circle id="Ellipse_407-2" data-name="Ellipse 407" cx="2" cy="2" r="2" transform="translate(1123 6041)" fill="#0090df"/>
      <g id="Ellipse_408-2" data-name="Ellipse 408" transform="translate(1121 6039)" fill="none" stroke="#fff" stroke-width="1">
        <circle cx="4" cy="4" r="4" stroke="none"/>
        <circle cx="4" cy="4" r="3.5" fill="none"/>
      </g>
    </g>
    <g id="Group_7069" data-name="Group 7069" transform="translate(-39 46)">
      <circle id="Ellipse_407-3" data-name="Ellipse 407" cx="2" cy="2" r="2" transform="translate(1123 6041)" fill="#0090df"/>
      <g id="Ellipse_408-3" data-name="Ellipse 408" transform="translate(1121 6039)" fill="none" stroke="#fff" stroke-width="1">
        <circle cx="4" cy="4" r="4" stroke="none"/>
        <circle cx="4" cy="4" r="3.5" fill="none"/>
      </g>
    </g>
    <g id="Group_7070" data-name="Group 7070" transform="translate(128 -67)">
      <circle id="Ellipse_407-4" data-name="Ellipse 407" cx="2" cy="2" r="2" transform="translate(1123 6041)" fill="#0090df"/>
      <g id="Ellipse_408-4" data-name="Ellipse 408" transform="translate(1121 6039)" fill="none" stroke="#fff" stroke-width="1">
        <circle cx="4" cy="4" r="4" stroke="none"/>
        <circle cx="4" cy="4" r="3.5" fill="none"/>
      </g>
    </g>
    <g id="Group_7071" data-name="Group 7071" transform="translate(54 -113)">
      <circle id="Ellipse_407-5" data-name="Ellipse 407" cx="2" cy="2" r="2" transform="translate(1123 6041)" fill="#0090df"/>
      <g id="Ellipse_408-5" data-name="Ellipse 408" transform="translate(1121 6039)" fill="none" stroke="#fff" stroke-width="1">
        <circle cx="4" cy="4" r="4" stroke="none"/>
        <circle cx="4" cy="4" r="3.5" fill="none"/>
      </g>
    </g>
    <g id="Group_7072" data-name="Group 7072" transform="translate(-114 -59)">
      <circle id="Ellipse_407-6" data-name="Ellipse 407" cx="2" cy="2" r="2" transform="translate(1123 6041)" fill="#0090df"/>
      <g id="Ellipse_408-6" data-name="Ellipse 408" transform="translate(1121 6039)" fill="none" stroke="#fff" stroke-width="1">
        <circle cx="4" cy="4" r="4" stroke="none"/>
        <circle cx="4" cy="4" r="3.5" fill="none"/>
      </g>
    </g>
    <g id="Group_7073" data-name="Group 7073" transform="translate(245 12)">
      <circle id="Ellipse_407-7" data-name="Ellipse 407" cx="2" cy="2" r="2" transform="translate(1123 6041)" fill="#0090df"/>
      <g id="Ellipse_408-7" data-name="Ellipse 408" transform="translate(1121 6039)" fill="none" stroke="#fff" stroke-width="1">
        <circle cx="4" cy="4" r="4" stroke="none"/>
        <circle cx="4" cy="4" r="3.5" fill="none"/>
      </g>
    </g>
    <g id="Group_7074" data-name="Group 7074" transform="translate(281 -5)">
      <circle id="Ellipse_407-8" data-name="Ellipse 407" cx="2" cy="2" r="2" transform="translate(1123 6041)" fill="#0090df"/>
      <g id="Ellipse_408-8" data-name="Ellipse 408" transform="translate(1121 6039)" fill="none" stroke="#fff" stroke-width="1">
        <circle cx="4" cy="4" r="4" stroke="none"/>
        <circle cx="4" cy="4" r="3.5" fill="none"/>
      </g>
    </g>
    <g id="Group_7080" data-name="Group 7080" transform="translate(487 -67)">
      <circle id="Ellipse_407-9" data-name="Ellipse 407" cx="2" cy="2" r="2" transform="translate(1123 6041)" fill="#0090df"/>
      <g id="Ellipse_408-9" data-name="Ellipse 408" transform="translate(1121 6039)" fill="none" stroke="#fff" stroke-width="1">
        <circle cx="4" cy="4" r="4" stroke="none"/>
        <circle cx="4" cy="4" r="3.5" fill="none"/>
      </g>
    </g>
    <g id="Group_7081" data-name="Group 7081" transform="translate(479 69)">
      <circle id="Ellipse_407-10" data-name="Ellipse 407" cx="2" cy="2" r="2" transform="translate(1123 6041)" fill="#0090df"/>
      <g id="Ellipse_408-10" data-name="Ellipse 408" transform="translate(1121 6039)" fill="none" stroke="#fff" stroke-width="1">
        <circle cx="4" cy="4" r="4" stroke="none"/>
        <circle cx="4" cy="4" r="3.5" fill="none"/>
      </g>
    </g>
    <g id="Group_7084" data-name="Group 7084" transform="translate(564 223)">
      <circle id="Ellipse_407-11" data-name="Ellipse 407" cx="2" cy="2" r="2" transform="translate(1123 6041)" fill="#0090df"/>
      <g id="Ellipse_408-11" data-name="Ellipse 408" transform="translate(1121 6039)" fill="none" stroke="#fff" stroke-width="1">
        <circle cx="4" cy="4" r="4" stroke="none"/>
        <circle cx="4" cy="4" r="3.5" fill="none"/>
      </g>
    </g>
    <g id="Group_7085" data-name="Group 7085" transform="translate(521 234)">
      <circle id="Ellipse_407-12" data-name="Ellipse 407" cx="2" cy="2" r="2" transform="translate(1123 6041)" fill="#0090df"/>
      <g id="Ellipse_408-12" data-name="Ellipse 408" transform="translate(1121 6039)" fill="none" stroke="#fff" stroke-width="1">
        <circle cx="4" cy="4" r="4" stroke="none"/>
        <circle cx="4" cy="4" r="3.5" fill="none"/>
      </g>
    </g>
    <g id="Group_7082" data-name="Group 7082" transform="translate(600 -59)">
      <circle id="Ellipse_407-13" data-name="Ellipse 407" cx="2" cy="2" r="2" transform="translate(1123 6041)" fill="#0090df"/>
      <g id="Ellipse_408-13" data-name="Ellipse 408" transform="translate(1121 6039)" fill="none" stroke="#fff" stroke-width="1">
        <circle cx="4" cy="4" r="4" stroke="none"/>
        <circle cx="4" cy="4" r="3.5" fill="none"/>
      </g>
    </g>
    <g id="Group_7083" data-name="Group 7083" transform="translate(368 -45)">
      <circle id="Ellipse_407-14" data-name="Ellipse 407" cx="2" cy="2" r="2" transform="translate(1123 6041)" fill="#0090df"/>
      <g id="Ellipse_408-14" data-name="Ellipse 408" transform="translate(1121 6039)" fill="none" stroke="#fff" stroke-width="1">
        <circle cx="4" cy="4" r="4" stroke="none"/>
        <circle cx="4" cy="4" r="3.5" fill="none"/>
      </g>
    </g>
    <g id="Group_7075" data-name="Group 7075" transform="translate(324 43)">
      <circle id="Ellipse_407-15" data-name="Ellipse 407" cx="2" cy="2" r="2" transform="translate(1123 6041)" fill="#0090df"/>
      <g id="Ellipse_408-15" data-name="Ellipse 408" transform="translate(1121 6039)" fill="none" stroke="#fff" stroke-width="1">
        <circle cx="4" cy="4" r="4" stroke="none"/>
        <circle cx="4" cy="4" r="3.5" fill="none"/>
      </g>
    </g>
    <g id="Group_7076" data-name="Group 7076" transform="translate(209 99)">
      <circle id="Ellipse_407-16" data-name="Ellipse 407" cx="2" cy="2" r="2" transform="translate(1123 6041)" fill="#0090df"/>
      <g id="Ellipse_408-16" data-name="Ellipse 408" transform="translate(1121 6039)" fill="none" stroke="#fff" stroke-width="1">
        <circle cx="4" cy="4" r="4" stroke="none"/>
        <circle cx="4" cy="4" r="3.5" fill="none"/>
      </g>
    </g>
    <g id="Group_7077" data-name="Group 7077" transform="translate(46 160)">
      <circle id="Ellipse_407-17" data-name="Ellipse 407" cx="2" cy="2" r="2" transform="translate(1123 6041)" fill="#0090df"/>
      <g id="Ellipse_408-17" data-name="Ellipse 408" transform="translate(1121 6039)" fill="none" stroke="#fff" stroke-width="1">
        <circle cx="4" cy="4" r="4" stroke="none"/>
        <circle cx="4" cy="4" r="3.5" fill="none"/>
      </g>
    </g>
    <g id="Group_7078" data-name="Group 7078" transform="translate(127 179)">
      <circle id="Ellipse_407-18" data-name="Ellipse 407" cx="2" cy="2" r="2" transform="translate(1123 6041)" fill="#0090df"/>
      <g id="Ellipse_408-18" data-name="Ellipse 408" transform="translate(1121 6039)" fill="none" stroke="#fff" stroke-width="1">
        <circle cx="4" cy="4" r="4" stroke="none"/>
        <circle cx="4" cy="4" r="3.5" fill="none"/>
      </g>
    </g>
    <g id="Group_7079" data-name="Group 7079" transform="translate(302 160)">
      <circle id="Ellipse_407-19" data-name="Ellipse 407" cx="2" cy="2" r="2" transform="translate(1123 6041)" fill="#0090df"/>
      <g id="Ellipse_408-19" data-name="Ellipse 408" transform="translate(1121 6039)" fill="none" stroke="#fff" stroke-width="1">
        <circle cx="4" cy="4" r="4" stroke="none"/>
        <circle cx="4" cy="4" r="3.5" fill="none"/>
      </g>
    </g>
  </g>
</svg>
