<svg id="new-product" xmlns="http://www.w3.org/2000/svg" width="105.876" height="105.876" viewBox="0 0 105.876 105.876">
  <path id="Path_68083" data-name="Path 68083" d="M137.473,288H73.885l-6.831,13.661h6.179V332.4h64.892V301.661H144.3Zm-2.111,3.415,3.415,6.831H111.858l-3.415-6.831Zm-59.365,0h26.919L99.5,298.246H72.581Zm58.713,37.569H107.387V317.031h-3.415v11.954H76.649V301.661h24.963l2.36-4.72v14.966h3.415V296.941l2.36,4.72H134.71Zm0,0" transform="translate(-52.741 -226.524)" fill="#484848"/>
  <path id="Path_68084" data-name="Path 68084" d="M128,416h10.246v3.415H128Zm0,0" transform="translate(-100.677 -327.201)" fill="#484848"/>
  <path id="Path_68085" data-name="Path 68085" d="M128,448h10.246v3.415H128Zm0,0" transform="translate(-100.677 -352.37)" fill="#484848"/>
  <path id="Path_68086" data-name="Path 68086" d="M192,448h3.415v3.415H192Zm0,0" transform="translate(-151.016 -352.37)" fill="#484848"/>
  <path id="Path_68087" data-name="Path 68087" d="M193.336,36.647l7.886-2.01,7.886,2.009.618-8.468,4.189-7.156-7.409-3.207-5.284-6.533-5.286,6.533-7.409,3.207,4.189,7.156Zm4.729-16.034,3.158-3.9,3.158,3.9,4.641,2.01-2.642,4.513L206,32.331l-4.778-1.217-4.778,1.216-.379-5.193-2.642-4.514Zm0,0" transform="translate(-148.284 -8.873)" fill="#484848"/>
  <path id="Path_68088" data-name="Path 68088" d="M41.194,109.348l2.481-4.237-4.4-1.9-3.174-3.926-3.174,3.924-4.4,1.9,2.481,4.237.367,5.053,4.722-1.2,4.724,1.2Zm-3.347-1.042-.13,1.778-1.612-.409-1.61.409-.132-1.778-.934-1.6,1.628-.7,1.048-1.293,1.046,1.295,1.628.705Zm0,0" transform="translate(-22.444 -78.089)" fill="#484848"/>
  <path id="Path_68089" data-name="Path 68089" d="M409.194,109.348l2.481-4.237-4.4-1.9-3.174-3.926-3.174,3.924-4.4,1.9,2.481,4.237.367,5.053,4.722-1.2,4.724,1.2Zm-3.347-1.042-.13,1.778-1.612-.409-1.61.409-.13-1.778-.934-1.6,1.628-.7,1.046-1.293,1.046,1.295,1.628.705Zm0,0" transform="translate(-311.891 -78.089)" fill="#484848"/>
  <path id="Path_68090" data-name="Path 68090" d="M94.935,150.693a37.87,37.87,0,0,1,8.582,7.869l6.764,8.452-1.4-11.189a21.933,21.933,0,0,0-8.56-14.75l-1.636-1.227L93.68,149.856Zm4.922-5.55a18.534,18.534,0,0,1,5.517,10.3,41.35,41.35,0,0,0-7.3-6.736Zm0,0" transform="translate(-73.683 -109.996)" fill="#484848"/>
  <path id="Path_68091" data-name="Path 68091" d="M325.95,155.818l-1.4,11.189,6.764-8.453a37.905,37.905,0,0,1,8.582-7.869l1.253-.837-5.005-10.008-1.636,1.23A21.927,21.927,0,0,0,325.95,155.818Zm10.809-7.113a41.229,41.229,0,0,0-7.3,6.736,18.545,18.545,0,0,1,5.517-10.3Zm0,0" transform="translate(-255.272 -109.99)" fill="#484848"/>
  <path id="Path_68092" data-name="Path 68092" d="M280,154.71h3.415v-7.155a35.188,35.188,0,0,1,8.144-22.49l-2.625-2.186A38.621,38.621,0,0,0,280,147.555Zm0,0" transform="translate(-220.231 -96.649)" fill="#484848"/>
  <path id="Path_68093" data-name="Path 68093" d="M336,96h3.415v3.415H336Zm0,0" transform="translate(-264.278 -75.508)" fill="#484848"/>
  <path id="Path_68094" data-name="Path 68094" d="M360,64h3.415v3.415H360Zm0,0" transform="translate(-283.155 -50.339)" fill="#484848"/>
  <path id="Path_68095" data-name="Path 68095" d="M170,154.71h3.415v-7.155a38.625,38.625,0,0,0-8.933-24.676l-2.625,2.186A35.2,35.2,0,0,1,170,147.555Zm0,0" transform="translate(-127.306 -96.649)" fill="#484848"/>
  <path id="Path_68096" data-name="Path 68096" d="M144,96h3.415v3.415H144Zm0,0" transform="translate(-113.262 -75.508)" fill="#484848"/>
  <path id="Path_68097" data-name="Path 68097" d="M120,64h3.415v3.415H120Zm0,0" transform="translate(-94.385 -50.339)" fill="#484848"/>
  <path id="Path_68098" data-name="Path 68098" d="M240,136h3.415v3.415H240Zm0,0" transform="translate(-188.77 -106.969)" fill="#484848"/>
  <path id="Path_68099" data-name="Path 68099" d="M240,168h3.415v22.2H240Zm0,0" transform="translate(-188.77 -132.139)" fill="#484848"/>
  <path id="Path_68100" data-name="Path 68100" d="M464,216h3.415v3.415H464Zm0,0" transform="translate(-364.955 -169.893)" fill="#484848"/>
  <path id="Path_68101" data-name="Path 68101" d="M464,248h3.415v3.415H464Zm0,0" transform="translate(-364.955 -195.062)" fill="#484848"/>
  <path id="Path_68102" data-name="Path 68102" d="M480,232h3.415v3.415H480Zm0,0" transform="translate(-377.539 -182.477)" fill="#484848"/>
  <path id="Path_68103" data-name="Path 68103" d="M448,232h3.415v3.415H448Zm0,0" transform="translate(-352.37 -182.477)" fill="#484848"/>
  <path id="Path_68104" data-name="Path 68104" d="M440,0h3.415V3.415H440Zm0,0" transform="translate(-346.078)" fill="#484848"/>
  <path id="Path_68105" data-name="Path 68105" d="M440,32h3.415v3.415H440Zm0,0" transform="translate(-346.078 -25.169)" fill="#484848"/>
  <path id="Path_68106" data-name="Path 68106" d="M456,16h3.415v3.415H456Zm0,0" transform="translate(-358.662 -12.585)" fill="#484848"/>
  <path id="Path_68107" data-name="Path 68107" d="M424,16h3.415v3.415H424Zm0,0" transform="translate(-333.493 -12.585)" fill="#484848"/>
  <path id="Path_68108" data-name="Path 68108" d="M16,248h3.415v3.415H16Zm0,0" transform="translate(-12.585 -195.062)" fill="#484848"/>
  <path id="Path_68109" data-name="Path 68109" d="M16,280h3.415v3.415H16Zm0,0" transform="translate(-12.585 -220.231)" fill="#484848"/>
  <path id="Path_68110" data-name="Path 68110" d="M32,264h3.415v3.415H32Zm0,0" transform="translate(-25.169 -207.647)" fill="#484848"/>
  <path id="Path_68111" data-name="Path 68111" d="M0,264H3.415v3.415H0Zm0,0" transform="translate(0 -207.647)" fill="#484848"/>
  <path id="Path_68112" data-name="Path 68112" d="M16,0h3.415V3.415H16Zm0,0" transform="translate(-12.585)" fill="#484848"/>
  <path id="Path_68113" data-name="Path 68113" d="M16,32h3.415v3.415H16Zm0,0" transform="translate(-12.585 -25.169)" fill="#484848"/>
  <path id="Path_68114" data-name="Path 68114" d="M32,16h3.415v3.415H32Zm0,0" transform="translate(-25.169 -12.585)" fill="#484848"/>
  <path id="Path_68115" data-name="Path 68115" d="M0,16H3.415v3.415H0Zm0,0" transform="translate(0 -12.585)" fill="#484848"/>
</svg>
