<svg xmlns="http://www.w3.org/2000/svg" width="128.216" height="94.367" viewBox="0 0 128.216 94.367">
  <g id="Group_7388" data-name="Group 7388" transform="translate(-1463.476 -5068)">
    <circle id="Ellipse_689" data-name="Ellipse 689" cx="20.5" cy="20.5" r="20.5" transform="translate(1523 5068)" fill="#f27e92" opacity="0.502"/>
    <circle id="Ellipse_691" data-name="Ellipse 691" cx="29.5" cy="29.5" r="29.5" transform="translate(1557.529 5162.367) rotate(-169)" fill="#aeebb1" opacity="0.502"/>
    <circle id="Ellipse_694" data-name="Ellipse 694" cx="22.5" cy="22.5" r="22.5" transform="translate(1583.105 5140.852) rotate(-169)" fill="#88c6f2" opacity="0.502"/>
    <g id="Group_7314" data-name="Group 7314" transform="translate(1208.924 4820.094)">
      <path id="Path_67966" data-name="Path 67966" d="M352.026,314.582v-52.72a4.331,4.331,0,0,0-4.326-4.326H264.451a4.331,4.331,0,0,0-4.326,4.326v52.72h-5.572v3.871l4.342,6.071h94.363l4.342-6.071v-3.871Zm-89.542-52.72a1.968,1.968,0,0,1,1.967-1.967H347.7a1.969,1.969,0,0,1,1.967,1.967v52.72H262.484ZM355.239,317.7l-3.2,4.468H260.107l-3.2-4.468v-.754h98.327Z"/>
      <path id="Path_67967" data-name="Path 67967" d="M494.017,317.967a6.5,6.5,0,1,0-6.5-6.5A6.5,6.5,0,0,0,494.017,317.967Zm0-10.634a4.137,4.137,0,1,1-4.137,4.137A4.142,4.142,0,0,1,494.017,307.333Z" transform="translate(-192.341 -39.164)"/>
      <path id="Path_67968" data-name="Path 67968" d="M373.112,393.693c-.146-3.724-.569-7.542-.576-7.542a6.607,6.607,0,0,0-.946-3.273,5.7,5.7,0,0,0-3-2.489l-4.651-1.66-3.833,7.134h-.618l-3.842-7.133-4.657,1.662a5.76,5.76,0,0,0-1.933,1.193,5.818,5.818,0,0,0-1.943-1.2l-4.649-1.659-3.841,7.133H338l-3.832-7.134-4.661,1.664a5.678,5.678,0,0,0-2.991,2.484,6.4,6.4,0,0,0-.942,3.144c0,.038-.435,3.9-.582,7.672l-.049,1.226h48.219Zm-45.705-1.133c.175-3.251.509-6.257.519-6.407a4.4,4.4,0,0,1,.638-2.1,3.313,3.313,0,0,1,1.747-1.436l2.739-.978,3.54,6.589h3.44l3.546-6.589,2.733.976a3.3,3.3,0,0,1,1.673,1.294l.075.148c.995,1.15,1.138,8.2,1.154,8.481,0,.009,0,.019,0,.028Zm24.168,0c0-.019-.015-.041,0-.057.19-.271-.522-8.327-1.109-8.913-.02-.02-.016-.052-.028-.078a3.37,3.37,0,0,1,1.35-.9l2.741-.979,3.547,6.589h3.438l3.541-6.589,2.729.974a3.329,3.329,0,0,1,1.758,1.441,4.59,4.59,0,0,1,.644,2.234c0,.034.336,3.024.513,6.276Z" transform="translate(-58.115 -100.058)"/>
      <path id="Path_67969" data-name="Path 67969" d="M370.846,317.967a6.5,6.5,0,1,0-6.5-6.5A6.5,6.5,0,0,0,370.846,317.967Zm0-10.634a4.137,4.137,0,1,1-4.138,4.137A4.142,4.142,0,0,1,370.846,307.333Z" transform="translate(-90.649 -39.164)"/>
      <path id="Path_67970" data-name="Path 67970" d="M635.026,413.081h22.812V402.156H635.026Zm2.36-8.566h18.092v6.206H637.386Z" transform="translate(-314.123 -119.4)"/>
      <rect id="Rectangle_5541" data-name="Rectangle 5541" width="22.812" height="2.36" transform="translate(320.903 275.283)"/>
      <rect id="Rectangle_5542" data-name="Rectangle 5542" width="16.126" height="2.36" transform="translate(327.589 269.187)"/>
      <path id="Path_67971" data-name="Path 67971" d="M331.982,504.8h15.964V493.875H331.982Zm2.36-8.565h11.245v6.205H334.342Z" transform="translate(-63.927 -195.124)"/>
      <path id="Path_67972" data-name="Path 67972" d="M446.078,504.8h15.966V493.875H446.078Zm2.36-8.565h11.246v6.205H448.438Z" transform="translate(-158.126 -195.124)"/>
      <path id="Path_67973" data-name="Path 67973" d="M560.184,504.8H576.15V493.875H560.184Zm2.36-8.565H573.79v6.205H562.544Z" transform="translate(-252.333 -195.124)"/>
      <path id="Path_67974" data-name="Path 67974" d="M674.29,504.8h15.964V493.875H674.29Zm2.36-8.565h11.245v6.205H676.65Z" transform="translate(-346.54 -195.124)"/>
    </g>
  </g>
</svg>
