<svg xmlns="http://www.w3.org/2000/svg" width="107.769" height="88.31" viewBox="0 0 107.769 88.31">
  <g id="Group_7400" data-name="Group 7400" transform="translate(-351.568 -6471.923)">
    <ellipse id="Ellipse_539" data-name="Ellipse 539" cx="33.624" cy="33.624" rx="33.624" ry="33.624" transform="matrix(0.921, -0.391, 0.391, 0.921, 351.568, 6498.198)" fill="#88c6f2" opacity="0.498"/>
    <ellipse id="Ellipse_538" data-name="Ellipse 538" cx="23.661" cy="23.661" rx="23.661" ry="23.661" transform="matrix(0.921, -0.391, 0.391, 0.921, 397.287, 6516.672)" fill="#f27e92" opacity="0.498"/>
    <g id="edit" transform="translate(377.355 6481.719)">
      <path id="Path_68046" data-name="Path 68046" d="M53.069,69.5a1.432,1.432,0,0,0-1.432,1.432V83.649a4.3,4.3,0,0,1-4.3,4.3H7.16a4.3,4.3,0,0,1-4.3-4.3V46.332a4.3,4.3,0,0,1,4.3-4.3H19.875a1.432,1.432,0,0,0,0-2.864H7.16A7.168,7.168,0,0,0,0,46.332V83.649a7.168,7.168,0,0,0,7.16,7.16H47.341a7.168,7.168,0,0,0,7.16-7.16V70.934A1.432,1.432,0,0,0,53.069,69.5Zm0,0" transform="translate(0 -33.6)" fill="#484848"/>
      <path id="Path_68047" data-name="Path 68047" d="M146.63,2.148a6.444,6.444,0,0,0-9.113,0L111.969,27.7a1.432,1.432,0,0,0-.368.63l-3.36,12.129A1.432,1.432,0,0,0,110,42.218l12.129-3.36a1.432,1.432,0,0,0,.63-.368l25.547-25.549a6.451,6.451,0,0,0,0-9.113ZM115.089,28.627,136,7.717l6.743,6.743-20.91,20.91Zm-1.347,2.7,5.387,5.388-7.452,2.065Zm32.543-20.413-1.519,1.519-6.744-6.744,1.519-1.519a3.58,3.58,0,0,1,5.062,0l1.681,1.68A3.585,3.585,0,0,1,146.286,10.917Zm0,0" transform="translate(-92.697 -0.261)" fill="#484848"/>
    </g>
  </g>
</svg>
