<svg xmlns="http://www.w3.org/2000/svg" width="85.861" height="78.591" viewBox="0 0 85.861 78.591">
  <g id="Group_7401" data-name="Group 7401" transform="translate(-637.179 -6460.103)">
    <ellipse id="Ellipse_545" data-name="Ellipse 545" cx="33.624" cy="33.624" rx="33.624" ry="33.624" transform="matrix(-0.174, -0.985, 0.985, -0.174, 656.814, 6538.006)" fill="#88c6f2" opacity="0.486"/>
    <ellipse id="Ellipse_546" data-name="Ellipse 546" cx="23.661" cy="23.661" rx="23.661" ry="23.661" transform="matrix(-0.174, -0.985, 0.985, -0.174, 645.396, 6538.693)" fill="#aeebb1" opacity="0.486"/>
    <g id="Group_7243" data-name="Group 7243" transform="translate(675.088 6480.188)">
      <g id="Group_7191" data-name="Group 7191" transform="translate(0 0)">
        <g id="Group_7190" data-name="Group 7190">
          <g id="mobile-phone">
            <g id="Group_7179" data-name="Group 7179">
              <g id="Group_7178" data-name="Group 7178">
                <path id="Path_68017" data-name="Path 68017" d="M137.837,0H112.772A4.277,4.277,0,0,0,108.5,4.272V54.06a4.277,4.277,0,0,0,4.272,4.272h25.065a4.277,4.277,0,0,0,4.272-4.272V4.272A4.277,4.277,0,0,0,137.837,0ZM140.4,46.37H116.19a.854.854,0,1,0,0,1.709H140.4V54.06a2.566,2.566,0,0,1-2.563,2.563H112.772a2.566,2.566,0,0,1-2.563-2.563V48.079h2.563a.854.854,0,0,0,0-1.709h-2.563V8.545H140.4Zm0-39.534H110.209V4.272a2.566,2.566,0,0,1,2.563-2.563h25.065A2.566,2.566,0,0,1,140.4,4.272Z" transform="translate(-108.5)" fill="#484848"/>
              </g>
            </g>
            <g id="Group_7181" data-name="Group 7181" transform="translate(15.95 3.418)">
              <g id="Group_7180" data-name="Group 7180" transform="translate(0)">
                <path id="Path_68018" data-name="Path 68018" d="M252.772,30h-3.418a.854.854,0,0,0,0,1.709h3.418a.854.854,0,1,0,0-1.709Z" transform="translate(-248.5 -30)" fill="#484848"/>
              </g>
            </g>
            <g id="Group_7183" data-name="Group 7183" transform="translate(14.241 49.788)">
              <g id="Group_7182" data-name="Group 7182">
                <path id="Path_68019" data-name="Path 68019" d="M236.063,437a2.563,2.563,0,1,0,2.563,2.563A2.566,2.566,0,0,0,236.063,437Zm0,3.418a.854.854,0,1,1,.854-.854A.855.855,0,0,1,236.063,440.418Z" transform="translate(-233.5 -437)" fill="#484848"/>
              </g>
            </g>
            <g id="Group_7185" data-name="Group 7185" transform="translate(12.392 3.238)">
              <g id="Group_7184" data-name="Group 7184" transform="translate(0 0)">
                <ellipse id="Ellipse_507" data-name="Ellipse 507" cy="0.903" ry="0.903" transform="translate(0 0)" fill="#484848"/>
              </g>
            </g>
          </g>
        </g>
      </g>
      <g id="barcode-3" transform="translate(5.415 17.531)">
        <g id="Group_7194" data-name="Group 7194" transform="translate(1.941 2.329)">
          <g id="Group_7193" data-name="Group 7193">
            <rect id="Rectangle_5544" data-name="Rectangle 5544" width="0.776" height="12.808" fill="#484848"/>
          </g>
        </g>
        <g id="Group_7196" data-name="Group 7196" transform="translate(3.881 2.329)">
          <g id="Group_7195" data-name="Group 7195">
            <rect id="Rectangle_5545" data-name="Rectangle 5545" width="1.164" height="10.867" fill="#484848"/>
          </g>
        </g>
        <g id="Group_7198" data-name="Group 7198" transform="translate(6.21 2.329)">
          <g id="Group_7197" data-name="Group 7197">
            <rect id="Rectangle_5546" data-name="Rectangle 5546" width="0.776" height="10.867" fill="#484848"/>
          </g>
        </g>
        <g id="Group_7200" data-name="Group 7200" transform="translate(7.762 2.329)">
          <g id="Group_7199" data-name="Group 7199">
            <rect id="Rectangle_5547" data-name="Rectangle 5547" width="1.164" height="10.867" fill="#484848"/>
          </g>
        </g>
        <g id="Group_7202" data-name="Group 7202" transform="translate(9.703 2.329)">
          <g id="Group_7201" data-name="Group 7201">
            <rect id="Rectangle_5548" data-name="Rectangle 5548" width="0.776" height="10.867" fill="#484848"/>
          </g>
        </g>
        <g id="Group_7204" data-name="Group 7204" transform="translate(0 0)">
          <g id="Group_7203" data-name="Group 7203">
            <path id="Path_68048" data-name="Path 68048" d="M.388,51.2A.367.367,0,0,0,0,51.588v1.941H.776V51.976H2.329V51.2Z" transform="translate(0 -51.2)" fill="#484848"/>
          </g>
        </g>
        <g id="Group_7206" data-name="Group 7206" transform="translate(11.255 2.329)">
          <g id="Group_7205" data-name="Group 7205">
            <rect id="Rectangle_5549" data-name="Rectangle 5549" width="0.776" height="12.808" fill="#484848"/>
          </g>
        </g>
        <g id="Group_7208" data-name="Group 7208" transform="translate(14.748 2.329)">
          <g id="Group_7207" data-name="Group 7207">
            <rect id="Rectangle_5550" data-name="Rectangle 5550" width="1.164" height="10.867" fill="#484848"/>
          </g>
        </g>
        <g id="Group_7210" data-name="Group 7210" transform="translate(17.077 2.329)">
          <g id="Group_7209" data-name="Group 7209">
            <rect id="Rectangle_5551" data-name="Rectangle 5551" width="0.776" height="10.867" fill="#484848"/>
          </g>
        </g>
        <g id="Group_7212" data-name="Group 7212" transform="translate(18.629 2.329)">
          <g id="Group_7211" data-name="Group 7211">
            <rect id="Rectangle_5552" data-name="Rectangle 5552" width="1.164" height="10.867" fill="#484848"/>
          </g>
        </g>
        <g id="Group_7214" data-name="Group 7214" transform="translate(20.57 2.329)">
          <g id="Group_7213" data-name="Group 7213">
            <rect id="Rectangle_5553" data-name="Rectangle 5553" width="0.776" height="12.808" fill="#484848"/>
          </g>
        </g>
        <g id="Group_7216" data-name="Group 7216" transform="translate(0 16.301)">
          <g id="Group_7215" data-name="Group 7215">
            <path id="Path_68049" data-name="Path 68049" d="M.776,411.152V409.6H0v1.941a.367.367,0,0,0,.388.388H2.329v-.776Z" transform="translate(0 -409.6)" fill="#484848"/>
          </g>
        </g>
        <g id="Group_7218" data-name="Group 7218" transform="translate(20.958 16.301)">
          <g id="Group_7217" data-name="Group 7217">
            <path id="Path_68050" data-name="Path 68050" d="M462.352,409.6v1.553H460.8v.776h1.941a.367.367,0,0,0,.388-.388V409.6Z" transform="translate(-460.8 -409.6)" fill="#484848"/>
          </g>
        </g>
        <g id="Group_7220" data-name="Group 7220" transform="translate(20.958 0)">
          <g id="Group_7219" data-name="Group 7219">
            <path id="Path_68051" data-name="Path 68051" d="M462.741,51.2H460.8v.776h1.552v1.552h.776V51.588A.367.367,0,0,0,462.741,51.2Z" transform="translate(-460.8 -51.2)" fill="#484848"/>
          </g>
        </g>
        <g id="Group_7222" data-name="Group 7222" transform="translate(3.493 13.972)">
          <g id="Group_7221" data-name="Group 7221">
            <rect id="Rectangle_5554" data-name="Rectangle 5554" width="0.776" height="1.164" fill="#484848"/>
          </g>
        </g>
        <g id="Group_7224" data-name="Group 7224" transform="translate(5.045 13.972)">
          <g id="Group_7223" data-name="Group 7223">
            <rect id="Rectangle_5555" data-name="Rectangle 5555" width="0.776" height="1.164" fill="#484848"/>
          </g>
        </g>
        <g id="Group_7226" data-name="Group 7226" transform="translate(6.598 13.972)">
          <g id="Group_7225" data-name="Group 7225">
            <rect id="Rectangle_5556" data-name="Rectangle 5556" width="0.776" height="1.164" fill="#484848"/>
          </g>
        </g>
        <g id="Group_7228" data-name="Group 7228" transform="translate(8.15 13.972)">
          <g id="Group_7227" data-name="Group 7227">
            <rect id="Rectangle_5557" data-name="Rectangle 5557" width="0.776" height="1.164" fill="#484848"/>
          </g>
        </g>
        <g id="Group_7230" data-name="Group 7230" transform="translate(9.703 13.972)">
          <g id="Group_7229" data-name="Group 7229">
            <rect id="Rectangle_5558" data-name="Rectangle 5558" width="0.776" height="1.164" fill="#484848"/>
          </g>
        </g>
        <g id="Group_7232" data-name="Group 7232" transform="translate(12.808 13.972)">
          <g id="Group_7231" data-name="Group 7231">
            <rect id="Rectangle_5559" data-name="Rectangle 5559" width="0.776" height="1.164" fill="#484848"/>
          </g>
        </g>
        <g id="Group_7234" data-name="Group 7234" transform="translate(14.36 13.972)">
          <g id="Group_7233" data-name="Group 7233">
            <rect id="Rectangle_5560" data-name="Rectangle 5560" width="0.776" height="1.164" fill="#484848"/>
          </g>
        </g>
        <g id="Group_7236" data-name="Group 7236" transform="translate(15.913 13.972)">
          <g id="Group_7235" data-name="Group 7235">
            <rect id="Rectangle_5561" data-name="Rectangle 5561" width="0.776" height="1.164" fill="#484848"/>
          </g>
        </g>
        <g id="Group_7238" data-name="Group 7238" transform="translate(17.465 13.972)">
          <g id="Group_7237" data-name="Group 7237">
            <rect id="Rectangle_5562" data-name="Rectangle 5562" width="0.776" height="1.164" fill="#484848"/>
          </g>
        </g>
        <g id="Group_7240" data-name="Group 7240" transform="translate(19.017 13.972)">
          <g id="Group_7239" data-name="Group 7239">
            <rect id="Rectangle_5563" data-name="Rectangle 5563" width="0.776" height="1.164" fill="#484848"/>
          </g>
        </g>
        <g id="Group_7242" data-name="Group 7242" transform="translate(13.196 2.329)">
          <g id="Group_7241" data-name="Group 7241">
            <rect id="Rectangle_5564" data-name="Rectangle 5564" width="0.776" height="10.867" fill="#484848"/>
          </g>
        </g>
      </g>
    </g>
  </g>
</svg>
