<svg xmlns="http://www.w3.org/2000/svg" width="85.758" height="84.341" viewBox="0 0 85.758 84.341">
  <g id="Group_7404" data-name="Group 7404" transform="translate(-1183.242 -6457.573)">
    <ellipse id="Ellipse_551" data-name="Ellipse 551" cx="26.139" cy="26.139" rx="26.139" ry="26.139" transform="matrix(-0.643, -0.766, 0.766, -0.643, 1216.846, 6531.225)" fill="#88c6f2" opacity="0.488"/>
    <ellipse id="Ellipse_552" data-name="Ellipse 552" cx="18.394" cy="18.394" rx="18.394" ry="18.394" transform="matrix(-0.643, -0.766, 0.766, -0.643, 1240.818, 6518.002)" fill="#aeebb1" opacity="0.488"/>
    <g id="_8QXM8a.tif" data-name="8QXM8a.tif" transform="translate(1207.928 6486.535)">
      <g id="Group_7244" data-name="Group 7244" transform="translate(0 0)">
        <path id="Path_68053" data-name="Path 68053" d="M223.751,74.538c-.147,1.07-.264,2.145-.448,3.208a26.686,26.686,0,0,1-5.711,12.5,27.942,27.942,0,0,1-16.273,9.892c-.305.065-.614.115-.922.168a1.425,1.425,0,0,1-.239-.013c0-.618-.018-1.239.016-1.858.006-.114.211-.289.346-.312a24.564,24.564,0,0,0,11.644-5.356,25.7,25.7,0,0,0,2.746-37.08,24.394,24.394,0,0,0-14.84-8.143,25,25,0,0,0-22.174,7.03,24.7,24.7,0,0,0-7.443,14.515,25.629,25.629,0,0,0,16.434,27.851,38.409,38.409,0,0,0,4.247,1.15c.328.081.484.16.468.519-.024.549-.006,1.1-.006,1.769-.957-.2-1.853-.35-2.73-.572a26.87,26.87,0,0,1-12.416-6.957,27.385,27.385,0,0,1-8.114-15.756c-.131-.849-.224-1.7-.335-2.556V71.219c.144-1.053.253-2.112.438-3.157a27.267,27.267,0,0,1,10.046-16.979,26.91,26.91,0,0,1,13.227-5.757c.833-.122,1.67-.218,2.505-.326h3.318c.2.037.392.083.589.109,1.019.135,2.05.209,3.056.407a27.79,27.79,0,0,1,22.244,23.2c.123.833.218,1.671.326,2.507Z" transform="translate(-168 -45)" fill="#484848"/>
        <path id="Path_68056" data-name="Path 68056" d="M226.09,130.523c-9.106-1.286-18.665-9.8-19.214-21.975a23.581,23.581,0,1,1,27.837,22c0-.645-.018-1.279.018-1.911.006-.107.234-.26.381-.292a20.463,20.463,0,0,0,9.1-4.5,21.467,21.467,0,0,0,2.865-29.841,21.388,21.388,0,0,0-37.672,9.475,20.989,20.989,0,0,0,6.108,19.333,20.051,20.051,0,0,0,10.141,5.5c.377.083.531.218.5.615-.037.477-.012.958-.018,1.437A.544.544,0,0,1,226.09,130.523Z" transform="translate(-202.553 -79.537)" fill="#484848"/>
        <path id="Path_68057" data-name="Path 68057" d="M260.556,160.782a19.349,19.349,0,1,1,8.563-.022c0-.633-.022-1.258.019-1.878.008-.126.237-.3.395-.345a17.354,17.354,0,0,0,12.363-15.046A17.123,17.123,0,1,0,260.063,158.5c.4.119.524.288.5.682C260.532,159.7,260.556,160.211,260.556,160.782Z" transform="translate(-236.96 -114.038)" fill="#484848"/>
        <path id="Path_68058" data-name="Path 68058" d="M303.571,190.573c0-.692-.034-1.373.024-2.046.015-.167.306-.367.512-.451a12.526,12.526,0,0,0,6.254-5.37,12.815,12.815,0,1,0-23.707-8.636,12.644,12.644,0,0,0,7.837,14c.378.148.56.32.528.752-.042.566-.01,1.138-.01,1.816a14.932,14.932,0,0,1-6.044-3.481,14.355,14.355,0,0,1-4.678-10.222,15.012,15.012,0,1,1,19.285,13.64Z" transform="translate(-271.413 -148.426)" fill="#484848"/>
        <path id="Path_68059" data-name="Path 68059" d="M337.944,220.657c0-.717-.028-1.381.018-2.039a.856.856,0,0,1,.385-.519,8.437,8.437,0,0,0,3.671-5.186,8.611,8.611,0,0,0-6.63-10.247A8.524,8.524,0,0,0,325.183,210a8.169,8.169,0,0,0,3.784,8.058.822.822,0,0,1,.424.8c-.029.583-.008,1.168-.008,1.774a10.633,10.633,0,0,1-6.405-10.823,10.734,10.734,0,0,1,21.248-.847A10.692,10.692,0,0,1,337.944,220.657Z" transform="translate(-305.788 -182.972)" fill="#484848"/>
        <path id="Path_68060" data-name="Path 68060" d="M389.683,262.411a4.306,4.306,0,1,1-4.271-4.315A4.349,4.349,0,0,1,389.683,262.411Z" transform="translate(-357.501 -234.524)" fill="#484848"/>
      </g>
    </g>
  </g>
</svg>
