<svg xmlns="http://www.w3.org/2000/svg" width="99.193" height="101.577" viewBox="0 0 99.193 101.577">
  <g id="Group_7405" data-name="Group 7405" transform="translate(-1453.843 -6453.637)">
    <ellipse id="Ellipse_524" data-name="Ellipse 524" cx="33.596" cy="33.595" rx="33.596" ry="33.595" transform="translate(1472.363 6453.637) rotate(16)" fill="#aeebb1" opacity="0.497"/>
    <ellipse id="Ellipse_525" data-name="Ellipse 525" cx="23.641" cy="23.641" rx="23.641" ry="23.641" transform="translate(1496.25 6496.729) rotate(16)" fill="#f27e92" opacity="0.497"/>
    <g id="Page-1" transform="translate(1490.611 6467.371)">
      <g id="_036---Brain-Wired" data-name="036---Brain-Wired" transform="translate(0 0)">
        <path id="Shape" d="M54.373,7.894C45.264.727,37.416-.587,23.278,2.675c-3.84.885-8.185,2.237-11.317,5.549a21.963,21.963,0,0,0-4.624,7.562A30.716,30.716,0,0,0,6.29,19.567l-.091.4a15.668,15.668,0,0,1-1.022,2.711,6.952,6.952,0,0,0-.95,3.468,4.415,4.415,0,0,0,1.682,2.575c.565.519.937.884.941,1.217a2.1,2.1,0,0,1-.223.535,3.655,3.655,0,0,0-.394,1.052A7.037,7.037,0,0,1,4.6,35.283C.974,39.195-.063,40.544.064,41.94A3.352,3.352,0,0,0,1.75,44.216a8.421,8.421,0,0,0,1.2.7c.5.254,1.331.68,1.387.984a1.979,1.979,0,0,1-.128,1.163c-.17.363-.347.675-.5.948-.451.8-1.131,2-.065,2.9.25.221.677.557,1.067.855a2.9,2.9,0,0,0-.371,1.675,1.648,1.648,0,0,0,.679,1.124,8.558,8.558,0,0,0,.809.5c.677.387.941.568,1.032.925a2.468,2.468,0,0,1-.1,1.295,6.561,6.561,0,0,0,.186,4.123,4.269,4.269,0,0,0,5.028,3.057A93.682,93.682,0,0,0,21.7,61.552c1.6.951,3.112,3.263,4.205,6.443A3.482,3.482,0,0,0,29.2,70.359H52.507a3.468,3.468,0,0,0,3.1-5.012A31.7,31.7,0,0,1,52.95,55.2a19.587,19.587,0,0,1,1.5-10.152A25.235,25.235,0,0,1,57.508,40.2c2.286-3.09,4.878-6.589,4.963-12.548a34.718,34.718,0,0,0-1.206-9.819,19.166,19.166,0,0,0-6.892-9.942Zm1.278,30.933a27.357,27.357,0,0,0-3.315,5.3,21.9,21.9,0,0,0-1.683,11.351,33.892,33.892,0,0,0,2.89,10.912,1.156,1.156,0,0,1-1.037,1.658H29.2a1.171,1.171,0,0,1-1.1-.8,17.051,17.051,0,0,0-3.8-6.589l.863-.3c.854-.3,1.5-.527,1.822-.629,4.945-1.556,7.419-3.815,7.351-6.7A1.125,1.125,0,0,0,33.154,51.9a1.156,1.156,0,0,0-1.129,1.183c.028,1.192-.943,2.929-5.736,4.437-.338.106-1.006.341-1.891.652-.829.291-1.85.652-2.977,1.04h-.009a95.706,95.706,0,0,1-9.9,3,2.038,2.038,0,0,1-2.375-1.551,4.26,4.26,0,0,1-.116-2.833,4.648,4.648,0,0,0,.089-2.4,3.822,3.822,0,0,0-2.126-2.366c-.083-.047-.166-.094-.249-.142a4.2,4.2,0,0,1,.443-.719,1.156,1.156,0,0,0-.222-1.639c-.277-.206-.936-.7-1.41-1.081.059-.109.125-.231.186-.335.177-.313.38-.676.578-1.09a4.289,4.289,0,0,0,.311-2.584C6.349,44.058,5,43.368,4.012,42.863a6.9,6.9,0,0,1-.874-.494,6.23,6.23,0,0,1-.764-.627c.02-.668,2.563-3.411,3.93-4.885a9.258,9.258,0,0,0,2.212-4.949,2.919,2.919,0,0,1,.176-.387,3.417,3.417,0,0,0,.473-1.608,4.035,4.035,0,0,0-1.695-2.9c-.462-.428-.906-.832-.956-1.188a7.466,7.466,0,0,1,.772-2.2,17.562,17.562,0,0,0,1.156-3.131l.094-.4a28.946,28.946,0,0,1,.963-3.5,19.692,19.692,0,0,1,4.137-6.772c2.7-2.859,6.473-4.038,10.155-4.886C38.873,1.447,45.441,3.81,52.947,9.714a16.687,16.687,0,0,1,6.1,8.753,32.383,32.383,0,0,1,1.118,9.155c-.073,5.212-2.228,8.124-4.509,11.206Z" transform="translate(-0.054 -0.985)" fill="#484848"/>
        <path id="Shape-2" data-name="Shape" d="M44.842,19.783a4.821,4.821,0,1,0-1.15-2.068,14.156,14.156,0,0,0-3.423,4.437,11.383,11.383,0,0,0-2.4-1.376c-.979-1.863-.8-4.412-.354-6.542.079,0,.153.023.231.023a4.661,4.661,0,1,0-2.445-.716,15.27,15.27,0,0,0-.231,6.185q-1.474-.462-3.237-.865c-1.063-.239-2.075-.443-3.026-.615a7.366,7.366,0,0,1-2.121-3.156,4.635,4.635,0,1,0-2.327.254,10.449,10.449,0,0,0,.983,2.327c-2.286-.335-4.443-.578-6.179-.743a4.642,4.642,0,1,0-.193,2.3c2.462.231,5.78.624,9.09,1.225l.185.035a16.335,16.335,0,0,0-3.074,3.222,4.553,4.553,0,0,0-1.3-.21,4.641,4.641,0,1,0,3.3,1.4A11.942,11.942,0,0,1,30.8,21.575a6.117,6.117,0,0,1,.854-.381,32.251,32.251,0,0,1,4.795,1.467,1.211,1.211,0,0,0,.11.054l.02.009.019.009a8.19,8.19,0,0,1,2.652,1.587,2.253,2.253,0,0,1,.365.477c.532.9.415,2.224-.37,4.186-.429,1.082-.993,2.209-1.591,3.4-2.039,4.07-4.349,8.683-.623,11.675,4.348,3.478,4.5,15.49,4.194,19.822a1.156,1.156,0,0,0,1.07,1.237h.082a1.156,1.156,0,0,0,1.156-1.074c.05-.685,1.129-16.846-5.053-21.791-2.11-1.691-.877-4.595,1.244-8.831.516-1.028,1.029-2.081,1.463-3.109a3.378,3.378,0,0,1,3.215.925,4.7,4.7,0,1,0,1.8-1.5,6.562,6.562,0,0,0-4.172-1.85,5.985,5.985,0,0,0-.154-3.691,12.574,12.574,0,0,1,2.968-4.412Zm3.313-5.525a2.312,2.312,0,1,1-2.312,2.312A2.312,2.312,0,0,1,48.155,14.258Zm-10.4-6.936a2.312,2.312,0,1,1-2.312,2.312A2.312,2.312,0,0,1,37.751,7.322ZM22.724,10.79A2.312,2.312,0,1,1,25.035,13.1,2.312,2.312,0,0,1,22.724,10.79Zm-8.092,9.248a2.312,2.312,0,1,1,2.312-2.312A2.312,2.312,0,0,1,14.632,20.037Zm9.248,10.4a2.312,2.312,0,1,1,2.312-2.312A2.312,2.312,0,0,1,23.879,30.441Zm26.587,3.468A2.312,2.312,0,1,1,48.155,31.6,2.312,2.312,0,0,1,50.466,33.909Z" transform="translate(1.489 -0.369)" fill="#484848"/>
      </g>
    </g>
  </g>
</svg>
