<svg xmlns="http://www.w3.org/2000/svg" width="35.045" height="46" viewBox="0 0 35.045 46">
  <g id="pin" transform="translate(-60.971 0)">
    <g id="Group_6903" data-name="Group 6903" transform="translate(60.971 0)">
      <g id="Group_6902" data-name="Group 6902">
        <path id="Path_67223" data-name="Path 67223" d="M95.164,12.054A17.147,17.147,0,0,0,84.046.844,17.624,17.624,0,0,0,60.971,17.6a17.376,17.376,0,0,0,3.5,10.506L78.5,46,92.5,28.13l.018-.023A17.717,17.717,0,0,0,95.164,12.054Zm-4.79,14.425L78.5,41.632,66.616,26.479A14.7,14.7,0,0,1,63.667,17.6,14.93,14.93,0,0,1,83.249,3.42a14.417,14.417,0,0,1,9.34,9.431A15.051,15.051,0,0,1,90.374,26.479Z" transform="translate(-60.971 0)" fill="#0090df"/>
      </g>
    </g>
    <g id="Group_6905" data-name="Group 6905" transform="translate(69.059 8.166)">
      <g id="Group_6904" data-name="Group 6904">
        <path id="Path_67224" data-name="Path 67224" d="M160.43,90.895a9.436,9.436,0,1,0,9.436,9.436A9.447,9.447,0,0,0,160.43,90.895Zm0,16.176a6.74,6.74,0,1,1,6.74-6.74A6.748,6.748,0,0,1,160.43,107.071Z" transform="translate(-150.994 -90.895)" fill="#0090df"/>
      </g>
    </g>
  </g>
</svg>
