<svg xmlns="http://www.w3.org/2000/svg" xmlns:xlink="http://www.w3.org/1999/xlink" width="155.252" height="121" viewBox="0 0 155.252 121">
  <defs>
    <clipPath id="clip-path">
      <rect id="Rectangle_5340" data-name="Rectangle 5340" width="110.252" height="80.276" fill="none"/>
    </clipPath>
  </defs>
  <g id="Group_7330" data-name="Group 7330" transform="translate(-328 -5971)">
    <circle id="Ellipse_324" data-name="Ellipse 324" cx="44.5" cy="44.5" r="44.5" transform="translate(359 5971)" fill="#aeebb1" opacity="0.555"/>
    <circle id="Ellipse_499" data-name="Ellipse 499" cx="31.5" cy="31.5" r="31.5" transform="translate(409 6029)" fill="#f27e92" opacity="0.555"/>
    <path id="Path_67996" data-name="Path 67996" d="M34,0A34,34,0,1,1,0,34,34,34,0,0,1,34,0Z" transform="translate(328 6010)" fill="#88c6f2" opacity="0.555"/>
    <g id="Group_6986" data-name="Group 6986" transform="translate(373 6006.107)">
      <g id="Group_6986-2" data-name="Group 6986" transform="translate(0 0)" clip-path="url(#clip-path)">
        <path id="Path_67368" data-name="Path 67368" d="M52.834,76.6h13.5a26.948,26.948,0,0,0,.362,6.837,9.483,9.483,0,0,0,5.256,6.351c.791.4.422,1.359-.526,1.359H34.238c-.947,0-1.316-.955-.525-1.359a9.483,9.483,0,0,0,5.256-6.351,26.948,26.948,0,0,0,.362-6.837Z" transform="translate(-5.271 -12.132)" fill="none" stroke="#344154" stroke-linecap="round" stroke-linejoin="round" stroke-width="3"/>
        <path id="Path_67369" data-name="Path 67369" d="M57.249,69.824a.9.9,0,1,1-.9-.9A.9.9,0,0,1,57.249,69.824Z" transform="translate(-8.781 -10.916)" fill="none" stroke="#344154" stroke-linecap="round" stroke-linejoin="round" stroke-width="3"/>
        <path id="Path_67370" data-name="Path 67370" d="M78.978,74.506H6.066A4.568,4.568,0,0,1,1.5,69.939V63.391h17.91" transform="translate(-0.237 -10.04)" fill="none" stroke="#344154" stroke-linecap="round" stroke-linejoin="round" stroke-width="3"/>
        <path id="Path_67371" data-name="Path 67371" d="M78.913,53.589H1.5V6.452A4.952,4.952,0,0,1,6.452,1.5h82.7A4.952,4.952,0,0,1,94.1,6.452V29.445" transform="translate(-0.238 -0.238)" fill="none" stroke="#344154" stroke-linecap="round" stroke-linejoin="round" stroke-width="3"/>
        <line id="Line_76" data-name="Line 76" x1="24.179" transform="translate(81.775 69.071)" fill="none" stroke="#344154" stroke-miterlimit="10" stroke-width="3"/>
        <path id="Path_67372" data-name="Path 67372" d="M121.487,84.51H95.877a2.321,2.321,0,0,1-2.32-2.32V37.026a2.321,2.321,0,0,1,2.32-2.321h25.61a2.321,2.321,0,0,1,2.32,2.321V82.19A2.321,2.321,0,0,1,121.487,84.51Z" transform="translate(-14.818 -5.497)" fill="none" stroke="#344154" stroke-miterlimit="10" stroke-width="3"/>
        <path id="Path_67373" data-name="Path 67373" d="M112.183,87.878a.807.807,0,1,0-.806.806A.806.806,0,0,0,112.183,87.878Z" transform="translate(-17.512 -13.791)" fill="none" stroke="#344154" stroke-miterlimit="10" stroke-width="3"/>
        <path id="Path_67374" data-name="Path 67374" d="M107.967,40.69h6" transform="translate(-17.1 -6.445)" fill="none" stroke="#344154" stroke-linecap="round" stroke-linejoin="round" stroke-width="3"/>
        <line id="Line_77" data-name="Line 77" y1="17.459" x2="13.2" transform="translate(63.724 16.136)" fill="none" stroke="#344154" stroke-miterlimit="10" stroke-width="3"/>
        <line id="Line_78" data-name="Line 78" x2="5.31" y2="6.161" transform="translate(52.857 27.509)" fill="none" stroke="#344154" stroke-miterlimit="10" stroke-width="3"/>
        <line id="Line_79" data-name="Line 79" y1="6.796" x2="5.944" transform="translate(41.224 27.509)" fill="none" stroke="#344154" stroke-miterlimit="10" stroke-width="3"/>
        <line id="Line_80" data-name="Line 80" x2="5.083" y2="6.581" transform="translate(30.781 27.641)" fill="none" stroke="#344154" stroke-miterlimit="10" stroke-width="3"/>
        <line id="Line_81" data-name="Line 81" y1="7.025" x2="5.305" transform="translate(19.709 27.438)" fill="none" stroke="#344154" stroke-miterlimit="10" stroke-width="3"/>
        <path id="Path_67375" data-name="Path 67375" d="M36.548,28.849a4.268,4.268,0,1,0-4.268,4.268A4.267,4.267,0,0,0,36.548,28.849Z" transform="translate(-4.437 -3.893)" fill="none" stroke="#344154" stroke-miterlimit="10" stroke-width="3"/>
        <circle id="Ellipse_321" data-name="Ellipse 321" cx="4.268" cy="4.268" r="4.268" transform="translate(34.323 32.86)" fill="none" stroke="#344154" stroke-miterlimit="10" stroke-width="3"/>
        <path id="Path_67376" data-name="Path 67376" d="M62.946,28.849a4.268,4.268,0,1,0-4.268,4.268A4.268,4.268,0,0,0,62.946,28.849Z" transform="translate(-8.618 -3.893)" fill="none" stroke="#344154" stroke-miterlimit="10" stroke-width="3"/>
        <circle id="Ellipse_322" data-name="Ellipse 322" cx="4.268" cy="4.268" r="4.268" transform="translate(56.678 31.986)" fill="none" stroke="#344154" stroke-miterlimit="10" stroke-width="3"/>
        <circle id="Ellipse_323" data-name="Ellipse 323" cx="4.268" cy="4.268" r="4.268" transform="translate(75.371 9.153)" fill="none" stroke="#344154" stroke-miterlimit="10" stroke-width="3"/>
        <path id="Path_67377" data-name="Path 67377" d="M23.717,43.312a4.267,4.267,0,1,0-4.268,4.268A4.268,4.268,0,0,0,23.717,43.312Z" transform="translate(-2.405 -6.184)" fill="none" stroke="#344154" stroke-miterlimit="10" stroke-width="3"/>
      </g>
    </g>
  </g>
</svg>
