<svg xmlns="http://www.w3.org/2000/svg" width="86.913" height="102.401" viewBox="0 0 86.913 102.401">
  <g id="Group_7331" data-name="Group 7331" transform="translate(-759.087 -5988.708)">
    <ellipse id="Ellipse_326" data-name="Ellipse 326" cx="29.435" cy="29.435" rx="29.435" ry="29.435" transform="translate(838.807 6061.191) rotate(155)" fill="#88c6f2" opacity="0.547"/>
    <ellipse id="Ellipse_327" data-name="Ellipse 327" cx="22.37" cy="22.37" rx="22.37" ry="22.37" transform="translate(846 6029.257) rotate(155)" fill="#aeebb1" opacity="0.547"/>
    <g id="smartphone" transform="translate(737.596 6003)">
      <path id="Path_68181" data-name="Path 68181" d="M53.332,95.851H36.31a4.376,4.376,0,0,1-4.371-4.371V86.693a5.172,5.172,0,0,0,1.174.138,5.24,5.24,0,0,0,1.424-.2V91.48a1.775,1.775,0,0,0,1.773,1.773H52.991a1.3,1.3,0,0,0,0-2.6H37.134V84.939l.026-.031a5.209,5.209,0,0,0-.418-7.014,5.2,5.2,0,0,0,1.788-8.6,5.2,5.2,0,0,0,1.447-8.9L37.134,58.08V32.6h5.752l.037.117A3.257,3.257,0,0,0,46.038,35H56.078a3.257,3.257,0,0,0,3.116-2.28l.038-.117h5.162V50.624a1.3,1.3,0,0,0,2.6,0V31.773A1.775,1.775,0,0,0,65.218,30H58.881a2.112,2.112,0,0,0-2.02,1.479l-.143.451a.669.669,0,0,1-.64.468H46.039a.669.669,0,0,1-.639-.468l-.143-.451A2.112,2.112,0,0,0,43.236,30H36.31a1.775,1.775,0,0,0-1.773,1.773v24.2a5.16,5.16,0,0,0-2.6-1V41.751a1.3,1.3,0,0,0-2.6-.013,5.2,5.2,0,0,0-5.926,8.519l5.926,4.812v.317a5.2,5.2,0,0,0-1.533,8.5,5.2,5.2,0,0,0-1.783,8.6,5.2,5.2,0,0,0-1.448,8.9l4.764,3.869v6.22a6.977,6.977,0,0,0,6.969,6.969H53.332a1.3,1.3,0,1,0,0-2.6ZM25.053,48.24A2.6,2.6,0,1,1,28.337,44.2l1,.815v6.711ZM29.41,58.509a2.589,2.589,0,0,1,1.753-.949,2.641,2.641,0,0,1,.274-.014,2.586,2.586,0,0,1,1.637.583l5.266,4.276a2.6,2.6,0,1,1-3.284,4.044L29.79,62.173a2.6,2.6,0,0,1-.38-3.664Zm-1.788,8.6a2.6,2.6,0,0,1,3.6-.431l2.2,1.787c.025.02.051.037.076.057l3.057,2.483a2.6,2.6,0,1,1-3.284,4.044L28,70.774A2.608,2.608,0,0,1,27.622,67.11ZM25.266,77.621a2.6,2.6,0,0,1,4.154-2.349l2.211,1.8c.025.021.052.038.078.058l3.056,2.482A2.6,2.6,0,1,1,31.48,83.65l-5.266-4.276A2.587,2.587,0,0,1,25.266,77.621Z" transform="translate(0 -24.804)" fill="#484848"/>
      <path id="Path_68182" data-name="Path 68182" d="M68.111,12.71a1.3,1.3,0,0,0,1.3-1.3V6.969A4.376,4.376,0,0,1,73.781,2.6h28.908a4.376,4.376,0,0,1,4.371,4.371V30.938a1.3,1.3,0,0,0,2.6,0V6.969A6.977,6.977,0,0,0,102.689,0H73.781a6.977,6.977,0,0,0-6.969,6.969v4.442A1.3,1.3,0,0,0,68.111,12.71Z" transform="translate(-37.471)" fill="#484848"/>
      <path id="Path_68183" data-name="Path 68183" d="M432.227,444.428,423.365,434a1.3,1.3,0,1,0-1.979,1.683l8.862,10.424a1.3,1.3,0,1,0,1.979-1.683Z" transform="translate(-330.38 -358.459)" fill="#484848"/>
      <path id="Path_68184" data-name="Path 68184" d="M238.722,219.3a1.3,1.3,0,0,0-.824-.492,11.143,11.143,0,0,1-9.089-8.712l-.479-2.331a11.078,11.078,0,0,1,1.228-7.718l6.426-11.273a4.134,4.134,0,0,0-.332-4.6l-6.018-7.72a6,6,0,0,1,.21-7.622l.322-.369a.672.672,0,0,1,.5-.232.663.663,0,0,1,.507.213l5.743,6.093a1.3,1.3,0,1,0,1.891-1.782l-5.743-6.093a3.276,3.276,0,0,0-4.853.094l-.322.369a8.6,8.6,0,0,0-.3,10.927l6.018,7.72a1.545,1.545,0,0,1,.124,1.72L227.3,198.76a13.675,13.675,0,0,0-1.516,9.527l.479,2.331a13.759,13.759,0,0,0,10.7,10.66l2.5,3.263a1.3,1.3,0,0,0,2.062-1.58Z" transform="translate(-168.681 -136.943)" fill="#484848"/>
      <path id="Path_68185" data-name="Path 68185" d="M325.618,255.607a1.839,1.839,0,0,1-.437-1.19V247.73a18.231,18.231,0,0,0-4.983-12.551l-6.695-7.1a1.3,1.3,0,1,0-1.891,1.782l6.695,7.1a15.643,15.643,0,0,1,4.275,10.769v6.687a4.439,4.439,0,0,0,1.056,2.872l3.352,3.943a1.3,1.3,0,1,0,1.98-1.682Z" transform="translate(-239.582 -188.237)" fill="#484848"/>
      <path id="Path_68187" data-name="Path 68187" d="M148.854,295.056H138.694a.381.381,0,0,1-.381-.381v-5.558a.381.381,0,0,1,.381-.38h13.039a1.3,1.3,0,0,0,0-2.6H138.694a2.982,2.982,0,0,0-2.978,2.978v5.558a2.982,2.982,0,0,0,2.978,2.978h10.159a1.3,1.3,0,0,0,0-2.6Z" transform="translate(-94.442 -236.582)" fill="#484848"/>
    </g>
  </g>
</svg>
