<svg xmlns="http://www.w3.org/2000/svg" xmlns:xlink="http://www.w3.org/1999/xlink" width="105.971" height="88.4" viewBox="0 0 105.971 88.4">
  <defs>
    <clipPath id="clip-path">
      <rect id="Rectangle_5341" data-name="Rectangle 5341" width="99.14" height="84.584" fill="none"/>
    </clipPath>
  </defs>
  <g id="Group_7333" data-name="Group 7333" transform="translate(-1445.029 -6002.708)">
    <circle id="Ellipse_329" data-name="Ellipse 329" cx="30.5" cy="30.5" r="30.5" transform="matrix(0.07, 0.998, -0.998, 0.07, 1530.016, 6026.002)" fill="#88c6f2" opacity="0.547"/>
    <ellipse id="Ellipse_501" data-name="Ellipse 501" cx="22.37" cy="22.37" rx="22.37" ry="22.37" transform="translate(1551 6043.257) rotate(155)" fill="#aeebb1" opacity="0.547"/>
    <g id="Group_6987" data-name="Group 6987" transform="translate(1445.029 6005.967)">
      <g id="Group_6987-2" data-name="Group 6987" transform="translate(0 0)" clip-path="url(#clip-path)">
        <path id="Path_67379" data-name="Path 67379" d="M98.92,66.86,85.693,37.689a2.443,2.443,0,0,0-1.228-1.221l-16.4-7.352c-.682,1.477-1.389,2.953-2.109,4.413l15.666,7.024,10.2,22.485L74.87,55.53,69.13,40.54a2.444,2.444,0,1,0-4.565,1.748l5.353,13.975L51.993,66.392V55.707l-1.066.738a2.447,2.447,0,0,1-2.784,0L47.1,55.726V66.392L29.181,56.262l5.353-13.975A2.443,2.443,0,1,0,29.97,40.54L24.226,55.53,7.295,63.037l10.2-22.485,15.629-7.014c-.721-1.46-1.428-2.936-2.109-4.411L14.644,36.468a2.454,2.454,0,0,0-1.225,1.221L.218,66.86a2.446,2.446,0,0,0,.49,2.73A2.42,2.42,0,0,0,3.42,70.1L26.012,60.085,48.345,72.711a2.4,2.4,0,0,0,.39.158c.063.022.123.059.189.075a2.412,2.412,0,0,0,1.25,0c.07-.017.135-.057.2-.081a2.416,2.416,0,0,0,.374-.152L73.086,60.085,95.7,70.1A2.444,2.444,0,0,0,98.92,66.86" transform="translate(0 11.557)" fill="#39434e"/>
        <path id="Path_67380" data-name="Path 67380" d="M41.327,63.8a2.452,2.452,0,0,0,2.1-1.2c1.9-3.2,18.547-31.532,18.547-41.956a20.649,20.649,0,0,0-41.3,0c0,10.424,16.648,38.76,18.547,41.956a2.444,2.444,0,0,0,2.1,1.2m0-58.913a15.779,15.779,0,0,1,15.761,15.76c0,6.767-9.977,25.688-15.761,35.839-5.782-10.151-15.758-29.07-15.758-35.839A15.776,15.776,0,0,1,41.327,4.889" transform="translate(8.208 0)" fill="#39434e"/>
        <path id="Path_67381" data-name="Path 67381" d="M50.692,18.152A11.861,11.861,0,1,0,38.83,30.013,11.876,11.876,0,0,0,50.692,18.152m-18.833,0a6.972,6.972,0,1,1,6.971,6.972,6.979,6.979,0,0,1-6.971-6.972" transform="translate(10.704 2.497)" fill="#39434e"/>
      </g>
    </g>
  </g>
</svg>
