<svg xmlns="http://www.w3.org/2000/svg" width="20.865" height="22.47" viewBox="0 0 20.865 22.47">
  <g id="upload" transform="translate(-17.065 0)">
    <g id="Group_2087" data-name="Group 2087" transform="translate(17.065 7.222)">
      <g id="Group_2086" data-name="Group 2086" transform="translate(0)">
        <path id="Path_64314" data-name="Path 64314" d="M35.523,153.6H31.51a.8.8,0,0,0,0,1.605h4.013a.8.8,0,0,1,.8.8v10.433a.8.8,0,0,1-.8.8H19.473a.8.8,0,0,1-.8-.8V156a.8.8,0,0,1,.8-.8h4.013a.8.8,0,1,0,0-1.605H19.473A2.408,2.408,0,0,0,17.065,156v10.433a2.408,2.408,0,0,0,2.408,2.408h16.05a2.408,2.408,0,0,0,2.408-2.408V156A2.408,2.408,0,0,0,35.523,153.6Z" transform="translate(-17.065 -153.595)" fill="#fff"/>
      </g>
    </g>
    <g id="Group_2089" data-name="Group 2089" transform="translate(22.692 0)">
      <g id="Group_2088" data-name="Group 2088" transform="translate(0 0)">
        <path id="Path_64315" data-name="Path 64315" d="M146.127,4.247,142.114.235a.8.8,0,0,0-1.135,0l-4.013,4.013A.8.8,0,0,0,138.1,5.382l2.643-2.643V16.05a.8.8,0,0,0,1.605,0V2.739l2.643,2.643a.8.8,0,0,0,1.135-1.135Z" transform="translate(-136.741 0)" fill="#fff"/>
      </g>
    </g>
  </g>
</svg>
