<svg id="Group_6263" data-name="Group 6263" xmlns="http://www.w3.org/2000/svg" xmlns:xlink="http://www.w3.org/1999/xlink" width="102.223" height="64.906" viewBox="0 0 102.223 64.906">
  <defs>
    <clipPath id="clip-path">
      <rect id="Rectangle_5261" data-name="Rectangle 5261" width="102.223" height="64.906" fill="#484848"/>
    </clipPath>
  </defs>
  <g id="Group_6244" data-name="Group 6244" clip-path="url(#clip-path)">
    <path id="Path_67177" data-name="Path 67177" d="M88.408,28.56a11.67,11.67,0,1,0-13.39,0,20.219,20.219,0,0,0-6.9,4.045,26.166,26.166,0,0,0-9.466-5.158,14.785,14.785,0,1,0-15.291,0A26.384,26.384,0,0,0,34,32.545a20.385,20.385,0,0,0-6.816-3.964,11.671,11.671,0,1,0-13.39,0A20.486,20.486,0,0,0,0,47.937v1.335a.087.087,0,0,0,.081.081H24.818a27.2,27.2,0,0,0-.222,3.418v1.376a10.756,10.756,0,0,0,10.76,10.76H66.706a10.756,10.756,0,0,0,10.76-10.76V52.771a27.241,27.241,0,0,0-.222-3.418h24.9a.087.087,0,0,0,.081-.081V47.937A20.564,20.564,0,0,0,88.408,28.56M73.279,18.993a8.434,8.434,0,1,1,8.6,8.434h-.324a8.422,8.422,0,0,1-8.273-8.434M39.421,14.786A11.549,11.549,0,1,1,51.637,26.315H50.3A11.566,11.566,0,0,1,39.421,14.786M11.994,18.993a8.434,8.434,0,1,1,8.6,8.434h-.324a8.436,8.436,0,0,1-8.273-8.434m13.39,27.1H3.277a17.282,17.282,0,0,1,17.03-15.433h.243A17.1,17.1,0,0,1,31.573,34.77,26.559,26.559,0,0,0,25.384,46.1m48.806,8.05a7.536,7.536,0,0,1-7.524,7.524H35.315a7.536,7.536,0,0,1-7.524-7.524V52.771A23.234,23.234,0,0,1,50.3,29.571c.222.02.465.02.688.02s.465,0,.688-.02a23.234,23.234,0,0,1,22.512,23.2ZM76.6,46.1a26.487,26.487,0,0,0-6.129-11.246,17.186,17.186,0,0,1,11.124-4.187h.243A17.282,17.282,0,0,1,98.866,46.1Z" transform="translate(0 -0.001)" fill="#484848"/>
  </g>
</svg>
