<svg xmlns="http://www.w3.org/2000/svg" width="85.5" height="54.495" viewBox="0 0 85.5 54.495">
  <g id="view" transform="translate(0 -92.835)">
    <g id="Group_7262" data-name="Group 7262" transform="translate(0 92.835)">
      <g id="Group_7261" data-name="Group 7261" transform="translate(0 0)">
        <path id="Path_68073" data-name="Path 68073" d="M84.957,118.419c-.764-1.045-18.963-25.584-42.207-25.584S1.306,117.374.543,118.418a2.821,2.821,0,0,0,0,3.327c.763,1.045,18.963,25.584,42.207,25.584s41.443-24.54,42.207-25.583A2.818,2.818,0,0,0,84.957,118.419ZM42.75,141.692c-17.122,0-31.951-16.287-36.34-21.612,4.384-5.329,19.182-21.608,36.34-21.608,17.121,0,31.949,16.284,36.34,21.612C74.706,125.413,59.908,141.692,42.75,141.692Z" transform="translate(0 -92.835)" fill="#484848"/>
      </g>
    </g>
    <g id="Group_7264" data-name="Group 7264" transform="translate(25.837 103.17)">
      <g id="Group_7263" data-name="Group 7263" transform="translate(0 0)">
        <path id="Path_68074" data-name="Path 68074" d="M171.634,154.725a16.912,16.912,0,1,0,16.912,16.912A16.932,16.932,0,0,0,171.634,154.725Zm0,28.187a11.275,11.275,0,1,1,11.275-11.275A11.287,11.287,0,0,1,171.634,182.912Z" transform="translate(-154.722 -154.725)" fill="#484848"/>
      </g>
    </g>
  </g>
</svg>
