<svg id="wall-clock" xmlns="http://www.w3.org/2000/svg" width="59.707" height="59.707" viewBox="0 0 59.707 59.707">
  <g id="Group_6907" data-name="Group 6907" transform="translate(28.858)">
    <g id="Group_6906" data-name="Group 6906">
      <path id="Path_67225" data-name="Path 67225" d="M233,0a1,1,0,0,0-1,1V6.966a1,1,0,0,0,1.99,0V1A1,1,0,0,0,233,0Z" transform="translate(-232 0)" fill="#0090df"/>
    </g>
  </g>
  <g id="Group_6909" data-name="Group 6909" transform="translate(23.847 0.438)">
    <g id="Group_6908" data-name="Group 6908">
      <path id="Path_67226" data-name="Path 67226" d="M193.858,5.324l-.173-.98a1,1,0,0,0-1.96.345l.173.98a1,1,0,0,0,.979.822,1.035,1.035,0,0,0,.173-.015h0A1,1,0,0,0,193.858,5.324Z" transform="translate(-191.709 -3.521)" fill="#0090df"/>
    </g>
  </g>
  <g id="Group_6912" data-name="Group 6912" transform="translate(18.981 1.722)">
    <g id="Group_6911" data-name="Group 6911">
      <g id="Group_6910" data-name="Group 6910">
        <path id="Path_67227" data-name="Path 67227" d="M163.384,37.512Z" transform="translate(-162.042 -34.568)" fill="#0090df"/>
        <path id="Path_67228" data-name="Path 67228" d="M154.874,15.452l-.34-.935-.013-.036a1,1,0,1,0-1.857.717l.339.934a1,1,0,1,0,1.871-.68Z" transform="translate(-152.597 -13.844)" fill="#0090df"/>
      </g>
    </g>
  </g>
  <g id="Group_6914" data-name="Group 6914" transform="translate(10.32 6.767)">
    <g id="Group_6913" data-name="Group 6913">
      <path id="Path_67229" data-name="Path 67229" d="M85.347,55.506l-.64-.762a1,1,0,0,0-1.525,1.279l.64.762a.995.995,0,1,0,1.525-1.279Z" transform="translate(-82.963 -54.404)" fill="#0090df"/>
    </g>
  </g>
  <g id="Group_6916" data-name="Group 6916" transform="translate(6.767 10.32)">
    <g id="Group_6915" data-name="Group 6915">
      <path id="Path_67230" data-name="Path 67230" d="M56.785,83.823l-.762-.64a1,1,0,0,0-1.279,1.525l.762.64a.995.995,0,0,0,1.279-1.525Z" transform="translate(-54.404 -82.963)" fill="#0090df"/>
    </g>
  </g>
  <g id="Group_6918" data-name="Group 6918" transform="translate(1.722 18.981)">
    <g id="Group_6917" data-name="Group 6917">
      <path id="Path_67231" data-name="Path 67231" d="M16.132,153l-.934-.339-.036-.013a1,1,0,0,0-.644,1.883l.935.34a1,1,0,1,0,.68-1.871Z" transform="translate(-13.844 -152.597)" fill="#0090df"/>
    </g>
  </g>
  <g id="Group_6920" data-name="Group 6920" transform="translate(0.438 23.847)">
    <g id="Group_6919" data-name="Group 6919">
      <path id="Path_67232" data-name="Path 67232" d="M5.67,191.9l-.98-.173a1,1,0,1,0-.345,1.96l.98.173a1.034,1.034,0,0,0,.173.015A1,1,0,0,0,5.67,191.9Z" transform="translate(-3.521 -191.709)" fill="#0090df"/>
    </g>
  </g>
  <g id="Group_6922" data-name="Group 6922" transform="translate(0.437 33.696)">
    <g id="Group_6921" data-name="Group 6921">
      <path id="Path_67233" data-name="Path 67233" d="M6.472,271.716a1,1,0,0,0-1.153-.808l-.98.173a1,1,0,0,0,.171,1.975,1.05,1.05,0,0,0,.174-.015l.98-.173A1,1,0,0,0,6.472,271.716Z" transform="translate(-3.516 -270.893)" fill="#0090df"/>
    </g>
  </g>
  <g id="Group_6924" data-name="Group 6924" transform="translate(1.74 38.388)">
    <g id="Group_6923" data-name="Group 6923">
      <path id="Path_67234" data-name="Path 67234" d="M16.851,309.269a1,1,0,0,0-1.275-.6l-.935.34a.995.995,0,1,0,.681,1.87l.934-.339A1,1,0,0,0,16.851,309.269Z" transform="translate(-13.985 -308.613)" fill="#0090df"/>
    </g>
  </g>
  <g id="Group_6926" data-name="Group 6926" transform="translate(6.752 46.755)">
    <g id="Group_6925" data-name="Group 6925">
      <path id="Path_67235" data-name="Path 67235" d="M56.8,376.216a1,1,0,0,0-1.4-.094l-.762.64a.995.995,0,1,0,1.279,1.525l.762-.64.032-.027A1,1,0,0,0,56.8,376.216Z" transform="translate(-54.279 -375.876)" fill="#0090df"/>
    </g>
  </g>
  <g id="Group_6928" data-name="Group 6928" transform="translate(10.309 50.187)">
    <g id="Group_6927" data-name="Group 6927">
      <path id="Path_67236" data-name="Path 67236" d="M85.149,403.687a1,1,0,0,0-1.4.152l-.64.762a.995.995,0,0,0,1.525,1.279l.64-.762.027-.032A1,1,0,0,0,85.149,403.687Z" transform="translate(-82.878 -403.467)" fill="#0090df"/>
    </g>
  </g>
  <g id="Group_6930" data-name="Group 6930" transform="translate(18.989 55.041)">
    <g id="Group_6929" data-name="Group 6929">
      <path id="Path_67237" data-name="Path 67237" d="M154.329,442.549a1,1,0,0,0-1.275.6l-.339.934a.995.995,0,1,0,1.87.681l.34-.935A1,1,0,0,0,154.329,442.549Z" transform="translate(-152.654 -442.489)" fill="#0090df"/>
    </g>
  </g>
  <g id="Group_6932" data-name="Group 6932" transform="translate(23.847 56.298)">
    <g id="Group_6931" data-name="Group 6931">
      <path id="Path_67238" data-name="Path 67238" d="M193.051,452.609a1,1,0,0,0-1.153.808l-.173.98h0a1,1,0,0,0,.808,1.152.941.941,0,0,0,.173.016,1,1,0,0,0,.979-.823l.173-.98A1,1,0,0,0,193.051,452.609Z" transform="translate(-191.71 -452.593)" fill="#0090df"/>
    </g>
  </g>
  <g id="Group_6934" data-name="Group 6934" transform="translate(33.696 56.298)">
    <g id="Group_6933" data-name="Group 6933">
      <path id="Path_67239" data-name="Path 67239" d="M273.042,454.4l-.173-.98a1,1,0,1,0-1.96.345l.173.98a1,1,0,0,0,.979.823.942.942,0,0,0,.173-.016h0A1,1,0,0,0,273.042,454.4Z" transform="translate(-270.893 -452.593)" fill="#0090df"/>
    </g>
  </g>
  <g id="Group_6936" data-name="Group 6936" transform="translate(38.388 55.041)">
    <g id="Group_6935" data-name="Group 6935">
      <path id="Path_67240" data-name="Path 67240" d="M310.883,444.079l-.339-.934a1,1,0,1,0-1.871.68l.34.935a1,1,0,0,0,.934.655h0a.995.995,0,0,0,.935-1.335Z" transform="translate(-308.613 -442.489)" fill="#0090df"/>
    </g>
  </g>
  <g id="Group_6938" data-name="Group 6938" transform="translate(46.755 50.187)">
    <g id="Group_6937" data-name="Group 6937">
      <path id="Path_67241" data-name="Path 67241" d="M378.287,404.6l-.64-.762-.027-.032a1,1,0,1,0-1.5,1.311l.64.762a.988.988,0,0,0,.762.355h0a1,1,0,0,0,.762-1.634Z" transform="translate(-375.876 -403.468)" fill="#0090df"/>
    </g>
  </g>
  <g id="Group_6940" data-name="Group 6940" transform="translate(50.187 46.755)">
    <g id="Group_6939" data-name="Group 6939">
      <path id="Path_67242" data-name="Path 67242" d="M405.881,376.762l-.762-.64-.032-.027a1,1,0,0,0-1.247,1.551l.762.64a1,1,0,0,0,.639.233h0a1,1,0,0,0,.64-1.757Z" transform="translate(-403.468 -375.876)" fill="#0090df"/>
    </g>
  </g>
  <g id="Group_6942" data-name="Group 6942" transform="translate(55.041 38.388)">
    <g id="Group_6941" data-name="Group 6941">
      <path id="Path_67243" data-name="Path 67243" d="M444.76,309.013l-.935-.34a1,1,0,1,0-.68,1.871l.934.339a1,1,0,0,0,.34.061h0a1,1,0,0,0,.34-1.931Z" transform="translate(-442.489 -308.613)" fill="#0090df"/>
    </g>
  </g>
  <g id="Group_6944" data-name="Group 6944" transform="translate(56.298 33.696)">
    <g id="Group_6943" data-name="Group 6943">
      <path id="Path_67244" data-name="Path 67244" d="M454.742,271.082l-.98-.173a1,1,0,1,0-.345,1.96l.98.173a1.05,1.05,0,0,0,.174.015,1,1,0,0,0,.171-1.975Z" transform="translate(-452.593 -270.893)" fill="#0090df"/>
    </g>
  </g>
  <g id="Group_6946" data-name="Group 6946" transform="translate(56.297 23.847)">
    <g id="Group_6945" data-name="Group 6945">
      <path id="Path_67245" data-name="Path 67245" d="M455.544,192.532a1,1,0,0,0-1.153-.808l-.98.173a1,1,0,0,0,.172,1.975,1.036,1.036,0,0,0,.173-.015l.98-.173A1,1,0,0,0,455.544,192.532Z" transform="translate(-452.588 -191.709)" fill="#0090df"/>
    </g>
  </g>
  <g id="Group_6948" data-name="Group 6948" transform="translate(55.038 18.981)">
    <g id="Group_6947" data-name="Group 6947">
      <path id="Path_67246" data-name="Path 67246" d="M445.347,153.233a1,1,0,0,0-1.287-.57l-.934.339a1,1,0,1,0,.68,1.871l.935-.34.036-.013A1,1,0,0,0,445.347,153.233Z" transform="translate(-442.467 -152.597)" fill="#0090df"/>
    </g>
  </g>
  <g id="Group_6950" data-name="Group 6950" transform="translate(50.204 10.32)">
    <g id="Group_6949" data-name="Group 6949">
      <path id="Path_67247" data-name="Path 67247" d="M406.116,83.335a1,1,0,0,0-1.4-.152l-.762.64a.995.995,0,1,0,1.279,1.525l.762-.64A1,1,0,0,0,406.116,83.335Z" transform="translate(-403.599 -82.963)" fill="#0090df"/>
    </g>
  </g>
  <g id="Group_6952" data-name="Group 6952" transform="translate(46.77 6.767)">
    <g id="Group_6951" data-name="Group 6951">
      <path id="Path_67248" data-name="Path 67248" d="M378.276,54.651a1,1,0,0,0-1.4.094l-.64.762a.995.995,0,1,0,1.524,1.279l.64-.762A1,1,0,0,0,378.276,54.651Z" transform="translate(-375.999 -54.404)" fill="#0090df"/>
    </g>
  </g>
  <g id="Group_6954" data-name="Group 6954" transform="translate(38.389 1.722)">
    <g id="Group_6953" data-name="Group 6953">
      <path id="Path_67249" data-name="Path 67249" d="M310.279,13.9a1,1,0,0,0-1.264.619l-.34.935a1,1,0,1,0,1.871.68l.339-.934.013-.036A1,1,0,0,0,310.279,13.9Z" transform="translate(-308.615 -13.845)" fill="#0090df"/>
    </g>
  </g>
  <g id="Group_6956" data-name="Group 6956" transform="translate(33.696 0.438)">
    <g id="Group_6955" data-name="Group 6955">
      <path id="Path_67250" data-name="Path 67250" d="M272.235,3.537a1,1,0,0,0-1.153.808l-.173.98h0a1,1,0,0,0,.808,1.152,1.035,1.035,0,0,0,.173.015,1,1,0,0,0,.979-.822l.173-.98A1,1,0,0,0,272.235,3.537Z" transform="translate(-270.894 -3.521)" fill="#0090df"/>
    </g>
  </g>
  <g id="Group_6958" data-name="Group 6958" transform="translate(14.431 3.872)">
    <g id="Group_6957" data-name="Group 6957">
      <path id="Path_67251" data-name="Path 67251" d="M119.861,35.064l-1.99-3.447a1,1,0,0,0-1.724,1l1.99,3.447a1,1,0,1,0,1.724-1Z" transform="translate(-116.017 -31.124)" fill="#0090df"/>
    </g>
  </g>
  <g id="Group_6960" data-name="Group 6960" transform="translate(3.871 14.432)">
    <g id="Group_6959" data-name="Group 6959">
      <path id="Path_67252" data-name="Path 67252" d="M36.051,118.146l-3.447-1.99a1,1,0,0,0-1,1.724l3.447,1.99a1,1,0,0,0,1-1.724Z" transform="translate(-31.116 -116.025)" fill="#0090df"/>
    </g>
  </g>
  <g id="Group_6962" data-name="Group 6962" transform="translate(3.867 41.294)">
    <g id="Group_6961" data-name="Group 6961">
      <path id="Path_67253" data-name="Path 67253" d="M36.394,332.464a1,1,0,0,0-1.362-.355l-3.447,1.99a1,1,0,1,0,1,1.724l3.447-1.99.012-.007A1,1,0,0,0,36.394,332.464Z" transform="translate(-31.088 -331.972)" fill="#0090df"/>
    </g>
  </g>
  <g id="Group_6964" data-name="Group 6964" transform="translate(14.43 50.398)">
    <g id="Group_6963" data-name="Group 6963">
      <path id="Path_67254" data-name="Path 67254" d="M119.489,405.291a1,1,0,0,0-1.357.373l-1.99,3.447a1,1,0,0,0,1.724,1l1.99-3.447.007-.011A1,1,0,0,0,119.489,405.291Z" transform="translate(-116.008 -405.161)" fill="#0090df"/>
    </g>
  </g>
  <g id="Group_6966" data-name="Group 6966" transform="translate(41.3 50.409)">
    <g id="Group_6965" data-name="Group 6965">
      <path id="Path_67255" data-name="Path 67255" d="M335.862,409.192l-1.99-3.447a1,1,0,0,0-1.724,1l1.99,3.447a1,1,0,0,0,1.724-1Z" transform="translate(-332.018 -405.253)" fill="#0090df"/>
    </g>
  </g>
  <g id="Group_6968" data-name="Group 6968" transform="translate(50.408 41.301)">
    <g id="Group_6967" data-name="Group 6967">
      <path id="Path_67256" data-name="Path 67256" d="M410.18,334.146l-3.447-1.99a1,1,0,0,0-1,1.724l3.447,1.99a1,1,0,0,0,1-1.724Z" transform="translate(-405.246 -332.025)" fill="#0090df"/>
    </g>
  </g>
  <g id="Group_6970" data-name="Group 6970" transform="translate(50.405 14.432)">
    <g id="Group_6969" data-name="Group 6969">
      <path id="Path_67257" data-name="Path 67257" d="M410.518,116.528a1,1,0,0,0-1.357-.373l-3.447,1.99a1,1,0,1,0,1,1.724l3.447-1.99A1,1,0,0,0,410.518,116.528Z" transform="translate(-405.216 -116.025)" fill="#0090df"/>
    </g>
  </g>
  <g id="Group_6972" data-name="Group 6972" transform="translate(41.298 3.872)">
    <g id="Group_6971" data-name="Group 6971">
      <path id="Path_67258" data-name="Path 67258" d="M335.493,31.263a1,1,0,0,0-1.362.355l-1.99,3.447a1,1,0,1,0,1.724,1l1.99-3.447A1,1,0,0,0,335.493,31.263Z" transform="translate(-332.008 -31.126)" fill="#0090df"/>
    </g>
  </g>
  <g id="Group_6974" data-name="Group 6974" transform="translate(0 28.858)">
    <g id="Group_6973" data-name="Group 6973">
      <path id="Path_67259" data-name="Path 67259" d="M6.966,232H1a1,1,0,1,0,0,1.99H6.966a1,1,0,0,0,0-1.99Z" transform="translate(0 -232)" fill="#0090df"/>
    </g>
  </g>
  <g id="Group_6976" data-name="Group 6976" transform="translate(28.858 51.746)">
    <g id="Group_6975" data-name="Group 6975">
      <path id="Path_67260" data-name="Path 67260" d="M233,416a1,1,0,0,0-1,1v5.971a1,1,0,0,0,1.99,0V417A1,1,0,0,0,233,416Z" transform="translate(-232 -416)" fill="#0090df"/>
    </g>
  </g>
  <g id="Group_6978" data-name="Group 6978" transform="translate(50.751 28.858)">
    <g id="Group_6977" data-name="Group 6977">
      <path id="Path_67261" data-name="Path 67261" d="M415.961,232H409a1,1,0,0,0,0,1.99h6.966a1,1,0,0,0,0-1.99Z" transform="translate(-408 -232)" fill="#0090df"/>
    </g>
  </g>
  <g id="Group_6980" data-name="Group 6980" transform="translate(21.204 15.452)">
    <g id="Group_6979" data-name="Group 6979">
      <path id="Path_67262" data-name="Path 67262" d="M193.273,124.517a1,1,0,0,0-1.407,0l-10.732,10.732a3.912,3.912,0,0,0-1.99-.516,3.958,3.958,0,0,0-1.87.519l-5.106-5.106a1,1,0,0,0-1.413,1.407l5.065,5.065a3.986,3.986,0,1,0,6.753,0l10.7-10.695A1,1,0,0,0,193.273,124.517ZM180.691,140.1a1.99,1.99,0,0,1-2.813.1l-.058-.057a1.99,1.99,0,0,1,1.354-3.418,1.929,1.929,0,0,1,1.416.561A1.99,1.99,0,0,1,180.691,140.1Z" transform="translate(-170.464 -124.226)" fill="#0090df"/>
    </g>
  </g>
</svg>
