<svg xmlns="http://www.w3.org/2000/svg" width="558" height="87"><defs><clipPath id="a"><path data-name="Rectangle 152668" transform="translate(1362 160)" fill="rgba(255,255,255,0)" d="M0 0h558v87H0z"/></clipPath><clipPath id="b"><path data-name="Rectangle 152635" fill="#175850" d="M0 0h960.242v39.84H0z"/></clipPath><clipPath id="c"><path data-name="Rectangle 152634" transform="translate(.24 1.616)" fill="#175850" d="M0 0h960.002v37.444H0z"/></clipPath></defs><g data-name="Mask Group 2" transform="translate(-1362 -160)" clip-path="url(#a)"><g data-name="Group 179110"><g data-name="Group 179069"><g data-name="Group 179073" clip-path="url(#b)" transform="translate(1362 160)"><g data-name="Group 179072"><g data-name="Group 179071" clip-path="url(#c)"><g data-name="Group 179070"><g data-name="Group 179069" clip-path="url(#c)" fill="#175850"><path data-name="Path 131247" d="M.24 31.92v-21.6a3.442 3.442 0 0 1 .96-.39 49.664 49.664 0 0 0 5.035-.377c.991-.184 1.92.17 2.784.023 1.305-.222 2.581-.418 3.913-.538 3.845-.345 7.71-.475 11.487-1.647a55.162 55.162 0 0 1 8.856-1.519c2.282-.313 4.585-.487 6.884-.653 2.084-.151 4.175-.274 6.263-.291 2.829-.024 5.658.1 8.487.093 2.02-.006 4.04-.163 6.061-.186 2.037-.024 4.076.024 6.113.063.591.011 1.181.146 1.771.141a119.26 119.26 0 0 0 4.709-.129c.659-.033 1.425-.461 1.945-.242 1.8.759 3.788-.662 5.517.592.2.146.683-.089 1.032-.158a8.457 8.457 0 0 1 1.856-.354c1.771.067 3.535.308 5.306.357 1.2.034 2.406-.185 3.611-.211 1.762-.037 3.526 0 5.29 0a6.62 6.62 0 0 0 1.43-.019c2.542-.57 5.206.817 7.7-.488.151-.079.388.017.585.014 1.98-.034 3.963-.023 5.939-.126 1.439-.074 2.984-.714 4.277-.358 1.77.487 3.024-1.112 4.721-.65a9.694 9.694 0 0 0 1.547.221c1.177.1 2.4-.313 3.567-.175 1.061.126 1.859.681 3.048-.22.9-.679 2.488-.559 3.774-.587 3.023-.067 6.049-.021 9.074.009.552.006 1.1.19 1.656.225 1.729.11 3.473.086 5.185.309 1.489.194 2.929.832 4.417.956 3.407.285 6.832.343 10.246.554 2.784.173 5.563.419 8.341.665.876.078 1.741.358 2.615.377 1.811.041 3.627-.112 5.435-.036 2.442.1 4.875.4 7.316.517 2.142.1 4.292.036 6.436.093 4.269.112 8.525.463 12.807.325 3.76-.122 7.529.012 11.294.053a40.1 40.1 0 0 1 4.969.163c2.363.321 4.8-.609 7.1.467.088.041.259-.142.4-.169a35.654 35.654 0 0 1 3.8-.691c2.119-.174 4.25-.2 6.376-.275 2.1-.069 4.206-.12 6.309-.165 1.375-.03 2.752 0 4.126-.06 1.874-.079 3.745-.25 5.619-.312 1.494-.049 2.992.055 4.486 0s3-.3 4.5-.316c2.041-.027 4.084.131 6.126.115 2.259-.018 4.518-.141 6.777-.219 1.975-.068 3.95-.17 5.925-.2 2.495-.036 4.991-.014 7.487-.018.233 0 .468.005.7-.015 2.016-.181 4.031-.37 6.048-.544.147-.013.389.026.44.121.8 1.482 1.906.253 2.839.275 1.044.025 2.269-.7 3.112-.362 2.225.906 4.393-.246 6.56.2a7.3 7.3 0 0 0 1.949.014c1.592-.117 3.18-.351 4.773-.392a44.214 44.214 0 0 1 4.5.191c.774.06 1.7.028 1.685.932l2.635 1.085a9.54 9.54 0 0 0 1.037-.759c.44-.4 2.453-.757 2.9-.376.577.5.964.3 1.436-.144.626-.584 3.029-.88 3.457-.31.871 1.16 1.806.645 2.751.321a3.733 3.733 0 0 1 3.751 1.159c1.222-.123 2.491-.068 3.461-1.036a.763.763 0 0 1 .453-.131c2.384-.174 4.768-.341 7.165-.51l.355 1.316a20.738 20.738 0 0 0 2.542-.025 3.726 3.726 0 0 0 1.808-.623 3.806 3.806 0 0 1 3.213-.76c1.638.245 3.3.32 5 .472.089.989.887 1.488 2.351.919a7.131 7.131 0 0 1 2.724-.352 18.367 18.367 0 0 0 2.089-.291c.351-.041.713.019 1.066-.009a16.447 16.447 0 0 0 3.775-.383c1.95-.64 3.817-1.345 5.9-.666a2.819 2.819 0 0 0 1.171-.068c1.218-.168 2.432-.365 3.651-.524.167-.021.354.109.513.163l.07 1.138h1.2l.061-1.065c1.958-.8 3.854.383 5.715-.22 1.93-.626 3.244.792 4.79 1.428.82.338 1.756 1 2.449.2a1.175 1.175 0 0 1 1.783-.274c.323-1.224 1.274-1.152 2.135-1.075a9.961 9.961 0 0 1 2.745.563c.38.15.543.847.8 1.3-.181.232-.055.218.049.259 1.252.488 2.384.664 3.3-.7.351-.523 1.134-.861 1.548-.055.508.988.908.807 1.619.231a2.812 2.812 0 0 1 3.729.165c1.414 1.21 2.364 1.183 3.31.109.431.283.808.739 1.171.729 1.068-.031 2.133-.375 3.2-.361 1.629.023 3.256.242 4.94.383a26.159 26.159 0 0 1 3.456-.3c2.587.089 5.168.356 7.756.48a22.143 22.143 0 0 0 3.454-.114c3.411-.373 6.81-.852 10.223-1.209 3.777-.394 7.563-.7 11.346-1.04 2.965-.263 5.93-.532 8.9-.739.365-.025.756.319.987.424a19.609 19.609 0 0 1 2.956-.648c1.681-.118 3.377-.007 5.062-.079 2.4-.1 4.794-.309 7.193-.416 1.378-.061 2.761 0 4.142-.014 2.006-.024 4.015-.163 6.015-.084 2.634.1 5.261.384 7.891.569 2.08.146 4.161.285 6.243.387 1.495.073 2.994.1 4.491.111 1.7.012 3.393-.044 5.09-.021q6.54.087 13.081.223c3.257.072 6.515.158 9.769.306 1.466.066 2.921.376 4.386.438 4.035.172 8.074.264 12.111.4 2.4.083 4.8.168 7.2.313.636.038 1.255.414 1.888.429 1.252.03 2.508-.119 3.763-.126a21.081 21.081 0 0 1 2.443.181c1.075.121 2.145.282 3.217.425a4.029 4.029 0 0 0 1.265-.079c1.7-.071 3.491-.426 5.1-.04 1.9.457 3.986-.995 5.7.665.074.072.363-.112.555-.123 2.131-.124 4.258-.153 6.387-.467 1.9-.281 3.853.357 5.817.015a25.4 25.4 0 0 1 2.956.152c1.569-.077 3.13-.424 4.695-.435q5.727-.038 11.454.143c3.052.092 6.1.25 9.146.513 3.373.292 6.766-.5 10.146.437 1.339.37 2.878.023 4.326-.009 3.082-.069 6.163-.158 9.245-.206.589-.009 1.182.212 1.77.2 2.745-.081 5.489-.306 8.232-.3 3.438.015 6.874.284 10.311.3 2.352.012 4.7-.287 7.058-.314 2.192-.025 4.387.2 6.58.18 2.452-.026 4.9-.254 7.353-.3a2.8 2.8 0 0 1 2.595.814c.809 1.034 1.708 1.042 2.869.359a4.549 4.549 0 0 1 2.042-.729c1.651-.041 3.308.117 4.735.185l.7 1.284 1.522-.994c.094.04.583.09.711.332.808 1.529 2.257 1.294 3.441 1.045a6.28 6.28 0 0 1 3.119.215c2.054.581 2.443.431 2.977-1.484 1.212-.387 2.346-.454 3.153.834a6.075 6.075 0 0 1 8.15-1c1.133-.505 2.206-1.014 3.308-1.451.244-.1.8-.018.855.117.525 1.39 1.818.811 2.827 1.236.128-1.123.722-1.478 1.745-1.258a1.133 1.133 0 0 0 .9-.225 3.168 3.168 0 0 1 2.372-.659c1.951-.1 3.9-.238 5.85-.344 1.113-.06 2.227-.1 3.341-.119a1.476 1.476 0 0 1 .894.2c1.517 1.254 2.28 1.327 3.724.3.411.248.827.714 1.209.688 1.2-.08 2.383-.347 3.583-.543l.051-.719c.973-.237 1.82-.427 2.657-.653a13.894 13.894 0 0 1 1.748-.541c1.351-.177 2.714-.279 4.076-.367 1.927-.125 3.859-.189 5.787-.315 2.417-.157 4.831-.378 7.25-.518 1.364-.079 2.734-.058 4.1-.066.422 0 1.072-.118 1.228.1.9 1.249 1.784.385 2.726.155.675-.165 1.442-.214 1.658.826a.982.982 0 0 0 .86.4 9.518 9.518 0 0 0 1.482-1.132 1.35 1.35 0 0 0 2.267.339c.265-.206.942.094 1.424.195.551.114 1.166.5 1.629.358a15.246 15.246 0 0 1 5.651-.829c.8.06 1.629-.229 1.766.963.011.1.24.226.382.25.733.125 1.47.221 2.29.338.3-1.534 1.79-1.888 2.92-1.944 1.6-.08 3.178-.175 4.779-.347a71.156 71.156 0 0 1 7.622-.188c.767 0 1.537.356 2.3.337 2.2-.054 4.4-.269 6.6-.319 1.931-.044 3.866.043 5.8.085.48.01.961.1 1.441.092a8.539 8.539 0 0 1 1.943-.049c.31.072.482.7.736 1.067a.5.5 0 0 0 .321.206c1.3.055 2.592.08 3.887.134 1.04.044 2.375-.808 2.788.923.17 0 .273.033.324-.005a7.2 7.2 0 0 1 5.14-1.171c2.133.165 2.136.125 2.618-1.529 2.107.2 4.246.376 6.379.61a39.48 39.48 0 0 0 5.673.108c4.3-.145 8.6-.493 12.923.021a41.906 41.906 0 0 0 5.927-.152 1.22 1.22 0 0 1 .865.219.986.986 0 0 0 1.674.144 3.059 3.059 0 0 1 1.095-.615c.325-.1.987-.116 1.018-.016.389 1.229 1.451.865 2.278 1.029s1.085-.186.689-1.219c.694.212 1.218.341 1.717.533.439.169.838.554 1.277.592 2.372.206 4.749.409 7.128.466 2.141.052 4.5.835 6.359-.514 1.575-1.142 3.138-.74 4.735-.821.579-.029 1.166.182 1.752.2 3.689.114 7.378.195 11.067.314.565.018 1.193.38 1.677.225 2.293-.736 4.627-.352 6.912-.235 2.368.121 4.716.652 7.111.375v26.4a14.083 14.083 0 0 0-2.324-.093 29.935 29.935 0 0 1-5.372-.11c-2.034-.123-4.319-.952-6.1.928a.407.407 0 0 1-.342.071c-1.3-.37-1.694.285-1.532 1.733a31.193 31.193 0 0 1-3.311-.832c-2.231-.827-4.446-1.489-6.826-.645a.9.9 0 0 1-.58-.058c-2.451-1-4.983-.24-7.471-.3a35.132 35.132 0 0 0-4.6.548.924.924 0 0 1-.612-.32c-.536-.548-.9-.326-1.395.122-1.1.99-2.315 1.5-3.752.572a1.832 1.832 0 0 0-1.008-.215c-1.7.066-3.4.254-5.1.238-1.5-.014-2.994-.255-4.494-.366-1.152-.084-2.447-.468-3.423-.079a2.261 2.261 0 0 1-2.325.026c-.061-.038-.185-.073-.219-.042-.95.853-1.609-.065-2.321-.416-.8-.394-1.545-.835-2.465-.18v.8a14.874 14.874 0 0 1-1.806.4c-.826.077-2.12.392-2.4.007-.841-1.137-1.134-.249-1.785.068a4.282 4.282 0 0 1-2.513.481 7.579 7.579 0 0 1-2.663-1.5c-.367-.263-1.162-.455-1.418-.25a1.877 1.877 0 0 1-2.284.04c-.747-.384-1.12-.048-1.4.57-.126.273-.2.567-.3.852l-.4.012-.2-1.79c-.844-.566-1.79-.212-1.756.949.037 1.252-1.2.884-1.594 1.522a5.8 5.8 0 0 1-1.659-1.1 2.075 2.075 0 0 0-2.267-.989 30.013 30.013 0 0 1-3.516 1.124c-.177.045-.564-.408-.729-.7-.33-.583-.573-1.214-.918-1.969-.816.91-1.143 1.581-.036 2.459-.651.116-1.276.382-1.411.225-1.272-1.474-2.738-1.135-4.259-.6-.107.037-.253-.03-.355.013-.212.09-.508.171-.594.343-.628 1.261-1.258.956-2.1.166a1.224 1.224 0 0 0-1.8-.163 5.72 5.72 0 0 1-1.434.8c-.668.306-1.361.561-2.149.88-.713-1.283-1.553-1.25-2.557-.133-.164.182-.87-.123-1.325-.2.223-1.158-1.038-.85-1.23-1.23h-2.349a1.78 1.78 0 0 0-.98-.95c-.415-.117-1.229-.085-1.31.112a6.474 6.474 0 0 0-.23 1.859l.32.214a8.841 8.841 0 0 1-1.586.635 16.475 16.475 0 0 1-2.4.23c-.42.022-.969.1-1.246-.115-.725-.571-1.281-1.362-2.014-1.92a1.757 1.757 0 0 0-1.36-.122c-.159.045-.179.729-.182 1.123a1.735 1.735 0 0 0 .245.617 2.963 2.963 0 0 1-2.846.845c-.593-.119-1.377-.556-1.743-.324a5.123 5.123 0 0 1-5.2.224c-.505-.22-1.236.085-1.864.141-2.588.228-5.252-.845-7.784.454-.151.077-.39-.02-.589-.035a24.875 24.875 0 0 0-2.492-.171c-1.4.038-2.8.176-4.193.267a10.734 10.734 0 0 1-1.741.08c-1.547-.154-3.086-.5-4.632-.523a4.077 4.077 0 0 0-2.5.789c-.683.569-1.045 1.306-2.175 1.01-.963-.253-2 .2-2.993-.537-.708-.529-1.588.183-1.571 1.131-.967-.125-1.992.267-2.883-.468a.819.819 0 0 0-.78-.007c-.671.942-1.249.3-1.8-.1l-1.454 1.152c.212-1.409-.735-1.706-1.449-2.246-.922-.7-1.872-.534-1.943.566a7.319 7.319 0 0 0 .743 2.415c-1.14.587-1.745.276-2.51-1.53l-2.535.754c-.108-2.088-.371-2.242-2.205-1.853a8.5 8.5 0 0 1-2.295.039 1.883 1.883 0 0 0-2.261 1.773 6.77 6.77 0 0 1-.265.857c-.952-.129-.85-.156-1.029-.825-.1-.39-.63-.984-.9-.953-.908.1-2.14-.019-2.061 1.526.009.168-.241.35-.593.825 0-.921.019-1.484-.012-2.045-.01-.173-.187-.492-.242-.483a5.267 5.267 0 0 0-1.869.482c-.2.123-.038.959.1 1.429a10.486 10.486 0 0 0 .718 1.537l-.291.24-2.479-1.617.717-.863c-2.905-1.344-2.918-1.343-3.974.11-.683-.49-1.871.181-2.3-1.086-.066-.194-.9-.353-1.214-.2-.861.431-1.618 1.067-2.449 1.567a11.462 11.462 0 0 1-1.836.905c-.98.371-1.27-.523-1.847-1a5.622 5.622 0 0 0-2.2-.983 3.383 3.383 0 0 0-1.875.059c-.9.332-1.632-1.67-2.553-.133-.033.056-.43-.1-.655-.166a13.3 13.3 0 0 0-2.461-.705 7.337 7.337 0 0 0-2.031.361l.779 1.855c-1.745-.873-3.168-1.557-4.563-2.295-.827-.437-1.594-.933-2.522-.2-.162.129-.529.032-.794-.008-1.191-.177-2.379-.38-3.572-.548a.753.753 0 0 0-.53.165c-.45.39-.859.826-1.3 1.226a2.748 2.748 0 0 1-2.778-.268c-.389-.558-.7-1.143-1.585-.891-.829.238-1.5.5-1.376 1.567.029.255-.17.535-.263.8l-.339-.014a3.914 3.914 0 0 1-.162-1.388c.483-1.836-1.452-1-1.952-1.769-.09-.138-.838.1-1.245.253-.126.048-.153.414-.179.639-.048.421-.061.845-.086 1.232l-2.205.943c-.128-.863-.571-1.138-1.4-.721-.588.3-1.221.5-1.852.756-1.633-2.425-2.242-1.914-3.505-.491-1.9.539-3.691-1.784-5.261-.162l-.74-.17 1.137-.952c-.692-.972-1.4-1.086-2.171-.35-.338.323-.58.743-.895 1.092-.993 1.1-1.943 1.026-2.814-.192-.309-.433-.634-.854-.9-1.216a3.408 3.408 0 0 1-1.061.608c-.186.026-.658-.459-.616-.6.51-1.661-.857-1.839-1.754-1.922-1.64-.152-3.387-.726-4.933.438l-1.962 1.478c-2.519-1.459-1.795-1.607-4.358-.1l-.18 1.2-.455-.032v-3.23l-2.587 1.279c-.417-.341-1.354.021-2.33 1.233-1.636-.859-3.291-.232-4.876.118-1.774.391-1.943.456-2.589-.94a6.3 6.3 0 0 1-1.966-.587 2.669 2.669 0 0 0-2.262-.561c-.971.177-1.848 1.019-2.942.415a4.439 4.439 0 0 0-4.62.334c-1.706 1.074-3.361.729-5.04.438-.546-.094-.978-.847-1.462-1.3l.213-.336 2.311.379.315-1.622c-.849.107-1.226-1.81-2.231-.579-.608.746-2.106-.247-2.156 1.114a6.362 6.362 0 0 1 .9.833c.049.067-.2.522-.353.543-.765.107-1.743.445-2.269.11a3.147 3.147 0 0 0-2.327-.338 15.03 15.03 0 0 1-6.275-.29c-.653-.209-1.28-.5-2.16-.843-1.554.663-4.585.122-4.958-.771a13.01 13.01 0 0 1-1.606.273c-1.805.071-3.7-.226-5.392.234a7.841 7.841 0 0 1-4.986-.124c-.319-.116-.874-.27-1-.128-.6.7-1.18.216-1.7.021-.705-.262-1.395-.86-1.642.458-.018.093-.337.136-.521.189a29.034 29.034 0 0 1-4.063.443c-1.311.181-2.718-.41-4.158-.063a8.761 8.761 0 0 1-2.692-.034c-2.973-.247-5.986.1-8.923-.805a10.145 10.145 0 0 0-3.28-.073 23.409 23.409 0 0 1-2.816.253c-1.265-.107-2.5-.5-3.766-.692-.652-.1-1.335.022-2-.026-1.709-.123-3.413-.334-5.123-.422-3.493-.179-6.989-.281-10.482-.453-1.8-.089-3.6-.248-5.39-.394-1.157-.094-2.31-.231-3.467-.322a1.287 1.287 0 0 0-.7.135c-1.235.7-2.56.161-3.837.276-1.3.117-2.663-.287-3.933-.075a9.773 9.773 0 0 1-3.819-.226 22.466 22.466 0 0 0-2.943-.3c-.773-.063-1.687.146-2.29-.2a2.873 2.873 0 0 0-2.839.043c-1.058.427-2.262-.015-3.32-.122-1.329-.135-2.554-.569-3.841.126-.219.118-.547.029-.824.042-1.267.056-2.537.07-3.8.2a1.851 1.851 0 0 0-1.049.635 1.78 1.78 0 0 1-3.048-.083l-1.964.548-3.6-1.715c-.545.353-.988.595-1.375.905a3.5 3.5 0 0 0-.759.847c-.2.312-.32.987-.444.979a2.831 2.831 0 0 1-1.5-.446 7.828 7.828 0 0 1-1.2-1.447 16.486 16.486 0 0 1-2.914 0c-.59 0-1.489.021-1.723.377a6.2 6.2 0 0 1-6.141 3.085c-.191-.017-.392.231-.606.3a11.755 11.755 0 0 1-2.1.6 19.748 19.748 0 0 0-3.687.287 9.376 9.376 0 0 1-3.875.211 7.832 7.832 0 0 0-2.7.273c-.784.217-1.456.77-2.11-.233a10.089 10.089 0 0 0-1.208-1.222c-.8-.857-1.159-.844-1.844.028a2.32 2.32 0 0 1-.722.5c-.958.531-1.9 1.241-3.025.326-.062-.051-.226.035-.344.042-.63.036-1.26.067-2.176.115-.989 1.407-2.548 1.484-4.29.7a1.175 1.175 0 0 0-.586-.072c-1.7.19-3.434-.19-5.112.351a2.7 2.7 0 0 1-.907.011c-2.554-.116-5.111-.366-7.662-.317-2.5.048-4.984-.4-7.522.056-2.029.362-3.966-.609-5.875-1.364-1.08-.427-2.342-.461-2.1-2.4-.5.387-.679.558-.887.683a12.345 12.345 0 0 1-3.057 1.723 16.966 16.966 0 0 1-4.272.218c-1.154-.021-2.306-.22-3.459-.331-.873-.084-1.745-.175-2.62-.226-.534-.031-1.077.062-1.605 0-.732-.085-1.45-.342-2.181-.375a4.51 4.51 0 0 0-1.943.26c-1.134.492-2.177 1.219-3.467.439a.883.883 0 0 0-.645.064 6.634 6.634 0 0 1-6.163-.144 2.283 2.283 0 0 0-.887-.239 13.547 13.547 0 0 0-2.607-.207c-.62.051-1.66.359-1.733.713-.238 1.152-.927.835-1.611.8a15.123 15.123 0 0 1-1.522-.015c-1.584-.246-3.159-.556-4.74-.821-.89-.149-1.713-.688-2.7-.023a4.913 4.913 0 0 1-2.383.7c-2.112.115-4.232.081-6.349.107-.189.024-.351-.317-.618-.514-.787-.581-1.269.614-1.87.429-.67-.206-1.132-1.051-2.017-.657-.108.048-.2.14-.3.2-.556.308-1.038.346-1.428-.288-.487-.79-.759-.44-1.314.087a7 7 0 0 1-2.622 1.516 6.147 6.147 0 0 1-2.236-.122c-1.732-.152-3.591.345-5.093-1.008-.119-.107-.365-.061-.545-.112a6.624 6.624 0 0 1-1.729-.542c-.907-.572-1.674-.383-1.643.648.029.957-.483.965-1.094.975-1.292.022-2.587.06-3.876 0-2.359-.117-4.715-.294-7.07-.469a1.992 1.992 0 0 1-1.141-.285c-1.421-1.362-2.91-.357-4.142.092a3.716 3.716 0 0 1-4.373-1.075 2.16 2.16 0 0 0-1.394-.792c-.231-.024-.628.676-.793 1.108-.386 1.01-.877 1.653-2.115 1.249-.365-.119-.83.1-1.249.109-1.921.028-4.018.807-5.467-1.249-.031-.044-.149-.027-.226-.038-.321.217-.633.582-.967.6s-.673-.309-1.039-.5l-.556.657a5.784 5.784 0 0 0-1.412-.153 10.734 10.734 0 0 1-2.126.495c-1.676-.126-3.3-.623-5.006.1-.678.285-1.6-.036-2.411-.032-.461 0-.923.167-1.382.153-1.2-.035-2.406-.161-3.611-.189-1.173-.027-2.349 0-3.521.049a16.717 16.717 0 0 1-1.847.222c-2.412-.18-4.82-.423-7.227-.665a13.054 13.054 0 0 1-3.928-.536 5.294 5.294 0 0 0-4.465-.024.845.845 0 0 1-.62-.135c-.545-.321-1.069-.68-1.6-1.029-.579-.384-.721-.781-.164-1.351.169-.174.08-.6.11-.909a3.755 3.755 0 0 0-1.121.183c-.19.093-.3.474-.336.741-.168 1.087-.824 1.621-1.827 1.275-.408-.14-.6-.9-1.037-1.609-.367.089-1.217-.248-1.611.833a1.084 1.084 0 0 1-.907.41c-1.06-.1-2.192-.862-3.014.518-.07.118-.473.128-.678.059a25.242 25.242 0 0 1-2.6-.972c-.639-.3-1.178-.608-1.821.013a1.6 1.6 0 0 1-1.013.336 25.992 25.992 0 0 1-2.846-.1c-1.687-.162-3.366-.426-5.055-.549-.377-.027-.79.337-1.174.545-.284.154-.537.479-.822.5-3.255.244-6.513.474-9.773.639-1.129.057-2.27-.138-3.4-.1-1.357.042-2.708.235-4.065.306s-2.7.047-4.046.11c-1.122.052-2.241.163-3.361.263a6.091 6.091 0 0 1-2.02.183 10.853 10.853 0 0 0-4.792-.151 3.362 3.362 0 0 1-1.408-.082 13.052 13.052 0 0 0-2.4-.83c-.986-.075-2.3-.132-2.932.421a3.547 3.547 0 0 1-3.13.845c-1.416-.192-2.83-.4-4.248-.58a2.357 2.357 0 0 0-.7.118c-2.32.453-4.593.685-6.842-.467a4.81 4.81 0 0 0-2.32-.123 19.19 19.19 0 0 1-2.355.338c-1.814-.121-3.613-.465-5.427-.6-2.007-.146-4.023-.146-6.034-.229s-4.034-.227-6.053-.277c-1.173-.03-2.35.06-3.525.116-2.237.1-4.473.244-6.711.33-1.627.063-3.258.119-4.884.073-1.3-.037-2.611-.377-3.907-.328a41.816 41.816 0 0 1-8.222-.952c-2.279-.365-4.415-1.459-6.837-1.2-1 .108-2.055-.444-3.1-.528-1.273-.1-2.56-.031-3.841-.025-.063 0-.124.092-.188.14-.911.679-1.768.793-2.3-.086a6.025 6.025 0 0 1-1.187.409c-.885.09-1.777.114-2.666.153-1.394.062-2.788.151-4.183.16-1.068.006-2.138-.137-3.206-.129a12.281 12.281 0 0 0-2.252.246 17.517 17.517 0 0 1-2.876.663c-1.837.031-3.679-.255-5.519-.251-2.424 0-4.848.146-7.271.26q-2.444.114-4.883.321c-1.288.107-2.571.39-3.857.393-2.193 0-4.386-.167-6.58-.23-2.37-.068-4.742-.057-7.111-.151-3.379-.133-6.756-.328-10.133-.5-1.58-.081-3.16-.186-4.74-.257-.942-.041-1.9.058-2.824-.073-1.664-.237-3.305-.637-4.966-.892-.647-.1-1.329.057-1.989.015-1.63-.1-3.352-.652-4.861-.289-2.01.484-3.894-.454-5.89.076-1.337.355-2.869-.031-4.314-.065-1.275-.03-2.554-.1-3.825-.024-.9.051-1.8.452-2.691.437-1.453-.024-2.851.862-4.328.238-.051-.022-.142.071-.218.079-1.513.168-3.023.406-4.541.477a36.311 36.311 0 0 0-6.272.41 44.8 44.8 0 0 1-7.279.492c-1.7.086-3.413.127-5.118.214-1.533.077-3.064.253-4.6.268s-3.059-.137-4.59-.175c-1.277-.031-2.685.338-3.8-.087a4.364 4.364 0 0 0-3.609.1"/><path data-name="Path 131248" d="m731.23 35.982-1.106.652-.519-1 1.4-.227.223.572"/></g></g></g></g></g></g><g data-name="Group 179074"><g data-name="Group 179073" clip-path="url(#b)" transform="rotate(180 1161.121 123.42)"><g data-name="Group 179072"><g data-name="Group 179071" clip-path="url(#c)"><g data-name="Group 179070"><g data-name="Group 179069" clip-path="url(#c)" fill="#175850"><path data-name="Path 131247" d="M.24 31.92v-21.6a3.442 3.442 0 0 1 .96-.39 49.664 49.664 0 0 0 5.035-.377c.991-.184 1.92.17 2.784.023 1.305-.222 2.581-.418 3.913-.538 3.845-.345 7.71-.475 11.487-1.647a55.162 55.162 0 0 1 8.856-1.519c2.282-.313 4.585-.487 6.884-.653 2.084-.151 4.175-.274 6.263-.291 2.829-.024 5.658.1 8.487.093 2.02-.006 4.04-.163 6.061-.186 2.037-.024 4.076.024 6.113.063.591.011 1.181.146 1.771.141a119.26 119.26 0 0 0 4.709-.129c.659-.033 1.425-.461 1.945-.242 1.8.759 3.788-.662 5.517.592.2.146.683-.089 1.032-.158a8.457 8.457 0 0 1 1.856-.354c1.771.067 3.535.308 5.306.357 1.2.034 2.406-.185 3.611-.211 1.762-.037 3.526 0 5.29 0a6.62 6.62 0 0 0 1.43-.019c2.542-.57 5.206.817 7.7-.488.151-.079.388.017.585.014 1.98-.034 3.963-.023 5.939-.126 1.439-.074 2.984-.714 4.277-.358 1.77.487 3.024-1.112 4.721-.65a9.694 9.694 0 0 0 1.547.221c1.177.1 2.4-.313 3.567-.175 1.061.126 1.859.681 3.048-.22.9-.679 2.488-.559 3.774-.587 3.023-.067 6.049-.021 9.074.009.552.006 1.1.19 1.656.225 1.729.11 3.473.086 5.185.309 1.489.194 2.929.832 4.417.956 3.407.285 6.832.343 10.246.554 2.784.173 5.563.419 8.341.665.876.078 1.741.358 2.615.377 1.811.041 3.627-.112 5.435-.036 2.442.1 4.875.4 7.316.517 2.142.1 4.292.036 6.436.093 4.269.112 8.525.463 12.807.325 3.76-.122 7.529.012 11.294.053a40.1 40.1 0 0 1 4.969.163c2.363.321 4.8-.609 7.1.467.088.041.259-.142.4-.169a35.654 35.654 0 0 1 3.8-.691c2.119-.174 4.25-.2 6.376-.275 2.1-.069 4.206-.12 6.309-.165 1.375-.03 2.752 0 4.126-.06 1.874-.079 3.745-.25 5.619-.312 1.494-.049 2.992.055 4.486 0s3-.3 4.5-.316c2.041-.027 4.084.131 6.126.115 2.259-.018 4.518-.141 6.777-.219 1.975-.068 3.95-.17 5.925-.2 2.495-.036 4.991-.014 7.487-.018.233 0 .468.005.7-.015 2.016-.181 4.031-.37 6.048-.544.147-.013.389.026.44.121.8 1.482 1.906.253 2.839.275 1.044.025 2.269-.7 3.112-.362 2.225.906 4.393-.246 6.56.2a7.3 7.3 0 0 0 1.949.014c1.592-.117 3.18-.351 4.773-.392a44.214 44.214 0 0 1 4.5.191c.774.06 1.7.028 1.685.932l2.635 1.085a9.54 9.54 0 0 0 1.037-.759c.44-.4 2.453-.757 2.9-.376.577.5.964.3 1.436-.144.626-.584 3.029-.88 3.457-.31.871 1.16 1.806.645 2.751.321a3.733 3.733 0 0 1 3.751 1.159c1.222-.123 2.491-.068 3.461-1.036a.763.763 0 0 1 .453-.131c2.384-.174 4.768-.341 7.165-.51l.355 1.316a20.738 20.738 0 0 0 2.542-.025 3.726 3.726 0 0 0 1.808-.623 3.806 3.806 0 0 1 3.213-.76c1.638.245 3.3.32 5 .472.089.989.887 1.488 2.351.919a7.131 7.131 0 0 1 2.724-.352 18.367 18.367 0 0 0 2.089-.291c.351-.041.713.019 1.066-.009a16.447 16.447 0 0 0 3.775-.383c1.95-.64 3.817-1.345 5.9-.666a2.819 2.819 0 0 0 1.171-.068c1.218-.168 2.432-.365 3.651-.524.167-.021.354.109.513.163l.07 1.138h1.2l.061-1.065c1.958-.8 3.854.383 5.715-.22 1.93-.626 3.244.792 4.79 1.428.82.338 1.756 1 2.449.2a1.175 1.175 0 0 1 1.783-.274c.323-1.224 1.274-1.152 2.135-1.075a9.961 9.961 0 0 1 2.745.563c.38.15.543.847.8 1.3-.181.232-.055.218.049.259 1.252.488 2.384.664 3.3-.7.351-.523 1.134-.861 1.548-.055.508.988.908.807 1.619.231a2.812 2.812 0 0 1 3.729.165c1.414 1.21 2.364 1.183 3.31.109.431.283.808.739 1.171.729 1.068-.031 2.133-.375 3.2-.361 1.629.023 3.256.242 4.94.383a26.159 26.159 0 0 1 3.456-.3c2.587.089 5.168.356 7.756.48a22.143 22.143 0 0 0 3.454-.114c3.411-.373 6.81-.852 10.223-1.209 3.777-.394 7.563-.7 11.346-1.04 2.965-.263 5.93-.532 8.9-.739.365-.025.756.319.987.424a19.609 19.609 0 0 1 2.956-.648c1.681-.118 3.377-.007 5.062-.079 2.4-.1 4.794-.309 7.193-.416 1.378-.061 2.761 0 4.142-.014 2.006-.024 4.015-.163 6.015-.084 2.634.1 5.261.384 7.891.569 2.08.146 4.161.285 6.243.387 1.495.073 2.994.1 4.491.111 1.7.012 3.393-.044 5.09-.021q6.54.087 13.081.223c3.257.072 6.515.158 9.769.306 1.466.066 2.921.376 4.386.438 4.035.172 8.074.264 12.111.4 2.4.083 4.8.168 7.2.313.636.038 1.255.414 1.888.429 1.252.03 2.508-.119 3.763-.126a21.081 21.081 0 0 1 2.443.181c1.075.121 2.145.282 3.217.425a4.029 4.029 0 0 0 1.265-.079c1.7-.071 3.491-.426 5.1-.04 1.9.457 3.986-.995 5.7.665.074.072.363-.112.555-.123 2.131-.124 4.258-.153 6.387-.467 1.9-.281 3.853.357 5.817.015a25.4 25.4 0 0 1 2.956.152c1.569-.077 3.13-.424 4.695-.435q5.727-.038 11.454.143c3.052.092 6.1.25 9.146.513 3.373.292 6.766-.5 10.146.437 1.339.37 2.878.023 4.326-.009 3.082-.069 6.163-.158 9.245-.206.589-.009 1.182.212 1.77.2 2.745-.081 5.489-.306 8.232-.3 3.438.015 6.874.284 10.311.3 2.352.012 4.7-.287 7.058-.314 2.192-.025 4.387.2 6.58.18 2.452-.026 4.9-.254 7.353-.3a2.8 2.8 0 0 1 2.595.814c.809 1.034 1.708 1.042 2.869.359a4.549 4.549 0 0 1 2.042-.729c1.651-.041 3.308.117 4.735.185l.7 1.284 1.522-.994c.094.04.583.09.711.332.808 1.529 2.257 1.294 3.441 1.045a6.28 6.28 0 0 1 3.119.215c2.054.581 2.443.431 2.977-1.484 1.212-.387 2.346-.454 3.153.834a6.075 6.075 0 0 1 8.15-1c1.133-.505 2.206-1.014 3.308-1.451.244-.1.8-.018.855.117.525 1.39 1.818.811 2.827 1.236.128-1.123.722-1.478 1.745-1.258a1.133 1.133 0 0 0 .9-.225 3.168 3.168 0 0 1 2.372-.659c1.951-.1 3.9-.238 5.85-.344 1.113-.06 2.227-.1 3.341-.119a1.476 1.476 0 0 1 .894.2c1.517 1.254 2.28 1.327 3.724.3.411.248.827.714 1.209.688 1.2-.08 2.383-.347 3.583-.543l.051-.719c.973-.237 1.82-.427 2.657-.653a13.894 13.894 0 0 1 1.748-.541c1.351-.177 2.714-.279 4.076-.367 1.927-.125 3.859-.189 5.787-.315 2.417-.157 4.831-.378 7.25-.518 1.364-.079 2.734-.058 4.1-.066.422 0 1.072-.118 1.228.1.9 1.249 1.784.385 2.726.155.675-.165 1.442-.214 1.658.826a.982.982 0 0 0 .86.4 9.518 9.518 0 0 0 1.482-1.132 1.35 1.35 0 0 0 2.267.339c.265-.206.942.094 1.424.195.551.114 1.166.5 1.629.358a15.246 15.246 0 0 1 5.651-.829c.8.06 1.629-.229 1.766.963.011.1.24.226.382.25.733.125 1.47.221 2.29.338.3-1.534 1.79-1.888 2.92-1.944 1.6-.08 3.178-.175 4.779-.347a71.156 71.156 0 0 1 7.622-.188c.767 0 1.537.356 2.3.337 2.2-.054 4.4-.269 6.6-.319 1.931-.044 3.866.043 5.8.085.48.01.961.1 1.441.092a8.539 8.539 0 0 1 1.943-.049c.31.072.482.7.736 1.067a.5.5 0 0 0 .321.206c1.3.055 2.592.08 3.887.134 1.04.044 2.375-.808 2.788.923.17 0 .273.033.324-.005a7.2 7.2 0 0 1 5.14-1.171c2.133.165 2.136.125 2.618-1.529 2.107.2 4.246.376 6.379.61a39.48 39.48 0 0 0 5.673.108c4.3-.145 8.6-.493 12.923.021a41.906 41.906 0 0 0 5.927-.152 1.22 1.22 0 0 1 .865.219.986.986 0 0 0 1.674.144 3.059 3.059 0 0 1 1.095-.615c.325-.1.987-.116 1.018-.016.389 1.229 1.451.865 2.278 1.029s1.085-.186.689-1.219c.694.212 1.218.341 1.717.533.439.169.838.554 1.277.592 2.372.206 4.749.409 7.128.466 2.141.052 4.5.835 6.359-.514 1.575-1.142 3.138-.74 4.735-.821.579-.029 1.166.182 1.752.2 3.689.114 7.378.195 11.067.314.565.018 1.193.38 1.677.225 2.293-.736 4.627-.352 6.912-.235 2.368.121 4.716.652 7.111.375v26.4a14.083 14.083 0 0 0-2.324-.093 29.935 29.935 0 0 1-5.372-.11c-2.034-.123-4.319-.952-6.1.928a.407.407 0 0 1-.342.071c-1.3-.37-1.694.285-1.532 1.733a31.193 31.193 0 0 1-3.311-.832c-2.231-.827-4.446-1.489-6.826-.645a.9.9 0 0 1-.58-.058c-2.451-1-4.983-.24-7.471-.3a35.132 35.132 0 0 0-4.6.548.924.924 0 0 1-.612-.32c-.536-.548-.9-.326-1.395.122-1.1.99-2.315 1.5-3.752.572a1.832 1.832 0 0 0-1.008-.215c-1.7.066-3.4.254-5.1.238-1.5-.014-2.994-.255-4.494-.366-1.152-.084-2.447-.468-3.423-.079a2.261 2.261 0 0 1-2.325.026c-.061-.038-.185-.073-.219-.042-.95.853-1.609-.065-2.321-.416-.8-.394-1.545-.835-2.465-.18v.8a14.874 14.874 0 0 1-1.806.4c-.826.077-2.12.392-2.4.007-.841-1.137-1.134-.249-1.785.068a4.282 4.282 0 0 1-2.513.481 7.579 7.579 0 0 1-2.663-1.5c-.367-.263-1.162-.455-1.418-.25a1.877 1.877 0 0 1-2.284.04c-.747-.384-1.12-.048-1.4.57-.126.273-.2.567-.3.852l-.4.012-.2-1.79c-.844-.566-1.79-.212-1.756.949.037 1.252-1.2.884-1.594 1.522a5.8 5.8 0 0 1-1.659-1.1 2.075 2.075 0 0 0-2.267-.989 30.013 30.013 0 0 1-3.516 1.124c-.177.045-.564-.408-.729-.7-.33-.583-.573-1.214-.918-1.969-.816.91-1.143 1.581-.036 2.459-.651.116-1.276.382-1.411.225-1.272-1.474-2.738-1.135-4.259-.6-.107.037-.253-.03-.355.013-.212.09-.508.171-.594.343-.628 1.261-1.258.956-2.1.166a1.224 1.224 0 0 0-1.8-.163 5.72 5.72 0 0 1-1.434.8c-.668.306-1.361.561-2.149.88-.713-1.283-1.553-1.25-2.557-.133-.164.182-.87-.123-1.325-.2.223-1.158-1.038-.85-1.23-1.23h-2.349a1.78 1.78 0 0 0-.98-.95c-.415-.117-1.229-.085-1.31.112a6.474 6.474 0 0 0-.23 1.859l.32.214a8.841 8.841 0 0 1-1.586.635 16.475 16.475 0 0 1-2.4.23c-.42.022-.969.1-1.246-.115-.725-.571-1.281-1.362-2.014-1.92a1.757 1.757 0 0 0-1.36-.122c-.159.045-.179.729-.182 1.123a1.735 1.735 0 0 0 .245.617 2.963 2.963 0 0 1-2.846.845c-.593-.119-1.377-.556-1.743-.324a5.123 5.123 0 0 1-5.2.224c-.505-.22-1.236.085-1.864.141-2.588.228-5.252-.845-7.784.454-.151.077-.39-.02-.589-.035a24.875 24.875 0 0 0-2.492-.171c-1.4.038-2.8.176-4.193.267a10.734 10.734 0 0 1-1.741.08c-1.547-.154-3.086-.5-4.632-.523a4.077 4.077 0 0 0-2.5.789c-.683.569-1.045 1.306-2.175 1.01-.963-.253-2 .2-2.993-.537-.708-.529-1.588.183-1.571 1.131-.967-.125-1.992.267-2.883-.468a.819.819 0 0 0-.78-.007c-.671.942-1.249.3-1.8-.1l-1.454 1.152c.212-1.409-.735-1.706-1.449-2.246-.922-.7-1.872-.534-1.943.566a7.319 7.319 0 0 0 .743 2.415c-1.14.587-1.745.276-2.51-1.53l-2.535.754c-.108-2.088-.371-2.242-2.205-1.853a8.5 8.5 0 0 1-2.295.039 1.883 1.883 0 0 0-2.261 1.773 6.77 6.77 0 0 1-.265.857c-.952-.129-.85-.156-1.029-.825-.1-.39-.63-.984-.9-.953-.908.1-2.14-.019-2.061 1.526.009.168-.241.35-.593.825 0-.921.019-1.484-.012-2.045-.01-.173-.187-.492-.242-.483a5.267 5.267 0 0 0-1.869.482c-.2.123-.038.959.1 1.429a10.486 10.486 0 0 0 .718 1.537l-.291.24-2.479-1.617.717-.863c-2.905-1.344-2.918-1.343-3.974.11-.683-.49-1.871.181-2.3-1.086-.066-.194-.9-.353-1.214-.2-.861.431-1.618 1.067-2.449 1.567a11.462 11.462 0 0 1-1.836.905c-.98.371-1.27-.523-1.847-1a5.622 5.622 0 0 0-2.2-.983 3.383 3.383 0 0 0-1.875.059c-.9.332-1.632-1.67-2.553-.133-.033.056-.43-.1-.655-.166a13.3 13.3 0 0 0-2.461-.705 7.337 7.337 0 0 0-2.031.361l.779 1.855c-1.745-.873-3.168-1.557-4.563-2.295-.827-.437-1.594-.933-2.522-.2-.162.129-.529.032-.794-.008-1.191-.177-2.379-.38-3.572-.548a.753.753 0 0 0-.53.165c-.45.39-.859.826-1.3 1.226a2.748 2.748 0 0 1-2.778-.268c-.389-.558-.7-1.143-1.585-.891-.829.238-1.5.5-1.376 1.567.029.255-.17.535-.263.8l-.339-.014a3.914 3.914 0 0 1-.162-1.388c.483-1.836-1.452-1-1.952-1.769-.09-.138-.838.1-1.245.253-.126.048-.153.414-.179.639-.048.421-.061.845-.086 1.232l-2.205.943c-.128-.863-.571-1.138-1.4-.721-.588.3-1.221.5-1.852.756-1.633-2.425-2.242-1.914-3.505-.491-1.9.539-3.691-1.784-5.261-.162l-.74-.17 1.137-.952c-.692-.972-1.4-1.086-2.171-.35-.338.323-.58.743-.895 1.092-.993 1.1-1.943 1.026-2.814-.192-.309-.433-.634-.854-.9-1.216a3.408 3.408 0 0 1-1.061.608c-.186.026-.658-.459-.616-.6.51-1.661-.857-1.839-1.754-1.922-1.64-.152-3.387-.726-4.933.438l-1.962 1.478c-2.519-1.459-1.795-1.607-4.358-.1l-.18 1.2-.455-.032v-3.23l-2.587 1.279c-.417-.341-1.354.021-2.33 1.233-1.636-.859-3.291-.232-4.876.118-1.774.391-1.943.456-2.589-.94a6.3 6.3 0 0 1-1.966-.587 2.669 2.669 0 0 0-2.262-.561c-.971.177-1.848 1.019-2.942.415a4.439 4.439 0 0 0-4.62.334c-1.706 1.074-3.361.729-5.04.438-.546-.094-.978-.847-1.462-1.3l.213-.336 2.311.379.315-1.622c-.849.107-1.226-1.81-2.231-.579-.608.746-2.106-.247-2.156 1.114a6.362 6.362 0 0 1 .9.833c.049.067-.2.522-.353.543-.765.107-1.743.445-2.269.11a3.147 3.147 0 0 0-2.327-.338 15.03 15.03 0 0 1-6.275-.29c-.653-.209-1.28-.5-2.16-.843-1.554.663-4.585.122-4.958-.771a13.01 13.01 0 0 1-1.606.273c-1.805.071-3.7-.226-5.392.234a7.841 7.841 0 0 1-4.986-.124c-.319-.116-.874-.27-1-.128-.6.7-1.18.216-1.7.021-.705-.262-1.395-.86-1.642.458-.018.093-.337.136-.521.189a29.034 29.034 0 0 1-4.063.443c-1.311.181-2.718-.41-4.158-.063a8.761 8.761 0 0 1-2.692-.034c-2.973-.247-5.986.1-8.923-.805a10.145 10.145 0 0 0-3.28-.073 23.409 23.409 0 0 1-2.816.253c-1.265-.107-2.5-.5-3.766-.692-.652-.1-1.335.022-2-.026-1.709-.123-3.413-.334-5.123-.422-3.493-.179-6.989-.281-10.482-.453-1.8-.089-3.6-.248-5.39-.394-1.157-.094-2.31-.231-3.467-.322a1.287 1.287 0 0 0-.7.135c-1.235.7-2.56.161-3.837.276-1.3.117-2.663-.287-3.933-.075a9.773 9.773 0 0 1-3.819-.226 22.466 22.466 0 0 0-2.943-.3c-.773-.063-1.687.146-2.29-.2a2.873 2.873 0 0 0-2.839.043c-1.058.427-2.262-.015-3.32-.122-1.329-.135-2.554-.569-3.841.126-.219.118-.547.029-.824.042-1.267.056-2.537.07-3.8.2a1.851 1.851 0 0 0-1.049.635 1.78 1.78 0 0 1-3.048-.083l-1.964.548-3.6-1.715c-.545.353-.988.595-1.375.905a3.5 3.5 0 0 0-.759.847c-.2.312-.32.987-.444.979a2.831 2.831 0 0 1-1.5-.446 7.828 7.828 0 0 1-1.2-1.447 16.486 16.486 0 0 1-2.914 0c-.59 0-1.489.021-1.723.377a6.2 6.2 0 0 1-6.141 3.085c-.191-.017-.392.231-.606.3a11.755 11.755 0 0 1-2.1.6 19.748 19.748 0 0 0-3.687.287 9.376 9.376 0 0 1-3.875.211 7.832 7.832 0 0 0-2.7.273c-.784.217-1.456.77-2.11-.233a10.089 10.089 0 0 0-1.208-1.222c-.8-.857-1.159-.844-1.844.028a2.32 2.32 0 0 1-.722.5c-.958.531-1.9 1.241-3.025.326-.062-.051-.226.035-.344.042-.63.036-1.26.067-2.176.115-.989 1.407-2.548 1.484-4.29.7a1.175 1.175 0 0 0-.586-.072c-1.7.19-3.434-.19-5.112.351a2.7 2.7 0 0 1-.907.011c-2.554-.116-5.111-.366-7.662-.317-2.5.048-4.984-.4-7.522.056-2.029.362-3.966-.609-5.875-1.364-1.08-.427-2.342-.461-2.1-2.4-.5.387-.679.558-.887.683a12.345 12.345 0 0 1-3.057 1.723 16.966 16.966 0 0 1-4.272.218c-1.154-.021-2.306-.22-3.459-.331-.873-.084-1.745-.175-2.62-.226-.534-.031-1.077.062-1.605 0-.732-.085-1.45-.342-2.181-.375a4.51 4.51 0 0 0-1.943.26c-1.134.492-2.177 1.219-3.467.439a.883.883 0 0 0-.645.064 6.634 6.634 0 0 1-6.163-.144 2.283 2.283 0 0 0-.887-.239 13.547 13.547 0 0 0-2.607-.207c-.62.051-1.66.359-1.733.713-.238 1.152-.927.835-1.611.8a15.123 15.123 0 0 1-1.522-.015c-1.584-.246-3.159-.556-4.74-.821-.89-.149-1.713-.688-2.7-.023a4.913 4.913 0 0 1-2.383.7c-2.112.115-4.232.081-6.349.107-.189.024-.351-.317-.618-.514-.787-.581-1.269.614-1.87.429-.67-.206-1.132-1.051-2.017-.657-.108.048-.2.14-.3.2-.556.308-1.038.346-1.428-.288-.487-.79-.759-.44-1.314.087a7 7 0 0 1-2.622 1.516 6.147 6.147 0 0 1-2.236-.122c-1.732-.152-3.591.345-5.093-1.008-.119-.107-.365-.061-.545-.112a6.624 6.624 0 0 1-1.729-.542c-.907-.572-1.674-.383-1.643.648.029.957-.483.965-1.094.975-1.292.022-2.587.06-3.876 0-2.359-.117-4.715-.294-7.07-.469a1.992 1.992 0 0 1-1.141-.285c-1.421-1.362-2.91-.357-4.142.092a3.716 3.716 0 0 1-4.373-1.075 2.16 2.16 0 0 0-1.394-.792c-.231-.024-.628.676-.793 1.108-.386 1.01-.877 1.653-2.115 1.249-.365-.119-.83.1-1.249.109-1.921.028-4.018.807-5.467-1.249-.031-.044-.149-.027-.226-.038-.321.217-.633.582-.967.6s-.673-.309-1.039-.5l-.556.657a5.784 5.784 0 0 0-1.412-.153 10.734 10.734 0 0 1-2.126.495c-1.676-.126-3.3-.623-5.006.1-.678.285-1.6-.036-2.411-.032-.461 0-.923.167-1.382.153-1.2-.035-2.406-.161-3.611-.189-1.173-.027-2.349 0-3.521.049a16.717 16.717 0 0 1-1.847.222c-2.412-.18-4.82-.423-7.227-.665a13.054 13.054 0 0 1-3.928-.536 5.294 5.294 0 0 0-4.465-.024.845.845 0 0 1-.62-.135c-.545-.321-1.069-.68-1.6-1.029-.579-.384-.721-.781-.164-1.351.169-.174.08-.6.11-.909a3.755 3.755 0 0 0-1.121.183c-.19.093-.3.474-.336.741-.168 1.087-.824 1.621-1.827 1.275-.408-.14-.6-.9-1.037-1.609-.367.089-1.217-.248-1.611.833a1.084 1.084 0 0 1-.907.41c-1.06-.1-2.192-.862-3.014.518-.07.118-.473.128-.678.059a25.242 25.242 0 0 1-2.6-.972c-.639-.3-1.178-.608-1.821.013a1.6 1.6 0 0 1-1.013.336 25.992 25.992 0 0 1-2.846-.1c-1.687-.162-3.366-.426-5.055-.549-.377-.027-.79.337-1.174.545-.284.154-.537.479-.822.5-3.255.244-6.513.474-9.773.639-1.129.057-2.27-.138-3.4-.1-1.357.042-2.708.235-4.065.306s-2.7.047-4.046.11c-1.122.052-2.241.163-3.361.263a6.091 6.091 0 0 1-2.02.183 10.853 10.853 0 0 0-4.792-.151 3.362 3.362 0 0 1-1.408-.082 13.052 13.052 0 0 0-2.4-.83c-.986-.075-2.3-.132-2.932.421a3.547 3.547 0 0 1-3.13.845c-1.416-.192-2.83-.4-4.248-.58a2.357 2.357 0 0 0-.7.118c-2.32.453-4.593.685-6.842-.467a4.81 4.81 0 0 0-2.32-.123 19.19 19.19 0 0 1-2.355.338c-1.814-.121-3.613-.465-5.427-.6-2.007-.146-4.023-.146-6.034-.229s-4.034-.227-6.053-.277c-1.173-.03-2.35.06-3.525.116-2.237.1-4.473.244-6.711.33-1.627.063-3.258.119-4.884.073-1.3-.037-2.611-.377-3.907-.328a41.816 41.816 0 0 1-8.222-.952c-2.279-.365-4.415-1.459-6.837-1.2-1 .108-2.055-.444-3.1-.528-1.273-.1-2.56-.031-3.841-.025-.063 0-.124.092-.188.14-.911.679-1.768.793-2.3-.086a6.025 6.025 0 0 1-1.187.409c-.885.09-1.777.114-2.666.153-1.394.062-2.788.151-4.183.16-1.068.006-2.138-.137-3.206-.129a12.281 12.281 0 0 0-2.252.246 17.517 17.517 0 0 1-2.876.663c-1.837.031-3.679-.255-5.519-.251-2.424 0-4.848.146-7.271.26q-2.444.114-4.883.321c-1.288.107-2.571.39-3.857.393-2.193 0-4.386-.167-6.58-.23-2.37-.068-4.742-.057-7.111-.151-3.379-.133-6.756-.328-10.133-.5-1.58-.081-3.16-.186-4.74-.257-.942-.041-1.9.058-2.824-.073-1.664-.237-3.305-.637-4.966-.892-.647-.1-1.329.057-1.989.015-1.63-.1-3.352-.652-4.861-.289-2.01.484-3.894-.454-5.89.076-1.337.355-2.869-.031-4.314-.065-1.275-.03-2.554-.1-3.825-.024-.9.051-1.8.452-2.691.437-1.453-.024-2.851.862-4.328.238-.051-.022-.142.071-.218.079-1.513.168-3.023.406-4.541.477a36.311 36.311 0 0 0-6.272.41 44.8 44.8 0 0 1-7.279.492c-1.7.086-3.413.127-5.118.214-1.533.077-3.064.253-4.6.268s-3.059-.137-4.59-.175c-1.277-.031-2.685.338-3.8-.087a4.364 4.364 0 0 0-3.609.1"/><path data-name="Path 131248" d="m731.23 35.982-1.106.652-.519-1 1.4-.227.223.572"/></g></g></g></g></g></g></g></g></svg>