<svg xmlns="http://www.w3.org/2000/svg" width="356" height="446"><defs><clipPath id="a"><path data-name="Rectangle 152632" fill="#175850" d="M0 0h356v446H0z"/></clipPath></defs><g data-name="Frau Weiß"><g data-name="Group 179068" clip-path="url(#a)" fill="#175850"><path data-name="Path 131238" d="M23.418 446.005 11.28 429.499c2.893-3.515 6.72-7.211 9.425-11.591 15.227-24.681 18.738-49.293 6.856-77.662-7.233-17.267-15.844-34.187-22.075-52.206-7.382-21.354-4.934-42.03-3.148-62.025 1.349-15.084 6.69-32.343 16.628-45.537a443.282 443.282 0 0 1 37.422-42.941c6.577-6.729 15.6-11.072 23.228-16.288-18.218-24.861-13.23-47.381 1.062-69.894 5.545-8.74 11.083-17.67 15.069-27.161 5.01-11.93 13.027-15.852 25.594-19.555 20.892-6.164 41.483-4.945 62.044-4.2 20.207.738 38.289 10.357 54.774 21.963 3.511 2.469 8.333 7.053 8.046 10.267-1.379 15.415 9.681 25.953 13.614 39.124a78.369 78.369 0 0 1 3.428 18.034c.64 11.983-2.81 25.328 1.424 35.662 4.875 11.892 16.025 21.3 24.8 31.485 21.284 24.688 38.176 51.943 49.138 82.7 1.447 4.065 3.9 9.2 2.614 12.6-12.19 32.222-3.654 65.453-4.392 98.067-.309 13.571 7.964 27.992 14.579 40.878 6.148 11.975 6.864 22.061-2.524 33.434-10.895-4.877-18.014-13.5-24.23-23.657-8.823-14.429-14.737-14.813-27.123-3.033a93.548 93.548 0 0 0-7.851 7.9c-17.916 21.715-41.5 32.283-68.945 35.572-.836.1-1.334 2.981-1.989 4.569h-66.97c-2.351-1.859-4.521-5.028-7.075-5.374-26.445-3.583-55.03-13.872-75.372-30.145-7.73-6.187-11.746-3-15.3 2.431-7.007 10.688-13.027 22.016-19.453 33.088Zm93.379-209.848c4.37 13.556-3.187 19.351-7.082 26.991-7.368 14.467-20.046 23.267-30.174 34.684-19.348 21.82-22.248 44.182-8.694 70.12 17.231 33 47.932 44.634 81.731 49.805 14.5 2.213 29.662 1.009 44.444.12 8.589-.512 17.268-2.74 25.481-5.48 18.617-6.21 36.157-14.549 46.426-32.621 13.456-23.694 19.627-49.15 16.741-76.427-1.838-17.417-10.02-24.206-28.02-24.673-13.32-.339-27.213 2.943-39.426-5.51-28.11.542-51.594-13.774-76.329-23.95-7.052-2.905-13.6-7.023-25.1-13.059m-78.084 67.5c11.03-9.6 19.611-17.538 28.7-24.861 18.758-15.128 31.266-33.471 28.185-58.551-.889-7.294-6.487-13.925-9.41-21.068-4.453-10.869 1.281-19.6 12.8-20.879 9.252-1.031 14.518 2.552 19.642 10.553 7.881 12.314 14.059 25.411 27.439 34.691 22.173 15.362 47.382 16.913 72.034 21.534 14.842 2.785 31.048-4.343 45.047 5.788 16.055-3.846 28.457 6.849 43.1 12.359-1.507-7.12-3.571-12.51-3.631-17.921-.256-22.919-12.846-41.044-22.4-60.441-6.238-12.683-17.585-19-28.4-27-42.553-31.47-89.257-37.6-138.764-23.777-36.917 10.3-65.615 34.45-77.421 70.225-10.179 30.853-13 64.8 3.074 99.347M229.908 103.88c0-6.533.618-14.677-.188-22.678-.693-6.925 3.8-14.926-3.443-20.714-9.018-7.218-17.562-19.412-27.311-20.488-23.627-2.6-49.01-5.683-70.166 10.289-17.8 13.435-35.863 27.405-32.179 55.608 8.589 0 17.653 2.333 24.72-.429 23.092-9.025 46.75-4.064 70.1-4.87 12.07-.422 24.237 1.965 38.469 3.282"/><path data-name="Path 131239" d="M171.91 395.681c-13.441 1.746-25.948-1.837-35.562-12.788-1.3-1.475-.859-5.005-.271-7.346.249-.994 2.9-1.648 4.551-1.949 1.793-.331 4.046-.738 5.507.023 20.832 10.771 39.336 7.406 56.16-8.475.934-.881 5-.384 5.56.625 1.981 3.515 5.425 9.454 4.114 11.049-9.968 12.207-22.173 20.983-40.059 18.861"/><path data-name="Path 131240" d="M82.419 322.399c6.766-17.387 16.553-17.184 25.36-15.3 4.076.873 8.318 6.4 10.179 10.793 2.253 5.306.2 11.576-5.613 13.812-4.5 1.724-10.525 2.642-14.8 1.054-5.786-2.168-10.548-7.075-15.129-10.357"/><path data-name="Path 131241" d="M237.894 306.57c14.82.188 21.578 6.94 19.92 16.356-1.251 7.083-9.388 14.1-15.332 11.17-6.826-3.357-12.349-9.529-17.931-15.009-.716-.7.972-5.472 2.727-6.729 4.068-2.935 8.86-4.87 10.616-5.788"/><path data-name="Path 131242" d="M258.854 218.491c-22.407 19.645-46.034 9.205-65.713 2.311-18.722-6.556-39.539-17.44-46.7-44.476 36.605 20.217 76.852 23.476 112.413 42.165"/><path data-name="Path 131243" d="M51.37 266.527c.565-3.018.407-6.435 1.831-8.98 5.643-10.093 5.523-19.863.045-29.942-2.825-5.194-5.681-10.545-7.24-16.183-.821-2.958 1.13-6.676 1.831-10.048 3.134.813 6.818.835 9.312 2.574 12.841 8.948 18.549 20.707 16.841 37.063-1.449 13.91-13.91 17.185-22.62 25.516"/><path data-name="Path 131244" d="M255.019 227.727a7.5 7.5 0 0 1-3.368-.8 24.755 24.755 0 0 1-2.5-1.483c-.173-.105-.331-.218-.5-.331-37.126 1.935-71.362-10.611-104.482-38.159a7.528 7.528 0 1 1 9.636-11.569c30.4 25.283 61.547 36.641 95.2 34.638 3.594-.263 6.487 1.6 8.348 2.8a10.358 10.358 0 0 0 1.047.647 7.526 7.526 0 0 1-3.383 14.256"/><path data-name="Path 131245" d="M171.472 395.612c-13.26 0-25.918-4.652-36.812-9.687a7.528 7.528 0 0 1 6.329-13.661c24.938 11.531 41.2 11.057 56.122-1.679a7.531 7.531 0 1 1 9.787 11.449c-11.731 10-23.808 13.578-35.426 13.578"/><path data-name="Path 131246" d="M54.105 272.331a7.527 7.527 0 0 1-6.02-12.05c13.388-17.808 13.614-30.341.8-43.279-2.8-2.823-3.609-6.45-4.2-9.1a21 21 0 0 0-.512-2.055 7.534 7.534 0 0 1 14.3-4.749c.369 1.121.655 2.326.927 3.545a17.912 17.912 0 0 0 .61 2.318c17.879 17.914 18.059 38.5.128 62.367a7.547 7.547 0 0 1-6.035 3"/></g></g></svg>