<svg xmlns="http://www.w3.org/2000/svg" width="27.002" height="24"><defs><clipPath id="a"><path data-name="Rectangle 152612" fill="#232323" d="M0 0h27.002v24H0z"/></clipPath></defs><g data-name="Group 179039" clip-path="url(#a)" fill="#232323"><path data-name="Path 130802" d="M15 24a1.5 1.5 0 0 1-.937-.322L6.975 18H4.5A4.5 4.5 0 0 1 0 13.5v-3A4.5 4.5 0 0 1 4.5 6h2.475L14.063.329A1.5 1.5 0 0 1 16.5 1.5v21a1.5 1.5 0 0 1-.848 1.358A1.554 1.554 0 0 1 15 24ZM4.5 9A1.5 1.5 0 0 0 3 10.5v3A1.5 1.5 0 0 0 4.5 15h3a1.5 1.5 0 0 1 .937.33l5.063 4.05V4.627l-5.062 4.05A1.5 1.5 0 0 1 7.5 9Z"/><path data-name="Path 130803" d="M19.156 15.659a1.5 1.5 0 0 1-1.067-2.557 2.25 2.25 0 0 0 0-3.18 1.52 1.52 0 1 1 2.16-2.138 5.25 5.25 0 0 1 0 7.425 1.5 1.5 0 0 1-1.1.45Z"/><path data-name="Path 130804" d="M22.868 19.373a1.5 1.5 0 0 1-1.065-2.588 7.5 7.5 0 0 0 0-10.605 1.501 1.501 0 0 1 2.123-2.123 10.5 10.5 0 0 1 0 14.851 1.5 1.5 0 0 1-1.058.465Z"/></g></svg>