<svg xmlns="http://www.w3.org/2000/svg" width="300" height="490"><defs><clipPath id="a"><path data-name="Rectangle 152672" transform="translate(188.001 32)" fill="rgba(255,255,255,0)" d="M0 0h300v490H0z"/></clipPath><clipPath id="b"><path data-name="Rectangle 152671" fill="#ded6cc" d="M0 0h488v490.055H0z"/></clipPath></defs><g data-name="Mask Group 3" transform="translate(-188.001 -32)" clip-path="url(#a)"><g data-name="Group 179113"><g data-name="Group 179111" transform="translate(0 31.944)" clip-path="url(#b)" fill="#ded6cc"><path data-name="Path 134683" d="M249.094 259.382a8.285 8.285 0 1 0-8.285-8.285 8.286 8.286 0 0 0 8.285 8.285"/><path data-name="Path 134684" d="M269.704 258.924a7.828 7.828 0 1 0-7.828-7.828 7.828 7.828 0 0 0 7.828 7.828"/><path data-name="Path 134685" d="M259.401 276.313a7.371 7.371 0 1 0-7.371-7.371 7.371 7.371 0 0 0 7.371 7.371"/><path data-name="Path 134686" d="M238.795 276.998a8.057 8.057 0 1 0-8.057-8.057 8.057 8.057 0 0 0 8.057 8.057"/><path data-name="Path 134687" d="M228.492 259.724a8.628 8.628 0 1 0-8.628-8.628 8.628 8.628 0 0 0 8.628 8.628"/><path data-name="Path 134688" d="M238.795 242.051a8.8 8.8 0 1 0-8.8-8.8 8.8 8.8 0 0 0 8.8 8.8"/><path data-name="Path 134689" d="M259.397 241.533a8.285 8.285 0 1 0-8.285-8.285 8.285 8.285 0 0 0 8.285 8.285"/><path data-name="Path 134690" d="M290.31 258.468a7.371 7.371 0 1 0-7.371-7.371 7.371 7.371 0 0 0 7.371 7.371"/><path data-name="Path 134691" d="M284.789 278.445a6.742 6.742 0 1 0-6.743-6.743 6.742 6.742 0 0 0 6.743 6.743"/><path data-name="Path 134692" d="M269.704 293.53a6.742 6.742 0 1 0-6.743-6.745 6.743 6.743 0 0 0 6.743 6.743"/><path data-name="Path 134693" d="M249.099 299.051a6.742 6.742 0 1 0-6.743-6.743 6.743 6.743 0 0 0 6.743 6.743"/><path data-name="Path 134694" d="M228.492 294.844a8.057 8.057 0 1 0-8.057-8.057 8.057 8.057 0 0 0 8.057 8.057"/><path data-name="Path 134695" d="M213.408 280.159a8.457 8.457 0 1 0-8.456-8.456 8.456 8.456 0 0 0 8.456 8.456"/><path data-name="Path 134696" d="M207.887 260.01a8.914 8.914 0 1 0-8.914-8.914 8.914 8.914 0 0 0 8.914 8.914"/><path data-name="Path 134697" d="M213.409 239.405a8.914 8.914 0 1 0-8.914-8.914 8.914 8.914 0 0 0 8.914 8.914"/><path data-name="Path 134698" d="M228.492 224.434a9.028 9.028 0 1 0-9.028-9.028 9.028 9.028 0 0 0 9.028 9.028"/><path data-name="Path 134699" d="M249.098 218.513a8.628 8.628 0 1 0-8.628-8.628 8.628 8.628 0 0 0 8.628 8.628"/><path data-name="Path 134700" d="M269.704 223.748a8.342 8.342 0 1 0-8.342-8.343 8.343 8.343 0 0 0 8.342 8.343"/><path data-name="Path 134701" d="M284.789 238.662a8.171 8.171 0 1 0-8.171-8.171 8.171 8.171 0 0 0 8.171 8.171"/><path data-name="Path 134702" d="M310.916 258.011a6.914 6.914 0 1 0-6.914-6.914 6.914 6.914 0 0 0 6.914 6.914"/><path data-name="Path 134703" d="M307.188 278.296a6.057 6.057 0 1 0-6.056-6.055 6.057 6.057 0 0 0 6.057 6.057"/><path data-name="Path 134704" d="M296.453 297.122a6.285 6.285 0 1 0-6.285-6.285 6.285 6.285 0 0 0 6.285 6.285"/><path data-name="Path 134705" d="M280.007 311.375a6.742 6.742 0 1 0-6.743-6.743 6.743 6.743 0 0 0 6.743 6.743"/><path data-name="Path 134706" d="M259.832 318.66a6.685 6.685 0 1 0-6.685-6.685 6.685 6.685 0 0 0 6.685 6.685"/><path data-name="Path 134707" d="M238.36 319.117a7.143 7.143 0 1 0-7.142-7.142 7.142 7.142 0 0 0 7.142 7.142"/><path data-name="Path 134708" d="M218.189 312.065a7.428 7.428 0 1 0-7.428-7.428 7.429 7.429 0 0 0 7.428 7.428"/><path data-name="Path 134709" d="M201.743 298.375a7.542 7.542 0 1 0-7.542-7.542 7.542 7.542 0 0 0 7.542 7.542"/><path data-name="Path 134710" d="M191.009 280.696a8.457 8.457 0 1 0-8.456-8.456 8.456 8.456 0 0 0 8.456 8.456"/><path data-name="Path 134711" d="M187.281 260.067a8.971 8.971 0 1 0-8.971-8.971 8.971 8.971 0 0 0 8.971 8.971"/><path data-name="Path 134712" d="M191.009 239.096a9.142 9.142 0 1 0-9.142-9.142 9.142 9.142 0 0 0 9.142 9.142"/><path data-name="Path 134713" d="M201.743 220.96a9.6 9.6 0 1 0-9.6-9.6 9.6 9.6 0 0 0 9.6 9.6"/><path data-name="Path 134714" d="M218.19 207.047a9.485 9.485 0 1 0-9.485-9.485 9.485 9.485 0 0 0 9.485 9.485"/><path data-name="Path 134715" d="M238.363 199.418a9.2 9.2 0 1 0-9.2-9.2 9.2 9.2 0 0 0 9.2 9.2"/><path data-name="Path 134716" d="M259.833 199.131a8.914 8.914 0 1 0-8.914-8.914 8.914 8.914 0 0 0 8.914 8.914"/><path data-name="Path 134717" d="M280.007 206.189a8.628 8.628 0 1 0-8.628-8.628 8.628 8.628 0 0 0 8.628 8.628"/><path data-name="Path 134718" d="M296.453 219.416a8.057 8.057 0 1 0-8.057-8.057 8.057 8.057 0 0 0 8.057 8.057"/><path data-name="Path 134719" d="M307.188 236.81a6.857 6.857 0 1 0-6.857-6.857 6.856 6.856 0 0 0 6.857 6.857"/><path data-name="Path 134720" d="M331.523 257.382a6.285 6.285 0 1 0-6.285-6.285 6.285 6.285 0 0 0 6.285 6.285"/><path data-name="Path 134721" d="M328.71 277.63a5.2 5.2 0 1 0-5.2-5.2 5.2 5.2 0 0 0 5.2 5.2"/><path data-name="Path 134722" d="M320.479 297.679a5.371 5.371 0 1 0-5.371-5.371 5.371 5.371 0 0 0 5.371 5.371"/><path data-name="Path 134723" d="M307.38 314.806a5.428 5.428 0 1 0-5.428-5.428 5.428 5.428 0 0 0 5.428 5.428"/><path data-name="Path 134724" d="M290.31 328.424a5.943 5.943 0 1 0-5.943-5.943 5.942 5.942 0 0 0 5.943 5.943"/><path data-name="Path 134725" d="M270.431 335.797a5.085 5.085 0 1 0-5.086-5.086 5.086 5.086 0 0 0 5.086 5.086"/><path data-name="Path 134726" d="M249.099 339.862a6.343 6.343 0 1 0-6.343-6.343 6.342 6.342 0 0 0 6.343 6.343"/><path data-name="Path 134727" d="M227.765 337.169a6.457 6.457 0 1 0-6.456-6.457 6.456 6.456 0 0 0 6.456 6.457"/><path data-name="Path 134728" d="M207.887 329.791a7.314 7.314 0 1 0-7.314-7.314 7.314 7.314 0 0 0 7.314 7.314"/><path data-name="Path 134729" d="M190.816 316.75a7.371 7.371 0 1 0-7.371-7.373 7.371 7.371 0 0 0 7.371 7.371"/><path data-name="Path 134730" d="M177.718 299.908a7.6 7.6 0 1 0-7.6-7.6 7.6 7.6 0 0 0 7.6 7.6"/><path data-name="Path 134731" d="M169.486 281a8.571 8.571 0 1 0-8.571-8.571 8.571 8.571 0 0 0 8.571 8.571"/><path data-name="Path 134732" d="M166.675 260.125a9.028 9.028 0 1 0-9.028-9.028 9.028 9.028 0 0 0 9.028 9.028"/><path data-name="Path 134733" d="M169.484 238.849a9.085 9.085 0 1 0-9.085-9.085 9.085 9.085 0 0 0 9.085 9.085"/><path data-name="Path 134734" d="M177.718 219.256a9.371 9.371 0 1 0-9.371-9.371 9.371 9.371 0 0 0 9.371 9.371"/><path data-name="Path 134735" d="M190.817 202.414a9.6 9.6 0 1 0-9.6-9.6 9.6 9.6 0 0 0 9.6 9.6"/><path data-name="Path 134736" d="M207.886 189.601a9.885 9.885 0 1 0-9.885-9.885 9.885 9.885 0 0 0 9.885 9.885"/><path data-name="Path 134737" d="M227.766 181.138a9.657 9.657 0 1 0-9.657-9.657 9.657 9.657 0 0 0 9.657 9.657"/><path data-name="Path 134738" d="M249.098 177.987a9.314 9.314 0 1 0-9.314-9.314 9.314 9.314 0 0 0 9.314 9.314"/><path data-name="Path 134739" d="M270.431 180.566a9.085 9.085 0 1 0-9.085-9.084 9.084 9.084 0 0 0 9.085 9.084"/><path data-name="Path 134740" d="M290.31 188.113a8.4 8.4 0 1 0-8.4-8.4 8.4 8.4 0 0 0 8.4 8.4"/><path data-name="Path 134741" d="M307.38 200.699a7.885 7.885 0 1 0-7.885-7.885 7.885 7.885 0 0 0 7.885 7.885"/><path data-name="Path 134742" d="M320.48 217.484a7.6 7.6 0 1 0-7.6-7.6 7.6 7.6 0 0 0 7.6 7.6"/><path data-name="Path 134743" d="M328.713 236.335a6.571 6.571 0 1 0-6.571-6.571 6.571 6.571 0 0 0 6.571 6.571"/><path data-name="Path 134744" d="M352.128 256.695a5.6 5.6 0 1 0-5.6-5.6 5.6 5.6 0 0 0 5.6 5.6"/><path data-name="Path 134745" d="M349.876 277.488a4.971 4.971 0 1 0-4.971-4.971 4.971 4.971 0 0 0 4.971 4.971"/><path data-name="Path 134746" d="M343.221 298.202a5.2 5.2 0 1 0-5.2-5.2 5.2 5.2 0 0 0 5.2 5.2"/><path data-name="Path 134747" d="M332.451 316.513a4.857 4.857 0 1 0-4.857-4.857 4.857 4.857 0 0 0 4.857 4.857"/><path data-name="Path 134748" d="M318.039 333.09a5.428 5.428 0 1 0-5.428-5.428 5.428 5.428 0 0 0 5.428 5.428"/><path data-name="Path 134749" d="M300.613 345.58a5.257 5.257 0 1 0-5.257-5.257 5.257 5.257 0 0 0 5.257 5.257"/><path data-name="Path 134750" d="M280.936 354.169a5.085 5.085 0 1 0-5.086-5.086 5.086 5.086 0 0 0 5.086 5.086"/><path data-name="Path 134751" d="M259.868 358.475a4.914 4.914 0 1 0-4.914-4.914 4.914 4.914 0 0 0 4.914 4.914"/><path data-name="Path 134752" d="M238.329 358.875a5.314 5.314 0 1 0-5.314-5.314 5.314 5.314 0 0 0 5.314 5.314"/><path data-name="Path 134753" d="M217.26 354.569a5.485 5.485 0 1 0-5.485-5.485 5.485 5.485 0 0 0 5.485 5.485"/><path data-name="Path 134754" d="M197.584 347.175a6.857 6.857 0 1 0-6.857-6.857 6.857 6.857 0 0 0 6.857 6.857"/><path data-name="Path 134755" d="M180.158 335.148a7.485 7.485 0 1 0-7.485-7.485 7.485 7.485 0 0 0 7.485 7.485"/><path data-name="Path 134756" d="M165.746 319.141a7.485 7.485 0 1 0-7.485-7.485 7.485 7.485 0 0 0 7.485 7.485"/><path data-name="Path 134757" d="M154.977 300.431a7.428 7.428 0 1 0-7.428-7.428 7.428 7.428 0 0 0 7.428 7.428"/><path data-name="Path 134758" d="M148.321 280.517a8 8 0 1 0-8-8 8 8 0 0 0 8 8"/><path data-name="Path 134759" d="M146.07 259.953a8.857 8.857 0 1 0-8.857-8.857 8.856 8.856 0 0 0 8.857 8.857"/><path data-name="Path 134760" d="M148.321 238.59a8.914 8.914 0 1 0-8.914-8.914 8.914 8.914 0 0 0 8.914 8.914"/><path data-name="Path 134761" d="M154.977 218.447a9.257 9.257 0 1 0-9.257-9.257 9.256 9.256 0 0 0 9.257 9.257"/><path data-name="Path 134762" d="M165.746 200.251a9.714 9.714 0 1 0-9.714-9.714 9.713 9.713 0 0 0 9.714 9.714"/><path data-name="Path 134763" d="M180.158 184.588a10.057 10.057 0 1 0-10.056-10.057 10.057 10.057 0 0 0 10.056 10.057"/><path data-name="Path 134764" d="M197.588 172.041a10.171 10.171 0 1 0-10.175-10.173 10.171 10.171 0 0 0 10.175 10.173"/><path data-name="Path 134765" d="M217.261 162.938a9.828 9.828 0 1 0-9.828-9.828 9.828 9.828 0 0 0 9.828 9.828"/><path data-name="Path 134766" d="M238.329 158.345a9.714 9.714 0 1 0-9.714-9.714 9.714 9.714 0 0 0 9.714 9.714"/><path data-name="Path 134767" d="M259.868 158.173a9.542 9.542 0 1 0-9.542-9.542 9.542 9.542 0 0 0 9.542 9.542"/><path data-name="Path 134768" d="M280.937 162.252a9.142 9.142 0 1 0-9.143-9.142 9.142 9.142 0 0 0 9.143 9.142"/><path data-name="Path 134769" d="M300.613 170.613a8.742 8.742 0 1 0-8.742-8.742 8.742 8.742 0 0 0 8.742 8.742"/><path data-name="Path 134770" d="M318.034 182.473a7.942 7.942 0 1 0-7.942-7.942 7.942 7.942 0 0 0 7.942 7.942"/><path data-name="Path 134771" d="M332.455 197.794a7.257 7.257 0 1 0-7.257-7.257 7.257 7.257 0 0 0 7.257 7.257"/><path data-name="Path 134772" d="M343.221 216.105a6.914 6.914 0 1 0-6.914-6.914 6.914 6.914 0 0 0 6.914 6.914"/><path data-name="Path 134773" d="M349.876 235.333a5.657 5.657 0 1 0-5.657-5.657 5.657 5.657 0 0 0 5.657 5.657"/><path data-name="Path 134774" d="M372.733 256.067a4.971 4.971 0 1 0-4.971-4.971 4.971 4.971 0 0 0 4.971 4.971"/><path data-name="Path 134775" d="M370.856 276.851a4.285 4.285 0 1 0-4.286-4.285 4.285 4.285 0 0 0 4.286 4.285"/><path data-name="Path 134776" d="M365.277 297.953a4.571 4.571 0 1 0-4.571-4.571 4.571 4.571 0 0 0 4.571 4.571"/><path data-name="Path 134777" d="M356.17 317.256a4.343 4.343 0 1 0-4.343-4.343 4.343 4.343 0 0 0 4.343 4.343"/><path data-name="Path 134778" d="M343.808 334.338a3.771 3.771 0 1 0-3.771-3.771 3.771 3.771 0 0 0 3.771 3.771"/><path data-name="Path 134779" d="M328.569 349.573a3.771 3.771 0 1 0-3.771-3.771 3.771 3.771 0 0 0 3.771 3.771"/><path data-name="Path 134780" d="M310.915 361.938a3.771 3.771 0 1 0-3.771-3.771 3.772 3.772 0 0 0 3.771 3.771"/><path data-name="Path 134781" d="M291.384 371.904a4.628 4.628 0 1 0-4.628-4.628 4.628 4.628 0 0 0 4.628 4.628"/><path data-name="Path 134782" d="M270.567 377.367a4.514 4.514 0 1 0-4.514-4.514 4.514 4.514 0 0 0 4.514 4.514"/><path data-name="Path 134783" d="M249.099 379.589a4.857 4.857 0 1 0-4.857-4.857 4.857 4.857 0 0 0 4.857 4.857"/><path data-name="Path 134784" d="M227.629 377.992a5.143 5.143 0 1 0-5.142-5.142 5.142 5.142 0 0 0 5.142 5.142"/><path data-name="Path 134785" d="M206.813 372.761a5.485 5.485 0 1 0-5.485-5.485 5.485 5.485 0 0 0 5.485 5.485"/><path data-name="Path 134786" d="M187.28 363.71a5.542 5.542 0 1 0-5.542-5.542 5.542 5.542 0 0 0 5.542 5.542"/><path data-name="Path 134787" d="M169.627 352.778a6.971 6.971 0 1 0-6.971-6.971 6.971 6.971 0 0 0 6.971 6.971"/><path data-name="Path 134788" d="M154.389 337.31a6.742 6.742 0 1 0-6.742-6.743 6.743 6.743 0 0 0 6.742 6.743"/><path data-name="Path 134789" d="M142.028 320.228a7.314 7.314 0 1 0-7.314-7.314 7.314 7.314 0 0 0 7.314 7.314"/><path data-name="Path 134790" d="M132.921 300.243a6.857 6.857 0 1 0-6.857-6.857 6.856 6.856 0 0 0 6.857 6.857"/><path data-name="Path 134791" d="M127.343 280.165a7.6 7.6 0 1 0-7.6-7.6 7.6 7.6 0 0 0 7.6 7.6"/><path data-name="Path 134792" d="M125.464 259.444a8.342 8.342 0 1 0-8.342-8.343 8.343 8.343 0 0 0 8.342 8.343"/><path data-name="Path 134793" d="M127.341 238.025a8.4 8.4 0 1 0-8.4-8.4 8.4 8.4 0 0 0 8.4 8.4"/><path data-name="Path 134794" d="M132.915 217.667a8.856 8.856 0 1 0-8.857-8.856 8.857 8.857 0 0 0 8.857 8.856"/><path data-name="Path 134795" d="M142.023 198.822a9.542 9.542 0 1 0-9.542-9.542 9.542 9.542 0 0 0 9.542 9.542"/><path data-name="Path 134796" d="M154.389 181.51a9.885 9.885 0 1 0-9.885-9.885 9.885 9.885 0 0 0 9.885 9.885"/><path data-name="Path 134797" d="M169.631 166.5a10.114 10.114 0 1 0-10.113-10.113 10.113 10.113 0 0 0 10.113 10.113"/><path data-name="Path 134798" d="M187.285 154.2a10.171 10.171 0 1 0-10.171-10.171 10.171 10.171 0 0 0 10.171 10.171"/><path data-name="Path 134799" d="M206.808 144.974a10.057 10.057 0 1 0-10.052-10.055 10.056 10.056 0 0 0 10.052 10.055"/><path data-name="Path 134800" d="M227.629 139.168a9.828 9.828 0 1 0-9.828-9.828 9.828 9.828 0 0 0 9.828 9.828"/><path data-name="Path 134801" d="M249.099 137.118a9.657 9.657 0 1 0-9.657-9.657 9.656 9.656 0 0 0 9.657 9.657"/><path data-name="Path 134802" d="M270.567 138.368a9.028 9.028 0 1 0-9.028-9.028 9.028 9.028 0 0 0 9.028 9.028"/><path data-name="Path 134803" d="M291.389 143.317a8.4 8.4 0 1 0-8.4-8.4 8.4 8.4 0 0 0 8.4 8.4"/><path data-name="Path 134804" d="M310.916 152.197a8.171 8.171 0 1 0-8.171-8.171 8.171 8.171 0 0 0 8.171 8.171"/><path data-name="Path 134805" d="M328.57 163.872a7.485 7.485 0 1 0-7.485-7.485 7.485 7.485 0 0 0 7.485 7.485"/><path data-name="Path 134806" d="M343.809 179.054a7.428 7.428 0 1 0-7.428-7.428 7.428 7.428 0 0 0 7.428 7.428"/><path data-name="Path 134807" d="M356.17 195.675a6.4 6.4 0 1 0-6.4-6.4 6.4 6.4 0 0 0 6.4 6.4"/><path data-name="Path 134808" d="M365.277 215.039a6.228 6.228 0 1 0-6.228-6.228 6.228 6.228 0 0 0 6.228 6.228"/><path data-name="Path 134809" d="M370.855 234.542a4.914 4.914 0 1 0-4.914-4.914 4.914 4.914 0 0 0 4.914 4.914"/><path data-name="Path 134810" d="M393.339 255.325a4.228 4.228 0 1 0-4.228-4.228 4.228 4.228 0 0 0 4.228 4.228"/><path data-name="Path 134811" d="M391.728 276.368a3.771 3.771 0 1 0-3.771-3.771 3.771 3.771 0 0 0 3.771 3.771"/><path data-name="Path 134812" d="M386.931 297.27a3.657 3.657 0 1 0-3.657-3.657 3.657 3.657 0 0 0 3.657 3.657"/><path data-name="Path 134813" d="M379.055 317.337a3.657 3.657 0 1 0-3.657-3.657 3.657 3.657 0 0 0 3.657 3.657"/><path data-name="Path 134814" d="M368.275 335.036a2.686 2.686 0 1 0-2.686-2.686 2.686 2.686 0 0 0 2.686 2.686"/><path data-name="Path 134815" d="M354.835 351.662a2.457 2.457 0 1 0-2.458-2.457 2.457 2.457 0 0 0 2.458 2.457"/><path data-name="Path 134816" d="M339.032 366.955a3.085 3.085 0 1 0-3.086-3.086 3.086 3.086 0 0 0 3.086 3.086"/><path data-name="Path 134817" d="M321.218 379.783a3.771 3.771 0 1 0-3.771-3.771 3.771 3.771 0 0 0 3.771 3.771"/><path data-name="Path 134818" d="M301.795 389.538a4.171 4.171 0 1 0-4.171-4.171 4.171 4.171 0 0 0 4.171 4.171"/><path data-name="Path 134819" d="M281.195 394.749a3.029 3.029 0 1 0-3.028-3.029 3.029 3.029 0 0 0 3.028 3.029"/><path data-name="Path 134820" d="M259.877 398.42a3.486 3.486 0 1 0-3.485-3.485 3.486 3.486 0 0 0 3.485 3.485"/><path data-name="Path 134821" d="M238.319 399.333a4.4 4.4 0 1 0-4.4-4.4 4.4 4.4 0 0 0 4.4 4.4"/><path data-name="Path 134822" d="M217.002 396.406a4.686 4.686 0 1 0-4.686-4.685 4.686 4.686 0 0 0 4.686 4.685"/><path data-name="Path 134823" d="M196.401 390.794a5.428 5.428 0 1 0-5.428-5.428 5.428 5.428 0 0 0 5.428 5.428"/><path data-name="Path 134824" d="M176.982 381.498a5.485 5.485 0 1 0-5.485-5.485 5.485 5.485 0 0 0 5.485 5.485"/><path data-name="Path 134825" d="M159.166 369.24a5.371 5.371 0 1 0-5.371-5.371 5.371 5.371 0 0 0 5.371 5.371"/><path data-name="Path 134826" d="M143.362 354.577a5.371 5.371 0 1 0-5.371-5.371 5.371 5.371 0 0 0 5.371 5.371"/><path data-name="Path 134827" d="M129.921 338.519a6.171 6.171 0 1 0-6.171-6.171 6.171 6.171 0 0 0 6.171 6.171"/><path data-name="Path 134828" d="M119.141 319.623a5.942 5.942 0 1 0-5.942-5.942 5.942 5.942 0 0 0 5.942 5.942"/><path data-name="Path 134829" d="M111.266 299.674a6.057 6.057 0 1 0-6.057-6.057 6.057 6.057 0 0 0 6.057 6.057"/><path data-name="Path 134830" d="M106.469 279.451a6.857 6.857 0 1 0-6.857-6.857 6.856 6.856 0 0 0 6.857 6.857"/><path data-name="Path 134831" d="M104.855 258.582a7.485 7.485 0 1 0-7.485-7.485 7.485 7.485 0 0 0 7.485 7.485"/><path data-name="Path 134832" d="M106.468 237.142a7.542 7.542 0 1 0-7.542-7.542 7.542 7.542 0 0 0 7.542 7.542"/><path data-name="Path 134833" d="M111.266 216.751a8.171 8.171 0 1 0-8.171-8.171 8.171 8.171 0 0 0 8.171 8.171"/><path data-name="Path 134834" d="M119.142 197.026a8.514 8.514 0 1 0-8.514-8.514 8.513 8.513 0 0 0 8.514 8.514"/><path data-name="Path 134835" d="M129.921 179.215a9.371 9.371 0 1 0-9.371-9.371 9.371 9.371 0 0 0 9.371 9.371"/><path data-name="Path 134836" d="M143.363 162.987a10 10 0 1 0-10-10 10 10 0 0 0 10 10"/><path data-name="Path 134837" d="M159.166 148.038a9.714 9.714 0 1 0-9.714-9.714 9.714 9.714 0 0 0 9.714 9.714"/><path data-name="Path 134838" d="M176.978 136.408a10.228 10.228 0 1 0-10.228-10.228 10.228 10.228 0 0 0 10.228 10.228"/><path data-name="Path 134839" d="M196.401 126.94a10.114 10.114 0 1 0-10.113-10.113 10.113 10.113 0 0 0 10.113 10.113"/><path data-name="Path 134840" d="M217.002 120.529a10.057 10.057 0 1 0-10.057-10.057 10.056 10.056 0 0 0 10.057 10.057"/><path data-name="Path 134841" d="M238.319 117.087a9.828 9.828 0 1 0-9.828-9.828 9.828 9.828 0 0 0 9.828 9.828"/><path data-name="Path 134842" d="M259.877 116.745a9.485 9.485 0 1 0-9.485-9.485 9.485 9.485 0 0 0 9.485 9.485"/><path data-name="Path 134843" d="M281.195 119.5a9.028 9.028 0 1 0-9.028-9.028 9.028 9.028 0 0 0 9.028 9.028"/><path data-name="Path 134844" d="M301.796 125.398a8.571 8.571 0 1 0-8.571-8.571 8.571 8.571 0 0 0 8.571 8.571"/><path data-name="Path 134845" d="M321.214 134.466a8.285 8.285 0 1 0-8.285-8.285 8.285 8.285 0 0 0 8.285 8.285"/><path data-name="Path 134846" d="M339.032 145.582a7.257 7.257 0 1 0-7.257-7.257 7.257 7.257 0 0 0 7.257 7.257"/><path data-name="Path 134847" d="M354.835 159.159a6.171 6.171 0 1 0-6.171-6.171 6.171 6.171 0 0 0 6.171 6.171"/><path data-name="Path 134848" d="M368.276 175.729a5.885 5.885 0 1 0-5.885-5.885 5.885 5.885 0 0 0 5.885 5.885"/><path data-name="Path 134849" d="M379.055 194.399a5.885 5.885 0 1 0-5.885-5.885 5.885 5.885 0 0 0 5.885 5.885"/><path data-name="Path 134850" d="M386.932 214.18a5.6 5.6 0 1 0-5.6-5.6 5.6 5.6 0 0 0 5.6 5.6"/><path data-name="Path 134851" d="M391.728 233.884a4.285 4.285 0 1 0-4.285-4.285 4.285 4.285 0 0 0 4.285 4.285"/><path data-name="Path 134852" d="M413.945 254.525a3.428 3.428 0 1 0-3.429-3.429 3.429 3.429 0 0 0 3.429 3.429"/><path data-name="Path 134853" d="M412.535 274.842a2.228 2.228 0 1 0-2.228-2.228 2.228 2.228 0 0 0 2.228 2.228"/><path data-name="Path 134854" d="M408.328 297.019a3.257 3.257 0 1 0-3.257-3.257 3.257 3.257 0 0 0 3.257 3.257"/><path data-name="Path 134855" d="M401.397 316.923a2.743 2.743 0 1 0-2.743-2.743 2.743 2.743 0 0 0 2.743 2.743"/><path data-name="Path 134856" d="M391.86 335.92a2.4 2.4 0 1 0-2.4-2.4 2.4 2.4 0 0 0 2.4 2.4"/><path data-name="Path 134857" d="M379.88 354.02a2.571 2.571 0 1 0-2.571-2.571 2.571 2.571 0 0 0 2.571 2.571"/><path data-name="Path 134858" d="M365.662 370.118a2.457 2.457 0 1 0-2.457-2.457 2.457 2.457 0 0 0 2.457 2.457"/><path data-name="Path 134859" d="M349.451 383.65a1.771 1.771 0 1 0-1.772-1.772 1.771 1.771 0 0 0 1.772 1.772"/><path data-name="Path 134860" d="M331.522 396.372a2.514 2.514 0 1 0-2.514-2.514 2.514 2.514 0 0 0 2.514 2.514"/><path data-name="Path 134861" d="M312.182 406.195a2.8 2.8 0 1 0-2.8-2.8 2.8 2.8 0 0 0 2.8 2.8"/><path data-name="Path 134862" d="M291.764 413.755a3.428 3.428 0 1 0-3.429-3.429 3.429 3.429 0 0 0 3.429 3.429"/><path data-name="Path 134863" d="M270.616 416.819a2.286 2.286 0 1 0-2.286-2.286 2.286 2.286 0 0 0 2.286 2.286"/><path data-name="Path 134864" d="M249.098 418.572a2.628 2.628 0 1 0-2.628-2.628 2.628 2.628 0 0 0 2.628 2.628"/><path data-name="Path 134865" d="M227.582 417.333a2.8 2.8 0 1 0-2.8-2.8 2.8 2.8 0 0 0 2.8 2.8"/><path data-name="Path 134866" d="M206.434 415.012a4.686 4.686 0 1 0-4.686-4.686 4.685 4.685 0 0 0 4.686 4.686"/><path data-name="Path 134867" d="M186.015 408.08a4.686 4.686 0 1 0-4.686-4.685 4.686 4.686 0 0 0 4.686 4.685"/><path data-name="Path 134868" d="M166.675 398.543a4.686 4.686 0 1 0-4.686-4.686 4.686 4.686 0 0 0 4.686 4.686"/><path data-name="Path 134869" d="M148.746 387.25a5.371 5.371 0 1 0-5.371-5.371 5.371 5.371 0 0 0 5.371 5.371"/><path data-name="Path 134870" d="M132.535 372.517a4.857 4.857 0 1 0-4.857-4.857 4.857 4.857 0 0 0 4.857 4.857"/><path data-name="Path 134871" d="M118.317 354.82a3.371 3.371 0 1 0-3.371-3.371 3.371 3.371 0 0 0 3.371 3.371"/><path data-name="Path 134872" d="M106.337 338.491a4.971 4.971 0 1 0-4.971-4.971 4.971 4.971 0 0 0 4.971 4.971"/><path data-name="Path 134873" d="M96.8 319.095a4.914 4.914 0 1 0-4.914-4.914 4.914 4.914 0 0 0 4.914 4.914"/><path data-name="Path 134874" d="M89.869 298.733a4.971 4.971 0 1 0-4.971-4.971 4.971 4.971 0 0 0 4.971 4.971"/><path data-name="Path 134875" d="M85.662 278.556a5.942 5.942 0 1 0-5.942-5.943 5.942 5.942 0 0 0 5.942 5.943"/><path data-name="Path 134876" d="M84.252 257.492a6.4 6.4 0 1 0-6.4-6.4 6.4 6.4 0 0 0 6.4 6.4"/><path data-name="Path 134877" d="M85.662 236.037a6.457 6.457 0 1 0-6.456-6.457 6.456 6.456 0 0 0 6.456 6.457"/><path data-name="Path 134878" d="M89.869 215.231a6.8 6.8 0 1 0-6.8-6.8 6.8 6.8 0 0 0 6.8 6.8"/><path data-name="Path 134879" d="M96.8 195.44a7.428 7.428 0 1 0-7.428-7.428 7.428 7.428 0 0 0 7.428 7.428"/><path data-name="Path 134880" d="M106.337 177.244a8.571 8.571 0 1 0-8.571-8.571 8.571 8.571 0 0 0 8.571 8.571"/><path data-name="Path 134881" d="M118.317 158.801a8.057 8.057 0 1 0-8.057-8.057 8.057 8.057 0 0 0 8.057 8.057"/><path data-name="Path 134882" d="M132.535 143.447a8.914 8.914 0 1 0-8.914-8.914 8.914 8.914 0 0 0 8.914 8.914"/><path data-name="Path 134883" d="M148.746 129.857a9.542 9.542 0 1 0-9.542-9.542 9.542 9.542 0 0 0 9.542 9.542"/><path data-name="Path 134884" d="M166.675 118.563a10.228 10.228 0 1 0-10.228-10.228 10.228 10.228 0 0 0 10.228 10.228"/><path data-name="Path 134885" d="M186.015 107.711a8.914 8.914 0 1 0-8.914-8.914 8.914 8.914 0 0 0 8.914 8.914"/><path data-name="Path 134886" d="M206.433 101.409a9.542 9.542 0 1 0-9.543-9.542 9.543 9.543 0 0 0 9.543 9.542"/><path data-name="Path 134887" d="M227.582 96.288a8.628 8.628 0 1 0-8.628-8.628 8.628 8.628 0 0 0 8.628 8.628"/><path data-name="Path 134888" d="M249.098 95.221a8.971 8.971 0 1 0-8.971-8.971 8.971 8.971 0 0 0 8.971 8.971"/><path data-name="Path 134889" d="M270.615 95.374a7.714 7.714 0 1 0-7.714-7.714 7.714 7.714 0 0 0 7.714 7.714"/><path data-name="Path 134890" d="M291.764 98.838a6.971 6.971 0 1 0-6.971-6.971 6.971 6.971 0 0 0 6.971 6.971"/><path data-name="Path 134891" d="M312.183 106.398a7.6 7.6 0 1 0-7.6-7.6 7.6 7.6 0 0 0 7.6 7.6"/><path data-name="Path 134892" d="M331.521 115.135a6.8 6.8 0 1 0-6.8-6.8 6.8 6.8 0 0 0 6.8 6.8"/><path data-name="Path 134893" d="M349.451 125.915a5.6 5.6 0 1 0-5.6-5.6 5.6 5.6 0 0 0 5.6 5.6"/><path data-name="Path 134894" d="M365.662 140.761a6.228 6.228 0 1 0-6.228-6.228 6.228 6.228 0 0 0 6.228 6.228"/><path data-name="Path 134895" d="M379.88 156.116a5.371 5.371 0 1 0-5.371-5.371 5.371 5.371 0 0 0 5.371 5.371"/><path data-name="Path 134896" d="M391.86 173.53a4.857 4.857 0 1 0-4.857-4.857 4.857 4.857 0 0 0 4.857 4.857"/><path data-name="Path 134897" d="M401.397 192.584a4.571 4.571 0 1 0-4.571-4.571 4.571 4.571 0 0 0 4.571 4.571"/><path data-name="Path 134898" d="M408.328 213.06a4.628 4.628 0 1 0-4.628-4.628 4.628 4.628 0 0 0 4.628 4.628"/><path data-name="Path 134899" d="M412.536 233.008a3.428 3.428 0 1 0-3.429-3.429 3.429 3.429 0 0 0 3.429 3.429"/><path data-name="Path 134900" d="M434.55 253.725a2.628 2.628 0 1 0-2.628-2.628 2.628 2.628 0 0 0 2.628 2.628"/><path data-name="Path 134901" d="M433.297 274.683a2.057 2.057 0 1 0-2.057-2.057 2.057 2.057 0 0 0 2.057 2.057"/><path data-name="Path 134902" d="M429.552 295.58a1.714 1.714 0 1 0-1.714-1.714 1.714 1.714 0 0 0 1.714 1.714"/><path data-name="Path 134903" d="M423.367 316.01a1.486 1.486 0 1 0-1.485-1.485 1.486 1.486 0 0 0 1.485 1.485"/><path data-name="Path 134904" d="M414.824 335.813a1.486 1.486 0 1 0-1.485-1.485 1.486 1.486 0 0 0 1.485 1.485"/><path data-name="Path 134905" d="M404.044 355.004a2 2 0 1 0-2-2 2 2 0 0 0 2 2"/><path data-name="Path 134906" d="M391.164 371.16a.857.857 0 1 0-.857-.857.857.857 0 0 0 .857.857"/><path data-name="Path 134907" d="M376.364 387.303a1.314 1.314 0 1 0-1.314-1.314 1.314 1.314 0 0 0 1.314 1.314"/><path data-name="Path 134908" d="M359.843 401.052a1.2 1.2 0 1 0-1.2-1.2 1.2 1.2 0 0 0 1.2 1.2"/><path data-name="Path 134909" d="M341.824 413.588a1.886 1.886 0 1 0-1.885-1.885 1.886 1.886 0 0 0 1.885 1.885"/><path data-name="Path 134910" d="M322.553 423.667a2.286 2.286 0 1 0-2.286-2.286 2.286 2.286 0 0 0 2.286 2.286"/><path data-name="Path 134911" d="M302.288 430.644a1.886 1.886 0 1 0-1.885-1.885 1.886 1.886 0 0 0 1.885 1.885"/><path data-name="Path 134912" d="M281.302 436.017a2.285 2.285 0 1 0-2.285-2.285 2.286 2.286 0 0 0 2.285 2.285"/><path data-name="Path 134913" d="M259.881 438.806a2.571 2.571 0 1 0-2.571-2.571 2.571 2.571 0 0 0 2.571 2.571"/><path data-name="Path 134914" d="M238.315 439.036a2.8 2.8 0 1 0-2.8-2.8 2.8 2.8 0 0 0 2.8 2.8"/><path data-name="Path 134915" d="M216.895 436.646a2.914 2.914 0 1 0-2.914-2.914 2.914 2.914 0 0 0 2.914 2.914"/><path data-name="Path 134916" d="M195.91 431.73a2.971 2.971 0 1 0-2.971-2.971 2.971 2.971 0 0 0 2.971 2.971"/><path data-name="Path 134917" d="M175.642 424.41a3.029 3.029 0 1 0-3.028-3.029 3.029 3.029 0 0 0 3.028 3.029"/><path data-name="Path 134918" d="M156.372 414.332a2.628 2.628 0 1 0-2.628-2.628 2.628 2.628 0 0 0 2.628 2.628"/><path data-name="Path 134919" d="M138.354 403.112a3.257 3.257 0 1 0-3.257-3.257 3.257 3.257 0 0 0 3.257 3.257"/><path data-name="Path 134920" d="M121.833 390.789a4.8 4.8 0 1 0-4.8-4.8 4.8 4.8 0 0 0 4.8 4.8"/><path data-name="Path 134921" d="M107.034 372.817a2.514 2.514 0 1 0-2.514-2.514 2.514 2.514 0 0 0 2.514 2.514"/><path data-name="Path 134922" d="M94.155 355.462a2.457 2.457 0 1 0-2.457-2.457 2.457 2.457 0 0 0 2.457 2.457"/><path data-name="Path 134923" d="M83.372 338.67a4.343 4.343 0 1 0-4.343-4.343 4.343 4.343 0 0 0 4.343 4.343"/><path data-name="Path 134924" d="M74.83 318.24a3.714 3.714 0 1 0-3.714-3.714 3.714 3.714 0 0 0 3.714 3.714"/><path data-name="Path 134925" d="M68.645 297.579a3.714 3.714 0 1 0-3.714-3.714 3.714 3.714 0 0 0 3.714 3.714"/><path data-name="Path 134926" d="M64.899 276.912a4.285 4.285 0 1 0-4.283-4.283 4.285 4.285 0 0 0 4.285 4.285"/><path data-name="Path 134927" d="M63.645 256.125a5.028 5.028 0 1 0-5.028-5.028 5.028 5.028 0 0 0 5.028 5.028"/><path data-name="Path 134928" d="M64.899 234.709a5.143 5.143 0 1 0-5.142-5.142 5.142 5.142 0 0 0 5.142 5.142"/><path data-name="Path 134929" d="M68.644 213.756a5.428 5.428 0 1 0-5.428-5.428 5.428 5.428 0 0 0 5.428 5.428"/><path data-name="Path 134930" d="M74.83 193.667a6 6 0 1 0-6-6 6 6 0 0 0 6 6"/><path data-name="Path 134931" d="M83.372 175.409a7.542 7.542 0 1 0-7.543-7.542 7.543 7.543 0 0 0 7.543 7.542"/><path data-name="Path 134932" d="M94.155 155.988a6.8 6.8 0 1 0-6.8-6.8 6.8 6.8 0 0 0 6.8 6.8"/><path data-name="Path 134933" d="M107.034 139.661a7.771 7.771 0 1 0-7.771-7.771 7.771 7.771 0 0 0 7.771 7.771"/><path data-name="Path 134934" d="M121.833 124.375a8.171 8.171 0 1 0-8.171-8.171 8.171 8.171 0 0 0 8.171 8.171"/><path data-name="Path 134935" d="M138.354 110.512a8.171 8.171 0 1 0-8.171-8.171 8.171 8.171 0 0 0 8.171 8.171"/><path data-name="Path 134936" d="M156.372 97.003a6.514 6.514 0 1 0-6.514-6.514 6.514 6.514 0 0 0 6.514 6.514"/><path data-name="Path 134937" d="M175.645 86.982a6.171 6.171 0 1 0-6.171-6.171 6.171 6.171 0 0 0 6.171 6.171"/><path data-name="Path 134938" d="M195.91 81.206a7.771 7.771 0 1 0-7.771-7.771 7.771 7.771 0 0 0 7.771 7.771"/><path data-name="Path 134939" d="M216.895 76.061a7.6 7.6 0 1 0-7.6-7.6 7.6 7.6 0 0 0 7.6 7.6"/><path data-name="Path 134940" d="M238.315 73.272a7.314 7.314 0 1 0-7.314-7.314 7.314 7.314 0 0 0 7.314 7.314"/><path data-name="Path 134941" d="M259.881 72.986a7.028 7.028 0 1 0-7.028-7.028 7.028 7.028 0 0 0 7.028 7.028"/><path data-name="Path 134942" d="M281.302 74.804a6.342 6.342 0 1 0-6.343-6.343 6.342 6.342 0 0 0 6.343 6.343"/><path data-name="Path 134943" d="M302.287 78.181a4.742 4.742 0 1 0-4.743-4.743 4.743 4.743 0 0 0 4.743 4.743"/><path data-name="Path 134944" d="M322.552 84.697a3.885 3.885 0 1 0-3.885-3.885 3.885 3.885 0 0 0 3.885 3.885"/><path data-name="Path 134945" d="M341.824 97.061a6.571 6.571 0 1 0-6.571-6.571 6.571 6.571 0 0 0 6.571 6.571"/><path data-name="Path 134946" d="M359.844 107.941a5.6 5.6 0 1 0-5.6-5.6 5.6 5.6 0 0 0 5.6 5.6"/><path data-name="Path 134947" d="M376.364 120.545a4.343 4.343 0 1 0-4.343-4.343 4.343 4.343 0 0 0 4.343 4.343"/><path data-name="Path 134948" d="M391.163 136.118a4.228 4.228 0 1 0-4.228-4.228 4.228 4.228 0 0 0 4.228 4.228"/><path data-name="Path 134949" d="M404.042 153.817a4.628 4.628 0 1 0-4.629-4.628 4.629 4.629 0 0 0 4.629 4.628"/><path data-name="Path 134950" d="M414.824 171.237a3.371 3.371 0 1 0-3.371-3.371 3.371 3.371 0 0 0 3.371 3.371"/><path data-name="Path 134951" d="M423.367 190.925a3.257 3.257 0 1 0-3.257-3.257 3.257 3.257 0 0 0 3.257 3.257"/><path data-name="Path 134952" d="M429.552 210.442a2.114 2.114 0 1 0-2.114-2.114 2.115 2.115 0 0 0 2.114 2.114"/><path data-name="Path 134953" d="M433.297 232.024a2.457 2.457 0 1 0-2.457-2.457 2.457 2.457 0 0 0 2.457 2.457"/><path data-name="Path 134954" d="M455.156 252.41a1.314 1.314 0 1 0-1.312-1.317 1.314 1.314 0 0 0 1.314 1.314"/><path data-name="Path 134955" d="M454.028 273.836a1.2 1.2 0 1 0-1.2-1.2 1.2 1.2 0 0 0 1.2 1.2"/><path data-name="Path 134956" d="M450.654 295.024a1.086 1.086 0 1 0-1.086-1.086 1.086 1.086 0 0 0 1.086 1.086"/><path data-name="Path 134957" d="M445.072 316.201a1.428 1.428 0 1 0-1.429-1.429 1.429 1.429 0 0 0 1.429 1.429"/><path data-name="Path 134958" d="M437.342 336.051a1.143 1.143 0 1 0-1.143-1.143 1.143 1.143 0 0 0 1.143 1.143"/><path data-name="Path 134959" d="M427.55 355.269a1.143 1.143 0 1 0-1.143-1.143 1.143 1.143 0 0 0 1.143 1.143"/><path data-name="Path 134960" d="M415.803 373.067a.857.857 0 1 0-.857-.857.857.857 0 0 0 .857.857"/><path data-name="Path 134961" d="M402.23 389.834a.857.857 0 1 0-.857-.857.857.857 0 0 0 .857.857"/><path data-name="Path 134962" d="M386.978 404.97a.743.743 0 1 0-.743-.743.743.743 0 0 0 .743.743"/><path data-name="Path 134963" d="M370.216 417.915a.114.114 0 1 0-.114-.114.114.114 0 0 0 .114.114"/><path data-name="Path 134964" d="M352.127 430.692a1.143 1.143 0 1 0-1.14-1.144 1.143 1.143 0 0 0 1.143 1.143"/><path data-name="Path 134965" d="M332.91 439.684a.343.343 0 1 0-.343-.343.343.343 0 0 0 .343.343"/><path data-name="Path 134966" d="M312.775 448.613a1.543 1.543 0 1 0-1.543-1.543 1.543 1.543 0 0 0 1.543 1.543"/><path data-name="Path 134967" d="M291.94 453.624a.971.971 0 1 0-.971-.971.972.972 0 0 0 .971.971"/><path data-name="Path 134968" d="M270.638 456.311a.286.286 0 1 0-.286-.286.285.285 0 0 0 .286.286"/><path data-name="Path 134969" d="M249.098 457.611a.457.457 0 1 0-.457-.457.458.458 0 0 0 .457.457"/><path data-name="Path 134970" d="M227.56 457.626a1.6 1.6 0 1 0-1.6-1.6 1.6 1.6 0 0 0 1.6 1.6"/><path data-name="Path 134971" d="M206.256 454.367a1.714 1.714 0 1 0-1.714-1.714 1.714 1.714 0 0 0 1.714 1.714"/><path data-name="Path 134972" d="M185.424 449.812a2.743 2.743 0 1 0-2.743-2.743 2.743 2.743 0 0 0 2.743 2.743"/><path data-name="Path 134973" d="M165.287 442.026a2.686 2.686 0 1 0-2.686-2.686 2.686 2.686 0 0 0 2.686 2.686"/><path data-name="Path 134974" d="M146.069 432.177a2.628 2.628 0 1 0-2.628-2.628 2.628 2.628 0 0 0 2.628 2.628"/><path data-name="Path 134975" d="M127.98 419.973a2.171 2.171 0 1 0-2.171-2.171 2.171 2.171 0 0 0 2.171 2.171"/><path data-name="Path 134976" d="M111.218 405.942a1.714 1.714 0 1 0-1.714-1.714 1.714 1.714 0 0 0 1.714 1.714"/><path data-name="Path 134977" d="M95.971 390.805a1.828 1.828 0 1 0-1.828-1.829 1.829 1.829 0 0 0 1.828 1.829"/><path data-name="Path 134978" d="M82.393 374.043a1.829 1.829 0 1 0-1.828-1.828 1.829 1.829 0 0 0 1.828 1.828"/><path data-name="Path 134979" d="M70.647 355.669a1.543 1.543 0 1 0-1.543-1.543 1.543 1.543 0 0 0 1.543 1.543"/><path data-name="Path 134980" d="M60.855 336.737a1.828 1.828 0 1 0-1.829-1.828 1.828 1.828 0 0 0 1.829 1.828"/><path data-name="Path 134981" d="M53.125 317.229a2.457 2.457 0 1 0-2.457-2.457 2.457 2.457 0 0 0 2.457 2.457"/><path data-name="Path 134982" d="M47.543 296.452a2.514 2.514 0 1 0-2.514-2.514 2.514 2.514 0 0 0 2.514 2.514"/><path data-name="Path 134983" d="M44.17 275.836a3.2 3.2 0 1 0-3.2-3.2 3.2 3.2 0 0 0 3.2 3.2"/><path data-name="Path 134984" d="M43.04 254.582a3.486 3.486 0 1 0-3.485-3.485 3.486 3.486 0 0 0 3.485 3.485"/><path data-name="Path 134985" d="M44.169 233.215a3.657 3.657 0 1 0-3.657-3.657 3.657 3.657 0 0 0 3.657 3.657"/><path data-name="Path 134986" d="M47.542 212.084a3.828 3.828 0 1 0-3.828-3.828 3.828 3.828 0 0 0 3.828 3.828"/><path data-name="Path 134987" d="M53.126 189.706a2.286 2.286 0 1 0-2.286-2.286 2.286 2.286 0 0 0 2.286 2.286"/><path data-name="Path 134988" d="M60.852 171.856a4.571 4.571 0 1 0-4.571-4.571 4.571 4.571 0 0 0 4.571 4.571"/><path data-name="Path 134989" d="M70.647 150.981a2.914 2.914 0 1 0-2.914-2.913 2.914 2.914 0 0 0 2.914 2.913"/><path data-name="Path 134990" d="M82.394 136.149a6.171 6.171 0 1 0-6.171-6.171 6.171 6.171 0 0 0 6.171 6.171"/><path data-name="Path 134991" d="M95.967 115.902a2.686 2.686 0 1 0-2.686-2.686 2.686 2.686 0 0 0 2.686 2.686"/><path data-name="Path 134992" d="M111.219 103.165a5.2 5.2 0 1 0-5.2-5.2 5.2 5.2 0 0 0 5.2 5.2"/><path data-name="Path 134993" d="M127.981 90.506a6.114 6.114 0 1 0-6.114-6.114 6.114 6.114 0 0 0 6.114 6.114"/><path data-name="Path 134994" d="M146.069 78.302a5.657 5.657 0 1 0-5.657-5.657 5.657 5.657 0 0 0 5.657 5.657"/><path data-name="Path 134995" d="M165.287 69.024a6.171 6.171 0 1 0-6.171-6.171 6.171 6.171 0 0 0 6.171 6.171"/><path data-name="Path 134996" d="M185.423 59.694a4.571 4.571 0 1 0-4.571-4.571 4.571 4.571 0 0 0 4.571 4.571"/><path data-name="Path 134997" d="M206.256 53.941a4.4 4.4 0 1 0-4.4-4.4 4.4 4.4 0 0 0 4.4 4.4"/><path data-name="Path 134998" d="M227.559 50.395a4.228 4.228 0 1 0-4.228-4.228 4.228 4.228 0 0 0 4.228 4.228"/><path data-name="Path 134999" d="M249.099 48.98a3.943 3.943 0 1 0-3.943-3.943 3.943 3.943 0 0 0 3.943 3.943"/><path data-name="Path 135000" d="M270.638 49.653a3.486 3.486 0 1 0-3.486-3.485 3.485 3.485 0 0 0 3.486 3.485"/><path data-name="Path 135001" d="M291.941 51.826a2.286 2.286 0 1 0-2.286-2.286 2.286 2.286 0 0 0 2.286 2.286"/><path data-name="Path 135002" d="M312.774 56.209a1.086 1.086 0 1 0-1.086-1.086 1.086 1.086 0 0 0 1.086 1.086"/><path data-name="Path 135003" d="M332.91 66.51a3.657 3.657 0 1 0-3.657-3.657 3.657 3.657 0 0 0 3.657 3.657"/><path data-name="Path 135004" d="M352.127 73.559a.914.914 0 1 0-.914-.914.914.914 0 0 0 .914.914"/><path data-name="Path 135005" d="M370.216 86.219a1.828 1.828 0 1 0-1.828-1.828 1.828 1.828 0 0 0 1.828 1.828"/><path data-name="Path 135006" d="M386.978 99.794a1.828 1.828 0 1 0-1.828-1.828 1.828 1.828 0 0 0 1.828 1.828"/><path data-name="Path 135007" d="M402.225 115.388a2.171 2.171 0 1 0-2.172-2.171 2.171 2.171 0 0 0 2.172 2.171"/><path data-name="Path 135008" d="M415.804 131.407a1.428 1.428 0 1 0-1.429-1.429 1.429 1.429 0 0 0 1.429 1.429"/><path data-name="Path 135009" d="M427.551 151.553a3.486 3.486 0 1 0-3.486-3.485 3.485 3.485 0 0 0 3.486 3.485"/><path data-name="Path 135010" d="M437.342 169.457a2.171 2.171 0 1 0-2.171-2.171 2.171 2.171 0 0 0 2.171 2.171"/><path data-name="Path 135011" d="M445.072 190.106a2.686 2.686 0 1 0-2.686-2.686 2.686 2.686 0 0 0 2.686 2.686"/><path data-name="Path 135012" d="M450.654 209.74a1.486 1.486 0 1 0-1.485-1.485 1.486 1.486 0 0 0 1.485 1.485"/><path data-name="Path 135013" d="M454.028 231.043a1.486 1.486 0 1 0-1.486-1.485 1.486 1.486 0 0 0 1.486 1.485"/><path data-name="Path 135014" d="M474.737 272.928a.286.286 0 1 0-.286-.286.286.286 0 0 0 .286.286"/><path data-name="Path 135015" d="M466.581 315.53a.571.571 0 1 0-.571-.571.571.571 0 0 0 .571.571"/><path data-name="Path 135016" d="M459.526 335.739a.4.4 0 1 0-.4-.4.4.4 0 0 0 .4.4"/><path data-name="Path 135017" d="M450.565 355.017a.057.057 0 1 0-.057-.057.057.057 0 0 0 .057.057"/><path data-name="Path 135018" d="M439.78 374.103a.457.457 0 1 0-.457-.457.458.458 0 0 0 .457.457"/><path data-name="Path 135019" d="M427.268 391.668a.457.457 0 1 0-.457-.457.457.457 0 0 0 .457.457"/><path data-name="Path 135020" d="M413.143 407.97a.457.457 0 1 0-.457-.457.458.458 0 0 0 .457.457"/><path data-name="Path 135021" d="M397.531 422.626a.229.229 0 1 0-.228-.229.228.228 0 0 0 .228.229"/><path data-name="Path 135022" d="M380.576 435.789a.057.057 0 1 0-.057-.057.057.057 0 0 0 .057.057"/><path data-name="Path 135023" d="M343.258 457.335a.057.057 0 1 0-.057-.057.057.057 0 0 0 .057.057"/><path data-name="Path 135024" d="M323.233 466.094a.8.8 0 1 0-.8-.8.8.8 0 0 0 .8.8"/><path data-name="Path 135025" d="M302.536 472.343a.971.971 0 1 0-.971-.971.971.971 0 0 0 .971.971"/><path data-name="Path 135026" d="M281.356 475.853a.4.4 0 1 0-.4-.4.4.4 0 0 0 .4.4"/><path data-name="Path 135027" d="M259.883 477.562a.057.057 0 1 0-.057-.057.057.057 0 0 0 .057.057"/><path data-name="Path 135028" d="M238.314 477.79a.286.286 0 1 0-.286-.286.285.285 0 0 0 .286.286"/><path data-name="Path 135029" d="M216.846 475.511a.057.057 0 1 0-.057-.057.057.057 0 0 0 .057.057"/><path data-name="Path 135030" d="M195.66 471.6a.229.229 0 1 0-.228-.228.228.228 0 0 0 .228.228"/><path data-name="Path 135031" d="M174.964 465.408a.114.114 0 1 0-.115-.115.114.114 0 0 0 .115.115"/><path data-name="Path 135032" d="M135.766 448.479a1.086 1.086 0 1 0-1.086-1.086 1.086 1.086 0 0 0 1.086 1.086"/><path data-name="Path 135033" d="M117.62 436.301a.572.572 0 1 0-.571-.571.571.571 0 0 0 .571.571"/><path data-name="Path 135034" d="M100.666 424.17a1.771 1.771 0 1 0-1.772-1.772 1.771 1.771 0 0 0 1.772 1.772"/><path data-name="Path 135035" d="M85.054 409.056a1.543 1.543 0 1 0-1.544-1.547 1.542 1.542 0 0 0 1.543 1.543"/><path data-name="Path 135036" d="M70.928 391.611a.4.4 0 1 0-.4-.4.4.4 0 0 0 .4.4"/><path data-name="Path 135037" d="M58.412 374.783a1.143 1.143 0 1 0-1.142-1.143 1.143 1.143 0 0 0 1.142 1.143"/><path data-name="Path 135038" d="M47.631 355.874a.914.914 0 1 0-.914-.914.914.914 0 0 0 .914.914"/><path data-name="Path 135039" d="M38.671 336.824a1.486 1.486 0 1 0-1.485-1.485 1.486 1.486 0 0 0 1.485 1.485"/><path data-name="Path 135040" d="M31.615 315.584a.628.628 0 1 0-.628-.628.628.628 0 0 0 .628.628"/><path data-name="Path 135041" d="M26.535 294.736a.743.743 0 1 0-.743-.743.743.743 0 0 0 .743.743"/><path data-name="Path 135042" d="M23.461 274.243a1.6 1.6 0 1 0-1.6-1.6 1.6 1.6 0 0 0 1.6 1.6"/><path data-name="Path 135043" d="M22.434 252.925a1.828 1.828 0 1 0-1.828-1.828 1.829 1.829 0 0 0 1.828 1.828"/><path data-name="Path 135044" d="M23.461 231.551a2 2 0 1 0-2-2 2 2 0 0 0 2 2"/><path data-name="Path 135045" d="M26.53 210.258a2.057 2.057 0 1 0-2.057-2.057 2.057 2.057 0 0 0 2.057 2.057"/><path data-name="Path 135046" d="M31.615 187.296a.057.057 0 1 0-.057-.057.057.057 0 0 0 .057.057"/><path data-name="Path 135047" d="M38.671 169.654a2.8 2.8 0 1 0-2.8-2.8 2.8 2.8 0 0 0 2.8 2.8"/><path data-name="Path 135048" d="M47.631 149.69a2.457 2.457 0 1 0-2.457-2.457 2.457 2.457 0 0 0 2.457 2.457"/><path data-name="Path 135049" d="M58.416 132.948a4.4 4.4 0 1 0-4.4-4.4 4.4 4.4 0 0 0 4.4 4.4"/><path data-name="Path 135050" d="M70.928 111.039a.057.057 0 1 0-.057-.057.057.057 0 0 0 .057.057"/><path data-name="Path 135051" d="M85.054 95.88a1.2 1.2 0 1 0-1.2-1.2 1.2 1.2 0 0 0 1.2 1.2"/><path data-name="Path 135052" d="M100.666 81.567a1.771 1.771 0 1 0-1.772-1.772 1.771 1.771 0 0 0 1.772 1.772"/><path data-name="Path 135053" d="M117.621 68.232a1.771 1.771 0 1 0-1.772-1.772 1.771 1.771 0 0 0 1.772 1.772"/><path data-name="Path 135054" d="M135.767 57.485a2.686 2.686 0 1 0-2.686-2.686 2.686 2.686 0 0 0 2.686 2.686"/><path data-name="Path 135055" d="M154.938 47.03a2.114 2.114 0 1 0-2.11-2.114 2.114 2.114 0 0 0 2.114 2.114"/><path data-name="Path 135056" d="M174.964 38.956a2.057 2.057 0 1 0-2.058-2.057 2.057 2.057 0 0 0 2.058 2.057"/><path data-name="Path 135057" d="M195.66 34.307a3.486 3.486 0 1 0-3.485-3.485 3.485 3.485 0 0 0 3.485 3.485"/><path data-name="Path 135058" d="M216.841 30.626a3.885 3.885 0 1 0-3.885-3.885 3.885 3.885 0 0 0 3.885 3.885"/><path data-name="Path 135059" d="M238.314 27.718a3.028 3.028 0 1 0-3.028-3.028 3.029 3.029 0 0 0 3.028 3.028"/><path data-name="Path 135060" d="M259.884 28.289a3.6 3.6 0 1 0-3.6-3.6 3.6 3.6 0 0 0 3.6 3.6"/><path data-name="Path 135061" d="M281.356 29.368a2.628 2.628 0 1 0-2.628-2.628 2.628 2.628 0 0 0 2.628 2.628"/><path data-name="Path 135062" d="M302.536 32.936a2.114 2.114 0 1 0-2.114-2.114 2.114 2.114 0 0 0 2.114 2.114"/><path data-name="Path 135063" d="M323.232 37.527a.628.628 0 1 0-.628-.628.628.628 0 0 0 .628.628"/><path data-name="Path 135064" d="M343.258 45.087a.171.171 0 1 0-.171-.171.171.171 0 0 0 .171.171"/><path data-name="Path 135065" d="M362.431 55.485a.686.686 0 1 0-.686-.686.685.685 0 0 0 .686.686"/><path data-name="Path 135066" d="M380.576 66.918a.457.457 0 1 0-.457-.457.457.457 0 0 0 .457.457"/><path data-name="Path 135067" d="M397.531 80.024a.229.229 0 1 0-.228-.228.228.228 0 0 0 .228.228"/><path data-name="Path 135068" d="M450.565 147.29a.057.057 0 1 0-.057-.057.057.057 0 0 0 .057.057"/><path data-name="Path 135069" d="M459.524 167.826a.971.971 0 1 0-.971-.971.971.971 0 0 0 .971.971"/><path data-name="Path 135070" d="M466.582 188.324a1.086 1.086 0 1 0-1.086-1.086 1.086 1.086 0 0 0 1.086 1.086"/><path data-name="Path 135071" d="M471.667 208.543a.343.343 0 1 0-.343-.343.343.343 0 0 0 .343.343"/><path data-name="Path 135072" d="M474.736 229.608a.057.057 0 1 0-.058-.057.057.057 0 0 0 .057.057"/><path data-name="Path 135073" d="M423.945 425.999a.057.057 0 1 0-.057-.057.057.057 0 0 0 .057.057"/><path data-name="Path 135074" d="M408.04 440.574a.057.057 0 1 0-.057-.057.057.057 0 0 0 .057.057"/><path data-name="Path 135075" d="M313.097 490.055a.114.114 0 1 0-.115-.115.114.114 0 0 0 .115.115"/><path data-name="Path 135076" d="M185.1 489.999a.057.057 0 1 0-.057-.057.058.058 0 0 0 .057.057"/><path data-name="Path 135077" d="M125.463 465.41a.171.171 0 1 0-.171-.171.171.171 0 0 0 .171.171"/><path data-name="Path 135078" d="M59.678 410.438a.4.4 0 1 0-.4-.4.4.4 0 0 0 .4.4"/><path data-name="Path 135079" d="M16.736 335.726a.057.057 0 1 0-.057-.057.057.057 0 0 0 .057.057"/><path data-name="Path 135080" d="M10.253 315.723a.628.628 0 1 0-.628-.628.629.629 0 0 0 .628.628"/><path data-name="Path 135081" d="M5.583 294.777a.743.743 0 1 0-.743-.743.743.743 0 0 0 .743.743"/><path data-name="Path 135082" d="M2.769 274.248a1.6 1.6 0 1 0-1.6-1.6 1.6 1.6 0 0 0 1.6 1.6"/><path data-name="Path 135083" d="M1.828 252.925A1.828 1.828 0 1 0 0 251.097a1.829 1.829 0 0 0 1.828 1.828"/><path data-name="Path 135084" d="M2.769 231.546a2 2 0 1 0-2-2 2 2 0 0 0 2 2"/><path data-name="Path 135085" d="M5.585 210.216a2.057 2.057 0 1 0-2.057-2.057 2.057 2.057 0 0 0 2.057 2.057"/><path data-name="Path 135086" d="M10.253 187.155a.057.057 0 1 0-.057-.057.057.057 0 0 0 .057.057"/><path data-name="Path 135087" d="M16.741 167.268a.743.743 0 1 0-.743-.743.743.743 0 0 0 .743.743"/><path data-name="Path 135088" d="M59.678 92.211a.057.057 0 1 0-.057-.057.057.057 0 0 0 .057.057"/><path data-name="Path 135089" d="M90.157 62.705a1.029 1.029 0 1 0-1.029-1.029 1.029 1.029 0 0 0 1.029 1.029"/><path data-name="Path 135090" d="M107.27 48.716a.171.171 0 1 0-.171-.171.171.171 0 0 0 .171.171"/><path data-name="Path 135091" d="M144.597 27.622a.628.628 0 1 0-.628-.628.628.628 0 0 0 .628.628"/><path data-name="Path 135092" d="M164.527 20.796a2.057 2.057 0 1 0-2.057-2.057 2.057 2.057 0 0 0 2.057 2.057"/><path data-name="Path 135093" d="M185.1 15.738a3.486 3.486 0 1 0-3.481-3.487 3.485 3.485 0 0 0 3.485 3.485"/><path data-name="Path 135094" d="M206.16 11.469a3.885 3.885 0 1 0-3.885-3.885 3.885 3.885 0 0 0 3.885 3.885"/><path data-name="Path 135095" d="M227.548 7.796a3.028 3.028 0 1 0-3.029-3.028 3.029 3.029 0 0 0 3.029 3.028"/><path data-name="Path 135096" d="M249.094 7.43a3.6 3.6 0 1 0-3.6-3.6 3.6 3.6 0 0 0 3.6 3.6"/><path data-name="Path 135097" d="M270.649 7.396a2.628 2.628 0 1 0-2.628-2.628 2.628 2.628 0 0 0 2.628 2.628"/><path data-name="Path 135098" d="M292.036 9.697a2.114 2.114 0 1 0-2.114-2.114 2.114 2.114 0 0 0 2.114 2.114"/><path data-name="Path 135099" d="M313.096 12.88a.628.628 0 1 0-.628-.628.628.628 0 0 0 .628.628"/><path data-name="Path 135100" d="M408.04 61.905a.229.229 0 1 0-.228-.228.229.229 0 0 0 .228.228"/><path data-name="Path 135101" d="M487.942 187.155a.057.057 0 1 0-.057-.057.057.057 0 0 0 .057.057"/><path data-name="Path 135102" d="M154.108 1.257a.628.628 0 1 0-.628-.628.628.628 0 0 0 .628.628"/></g></g></g></svg>