<svg xmlns="http://www.w3.org/2000/svg" width="300" height="402"><defs><clipPath id="a"><path data-name="Rectangle 152673" transform="translate(1620 80)" fill="rgba(255,255,255,0)" d="M0 0h300v402H0z"/></clipPath><clipPath id="b"><path data-name="Rectangle 152671" fill="#175850" d="M0 0h400v401.685H0z"/></clipPath></defs><g data-name="Mask Group 4" transform="translate(-1620 -80)" clip-path="url(#a)"><g data-name="Group 179112"><g data-name="Group 179111" clip-path="url(#b)" fill="#175850" transform="translate(1620 80)"><path data-name="Path 134683" d="M204.179 212.608a6.791 6.791 0 1 0-6.791-6.792 6.791 6.791 0 0 0 6.791 6.791"/><path data-name="Path 134684" d="M221.069 212.233a6.417 6.417 0 1 0-6.416-6.416 6.416 6.416 0 0 0 6.416 6.416"/><path data-name="Path 134685" d="M212.624 226.486a6.042 6.042 0 1 0-6.042-6.042 6.042 6.042 0 0 0 6.042 6.042"/><path data-name="Path 134686" d="M195.734 227.048a6.6 6.6 0 1 0-6.6-6.6 6.6 6.6 0 0 0 6.6 6.6"/><path data-name="Path 134687" d="M187.289 212.889a7.072 7.072 0 1 0-7.072-7.072 7.072 7.072 0 0 0 7.072 7.072"/><path data-name="Path 134688" d="M195.734 198.402a7.213 7.213 0 1 0-7.212-7.212 7.212 7.212 0 0 0 7.212 7.212"/><path data-name="Path 134689" d="M212.624 197.98a6.791 6.791 0 1 0-6.791-6.791 6.791 6.791 0 0 0 6.791 6.791"/><path data-name="Path 134690" d="M237.959 211.858a6.042 6.042 0 1 0-6.042-6.042 6.042 6.042 0 0 0 6.042 6.042"/><path data-name="Path 134691" d="M233.434 228.233a5.527 5.527 0 1 0-5.527-5.527 5.526 5.526 0 0 0 5.527 5.527"/><path data-name="Path 134692" d="M221.069 240.598a5.527 5.527 0 1 0-5.527-5.527 5.527 5.527 0 0 0 5.527 5.527"/><path data-name="Path 134693" d="M204.179 245.123a5.527 5.527 0 1 0-5.527-5.527 5.527 5.527 0 0 0 5.527 5.527"/><path data-name="Path 134694" d="M187.289 241.676a6.6 6.6 0 1 0-6.6-6.6 6.6 6.6 0 0 0 6.6 6.6"/><path data-name="Path 134695" d="M174.926 229.638a6.932 6.932 0 1 0-6.931-6.931 6.931 6.931 0 0 0 6.931 6.931"/><path data-name="Path 134696" d="M170.398 213.123a7.306 7.306 0 1 0-7.306-7.306 7.306 7.306 0 0 0 7.306 7.306"/><path data-name="Path 134697" d="M174.925 196.233a7.306 7.306 0 1 0-7.306-7.306 7.306 7.306 0 0 0 7.306 7.306"/><path data-name="Path 134698" d="M187.289 183.963a7.4 7.4 0 1 0-7.4-7.4 7.4 7.4 0 0 0 7.4 7.4"/><path data-name="Path 134699" d="M204.179 179.108a7.072 7.072 0 1 0-7.072-7.072 7.072 7.072 0 0 0 7.072 7.072"/><path data-name="Path 134700" d="M221.069 183.4a6.838 6.838 0 1 0-6.838-6.838 6.838 6.838 0 0 0 6.838 6.838"/><path data-name="Path 134701" d="M233.433 195.624a6.7 6.7 0 1 0-6.7-6.7 6.7 6.7 0 0 0 6.7 6.7"/><path data-name="Path 134702" d="M254.849 211.484a5.667 5.667 0 1 0-5.667-5.667 5.667 5.667 0 0 0 5.667 5.667"/><path data-name="Path 134703" d="M251.794 228.112a4.964 4.964 0 1 0-4.965-4.965 4.965 4.965 0 0 0 4.965 4.965"/><path data-name="Path 134704" d="M242.997 243.539a5.152 5.152 0 1 0-5.152-5.152 5.152 5.152 0 0 0 5.152 5.152"/><path data-name="Path 134705" d="M229.514 255.225a5.527 5.527 0 1 0-5.527-5.527 5.527 5.527 0 0 0 5.527 5.527"/><path data-name="Path 134706" d="M212.978 261.197a5.48 5.48 0 1 0-5.48-5.48 5.48 5.48 0 0 0 5.48 5.48"/><path data-name="Path 134707" d="M195.38 261.572a5.855 5.855 0 1 0-5.854-5.854 5.854 5.854 0 0 0 5.854 5.854"/><path data-name="Path 134708" d="M178.839 255.787a6.089 6.089 0 1 0-6.089-6.089 6.089 6.089 0 0 0 6.089 6.089"/><path data-name="Path 134709" d="M165.363 244.569a6.182 6.182 0 1 0-6.182-6.182 6.182 6.182 0 0 0 6.182 6.182"/><path data-name="Path 134710" d="M156.564 230.078a6.932 6.932 0 1 0-6.931-6.931 6.931 6.931 0 0 0 6.931 6.931"/><path data-name="Path 134711" d="M153.509 213.17a7.353 7.353 0 1 0-7.353-7.353 7.353 7.353 0 0 0 7.353 7.353"/><path data-name="Path 134712" d="M156.565 195.98a7.494 7.494 0 1 0-7.494-7.494 7.493 7.493 0 0 0 7.494 7.494"/><path data-name="Path 134713" d="M165.363 181.115a7.868 7.868 0 1 0-7.868-7.868 7.869 7.869 0 0 0 7.868 7.868"/><path data-name="Path 134714" d="M178.846 169.71a7.775 7.775 0 1 0-7.775-7.775 7.775 7.775 0 0 0 7.775 7.775"/><path data-name="Path 134715" d="M195.38 163.457a7.54 7.54 0 1 0-7.54-7.54 7.541 7.541 0 0 0 7.54 7.54"/><path data-name="Path 134716" d="M212.977 163.223a7.306 7.306 0 1 0-7.306-7.306 7.306 7.306 0 0 0 7.306 7.306"/><path data-name="Path 134717" d="M229.514 169.007a7.072 7.072 0 1 0-7.072-7.072 7.072 7.072 0 0 0 7.072 7.072"/><path data-name="Path 134718" d="M242.995 179.854a6.6 6.6 0 1 0-6.6-6.6 6.6 6.6 0 0 0 6.6 6.6"/><path data-name="Path 134719" d="M251.793 194.106a5.62 5.62 0 1 0-5.62-5.62 5.62 5.62 0 0 0 5.62 5.62"/><path data-name="Path 134720" d="M271.739 210.969a5.152 5.152 0 1 0-5.152-5.152 5.152 5.152 0 0 0 5.152 5.152"/><path data-name="Path 134721" d="M269.437 227.57a4.262 4.262 0 1 0-4.262-4.262 4.262 4.262 0 0 0 4.262 4.262"/><path data-name="Path 134722" d="M262.688 244a4.4 4.4 0 1 0-4.4-4.4 4.4 4.4 0 0 0 4.4 4.4"/><path data-name="Path 134723" d="M251.952 258.039a4.449 4.449 0 1 0-4.45-4.449 4.449 4.449 0 0 0 4.45 4.449"/><path data-name="Path 134724" d="M237.959 269.197a4.871 4.871 0 1 0-4.871-4.871 4.871 4.871 0 0 0 4.871 4.871"/><path data-name="Path 134725" d="M221.665 275.244a4.168 4.168 0 1 0-4.169-4.169 4.169 4.169 0 0 0 4.169 4.169"/><path data-name="Path 134726" d="M204.179 278.574a5.2 5.2 0 1 0-5.2-5.2 5.2 5.2 0 0 0 5.2 5.2"/><path data-name="Path 134727" d="M186.693 276.367a5.292 5.292 0 1 0-5.292-5.292 5.292 5.292 0 0 0 5.292 5.292"/><path data-name="Path 134728" d="M170.399 270.321a6 6 0 1 0-6-6 6 6 0 0 0 6 6"/><path data-name="Path 134729" d="M156.407 259.63a6.042 6.042 0 1 0-6.042-6.042 6.042 6.042 0 0 0 6.042 6.042"/><path data-name="Path 134730" d="M145.67 245.826a6.229 6.229 0 1 0-6.229-6.229 6.229 6.229 0 0 0 6.229 6.229"/><path data-name="Path 134731" d="M138.921 230.328a7.025 7.025 0 1 0-7.025-7.025 7.025 7.025 0 0 0 7.025 7.025"/><path data-name="Path 134732" d="M136.619 213.217a7.4 7.4 0 1 0-7.4-7.4 7.4 7.4 0 0 0 7.4 7.4"/><path data-name="Path 134733" d="M138.921 195.778a7.447 7.447 0 1 0-7.447-7.447 7.447 7.447 0 0 0 7.447 7.447"/><path data-name="Path 134734" d="M145.674 179.718a7.681 7.681 0 1 0-7.681-7.681 7.681 7.681 0 0 0 7.681 7.681"/><path data-name="Path 134735" d="M156.406 165.913a7.868 7.868 0 1 0-7.868-7.868 7.869 7.869 0 0 0 7.868 7.868"/><path data-name="Path 134736" d="M170.399 155.411a8.1 8.1 0 1 0-8.1-8.1 8.1 8.1 0 0 0 8.1 8.1"/><path data-name="Path 134737" d="M186.693 148.475a7.915 7.915 0 1 0-7.915-7.915 7.915 7.915 0 0 0 7.915 7.915"/><path data-name="Path 134738" d="M204.179 145.891a7.634 7.634 0 1 0-7.634-7.634 7.634 7.634 0 0 0 7.634 7.634"/><path data-name="Path 134739" d="M221.665 148.006a7.447 7.447 0 1 0-7.447-7.446 7.446 7.446 0 0 0 7.447 7.446"/><path data-name="Path 134740" d="M237.954 154.193a6.885 6.885 0 1 0-6.885-6.885 6.885 6.885 0 0 0 6.885 6.885"/><path data-name="Path 134741" d="M251.951 164.508a6.463 6.463 0 1 0-6.463-6.463 6.463 6.463 0 0 0 6.463 6.463"/><path data-name="Path 134742" d="M262.688 178.266a6.229 6.229 0 1 0-6.229-6.229 6.229 6.229 0 0 0 6.229 6.229"/><path data-name="Path 134743" d="M269.437 193.717a5.386 5.386 0 1 0-5.386-5.386 5.386 5.386 0 0 0 5.386 5.386"/><path data-name="Path 134744" d="M288.628 210.407a4.59 4.59 0 1 0-4.59-4.59 4.59 4.59 0 0 0 4.59 4.59"/><path data-name="Path 134745" d="M286.784 227.449a4.075 4.075 0 1 0-4.075-4.075 4.074 4.074 0 0 0 4.075 4.075"/><path data-name="Path 134746" d="M281.328 244.428a4.262 4.262 0 1 0-4.262-4.262 4.262 4.262 0 0 0 4.262 4.262"/><path data-name="Path 134747" d="M272.501 259.436a3.981 3.981 0 1 0-3.981-3.981 3.981 3.981 0 0 0 3.981 3.981"/><path data-name="Path 134748" d="M260.683 273.025a4.449 4.449 0 1 0-4.449-4.45 4.449 4.449 0 0 0 4.449 4.45"/><path data-name="Path 134749" d="M246.404 283.258a4.309 4.309 0 1 0-4.309-4.309 4.309 4.309 0 0 0 4.309 4.309"/><path data-name="Path 134750" d="M230.275 290.302a4.168 4.168 0 1 0-4.169-4.169 4.168 4.168 0 0 0 4.169 4.169"/><path data-name="Path 134751" d="M213.007 293.832a4.028 4.028 0 1 0-4.028-4.028 4.028 4.028 0 0 0 4.028 4.028"/><path data-name="Path 134752" d="M195.352 294.16a4.356 4.356 0 1 0-4.356-4.356 4.356 4.356 0 0 0 4.356 4.356"/><path data-name="Path 134753" d="M178.082 290.63a4.5 4.5 0 1 0-4.5-4.5 4.5 4.5 0 0 0 4.5 4.5"/><path data-name="Path 134754" d="M161.954 284.573a5.62 5.62 0 1 0-5.62-5.62 5.62 5.62 0 0 0 5.62 5.62"/><path data-name="Path 134755" d="M147.671 274.711a6.136 6.136 0 1 0-6.135-6.135 6.135 6.135 0 0 0 6.135 6.135"/><path data-name="Path 134756" d="M135.857 261.591a6.136 6.136 0 1 0-6.135-6.135 6.135 6.135 0 0 0 6.135 6.135"/><path data-name="Path 134757" d="M127.03 246.257a6.088 6.088 0 1 0-6.088-6.089 6.088 6.088 0 0 0 6.088 6.089"/><path data-name="Path 134758" d="M121.574 229.932a6.557 6.557 0 1 0-6.557-6.557 6.557 6.557 0 0 0 6.557 6.557"/><path data-name="Path 134759" d="M119.728 213.076a7.259 7.259 0 1 0-7.259-7.259 7.259 7.259 0 0 0 7.259 7.259"/><path data-name="Path 134760" d="M121.574 195.564a7.306 7.306 0 1 0-7.306-7.306 7.306 7.306 0 0 0 7.306 7.306"/><path data-name="Path 134761" d="M127.03 179.056a7.587 7.587 0 1 0-7.587-7.587 7.587 7.587 0 0 0 7.587 7.587"/><path data-name="Path 134762" d="M135.857 164.141a7.962 7.962 0 1 0-7.962-7.962 7.962 7.962 0 0 0 7.962 7.962"/><path data-name="Path 134763" d="M147.671 151.301a8.243 8.243 0 1 0-8.243-8.243 8.243 8.243 0 0 0 8.243 8.243"/><path data-name="Path 134764" d="M161.954 141.017a8.337 8.337 0 1 0-8.337-8.337 8.337 8.337 0 0 0 8.337 8.337"/><path data-name="Path 134765" d="M178.083 133.555a8.056 8.056 0 1 0-8.056-8.056 8.055 8.055 0 0 0 8.056 8.056"/><path data-name="Path 134766" d="M195.351 129.791a7.962 7.962 0 1 0-7.962-7.962 7.962 7.962 0 0 0 7.962 7.962"/><path data-name="Path 134767" d="M213.006 129.651a7.822 7.822 0 1 0-7.822-7.821 7.822 7.822 0 0 0 7.822 7.821"/><path data-name="Path 134768" d="M230.276 132.993a7.494 7.494 0 1 0-7.494-7.494 7.493 7.493 0 0 0 7.494 7.494"/><path data-name="Path 134769" d="M246.404 139.847a7.166 7.166 0 1 0-7.166-7.166 7.166 7.166 0 0 0 7.166 7.166"/><path data-name="Path 134770" d="M260.687 149.568a6.51 6.51 0 1 0-6.51-6.51 6.51 6.51 0 0 0 6.51 6.51"/><path data-name="Path 134771" d="M272.501 162.124a5.948 5.948 0 1 0-5.949-5.948 5.948 5.948 0 0 0 5.949 5.948"/><path data-name="Path 134772" d="M281.328 177.135a5.667 5.667 0 1 0-5.667-5.667 5.667 5.667 0 0 0 5.667 5.667"/><path data-name="Path 134773" d="M286.784 192.896a4.637 4.637 0 1 0-4.637-4.637 4.637 4.637 0 0 0 4.637 4.637"/><path data-name="Path 134774" d="M305.519 209.891a4.075 4.075 0 1 0-4.075-4.075 4.074 4.074 0 0 0 4.075 4.075"/><path data-name="Path 134775" d="M303.98 226.927a3.513 3.513 0 1 0-3.513-3.513 3.513 3.513 0 0 0 3.513 3.513"/><path data-name="Path 134776" d="M299.408 244.225a3.747 3.747 0 1 0-3.747-3.747 3.747 3.747 0 0 0 3.747 3.747"/><path data-name="Path 134777" d="M291.943 260.046a3.56 3.56 0 1 0-3.56-3.56 3.56 3.56 0 0 0 3.56 3.56"/><path data-name="Path 134778" d="M281.81 274.048a3.091 3.091 0 1 0-3.091-3.091 3.091 3.091 0 0 0 3.091 3.091"/><path data-name="Path 134779" d="M269.319 286.539a3.091 3.091 0 1 0-3.091-3.091 3.091 3.091 0 0 0 3.091 3.091"/><path data-name="Path 134780" d="M254.853 296.671a3.091 3.091 0 1 0-3.091-3.091 3.091 3.091 0 0 0 3.091 3.091"/><path data-name="Path 134781" d="M238.84 304.839a3.794 3.794 0 1 0-3.794-3.794 3.794 3.794 0 0 0 3.794 3.794"/><path data-name="Path 134782" d="M221.777 309.317a3.7 3.7 0 1 0-3.7-3.7 3.7 3.7 0 0 0 3.7 3.7"/><path data-name="Path 134783" d="M204.179 311.138a3.981 3.981 0 1 0-3.981-3.981 3.981 3.981 0 0 0 3.981 3.981"/><path data-name="Path 134784" d="M186.581 309.832a4.215 4.215 0 1 0-4.215-4.215 4.215 4.215 0 0 0 4.215 4.215"/><path data-name="Path 134785" d="M169.519 305.542a4.5 4.5 0 1 0-4.5-4.5 4.5 4.5 0 0 0 4.5 4.5"/><path data-name="Path 134786" d="M153.509 298.123a4.543 4.543 0 1 0-4.543-4.543 4.543 4.543 0 0 0 4.543 4.543"/><path data-name="Path 134787" d="M139.039 289.162a5.714 5.714 0 1 0-5.714-5.714 5.714 5.714 0 0 0 5.714 5.714"/><path data-name="Path 134788" d="M126.548 276.483a5.527 5.527 0 1 0-5.526-5.527 5.527 5.527 0 0 0 5.526 5.527"/><path data-name="Path 134789" d="M116.416 262.485a6 6 0 1 0-6-6 6 6 0 0 0 6 6"/><path data-name="Path 134790" d="M108.95 246.097a5.62 5.62 0 1 0-5.62-5.62 5.62 5.62 0 0 0 5.62 5.62"/><path data-name="Path 134791" d="M104.378 229.643a6.229 6.229 0 1 0-6.229-6.229 6.229 6.229 0 0 0 6.229 6.229"/><path data-name="Path 134792" d="M102.839 212.655a6.838 6.838 0 1 0-6.838-6.838 6.838 6.838 0 0 0 6.838 6.838"/><path data-name="Path 134793" d="M104.378 195.105a6.885 6.885 0 1 0-6.885-6.885 6.884 6.884 0 0 0 6.885 6.885"/><path data-name="Path 134794" d="M108.95 178.416a7.259 7.259 0 1 0-7.259-7.259 7.259 7.259 0 0 0 7.259 7.259"/><path data-name="Path 134795" d="M116.415 162.969a7.821 7.821 0 1 0-7.821-7.822 7.821 7.821 0 0 0 7.821 7.822"/><path data-name="Path 134796" d="M126.549 148.779a8.1 8.1 0 1 0-8.1-8.1 8.1 8.1 0 0 0 8.1 8.1"/><path data-name="Path 134797" d="M139.039 136.476a8.29 8.29 0 1 0-8.29-8.29 8.29 8.29 0 0 0 8.29 8.29"/><path data-name="Path 134798" d="M153.509 126.39a8.337 8.337 0 1 0-8.337-8.337 8.337 8.337 0 0 0 8.337 8.337"/><path data-name="Path 134799" d="M169.518 118.831a8.243 8.243 0 1 0-8.243-8.243 8.243 8.243 0 0 0 8.243 8.243"/><path data-name="Path 134800" d="M186.582 114.072a8.056 8.056 0 1 0-8.056-8.056 8.055 8.055 0 0 0 8.056 8.056"/><path data-name="Path 134801" d="M204.179 112.392a7.915 7.915 0 1 0-7.915-7.915 7.915 7.915 0 0 0 7.915 7.915"/><path data-name="Path 134802" d="M221.776 113.417a7.4 7.4 0 1 0-7.4-7.4 7.4 7.4 0 0 0 7.4 7.4"/><path data-name="Path 134803" d="M238.84 117.473a6.885 6.885 0 1 0-6.885-6.885 6.885 6.885 0 0 0 6.885 6.885"/><path data-name="Path 134804" d="M254.849 124.751a6.7 6.7 0 1 0-6.7-6.7 6.7 6.7 0 0 0 6.7 6.7"/><path data-name="Path 134805" d="M269.324 134.321a6.136 6.136 0 1 0-6.135-6.135 6.135 6.135 0 0 0 6.135 6.135"/><path data-name="Path 134806" d="M281.81 146.765a6.089 6.089 0 1 0-6.088-6.088 6.089 6.089 0 0 0 6.088 6.088"/><path data-name="Path 134807" d="M291.943 160.396a5.246 5.246 0 1 0-5.246-5.246 5.246 5.246 0 0 0 5.246 5.246"/><path data-name="Path 134808" d="M299.408 176.262a5.105 5.105 0 1 0-5.1-5.105 5.105 5.105 0 0 0 5.1 5.105"/><path data-name="Path 134809" d="M303.98 192.247a4.028 4.028 0 1 0-4.028-4.028 4.028 4.028 0 0 0 4.028 4.028"/><path data-name="Path 134810" d="M322.409 209.282a3.466 3.466 0 1 0-3.466-3.466 3.466 3.466 0 0 0 3.466 3.466"/><path data-name="Path 134811" d="M321.089 226.529a3.091 3.091 0 1 0-3.091-3.091 3.091 3.091 0 0 0 3.091 3.091"/><path data-name="Path 134812" d="M317.157 243.664a3 3 0 1 0-3-3 3 3 0 0 0 3 3"/><path data-name="Path 134813" d="M310.702 260.113a3 3 0 1 0-3-3 3 3 0 0 0 3 3"/><path data-name="Path 134814" d="M301.865 274.62a2.2 2.2 0 1 0-2.2-2.2 2.2 2.2 0 0 0 2.2 2.2"/><path data-name="Path 134815" d="M290.849 288.248a2.014 2.014 0 1 0-2.015-2.014 2.014 2.014 0 0 0 2.015 2.014"/><path data-name="Path 134816" d="M277.894 300.782a2.529 2.529 0 1 0-2.529-2.529 2.529 2.529 0 0 0 2.529 2.529"/><path data-name="Path 134817" d="M263.298 311.298a3.091 3.091 0 1 0-3.091-3.091 3.091 3.091 0 0 0 3.091 3.091"/><path data-name="Path 134818" d="M247.373 319.293a3.419 3.419 0 1 0-3.419-3.419 3.419 3.419 0 0 0 3.419 3.419"/><path data-name="Path 134819" d="M230.488 323.565a2.482 2.482 0 1 0-2.482-2.482 2.482 2.482 0 0 0 2.482 2.482"/><path data-name="Path 134820" d="M213.014 326.568a2.857 2.857 0 1 0-2.857-2.857 2.857 2.857 0 0 0 2.857 2.857"/><path data-name="Path 134821" d="M195.343 327.323a3.606 3.606 0 1 0-3.607-3.607 3.606 3.606 0 0 0 3.607 3.607"/><path data-name="Path 134822" d="M177.871 324.923a3.841 3.841 0 1 0-3.841-3.841 3.841 3.841 0 0 0 3.841 3.841"/><path data-name="Path 134823" d="M160.985 320.324a4.449 4.449 0 1 0-4.45-4.45 4.449 4.449 0 0 0 4.45 4.45"/><path data-name="Path 134824" d="M145.064 312.704a4.5 4.5 0 1 0-4.5-4.5 4.5 4.5 0 0 0 4.5 4.5"/><path data-name="Path 134825" d="M130.464 302.656a4.4 4.4 0 1 0-4.4-4.4 4.4 4.4 0 0 0 4.4 4.4"/><path data-name="Path 134826" d="M117.51 290.637a4.4 4.4 0 1 0-4.4-4.4 4.4 4.4 0 0 0 4.4 4.4"/><path data-name="Path 134827" d="M106.492 277.477a5.058 5.058 0 1 0-5.058-5.058 5.058 5.058 0 0 0 5.058 5.058"/><path data-name="Path 134828" d="M97.657 261.986a4.871 4.871 0 1 0-4.871-4.871 4.871 4.871 0 0 0 4.871 4.871"/><path data-name="Path 134829" d="M91.202 245.63a4.964 4.964 0 1 0-4.965-4.965 4.965 4.965 0 0 0 4.965 4.965"/><path data-name="Path 134830" d="M87.269 229.058a5.62 5.62 0 1 0-5.62-5.62 5.62 5.62 0 0 0 5.62 5.62"/><path data-name="Path 134831" d="M85.948 211.952a6.136 6.136 0 1 0-6.135-6.135 6.135 6.135 0 0 0 6.135 6.135"/><path data-name="Path 134832" d="M87.269 194.378a6.182 6.182 0 1 0-6.182-6.182 6.182 6.182 0 0 0 6.182 6.182"/><path data-name="Path 134833" d="M91.201 177.665a6.7 6.7 0 1 0-6.7-6.7 6.7 6.7 0 0 0 6.7 6.7"/><path data-name="Path 134834" d="M97.657 161.498a6.978 6.978 0 1 0-6.978-6.978 6.978 6.978 0 0 0 6.978 6.978"/><path data-name="Path 134835" d="M106.492 146.896a7.681 7.681 0 1 0-7.681-7.681 7.681 7.681 0 0 0 7.681 7.681"/><path data-name="Path 134836" d="M117.51 133.591a8.2 8.2 0 1 0-8.2-8.2 8.2 8.2 0 0 0 8.2 8.2"/><path data-name="Path 134837" d="M130.464 121.343a7.962 7.962 0 1 0-7.962-7.962 7.962 7.962 0 0 0 7.962 7.962"/><path data-name="Path 134838" d="M145.064 111.81a8.384 8.384 0 1 0-8.384-8.384 8.383 8.383 0 0 0 8.384 8.384"/><path data-name="Path 134839" d="M160.985 104.049a8.29 8.29 0 1 0-8.29-8.289 8.289 8.289 0 0 0 8.29 8.289"/><path data-name="Path 134840" d="M177.87 98.794a8.243 8.243 0 1 0-8.243-8.243 8.243 8.243 0 0 0 8.243 8.243"/><path data-name="Path 134841" d="M195.344 95.973a8.056 8.056 0 1 0-8.056-8.056 8.055 8.055 0 0 0 8.056 8.056"/><path data-name="Path 134842" d="M213.015 95.692a7.775 7.775 0 1 0-7.775-7.775 7.775 7.775 0 0 0 7.775 7.775"/><path data-name="Path 134843" d="M230.491 97.951a7.4 7.4 0 1 0-7.4-7.4 7.4 7.4 0 0 0 7.4 7.4"/><path data-name="Path 134844" d="M247.373 102.785a7.025 7.025 0 1 0-7.025-7.025 7.025 7.025 0 0 0 7.025 7.025"/><path data-name="Path 134845" d="M263.294 110.217a6.791 6.791 0 1 0-6.791-6.791 6.791 6.791 0 0 0 6.791 6.791"/><path data-name="Path 134846" d="M277.894 119.329a5.948 5.948 0 1 0-5.948-5.948 5.948 5.948 0 0 0 5.948 5.948"/><path data-name="Path 134847" d="M290.847 130.458a5.058 5.058 0 1 0-5.058-5.058 5.058 5.058 0 0 0 5.058 5.058"/><path data-name="Path 134848" d="M301.866 144.04a4.824 4.824 0 1 0-4.824-4.824 4.824 4.824 0 0 0 4.824 4.824"/><path data-name="Path 134849" d="M310.701 159.343a4.824 4.824 0 1 0-4.824-4.824 4.824 4.824 0 0 0 4.824 4.824"/><path data-name="Path 134850" d="M317.157 175.554a4.59 4.59 0 1 0-4.59-4.59 4.59 4.59 0 0 0 4.59 4.59"/><path data-name="Path 134851" d="M321.089 191.708a3.513 3.513 0 1 0-3.513-3.513 3.513 3.513 0 0 0 3.513 3.513"/><path data-name="Path 134852" d="M339.299 208.627a2.81 2.81 0 1 0-2.81-2.81 2.81 2.81 0 0 0 2.81 2.81"/><path data-name="Path 134853" d="M338.143 225.28a1.826 1.826 0 1 0-1.826-1.826 1.827 1.827 0 0 0 1.826 1.826"/><path data-name="Path 134854" d="M334.696 243.458a2.67 2.67 0 1 0-2.67-2.67 2.67 2.67 0 0 0 2.67 2.67"/><path data-name="Path 134855" d="M329.014 259.77a2.248 2.248 0 1 0-2.248-2.248 2.248 2.248 0 0 0 2.248 2.248"/><path data-name="Path 134856" d="M321.197 275.344a1.967 1.967 0 1 0-1.967-1.967 1.967 1.967 0 0 0 1.967 1.967"/><path data-name="Path 134857" d="M311.382 290.181a2.108 2.108 0 1 0-2.107-2.108 2.107 2.107 0 0 0 2.107 2.108"/><path data-name="Path 134858" d="M299.723 303.376a2.014 2.014 0 1 0-2.014-2.014 2.014 2.014 0 0 0 2.014 2.014"/><path data-name="Path 134859" d="M286.435 314.467a1.452 1.452 0 1 0-1.452-1.452 1.452 1.452 0 0 0 1.452 1.452"/><path data-name="Path 134860" d="M271.739 324.896a2.061 2.061 0 1 0-2.061-2.061 2.061 2.061 0 0 0 2.061 2.061"/><path data-name="Path 134861" d="M255.887 332.947a2.295 2.295 0 1 0-2.3-2.295 2.295 2.295 0 0 0 2.3 2.295"/><path data-name="Path 134862" d="M239.15 339.14a2.81 2.81 0 1 0-2.81-2.81 2.81 2.81 0 0 0 2.81 2.81"/><path data-name="Path 134863" d="M221.815 341.655a1.873 1.873 0 1 0-1.873-1.873 1.874 1.874 0 0 0 1.873 1.873"/><path data-name="Path 134864" d="M204.178 343.09a2.154 2.154 0 1 0-2.154-2.154 2.154 2.154 0 0 0 2.154 2.154"/><path data-name="Path 134865" d="M186.542 342.076a2.295 2.295 0 1 0-2.3-2.295 2.294 2.294 0 0 0 2.3 2.295"/><path data-name="Path 134866" d="M169.208 340.173a3.841 3.841 0 1 0-3.841-3.841 3.84 3.84 0 0 0 3.841 3.841"/><path data-name="Path 134867" d="M152.471 334.492a3.841 3.841 0 1 0-3.841-3.841 3.841 3.841 0 0 0 3.841 3.841"/><path data-name="Path 134868" d="M136.619 326.68a3.841 3.841 0 1 0-3.841-3.841 3.841 3.841 0 0 0 3.841 3.841"/><path data-name="Path 134869" d="M121.923 317.418a4.4 4.4 0 1 0-4.4-4.4 4.4 4.4 0 0 0 4.4 4.4"/><path data-name="Path 134870" d="M108.635 305.342a3.981 3.981 0 1 0-3.981-3.981 3.981 3.981 0 0 0 3.981 3.981"/><path data-name="Path 134871" d="M96.981 290.836a2.763 2.763 0 1 0-2.763-2.763 2.763 2.763 0 0 0 2.763 2.763"/><path data-name="Path 134872" d="M87.162 277.451a4.075 4.075 0 1 0-4.075-4.075 4.074 4.074 0 0 0 4.075 4.075"/><path data-name="Path 134873" d="M79.344 261.553a4.028 4.028 0 1 0-4.028-4.028 4.028 4.028 0 0 0 4.028 4.028"/><path data-name="Path 134874" d="M73.665 244.863a4.075 4.075 0 1 0-4.075-4.075 4.075 4.075 0 0 0 4.075 4.075"/><path data-name="Path 134875" d="M70.215 228.325a4.871 4.871 0 1 0-4.871-4.871 4.871 4.871 0 0 0 4.871 4.871"/><path data-name="Path 134876" d="M69.059 211.066a5.246 5.246 0 1 0-5.246-5.246 5.246 5.246 0 0 0 5.246 5.246"/><path data-name="Path 134877" d="M70.214 193.475a5.292 5.292 0 1 0-5.292-5.292 5.292 5.292 0 0 0 5.292 5.292"/><path data-name="Path 134878" d="M73.661 176.419a5.573 5.573 0 1 0-5.573-5.573 5.573 5.573 0 0 0 5.573 5.573"/><path data-name="Path 134879" d="M79.344 160.197a6.089 6.089 0 1 0-6.088-6.088 6.089 6.089 0 0 0 6.088 6.088"/><path data-name="Path 134880" d="M87.161 145.282a7.025 7.025 0 1 0-7.025-7.025 7.025 7.025 0 0 0 7.025 7.025"/><path data-name="Path 134881" d="M96.981 130.165a6.6 6.6 0 1 0-6.6-6.6 6.6 6.6 0 0 0 6.6 6.6"/><path data-name="Path 134882" d="M108.634 117.579a7.306 7.306 0 1 0-7.306-7.306 7.306 7.306 0 0 0 7.306 7.306"/><path data-name="Path 134883" d="M121.923 106.441a7.821 7.821 0 1 0-7.821-7.821 7.822 7.822 0 0 0 7.821 7.821"/><path data-name="Path 134884" d="M136.619 97.183a8.384 8.384 0 1 0-8.384-8.384 8.383 8.383 0 0 0 8.384 8.384"/><path data-name="Path 134885" d="M152.471 88.289a7.306 7.306 0 1 0-7.306-7.306 7.306 7.306 0 0 0 7.306 7.306"/><path data-name="Path 134886" d="M169.203 83.122a7.821 7.821 0 1 0-7.822-7.821 7.822 7.822 0 0 0 7.822 7.821"/><path data-name="Path 134887" d="M186.541 78.924a7.072 7.072 0 1 0-7.072-7.072 7.072 7.072 0 0 0 7.072 7.072"/><path data-name="Path 134888" d="M204.179 78.05a7.353 7.353 0 1 0-7.353-7.353 7.353 7.353 0 0 0 7.353 7.353"/><path data-name="Path 134889" d="M221.816 78.175a6.323 6.323 0 1 0-6.323-6.318 6.323 6.323 0 0 0 6.323 6.323"/><path data-name="Path 134890" d="M239.151 81.015a5.714 5.714 0 1 0-5.714-5.714 5.714 5.714 0 0 0 5.714 5.714"/><path data-name="Path 134891" d="M255.887 87.211a6.229 6.229 0 1 0-6.229-6.229 6.229 6.229 0 0 0 6.229 6.229"/><path data-name="Path 134892" d="M271.739 94.372a5.573 5.573 0 1 0-5.573-5.573 5.573 5.573 0 0 0 5.573 5.573"/><path data-name="Path 134893" d="M286.435 103.212a4.59 4.59 0 1 0-4.59-4.59 4.59 4.59 0 0 0 4.59 4.59"/><path data-name="Path 134894" d="M299.723 115.378a5.105 5.105 0 1 0-5.105-5.105 5.1 5.1 0 0 0 5.105 5.105"/><path data-name="Path 134895" d="M311.378 127.964a4.4 4.4 0 1 0-4.4-4.4 4.4 4.4 0 0 0 4.4 4.4"/><path data-name="Path 134896" d="M321.197 142.238a3.981 3.981 0 1 0-3.981-3.981 3.981 3.981 0 0 0 3.981 3.981"/><path data-name="Path 134897" d="M329.014 157.856a3.747 3.747 0 1 0-3.747-3.747 3.747 3.747 0 0 0 3.747 3.747"/><path data-name="Path 134898" d="M334.696 174.638a3.794 3.794 0 1 0-3.794-3.794 3.794 3.794 0 0 0 3.794 3.794"/><path data-name="Path 134899" d="M338.143 190.99a2.81 2.81 0 1 0-2.81-2.81 2.81 2.81 0 0 0 2.81 2.81"/><path data-name="Path 134900" d="M356.189 207.969a2.154 2.154 0 1 0-2.154-2.154 2.155 2.155 0 0 0 2.154 2.154"/><path data-name="Path 134901" d="M355.165 225.15a1.686 1.686 0 1 0-1.686-1.686 1.686 1.686 0 0 0 1.686 1.686"/><path data-name="Path 134902" d="M352.092 242.278a1.405 1.405 0 1 0-1.405-1.405 1.405 1.405 0 0 0 1.405 1.405"/><path data-name="Path 134903" d="M347.022 259.025a1.218 1.218 0 1 0-1.217-1.218 1.218 1.218 0 0 0 1.217 1.218"/><path data-name="Path 134904" d="M340.021 275.256a1.218 1.218 0 1 0-1.218-1.217 1.218 1.218 0 0 0 1.218 1.217"/><path data-name="Path 134905" d="M331.182 290.987a1.639 1.639 0 1 0-1.64-1.639 1.639 1.639 0 0 0 1.64 1.639"/><path data-name="Path 134906" d="M320.627 304.23a.7.7 0 1 0-.7-.7.7.7 0 0 0 .7.7"/><path data-name="Path 134907" d="M308.495 317.462a1.077 1.077 0 1 0-1.077-1.077 1.077 1.077 0 0 0 1.077 1.077"/><path data-name="Path 134908" d="M294.953 328.731a.984.984 0 1 0-.983-.983.983.983 0 0 0 .983.983"/><path data-name="Path 134909" d="M280.184 339.007a1.546 1.546 0 1 0-1.545-1.545 1.546 1.546 0 0 0 1.545 1.545"/><path data-name="Path 134910" d="M264.383 347.269a1.873 1.873 0 1 0-1.873-1.873 1.874 1.874 0 0 0 1.873 1.873"/><path data-name="Path 134911" d="M247.776 352.986a1.546 1.546 0 1 0-1.545-1.545 1.546 1.546 0 0 0 1.545 1.545"/><path data-name="Path 134912" d="M230.575 357.391a1.873 1.873 0 1 0-1.873-1.873 1.874 1.874 0 0 0 1.873 1.873"/><path data-name="Path 134913" d="M213.017 359.677a2.107 2.107 0 1 0-2.108-2.107 2.107 2.107 0 0 0 2.108 2.107"/><path data-name="Path 134914" d="M195.34 359.865a2.295 2.295 0 1 0-2.3-2.295 2.295 2.295 0 0 0 2.3 2.295"/><path data-name="Path 134915" d="M177.783 357.906a2.389 2.389 0 1 0-2.389-2.389 2.388 2.388 0 0 0 2.389 2.389"/><path data-name="Path 134916" d="M160.582 353.877a2.435 2.435 0 1 0-2.435-2.435 2.435 2.435 0 0 0 2.435 2.435"/><path data-name="Path 134917" d="M143.971 347.878a2.482 2.482 0 1 0-2.482-2.482 2.482 2.482 0 0 0 2.482 2.482"/><path data-name="Path 134918" d="M128.173 339.616a2.154 2.154 0 1 0-2.154-2.154 2.154 2.154 0 0 0 2.154 2.154"/><path data-name="Path 134919" d="M113.405 330.417a2.67 2.67 0 1 0-2.67-2.67 2.67 2.67 0 0 0 2.67 2.67"/><path data-name="Path 134920" d="M99.862 320.319a3.934 3.934 0 1 0-3.934-3.934 3.934 3.934 0 0 0 3.934 3.934"/><path data-name="Path 134921" d="M87.733 305.588a2.061 2.061 0 1 0-2.061-2.061 2.061 2.061 0 0 0 2.061 2.061"/><path data-name="Path 134922" d="M77.176 291.362a2.014 2.014 0 1 0-2.014-2.014 2.014 2.014 0 0 0 2.014 2.014"/><path data-name="Path 134923" d="M68.338 277.598a3.56 3.56 0 1 0-3.56-3.56 3.56 3.56 0 0 0 3.56 3.56"/><path data-name="Path 134924" d="M61.336 260.852a3.044 3.044 0 1 0-3.044-3.044 3.044 3.044 0 0 0 3.044 3.044"/><path data-name="Path 134925" d="M56.266 243.912a3.044 3.044 0 1 0-3.044-3.044 3.044 3.044 0 0 0 3.044 3.044"/><path data-name="Path 134926" d="M53.197 226.976a3.513 3.513 0 1 0-3.513-3.513 3.513 3.513 0 0 0 3.513 3.513"/><path data-name="Path 134927" d="M52.169 209.938a4.122 4.122 0 1 0-4.122-4.122 4.122 4.122 0 0 0 4.122 4.122"/><path data-name="Path 134928" d="M53.197 192.384a4.215 4.215 0 1 0-4.216-4.217 4.215 4.215 0 0 0 4.215 4.215"/><path data-name="Path 134929" d="M56.267 175.21a4.449 4.449 0 1 0-4.45-4.45 4.449 4.449 0 0 0 4.45 4.45"/><path data-name="Path 134930" d="M61.336 158.745a4.918 4.918 0 1 0-4.918-4.918 4.918 4.918 0 0 0 4.918 4.918"/><path data-name="Path 134931" d="M68.338 143.777a6.182 6.182 0 1 0-6.183-6.182 6.182 6.182 0 0 0 6.183 6.182"/><path data-name="Path 134932" d="M77.176 127.859a5.573 5.573 0 1 0-5.573-5.573 5.573 5.573 0 0 0 5.573 5.573"/><path data-name="Path 134933" d="M87.732 114.476a6.37 6.37 0 1 0-6.369-6.369 6.369 6.369 0 0 0 6.369 6.369"/><path data-name="Path 134934" d="M99.863 101.947a6.7 6.7 0 1 0-6.7-6.7 6.7 6.7 0 0 0 6.7 6.7"/><path data-name="Path 134935" d="M113.404 90.583a6.7 6.7 0 1 0-6.7-6.7 6.7 6.7 0 0 0 6.7 6.7"/><path data-name="Path 134936" d="M128.174 79.511a5.339 5.339 0 1 0-5.339-5.339 5.339 5.339 0 0 0 5.339 5.339"/><path data-name="Path 134937" d="M143.971 71.297a5.058 5.058 0 1 0-5.058-5.058 5.058 5.058 0 0 0 5.058 5.058"/><path data-name="Path 134938" d="M160.582 66.562a6.37 6.37 0 1 0-6.37-6.369 6.369 6.369 0 0 0 6.37 6.369"/><path data-name="Path 134939" d="M177.782 62.345a6.229 6.229 0 1 0-6.229-6.229 6.229 6.229 0 0 0 6.229 6.229"/><path data-name="Path 134940" d="M195.34 60.059a6 6 0 1 0-6-6 6 6 0 0 0 6 6"/><path data-name="Path 134941" d="M213.018 59.824a5.761 5.761 0 1 0-5.761-5.761 5.761 5.761 0 0 0 5.761 5.761"/><path data-name="Path 134942" d="M230.575 61.314a5.2 5.2 0 1 0-5.2-5.2 5.2 5.2 0 0 0 5.2 5.2"/><path data-name="Path 134943" d="M247.777 64.08a3.887 3.887 0 1 0-3.888-3.888 3.888 3.888 0 0 0 3.888 3.888"/><path data-name="Path 134944" d="M264.387 69.423a3.185 3.185 0 1 0-3.185-3.185 3.185 3.185 0 0 0 3.185 3.185"/><path data-name="Path 134945" d="M280.184 79.558a5.386 5.386 0 1 0-5.386-5.385 5.386 5.386 0 0 0 5.386 5.386"/><path data-name="Path 134946" d="M294.954 88.476a4.59 4.59 0 1 0-4.59-4.59 4.59 4.59 0 0 0 4.59 4.59"/><path data-name="Path 134947" d="M308.495 98.808a3.56 3.56 0 1 0-3.56-3.56 3.56 3.56 0 0 0 3.56 3.56"/><path data-name="Path 134948" d="M320.626 111.572a3.466 3.466 0 1 0-3.466-3.466 3.466 3.466 0 0 0 3.466 3.466"/><path data-name="Path 134949" d="M331.182 126.079a3.794 3.794 0 1 0-3.794-3.794 3.794 3.794 0 0 0 3.794 3.794"/><path data-name="Path 134950" d="M340.016 140.358a2.763 2.763 0 1 0-2.763-2.763 2.763 2.763 0 0 0 2.763 2.763"/><path data-name="Path 134951" d="M347.023 156.496a2.67 2.67 0 1 0-2.67-2.67 2.67 2.67 0 0 0 2.67 2.67"/><path data-name="Path 134952" d="M352.092 172.494a1.733 1.733 0 1 0-1.733-1.738 1.733 1.733 0 0 0 1.733 1.733"/><path data-name="Path 134953" d="M355.161 190.184a2.014 2.014 0 1 0-2.014-2.014 2.014 2.014 0 0 0 2.014 2.014"/><path data-name="Path 134954" d="M373.079 206.894a1.077 1.077 0 1 0-1.077-1.077 1.077 1.077 0 0 0 1.077 1.077"/><path data-name="Path 134955" d="M372.154 224.455a.984.984 0 1 0-.983-.983.983.983 0 0 0 .983.983"/><path data-name="Path 134956" d="M369.389 241.823a.89.89 0 1 0-.89-.89.89.89 0 0 0 .89.89"/><path data-name="Path 134957" d="M364.813 259.181a1.171 1.171 0 1 0-1.171-1.171 1.171 1.171 0 0 0 1.171 1.171"/><path data-name="Path 134958" d="M358.477 275.451a.937.937 0 1 0-.937-.937.937.937 0 0 0 .937.937"/><path data-name="Path 134959" d="M350.447 291.203a.937.937 0 1 0-.937-.937.936.936 0 0 0 .937.937"/><path data-name="Path 134960" d="M340.822 305.801a.7.7 0 1 0-.7-.7.7.7 0 0 0 .7.7"/><path data-name="Path 134961" d="M329.696 319.536a.7.7 0 1 0-.7-.7.7.7 0 0 0 .7.7"/><path data-name="Path 134962" d="M317.195 331.943a.609.609 0 1 0-.609-.609.609.609 0 0 0 .609.609"/><path data-name="Path 134963" d="M303.456 342.554a.094.094 0 1 0-.094-.094.094.094 0 0 0 .094.094"/><path data-name="Path 134964" d="M288.629 353.025a.937.937 0 1 0-.937-.937.937.937 0 0 0 .937.937"/><path data-name="Path 134965" d="M272.875 360.396a.281.281 0 1 0-.281-.281.281.281 0 0 0 .281.281"/><path data-name="Path 134966" d="M256.372 367.716a1.265 1.265 0 1 0-1.264-1.264 1.265 1.265 0 0 0 1.264 1.264"/><path data-name="Path 134967" d="M239.295 371.822a.8.8 0 1 0-.8-.8.8.8 0 0 0 .8.8"/><path data-name="Path 134968" d="M221.834 374.026a.234.234 0 1 0-.234-.234.234.234 0 0 0 .234.234"/><path data-name="Path 134969" d="M204.179 375.092a.375.375 0 1 0-.375-.375.375.375 0 0 0 .375.375"/><path data-name="Path 134970" d="M186.524 375.103a1.311 1.311 0 1 0-1.311-1.311 1.311 1.311 0 0 0 1.311 1.311"/><path data-name="Path 134971" d="M169.062 372.431a1.405 1.405 0 1 0-1.405-1.405 1.405 1.405 0 0 0 1.405 1.405"/><path data-name="Path 134972" d="M151.982 368.699a2.248 2.248 0 1 0-2.248-2.248 2.248 2.248 0 0 0 2.248 2.248"/><path data-name="Path 134973" d="M135.481 362.317a2.2 2.2 0 1 0-2.2-2.2 2.2 2.2 0 0 0 2.2 2.2"/><path data-name="Path 134974" d="M119.728 354.244a2.154 2.154 0 1 0-2.154-2.154 2.154 2.154 0 0 0 2.154 2.154"/><path data-name="Path 134975" d="M104.903 344.242a1.78 1.78 0 1 0-1.78-1.779 1.779 1.779 0 0 0 1.78 1.779"/><path data-name="Path 134976" d="M91.162 332.739a1.405 1.405 0 1 0-1.405-1.405 1.405 1.405 0 0 0 1.405 1.405"/><path data-name="Path 134977" d="M78.662 320.332a1.5 1.5 0 1 0-1.5-1.5 1.5 1.5 0 0 0 1.5 1.5"/><path data-name="Path 134978" d="M67.536 306.593a1.5 1.5 0 1 0-1.5-1.5 1.5 1.5 0 0 0 1.5 1.5"/><path data-name="Path 134979" d="M57.907 291.531a1.265 1.265 0 1 0-1.264-1.264 1.264 1.264 0 0 0 1.264 1.264"/><path data-name="Path 134980" d="M49.881 276.014a1.5 1.5 0 1 0-1.5-1.5 1.5 1.5 0 0 0 1.5 1.5"/><path data-name="Path 134981" d="M43.545 260.024a2.014 2.014 0 1 0-2.014-2.014 2.014 2.014 0 0 0 2.014 2.014"/><path data-name="Path 134982" d="M38.97 242.994a2.061 2.061 0 1 0-2.061-2.061 2.061 2.061 0 0 0 2.061 2.061"/><path data-name="Path 134983" d="M36.205 226.095a2.623 2.623 0 1 0-2.623-2.623 2.623 2.623 0 0 0 2.623 2.623"/><path data-name="Path 134984" d="M35.279 208.674a2.857 2.857 0 1 0-2.857-2.857 2.857 2.857 0 0 0 2.857 2.857"/><path data-name="Path 134985" d="M36.205 191.159a3 3 0 1 0-3-3 3 3 0 0 0 3 3"/><path data-name="Path 134986" d="M38.97 173.839a3.138 3.138 0 1 0-3.138-3.138 3.138 3.138 0 0 0 3.138 3.138"/><path data-name="Path 134987" d="M43.545 155.497a1.873 1.873 0 1 0-1.873-1.873 1.874 1.874 0 0 0 1.873 1.873"/><path data-name="Path 134988" d="M49.881 140.866a3.747 3.747 0 1 0-3.747-3.747 3.747 3.747 0 0 0 3.747 3.747"/><path data-name="Path 134989" d="M57.907 123.756a2.388 2.388 0 1 0-2.389-2.388 2.388 2.388 0 0 0 2.389 2.388"/><path data-name="Path 134990" d="M67.536 111.598a5.058 5.058 0 1 0-5.058-5.058 5.058 5.058 0 0 0 5.058 5.058"/><path data-name="Path 134991" d="M78.661 95.002a2.2 2.2 0 1 0-2.2-2.2 2.2 2.2 0 0 0 2.2 2.2"/><path data-name="Path 134992" d="M91.163 84.562a4.262 4.262 0 1 0-4.262-4.261 4.261 4.261 0 0 0 4.262 4.261"/><path data-name="Path 134993" d="M104.902 74.185a5.011 5.011 0 1 0-5.011-5.011 5.011 5.011 0 0 0 5.011 5.011"/><path data-name="Path 134994" d="M119.729 64.182a4.637 4.637 0 1 0-4.637-4.637 4.637 4.637 0 0 0 4.637 4.637"/><path data-name="Path 134995" d="M135.481 56.577a5.058 5.058 0 1 0-5.058-5.058 5.058 5.058 0 0 0 5.058 5.058"/><path data-name="Path 134996" d="M151.986 48.93a3.747 3.747 0 1 0-3.747-3.747 3.747 3.747 0 0 0 3.747 3.747"/><path data-name="Path 134997" d="M169.063 44.214a3.606 3.606 0 1 0-3.607-3.606 3.606 3.606 0 0 0 3.607 3.606"/><path data-name="Path 134998" d="M186.524 41.305a3.466 3.466 0 1 0-3.466-3.466 3.466 3.466 0 0 0 3.466 3.466"/><path data-name="Path 134999" d="M204.179 40.148a3.232 3.232 0 1 0-3.232-3.232 3.232 3.232 0 0 0 3.232 3.232"/><path data-name="Path 135000" d="M221.834 40.699a2.857 2.857 0 1 0-2.857-2.857 2.857 2.857 0 0 0 2.857 2.857"/><path data-name="Path 135001" d="M239.295 42.481a1.873 1.873 0 1 0-1.873-1.873 1.874 1.874 0 0 0 1.873 1.873"/><path data-name="Path 135002" d="M256.372 46.074a.89.89 0 1 0-.89-.89.89.89 0 0 0 .89.89"/><path data-name="Path 135003" d="M272.878 54.516a3 3 0 1 0-3-3 3 3 0 0 0 3 3"/><path data-name="Path 135004" d="M288.629 60.295a.749.749 0 1 0-.749-.749.749.749 0 0 0 .749.749"/><path data-name="Path 135005" d="M303.455 70.673a1.5 1.5 0 1 0-1.5-1.5 1.5 1.5 0 0 0 1.5 1.5"/><path data-name="Path 135006" d="M317.195 81.799a1.5 1.5 0 1 0-1.5-1.5 1.5 1.5 0 0 0 1.5 1.5"/><path data-name="Path 135007" d="M329.697 94.581a1.78 1.78 0 1 0-1.78-1.78 1.779 1.779 0 0 0 1.78 1.78"/><path data-name="Path 135008" d="M340.822 107.711a1.171 1.171 0 1 0-1.171-1.171 1.171 1.171 0 0 0 1.171 1.171"/><path data-name="Path 135009" d="M350.451 124.224a2.857 2.857 0 1 0-2.857-2.857 2.857 2.857 0 0 0 2.857 2.857"/><path data-name="Path 135010" d="M358.478 138.899a1.78 1.78 0 1 0-1.78-1.78 1.779 1.779 0 0 0 1.78 1.78"/><path data-name="Path 135011" d="M364.813 155.825a2.2 2.2 0 1 0-2.2-2.2 2.2 2.2 0 0 0 2.2 2.2"/><path data-name="Path 135012" d="M369.388 171.918a1.218 1.218 0 1 0-1.217-1.217 1.218 1.218 0 0 0 1.217 1.217"/><path data-name="Path 135013" d="M372.154 189.384a1.218 1.218 0 1 0-1.218-1.217 1.218 1.218 0 0 0 1.218 1.217"/><path data-name="Path 135014" d="M389.128 223.714a.234.234 0 1 0-.234-.234.234.234 0 0 0 .234.234"/><path data-name="Path 135015" d="M382.444 258.628a.468.468 0 1 0-.468-.468.468.468 0 0 0 .468.468"/><path data-name="Path 135016" d="M376.661 275.196a.328.328 0 1 0-.328-.328.328.328 0 0 0 .328.328"/><path data-name="Path 135017" d="M369.316 290.998a.047.047 0 1 0-.047-.047.047.047 0 0 0 .047.047"/><path data-name="Path 135018" d="M360.476 306.637a.375.375 0 1 0-.375-.375.375.375 0 0 0 .375.375"/><path data-name="Path 135019" d="M350.22 321.039a.375.375 0 1 0-.375-.375.375.375 0 0 0 .375.375"/><path data-name="Path 135020" d="M338.642 334.401a.375.375 0 1 0-.375-.375.375.375 0 0 0 .375.375"/><path data-name="Path 135021" d="M325.846 346.415a.187.187 0 1 0-.187-.187.187.187 0 0 0 .187.187"/><path data-name="Path 135022" d="M311.948 357.204a.047.047 0 1 0-.047-.047.047.047 0 0 0 .047.047"/><path data-name="Path 135023" d="M281.359 374.865a.047.047 0 1 0-.047-.047.047.047 0 0 0 .047.047"/><path data-name="Path 135024" d="M264.945 382.044a.656.656 0 1 0-.656-.656.656.656 0 0 0 .656.656"/><path data-name="Path 135025" d="M247.981 387.166a.8.8 0 1 0-.8-.8.8.8 0 0 0 .8.8"/><path data-name="Path 135026" d="M230.62 390.044a.328.328 0 1 0-.328-.328.328.328 0 0 0 .328.328"/><path data-name="Path 135027" d="M213.019 391.444a.047.047 0 1 0-.047-.047.047.047 0 0 0 .047.047"/><path data-name="Path 135028" d="M195.339 391.631a.234.234 0 1 0-.234-.234.234.234 0 0 0 .234.234"/><path data-name="Path 135029" d="M177.739 389.763a.047.047 0 1 0-.047-.047.047.047 0 0 0 .047.047"/><path data-name="Path 135030" d="M160.377 386.56a.187.187 0 1 0-.187-.187.187.187 0 0 0 .187.187"/><path data-name="Path 135031" d="M143.413 381.482a.094.094 0 1 0-.094-.094.094.094 0 0 0 .094.094"/><path data-name="Path 135032" d="M111.284 367.606a.89.89 0 1 0-.89-.89.89.89 0 0 0 .89.89"/><path data-name="Path 135033" d="M96.41 357.63a.468.468 0 1 0-.468-.468.468.468 0 0 0 .468.468"/><path data-name="Path 135034" d="M82.512 347.68a1.452 1.452 0 1 0-1.452-1.452 1.452 1.452 0 0 0 1.452 1.452"/><path data-name="Path 135035" d="M69.716 335.291a1.265 1.265 0 1 0-1.264-1.264 1.264 1.264 0 0 0 1.264 1.264"/><path data-name="Path 135036" d="M58.138 320.993a.328.328 0 1 0-.328-.328.328.328 0 0 0 .328.328"/><path data-name="Path 135037" d="M47.884 307.199a.937.937 0 1 0-.936-.937.937.937 0 0 0 .936.937"/><path data-name="Path 135038" d="M39.042 291.7a.749.749 0 1 0-.749-.749.749.749 0 0 0 .749.749"/><path data-name="Path 135039" d="M31.697 276.082a1.218 1.218 0 1 0-1.217-1.218 1.218 1.218 0 0 0 1.217 1.218"/><path data-name="Path 135040" d="M25.914 258.675a.515.515 0 1 0-.515-.515.515.515 0 0 0 .515.515"/><path data-name="Path 135041" d="M21.746 241.587a.609.609 0 1 0-.609-.609.609.609 0 0 0 .609.609"/><path data-name="Path 135042" d="M19.226 224.789a1.311 1.311 0 1 0-1.311-1.311 1.311 1.311 0 0 0 1.311 1.311"/><path data-name="Path 135043" d="M18.39 207.316a1.5 1.5 0 1 0-1.5-1.5 1.5 1.5 0 0 0 1.5 1.5"/><path data-name="Path 135044" d="M19.23 189.796a1.639 1.639 0 1 0-1.639-1.639 1.639 1.639 0 0 0 1.639 1.639"/><path data-name="Path 135045" d="M21.746 172.342a1.686 1.686 0 1 0-1.686-1.686 1.686 1.686 0 0 0 1.686 1.686"/><path data-name="Path 135046" d="M25.915 153.521a.047.047 0 1 0-.047-.047.047.047 0 0 0 .047.047"/><path data-name="Path 135047" d="M31.698 139.061a2.295 2.295 0 1 0-2.295-2.3 2.3 2.3 0 0 0 2.295 2.3"/><path data-name="Path 135048" d="M39.042 122.697a2.014 2.014 0 1 0-2.014-2.014 2.014 2.014 0 0 0 2.014 2.014"/><path data-name="Path 135049" d="M47.882 108.978a3.606 3.606 0 1 0-3.606-3.606 3.606 3.606 0 0 0 3.606 3.606"/><path data-name="Path 135050" d="M58.138 91.016a.047.047 0 1 0-.047-.047.047.047 0 0 0 .047.047"/><path data-name="Path 135051" d="M69.716 78.59a.984.984 0 1 0-.983-.983.983.983 0 0 0 .983.983"/><path data-name="Path 135052" d="M82.512 66.858a1.452 1.452 0 1 0-1.452-1.452 1.452 1.452 0 0 0 1.452 1.452"/><path data-name="Path 135053" d="M96.41 55.929a1.452 1.452 0 1 0-1.452-1.452 1.452 1.452 0 0 0 1.452 1.452"/><path data-name="Path 135054" d="M111.28 47.119a2.2 2.2 0 1 0-2.2-2.2 2.2 2.2 0 0 0 2.2 2.2"/><path data-name="Path 135055" d="M126.999 38.549a1.733 1.733 0 1 0-1.729-1.733 1.733 1.733 0 0 0 1.733 1.733"/><path data-name="Path 135056" d="M143.414 31.931a1.686 1.686 0 1 0-1.687-1.686 1.686 1.686 0 0 0 1.687 1.686"/><path data-name="Path 135057" d="M160.376 28.121a2.857 2.857 0 1 0-2.857-2.857 2.857 2.857 0 0 0 2.857 2.857"/><path data-name="Path 135058" d="M177.739 25.105a3.185 3.185 0 1 0-3.185-3.185 3.185 3.185 0 0 0 3.185 3.185"/><path data-name="Path 135059" d="M195.338 22.72a2.482 2.482 0 1 0-2.482-2.482 2.482 2.482 0 0 0 2.482 2.482"/><path data-name="Path 135060" d="M213.021 23.187a2.951 2.951 0 1 0-2.951-2.951 2.951 2.951 0 0 0 2.951 2.951"/><path data-name="Path 135061" d="M230.619 24.072a2.154 2.154 0 1 0-2.154-2.154 2.154 2.154 0 0 0 2.154 2.154"/><path data-name="Path 135062" d="M247.981 26.997a1.733 1.733 0 1 0-1.733-1.733 1.733 1.733 0 0 0 1.733 1.733"/><path data-name="Path 135063" d="M264.945 30.763a.515.515 0 1 0-.515-.515.515.515 0 0 0 .515.515"/><path data-name="Path 135064" d="M281.359 36.957a.141.141 0 1 0-.14-.14.14.14 0 0 0 .14.14"/><path data-name="Path 135065" d="M297.074 45.48a.562.562 0 1 0-.558-.565.562.562 0 0 0 .562.562"/><path data-name="Path 135066" d="M311.948 54.851a.375.375 0 1 0-.375-.375.375.375 0 0 0 .375.375"/><path data-name="Path 135067" d="M325.846 65.594a.187.187 0 1 0-.187-.187.187.187 0 0 0 .187.187"/><path data-name="Path 135068" d="M369.316 120.729a.047.047 0 1 0-.047-.047.047.047 0 0 0 .047.047"/><path data-name="Path 135069" d="M376.661 137.559a.8.8 0 1 0-.8-.8.8.8 0 0 0 .8.8"/><path data-name="Path 135070" d="M382.444 154.361a.89.89 0 1 0-.89-.89.89.89 0 0 0 .89.89"/><path data-name="Path 135071" d="M386.612 170.937a.281.281 0 1 0-.281-.281.281.281 0 0 0 .281.281"/><path data-name="Path 135072" d="M389.128 188.203a.047.047 0 1 0-.047-.047.047.047 0 0 0 .047.047"/><path data-name="Path 135073" d="M347.496 349.18a.047.047 0 1 0-.047-.047.047.047 0 0 0 .047.047"/><path data-name="Path 135074" d="M334.46 361.126a.047.047 0 1 0-.047-.047.047.047 0 0 0 .047.047"/><path data-name="Path 135075" d="M256.639 401.685a.094.094 0 1 0-.094-.094.094.094 0 0 0 .094.094"/><path data-name="Path 135076" d="M151.722 401.638a.047.047 0 1 0-.047-.047.047.047 0 0 0 .047.047"/><path data-name="Path 135077" d="M102.838 381.484a.141.141 0 1 0-.14-.14.14.14 0 0 0 .14.14"/><path data-name="Path 135078" d="M48.917 336.425a.328.328 0 1 0-.328-.328.328.328 0 0 0 .328.328"/><path data-name="Path 135079" d="M13.722 275.185a.047.047 0 1 0-.047-.047.047.047 0 0 0 .047.047"/><path data-name="Path 135080" d="M8.405 258.789a.515.515 0 1 0-.515-.515.515.515 0 0 0 .515.515"/><path data-name="Path 135081" d="M4.578 241.621a.609.609 0 1 0-.609-.609.609.609 0 0 0 .609.609"/><path data-name="Path 135082" d="M2.27 224.794a1.311 1.311 0 1 0-1.311-1.311 1.311 1.311 0 0 0 1.311 1.311"/><path data-name="Path 135083" d="M1.5 207.316a1.5 1.5 0 1 0-1.5-1.5 1.5 1.5 0 0 0 1.5 1.5"/><path data-name="Path 135084" d="M2.27 189.792a1.639 1.639 0 1 0-1.639-1.639 1.639 1.639 0 0 0 1.639 1.639"/><path data-name="Path 135085" d="M4.577 172.308a1.686 1.686 0 1 0-1.686-1.686 1.686 1.686 0 0 0 1.686 1.686"/><path data-name="Path 135086" d="M8.405 153.406a.047.047 0 1 0-.047-.047.047.047 0 0 0 .047.047"/><path data-name="Path 135087" d="M13.722 137.105a.609.609 0 1 0-.609-.609.609.609 0 0 0 .609.609"/><path data-name="Path 135088" d="M48.917 75.584a.047.047 0 1 0-.047-.047.047.047 0 0 0 .047.047"/><path data-name="Path 135089" d="M73.898 51.398a.843.843 0 1 0-.843-.843.843.843 0 0 0 .843.843"/><path data-name="Path 135090" d="M87.926 39.931a.141.141 0 1 0-.14-.14.14.14 0 0 0 .14.14"/><path data-name="Path 135091" d="M118.522 22.641a.515.515 0 1 0-.515-.515.515.515 0 0 0 .515.515"/><path data-name="Path 135092" d="M134.858 17.046a1.686 1.686 0 1 0-1.686-1.686 1.686 1.686 0 0 0 1.686 1.686"/><path data-name="Path 135093" d="M151.722 12.9a2.857 2.857 0 1 0-2.857-2.857 2.857 2.857 0 0 0 2.857 2.857"/><path data-name="Path 135094" d="M168.984 9.4a3.185 3.185 0 1 0-3.185-3.185 3.185 3.185 0 0 0 3.185 3.185"/><path data-name="Path 135095" d="M186.514 6.387a2.482 2.482 0 1 0-2.482-2.482 2.482 2.482 0 0 0 2.482 2.482"/><path data-name="Path 135096" d="M204.179 6.089a2.95 2.95 0 1 0-2.951-2.95 2.95 2.95 0 0 0 2.951 2.95"/><path data-name="Path 135097" d="M221.844 6.062a2.154 2.154 0 1 0-2.154-2.154 2.154 2.154 0 0 0 2.154 2.154"/><path data-name="Path 135098" d="M239.374 7.949a1.733 1.733 0 1 0-1.733-1.733 1.733 1.733 0 0 0 1.733 1.733"/><path data-name="Path 135099" d="M256.636 10.557a.515.515 0 1 0-.515-.515.515.515 0 0 0 .515.515"/><path data-name="Path 135100" d="M334.459 50.742a.187.187 0 1 0-.187-.187.187.187 0 0 0 .187.187"/><path data-name="Path 135101" d="M399.953 153.406a.047.047 0 1 0-.047-.047.047.047 0 0 0 .047.047"/><path data-name="Path 135102" d="M126.318 1.03a.515.515 0 1 0-.515-.515.515.515 0 0 0 .515.515"/></g></g></g></svg>