<svg xmlns="http://www.w3.org/2000/svg" width="24" height="24"><defs><clipPath id="a"><path data-name="Rectangle 152610" fill="#232323" d="M0 0h24v24H0z"/></clipPath></defs><g data-name="Group 179036" clip-path="url(#a)" fill="#232323"><path data-name="Path 130795" d="M7.061 12.609a1.846 1.846 0 0 1-.831-3.5l9.9-4.948a1.847 1.847 0 1 1 1.653 3.3l-9.898 4.954a1.844 1.844 0 0 1-.822.194Z"/><path data-name="Path 130796" d="M16.948 20.031a1.85 1.85 0 0 1-.822-.194l-9.9-4.948a1.847 1.847 0 0 1 1.652-3.3l9.9 4.948a1.846 1.846 0 0 1-.831 3.5Z"/><path data-name="Path 130797" d="M4.616 16.615a4.615 4.615 0 1 1 3.263-1.352 4.615 4.615 0 0 1-3.263 1.352m0-5.538a.923.923 0 1 0 .653.27.924.924 0 0 0-.653-.27Z"/><path data-name="Path 130798" d="M19.384 9.231a4.615 4.615 0 1 1 3.264-1.352 4.614 4.614 0 0 1-3.264 1.352m0-5.538a.923.923 0 1 0 .653.27.923.923 0 0 0-.653-.271Z"/><path data-name="Path 130799" d="M19.384 23.999a4.615 4.615 0 1 1 3.264-1.352 4.615 4.615 0 0 1-3.264 1.352m0-5.538a.923.923 0 1 0 .653.27.923.923 0 0 0-.653-.27Z"/></g></svg>