<svg id="diamond" xmlns="http://www.w3.org/2000/svg" width="122.438" height="106.111" viewBox="0 0 122.438 106.111">
  <g id="Gruppe_6369" data-name="Gruppe 6369" transform="translate(0 0.002)">
    <g id="Gruppe_6368" data-name="Gruppe 6368">
      <path id="Pfad_64456" data-name="Pfad 64456" d="M121.963,59.366,101.557,34.878a2.044,2.044,0,0,0-1.567-.732H22.447a2.038,2.038,0,0,0-1.567.732L.474,59.366a2.039,2.039,0,0,0,1.567,3.346H120.4a2.04,2.04,0,0,0,1.568-3.346ZM6.4,58.631l17-20.406H99.033l17,20.406Z" transform="translate(0.001 -34.146)" fill="#212121"/>
    </g>
  </g>
  <g id="Gruppe_6371" data-name="Gruppe 6371" transform="translate(20.408 0)">
    <g id="Gruppe_6370" data-name="Gruppe 6370">
      <path id="Pfad_64457" data-name="Pfad 64457" d="M128.041,35.4a2.041,2.041,0,0,0-1.886-1.259H87.384a2.041,2.041,0,0,0-1.763,3.069L99.906,61.693a2.043,2.043,0,0,0,1.5,1,2.256,2.256,0,0,0,.261.016,2.042,2.042,0,0,0,1.445-.6L127.6,37.62A2.04,2.04,0,0,0,128.041,35.4ZM102.1,57.351,90.935,38.218h30.293Z" transform="translate(-85.343 -34.137)" fill="#212121"/>
    </g>
  </g>
  <g id="Gruppe_6373" data-name="Gruppe 6373" transform="translate(0.001 24.485)">
    <g id="Gruppe_6372" data-name="Gruppe 6372">
      <path id="Pfad_64458" data-name="Pfad 64458" d="M122.225,137.665a2.039,2.039,0,0,0-1.828-1.137H2.042a2.04,2.04,0,0,0-1.62,3.279L59.6,217.35a2.035,2.035,0,0,0,3.24,0l59.177-77.543A2.042,2.042,0,0,0,122.225,137.665Zm-61,75.086L6.168,140.611H116.274Z" transform="translate(-0.002 -136.528)" fill="#212121"/>
    </g>
  </g>
  <g id="Gruppe_6375" data-name="Gruppe 6375" transform="translate(0.003 24.485)">
    <g id="Gruppe_6374" data-name="Gruppe 6374">
      <path id="Pfad_64459" data-name="Pfad 64459" d="M63.174,215.5,38.687,137.954a2.042,2.042,0,0,0-1.947-1.426H2.05a2.04,2.04,0,0,0-1.62,3.279L59.607,217.35a2.037,2.037,0,0,0,1.622.8,1.984,1.984,0,0,0,.939-.233A2.04,2.04,0,0,0,63.174,215.5Zm-57-74.886h29.07l20.52,64.981Z" transform="translate(-0.01 -136.528)" fill="#212121"/>
    </g>
  </g>
  <g id="Gruppe_6377" data-name="Gruppe 6377" transform="translate(59.178 0)">
    <g id="Gruppe_6376" data-name="Gruppe 6376">
      <path id="Pfad_64460" data-name="Pfad 64460" d="M290.051,35.161a2.037,2.037,0,0,0-1.769-1.024H249.511a2.04,2.04,0,0,0-1.443,3.483l24.487,24.487a2.033,2.033,0,0,0,1.443.6,2.316,2.316,0,0,0,.263-.016,2.04,2.04,0,0,0,1.5-1l14.284-24.487A2.044,2.044,0,0,0,290.051,35.161ZM273.569,57.351,254.437,38.218h30.293Z" transform="translate(-247.47 -34.137)" fill="#212121"/>
    </g>
  </g>
  <g id="Gruppe_6379" data-name="Gruppe 6379" transform="translate(59.18 24.489)">
    <g id="Gruppe_6378" data-name="Gruppe 6378">
      <path id="Pfad_64461" data-name="Pfad 64461" d="M310.523,137.683a2.039,2.039,0,0,0-1.828-1.137H274a2.04,2.04,0,0,0-1.947,1.426l-24.487,77.543a2.041,2.041,0,0,0,3.567,1.853l59.177-77.543A2.042,2.042,0,0,0,310.523,137.683Zm-55.545,67.923,20.52-64.981h29.07Z" transform="translate(-247.476 -136.546)" fill="#212121"/>
    </g>
  </g>
</svg>
