<svg xmlns="http://www.w3.org/2000/svg" width="50.8" height="30.616" viewBox="0 0 50.8 30.616">
  <g id="Group_6381" data-name="Group 6381" transform="translate(0 0)">
    <g id="Group_6380" data-name="Group 6380" transform="translate(0 1.109)">
      <path id="Path_64475" data-name="Path 64475" d="M1975.594,633.493,1957.2,646.28a1.41,1.41,0,0,1-2.215-1.158V619.549a1.41,1.41,0,0,1,2.215-1.158l18.395,12.787A1.41,1.41,0,0,1,1975.594,633.493Z" transform="translate(-1930.803 -618.136)" fill="#dbb65f"/>
      <path id="Path_64476" data-name="Path 64476" d="M1886.821,633.493l-18.395,12.787a1.41,1.41,0,0,1-2.215-1.158V619.549a1.41,1.41,0,0,1,2.215-1.158l18.395,12.787A1.41,1.41,0,0,1,1886.821,633.493Z" transform="translate(-1866.211 -618.136)" fill="#dbb65f"/>
    </g>
    <path id="Path_64477" data-name="Path 64477" d="M2040.751,644.681a1.885,1.885,0,0,1-1.885-1.885V615.95a1.885,1.885,0,1,1,3.77,0V642.8A1.885,1.885,0,0,1,2040.751,644.681Z" transform="translate(-1991.836 -614.065)" fill="#dbb65f"/>
  </g>
</svg>
