<svg xmlns="http://www.w3.org/2000/svg" width="56.302" height="33.425" viewBox="0 0 56.302 33.425">
  <path id="Path_64478" data-name="Path 64478" d="M158.3,1160.822a28,28,0,0,0-4.236-10.067,28.233,28.233,0,0,0-12.385-10.2,28.014,28.014,0,0,0-5.285-1.64,28.41,28.41,0,0,0-11.346,0,27.992,27.992,0,0,0-10.067,4.236,28.231,28.231,0,0,0-10.2,12.385,28.011,28.011,0,0,0-1.641,5.285,28.354,28.354,0,0,0-.572,5.673v1.086a28.454,28.454,0,0,0,.31,4.188h55.682a28.46,28.46,0,0,0,.31-4.188v-1.086A28.354,28.354,0,0,0,158.3,1160.822Zm-27.684-19.71A26.077,26.077,0,0,1,143.8,1144.8l-2.541,2.858a22.631,22.631,0,0,0-7.232-3.131,23.133,23.133,0,0,0-3.415-.547Zm-24.947,21.175a24.613,24.613,0,0,0-.639,4.751,24.64,24.64,0,0,1,1.225-8.621l.552.307A24.114,24.114,0,0,0,105.664,1162.287Zm7.035-12.1a24.029,24.029,0,0,0-5.394,7.386l-.629-.349a24.9,24.9,0,0,1,2.046-4.1,25.273,25.273,0,0,1,6.3-6.9l.84,1.485A23.88,23.88,0,0,0,112.7,1150.192Zm4.228-3.132-.881-1.558a25.414,25.414,0,0,1,8.479-3.71,26,26,0,0,1,4.841-.658v2.77a23.295,23.295,0,0,0-12.439,3.156ZM148.7,1159l-16.51,7.8a4.388,4.388,0,1,1-1.444-4.249l17.808-3.972a.226.226,0,0,1,.145.422Zm-.645-4.327a22.482,22.482,0,0,0-5.771-6.3l2.583-2.905a26.768,26.768,0,0,1,9.207,10.455l-4.43,1.871A22.138,22.138,0,0,0,148.056,1154.673Zm3.227,12.365a22.018,22.018,0,0,0-.245-4.278,21.8,21.8,0,0,0-.951-3.8l4.513-1.906a26.872,26.872,0,0,1,1.556,4.7,27.418,27.418,0,0,1,.692,5.291Z" transform="translate(-102.565 -1138.344)" fill="#dbb65f"/>
</svg>
