<svg xmlns="http://www.w3.org/2000/svg" width="98.958" height="152.434" viewBox="0 0 98.958 152.434">
  <path id="Pfad_64479" data-name="Pfad 64479" d="M286.806,413.849c-3.6-.436-7.208-.768-10.824-1.02-29.117-1.808-58.777,5.483-49.123,55.563-18.886-17.876-24.775-36.959-14.013-62.191l2.534-5.365c5.942-11.51,13.544-20.5,15.495-31.65-6.807,7.13-20.761-1.405-23.663,8.393-3.479,5.423-5.891,2.968-11.558,1.395h0c.415-3.007,4.832-4.325,7.035-5.629-.024-.152-.109-.308-.612-.514-4.315.308-5.423,4.115-9.63,4.19-1.743-.729-1.884-2.209-3.682-2.8-1.347-3.437,1.027-3.714-.916-6.583.592-.674,2.132-1.333,2.689-1.95,12.952-14.354,16.3-15.676,18.434-18.25.711-.857-1.234-2.364-.486-4.549l7-4.79c-3.04-3.195-7.963-2.681-12.962-4.262,9.988-1.517,19.793-4.849,30.3-1.094-2.249-7.305-3.363-13.389-1.986-16.786a46.532,46.532,0,0,0,12.956,14.493l.313-.773a46.443,46.443,0,0,1,7.3,1.966l-.578,9.336,4.337-7.8a49.311,49.311,0,0,1,6.254,3.445h0l.105.069h0l.1.067h0c.175.116.35.23.523.348l-2.346,8.22,0,0v0l5.332-6.041a52.57,52.57,0,0,1,6.1,5.64l-4.089,7,.006,0,0,.006,6.389-4.342a55.766,55.766,0,0,1,4.774,6.889l-5.773,5.749.011,0-.006.006,7.478-2.629a58.46,58.46,0,0,1,3.193,7.569l-7.464,4.553h.014l-.011.006,8.586-.883a60.09,60.09,0,0,1,1.553,7.677l-8.588,3.172.059.286,8.961.822c.087,1.35.136,2.712.136,4.085,0,1.076-.03,2.143-.084,3.2l-.068.014v.009l-7.339,1.5q.113.828.221,1.678l6.741,1.674a60.611,60.611,0,0,1-1.211,6.485l-.086.008v.01l-7.09.6c-.189.335-.365.667-.523.99l6.111,3.789c-.331.959-.692,1.91-1.075,2.849a23.151,23.151,0,0,1,4.75,6.153ZM252.8,355.467a59.623,59.623,0,0,1,9.151,12.223c4.275,16.279-5.141,23.393-11.234,29.621-11.959,12.224-26.3,24.677-33.79,40.049-7.613-30.861,10.781-32.832,19.51-72.329,21.893-16.352-3.752,42.713-8.4,52.091,7.691-11.774,24.218-42.329,24.766-61.655Zm-59.388,12.806c-1.571-1.672-1.919-.443-2.239,1.954,1.86-.417,3.554-.554,2.239-1.954Zm47.753-20.339a12.977,12.977,0,0,1,2.7,8.2l-4.556,5.476c2.428-4.286,3.563-8.768,1.859-13.679ZM235.458,330c-2,1.058-.726.775-1.308,2.928-2.121-2.581-3.676-13.433-3.077-14.87,1.219,2.577,2.157,9.636,4.386,11.942Zm-17.383,8.913a69.732,69.732,0,0,1,23.323-1.873c-7.547.535-9.366,2.7-10.364,5.091a8.642,8.642,0,0,1,3.409,6.693l-6.375,4.606,1.541,5.317h-3.152l-7.765,4.151c4.477,3.011,1.141,4.284,1.711,6.426-4.2.738-8.49-1.623-10.183.568.045-3.249.209-2.034-3.695-4.73l-.744-.171c-.6-4.224,4-7.591,8.34-13.464l-2.485-2.769,2.34-4.221,2.663-1.972,1.438-3.651Z" transform="translate(-187.848 -315.957)" fill="#212121" fill-rule="evenodd"/>
</svg>
