<svg xmlns="http://www.w3.org/2000/svg" width="37.785" height="53.091" viewBox="0 0 37.785 53.091">
  <path id="Path_64474" data-name="Path 64474" d="M126,39.722a19.857,19.857,0,0,0-6.31-13.447c-.3-.277-.6-.535-.893-.777,0-9.706-3.094-16.092-5.689-19.74A20.587,20.587,0,0,0,107.358.065a.492.492,0,0,0-.492,0,20.593,20.593,0,0,0-5.753,5.693c-2.595,3.648-5.688,10.034-5.689,19.74-.294.242-.593.5-.893.777a19.858,19.858,0,0,0-6.31,13.447.795.795,0,0,0,.793.853H99a10.9,10.9,0,0,0,1.734,2.54.491.491,0,0,0,.35.146h.244c.367,5.226,4.536,9.231,4.721,9.406a1.547,1.547,0,0,0,2.126,0c.186-.175,4.354-4.18,4.721-9.406h.244a.491.491,0,0,0,.35-.146,10.887,10.887,0,0,0,1.734-2.541h9.986a.795.795,0,0,0,.793-.853ZM107.112,13.6a4.361,4.361,0,1,1-4.361,4.361A4.361,4.361,0,0,1,107.112,13.6Zm0,35.613a12.05,12.05,0,0,1-2.682-5.954h5.363A12.053,12.053,0,0,1,107.112,49.216Z" transform="translate(-88.219 0.001)" fill="#dbb65f"/>
</svg>
