<svg id="sound-waves" xmlns="http://www.w3.org/2000/svg" width="134.034" height="97.948" viewBox="0 0 134.034 97.948">
  <path id="Pfad_64462" data-name="Pfad 64462" d="M2.578,102.9A2.577,2.577,0,0,0,0,105.472v12.888a2.577,2.577,0,1,0,5.155,0V105.472A2.576,2.576,0,0,0,2.578,102.9Zm0,0" transform="translate(0 -64.231)" fill="#212121"/>
  <path id="Pfad_64463" data-name="Pfad 64463" d="M36.734,74.941a2.579,2.579,0,0,0-2.578,2.578v35.686a2.578,2.578,0,0,0,5.156,0V77.52A2.579,2.579,0,0,0,36.734,74.941Zm0,0" transform="translate(-21.26 -46.831)" fill="#212121"/>
  <path id="Pfad_64464" data-name="Pfad 64464" d="M70.844,27.8a2.578,2.578,0,0,0-2.578,2.577V102.55a2.578,2.578,0,0,0,5.156,0V30.377A2.578,2.578,0,0,0,70.844,27.8Zm0,0" transform="translate(-42.49 -17.49)" fill="#212121"/>
  <path id="Pfad_64465" data-name="Pfad 64465" d="M104.977,61.934a2.578,2.578,0,0,0-2.578,2.578v43.818a2.578,2.578,0,1,0,5.156,0V64.512a2.578,2.578,0,0,0-2.578-2.578Zm0,0" transform="translate(-63.736 -38.735)" fill="#212121"/>
  <path id="Pfad_64466" data-name="Pfad 64466" d="M208.045,45.406a2.577,2.577,0,0,0-2.577,2.578v57.991a2.577,2.577,0,0,0,5.155,0V47.984A2.578,2.578,0,0,0,208.045,45.406Zm0,0" transform="translate(-127.889 -28.448)" fill="#212121"/>
  <path id="Pfad_64467" data-name="Pfad 64467" d="M275.645,55.106a2.579,2.579,0,0,0-2.578,2.578v51.55a2.577,2.577,0,1,0,5.155,0V57.684A2.578,2.578,0,0,0,275.645,55.106Zm0,0" transform="translate(-169.964 -34.485)" fill="#212121"/>
  <path id="Pfad_64468" data-name="Pfad 64468" d="M309.777,89.238a2.579,2.579,0,0,0-2.578,2.578v25.775a2.577,2.577,0,1,0,5.155,0V91.816A2.578,2.578,0,0,0,309.777,89.238Zm0,0" transform="translate(-191.209 -55.73)" fill="#212121"/>
  <path id="Pfad_64469" data-name="Pfad 64469" d="M241.512.492a2.578,2.578,0,0,0-2.578,2.578V95.862a2.577,2.577,0,1,0,5.155,0V3.07A2.578,2.578,0,0,0,241.512.492Zm0,0" transform="translate(-148.719 -0.492)" fill="#212121"/>
  <path id="Pfad_64470" data-name="Pfad 64470" d="M139.111,109.719a2.578,2.578,0,0,0-2.577,2.578v10.309a2.577,2.577,0,1,0,5.155,0V112.3A2.579,2.579,0,0,0,139.111,109.719Zm0,0" transform="translate(-84.983 -68.478)" fill="#212121"/>
  <path id="Pfad_64471" data-name="Pfad 64471" d="M343.91,107.434a2.578,2.578,0,0,0-2.578,2.577v11.153a2.578,2.578,0,1,0,5.156,0V110.011A2.578,2.578,0,0,0,343.91,107.434Zm0,0" transform="translate(-212.455 -67.056)" fill="#212121"/>
  <path id="Pfad_64472" data-name="Pfad 64472" d="M172.6,94.418a2.577,2.577,0,0,0-2.578,2.577v20.982a2.577,2.577,0,1,0,5.155,0V96.995A2.576,2.576,0,0,0,172.6,94.418Zm0,0" transform="translate(-105.828 -58.954)" fill="#212121"/>
</svg>
