<svg xmlns="http://www.w3.org/2000/svg" width="35.437" height="21.262" viewBox="0 0 35.437 21.262">
  <path id="graduation-cap" d="M34.464,68.937,19.019,64.191a4.423,4.423,0,0,0-2.591,0L.983,68.937a1.3,1.3,0,0,0,0,2.524l2.693.827a4.363,4.363,0,0,0-.99,2.6,1.709,1.709,0,0,0-.141,2.936L1.13,84.182a.886.886,0,0,0,.864,1.078H5.1a.886.886,0,0,0,.865-1.078L4.553,77.821a1.7,1.7,0,0,0-.1-2.908A2.612,2.612,0,0,1,5.6,72.88l10.829,3.327a4.428,4.428,0,0,0,2.591,0l15.445-4.745A1.3,1.3,0,0,0,34.464,68.937ZM19.539,77.9a6.2,6.2,0,0,1-3.632,0l-8.03-2.467-.785,6.282c0,1.957,4.76,3.544,10.631,3.544s10.631-1.586,10.631-3.544l-.785-6.283Z" transform="translate(-0.005 -63.998)" fill="#00abcd"/>
</svg>
