<svg xmlns="http://www.w3.org/2000/svg" width="16.001" height="21.335" viewBox="0 0 16.001 21.335">
  <path id="hourglass" d="M15.334,2H15.5a.5.5,0,0,0,.5-.5V.5a.5.5,0,0,0-.5-.5H.5A.5.5,0,0,0,0,.5v1A.5.5,0,0,0,.5,2H.667c0,3.357,1.341,6.909,4.049,8.667C2,12.433.667,16,.667,19.334H.5a.5.5,0,0,0-.5.5v1a.5.5,0,0,0,.5.5h15a.5.5,0,0,0,.5-.5v-1a.5.5,0,0,0-.5-.5h-.167c0-3.357-1.341-6.909-4.049-8.667C14.005,8.9,15.334,5.338,15.334,2ZM2.667,2H13.334c0,4.234-2.388,7.667-5.334,7.667S2.667,6.235,2.667,2ZM13.334,19.334H2.667c0-4.234,2.388-7.667,5.334-7.667S13.334,15.1,13.334,19.334Z" fill="#00abcd"/>
</svg>
