<svg xmlns="http://www.w3.org/2000/svg" width="95.252" height="75.881" viewBox="0 0 95.252 75.881">
  <g id="Group_6573" data-name="Group 6573" transform="translate(-228 -145.276)">
    <path id="Path_64496" data-name="Path 64496" d="M317.274,192.121V166.64l1.058-.318c4.067-1.22,4.92-3.286,4.92-4.805s-.854-3.584-4.92-4.8l-34.8-10.44a31.868,31.868,0,0,0-15.817,0l-34.8,10.44c-4.067,1.22-4.92,3.286-4.92,4.805s.854,3.584,4.92,4.805l13.014,3.9v13.709c0,2.611,1.7,6.292,9.787,8.988a72.916,72.916,0,0,0,39.809,0c8.089-2.7,9.787-6.377,9.787-8.988V170.227l6.375-1.913v23.807a8.783,8.783,0,0,0-5.977,8.311v11.956a8.769,8.769,0,1,0,17.537,0V200.432a8.782,8.782,0,0,0-5.979-8.311Zm-47.953-40.5a26.482,26.482,0,0,1,12.61,0l32.994,9.9-13.214,3.964-.022.007-19.758,5.927a26.482,26.482,0,0,1-12.61,0l-19.757-5.927-.023-.007-13.213-3.964Zm30.415,32.316c0,.36-1.014,2.041-5.971,3.693a67.49,67.49,0,0,1-36.28,0c-4.957-1.652-5.971-3.333-5.971-3.693V171.9l16.2,4.86a31.868,31.868,0,0,0,15.817,0l16.2-4.86Zm17.934,28.453a3.187,3.187,0,1,1-6.375,0V200.432a3.187,3.187,0,1,1,6.375,0Zm0,0" fill="#00abcd"/>
  </g>
</svg>
