<svg xmlns="http://www.w3.org/2000/svg" width="80.629" height="80.628" viewBox="0 0 80.629 80.628">
  <g id="Group_6574" data-name="Group 6574" transform="translate(-1072.901 -902.9)">
    <g id="clock_icon_black" data-name="clock icon_black" transform="translate(1072.901 902.901)">
      <g id="Group_133" data-name="Group 133" transform="translate(0)">
        <path id="Path_1444" data-name="Path 1444" d="M213.883,158.194a2.921,2.921,0,0,0-4.506-.445,2.888,2.888,0,0,0-.393,3.615,34.154,34.154,0,0,1,5.486,21.341,34.484,34.484,0,1,1-38.07-36.9,34.2,34.2,0,0,1,22.412,5.389,2.892,2.892,0,0,0,3.619-.393,2.923,2.923,0,0,0-.448-4.506,40.411,40.411,0,1,0,11.9,11.9Z" transform="translate(-139.773 -139.774)" fill="#00abcd"/>
        <path id="Path_1445" data-name="Path 1445" d="M156.117,171.209h0V149.375a2.917,2.917,0,0,0-5.834,0v24.75a2.917,2.917,0,0,0,2.916,2.919h24.75a2.917,2.917,0,0,0,0-5.834Z" transform="translate(-116.388 -124.897)" fill="#00abcd"/>
      </g>
    </g>
  </g>
</svg>
