<svg xmlns="http://www.w3.org/2000/svg" width="83.958" height="79.515" viewBox="0 0 83.958 79.515">
  <path id="Path_64497" data-name="Path 64497" d="M151.744,118.249h0L139.7,88.27h5.5a1.784,1.784,0,1,0,0-3.569H111.612V79.544a1.784,1.784,0,1,0-3.569,0v5.139H74.478a1.784,1.784,0,1,0,0,3.569h5.728L68.143,118.213h0a1.784,1.784,0,0,0-.143.66,14.838,14.838,0,1,0,29.675,0,1.784,1.784,0,0,0-.143-.66h0L85.488,88.235h22.555V143.41c-8.512.642-15.168,5.817-15.168,12.081a1.785,1.785,0,0,0,1.784,1.784H125a1.785,1.785,0,0,0,1.784-1.784c0-6.263-6.656-11.438-15.168-12.081V88.235H134.4l-11.974,29.979h0a1.785,1.785,0,0,0-.143.66,14.838,14.838,0,1,0,29.675,0,1.785,1.785,0,0,0-.143-.66Zm-68.915,11.92a11.278,11.278,0,0,1-11.117-9.475H93.874A11.278,11.278,0,0,1,82.829,130.169Zm10.4-13.044H72.461l10.4-25.892Zm29.658,36.581H96.747c1.32-3.837,6.763-6.8,13.062-6.8s11.76,2.962,13.08,6.8ZM137.04,91.25l10.368,25.874H126.637Zm0,38.937a11.278,11.278,0,0,1-11.046-9.493h22.163a11.278,11.278,0,0,1-11.117,9.475Z" transform="translate(-68 -77.76)" fill="#00abcd"/>
</svg>
