<svg xmlns="http://www.w3.org/2000/svg" xmlns:xlink="http://www.w3.org/1999/xlink" width="86" height="74" viewBox="0 0 86 74">
  <defs>
    <clipPath id="clip-path">
      <rect id="Rectangle_3239" data-name="Rectangle 3239" width="86" height="74" transform="translate(0.232 -0.477)" fill="#00abcd"/>
    </clipPath>
  </defs>
  <g id="Group_6578" data-name="Group 6578" transform="translate(-228.535 -135.295)">
    <g id="Group_6577" data-name="Group 6577" transform="translate(228.303 135.771)">
      <g id="Group_6576" data-name="Group 6576" transform="translate(0 0)" clip-path="url(#clip-path)">
        <path id="Path_64498" data-name="Path 64498" d="M229.891,202.879a1.7,1.7,0,1,0,.648-2.075,1.711,1.711,0,0,0-.648,2.075Zm0,0" transform="translate(-229.591 -186.135)" fill="#00abcd"/>
        <path id="Path_64499" data-name="Path 64499" d="M298.458,165.9c.166-.429.32-.856.459-1.281a24.29,24.29,0,0,0,1.171-8.885,21.572,21.572,0,0,0-20.44-19.812c-7.119,0-12.683,3.974-15.367,6.344a.523.523,0,0,1-.691.008c-2.781-2.372-8.468-6.352-15.31-6.352-5.654,0-11.673,3.05-15.707,7.96a1.7,1.7,0,1,0,2.623,2.156c3.407-4.145,8.42-6.72,13.084-6.72,5.753,0,10.68,3.471,13.106,5.54a3.942,3.942,0,0,0,5.143-.047c2.323-2.051,7.117-5.493,13.119-5.493,7.673,0,16.595,7.09,17.05,16.58a20.993,20.993,0,0,1-1.006,7.665c-.191.583-.406,1.156-.651,1.736q-1.022-.1-2.071-.1a22.052,22.052,0,0,0-21.945,22.109q0,.865.065,1.713c-1.679,1.369-3.044,2.491-4.185,3.455a4.584,4.584,0,0,1-5.943,0c-1.54-1.305-3.544-2.937-5.664-4.665-7.653-6.236-18.134-14.777-20.657-19.064a23.665,23.665,0,0,1-3.119-8.033c-.054-.308-.1-.621-.142-.93a1.7,1.7,0,1,0-3.367.438c.047.36.1.724.165,1.082a26.928,26.928,0,0,0,3.537,9.166c2.832,4.812,13.149,13.219,21.439,19.974,2.107,1.717,4.1,3.339,5.613,4.623a7.97,7.97,0,0,0,10.331,0c.762-.646,1.631-1.364,2.632-2.186A21.97,21.97,0,1,0,298.458,165.9Zm-5.489,40.123a18.714,18.714,0,1,1,18.549-18.714,18.653,18.653,0,0,1-18.549,18.714Zm0,0" transform="translate(-228.225 -136.144)" fill="#00abcd"/>
      </g>
    </g>
    <path id="Path_64500" data-name="Path 64500" d="M482.534,316.179H480.2V313.81a3.773,3.773,0,0,0-3.76-3.776h-4.076a3.773,3.773,0,0,0-3.76,3.776v2.369h-2.332a3.773,3.773,0,0,0-3.76,3.777v4.112a3.773,3.773,0,0,0,3.76,3.777H468.6v2.369a3.773,3.773,0,0,0,3.76,3.776h4.076a3.773,3.773,0,0,0,3.76-3.776v-2.369h2.333a3.772,3.772,0,0,0,3.759-3.777v-4.112a3.773,3.773,0,0,0-3.759-3.777Zm.364,7.889a.373.373,0,0,1-.364.381H478.5a1.7,1.7,0,0,0-1.7,1.7v4.066a.374.374,0,0,1-.365.382h-4.076a.373.373,0,0,1-.364-.382v-4.066a1.7,1.7,0,0,0-1.7-1.7h-4.031a.373.373,0,0,1-.365-.381v-4.112a.374.374,0,0,1,.365-.382H470.3a1.7,1.7,0,0,0,1.7-1.7V313.81a.373.373,0,0,1,.364-.381h4.076a.373.373,0,0,1,.365.381v4.066a1.7,1.7,0,0,0,1.7,1.7h4.031a.374.374,0,0,1,.364.382Zm0,0" transform="translate(-181.355 -135.077)" fill="#00abcd"/>
  </g>
</svg>
