<svg xmlns="http://www.w3.org/2000/svg" xmlns:xlink="http://www.w3.org/1999/xlink" width="248.012" height="1115.001" viewBox="0 0 248.012 1115.001">
  <defs>
    <clipPath id="clip-path">
      <rect id="Rectangle_3397" data-name="Rectangle 3397" width="54.893" height="150.956" fill="#fff"/>
    </clipPath>
  </defs>
  <g id="Group_6890" data-name="Group 6890" transform="translate(-1470.988 -3465.999)" opacity="0.3">
    <g id="Group_6741" data-name="Group 6741" transform="translate(-149.012 -2208.166)" opacity="0.5">
      <g id="Group_6737" data-name="Group 6737" transform="translate(1684.42 5674.165)">
        <g id="Group_6736" data-name="Group 6736" clip-path="url(#clip-path)">
          <path id="Path_64626" data-name="Path 64626" d="M11.436,22.872A11.436,11.436,0,1,0,0,11.436,11.436,11.436,0,0,0,11.436,22.872" fill="#fff"/>
          <path id="Path_64627" data-name="Path 64627" d="M57.619,22.872A11.436,11.436,0,1,0,46.184,11.436,11.435,11.435,0,0,0,57.619,22.872" transform="translate(-14.162)" fill="#fff"/>
          <path id="Path_64628" data-name="Path 64628" d="M11.436,69.054A11.436,11.436,0,1,0,0,57.618,11.436,11.436,0,0,0,11.436,69.054" transform="translate(0 -14.161)" fill="#fff"/>
          <path id="Path_64629" data-name="Path 64629" d="M57.619,69.054A11.436,11.436,0,1,0,46.184,57.618,11.435,11.435,0,0,0,57.619,69.054" transform="translate(-14.162 -14.161)" fill="#fff"/>
          <path id="Path_64630" data-name="Path 64630" d="M11.436,115.237A11.436,11.436,0,1,0,0,103.8a11.437,11.437,0,0,0,11.436,11.436" transform="translate(0 -28.322)" fill="#fff"/>
          <path id="Path_64631" data-name="Path 64631" d="M57.619,115.237A11.436,11.436,0,1,0,46.184,103.8a11.436,11.436,0,0,0,11.435,11.436" transform="translate(-14.162 -28.322)" fill="#fff"/>
          <path id="Path_64632" data-name="Path 64632" d="M11.436,161.419A11.436,11.436,0,1,0,0,149.983a11.436,11.436,0,0,0,11.436,11.436" transform="translate(0 -42.484)" fill="#fff"/>
          <path id="Path_64633" data-name="Path 64633" d="M57.619,161.419a11.436,11.436,0,1,0-11.435-11.436,11.436,11.436,0,0,0,11.435,11.436" transform="translate(-14.162 -42.484)" fill="#fff"/>
          <path id="Path_64634" data-name="Path 64634" d="M11.436,207.6A11.436,11.436,0,1,0,0,196.166,11.436,11.436,0,0,0,11.436,207.6" transform="translate(0 -56.645)" fill="#fff"/>
          <path id="Path_64635" data-name="Path 64635" d="M57.619,207.6a11.436,11.436,0,1,0-11.435-11.435A11.435,11.435,0,0,0,57.619,207.6" transform="translate(-14.162 -56.645)" fill="#fff"/>
        </g>
      </g>
      <g id="Group_6738" data-name="Group 6738" transform="translate(1620 5674.165)">
        <g id="Group_6736-2" data-name="Group 6736" clip-path="url(#clip-path)">
          <path id="Path_64626-2" data-name="Path 64626" d="M11.436,22.872A11.436,11.436,0,1,0,0,11.436,11.436,11.436,0,0,0,11.436,22.872" fill="#fff"/>
          <path id="Path_64627-2" data-name="Path 64627" d="M57.619,22.872A11.436,11.436,0,1,0,46.184,11.436,11.435,11.435,0,0,0,57.619,22.872" transform="translate(-14.162)" fill="#fff"/>
          <path id="Path_64628-2" data-name="Path 64628" d="M11.436,69.054A11.436,11.436,0,1,0,0,57.618,11.436,11.436,0,0,0,11.436,69.054" transform="translate(0 -14.161)" fill="#fff"/>
          <path id="Path_64629-2" data-name="Path 64629" d="M57.619,69.054A11.436,11.436,0,1,0,46.184,57.618,11.435,11.435,0,0,0,57.619,69.054" transform="translate(-14.162 -14.161)" fill="#fff"/>
          <path id="Path_64630-2" data-name="Path 64630" d="M11.436,115.237A11.436,11.436,0,1,0,0,103.8a11.437,11.437,0,0,0,11.436,11.436" transform="translate(0 -28.322)" fill="#fff"/>
          <path id="Path_64631-2" data-name="Path 64631" d="M57.619,115.237A11.436,11.436,0,1,0,46.184,103.8a11.436,11.436,0,0,0,11.435,11.436" transform="translate(-14.162 -28.322)" fill="#fff"/>
          <path id="Path_64632-2" data-name="Path 64632" d="M11.436,161.419A11.436,11.436,0,1,0,0,149.983a11.436,11.436,0,0,0,11.436,11.436" transform="translate(0 -42.484)" fill="#fff"/>
          <path id="Path_64633-2" data-name="Path 64633" d="M57.619,161.419a11.436,11.436,0,1,0-11.435-11.436,11.436,11.436,0,0,0,11.435,11.436" transform="translate(-14.162 -42.484)" fill="#fff"/>
          <path id="Path_64634-2" data-name="Path 64634" d="M11.436,207.6A11.436,11.436,0,1,0,0,196.166,11.436,11.436,0,0,0,11.436,207.6" transform="translate(0 -56.645)" fill="#fff"/>
          <path id="Path_64635-2" data-name="Path 64635" d="M57.619,207.6a11.436,11.436,0,1,0-11.435-11.435A11.435,11.435,0,0,0,57.619,207.6" transform="translate(-14.162 -56.645)" fill="#fff"/>
        </g>
      </g>
      <g id="Group_6739" data-name="Group 6739" transform="translate(1748.699 5674.165)">
        <g id="Group_6736-3" data-name="Group 6736" clip-path="url(#clip-path)">
          <path id="Path_64626-3" data-name="Path 64626" d="M11.436,22.872A11.436,11.436,0,1,0,0,11.436,11.436,11.436,0,0,0,11.436,22.872" fill="#fff"/>
          <path id="Path_64627-3" data-name="Path 64627" d="M57.619,22.872A11.436,11.436,0,1,0,46.184,11.436,11.435,11.435,0,0,0,57.619,22.872" transform="translate(-14.162)" fill="#fff"/>
          <path id="Path_64628-3" data-name="Path 64628" d="M11.436,69.054A11.436,11.436,0,1,0,0,57.618,11.436,11.436,0,0,0,11.436,69.054" transform="translate(0 -14.161)" fill="#fff"/>
          <path id="Path_64629-3" data-name="Path 64629" d="M57.619,69.054A11.436,11.436,0,1,0,46.184,57.618,11.435,11.435,0,0,0,57.619,69.054" transform="translate(-14.162 -14.161)" fill="#fff"/>
          <path id="Path_64630-3" data-name="Path 64630" d="M11.436,115.237A11.436,11.436,0,1,0,0,103.8a11.437,11.437,0,0,0,11.436,11.436" transform="translate(0 -28.322)" fill="#fff"/>
          <path id="Path_64631-3" data-name="Path 64631" d="M57.619,115.237A11.436,11.436,0,1,0,46.184,103.8a11.436,11.436,0,0,0,11.435,11.436" transform="translate(-14.162 -28.322)" fill="#fff"/>
          <path id="Path_64632-3" data-name="Path 64632" d="M11.436,161.419A11.436,11.436,0,1,0,0,149.983a11.436,11.436,0,0,0,11.436,11.436" transform="translate(0 -42.484)" fill="#fff"/>
          <path id="Path_64633-3" data-name="Path 64633" d="M57.619,161.419a11.436,11.436,0,1,0-11.435-11.436,11.436,11.436,0,0,0,11.435,11.436" transform="translate(-14.162 -42.484)" fill="#fff"/>
          <path id="Path_64634-3" data-name="Path 64634" d="M11.436,207.6A11.436,11.436,0,1,0,0,196.166,11.436,11.436,0,0,0,11.436,207.6" transform="translate(0 -56.645)" fill="#fff"/>
          <path id="Path_64635-3" data-name="Path 64635" d="M57.619,207.6a11.436,11.436,0,1,0-11.435-11.435A11.435,11.435,0,0,0,57.619,207.6" transform="translate(-14.162 -56.645)" fill="#fff"/>
        </g>
      </g>
      <g id="Group_6740" data-name="Group 6740" transform="translate(1813.119 5674.165)">
        <g id="Group_6736-4" data-name="Group 6736" clip-path="url(#clip-path)">
          <path id="Path_64626-4" data-name="Path 64626" d="M11.436,22.872A11.436,11.436,0,1,0,0,11.436,11.436,11.436,0,0,0,11.436,22.872" fill="#fff"/>
          <path id="Path_64627-4" data-name="Path 64627" d="M57.619,22.872A11.436,11.436,0,1,0,46.184,11.436,11.435,11.435,0,0,0,57.619,22.872" transform="translate(-14.162)" fill="#fff"/>
          <path id="Path_64628-4" data-name="Path 64628" d="M11.436,69.054A11.436,11.436,0,1,0,0,57.618,11.436,11.436,0,0,0,11.436,69.054" transform="translate(0 -14.161)" fill="#fff"/>
          <path id="Path_64629-4" data-name="Path 64629" d="M57.619,69.054A11.436,11.436,0,1,0,46.184,57.618,11.435,11.435,0,0,0,57.619,69.054" transform="translate(-14.162 -14.161)" fill="#fff"/>
          <path id="Path_64630-4" data-name="Path 64630" d="M11.436,115.237A11.436,11.436,0,1,0,0,103.8a11.437,11.437,0,0,0,11.436,11.436" transform="translate(0 -28.322)" fill="#fff"/>
          <path id="Path_64631-4" data-name="Path 64631" d="M57.619,115.237A11.436,11.436,0,1,0,46.184,103.8a11.436,11.436,0,0,0,11.435,11.436" transform="translate(-14.162 -28.322)" fill="#fff"/>
          <path id="Path_64632-4" data-name="Path 64632" d="M11.436,161.419A11.436,11.436,0,1,0,0,149.983a11.436,11.436,0,0,0,11.436,11.436" transform="translate(0 -42.484)" fill="#fff"/>
          <path id="Path_64633-4" data-name="Path 64633" d="M57.619,161.419a11.436,11.436,0,1,0-11.435-11.436,11.436,11.436,0,0,0,11.435,11.436" transform="translate(-14.162 -42.484)" fill="#fff"/>
          <path id="Path_64634-4" data-name="Path 64634" d="M11.436,207.6A11.436,11.436,0,1,0,0,196.166,11.436,11.436,0,0,0,11.436,207.6" transform="translate(0 -56.645)" fill="#fff"/>
          <path id="Path_64635-4" data-name="Path 64635" d="M57.619,207.6a11.436,11.436,0,1,0-11.435-11.435A11.435,11.435,0,0,0,57.619,207.6" transform="translate(-14.162 -56.645)" fill="#fff"/>
        </g>
      </g>
    </g>
    <g id="Group_6885" data-name="Group 6885" transform="translate(-149.012 -1886.166)" opacity="0.5">
      <g id="Group_6737-2" data-name="Group 6737" transform="translate(1684.42 5674.165)">
        <g id="Group_6736-5" data-name="Group 6736" clip-path="url(#clip-path)">
          <path id="Path_64626-5" data-name="Path 64626" d="M11.436,22.872A11.436,11.436,0,1,0,0,11.436,11.436,11.436,0,0,0,11.436,22.872" fill="#fff"/>
          <path id="Path_64627-5" data-name="Path 64627" d="M57.619,22.872A11.436,11.436,0,1,0,46.184,11.436,11.435,11.435,0,0,0,57.619,22.872" transform="translate(-14.162)" fill="#fff"/>
          <path id="Path_64628-5" data-name="Path 64628" d="M11.436,69.054A11.436,11.436,0,1,0,0,57.618,11.436,11.436,0,0,0,11.436,69.054" transform="translate(0 -14.161)" fill="#fff"/>
          <path id="Path_64629-5" data-name="Path 64629" d="M57.619,69.054A11.436,11.436,0,1,0,46.184,57.618,11.435,11.435,0,0,0,57.619,69.054" transform="translate(-14.162 -14.161)" fill="#fff"/>
          <path id="Path_64630-5" data-name="Path 64630" d="M11.436,115.237A11.436,11.436,0,1,0,0,103.8a11.437,11.437,0,0,0,11.436,11.436" transform="translate(0 -28.322)" fill="#fff"/>
          <path id="Path_64631-5" data-name="Path 64631" d="M57.619,115.237A11.436,11.436,0,1,0,46.184,103.8a11.436,11.436,0,0,0,11.435,11.436" transform="translate(-14.162 -28.322)" fill="#fff"/>
          <path id="Path_64632-5" data-name="Path 64632" d="M11.436,161.419A11.436,11.436,0,1,0,0,149.983a11.436,11.436,0,0,0,11.436,11.436" transform="translate(0 -42.484)" fill="#fff"/>
          <path id="Path_64633-5" data-name="Path 64633" d="M57.619,161.419a11.436,11.436,0,1,0-11.435-11.436,11.436,11.436,0,0,0,11.435,11.436" transform="translate(-14.162 -42.484)" fill="#fff"/>
          <path id="Path_64634-5" data-name="Path 64634" d="M11.436,207.6A11.436,11.436,0,1,0,0,196.166,11.436,11.436,0,0,0,11.436,207.6" transform="translate(0 -56.645)" fill="#fff"/>
          <path id="Path_64635-5" data-name="Path 64635" d="M57.619,207.6a11.436,11.436,0,1,0-11.435-11.435A11.435,11.435,0,0,0,57.619,207.6" transform="translate(-14.162 -56.645)" fill="#fff"/>
        </g>
      </g>
      <g id="Group_6738-2" data-name="Group 6738" transform="translate(1620 5674.165)">
        <g id="Group_6736-6" data-name="Group 6736" clip-path="url(#clip-path)">
          <path id="Path_64626-6" data-name="Path 64626" d="M11.436,22.872A11.436,11.436,0,1,0,0,11.436,11.436,11.436,0,0,0,11.436,22.872" fill="#fff"/>
          <path id="Path_64627-6" data-name="Path 64627" d="M57.619,22.872A11.436,11.436,0,1,0,46.184,11.436,11.435,11.435,0,0,0,57.619,22.872" transform="translate(-14.162)" fill="#fff"/>
          <path id="Path_64628-6" data-name="Path 64628" d="M11.436,69.054A11.436,11.436,0,1,0,0,57.618,11.436,11.436,0,0,0,11.436,69.054" transform="translate(0 -14.161)" fill="#fff"/>
          <path id="Path_64629-6" data-name="Path 64629" d="M57.619,69.054A11.436,11.436,0,1,0,46.184,57.618,11.435,11.435,0,0,0,57.619,69.054" transform="translate(-14.162 -14.161)" fill="#fff"/>
          <path id="Path_64630-6" data-name="Path 64630" d="M11.436,115.237A11.436,11.436,0,1,0,0,103.8a11.437,11.437,0,0,0,11.436,11.436" transform="translate(0 -28.322)" fill="#fff"/>
          <path id="Path_64631-6" data-name="Path 64631" d="M57.619,115.237A11.436,11.436,0,1,0,46.184,103.8a11.436,11.436,0,0,0,11.435,11.436" transform="translate(-14.162 -28.322)" fill="#fff"/>
          <path id="Path_64632-6" data-name="Path 64632" d="M11.436,161.419A11.436,11.436,0,1,0,0,149.983a11.436,11.436,0,0,0,11.436,11.436" transform="translate(0 -42.484)" fill="#fff"/>
          <path id="Path_64633-6" data-name="Path 64633" d="M57.619,161.419a11.436,11.436,0,1,0-11.435-11.436,11.436,11.436,0,0,0,11.435,11.436" transform="translate(-14.162 -42.484)" fill="#fff"/>
          <path id="Path_64634-6" data-name="Path 64634" d="M11.436,207.6A11.436,11.436,0,1,0,0,196.166,11.436,11.436,0,0,0,11.436,207.6" transform="translate(0 -56.645)" fill="#fff"/>
          <path id="Path_64635-6" data-name="Path 64635" d="M57.619,207.6a11.436,11.436,0,1,0-11.435-11.435A11.435,11.435,0,0,0,57.619,207.6" transform="translate(-14.162 -56.645)" fill="#fff"/>
        </g>
      </g>
      <g id="Group_6739-2" data-name="Group 6739" transform="translate(1748.699 5674.165)">
        <g id="Group_6736-7" data-name="Group 6736" clip-path="url(#clip-path)">
          <path id="Path_64626-7" data-name="Path 64626" d="M11.436,22.872A11.436,11.436,0,1,0,0,11.436,11.436,11.436,0,0,0,11.436,22.872" fill="#fff"/>
          <path id="Path_64627-7" data-name="Path 64627" d="M57.619,22.872A11.436,11.436,0,1,0,46.184,11.436,11.435,11.435,0,0,0,57.619,22.872" transform="translate(-14.162)" fill="#fff"/>
          <path id="Path_64628-7" data-name="Path 64628" d="M11.436,69.054A11.436,11.436,0,1,0,0,57.618,11.436,11.436,0,0,0,11.436,69.054" transform="translate(0 -14.161)" fill="#fff"/>
          <path id="Path_64629-7" data-name="Path 64629" d="M57.619,69.054A11.436,11.436,0,1,0,46.184,57.618,11.435,11.435,0,0,0,57.619,69.054" transform="translate(-14.162 -14.161)" fill="#fff"/>
          <path id="Path_64630-7" data-name="Path 64630" d="M11.436,115.237A11.436,11.436,0,1,0,0,103.8a11.437,11.437,0,0,0,11.436,11.436" transform="translate(0 -28.322)" fill="#fff"/>
          <path id="Path_64631-7" data-name="Path 64631" d="M57.619,115.237A11.436,11.436,0,1,0,46.184,103.8a11.436,11.436,0,0,0,11.435,11.436" transform="translate(-14.162 -28.322)" fill="#fff"/>
          <path id="Path_64632-7" data-name="Path 64632" d="M11.436,161.419A11.436,11.436,0,1,0,0,149.983a11.436,11.436,0,0,0,11.436,11.436" transform="translate(0 -42.484)" fill="#fff"/>
          <path id="Path_64633-7" data-name="Path 64633" d="M57.619,161.419a11.436,11.436,0,1,0-11.435-11.436,11.436,11.436,0,0,0,11.435,11.436" transform="translate(-14.162 -42.484)" fill="#fff"/>
          <path id="Path_64634-7" data-name="Path 64634" d="M11.436,207.6A11.436,11.436,0,1,0,0,196.166,11.436,11.436,0,0,0,11.436,207.6" transform="translate(0 -56.645)" fill="#fff"/>
          <path id="Path_64635-7" data-name="Path 64635" d="M57.619,207.6a11.436,11.436,0,1,0-11.435-11.435A11.435,11.435,0,0,0,57.619,207.6" transform="translate(-14.162 -56.645)" fill="#fff"/>
        </g>
      </g>
      <g id="Group_6740-2" data-name="Group 6740" transform="translate(1813.119 5674.165)">
        <g id="Group_6736-8" data-name="Group 6736" clip-path="url(#clip-path)">
          <path id="Path_64626-8" data-name="Path 64626" d="M11.436,22.872A11.436,11.436,0,1,0,0,11.436,11.436,11.436,0,0,0,11.436,22.872" fill="#fff"/>
          <path id="Path_64627-8" data-name="Path 64627" d="M57.619,22.872A11.436,11.436,0,1,0,46.184,11.436,11.435,11.435,0,0,0,57.619,22.872" transform="translate(-14.162)" fill="#fff"/>
          <path id="Path_64628-8" data-name="Path 64628" d="M11.436,69.054A11.436,11.436,0,1,0,0,57.618,11.436,11.436,0,0,0,11.436,69.054" transform="translate(0 -14.161)" fill="#fff"/>
          <path id="Path_64629-8" data-name="Path 64629" d="M57.619,69.054A11.436,11.436,0,1,0,46.184,57.618,11.435,11.435,0,0,0,57.619,69.054" transform="translate(-14.162 -14.161)" fill="#fff"/>
          <path id="Path_64630-8" data-name="Path 64630" d="M11.436,115.237A11.436,11.436,0,1,0,0,103.8a11.437,11.437,0,0,0,11.436,11.436" transform="translate(0 -28.322)" fill="#fff"/>
          <path id="Path_64631-8" data-name="Path 64631" d="M57.619,115.237A11.436,11.436,0,1,0,46.184,103.8a11.436,11.436,0,0,0,11.435,11.436" transform="translate(-14.162 -28.322)" fill="#fff"/>
          <path id="Path_64632-8" data-name="Path 64632" d="M11.436,161.419A11.436,11.436,0,1,0,0,149.983a11.436,11.436,0,0,0,11.436,11.436" transform="translate(0 -42.484)" fill="#fff"/>
          <path id="Path_64633-8" data-name="Path 64633" d="M57.619,161.419a11.436,11.436,0,1,0-11.435-11.436,11.436,11.436,0,0,0,11.435,11.436" transform="translate(-14.162 -42.484)" fill="#fff"/>
          <path id="Path_64634-8" data-name="Path 64634" d="M11.436,207.6A11.436,11.436,0,1,0,0,196.166,11.436,11.436,0,0,0,11.436,207.6" transform="translate(0 -56.645)" fill="#fff"/>
          <path id="Path_64635-8" data-name="Path 64635" d="M57.619,207.6a11.436,11.436,0,1,0-11.435-11.435A11.435,11.435,0,0,0,57.619,207.6" transform="translate(-14.162 -56.645)" fill="#fff"/>
        </g>
      </g>
    </g>
    <g id="Group_6887" data-name="Group 6887" transform="translate(-149.012 -1566.121)" opacity="0.5">
      <g id="Group_6737-3" data-name="Group 6737" transform="translate(1684.42 5674.165)">
        <g id="Group_6736-9" data-name="Group 6736" clip-path="url(#clip-path)">
          <path id="Path_64626-9" data-name="Path 64626" d="M11.436,22.872A11.436,11.436,0,1,0,0,11.436,11.436,11.436,0,0,0,11.436,22.872" fill="#fff"/>
          <path id="Path_64627-9" data-name="Path 64627" d="M57.619,22.872A11.436,11.436,0,1,0,46.184,11.436,11.435,11.435,0,0,0,57.619,22.872" transform="translate(-14.162)" fill="#fff"/>
          <path id="Path_64628-9" data-name="Path 64628" d="M11.436,69.054A11.436,11.436,0,1,0,0,57.618,11.436,11.436,0,0,0,11.436,69.054" transform="translate(0 -14.161)" fill="#fff"/>
          <path id="Path_64629-9" data-name="Path 64629" d="M57.619,69.054A11.436,11.436,0,1,0,46.184,57.618,11.435,11.435,0,0,0,57.619,69.054" transform="translate(-14.162 -14.161)" fill="#fff"/>
          <path id="Path_64630-9" data-name="Path 64630" d="M11.436,115.237A11.436,11.436,0,1,0,0,103.8a11.437,11.437,0,0,0,11.436,11.436" transform="translate(0 -28.322)" fill="#fff"/>
          <path id="Path_64631-9" data-name="Path 64631" d="M57.619,115.237A11.436,11.436,0,1,0,46.184,103.8a11.436,11.436,0,0,0,11.435,11.436" transform="translate(-14.162 -28.322)" fill="#fff"/>
          <path id="Path_64632-9" data-name="Path 64632" d="M11.436,161.419A11.436,11.436,0,1,0,0,149.983a11.436,11.436,0,0,0,11.436,11.436" transform="translate(0 -42.484)" fill="#fff"/>
          <path id="Path_64633-9" data-name="Path 64633" d="M57.619,161.419a11.436,11.436,0,1,0-11.435-11.436,11.436,11.436,0,0,0,11.435,11.436" transform="translate(-14.162 -42.484)" fill="#fff"/>
          <path id="Path_64634-9" data-name="Path 64634" d="M11.436,207.6A11.436,11.436,0,1,0,0,196.166,11.436,11.436,0,0,0,11.436,207.6" transform="translate(0 -56.645)" fill="#fff"/>
          <path id="Path_64635-9" data-name="Path 64635" d="M57.619,207.6a11.436,11.436,0,1,0-11.435-11.435A11.435,11.435,0,0,0,57.619,207.6" transform="translate(-14.162 -56.645)" fill="#fff"/>
        </g>
      </g>
      <g id="Group_6738-3" data-name="Group 6738" transform="translate(1620 5674.165)">
        <g id="Group_6736-10" data-name="Group 6736" clip-path="url(#clip-path)">
          <path id="Path_64626-10" data-name="Path 64626" d="M11.436,22.872A11.436,11.436,0,1,0,0,11.436,11.436,11.436,0,0,0,11.436,22.872" fill="#fff"/>
          <path id="Path_64627-10" data-name="Path 64627" d="M57.619,22.872A11.436,11.436,0,1,0,46.184,11.436,11.435,11.435,0,0,0,57.619,22.872" transform="translate(-14.162)" fill="#fff"/>
          <path id="Path_64628-10" data-name="Path 64628" d="M11.436,69.054A11.436,11.436,0,1,0,0,57.618,11.436,11.436,0,0,0,11.436,69.054" transform="translate(0 -14.161)" fill="#fff"/>
          <path id="Path_64629-10" data-name="Path 64629" d="M57.619,69.054A11.436,11.436,0,1,0,46.184,57.618,11.435,11.435,0,0,0,57.619,69.054" transform="translate(-14.162 -14.161)" fill="#fff"/>
          <path id="Path_64630-10" data-name="Path 64630" d="M11.436,115.237A11.436,11.436,0,1,0,0,103.8a11.437,11.437,0,0,0,11.436,11.436" transform="translate(0 -28.322)" fill="#fff"/>
          <path id="Path_64631-10" data-name="Path 64631" d="M57.619,115.237A11.436,11.436,0,1,0,46.184,103.8a11.436,11.436,0,0,0,11.435,11.436" transform="translate(-14.162 -28.322)" fill="#fff"/>
          <path id="Path_64632-10" data-name="Path 64632" d="M11.436,161.419A11.436,11.436,0,1,0,0,149.983a11.436,11.436,0,0,0,11.436,11.436" transform="translate(0 -42.484)" fill="#fff"/>
          <path id="Path_64633-10" data-name="Path 64633" d="M57.619,161.419a11.436,11.436,0,1,0-11.435-11.436,11.436,11.436,0,0,0,11.435,11.436" transform="translate(-14.162 -42.484)" fill="#fff"/>
          <path id="Path_64634-10" data-name="Path 64634" d="M11.436,207.6A11.436,11.436,0,1,0,0,196.166,11.436,11.436,0,0,0,11.436,207.6" transform="translate(0 -56.645)" fill="#fff"/>
          <path id="Path_64635-10" data-name="Path 64635" d="M57.619,207.6a11.436,11.436,0,1,0-11.435-11.435A11.435,11.435,0,0,0,57.619,207.6" transform="translate(-14.162 -56.645)" fill="#fff"/>
        </g>
      </g>
      <g id="Group_6739-3" data-name="Group 6739" transform="translate(1748.699 5674.165)">
        <g id="Group_6736-11" data-name="Group 6736" clip-path="url(#clip-path)">
          <path id="Path_64626-11" data-name="Path 64626" d="M11.436,22.872A11.436,11.436,0,1,0,0,11.436,11.436,11.436,0,0,0,11.436,22.872" fill="#fff"/>
          <path id="Path_64627-11" data-name="Path 64627" d="M57.619,22.872A11.436,11.436,0,1,0,46.184,11.436,11.435,11.435,0,0,0,57.619,22.872" transform="translate(-14.162)" fill="#fff"/>
          <path id="Path_64628-11" data-name="Path 64628" d="M11.436,69.054A11.436,11.436,0,1,0,0,57.618,11.436,11.436,0,0,0,11.436,69.054" transform="translate(0 -14.161)" fill="#fff"/>
          <path id="Path_64629-11" data-name="Path 64629" d="M57.619,69.054A11.436,11.436,0,1,0,46.184,57.618,11.435,11.435,0,0,0,57.619,69.054" transform="translate(-14.162 -14.161)" fill="#fff"/>
          <path id="Path_64630-11" data-name="Path 64630" d="M11.436,115.237A11.436,11.436,0,1,0,0,103.8a11.437,11.437,0,0,0,11.436,11.436" transform="translate(0 -28.322)" fill="#fff"/>
          <path id="Path_64631-11" data-name="Path 64631" d="M57.619,115.237A11.436,11.436,0,1,0,46.184,103.8a11.436,11.436,0,0,0,11.435,11.436" transform="translate(-14.162 -28.322)" fill="#fff"/>
          <path id="Path_64632-11" data-name="Path 64632" d="M11.436,161.419A11.436,11.436,0,1,0,0,149.983a11.436,11.436,0,0,0,11.436,11.436" transform="translate(0 -42.484)" fill="#fff"/>
          <path id="Path_64633-11" data-name="Path 64633" d="M57.619,161.419a11.436,11.436,0,1,0-11.435-11.436,11.436,11.436,0,0,0,11.435,11.436" transform="translate(-14.162 -42.484)" fill="#fff"/>
          <path id="Path_64634-11" data-name="Path 64634" d="M11.436,207.6A11.436,11.436,0,1,0,0,196.166,11.436,11.436,0,0,0,11.436,207.6" transform="translate(0 -56.645)" fill="#fff"/>
          <path id="Path_64635-11" data-name="Path 64635" d="M57.619,207.6a11.436,11.436,0,1,0-11.435-11.435A11.435,11.435,0,0,0,57.619,207.6" transform="translate(-14.162 -56.645)" fill="#fff"/>
        </g>
      </g>
      <g id="Group_6740-3" data-name="Group 6740" transform="translate(1813.119 5674.165)">
        <g id="Group_6736-12" data-name="Group 6736" clip-path="url(#clip-path)">
          <path id="Path_64626-12" data-name="Path 64626" d="M11.436,22.872A11.436,11.436,0,1,0,0,11.436,11.436,11.436,0,0,0,11.436,22.872" fill="#fff"/>
          <path id="Path_64627-12" data-name="Path 64627" d="M57.619,22.872A11.436,11.436,0,1,0,46.184,11.436,11.435,11.435,0,0,0,57.619,22.872" transform="translate(-14.162)" fill="#fff"/>
          <path id="Path_64628-12" data-name="Path 64628" d="M11.436,69.054A11.436,11.436,0,1,0,0,57.618,11.436,11.436,0,0,0,11.436,69.054" transform="translate(0 -14.161)" fill="#fff"/>
          <path id="Path_64629-12" data-name="Path 64629" d="M57.619,69.054A11.436,11.436,0,1,0,46.184,57.618,11.435,11.435,0,0,0,57.619,69.054" transform="translate(-14.162 -14.161)" fill="#fff"/>
          <path id="Path_64630-12" data-name="Path 64630" d="M11.436,115.237A11.436,11.436,0,1,0,0,103.8a11.437,11.437,0,0,0,11.436,11.436" transform="translate(0 -28.322)" fill="#fff"/>
          <path id="Path_64631-12" data-name="Path 64631" d="M57.619,115.237A11.436,11.436,0,1,0,46.184,103.8a11.436,11.436,0,0,0,11.435,11.436" transform="translate(-14.162 -28.322)" fill="#fff"/>
          <path id="Path_64632-12" data-name="Path 64632" d="M11.436,161.419A11.436,11.436,0,1,0,0,149.983a11.436,11.436,0,0,0,11.436,11.436" transform="translate(0 -42.484)" fill="#fff"/>
          <path id="Path_64633-12" data-name="Path 64633" d="M57.619,161.419a11.436,11.436,0,1,0-11.435-11.436,11.436,11.436,0,0,0,11.435,11.436" transform="translate(-14.162 -42.484)" fill="#fff"/>
          <path id="Path_64634-12" data-name="Path 64634" d="M11.436,207.6A11.436,11.436,0,1,0,0,196.166,11.436,11.436,0,0,0,11.436,207.6" transform="translate(0 -56.645)" fill="#fff"/>
          <path id="Path_64635-12" data-name="Path 64635" d="M57.619,207.6a11.436,11.436,0,1,0-11.435-11.435A11.435,11.435,0,0,0,57.619,207.6" transform="translate(-14.162 -56.645)" fill="#fff"/>
        </g>
      </g>
    </g>
    <g id="Group_6883" data-name="Group 6883" transform="translate(-149.012 -2047.166)" opacity="0.5">
      <g id="Group_6737-4" data-name="Group 6737" transform="translate(1684.42 5674.165)">
        <g id="Group_6736-13" data-name="Group 6736" clip-path="url(#clip-path)">
          <path id="Path_64626-13" data-name="Path 64626" d="M11.436,22.872A11.436,11.436,0,1,0,0,11.436,11.436,11.436,0,0,0,11.436,22.872" fill="#fff"/>
          <path id="Path_64627-13" data-name="Path 64627" d="M57.619,22.872A11.436,11.436,0,1,0,46.184,11.436,11.435,11.435,0,0,0,57.619,22.872" transform="translate(-14.162)" fill="#fff"/>
          <path id="Path_64628-13" data-name="Path 64628" d="M11.436,69.054A11.436,11.436,0,1,0,0,57.618,11.436,11.436,0,0,0,11.436,69.054" transform="translate(0 -14.161)" fill="#fff"/>
          <path id="Path_64629-13" data-name="Path 64629" d="M57.619,69.054A11.436,11.436,0,1,0,46.184,57.618,11.435,11.435,0,0,0,57.619,69.054" transform="translate(-14.162 -14.161)" fill="#fff"/>
          <path id="Path_64630-13" data-name="Path 64630" d="M11.436,115.237A11.436,11.436,0,1,0,0,103.8a11.437,11.437,0,0,0,11.436,11.436" transform="translate(0 -28.322)" fill="#fff"/>
          <path id="Path_64631-13" data-name="Path 64631" d="M57.619,115.237A11.436,11.436,0,1,0,46.184,103.8a11.436,11.436,0,0,0,11.435,11.436" transform="translate(-14.162 -28.322)" fill="#fff"/>
          <path id="Path_64632-13" data-name="Path 64632" d="M11.436,161.419A11.436,11.436,0,1,0,0,149.983a11.436,11.436,0,0,0,11.436,11.436" transform="translate(0 -42.484)" fill="#fff"/>
          <path id="Path_64633-13" data-name="Path 64633" d="M57.619,161.419a11.436,11.436,0,1,0-11.435-11.436,11.436,11.436,0,0,0,11.435,11.436" transform="translate(-14.162 -42.484)" fill="#fff"/>
          <path id="Path_64634-13" data-name="Path 64634" d="M11.436,207.6A11.436,11.436,0,1,0,0,196.166,11.436,11.436,0,0,0,11.436,207.6" transform="translate(0 -56.645)" fill="#fff"/>
          <path id="Path_64635-13" data-name="Path 64635" d="M57.619,207.6a11.436,11.436,0,1,0-11.435-11.435A11.435,11.435,0,0,0,57.619,207.6" transform="translate(-14.162 -56.645)" fill="#fff"/>
        </g>
      </g>
      <g id="Group_6738-4" data-name="Group 6738" transform="translate(1620 5674.165)">
        <g id="Group_6736-14" data-name="Group 6736" clip-path="url(#clip-path)">
          <path id="Path_64626-14" data-name="Path 64626" d="M11.436,22.872A11.436,11.436,0,1,0,0,11.436,11.436,11.436,0,0,0,11.436,22.872" fill="#fff"/>
          <path id="Path_64627-14" data-name="Path 64627" d="M57.619,22.872A11.436,11.436,0,1,0,46.184,11.436,11.435,11.435,0,0,0,57.619,22.872" transform="translate(-14.162)" fill="#fff"/>
          <path id="Path_64628-14" data-name="Path 64628" d="M11.436,69.054A11.436,11.436,0,1,0,0,57.618,11.436,11.436,0,0,0,11.436,69.054" transform="translate(0 -14.161)" fill="#fff"/>
          <path id="Path_64629-14" data-name="Path 64629" d="M57.619,69.054A11.436,11.436,0,1,0,46.184,57.618,11.435,11.435,0,0,0,57.619,69.054" transform="translate(-14.162 -14.161)" fill="#fff"/>
          <path id="Path_64630-14" data-name="Path 64630" d="M11.436,115.237A11.436,11.436,0,1,0,0,103.8a11.437,11.437,0,0,0,11.436,11.436" transform="translate(0 -28.322)" fill="#fff"/>
          <path id="Path_64631-14" data-name="Path 64631" d="M57.619,115.237A11.436,11.436,0,1,0,46.184,103.8a11.436,11.436,0,0,0,11.435,11.436" transform="translate(-14.162 -28.322)" fill="#fff"/>
          <path id="Path_64632-14" data-name="Path 64632" d="M11.436,161.419A11.436,11.436,0,1,0,0,149.983a11.436,11.436,0,0,0,11.436,11.436" transform="translate(0 -42.484)" fill="#fff"/>
          <path id="Path_64633-14" data-name="Path 64633" d="M57.619,161.419a11.436,11.436,0,1,0-11.435-11.436,11.436,11.436,0,0,0,11.435,11.436" transform="translate(-14.162 -42.484)" fill="#fff"/>
          <path id="Path_64634-14" data-name="Path 64634" d="M11.436,207.6A11.436,11.436,0,1,0,0,196.166,11.436,11.436,0,0,0,11.436,207.6" transform="translate(0 -56.645)" fill="#fff"/>
          <path id="Path_64635-14" data-name="Path 64635" d="M57.619,207.6a11.436,11.436,0,1,0-11.435-11.435A11.435,11.435,0,0,0,57.619,207.6" transform="translate(-14.162 -56.645)" fill="#fff"/>
        </g>
      </g>
      <g id="Group_6739-4" data-name="Group 6739" transform="translate(1748.699 5674.165)">
        <g id="Group_6736-15" data-name="Group 6736" clip-path="url(#clip-path)">
          <path id="Path_64626-15" data-name="Path 64626" d="M11.436,22.872A11.436,11.436,0,1,0,0,11.436,11.436,11.436,0,0,0,11.436,22.872" fill="#fff"/>
          <path id="Path_64627-15" data-name="Path 64627" d="M57.619,22.872A11.436,11.436,0,1,0,46.184,11.436,11.435,11.435,0,0,0,57.619,22.872" transform="translate(-14.162)" fill="#fff"/>
          <path id="Path_64628-15" data-name="Path 64628" d="M11.436,69.054A11.436,11.436,0,1,0,0,57.618,11.436,11.436,0,0,0,11.436,69.054" transform="translate(0 -14.161)" fill="#fff"/>
          <path id="Path_64629-15" data-name="Path 64629" d="M57.619,69.054A11.436,11.436,0,1,0,46.184,57.618,11.435,11.435,0,0,0,57.619,69.054" transform="translate(-14.162 -14.161)" fill="#fff"/>
          <path id="Path_64630-15" data-name="Path 64630" d="M11.436,115.237A11.436,11.436,0,1,0,0,103.8a11.437,11.437,0,0,0,11.436,11.436" transform="translate(0 -28.322)" fill="#fff"/>
          <path id="Path_64631-15" data-name="Path 64631" d="M57.619,115.237A11.436,11.436,0,1,0,46.184,103.8a11.436,11.436,0,0,0,11.435,11.436" transform="translate(-14.162 -28.322)" fill="#fff"/>
          <path id="Path_64632-15" data-name="Path 64632" d="M11.436,161.419A11.436,11.436,0,1,0,0,149.983a11.436,11.436,0,0,0,11.436,11.436" transform="translate(0 -42.484)" fill="#fff"/>
          <path id="Path_64633-15" data-name="Path 64633" d="M57.619,161.419a11.436,11.436,0,1,0-11.435-11.436,11.436,11.436,0,0,0,11.435,11.436" transform="translate(-14.162 -42.484)" fill="#fff"/>
          <path id="Path_64634-15" data-name="Path 64634" d="M11.436,207.6A11.436,11.436,0,1,0,0,196.166,11.436,11.436,0,0,0,11.436,207.6" transform="translate(0 -56.645)" fill="#fff"/>
          <path id="Path_64635-15" data-name="Path 64635" d="M57.619,207.6a11.436,11.436,0,1,0-11.435-11.435A11.435,11.435,0,0,0,57.619,207.6" transform="translate(-14.162 -56.645)" fill="#fff"/>
        </g>
      </g>
      <g id="Group_6740-4" data-name="Group 6740" transform="translate(1813.119 5674.165)">
        <g id="Group_6736-16" data-name="Group 6736" clip-path="url(#clip-path)">
          <path id="Path_64626-16" data-name="Path 64626" d="M11.436,22.872A11.436,11.436,0,1,0,0,11.436,11.436,11.436,0,0,0,11.436,22.872" fill="#fff"/>
          <path id="Path_64627-16" data-name="Path 64627" d="M57.619,22.872A11.436,11.436,0,1,0,46.184,11.436,11.435,11.435,0,0,0,57.619,22.872" transform="translate(-14.162)" fill="#fff"/>
          <path id="Path_64628-16" data-name="Path 64628" d="M11.436,69.054A11.436,11.436,0,1,0,0,57.618,11.436,11.436,0,0,0,11.436,69.054" transform="translate(0 -14.161)" fill="#fff"/>
          <path id="Path_64629-16" data-name="Path 64629" d="M57.619,69.054A11.436,11.436,0,1,0,46.184,57.618,11.435,11.435,0,0,0,57.619,69.054" transform="translate(-14.162 -14.161)" fill="#fff"/>
          <path id="Path_64630-16" data-name="Path 64630" d="M11.436,115.237A11.436,11.436,0,1,0,0,103.8a11.437,11.437,0,0,0,11.436,11.436" transform="translate(0 -28.322)" fill="#fff"/>
          <path id="Path_64631-16" data-name="Path 64631" d="M57.619,115.237A11.436,11.436,0,1,0,46.184,103.8a11.436,11.436,0,0,0,11.435,11.436" transform="translate(-14.162 -28.322)" fill="#fff"/>
          <path id="Path_64632-16" data-name="Path 64632" d="M11.436,161.419A11.436,11.436,0,1,0,0,149.983a11.436,11.436,0,0,0,11.436,11.436" transform="translate(0 -42.484)" fill="#fff"/>
          <path id="Path_64633-16" data-name="Path 64633" d="M57.619,161.419a11.436,11.436,0,1,0-11.435-11.436,11.436,11.436,0,0,0,11.435,11.436" transform="translate(-14.162 -42.484)" fill="#fff"/>
          <path id="Path_64634-16" data-name="Path 64634" d="M11.436,207.6A11.436,11.436,0,1,0,0,196.166,11.436,11.436,0,0,0,11.436,207.6" transform="translate(0 -56.645)" fill="#fff"/>
          <path id="Path_64635-16" data-name="Path 64635" d="M57.619,207.6a11.436,11.436,0,1,0-11.435-11.435A11.435,11.435,0,0,0,57.619,207.6" transform="translate(-14.162 -56.645)" fill="#fff"/>
        </g>
      </g>
    </g>
    <g id="Group_6884" data-name="Group 6884" transform="translate(-149.012 -1725.166)" opacity="0.5">
      <g id="Group_6737-5" data-name="Group 6737" transform="translate(1684.42 5674.165)">
        <g id="Group_6736-17" data-name="Group 6736" clip-path="url(#clip-path)">
          <path id="Path_64626-17" data-name="Path 64626" d="M11.436,22.872A11.436,11.436,0,1,0,0,11.436,11.436,11.436,0,0,0,11.436,22.872" fill="#fff"/>
          <path id="Path_64627-17" data-name="Path 64627" d="M57.619,22.872A11.436,11.436,0,1,0,46.184,11.436,11.435,11.435,0,0,0,57.619,22.872" transform="translate(-14.162)" fill="#fff"/>
          <path id="Path_64628-17" data-name="Path 64628" d="M11.436,69.054A11.436,11.436,0,1,0,0,57.618,11.436,11.436,0,0,0,11.436,69.054" transform="translate(0 -14.161)" fill="#fff"/>
          <path id="Path_64629-17" data-name="Path 64629" d="M57.619,69.054A11.436,11.436,0,1,0,46.184,57.618,11.435,11.435,0,0,0,57.619,69.054" transform="translate(-14.162 -14.161)" fill="#fff"/>
          <path id="Path_64630-17" data-name="Path 64630" d="M11.436,115.237A11.436,11.436,0,1,0,0,103.8a11.437,11.437,0,0,0,11.436,11.436" transform="translate(0 -28.322)" fill="#fff"/>
          <path id="Path_64631-17" data-name="Path 64631" d="M57.619,115.237A11.436,11.436,0,1,0,46.184,103.8a11.436,11.436,0,0,0,11.435,11.436" transform="translate(-14.162 -28.322)" fill="#fff"/>
          <path id="Path_64632-17" data-name="Path 64632" d="M11.436,161.419A11.436,11.436,0,1,0,0,149.983a11.436,11.436,0,0,0,11.436,11.436" transform="translate(0 -42.484)" fill="#fff"/>
          <path id="Path_64633-17" data-name="Path 64633" d="M57.619,161.419a11.436,11.436,0,1,0-11.435-11.436,11.436,11.436,0,0,0,11.435,11.436" transform="translate(-14.162 -42.484)" fill="#fff"/>
          <path id="Path_64634-17" data-name="Path 64634" d="M11.436,207.6A11.436,11.436,0,1,0,0,196.166,11.436,11.436,0,0,0,11.436,207.6" transform="translate(0 -56.645)" fill="#fff"/>
          <path id="Path_64635-17" data-name="Path 64635" d="M57.619,207.6a11.436,11.436,0,1,0-11.435-11.435A11.435,11.435,0,0,0,57.619,207.6" transform="translate(-14.162 -56.645)" fill="#fff"/>
        </g>
      </g>
      <g id="Group_6738-5" data-name="Group 6738" transform="translate(1620 5674.165)">
        <g id="Group_6736-18" data-name="Group 6736" clip-path="url(#clip-path)">
          <path id="Path_64626-18" data-name="Path 64626" d="M11.436,22.872A11.436,11.436,0,1,0,0,11.436,11.436,11.436,0,0,0,11.436,22.872" fill="#fff"/>
          <path id="Path_64627-18" data-name="Path 64627" d="M57.619,22.872A11.436,11.436,0,1,0,46.184,11.436,11.435,11.435,0,0,0,57.619,22.872" transform="translate(-14.162)" fill="#fff"/>
          <path id="Path_64628-18" data-name="Path 64628" d="M11.436,69.054A11.436,11.436,0,1,0,0,57.618,11.436,11.436,0,0,0,11.436,69.054" transform="translate(0 -14.161)" fill="#fff"/>
          <path id="Path_64629-18" data-name="Path 64629" d="M57.619,69.054A11.436,11.436,0,1,0,46.184,57.618,11.435,11.435,0,0,0,57.619,69.054" transform="translate(-14.162 -14.161)" fill="#fff"/>
          <path id="Path_64630-18" data-name="Path 64630" d="M11.436,115.237A11.436,11.436,0,1,0,0,103.8a11.437,11.437,0,0,0,11.436,11.436" transform="translate(0 -28.322)" fill="#fff"/>
          <path id="Path_64631-18" data-name="Path 64631" d="M57.619,115.237A11.436,11.436,0,1,0,46.184,103.8a11.436,11.436,0,0,0,11.435,11.436" transform="translate(-14.162 -28.322)" fill="#fff"/>
          <path id="Path_64632-18" data-name="Path 64632" d="M11.436,161.419A11.436,11.436,0,1,0,0,149.983a11.436,11.436,0,0,0,11.436,11.436" transform="translate(0 -42.484)" fill="#fff"/>
          <path id="Path_64633-18" data-name="Path 64633" d="M57.619,161.419a11.436,11.436,0,1,0-11.435-11.436,11.436,11.436,0,0,0,11.435,11.436" transform="translate(-14.162 -42.484)" fill="#fff"/>
          <path id="Path_64634-18" data-name="Path 64634" d="M11.436,207.6A11.436,11.436,0,1,0,0,196.166,11.436,11.436,0,0,0,11.436,207.6" transform="translate(0 -56.645)" fill="#fff"/>
          <path id="Path_64635-18" data-name="Path 64635" d="M57.619,207.6a11.436,11.436,0,1,0-11.435-11.435A11.435,11.435,0,0,0,57.619,207.6" transform="translate(-14.162 -56.645)" fill="#fff"/>
        </g>
      </g>
      <g id="Group_6739-5" data-name="Group 6739" transform="translate(1748.699 5674.165)">
        <g id="Group_6736-19" data-name="Group 6736" clip-path="url(#clip-path)">
          <path id="Path_64626-19" data-name="Path 64626" d="M11.436,22.872A11.436,11.436,0,1,0,0,11.436,11.436,11.436,0,0,0,11.436,22.872" fill="#fff"/>
          <path id="Path_64627-19" data-name="Path 64627" d="M57.619,22.872A11.436,11.436,0,1,0,46.184,11.436,11.435,11.435,0,0,0,57.619,22.872" transform="translate(-14.162)" fill="#fff"/>
          <path id="Path_64628-19" data-name="Path 64628" d="M11.436,69.054A11.436,11.436,0,1,0,0,57.618,11.436,11.436,0,0,0,11.436,69.054" transform="translate(0 -14.161)" fill="#fff"/>
          <path id="Path_64629-19" data-name="Path 64629" d="M57.619,69.054A11.436,11.436,0,1,0,46.184,57.618,11.435,11.435,0,0,0,57.619,69.054" transform="translate(-14.162 -14.161)" fill="#fff"/>
          <path id="Path_64630-19" data-name="Path 64630" d="M11.436,115.237A11.436,11.436,0,1,0,0,103.8a11.437,11.437,0,0,0,11.436,11.436" transform="translate(0 -28.322)" fill="#fff"/>
          <path id="Path_64631-19" data-name="Path 64631" d="M57.619,115.237A11.436,11.436,0,1,0,46.184,103.8a11.436,11.436,0,0,0,11.435,11.436" transform="translate(-14.162 -28.322)" fill="#fff"/>
          <path id="Path_64632-19" data-name="Path 64632" d="M11.436,161.419A11.436,11.436,0,1,0,0,149.983a11.436,11.436,0,0,0,11.436,11.436" transform="translate(0 -42.484)" fill="#fff"/>
          <path id="Path_64633-19" data-name="Path 64633" d="M57.619,161.419a11.436,11.436,0,1,0-11.435-11.436,11.436,11.436,0,0,0,11.435,11.436" transform="translate(-14.162 -42.484)" fill="#fff"/>
          <path id="Path_64634-19" data-name="Path 64634" d="M11.436,207.6A11.436,11.436,0,1,0,0,196.166,11.436,11.436,0,0,0,11.436,207.6" transform="translate(0 -56.645)" fill="#fff"/>
          <path id="Path_64635-19" data-name="Path 64635" d="M57.619,207.6a11.436,11.436,0,1,0-11.435-11.435A11.435,11.435,0,0,0,57.619,207.6" transform="translate(-14.162 -56.645)" fill="#fff"/>
        </g>
      </g>
      <g id="Group_6740-5" data-name="Group 6740" transform="translate(1813.119 5674.165)">
        <g id="Group_6736-20" data-name="Group 6736" clip-path="url(#clip-path)">
          <path id="Path_64626-20" data-name="Path 64626" d="M11.436,22.872A11.436,11.436,0,1,0,0,11.436,11.436,11.436,0,0,0,11.436,22.872" fill="#fff"/>
          <path id="Path_64627-20" data-name="Path 64627" d="M57.619,22.872A11.436,11.436,0,1,0,46.184,11.436,11.435,11.435,0,0,0,57.619,22.872" transform="translate(-14.162)" fill="#fff"/>
          <path id="Path_64628-20" data-name="Path 64628" d="M11.436,69.054A11.436,11.436,0,1,0,0,57.618,11.436,11.436,0,0,0,11.436,69.054" transform="translate(0 -14.161)" fill="#fff"/>
          <path id="Path_64629-20" data-name="Path 64629" d="M57.619,69.054A11.436,11.436,0,1,0,46.184,57.618,11.435,11.435,0,0,0,57.619,69.054" transform="translate(-14.162 -14.161)" fill="#fff"/>
          <path id="Path_64630-20" data-name="Path 64630" d="M11.436,115.237A11.436,11.436,0,1,0,0,103.8a11.437,11.437,0,0,0,11.436,11.436" transform="translate(0 -28.322)" fill="#fff"/>
          <path id="Path_64631-20" data-name="Path 64631" d="M57.619,115.237A11.436,11.436,0,1,0,46.184,103.8a11.436,11.436,0,0,0,11.435,11.436" transform="translate(-14.162 -28.322)" fill="#fff"/>
          <path id="Path_64632-20" data-name="Path 64632" d="M11.436,161.419A11.436,11.436,0,1,0,0,149.983a11.436,11.436,0,0,0,11.436,11.436" transform="translate(0 -42.484)" fill="#fff"/>
          <path id="Path_64633-20" data-name="Path 64633" d="M57.619,161.419a11.436,11.436,0,1,0-11.435-11.436,11.436,11.436,0,0,0,11.435,11.436" transform="translate(-14.162 -42.484)" fill="#fff"/>
          <path id="Path_64634-20" data-name="Path 64634" d="M11.436,207.6A11.436,11.436,0,1,0,0,196.166,11.436,11.436,0,0,0,11.436,207.6" transform="translate(0 -56.645)" fill="#fff"/>
          <path id="Path_64635-20" data-name="Path 64635" d="M57.619,207.6a11.436,11.436,0,1,0-11.435-11.435A11.435,11.435,0,0,0,57.619,207.6" transform="translate(-14.162 -56.645)" fill="#fff"/>
        </g>
      </g>
    </g>
    <g id="Group_6886" data-name="Group 6886" transform="translate(-149.012 -1405.121)" opacity="0.5">
      <g id="Group_6737-6" data-name="Group 6737" transform="translate(1684.42 5674.165)">
        <g id="Group_6736-21" data-name="Group 6736" clip-path="url(#clip-path)">
          <path id="Path_64626-21" data-name="Path 64626" d="M11.436,22.872A11.436,11.436,0,1,0,0,11.436,11.436,11.436,0,0,0,11.436,22.872" fill="#fff"/>
          <path id="Path_64627-21" data-name="Path 64627" d="M57.619,22.872A11.436,11.436,0,1,0,46.184,11.436,11.435,11.435,0,0,0,57.619,22.872" transform="translate(-14.162)" fill="#fff"/>
          <path id="Path_64628-21" data-name="Path 64628" d="M11.436,69.054A11.436,11.436,0,1,0,0,57.618,11.436,11.436,0,0,0,11.436,69.054" transform="translate(0 -14.161)" fill="#fff"/>
          <path id="Path_64629-21" data-name="Path 64629" d="M57.619,69.054A11.436,11.436,0,1,0,46.184,57.618,11.435,11.435,0,0,0,57.619,69.054" transform="translate(-14.162 -14.161)" fill="#fff"/>
          <path id="Path_64630-21" data-name="Path 64630" d="M11.436,115.237A11.436,11.436,0,1,0,0,103.8a11.437,11.437,0,0,0,11.436,11.436" transform="translate(0 -28.322)" fill="#fff"/>
          <path id="Path_64631-21" data-name="Path 64631" d="M57.619,115.237A11.436,11.436,0,1,0,46.184,103.8a11.436,11.436,0,0,0,11.435,11.436" transform="translate(-14.162 -28.322)" fill="#fff"/>
          <path id="Path_64632-21" data-name="Path 64632" d="M11.436,161.419A11.436,11.436,0,1,0,0,149.983a11.436,11.436,0,0,0,11.436,11.436" transform="translate(0 -42.484)" fill="#fff"/>
          <path id="Path_64633-21" data-name="Path 64633" d="M57.619,161.419a11.436,11.436,0,1,0-11.435-11.436,11.436,11.436,0,0,0,11.435,11.436" transform="translate(-14.162 -42.484)" fill="#fff"/>
          <path id="Path_64634-21" data-name="Path 64634" d="M11.436,207.6A11.436,11.436,0,1,0,0,196.166,11.436,11.436,0,0,0,11.436,207.6" transform="translate(0 -56.645)" fill="#fff"/>
          <path id="Path_64635-21" data-name="Path 64635" d="M57.619,207.6a11.436,11.436,0,1,0-11.435-11.435A11.435,11.435,0,0,0,57.619,207.6" transform="translate(-14.162 -56.645)" fill="#fff"/>
        </g>
      </g>
      <g id="Group_6738-6" data-name="Group 6738" transform="translate(1620 5674.165)">
        <g id="Group_6736-22" data-name="Group 6736" clip-path="url(#clip-path)">
          <path id="Path_64626-22" data-name="Path 64626" d="M11.436,22.872A11.436,11.436,0,1,0,0,11.436,11.436,11.436,0,0,0,11.436,22.872" fill="#fff"/>
          <path id="Path_64627-22" data-name="Path 64627" d="M57.619,22.872A11.436,11.436,0,1,0,46.184,11.436,11.435,11.435,0,0,0,57.619,22.872" transform="translate(-14.162)" fill="#fff"/>
          <path id="Path_64628-22" data-name="Path 64628" d="M11.436,69.054A11.436,11.436,0,1,0,0,57.618,11.436,11.436,0,0,0,11.436,69.054" transform="translate(0 -14.161)" fill="#fff"/>
          <path id="Path_64629-22" data-name="Path 64629" d="M57.619,69.054A11.436,11.436,0,1,0,46.184,57.618,11.435,11.435,0,0,0,57.619,69.054" transform="translate(-14.162 -14.161)" fill="#fff"/>
          <path id="Path_64630-22" data-name="Path 64630" d="M11.436,115.237A11.436,11.436,0,1,0,0,103.8a11.437,11.437,0,0,0,11.436,11.436" transform="translate(0 -28.322)" fill="#fff"/>
          <path id="Path_64631-22" data-name="Path 64631" d="M57.619,115.237A11.436,11.436,0,1,0,46.184,103.8a11.436,11.436,0,0,0,11.435,11.436" transform="translate(-14.162 -28.322)" fill="#fff"/>
          <path id="Path_64632-22" data-name="Path 64632" d="M11.436,161.419A11.436,11.436,0,1,0,0,149.983a11.436,11.436,0,0,0,11.436,11.436" transform="translate(0 -42.484)" fill="#fff"/>
          <path id="Path_64633-22" data-name="Path 64633" d="M57.619,161.419a11.436,11.436,0,1,0-11.435-11.436,11.436,11.436,0,0,0,11.435,11.436" transform="translate(-14.162 -42.484)" fill="#fff"/>
          <path id="Path_64634-22" data-name="Path 64634" d="M11.436,207.6A11.436,11.436,0,1,0,0,196.166,11.436,11.436,0,0,0,11.436,207.6" transform="translate(0 -56.645)" fill="#fff"/>
          <path id="Path_64635-22" data-name="Path 64635" d="M57.619,207.6a11.436,11.436,0,1,0-11.435-11.435A11.435,11.435,0,0,0,57.619,207.6" transform="translate(-14.162 -56.645)" fill="#fff"/>
        </g>
      </g>
      <g id="Group_6739-6" data-name="Group 6739" transform="translate(1748.699 5674.165)">
        <g id="Group_6736-23" data-name="Group 6736" clip-path="url(#clip-path)">
          <path id="Path_64626-23" data-name="Path 64626" d="M11.436,22.872A11.436,11.436,0,1,0,0,11.436,11.436,11.436,0,0,0,11.436,22.872" fill="#fff"/>
          <path id="Path_64627-23" data-name="Path 64627" d="M57.619,22.872A11.436,11.436,0,1,0,46.184,11.436,11.435,11.435,0,0,0,57.619,22.872" transform="translate(-14.162)" fill="#fff"/>
          <path id="Path_64628-23" data-name="Path 64628" d="M11.436,69.054A11.436,11.436,0,1,0,0,57.618,11.436,11.436,0,0,0,11.436,69.054" transform="translate(0 -14.161)" fill="#fff"/>
          <path id="Path_64629-23" data-name="Path 64629" d="M57.619,69.054A11.436,11.436,0,1,0,46.184,57.618,11.435,11.435,0,0,0,57.619,69.054" transform="translate(-14.162 -14.161)" fill="#fff"/>
          <path id="Path_64630-23" data-name="Path 64630" d="M11.436,115.237A11.436,11.436,0,1,0,0,103.8a11.437,11.437,0,0,0,11.436,11.436" transform="translate(0 -28.322)" fill="#fff"/>
          <path id="Path_64631-23" data-name="Path 64631" d="M57.619,115.237A11.436,11.436,0,1,0,46.184,103.8a11.436,11.436,0,0,0,11.435,11.436" transform="translate(-14.162 -28.322)" fill="#fff"/>
          <path id="Path_64632-23" data-name="Path 64632" d="M11.436,161.419A11.436,11.436,0,1,0,0,149.983a11.436,11.436,0,0,0,11.436,11.436" transform="translate(0 -42.484)" fill="#fff"/>
          <path id="Path_64633-23" data-name="Path 64633" d="M57.619,161.419a11.436,11.436,0,1,0-11.435-11.436,11.436,11.436,0,0,0,11.435,11.436" transform="translate(-14.162 -42.484)" fill="#fff"/>
          <path id="Path_64634-23" data-name="Path 64634" d="M11.436,207.6A11.436,11.436,0,1,0,0,196.166,11.436,11.436,0,0,0,11.436,207.6" transform="translate(0 -56.645)" fill="#fff"/>
          <path id="Path_64635-23" data-name="Path 64635" d="M57.619,207.6a11.436,11.436,0,1,0-11.435-11.435A11.435,11.435,0,0,0,57.619,207.6" transform="translate(-14.162 -56.645)" fill="#fff"/>
        </g>
      </g>
      <g id="Group_6740-6" data-name="Group 6740" transform="translate(1813.119 5674.165)">
        <g id="Group_6736-24" data-name="Group 6736" clip-path="url(#clip-path)">
          <path id="Path_64626-24" data-name="Path 64626" d="M11.436,22.872A11.436,11.436,0,1,0,0,11.436,11.436,11.436,0,0,0,11.436,22.872" fill="#fff"/>
          <path id="Path_64627-24" data-name="Path 64627" d="M57.619,22.872A11.436,11.436,0,1,0,46.184,11.436,11.435,11.435,0,0,0,57.619,22.872" transform="translate(-14.162)" fill="#fff"/>
          <path id="Path_64628-24" data-name="Path 64628" d="M11.436,69.054A11.436,11.436,0,1,0,0,57.618,11.436,11.436,0,0,0,11.436,69.054" transform="translate(0 -14.161)" fill="#fff"/>
          <path id="Path_64629-24" data-name="Path 64629" d="M57.619,69.054A11.436,11.436,0,1,0,46.184,57.618,11.435,11.435,0,0,0,57.619,69.054" transform="translate(-14.162 -14.161)" fill="#fff"/>
          <path id="Path_64630-24" data-name="Path 64630" d="M11.436,115.237A11.436,11.436,0,1,0,0,103.8a11.437,11.437,0,0,0,11.436,11.436" transform="translate(0 -28.322)" fill="#fff"/>
          <path id="Path_64631-24" data-name="Path 64631" d="M57.619,115.237A11.436,11.436,0,1,0,46.184,103.8a11.436,11.436,0,0,0,11.435,11.436" transform="translate(-14.162 -28.322)" fill="#fff"/>
          <path id="Path_64632-24" data-name="Path 64632" d="M11.436,161.419A11.436,11.436,0,1,0,0,149.983a11.436,11.436,0,0,0,11.436,11.436" transform="translate(0 -42.484)" fill="#fff"/>
          <path id="Path_64633-24" data-name="Path 64633" d="M57.619,161.419a11.436,11.436,0,1,0-11.435-11.436,11.436,11.436,0,0,0,11.435,11.436" transform="translate(-14.162 -42.484)" fill="#fff"/>
          <path id="Path_64634-24" data-name="Path 64634" d="M11.436,207.6A11.436,11.436,0,1,0,0,196.166,11.436,11.436,0,0,0,11.436,207.6" transform="translate(0 -56.645)" fill="#fff"/>
          <path id="Path_64635-24" data-name="Path 64635" d="M57.619,207.6a11.436,11.436,0,1,0-11.435-11.435A11.435,11.435,0,0,0,57.619,207.6" transform="translate(-14.162 -56.645)" fill="#fff"/>
        </g>
      </g>
    </g>
    <g id="Group_6888" data-name="Group 6888" transform="translate(-149.012 -1244.121)" opacity="0.5">
      <g id="Group_6737-7" data-name="Group 6737" transform="translate(1684.42 5674.165)">
        <g id="Group_6736-25" data-name="Group 6736" clip-path="url(#clip-path)">
          <path id="Path_64626-25" data-name="Path 64626" d="M11.436,22.872A11.436,11.436,0,1,0,0,11.436,11.436,11.436,0,0,0,11.436,22.872" fill="#fff"/>
          <path id="Path_64627-25" data-name="Path 64627" d="M57.619,22.872A11.436,11.436,0,1,0,46.184,11.436,11.435,11.435,0,0,0,57.619,22.872" transform="translate(-14.162)" fill="#fff"/>
          <path id="Path_64628-25" data-name="Path 64628" d="M11.436,69.054A11.436,11.436,0,1,0,0,57.618,11.436,11.436,0,0,0,11.436,69.054" transform="translate(0 -14.161)" fill="#fff"/>
          <path id="Path_64629-25" data-name="Path 64629" d="M57.619,69.054A11.436,11.436,0,1,0,46.184,57.618,11.435,11.435,0,0,0,57.619,69.054" transform="translate(-14.162 -14.161)" fill="#fff"/>
          <path id="Path_64630-25" data-name="Path 64630" d="M11.436,115.237A11.436,11.436,0,1,0,0,103.8a11.437,11.437,0,0,0,11.436,11.436" transform="translate(0 -28.322)" fill="#fff"/>
          <path id="Path_64631-25" data-name="Path 64631" d="M57.619,115.237A11.436,11.436,0,1,0,46.184,103.8a11.436,11.436,0,0,0,11.435,11.436" transform="translate(-14.162 -28.322)" fill="#fff"/>
          <path id="Path_64632-25" data-name="Path 64632" d="M11.436,161.419A11.436,11.436,0,1,0,0,149.983a11.436,11.436,0,0,0,11.436,11.436" transform="translate(0 -42.484)" fill="#fff"/>
          <path id="Path_64633-25" data-name="Path 64633" d="M57.619,161.419a11.436,11.436,0,1,0-11.435-11.436,11.436,11.436,0,0,0,11.435,11.436" transform="translate(-14.162 -42.484)" fill="#fff"/>
          <path id="Path_64634-25" data-name="Path 64634" d="M11.436,207.6A11.436,11.436,0,1,0,0,196.166,11.436,11.436,0,0,0,11.436,207.6" transform="translate(0 -56.645)" fill="#fff"/>
          <path id="Path_64635-25" data-name="Path 64635" d="M57.619,207.6a11.436,11.436,0,1,0-11.435-11.435A11.435,11.435,0,0,0,57.619,207.6" transform="translate(-14.162 -56.645)" fill="#fff"/>
        </g>
      </g>
      <g id="Group_6738-7" data-name="Group 6738" transform="translate(1620 5674.165)">
        <g id="Group_6736-26" data-name="Group 6736" clip-path="url(#clip-path)">
          <path id="Path_64626-26" data-name="Path 64626" d="M11.436,22.872A11.436,11.436,0,1,0,0,11.436,11.436,11.436,0,0,0,11.436,22.872" fill="#fff"/>
          <path id="Path_64627-26" data-name="Path 64627" d="M57.619,22.872A11.436,11.436,0,1,0,46.184,11.436,11.435,11.435,0,0,0,57.619,22.872" transform="translate(-14.162)" fill="#fff"/>
          <path id="Path_64628-26" data-name="Path 64628" d="M11.436,69.054A11.436,11.436,0,1,0,0,57.618,11.436,11.436,0,0,0,11.436,69.054" transform="translate(0 -14.161)" fill="#fff"/>
          <path id="Path_64629-26" data-name="Path 64629" d="M57.619,69.054A11.436,11.436,0,1,0,46.184,57.618,11.435,11.435,0,0,0,57.619,69.054" transform="translate(-14.162 -14.161)" fill="#fff"/>
          <path id="Path_64630-26" data-name="Path 64630" d="M11.436,115.237A11.436,11.436,0,1,0,0,103.8a11.437,11.437,0,0,0,11.436,11.436" transform="translate(0 -28.322)" fill="#fff"/>
          <path id="Path_64631-26" data-name="Path 64631" d="M57.619,115.237A11.436,11.436,0,1,0,46.184,103.8a11.436,11.436,0,0,0,11.435,11.436" transform="translate(-14.162 -28.322)" fill="#fff"/>
          <path id="Path_64632-26" data-name="Path 64632" d="M11.436,161.419A11.436,11.436,0,1,0,0,149.983a11.436,11.436,0,0,0,11.436,11.436" transform="translate(0 -42.484)" fill="#fff"/>
          <path id="Path_64633-26" data-name="Path 64633" d="M57.619,161.419a11.436,11.436,0,1,0-11.435-11.436,11.436,11.436,0,0,0,11.435,11.436" transform="translate(-14.162 -42.484)" fill="#fff"/>
          <path id="Path_64634-26" data-name="Path 64634" d="M11.436,207.6A11.436,11.436,0,1,0,0,196.166,11.436,11.436,0,0,0,11.436,207.6" transform="translate(0 -56.645)" fill="#fff"/>
          <path id="Path_64635-26" data-name="Path 64635" d="M57.619,207.6a11.436,11.436,0,1,0-11.435-11.435A11.435,11.435,0,0,0,57.619,207.6" transform="translate(-14.162 -56.645)" fill="#fff"/>
        </g>
      </g>
      <g id="Group_6739-7" data-name="Group 6739" transform="translate(1748.699 5674.165)">
        <g id="Group_6736-27" data-name="Group 6736" clip-path="url(#clip-path)">
          <path id="Path_64626-27" data-name="Path 64626" d="M11.436,22.872A11.436,11.436,0,1,0,0,11.436,11.436,11.436,0,0,0,11.436,22.872" fill="#fff"/>
          <path id="Path_64627-27" data-name="Path 64627" d="M57.619,22.872A11.436,11.436,0,1,0,46.184,11.436,11.435,11.435,0,0,0,57.619,22.872" transform="translate(-14.162)" fill="#fff"/>
          <path id="Path_64628-27" data-name="Path 64628" d="M11.436,69.054A11.436,11.436,0,1,0,0,57.618,11.436,11.436,0,0,0,11.436,69.054" transform="translate(0 -14.161)" fill="#fff"/>
          <path id="Path_64629-27" data-name="Path 64629" d="M57.619,69.054A11.436,11.436,0,1,0,46.184,57.618,11.435,11.435,0,0,0,57.619,69.054" transform="translate(-14.162 -14.161)" fill="#fff"/>
          <path id="Path_64630-27" data-name="Path 64630" d="M11.436,115.237A11.436,11.436,0,1,0,0,103.8a11.437,11.437,0,0,0,11.436,11.436" transform="translate(0 -28.322)" fill="#fff"/>
          <path id="Path_64631-27" data-name="Path 64631" d="M57.619,115.237A11.436,11.436,0,1,0,46.184,103.8a11.436,11.436,0,0,0,11.435,11.436" transform="translate(-14.162 -28.322)" fill="#fff"/>
          <path id="Path_64632-27" data-name="Path 64632" d="M11.436,161.419A11.436,11.436,0,1,0,0,149.983a11.436,11.436,0,0,0,11.436,11.436" transform="translate(0 -42.484)" fill="#fff"/>
          <path id="Path_64633-27" data-name="Path 64633" d="M57.619,161.419a11.436,11.436,0,1,0-11.435-11.436,11.436,11.436,0,0,0,11.435,11.436" transform="translate(-14.162 -42.484)" fill="#fff"/>
          <path id="Path_64634-27" data-name="Path 64634" d="M11.436,207.6A11.436,11.436,0,1,0,0,196.166,11.436,11.436,0,0,0,11.436,207.6" transform="translate(0 -56.645)" fill="#fff"/>
          <path id="Path_64635-27" data-name="Path 64635" d="M57.619,207.6a11.436,11.436,0,1,0-11.435-11.435A11.435,11.435,0,0,0,57.619,207.6" transform="translate(-14.162 -56.645)" fill="#fff"/>
        </g>
      </g>
      <g id="Group_6740-7" data-name="Group 6740" transform="translate(1813.119 5674.165)">
        <g id="Group_6736-28" data-name="Group 6736" clip-path="url(#clip-path)">
          <path id="Path_64626-28" data-name="Path 64626" d="M11.436,22.872A11.436,11.436,0,1,0,0,11.436,11.436,11.436,0,0,0,11.436,22.872" fill="#fff"/>
          <path id="Path_64627-28" data-name="Path 64627" d="M57.619,22.872A11.436,11.436,0,1,0,46.184,11.436,11.435,11.435,0,0,0,57.619,22.872" transform="translate(-14.162)" fill="#fff"/>
          <path id="Path_64628-28" data-name="Path 64628" d="M11.436,69.054A11.436,11.436,0,1,0,0,57.618,11.436,11.436,0,0,0,11.436,69.054" transform="translate(0 -14.161)" fill="#fff"/>
          <path id="Path_64629-28" data-name="Path 64629" d="M57.619,69.054A11.436,11.436,0,1,0,46.184,57.618,11.435,11.435,0,0,0,57.619,69.054" transform="translate(-14.162 -14.161)" fill="#fff"/>
          <path id="Path_64630-28" data-name="Path 64630" d="M11.436,115.237A11.436,11.436,0,1,0,0,103.8a11.437,11.437,0,0,0,11.436,11.436" transform="translate(0 -28.322)" fill="#fff"/>
          <path id="Path_64631-28" data-name="Path 64631" d="M57.619,115.237A11.436,11.436,0,1,0,46.184,103.8a11.436,11.436,0,0,0,11.435,11.436" transform="translate(-14.162 -28.322)" fill="#fff"/>
          <path id="Path_64632-28" data-name="Path 64632" d="M11.436,161.419A11.436,11.436,0,1,0,0,149.983a11.436,11.436,0,0,0,11.436,11.436" transform="translate(0 -42.484)" fill="#fff"/>
          <path id="Path_64633-28" data-name="Path 64633" d="M57.619,161.419a11.436,11.436,0,1,0-11.435-11.436,11.436,11.436,0,0,0,11.435,11.436" transform="translate(-14.162 -42.484)" fill="#fff"/>
          <path id="Path_64634-28" data-name="Path 64634" d="M11.436,207.6A11.436,11.436,0,1,0,0,196.166,11.436,11.436,0,0,0,11.436,207.6" transform="translate(0 -56.645)" fill="#fff"/>
          <path id="Path_64635-28" data-name="Path 64635" d="M57.619,207.6a11.436,11.436,0,1,0-11.435-11.435A11.435,11.435,0,0,0,57.619,207.6" transform="translate(-14.162 -56.645)" fill="#fff"/>
        </g>
      </g>
    </g>
  </g>
</svg>
