<svg xmlns="http://www.w3.org/2000/svg" width="175" height="197" viewBox="0 0 175 197">
  <g id="Group_6880" data-name="Group 6880" transform="translate(-1739 -1869)">
    <circle id="Ellipse_36" data-name="Ellipse 36" cx="7.5" cy="7.5" r="7.5" transform="translate(1899 2051)" fill="#e1dddb" opacity="0.3"/>
    <circle id="Ellipse_43" data-name="Ellipse 43" cx="7.5" cy="7.5" r="7.5" transform="translate(1899 2001)" fill="#e1dddb" opacity="0.3"/>
    <circle id="Ellipse_45" data-name="Ellipse 45" cx="7.5" cy="7.5" r="7.5" transform="translate(1899 1951)" fill="#e1dddb" opacity="0.3"/>
    <circle id="Ellipse_40" data-name="Ellipse 40" cx="7.5" cy="7.5" r="7.5" transform="translate(1849 2051)" fill="#e1dddb" opacity="0.3"/>
    <circle id="Ellipse_42" data-name="Ellipse 42" cx="7.5" cy="7.5" r="7.5" transform="translate(1799 2051)" fill="#e1dddb" opacity="0.3"/>
    <circle id="Ellipse_38" data-name="Ellipse 38" cx="7.5" cy="7.5" r="7.5" transform="translate(1874 2051)" fill="#e1dddb" opacity="0.3"/>
    <circle id="Ellipse_47" data-name="Ellipse 47" cx="7.5" cy="7.5" r="7.5" transform="translate(1874 2026)" fill="#e1dddb" opacity="0.3"/>
    <circle id="Ellipse_52" data-name="Ellipse 52" cx="7.5" cy="7.5" r="7.5" transform="translate(1824 2026)" fill="#e1dddb" opacity="0.3"/>
    <circle id="Ellipse_53" data-name="Ellipse 53" cx="7.5" cy="7.5" r="7.5" transform="translate(1799 2026)" fill="#e1dddb" opacity="0.3"/>
    <circle id="Ellipse_57" data-name="Ellipse 57" cx="7.5" cy="7.5" r="7.5" transform="translate(1756 1998)" fill="#e1dddb" opacity="0.3"/>
    <circle id="Ellipse_62" data-name="Ellipse 62" cx="7.5" cy="7.5" r="7.5" transform="translate(1739 1944)" fill="#e1dddb" opacity="0.3"/>
    <circle id="Ellipse_48" data-name="Ellipse 48" cx="7.5" cy="7.5" r="7.5" transform="translate(1874 2001)" fill="#e1dddb" opacity="0.3"/>
    <circle id="Ellipse_49" data-name="Ellipse 49" cx="7.5" cy="7.5" r="7.5" transform="translate(1874 1976)" fill="#e1dddb" opacity="0.3"/>
    <circle id="Ellipse_50" data-name="Ellipse 50" cx="7.5" cy="7.5" r="7.5" transform="translate(1874 1951)" fill="#e1dddb" opacity="0.3"/>
    <circle id="Ellipse_60" data-name="Ellipse 60" cx="7.5" cy="7.5" r="7.5" transform="translate(1862 1869)" fill="#e1dddb" opacity="0.3"/>
    <circle id="Ellipse_39" data-name="Ellipse 39" cx="7.5" cy="7.5" r="7.5" transform="translate(1824 2051)" fill="#e1dddb" opacity="0.3"/>
    <circle id="Ellipse_41" data-name="Ellipse 41" cx="7.5" cy="7.5" r="7.5" transform="translate(1774 2051)" fill="#e1dddb" opacity="0.3"/>
    <circle id="Ellipse_61" data-name="Ellipse 61" cx="7.5" cy="7.5" r="7.5" transform="translate(1743 2039)" fill="#e1dddb" opacity="0.3"/>
    <circle id="Ellipse_37" data-name="Ellipse 37" cx="7.5" cy="7.5" r="7.5" transform="translate(1899 2026)" fill="#e1dddb" opacity="0.3"/>
    <circle id="Ellipse_51" data-name="Ellipse 51" cx="7.5" cy="7.5" r="7.5" transform="translate(1849 2026)" fill="#e1dddb" opacity="0.3"/>
    <circle id="Ellipse_54" data-name="Ellipse 54" cx="7.5" cy="7.5" r="7.5" transform="translate(1849 2001)" fill="#e1dddb" opacity="0.3"/>
    <circle id="Ellipse_56" data-name="Ellipse 56" cx="7.5" cy="7.5" r="7.5" transform="translate(1824 2001)" fill="#e1dddb" opacity="0.3"/>
    <circle id="Ellipse_58" data-name="Ellipse 58" cx="7.5" cy="7.5" r="7.5" transform="translate(1795 1969)" fill="#e1dddb" opacity="0.3"/>
    <circle id="Ellipse_55" data-name="Ellipse 55" cx="7.5" cy="7.5" r="7.5" transform="translate(1849 1976)" fill="#e1dddb" opacity="0.3"/>
    <circle id="Ellipse_59" data-name="Ellipse 59" cx="7.5" cy="7.5" r="7.5" transform="translate(1842 1931)" fill="#e1dddb" opacity="0.3"/>
    <circle id="Ellipse_44" data-name="Ellipse 44" cx="7.5" cy="7.5" r="7.5" transform="translate(1899 1976)" fill="#e1dddb" opacity="0.3"/>
    <circle id="Ellipse_46" data-name="Ellipse 46" cx="7.5" cy="7.5" r="7.5" transform="translate(1899 1926)" fill="#e1dddb" opacity="0.3"/>
  </g>
</svg>
