<svg xmlns="http://www.w3.org/2000/svg" width="16.974" height="15.505" viewBox="0 0 16.974 15.505">
  <g id="linked-in-logo-of-two-letters" transform="translate(-0.001 0)">
    <g id="Group_162279" data-name="Group 162279" transform="translate(0.001 0)">
      <path id="Path_83318" data-name="Path 83318" d="M.551,189.6H2.758a.551.551,0,0,0,.551-.551V179.4a.551.551,0,0,0-.551-.551H.551A.551.551,0,0,0,0,179.4v9.645A.551.551,0,0,0,.551,189.6Z" transform="translate(0 -174.092)" fill="#1e1e1e"/>
      <path id="Path_83319" data-name="Path 83319" d="M.551,26.978H2.758a.551.551,0,0,0,.551-.551V24.467a.551.551,0,0,0-.551-.551H.551A.551.551,0,0,0,0,24.467v1.959A.551.551,0,0,0,.551,26.978Z" transform="translate(0 -23.916)" fill="#1e1e1e"/>
      <path id="Path_83320" data-name="Path 83320" d="M192.113,171.046a3.355,3.355,0,0,0-1.372-1.007,4.967,4.967,0,0,0-2-.394,4.9,4.9,0,0,0-3.768,1.7c-.2.225-.354.176-.354-.129v-.735a.551.551,0,0,0-.551-.551H182.1a.551.551,0,0,0-.551.551v9.645a.551.551,0,0,0,.551.551H184.3a.551.551,0,0,0,.551-.551V176.77a10.788,10.788,0,0,1,.253-2.873,2.373,2.373,0,0,1,.936-1.248,2.653,2.653,0,0,1,1.543-.471,1.969,1.969,0,0,1,1.148.33,1.838,1.838,0,0,1,.689.924,9.86,9.86,0,0,1,.212,2.62v4.073a.551.551,0,0,0,.551.551h2.207a.551.551,0,0,0,.551-.551v-5.462a10.346,10.346,0,0,0-.182-2.226A3.646,3.646,0,0,0,192.113,171.046Z" transform="translate(-175.969 -165.17)" fill="#1e1e1e"/>
    </g>
  </g>
</svg>
