<svg id="Group_2238" data-name="Group 2238" xmlns="http://www.w3.org/2000/svg" width="22.569" height="22.602" viewBox="0 0 22.569 22.602">
  <path id="Path_1693" data-name="Path 1693" d="M18.19,40.1a2.223,2.223,0,0,0-1.612-.739,2.3,2.3,0,0,0-1.631.735l-1.507,1.5c-.124-.067-.248-.129-.367-.191-.172-.086-.334-.167-.472-.253a16.383,16.383,0,0,1-3.926-3.578,9.665,9.665,0,0,1-1.288-2.032c.391-.358.754-.73,1.107-1.088.134-.134.267-.272.4-.405a2.189,2.189,0,0,0,0-3.3l-1.3-1.3c-.148-.148-.3-.3-.444-.453-.286-.3-.587-.6-.9-.887a2.258,2.258,0,0,0-1.6-.7,2.337,2.337,0,0,0-1.622.7l-.01.01L1.4,29.753A3.49,3.49,0,0,0,.364,31.971a8.362,8.362,0,0,0,.611,3.539A20.539,20.539,0,0,0,4.624,41.6,22.448,22.448,0,0,0,12.1,47.45a11.646,11.646,0,0,0,4.2,1.24c.1,0,.205.01.3.01a3.594,3.594,0,0,0,2.752-1.183c0-.01.014-.014.019-.024a10.843,10.843,0,0,1,.835-.863c.205-.2.415-.4.62-.615a2.38,2.38,0,0,0,.72-1.65,2.293,2.293,0,0,0-.735-1.636ZM19.9,45.123s0,0,0,0c-.186.2-.377.382-.582.582a12.541,12.541,0,0,0-.921.954,2.3,2.3,0,0,1-1.794.758c-.072,0-.148,0-.219,0A10.346,10.346,0,0,1,12.662,46.3a21.19,21.19,0,0,1-7.041-5.514,19.366,19.366,0,0,1-3.435-5.719,6.811,6.811,0,0,1-.534-2.986,2.19,2.19,0,0,1,.658-1.417l1.627-1.627a1.084,1.084,0,0,1,.725-.339,1.02,1.02,0,0,1,.7.334l.014.014c.291.272.568.553.859.854.148.153.3.305.453.463l1.3,1.3a.91.91,0,0,1,0,1.479c-.138.138-.272.277-.41.41-.4.41-.782.792-1.2,1.164-.01.01-.019.014-.024.024a.973.973,0,0,0-.248,1.083l.014.043a10.455,10.455,0,0,0,1.541,2.514l0,0A17.508,17.508,0,0,0,11.9,42.237a6.512,6.512,0,0,0,.587.32c.172.086.334.167.472.253.019.01.038.024.057.033a1.034,1.034,0,0,0,.472.119,1.02,1.02,0,0,0,.725-.329L15.848,41a1.079,1.079,0,0,1,.72-.358.972.972,0,0,1,.687.348l.01.01,2.628,2.628A.943.943,0,0,1,19.9,45.123Z" transform="translate(-0.345 -26.099)" fill="#0fa4de"/>
  <path id="Path_1694" data-name="Path 1694" d="M245.474,87.2a6.139,6.139,0,0,1,5,5,.64.64,0,0,0,.634.534.85.85,0,0,0,.11-.01.645.645,0,0,0,.529-.744,7.423,7.423,0,0,0-6.049-6.049.647.647,0,0,0-.744.525A.637.637,0,0,0,245.474,87.2Z" transform="translate(-233.276 -81.826)" fill="#0fa4de"/>
  <path id="Path_1695" data-name="Path 1695" d="M259.484,9.97a12.224,12.224,0,0,0-9.96-9.96.643.643,0,1,0-.21,1.269,10.918,10.918,0,0,1,8.9,8.9.64.64,0,0,0,.634.534.851.851,0,0,0,.11-.01A.632.632,0,0,0,259.484,9.97Z" transform="translate(-236.925 0)" fill="#0fa4de"/>
</svg>
