<svg xmlns="http://www.w3.org/2000/svg" width="26.847" height="13.609" viewBox="0 0 26.847 13.609">
  <g id="Group_6444" data-name="Group 6444" transform="translate(-1091.001 -875)">
    <path id="Path_1689" data-name="Path 1689" d="M70.959,98.857l.03-.007.025-.007.029-.01.025-.009.026-.012.025-.012.024-.014.025-.015.025-.018.021-.016c.013-.01.025-.021.036-.033l.006-.006.006-.007c.011-.011.022-.023.032-.036l.017-.022.017-.023.016-.026.013-.022c0-.009.009-.018.013-.027l.011-.024c0-.009.007-.018.01-.027s.007-.018.009-.027,0-.018.007-.028,0-.018.007-.027,0-.022.005-.033,0-.015,0-.023a.579.579,0,0,0,0-.058V85.842a.582.582,0,0,0-.582-.582H52.49l-.033,0-.026,0-.03,0-.027.006-.028.007-.027.008-.027.01-.025.01-.027.013-.023.012-.027.016-.021.014-.024.018-.021.018-.021.019-.022.023-.011.011-.006.007-.021.026-.015.02-.017.027L52,85.558l-.014.027-.012.025-.01.027-.01.026c0,.009-.005.018-.008.027s-.005.019-.007.028,0,.018,0,.027,0,.02,0,.03,0,.017,0,.025,0,.022,0,.033,0,.006,0,.009v3.59a.582.582,0,0,0,1.164,0v-2.3l5.176,4.583a.589.589,0,0,0-.077.064l-5.1,5.1V93.055a.582.582,0,0,0-1.164,0v.711H48.915a.582.582,0,1,0,0,1.164h3.008v3.356a.582.582,0,0,0,.582.582h18.34l.057,0,.026,0Zm-.7-1.976-5.1-5.1-.01-.009,3.834-3.252a.582.582,0,1,0-.753-.888l-6.55,5.557-7.642-6.766H70.263V96.881ZM59.01,92.605a.58.58,0,0,0,.1-.137L61.29,94.4a.582.582,0,0,0,.763.008l2.219-1.883a.586.586,0,0,0,.069.084l5.1,5.1H53.911Z" transform="translate(1046.42 789.74)" fill="#0fa4de"/>
    <path id="Path_1690" data-name="Path 1690" d="M.582,156.84h9.833a.582.582,0,1,0,0-1.164H.582a.582.582,0,1,0,0,1.164Z" transform="translate(1091.001 724.79)" fill="#0fa4de"/>
    <path id="Path_1691" data-name="Path 1691" d="M13.707,115.509h4.415a.582.582,0,1,0,0-1.164H13.707a.582.582,0,1,0,0,1.164Z" transform="translate(1078.895 762.913)" fill="#0fa4de"/>
    <path id="Path_1692" data-name="Path 1692" d="M4.852,226.51H.582a.582.582,0,1,0,0,1.164h4.27a.582.582,0,1,0,0-1.164Z" transform="translate(1091.001 659.454)" fill="#0fa4de"/>
  </g>
</svg>
