<svg xmlns="http://www.w3.org/2000/svg" width="323.717" height="153.825" viewBox="0 0 323.717 153.825">
  <g id="Group_7230" data-name="Group 7230" transform="translate(-2987.115 -567.781)" opacity="0.503">
    <g id="Group_7115" data-name="Group 7115" transform="translate(2987.115 567.781)">
      <path id="Path_64820" data-name="Path 64820" d="M2991.374,567.781a4.259,4.259,0,1,0,4.259,4.259A4.264,4.264,0,0,0,2991.374,567.781Z" transform="translate(-2987.115 -567.781)" fill="#fff"/>
    </g>
    <g id="Group_7116" data-name="Group 7116" transform="translate(3011.362 567.781)">
      <path id="Path_64821" data-name="Path 64821" d="M3025.283,567.781a4.259,4.259,0,1,0,4.26,4.259A4.264,4.264,0,0,0,3025.283,567.781Z" transform="translate(-3021.024 -567.781)" fill="#fff"/>
    </g>
    <g id="Group_7117" data-name="Group 7117" transform="translate(3035.609 567.781)">
      <path id="Path_64822" data-name="Path 64822" d="M3059.192,567.781a4.259,4.259,0,1,0,4.259,4.259A4.263,4.263,0,0,0,3059.192,567.781Z" transform="translate(-3054.933 -567.781)" fill="#fff"/>
    </g>
    <g id="Group_7118" data-name="Group 7118" transform="translate(3059.855 567.781)">
      <path id="Path_64823" data-name="Path 64823" d="M3093.1,567.781a4.259,4.259,0,1,0,4.259,4.259A4.264,4.264,0,0,0,3093.1,567.781Z" transform="translate(-3088.842 -567.781)" fill="#fff"/>
    </g>
    <g id="Group_7119" data-name="Group 7119" transform="translate(3084.102 567.781)">
      <path id="Path_64824" data-name="Path 64824" d="M3127.01,567.781a4.259,4.259,0,1,0,4.259,4.259A4.264,4.264,0,0,0,3127.01,567.781Z" transform="translate(-3122.751 -567.781)" fill="#fff"/>
    </g>
    <g id="Group_7120" data-name="Group 7120" transform="translate(3108.349 567.781)">
      <path id="Path_64825" data-name="Path 64825" d="M3160.919,567.781a4.259,4.259,0,1,0,4.259,4.259A4.264,4.264,0,0,0,3160.919,567.781Z" transform="translate(-3156.66 -567.781)" fill="#fff"/>
    </g>
    <g id="Group_7121" data-name="Group 7121" transform="translate(3132.596 567.781)">
      <path id="Path_64826" data-name="Path 64826" d="M3194.828,567.781a4.259,4.259,0,1,0,4.259,4.259A4.264,4.264,0,0,0,3194.828,567.781Z" transform="translate(-3190.569 -567.781)" fill="#fff"/>
    </g>
    <g id="Group_7122" data-name="Group 7122" transform="translate(2987.115 592.022)">
      <path id="Path_64827" data-name="Path 64827" d="M2991.374,601.682a4.259,4.259,0,1,0,4.259,4.259A4.264,4.264,0,0,0,2991.374,601.682Z" transform="translate(-2987.115 -601.682)" fill="#fff"/>
    </g>
    <g id="Group_7123" data-name="Group 7123" transform="translate(3011.362 592.022)">
      <path id="Path_64828" data-name="Path 64828" d="M3025.283,601.682a4.259,4.259,0,1,0,4.26,4.259A4.264,4.264,0,0,0,3025.283,601.682Z" transform="translate(-3021.024 -601.682)" fill="#fff"/>
    </g>
    <g id="Group_7124" data-name="Group 7124" transform="translate(3035.609 592.022)">
      <path id="Path_64829" data-name="Path 64829" d="M3059.192,601.682a4.259,4.259,0,1,0,4.259,4.259A4.263,4.263,0,0,0,3059.192,601.682Z" transform="translate(-3054.933 -601.682)" fill="#fff"/>
    </g>
    <g id="Group_7125" data-name="Group 7125" transform="translate(3059.855 592.022)">
      <path id="Path_64830" data-name="Path 64830" d="M3093.1,601.682a4.259,4.259,0,1,0,4.259,4.259A4.264,4.264,0,0,0,3093.1,601.682Z" transform="translate(-3088.842 -601.682)" fill="#fff"/>
    </g>
    <g id="Group_7126" data-name="Group 7126" transform="translate(3084.102 592.022)">
      <path id="Path_64831" data-name="Path 64831" d="M3127.01,601.682a4.259,4.259,0,1,0,4.259,4.259A4.264,4.264,0,0,0,3127.01,601.682Z" transform="translate(-3122.751 -601.682)" fill="#fff"/>
    </g>
    <g id="Group_7127" data-name="Group 7127" transform="translate(3108.349 592.022)">
      <path id="Path_64832" data-name="Path 64832" d="M3160.919,601.682a4.259,4.259,0,1,0,4.259,4.259A4.264,4.264,0,0,0,3160.919,601.682Z" transform="translate(-3156.66 -601.682)" fill="#fff"/>
    </g>
    <g id="Group_7128" data-name="Group 7128" transform="translate(3132.596 592.022)">
      <path id="Path_64833" data-name="Path 64833" d="M3194.828,601.682a4.259,4.259,0,1,0,4.259,4.259A4.264,4.264,0,0,0,3194.828,601.682Z" transform="translate(-3190.569 -601.682)" fill="#fff"/>
    </g>
    <g id="Group_7129" data-name="Group 7129" transform="translate(2987.115 616.112)">
      <path id="Path_64834" data-name="Path 64834" d="M2991.374,635.372a4.259,4.259,0,1,0,4.259,4.259A4.264,4.264,0,0,0,2991.374,635.372Z" transform="translate(-2987.115 -635.372)" fill="#fff"/>
    </g>
    <g id="Group_7130" data-name="Group 7130" transform="translate(3011.362 616.112)">
      <path id="Path_64835" data-name="Path 64835" d="M3025.283,635.372a4.259,4.259,0,1,0,4.26,4.259A4.264,4.264,0,0,0,3025.283,635.372Z" transform="translate(-3021.024 -635.372)" fill="#fff"/>
    </g>
    <g id="Group_7131" data-name="Group 7131" transform="translate(3035.609 616.112)">
      <path id="Path_64836" data-name="Path 64836" d="M3059.192,635.372a4.259,4.259,0,1,0,4.259,4.259A4.263,4.263,0,0,0,3059.192,635.372Z" transform="translate(-3054.933 -635.372)" fill="#fff"/>
    </g>
    <g id="Group_7132" data-name="Group 7132" transform="translate(3059.855 616.112)">
      <path id="Path_64837" data-name="Path 64837" d="M3093.1,635.372a4.259,4.259,0,1,0,4.259,4.259A4.264,4.264,0,0,0,3093.1,635.372Z" transform="translate(-3088.842 -635.372)" fill="#fff"/>
    </g>
    <g id="Group_7133" data-name="Group 7133" transform="translate(3084.102 616.112)">
      <path id="Path_64838" data-name="Path 64838" d="M3127.01,635.372a4.259,4.259,0,1,0,4.259,4.259A4.264,4.264,0,0,0,3127.01,635.372Z" transform="translate(-3122.751 -635.372)" fill="#fff"/>
    </g>
    <g id="Group_7134" data-name="Group 7134" transform="translate(3108.349 616.112)">
      <path id="Path_64839" data-name="Path 64839" d="M3160.919,635.372a4.259,4.259,0,1,0,4.259,4.259A4.264,4.264,0,0,0,3160.919,635.372Z" transform="translate(-3156.66 -635.372)" fill="#fff"/>
    </g>
    <g id="Group_7135" data-name="Group 7135" transform="translate(3132.596 616.112)">
      <path id="Path_64840" data-name="Path 64840" d="M3194.828,635.372a4.259,4.259,0,1,0,4.259,4.259A4.264,4.264,0,0,0,3194.828,635.372Z" transform="translate(-3190.569 -635.372)" fill="#fff"/>
    </g>
    <g id="Group_7136" data-name="Group 7136" transform="translate(2987.115 640.359)">
      <path id="Path_64841" data-name="Path 64841" d="M2991.374,669.281a4.259,4.259,0,1,0,4.259,4.259A4.264,4.264,0,0,0,2991.374,669.281Z" transform="translate(-2987.115 -669.281)" fill="#fff"/>
    </g>
    <g id="Group_7137" data-name="Group 7137" transform="translate(3011.362 640.359)">
      <path id="Path_64842" data-name="Path 64842" d="M3025.283,669.281a4.259,4.259,0,1,0,4.26,4.259A4.264,4.264,0,0,0,3025.283,669.281Z" transform="translate(-3021.024 -669.281)" fill="#fff"/>
    </g>
    <g id="Group_7138" data-name="Group 7138" transform="translate(3035.609 640.359)">
      <path id="Path_64843" data-name="Path 64843" d="M3059.192,669.281a4.259,4.259,0,1,0,4.259,4.259A4.263,4.263,0,0,0,3059.192,669.281Z" transform="translate(-3054.933 -669.281)" fill="#fff"/>
    </g>
    <g id="Group_7139" data-name="Group 7139" transform="translate(3059.855 640.359)">
      <path id="Path_64844" data-name="Path 64844" d="M3093.1,669.281a4.259,4.259,0,1,0,4.259,4.259A4.264,4.264,0,0,0,3093.1,669.281Z" transform="translate(-3088.842 -669.281)" fill="#fff"/>
    </g>
    <g id="Group_7140" data-name="Group 7140" transform="translate(3084.102 640.359)">
      <path id="Path_64845" data-name="Path 64845" d="M3127.01,669.281a4.259,4.259,0,1,0,4.259,4.259A4.264,4.264,0,0,0,3127.01,669.281Z" transform="translate(-3122.751 -669.281)" fill="#fff"/>
    </g>
    <g id="Group_7141" data-name="Group 7141" transform="translate(3108.349 640.359)">
      <path id="Path_64846" data-name="Path 64846" d="M3160.919,669.281a4.259,4.259,0,1,0,4.259,4.259A4.264,4.264,0,0,0,3160.919,669.281Z" transform="translate(-3156.66 -669.281)" fill="#fff"/>
    </g>
    <g id="Group_7142" data-name="Group 7142" transform="translate(3132.596 640.359)">
      <path id="Path_64847" data-name="Path 64847" d="M3194.828,669.281a4.259,4.259,0,1,0,4.259,4.259A4.264,4.264,0,0,0,3194.828,669.281Z" transform="translate(-3190.569 -669.281)" fill="#fff"/>
    </g>
    <g id="Group_7143" data-name="Group 7143" transform="translate(2987.115 664.599)">
      <path id="Path_64848" data-name="Path 64848" d="M2991.374,703.181a4.259,4.259,0,1,0,4.259,4.259A4.264,4.264,0,0,0,2991.374,703.181Z" transform="translate(-2987.115 -703.181)" fill="#fff"/>
    </g>
    <g id="Group_7144" data-name="Group 7144" transform="translate(3011.362 664.599)">
      <path id="Path_64849" data-name="Path 64849" d="M3025.283,703.181a4.259,4.259,0,1,0,4.26,4.259A4.264,4.264,0,0,0,3025.283,703.181Z" transform="translate(-3021.024 -703.181)" fill="#fff"/>
    </g>
    <g id="Group_7145" data-name="Group 7145" transform="translate(3035.609 664.599)">
      <path id="Path_64850" data-name="Path 64850" d="M3059.192,703.181a4.259,4.259,0,1,0,4.259,4.259A4.263,4.263,0,0,0,3059.192,703.181Z" transform="translate(-3054.933 -703.181)" fill="#fff"/>
    </g>
    <g id="Group_7146" data-name="Group 7146" transform="translate(3059.855 664.599)">
      <path id="Path_64851" data-name="Path 64851" d="M3093.1,703.181a4.259,4.259,0,1,0,4.259,4.259A4.264,4.264,0,0,0,3093.1,703.181Z" transform="translate(-3088.842 -703.181)" fill="#fff"/>
    </g>
    <g id="Group_7147" data-name="Group 7147" transform="translate(3084.102 664.599)">
      <path id="Path_64852" data-name="Path 64852" d="M3127.01,703.181a4.259,4.259,0,1,0,4.259,4.259A4.264,4.264,0,0,0,3127.01,703.181Z" transform="translate(-3122.751 -703.181)" fill="#fff"/>
    </g>
    <g id="Group_7148" data-name="Group 7148" transform="translate(3108.349 664.599)">
      <path id="Path_64853" data-name="Path 64853" d="M3160.919,703.181a4.259,4.259,0,1,0,4.259,4.259A4.264,4.264,0,0,0,3160.919,703.181Z" transform="translate(-3156.66 -703.181)" fill="#fff"/>
    </g>
    <g id="Group_7149" data-name="Group 7149" transform="translate(3132.596 664.599)">
      <path id="Path_64854" data-name="Path 64854" d="M3194.828,703.181a4.259,4.259,0,1,0,4.259,4.259A4.264,4.264,0,0,0,3194.828,703.181Z" transform="translate(-3190.569 -703.181)" fill="#fff"/>
    </g>
    <g id="Group_7150" data-name="Group 7150" transform="translate(2987.115 688.689)">
      <path id="Path_64855" data-name="Path 64855" d="M2991.374,736.871a4.259,4.259,0,1,0,4.259,4.259A4.264,4.264,0,0,0,2991.374,736.871Z" transform="translate(-2987.115 -736.871)" fill="#fff"/>
    </g>
    <g id="Group_7151" data-name="Group 7151" transform="translate(3011.362 688.689)">
      <path id="Path_64856" data-name="Path 64856" d="M3025.283,736.871a4.259,4.259,0,1,0,4.26,4.259A4.264,4.264,0,0,0,3025.283,736.871Z" transform="translate(-3021.024 -736.871)" fill="#fff"/>
    </g>
    <g id="Group_7152" data-name="Group 7152" transform="translate(3035.609 688.689)">
      <path id="Path_64857" data-name="Path 64857" d="M3059.192,736.871a4.259,4.259,0,1,0,4.259,4.259A4.263,4.263,0,0,0,3059.192,736.871Z" transform="translate(-3054.933 -736.871)" fill="#fff"/>
    </g>
    <g id="Group_7153" data-name="Group 7153" transform="translate(3059.855 688.689)">
      <path id="Path_64858" data-name="Path 64858" d="M3093.1,736.871a4.259,4.259,0,1,0,4.259,4.259A4.264,4.264,0,0,0,3093.1,736.871Z" transform="translate(-3088.842 -736.871)" fill="#fff"/>
    </g>
    <g id="Group_7154" data-name="Group 7154" transform="translate(3084.102 688.689)">
      <path id="Path_64859" data-name="Path 64859" d="M3127.01,736.871a4.259,4.259,0,1,0,4.259,4.259A4.264,4.264,0,0,0,3127.01,736.871Z" transform="translate(-3122.751 -736.871)" fill="#fff"/>
    </g>
    <g id="Group_7155" data-name="Group 7155" transform="translate(3108.349 688.689)">
      <path id="Path_64860" data-name="Path 64860" d="M3160.919,736.871a4.259,4.259,0,1,0,4.259,4.259A4.264,4.264,0,0,0,3160.919,736.871Z" transform="translate(-3156.66 -736.871)" fill="#fff"/>
    </g>
    <g id="Group_7156" data-name="Group 7156" transform="translate(3132.596 688.689)">
      <path id="Path_64861" data-name="Path 64861" d="M3194.828,736.871a4.259,4.259,0,1,0,4.259,4.259A4.264,4.264,0,0,0,3194.828,736.871Z" transform="translate(-3190.569 -736.871)" fill="#fff"/>
    </g>
    <g id="Group_7157" data-name="Group 7157" transform="translate(2987.115 713.088)">
      <path id="Path_64862" data-name="Path 64862" d="M2991.374,770.992a4.259,4.259,0,1,0,4.259,4.259A4.264,4.264,0,0,0,2991.374,770.992Z" transform="translate(-2987.115 -770.992)" fill="#fff"/>
    </g>
    <g id="Group_7158" data-name="Group 7158" transform="translate(3011.362 713.088)">
      <path id="Path_64863" data-name="Path 64863" d="M3025.283,770.992a4.259,4.259,0,1,0,4.26,4.259A4.264,4.264,0,0,0,3025.283,770.992Z" transform="translate(-3021.024 -770.992)" fill="#fff"/>
    </g>
    <g id="Group_7159" data-name="Group 7159" transform="translate(3035.609 713.088)">
      <path id="Path_64864" data-name="Path 64864" d="M3059.192,770.992a4.259,4.259,0,1,0,4.259,4.259A4.263,4.263,0,0,0,3059.192,770.992Z" transform="translate(-3054.933 -770.992)" fill="#fff"/>
    </g>
    <g id="Group_7160" data-name="Group 7160" transform="translate(3059.855 713.088)">
      <path id="Path_64865" data-name="Path 64865" d="M3093.1,770.992a4.259,4.259,0,1,0,4.259,4.259A4.264,4.264,0,0,0,3093.1,770.992Z" transform="translate(-3088.842 -770.992)" fill="#fff"/>
    </g>
    <g id="Group_7161" data-name="Group 7161" transform="translate(3084.102 713.088)">
      <path id="Path_64866" data-name="Path 64866" d="M3127.01,770.992a4.259,4.259,0,1,0,4.259,4.259A4.264,4.264,0,0,0,3127.01,770.992Z" transform="translate(-3122.751 -770.992)" fill="#fff"/>
    </g>
    <g id="Group_7162" data-name="Group 7162" transform="translate(3108.349 713.088)">
      <path id="Path_64867" data-name="Path 64867" d="M3160.919,770.992a4.259,4.259,0,1,0,4.259,4.259A4.264,4.264,0,0,0,3160.919,770.992Z" transform="translate(-3156.66 -770.992)" fill="#fff"/>
    </g>
    <g id="Group_7163" data-name="Group 7163" transform="translate(3132.596 713.088)">
      <path id="Path_64868" data-name="Path 64868" d="M3194.828,770.992a4.259,4.259,0,1,0,4.259,4.259A4.264,4.264,0,0,0,3194.828,770.992Z" transform="translate(-3190.569 -770.992)" fill="#fff"/>
    </g>
    <g id="Group_7164" data-name="Group 7164" transform="translate(3156.833 567.781)">
      <path id="Path_64869" data-name="Path 64869" d="M3228.724,567.781a4.259,4.259,0,1,0,4.259,4.259A4.264,4.264,0,0,0,3228.724,567.781Z" transform="translate(-3224.465 -567.781)" fill="#fff"/>
    </g>
    <g id="Group_7165" data-name="Group 7165" transform="translate(3181.08 567.781)">
      <path id="Path_64870" data-name="Path 64870" d="M3262.633,567.781a4.259,4.259,0,1,0,4.259,4.259A4.264,4.264,0,0,0,3262.633,567.781Z" transform="translate(-3258.374 -567.781)" fill="#fff"/>
    </g>
    <g id="Group_7166" data-name="Group 7166" transform="translate(3205.326 567.781)">
      <path id="Path_64871" data-name="Path 64871" d="M3296.542,567.781a4.259,4.259,0,1,0,4.259,4.259A4.264,4.264,0,0,0,3296.542,567.781Z" transform="translate(-3292.283 -567.781)" fill="#fff"/>
    </g>
    <g id="Group_7167" data-name="Group 7167" transform="translate(3229.573 567.781)">
      <path id="Path_64872" data-name="Path 64872" d="M3330.451,567.781a4.259,4.259,0,1,0,4.259,4.259A4.264,4.264,0,0,0,3330.451,567.781Z" transform="translate(-3326.192 -567.781)" fill="#fff"/>
    </g>
    <g id="Group_7168" data-name="Group 7168" transform="translate(3253.821 567.781)">
      <path id="Path_64873" data-name="Path 64873" d="M3364.361,567.781a4.259,4.259,0,1,0,4.259,4.259A4.263,4.263,0,0,0,3364.361,567.781Z" transform="translate(-3360.102 -567.781)" fill="#fff"/>
    </g>
    <g id="Group_7169" data-name="Group 7169" transform="translate(3278.068 567.781)">
      <path id="Path_64874" data-name="Path 64874" d="M3398.27,567.781a4.259,4.259,0,1,0,4.259,4.259A4.264,4.264,0,0,0,3398.27,567.781Z" transform="translate(-3394.011 -567.781)" fill="#fff"/>
    </g>
    <g id="Group_7170" data-name="Group 7170" transform="translate(3302.314 567.781)">
      <path id="Path_64875" data-name="Path 64875" d="M3432.179,576.3a4.259,4.259,0,1,0-4.259-4.259A4.264,4.264,0,0,0,3432.179,576.3Z" transform="translate(-3427.92 -567.781)" fill="#fff"/>
    </g>
    <g id="Group_7171" data-name="Group 7171" transform="translate(3156.833 592.022)">
      <path id="Path_64876" data-name="Path 64876" d="M3228.724,601.682a4.259,4.259,0,1,0,4.259,4.259A4.264,4.264,0,0,0,3228.724,601.682Z" transform="translate(-3224.465 -601.682)" fill="#fff"/>
    </g>
    <g id="Group_7172" data-name="Group 7172" transform="translate(3181.08 592.022)">
      <path id="Path_64877" data-name="Path 64877" d="M3262.633,601.682a4.259,4.259,0,1,0,4.259,4.259A4.264,4.264,0,0,0,3262.633,601.682Z" transform="translate(-3258.374 -601.682)" fill="#fff"/>
    </g>
    <g id="Group_7173" data-name="Group 7173" transform="translate(3205.326 592.022)">
      <path id="Path_64878" data-name="Path 64878" d="M3296.542,601.682a4.259,4.259,0,1,0,4.259,4.259A4.264,4.264,0,0,0,3296.542,601.682Z" transform="translate(-3292.283 -601.682)" fill="#fff"/>
    </g>
    <g id="Group_7174" data-name="Group 7174" transform="translate(3229.573 592.022)">
      <path id="Path_64879" data-name="Path 64879" d="M3330.451,601.682a4.259,4.259,0,1,0,4.259,4.259A4.264,4.264,0,0,0,3330.451,601.682Z" transform="translate(-3326.192 -601.682)" fill="#fff"/>
    </g>
    <g id="Group_7175" data-name="Group 7175" transform="translate(3253.821 592.022)">
      <path id="Path_64880" data-name="Path 64880" d="M3364.361,601.682a4.259,4.259,0,1,0,4.259,4.259A4.263,4.263,0,0,0,3364.361,601.682Z" transform="translate(-3360.102 -601.682)" fill="#fff"/>
    </g>
    <g id="Group_7176" data-name="Group 7176" transform="translate(3278.068 592.022)">
      <path id="Path_64881" data-name="Path 64881" d="M3398.27,601.682a4.259,4.259,0,1,0,4.259,4.259A4.264,4.264,0,0,0,3398.27,601.682Z" transform="translate(-3394.011 -601.682)" fill="#fff"/>
    </g>
    <g id="Group_7177" data-name="Group 7177" transform="translate(3302.314 592.022)">
      <path id="Path_64882" data-name="Path 64882" d="M3432.179,601.682a4.259,4.259,0,1,0,4.259,4.259A4.264,4.264,0,0,0,3432.179,601.682Z" transform="translate(-3427.92 -601.682)" fill="#fff"/>
    </g>
    <g id="Group_7178" data-name="Group 7178" transform="translate(3156.833 616.112)">
      <path id="Path_64883" data-name="Path 64883" d="M3228.724,635.372a4.259,4.259,0,1,0,4.259,4.259A4.264,4.264,0,0,0,3228.724,635.372Z" transform="translate(-3224.465 -635.372)" fill="#fff"/>
    </g>
    <g id="Group_7179" data-name="Group 7179" transform="translate(3181.08 616.112)">
      <path id="Path_64884" data-name="Path 64884" d="M3262.633,635.372a4.259,4.259,0,1,0,4.259,4.259A4.264,4.264,0,0,0,3262.633,635.372Z" transform="translate(-3258.374 -635.372)" fill="#fff"/>
    </g>
    <g id="Group_7180" data-name="Group 7180" transform="translate(3205.326 616.112)">
      <path id="Path_64885" data-name="Path 64885" d="M3296.542,635.372a4.259,4.259,0,1,0,4.259,4.259A4.264,4.264,0,0,0,3296.542,635.372Z" transform="translate(-3292.283 -635.372)" fill="#fff"/>
    </g>
    <g id="Group_7181" data-name="Group 7181" transform="translate(3229.573 616.112)">
      <path id="Path_64886" data-name="Path 64886" d="M3330.451,635.372a4.259,4.259,0,1,0,4.259,4.259A4.264,4.264,0,0,0,3330.451,635.372Z" transform="translate(-3326.192 -635.372)" fill="#fff"/>
    </g>
    <g id="Group_7182" data-name="Group 7182" transform="translate(3253.821 616.112)">
      <path id="Path_64887" data-name="Path 64887" d="M3364.361,635.372a4.259,4.259,0,1,0,4.259,4.259A4.263,4.263,0,0,0,3364.361,635.372Z" transform="translate(-3360.102 -635.372)" fill="#fff"/>
    </g>
    <g id="Group_7183" data-name="Group 7183" transform="translate(3278.068 616.112)">
      <path id="Path_64888" data-name="Path 64888" d="M3398.27,635.372a4.259,4.259,0,1,0,4.259,4.259A4.264,4.264,0,0,0,3398.27,635.372Z" transform="translate(-3394.011 -635.372)" fill="#fff"/>
    </g>
    <g id="Group_7184" data-name="Group 7184" transform="translate(3302.314 616.112)">
      <path id="Path_64889" data-name="Path 64889" d="M3432.179,635.372a4.259,4.259,0,1,0,4.259,4.259A4.264,4.264,0,0,0,3432.179,635.372Z" transform="translate(-3427.92 -635.372)" fill="#fff"/>
    </g>
    <g id="Group_7185" data-name="Group 7185" transform="translate(3156.833 640.359)">
      <path id="Path_64890" data-name="Path 64890" d="M3228.724,669.281a4.259,4.259,0,1,0,4.259,4.259A4.264,4.264,0,0,0,3228.724,669.281Z" transform="translate(-3224.465 -669.281)" fill="#fff"/>
    </g>
    <g id="Group_7186" data-name="Group 7186" transform="translate(3181.08 640.359)">
      <path id="Path_64891" data-name="Path 64891" d="M3262.633,669.281a4.259,4.259,0,1,0,4.259,4.259A4.264,4.264,0,0,0,3262.633,669.281Z" transform="translate(-3258.374 -669.281)" fill="#fff"/>
    </g>
    <g id="Group_7187" data-name="Group 7187" transform="translate(3205.326 640.359)">
      <path id="Path_64892" data-name="Path 64892" d="M3296.542,669.281a4.259,4.259,0,1,0,4.259,4.259A4.264,4.264,0,0,0,3296.542,669.281Z" transform="translate(-3292.283 -669.281)" fill="#fff"/>
    </g>
    <g id="Group_7188" data-name="Group 7188" transform="translate(3229.573 640.359)">
      <path id="Path_64893" data-name="Path 64893" d="M3330.451,669.281a4.259,4.259,0,1,0,4.259,4.259A4.264,4.264,0,0,0,3330.451,669.281Z" transform="translate(-3326.192 -669.281)" fill="#fff"/>
    </g>
    <g id="Group_7189" data-name="Group 7189" transform="translate(3253.821 640.359)">
      <path id="Path_64894" data-name="Path 64894" d="M3364.361,669.281a4.259,4.259,0,1,0,4.259,4.259A4.263,4.263,0,0,0,3364.361,669.281Z" transform="translate(-3360.102 -669.281)" fill="#fff"/>
    </g>
    <g id="Group_7190" data-name="Group 7190" transform="translate(3278.068 640.359)">
      <path id="Path_64895" data-name="Path 64895" d="M3398.27,669.281a4.259,4.259,0,1,0,4.259,4.259A4.264,4.264,0,0,0,3398.27,669.281Z" transform="translate(-3394.011 -669.281)" fill="#fff"/>
    </g>
    <g id="Group_7191" data-name="Group 7191" transform="translate(3302.314 640.359)">
      <path id="Path_64896" data-name="Path 64896" d="M3432.179,669.281a4.259,4.259,0,1,0,4.259,4.259A4.264,4.264,0,0,0,3432.179,669.281Z" transform="translate(-3427.92 -669.281)" fill="#fff"/>
    </g>
    <g id="Group_7192" data-name="Group 7192" transform="translate(3156.833 664.599)">
      <path id="Path_64897" data-name="Path 64897" d="M3228.724,703.181a4.259,4.259,0,1,0,4.259,4.259A4.264,4.264,0,0,0,3228.724,703.181Z" transform="translate(-3224.465 -703.181)" fill="#fff"/>
    </g>
    <g id="Group_7193" data-name="Group 7193" transform="translate(3181.08 664.599)">
      <path id="Path_64898" data-name="Path 64898" d="M3262.633,703.181a4.259,4.259,0,1,0,4.259,4.259A4.264,4.264,0,0,0,3262.633,703.181Z" transform="translate(-3258.374 -703.181)" fill="#fff"/>
    </g>
    <g id="Group_7194" data-name="Group 7194" transform="translate(3205.326 664.599)">
      <path id="Path_64899" data-name="Path 64899" d="M3296.542,703.181a4.259,4.259,0,1,0,4.259,4.259A4.264,4.264,0,0,0,3296.542,703.181Z" transform="translate(-3292.283 -703.181)" fill="#fff"/>
    </g>
    <g id="Group_7195" data-name="Group 7195" transform="translate(3229.573 664.599)">
      <path id="Path_64900" data-name="Path 64900" d="M3330.451,703.181a4.259,4.259,0,1,0,4.259,4.259A4.264,4.264,0,0,0,3330.451,703.181Z" transform="translate(-3326.192 -703.181)" fill="#fff"/>
    </g>
    <g id="Group_7196" data-name="Group 7196" transform="translate(3253.821 664.599)">
      <path id="Path_64901" data-name="Path 64901" d="M3364.361,703.181a4.259,4.259,0,1,0,4.259,4.259A4.263,4.263,0,0,0,3364.361,703.181Z" transform="translate(-3360.102 -703.181)" fill="#fff"/>
    </g>
    <g id="Group_7197" data-name="Group 7197" transform="translate(3278.068 664.599)">
      <path id="Path_64902" data-name="Path 64902" d="M3398.27,703.181a4.259,4.259,0,1,0,4.259,4.259A4.264,4.264,0,0,0,3398.27,703.181Z" transform="translate(-3394.011 -703.181)" fill="#fff"/>
    </g>
    <g id="Group_7198" data-name="Group 7198" transform="translate(3302.314 664.599)">
      <path id="Path_64903" data-name="Path 64903" d="M3432.179,703.181a4.259,4.259,0,1,0,4.259,4.259A4.264,4.264,0,0,0,3432.179,703.181Z" transform="translate(-3427.92 -703.181)" fill="#fff"/>
    </g>
    <g id="Group_7199" data-name="Group 7199" transform="translate(3156.833 688.689)">
      <path id="Path_64904" data-name="Path 64904" d="M3228.724,736.871a4.259,4.259,0,1,0,4.259,4.259A4.264,4.264,0,0,0,3228.724,736.871Z" transform="translate(-3224.465 -736.871)" fill="#fff"/>
    </g>
    <g id="Group_7200" data-name="Group 7200" transform="translate(3181.08 688.689)">
      <path id="Path_64905" data-name="Path 64905" d="M3262.633,736.871a4.259,4.259,0,1,0,4.259,4.259A4.264,4.264,0,0,0,3262.633,736.871Z" transform="translate(-3258.374 -736.871)" fill="#fff"/>
    </g>
    <g id="Group_7201" data-name="Group 7201" transform="translate(3205.326 688.689)">
      <path id="Path_64906" data-name="Path 64906" d="M3296.542,736.871a4.259,4.259,0,1,0,4.259,4.259A4.264,4.264,0,0,0,3296.542,736.871Z" transform="translate(-3292.283 -736.871)" fill="#fff"/>
    </g>
    <g id="Group_7202" data-name="Group 7202" transform="translate(3229.573 688.689)">
      <path id="Path_64907" data-name="Path 64907" d="M3330.451,736.871a4.259,4.259,0,1,0,4.259,4.259A4.264,4.264,0,0,0,3330.451,736.871Z" transform="translate(-3326.192 -736.871)" fill="#fff"/>
    </g>
    <g id="Group_7203" data-name="Group 7203" transform="translate(3253.821 688.689)">
      <path id="Path_64908" data-name="Path 64908" d="M3364.361,736.871a4.259,4.259,0,1,0,4.259,4.259A4.263,4.263,0,0,0,3364.361,736.871Z" transform="translate(-3360.102 -736.871)" fill="#fff"/>
    </g>
    <g id="Group_7204" data-name="Group 7204" transform="translate(3278.068 688.689)">
      <path id="Path_64909" data-name="Path 64909" d="M3398.27,736.871a4.259,4.259,0,1,0,4.259,4.259A4.264,4.264,0,0,0,3398.27,736.871Z" transform="translate(-3394.011 -736.871)" fill="#fff"/>
    </g>
    <g id="Group_7205" data-name="Group 7205" transform="translate(3302.314 688.689)">
      <path id="Path_64910" data-name="Path 64910" d="M3432.179,736.871a4.259,4.259,0,1,0,4.259,4.259A4.264,4.264,0,0,0,3432.179,736.871Z" transform="translate(-3427.92 -736.871)" fill="#fff"/>
    </g>
    <g id="Group_7206" data-name="Group 7206" transform="translate(3156.833 713.088)">
      <path id="Path_64911" data-name="Path 64911" d="M3228.724,770.992a4.259,4.259,0,1,0,4.259,4.259A4.264,4.264,0,0,0,3228.724,770.992Z" transform="translate(-3224.465 -770.992)" fill="#fff"/>
    </g>
    <g id="Group_7207" data-name="Group 7207" transform="translate(3181.08 713.088)">
      <path id="Path_64912" data-name="Path 64912" d="M3262.633,770.992a4.259,4.259,0,1,0,4.259,4.259A4.264,4.264,0,0,0,3262.633,770.992Z" transform="translate(-3258.374 -770.992)" fill="#fff"/>
    </g>
    <g id="Group_7208" data-name="Group 7208" transform="translate(3205.326 713.088)">
      <path id="Path_64913" data-name="Path 64913" d="M3296.542,770.992a4.259,4.259,0,1,0,4.259,4.259A4.264,4.264,0,0,0,3296.542,770.992Z" transform="translate(-3292.283 -770.992)" fill="#fff"/>
    </g>
    <g id="Group_7209" data-name="Group 7209" transform="translate(3229.573 713.088)">
      <path id="Path_64914" data-name="Path 64914" d="M3330.451,770.992a4.259,4.259,0,1,0,4.259,4.259A4.264,4.264,0,0,0,3330.451,770.992Z" transform="translate(-3326.192 -770.992)" fill="#fff"/>
    </g>
    <g id="Group_7210" data-name="Group 7210" transform="translate(3253.821 713.088)">
      <path id="Path_64915" data-name="Path 64915" d="M3364.361,770.992a4.259,4.259,0,1,0,4.259,4.259A4.263,4.263,0,0,0,3364.361,770.992Z" transform="translate(-3360.102 -770.992)" fill="#fff"/>
    </g>
    <g id="Group_7211" data-name="Group 7211" transform="translate(3278.068 713.088)">
      <path id="Path_64916" data-name="Path 64916" d="M3398.27,770.992a4.259,4.259,0,1,0,4.259,4.259A4.264,4.264,0,0,0,3398.27,770.992Z" transform="translate(-3394.011 -770.992)" fill="#fff"/>
    </g>
    <g id="Group_7212" data-name="Group 7212" transform="translate(3302.314 713.088)">
      <path id="Path_64917" data-name="Path 64917" d="M3432.179,770.992a4.259,4.259,0,1,0,4.259,4.259A4.264,4.264,0,0,0,3432.179,770.992Z" transform="translate(-3427.92 -770.992)" fill="#fff"/>
    </g>
  </g>
</svg>
