<svg id="Group_2244" data-name="Group 2244" xmlns="http://www.w3.org/2000/svg" width="18.232" height="25.171" viewBox="0 0 18.232 25.171">
  <g id="Group_2241" data-name="Group 2241" transform="translate(0)">
    <g id="Group_2240" data-name="Group 2240" transform="translate(0)">
      <path id="Path_1696" data-name="Path 1696" d="M79.689,0a9.126,9.126,0,0,0-9.116,9.116c0,6.238,8.158,15.4,8.505,15.783a.821.821,0,0,0,1.221,0c.347-.387,8.505-9.545,8.505-15.783A9.127,9.127,0,0,0,79.689,0Zm0,23.093c-2.746-3.261-7.474-9.7-7.474-13.977a7.474,7.474,0,0,1,14.949,0C87.163,13.4,82.435,19.831,79.689,23.093Z" transform="translate(-70.573)" fill="#0fa4de"/>
    </g>
  </g>
  <g id="Group_2243" data-name="Group 2243" transform="translate(4.529 4.53)">
    <g id="Group_2242" data-name="Group 2242" transform="translate(0)">
      <path id="Path_1697" data-name="Path 1697" d="M167.293,92.134a4.586,4.586,0,1,0,4.587,4.586A4.59,4.59,0,0,0,167.293,92.134Zm0,7.531a2.945,2.945,0,1,1,2.946-2.945A2.948,2.948,0,0,1,167.293,99.665Z" transform="translate(-162.709 -92.134)" fill="#0fa4de"/>
    </g>
  </g>
</svg>
